<svg width="4500" height="2000" viewBox="0 0 4500 2000" fill="none" xmlns="http://www.w3.org/2000/svg">
<mask id="mask0_878_2067" style="mask-type:luminance" maskUnits="userSpaceOnUse" x="0" y="0" width="4500" height="2000">
<path d="M0.5 0.5H4499.5V1999.5H0.5V0.5Z" fill="white" stroke="white"/>
</mask>
<g mask="url(#mask0_878_2067)">
<path d="M-749.14 657.404C-599.035 470.772 -321.017 425.985 -92.0291 496.184C136.958 566.382 324.818 730.378 488.899 904.85C652.98 1079.32 802.411 1269.96 991.265 1417.25C1180.12 1564.55 1420.56 1666.6 1656.87 1627.6C1911.52 1585.57 2111.63 1392.17 2283.42 1199.55C2455.2 1006.93 2627.28 797.543 2867.47 703.088C3210.57 568.161 3601.66 704.257 3915.49 897.733C4229.33 1091.21 4511.42 1344.14 4856.58 1473.72C5007.72 1530.46 5195.38 1555.58 5316.05 1448.34" stroke="url(#paint0_linear_878_2067)" stroke-miterlimit="10"/>
<path d="M-750.2 677.673C-603.035 489.541 -331.588 436.099 -102.831 501.445C124.308 566.328 311.685 728.141 475.725 899.561C643.629 1075.02 796.049 1268.03 987.954 1417.29C1179.86 1566.55 1424.74 1669.2 1663.91 1627.32C1916.78 1583.04 2114.96 1390.33 2285.88 1198.5C2456.81 1006.67 2629.16 798.735 2868.8 706.827C3206.95 576.061 3591.04 711.157 3899.11 902.589C4207.18 1094.02 4485.11 1339.95 4821.89 1473.72C4980.47 1536.72 5177.31 1567.09 5309.25 1460.97" stroke="url(#paint1_linear_878_2067)" stroke-miterlimit="10"/>
<path d="M-751.26 697.94C-607.035 508.308 -342.188 446.233 -113.633 506.704C111.63 566.303 298.603 725.868 462.553 894.271C634.313 1070.69 789.689 1266.11 984.644 1417.33C1179.6 1568.55 1428.92 1671.84 1670.96 1627.04C1922.05 1580.57 2118.28 1388.5 2288.34 1197.45C2458.41 1006.41 2631.28 800.582 2870.14 710.565C3203.67 584.874 3580.42 718.056 3882.73 907.444C4185.03 1096.83 4458.62 1336.5 4787.19 1473.73C4953.26 1543.08 5159.25 1578.59 5302.45 1473.6" stroke="url(#paint2_linear_878_2067)" stroke-miterlimit="10"/>
<path d="M-752.319 718.206C-611.034 527.074 -352.816 456.391 -124.433 511.961C98.9231 566.308 285.567 723.558 449.38 888.979C625.029 1066.35 783.329 1264.18 981.334 1417.36C1179.34 1570.55 1433.1 1674.52 1678 1626.76C1927.31 1578.15 2121.6 1386.66 2290.81 1196.41C2460.01 1006.15 2633.26 802.079 2871.48 714.303C3200.19 593.183 3569.81 724.954 3866.34 912.3C4162.88 1099.65 4431.96 1333.67 4752.5 1473.73C4926.08 1549.57 5141.18 1590.1 5295.65 1486.23" stroke="url(#paint3_linear_878_2067)" stroke-miterlimit="10"/>
<path d="M-753.379 738.475C-615.034 545.843 -363.473 466.58 -135.235 517.223C86.1891 566.353 272.575 721.217 436.207 883.691C615.779 1061.99 776.968 1262.26 978.024 1417.4C1179.08 1572.55 1437.27 1677.23 1685.04 1626.49C1932.58 1575.79 2124.93 1384.82 2293.27 1195.36C2461.61 1005.9 2635.23 803.563 2872.82 718.044C3196.69 601.464 3559.19 731.857 3849.96 917.158C4140.73 1102.46 4405.13 1331.39 4717.8 1473.73C4898.92 1556.18 5123.12 1601.61 5288.85 1498.86" stroke="url(#paint4_linear_878_2067)" stroke-miterlimit="10"/>
<path d="M-754.438 758.743C-619.034 564.61 -374.155 476.799 -146.035 522.482C73.43 566.433 259.626 718.841 423.034 878.402C606.562 1057.61 770.608 1260.33 974.713 1417.44C1178.82 1574.55 1441.44 1679.99 1692.09 1626.21C1937.85 1573.48 2128.25 1382.99 2295.73 1194.32C2463.22 1005.64 2637.19 805.03 2874.15 721.784C3193.18 609.71 3548.57 738.757 3833.57 922.015C4118.57 1105.27 4378.14 1329.57 4683.11 1473.74C4871.74 1562.91 5105.05 1613.11 5282.05 1511.49" stroke="url(#paint5_linear_878_2067)" stroke-miterlimit="10"/>
<path d="M-755.498 779.01C-623.034 583.377 -384.863 487.05 -156.837 527.741C60.647 566.551 246.717 716.429 409.861 873.111C597.378 1053.2 764.247 1258.41 971.403 1417.48C1178.56 1576.54 1445.62 1682.78 1699.13 1625.93C1943.13 1571.22 2131.57 1381.16 2298.2 1193.27C2464.82 1005.38 2639.14 806.476 2875.49 725.522C3189.64 617.92 3537.96 745.656 3817.19 926.871C4096.42 1108.09 4351.01 1328.15 4648.41 1473.74C4844.56 1569.76 5086.99 1624.62 5275.25 1524.12" stroke="url(#paint6_linear_878_2067)" stroke-miterlimit="10"/>
<path d="M-756.557 799.279C-627.033 602.146 -395.594 497.34 -167.638 533.002C47.8409 566.713 233.845 713.987 396.689 867.822C588.229 1048.77 757.887 1256.48 968.094 1417.51C1178.3 1578.54 1449.8 1685.61 1706.17 1625.66C1948.42 1569.01 2134.9 1379.32 2300.66 1192.22C2466.42 1005.12 2641.07 807.905 2876.83 729.262C3186.09 626.097 3527.34 752.557 3800.81 931.728C4074.27 1110.9 4323.75 1327.08 4613.72 1473.74C4817.34 1576.73 5068.92 1636.12 5268.45 1536.75" stroke="url(#paint7_linear_878_2067)" stroke-miterlimit="10"/>
<path d="M-757.617 819.545C-631.033 620.912 -406.347 507.666 -178.439 538.26C35.0158 566.914 221.009 711.51 383.516 862.531C579.112 1044.3 751.527 1254.56 964.783 1417.55C1178.04 1580.54 1453.98 1688.48 1713.22 1625.38C1953.71 1566.84 2138.22 1377.48 2303.12 1191.17C2468.02 1004.86 2643 809.31 2878.16 733C3182.52 634.236 3516.73 759.456 3784.42 936.583C4052.12 1113.71 4296.36 1326.3 4579.02 1473.74C4790.09 1583.83 5050.86 1647.63 5261.65 1549.38" stroke="url(#paint8_linear_878_2067)" stroke-miterlimit="10"/>
<path d="M-758.677 839.814C-635.033 639.681 -417.118 518.037 -189.24 543.521C22.1723 567.164 208.206 709.004 370.344 857.242C570.03 1039.81 745.167 1252.64 961.474 1417.59C1177.78 1582.54 1458.18 1691.39 1720.26 1625.1C1959.01 1564.71 2141.54 1375.65 2305.59 1190.13C2469.63 1004.61 2644.92 810.694 2879.5 736.739C3178.94 642.339 3506.11 766.356 3768.04 941.439C4029.97 1116.52 4268.85 1325.8 4544.33 1473.74C4762.78 1591.06 5032.79 1659.13 5254.86 1562.01" stroke="url(#paint9_linear_878_2067)" stroke-miterlimit="10"/>
<path d="M-759.736 860.081C-639.033 658.448 -427.907 528.451 -200.041 548.78C9.31317 567.457 195.435 706.465 357.171 851.952C560.979 1035.29 738.806 1250.71 958.164 1417.62C1177.52 1584.54 1462.38 1694.35 1727.3 1624.82C1964.32 1562.63 2144.87 1373.82 2308.05 1189.08C2471.23 1004.35 2646.82 812.054 2880.84 740.479C3175.34 650.406 3495.5 773.257 3751.66 946.297C4007.82 1119.34 4241.23 1325.52 4509.64 1473.75C4735.42 1598.43 5014.73 1670.64 5248.06 1574.64" stroke="url(#paint10_linear_878_2067)" stroke-miterlimit="10"/>
<path d="M-760.796 880.348C-643.033 677.214 -438.709 538.913 -210.843 554.039C-3.55789 567.799 182.694 703.896 343.998 846.662C551.963 1030.73 732.446 1248.79 954.853 1417.66C1177.26 1586.54 1466.58 1697.34 1734.35 1624.55C1969.63 1560.58 2148.19 1371.98 2310.51 1188.04C2472.83 1004.09 2648.71 813.387 2882.17 744.217C3171.72 658.432 3484.88 780.155 3735.27 951.152C3985.67 1122.15 4213.51 1325.45 4474.94 1473.75C4707.98 1605.94 4996.66 1682.14 5241.26 1587.27" stroke="url(#paint11_linear_878_2067)" stroke-miterlimit="10"/>
<path d="M-761.855 900.616C-647.032 695.982 -449.52 549.427 -221.644 559.299C-16.439 568.189 169.981 701.297 330.825 841.372C542.98 1026.13 726.085 1246.86 951.543 1417.7C1177 1588.53 1470.8 1700.37 1741.39 1624.27C1974.96 1558.58 2151.51 1370.14 2312.97 1186.99C2474.44 1003.83 2650.59 814.692 2883.51 747.955C3168.09 666.418 3474.26 787.054 3718.89 956.007C3963.52 1124.96 4185.7 1325.55 4440.25 1473.75C4680.46 1613.6 4978.6 1693.65 5234.46 1599.89" stroke="url(#paint12_linear_878_2067)" stroke-miterlimit="10"/>
<path d="M-762.915 920.884C-651.033 714.75 -460.34 559.992 -232.445 564.559C-29.3261 568.629 157.294 698.669 317.653 836.083C534.031 1021.5 719.726 1244.94 948.233 1417.74C1176.74 1590.53 1475.03 1703.45 1748.43 1623.99C1980.29 1556.61 2154.84 1368.31 2315.44 1185.94C2476.04 1003.58 2652.46 815.969 2884.85 751.696C3164.44 674.367 3463.65 793.956 3702.51 960.865C3941.37 1127.77 4157.79 1325.82 4405.56 1473.76C4652.86 1621.42 4960.54 1705.16 5227.66 1612.53" stroke="url(#paint13_linear_878_2067)" stroke-miterlimit="10"/>
<path d="M-763.974 941.152C-655.032 733.518 -471.027 561.949 -243.246 569.819C-42.3351 576.761 144.632 696.012 304.48 830.794C525.115 1016.83 713.365 1243.01 944.923 1417.77C1176.48 1592.53 1479.27 1706.57 1755.48 1623.71C1985.64 1554.67 2158.16 1366.48 2317.9 1184.9C2477.64 1003.32 2654.32 817.212 2886.19 755.435C3160.79 682.272 3453.03 800.856 3686.12 965.721C3919.22 1130.59 4129.79 1326.21 4370.86 1473.76C4625.15 1629.39 4942.47 1716.66 5220.86 1625.15" stroke="url(#paint14_linear_878_2067)" stroke-miterlimit="10"/>
<path d="M-765.034 961.419C-659.032 752.285 -481.984 581.289 -254.047 575.078C-55.1062 569.657 131.994 693.325 291.307 825.503C516.233 1012.12 707.004 1241.09 941.613 1417.81C1176.22 1594.53 1483.52 1709.73 1762.52 1623.44C1991 1552.77 2161.48 1364.64 2320.36 1183.85C2479.24 1003.06 2656.17 818.421 2887.52 759.174C3157.11 690.135 3442.41 807.756 3669.74 970.578C3897.06 1133.4 4101.71 1326.73 4336.17 1473.76C4597.32 1637.53 4924.4 1728.17 5214.06 1637.78" stroke="url(#paint15_linear_878_2067)" stroke-miterlimit="10"/>
<path d="M-766.093 981.688C-663.031 771.054 -492.801 592.025 -264.848 580.339C-67.9908 570.247 119.376 690.612 278.135 820.215C507.385 1007.36 700.645 1239.17 938.303 1417.85C1175.96 1596.53 1487.8 1712.93 1769.56 1623.16C1996.37 1550.9 2164.81 1362.81 2322.83 1182.81C2480.85 1002.8 2658.01 819.595 2888.86 762.915C3153.43 697.957 3431.8 814.658 3653.36 975.436C3874.91 1136.21 4073.54 1327.36 4301.47 1473.76C4569.38 1645.84 4906.34 1739.67 5207.26 1650.41" stroke="url(#paint16_linear_878_2067)" stroke-miterlimit="10"/>
<path d="M-767.153 1001.95C-667.031 789.82 -503.609 602.818 -275.65 585.597C-80.8698 570.882 106.778 687.869 264.961 814.924C498.569 1002.56 694.283 1237.24 934.992 1417.88C1175.7 1598.53 1492.08 1716.18 1776.61 1622.88C2001.74 1549.06 2168.13 1360.97 2325.29 1181.76C2482.45 1002.54 2659.84 820.724 2890.2 766.652C3149.74 705.729 3421.18 821.556 3636.97 980.29C3852.76 1139.02 4045.3 1328.07 4266.78 1473.76C4541.29 1654.34 4888.27 1751.18 5200.46 1663.04" stroke="url(#paint17_linear_878_2067)" stroke-miterlimit="10"/>
<path d="M-768.213 1022.22C-671.032 808.587 -514.405 613.673 -286.451 590.857C-93.7359 571.568 94.1991 685.101 251.789 809.634C489.79 997.711 687.924 1235.32 931.683 1417.92C1175.44 1600.53 1496.39 1719.46 1783.65 1622.61C2007.14 1547.25 2171.45 1359.14 2327.75 1180.71C2484.05 1002.29 2661.66 821.813 2891.53 770.392C3146.04 713.46 3410.56 828.457 3620.59 985.148C3830.61 1141.84 4016.98 1328.87 4232.08 1473.77C4513.06 1663.04 4870.21 1762.68 5193.67 1675.67" stroke="url(#paint18_linear_878_2067)" stroke-miterlimit="10"/>
<path d="M-769.272 1042.49C-675.031 827.356 -525.182 624.589 -297.252 596.118C-106.587 572.302 81.637 682.307 238.616 804.346C481.043 992.814 681.563 1233.39 928.372 1417.96C1175.18 1602.53 1500.71 1722.8 1790.69 1622.33C2012.54 1545.47 2174.78 1357.3 2330.22 1179.67C2485.66 1002.03 2663.48 822.858 2892.87 774.132C3142.33 721.144 3399.95 835.357 3604.2 990.005C3808.46 1144.65 3988.58 1329.74 4197.39 1473.77C4484.66 1671.93 4852.15 1774.19 5186.87 1688.3" stroke="url(#paint19_linear_878_2067)" stroke-miterlimit="10"/>
<path d="M-770.332 1062.76C-679.031 846.122 -535.937 635.562 -308.054 601.376C-119.42 573.077 69.089 679.484 225.442 799.055C472.329 987.861 675.201 1231.47 925.061 1418C1174.92 1604.52 1505.05 1726.17 1797.73 1622.05C2017.96 1543.71 2178.1 1355.47 2332.68 1178.62C2487.26 1001.77 2665.28 823.851 2894.21 777.871C3138.62 728.781 3389.33 842.257 3587.82 994.861C3786.31 1147.47 3960.11 1330.66 4162.69 1473.77C4456.09 1681.04 4834.08 1785.69 5180.07 1700.93" stroke="url(#paint20_linear_878_2067)" stroke-miterlimit="10"/>
<path d="M-771.391 1083.03C-683.03 864.891 -546.664 646.599 -318.854 606.637C-132.23 573.899 56.5579 676.638 212.271 793.766C463.652 982.857 668.843 1229.55 921.753 1418.03C1174.66 1606.52 1509.42 1729.59 1804.78 1621.77C2023.39 1541.98 2181.42 1353.63 2335.14 1177.57C2488.86 1001.51 2667.09 824.792 2895.54 781.61C3134.9 736.369 3378.72 849.157 3571.44 999.717C3764.16 1150.28 3931.56 1331.63 4128 1473.78C4427.32 1690.36 4816.02 1797.2 5173.27 1713.56" stroke="url(#paint21_linear_878_2067)" stroke-miterlimit="10"/>
<path d="M-772.451 1103.29C-687.031 883.657 -557.361 657.692 -329.656 611.895C-145.015 574.759 44.0378 673.764 199.097 788.475C455.007 977.794 662.481 1227.62 918.441 1418.07C1174.4 1608.52 1513.8 1733.05 1811.82 1621.5C2028.84 1540.26 2184.74 1351.8 2337.6 1176.53C2490.46 1001.25 2668.88 825.674 2896.88 785.348C3131.18 743.908 3368.1 856.056 3555.05 1004.57C3742.01 1153.09 3902.94 1332.65 4093.3 1473.78C4398.34 1699.93 4797.95 1808.71 5166.47 1726.19" stroke="url(#paint22_linear_878_2067)" stroke-miterlimit="10"/>
<path d="M-773.51 1123.56C-691.03 902.425 -568.021 668.844 -340.456 617.155C-157.77 575.659 31.5323 670.867 185.926 783.185C446.398 972.673 656.122 1225.7 915.133 1418.11C1174.14 1610.52 1518.21 1736.55 1818.87 1621.22C2034.3 1538.58 2188.07 1349.96 2340.07 1175.48C2492.07 1001 2670.68 826.496 2898.22 789.087C3127.46 751.398 3357.49 862.956 3538.67 1009.43C3719.86 1155.9 3874.26 1333.69 4058.61 1473.78C4369.13 1709.73 4779.89 1820.21 5159.67 1738.82" stroke="url(#paint23_linear_878_2067)" stroke-miterlimit="10"/>
<path d="M-774.57 1143.83C-695.03 921.192 -578.644 680.051 -351.258 622.414C-170.495 576.594 19.0332 667.944 172.752 777.895C437.821 967.492 649.761 1223.77 911.822 1418.14C1173.88 1612.52 1522.64 1740.1 1825.91 1620.94C2039.77 1536.91 2191.39 1348.13 2342.53 1174.43C2493.67 1000.74 2672.47 827.252 2899.56 792.825C3123.74 758.837 3346.87 869.855 3522.29 1014.28C3697.7 1158.71 3845.48 1334.76 4023.92 1473.78C4339.66 1719.8 4761.82 1831.71 5152.87 1751.45" stroke="url(#paint24_linear_878_2067)" stroke-miterlimit="10"/>
<path d="M-775.629 1164.1C-699.029 939.961 -589.221 691.314 -362.059 627.676C-183.184 577.565 6.54514 665 159.58 772.608C429.279 962.25 643.401 1221.85 908.512 1418.18C1173.62 1614.52 1527.32 1744.23 1832.95 1620.67C2045.41 1535.63 2194.72 1346.29 2344.99 1173.39C2495.27 1000.48 2674.27 827.942 2900.89 796.568C3120.03 766.23 3336.25 876.759 3505.9 1019.15C3675.56 1161.53 3816.64 1335.84 3989.22 1473.79C4309.93 1730.13 4743.76 1843.22 5146.07 1764.08" stroke="url(#paint25_linear_878_2067)" stroke-miterlimit="10"/>
<path d="M-776.689 1184.36C-703.029 958.727 -599.753 702.624 -372.86 632.934C-195.837 578.561 -5.93495 662.028 146.407 767.316C420.771 956.938 637.041 1219.92 905.202 1418.22C1173.36 1616.51 1531.59 1747.33 1840 1620.39C2050.77 1533.63 2198.04 1344.46 2347.46 1172.34C2496.87 1000.22 2676.06 828.551 2902.23 800.304C3116.33 773.565 3325.64 883.655 3489.52 1024C3653.4 1164.34 3787.72 1336.93 3954.53 1473.79C4279.9 1740.74 4725.69 1854.73 5139.27 1776.71" stroke="url(#paint26_linear_878_2067)" stroke-miterlimit="10"/>
<path d="M5142.58 1755.96C4747.47 1816.48 4319.7 1709.35 3993.78 1469.71C3981.63 1460.77 3969.61 1451.65 3957.75 1442.35C3788.57 1309.68 3650.45 1144.19 3484.23 1011.16C3350.01 903.764 3187.54 816.275 3017.63 802.579C2977.11 799.3 2936.17 800.217 2895.07 806.05C2689.7 835.231 2522.29 979.673 2379.15 1133.41C2365.16 1148.42 2351.41 1163.53 2337.87 1178.62C2185.71 1348.25 2034.03 1531.55 1822.78 1613.12C1517.05 1731.17 1166.75 1599.86 902.05 1403.05C764.049 1300.45 639.483 1181.12 512.972 1064.58C396.816 957.593 279.133 853.035 148.546 765.287C-2.91185 663.49 -190.628 583.536 -365.773 636.722C-593.156 705.422 -701.184 955.328 -780.65 1175.91" stroke="url(#paint27_linear_878_2067)" stroke-miterlimit="10"/>
<path d="M5145.89 1735.2C4754.37 1781.05 4327.48 1670.01 3997.48 1437.43C3985.17 1428.76 3973 1419.92 3960.97 1410.91C3789.42 1282.43 3647.5 1124.04 3478.93 998.325C3342.81 896.834 3179.79 815.444 3010.12 805.833C2969.68 803.517 2928.86 805.28 2887.91 811.793C2683.21 844.421 2515.45 988.535 2370.23 1140.3C2356.04 1155.13 2342.06 1170.03 2328.28 1184.9C2173.39 1352.04 2017.36 1529.49 1805.57 1605.85C1502.6 1715.08 1160.13 1583.21 898.897 1387.88C762.715 1286.06 639.296 1168.4 513.468 1054.31C397.912 949.559 280.549 848 150.685 763.256C0.111176 664.95 -185.42 588.51 -358.685 640.509C-586.558 708.219 -699.337 951.927 -784.611 1167.46" stroke="url(#paint28_linear_878_2067)" stroke-miterlimit="10"/>
<path d="M5149.2 1714.45C4761.27 1745.61 4335.26 1630.68 4001.18 1405.15C3988.72 1396.74 3976.38 1388.18 3964.19 1379.46C3790.27 1255.17 3644.54 1103.89 3473.64 985.487C3335.62 889.903 3172.04 814.612 3002.61 809.086C2962.25 807.734 2921.55 810.342 2880.75 817.536C2676.72 853.612 2508.61 997.396 2361.32 1147.2C2346.93 1161.84 2332.72 1176.53 2318.69 1191.18C2161.07 1355.82 2000.75 1527.46 1788.35 1598.58C1488.23 1699.07 1153.52 1566.55 895.746 1372.71C761.384 1271.68 639.111 1155.67 513.967 1044.04C399.009 941.525 281.965 842.965 152.825 761.226C3.13426 666.411 -180.211 593.486 -351.598 644.297C-579.961 711.017 -697.492 948.528 -788.572 1159.01" stroke="url(#paint29_linear_878_2067)" stroke-miterlimit="10"/>
<path d="M5152.5 1693.7C4768.18 1710.17 4343.03 1591.34 4004.87 1372.88C3992.26 1364.73 3979.77 1356.44 3967.41 1348.02C3791.12 1227.92 3641.59 1083.74 3468.34 972.649C3328.42 882.973 3164.29 813.779 2995.1 812.339C2954.82 811.951 2914.24 815.403 2873.59 823.279C2670.24 862.803 2501.76 1006.26 2352.41 1154.1C2337.81 1168.54 2323.38 1183.03 2309.11 1197.45C2148.74 1359.61 1984.2 1525.47 1771.14 1591.31C1473.95 1683.15 1146.91 1549.9 892.594 1357.54C760.051 1257.3 638.924 1142.94 514.464 1033.76C400.105 933.492 283.381 837.931 154.964 759.197C6.15823 667.872 -174.876 598.894 -344.51 648.085C-573.195 714.399 -695.645 945.128 -792.532 1150.56" stroke="url(#paint30_linear_878_2067)" stroke-miterlimit="10"/>
<path d="M5155.81 1672.94C4775.08 1674.73 4350.81 1552 4008.57 1340.6C3995.81 1332.72 3983.16 1324.71 3970.63 1316.58C3791.96 1200.67 3638.64 1063.59 3463.05 959.812C3321.22 876.043 3156.54 812.948 2987.59 815.593C2947.38 816.169 2906.93 820.466 2866.44 829.023C2663.75 871.994 2494.92 1015.12 2343.49 1161C2328.69 1175.25 2314.03 1189.53 2299.52 1203.73C2136.42 1363.4 1967.71 1523.52 1753.92 1584.04C1459.76 1667.32 1140.29 1533.25 889.443 1342.38C758.719 1242.92 638.739 1130.21 514.963 1023.49C401.202 925.459 284.798 832.896 157.104 757.167C9.18082 669.333 -169.645 603.953 -337.422 651.872C-566.565 717.318 -693.799 941.727 -796.493 1142.11" stroke="url(#paint31_linear_878_2067)" stroke-miterlimit="10"/>
<path d="M5159.12 1652.19C4781.99 1639.3 4358.59 1512.66 4012.27 1308.32C3999.35 1300.7 3986.54 1292.97 3973.85 1285.14C3792.81 1173.41 3635.68 1043.44 3457.76 946.973C3314.02 869.111 3148.79 812.115 2980.08 818.846C2939.95 820.385 2899.63 825.528 2859.28 834.765C2657.26 881.184 2488.08 1023.98 2334.58 1167.89C2319.57 1181.96 2304.69 1196.03 2289.93 1210.01C2124.09 1367.19 1951.26 1521.63 1736.7 1576.78C1445.63 1651.59 1133.68 1516.59 886.29 1327.21C757.385 1228.54 638.551 1117.49 515.459 1013.22C402.297 917.426 286.212 827.862 159.242 755.137C12.2039 670.794 -164.419 609.002 -330.335 655.659C-559.94 720.227 -691.953 938.326 -800.454 1133.66" stroke="url(#paint32_linear_878_2067)" stroke-miterlimit="10"/>
<path d="M5162.43 1631.44C4788.89 1603.86 4366.37 1473.32 4015.97 1276.05C4002.9 1268.69 3989.93 1261.24 3977.07 1253.7C3793.66 1146.16 3632.73 1023.29 3452.46 934.136C3306.83 862.182 3141.04 811.284 2972.57 822.1C2932.52 824.603 2892.32 830.59 2852.12 840.509C2650.77 890.376 2481.24 1032.84 2325.67 1174.79C2310.45 1188.66 2295.35 1202.53 2280.34 1216.29C2111.77 1370.98 1934.88 1519.79 1719.49 1569.51C1431.58 1635.96 1127.06 1499.94 883.138 1312.04C756.052 1214.15 638.365 1104.76 515.956 1002.95C403.393 909.391 287.628 822.826 161.381 753.106C15.226 672.254 -159.195 614.04 -323.248 659.446C-553.319 723.125 -690.108 934.926 -804.416 1125.2" stroke="url(#paint33_linear_878_2067)" stroke-miterlimit="10"/>
<path d="M5165.73 1610.68C4795.8 1568.42 4374.15 1433.99 4019.67 1243.77C4006.44 1236.68 3993.32 1229.51 3980.29 1222.26C3794.51 1118.91 3629.78 1003.14 3447.17 921.3C3299.63 855.253 3133.28 810.453 2965.06 825.355C2925.09 828.822 2885.01 835.654 2844.96 846.254C2644.28 899.568 2474.39 1041.71 2316.75 1181.69C2301.34 1195.37 2286 1209.03 2270.75 1222.57C2099.44 1374.77 1918.54 1518.01 1702.27 1562.24C1417.6 1620.45 1120.45 1483.29 879.986 1296.87C754.719 1199.77 638.179 1092.04 516.454 992.678C404.489 901.36 289.044 817.793 163.521 751.078C18.25 673.716 -153.973 619.07 -316.16 663.235C-546.701 726.013 -688.262 931.527 -808.376 1116.76" stroke="url(#paint34_linear_878_2067)" stroke-miterlimit="10"/>
<path d="M5169.04 1589.93C4802.7 1532.99 4381.93 1394.65 4023.36 1211.49C4009.99 1204.66 3996.7 1197.77 3983.51 1190.82C3795.35 1091.65 3626.82 982.985 3441.87 908.461C3292.43 848.321 3125.53 809.62 2957.55 828.607C2917.65 833.038 2877.7 840.715 2837.8 851.995C2637.8 908.757 2467.55 1050.56 2307.84 1188.58C2292.22 1202.07 2276.66 1215.52 2261.17 1228.85C2087.12 1378.56 1902.25 1516.31 1685.06 1554.97C1403.68 1605.05 1113.83 1466.63 876.832 1281.7C753.384 1185.39 637.99 1079.3 516.95 982.402C405.584 893.322 290.459 812.755 165.658 749.044C21.2711 675.174 -148.759 624.086 -309.075 667.019C-540.09 728.885 -686.418 928.123 -812.339 1108.3" stroke="url(#paint35_linear_878_2067)" stroke-miterlimit="10"/>
<path d="M5172.35 1569.18C4809.61 1497.55 4389.71 1355.31 4027.06 1179.22C4013.53 1172.65 4000.09 1166.04 3986.73 1159.38C3796.2 1064.4 3623.87 962.835 3436.58 895.624C3285.24 841.391 3117.78 808.789 2950.04 831.862C2910.22 837.256 2870.4 845.779 2830.64 857.74C2631.31 917.949 2460.71 1059.43 2298.93 1195.48C2283.1 1208.78 2267.32 1222.03 2251.58 1235.13C2074.8 1382.35 1886 1514.69 1667.85 1547.7C1389.81 1589.78 1107.22 1449.98 873.684 1266.53C752.055 1171.01 637.808 1066.58 517.451 972.133C406.683 885.292 291.878 807.723 167.801 747.017C24.2981 676.638 -143.54 629.098 -301.983 670.809C-533.476 731.751 -684.568 924.725 -816.296 1099.85" stroke="url(#paint36_linear_878_2067)" stroke-miterlimit="10"/>
<path d="M5175.66 1548.42C4816.51 1462.11 4397.49 1315.97 4030.76 1146.94C4017.08 1140.63 4003.47 1134.3 3989.95 1127.93C3797.05 1037.15 3620.92 942.684 3431.29 882.786C3278.04 834.461 3110.03 807.956 2942.53 835.115C2902.79 841.473 2863.09 850.84 2823.48 863.483C2624.82 927.14 2453.87 1068.29 2290.01 1202.38C2273.98 1215.49 2257.97 1228.53 2241.99 1241.41C2062.47 1386.14 1869.78 1513.14 1650.63 1540.43C1375.98 1574.63 1100.61 1433.33 870.531 1251.36C750.721 1156.63 637.62 1053.85 517.948 961.86C407.779 877.258 293.294 802.688 169.94 744.986C27.3202 678.098 -138.33 634.097 -294.897 674.596C-526.872 734.601 -682.723 921.325 -820.258 1091.4" stroke="url(#paint37_linear_878_2067)" stroke-miterlimit="10"/>
<path d="M5178.97 1527.67C4823.41 1426.67 4405.27 1276.63 4034.46 1114.66C4020.62 1108.62 4006.86 1102.56 3993.17 1096.49C3797.9 1009.9 3617.97 922.535 3425.99 869.95C3270.84 827.532 3102.28 807.126 2935.02 838.37C2895.36 845.692 2855.78 855.904 2816.32 869.227C2618.34 936.332 2447.02 1077.15 2281.1 1209.28C2264.87 1222.2 2248.63 1235.03 2232.4 1247.69C2050.15 1389.93 1853.59 1511.7 1633.42 1533.16C1362.19 1559.61 1093.99 1416.67 867.379 1236.2C749.388 1142.25 637.434 1041.13 518.445 951.589C408.874 869.225 294.709 797.654 172.078 742.957C30.3432 679.56 -133.122 639.088 -287.81 678.384C-520.271 737.438 -680.878 917.925 -824.22 1082.95" stroke="url(#paint38_linear_878_2067)" stroke-miterlimit="10"/>
<path d="M5182.27 1506.92C4830.32 1391.23 4413.05 1237.29 4038.15 1082.39C4024.17 1076.61 4010.24 1070.83 3996.39 1065.05C3798.75 982.643 3615.01 902.383 3420.7 857.112C3263.64 820.601 3094.53 806.294 2927.51 841.624C2887.93 849.91 2848.47 860.967 2809.16 874.971C2611.85 945.523 2440.18 1086.01 2272.19 1216.17C2255.75 1228.9 2239.29 1241.53 2222.81 1253.97C2037.82 1393.72 1837.41 1510.35 1616.2 1525.89C1348.42 1544.71 1087.38 1400.02 864.226 1221.03C748.054 1127.86 637.247 1028.4 518.941 941.317C409.969 861.192 296.123 792.619 174.216 740.927C33.3649 681.021 -127.917 644.068 -280.724 682.172C-513.675 740.261 -679.033 914.525 -828.182 1074.5" stroke="url(#paint39_linear_878_2067)" stroke-miterlimit="10"/>
<path d="M5185.58 1486.16C4837.22 1355.8 4420.83 1197.95 4041.85 1050.11C4027.72 1044.59 4013.63 1039.09 3999.61 1033.61C3799.59 955.389 3612.06 882.232 3415.4 844.274C3256.44 813.67 3086.78 805.461 2920 844.877C2880.49 854.127 2841.16 866.028 2802 880.714C2605.36 954.714 2433.34 1094.87 2263.27 1223.07C2246.63 1235.61 2229.94 1248.03 2213.23 1260.25C2025.5 1397.51 1821.26 1509.1 1598.98 1518.63C1334.68 1529.95 1080.76 1383.37 861.075 1205.86C746.723 1113.48 637.061 1015.67 519.44 931.044C411.067 853.158 297.541 787.584 176.357 738.896C36.3899 682.48 -122.712 649.036 -273.635 685.958C-507.079 743.068 -677.186 911.124 -832.141 1066.05" stroke="url(#paint40_linear_878_2067)" stroke-miterlimit="10"/>
<path d="M5188.89 1465.41C4844.13 1320.36 4428.61 1158.61 4045.55 1017.83C4031.26 1012.58 4017.02 1007.36 4002.83 1002.17C3800.44 928.138 3609.11 862.083 3410.11 831.437C3249.25 806.741 3079.03 804.63 2912.49 848.131C2873.06 858.344 2833.85 871.091 2794.85 886.458C2598.87 963.906 2426.5 1103.74 2254.36 1229.97C2237.51 1242.32 2220.6 1254.53 2203.64 1266.53C2013.17 1401.3 1805.11 1507.97 1581.77 1511.36C1320.93 1515.32 1074.15 1366.71 857.924 1190.69C745.39 1099.1 636.875 1002.95 519.938 920.772C412.163 845.125 298.957 782.55 178.496 736.867C39.413 683.942 -117.512 653.997 -266.547 689.747C-500.489 745.863 -675.339 907.725 -836.102 1057.6" stroke="url(#paint41_linear_878_2067)" stroke-miterlimit="10"/>
<path d="M5192.2 1444.66C4851.03 1284.92 4436.39 1119.28 4049.25 985.555C4034.81 980.568 4020.4 975.625 4006.05 970.727C3801.29 900.884 3606.15 841.931 3404.82 818.599C3242.05 799.81 3071.28 803.798 2904.98 851.384C2865.63 862.561 2826.54 876.152 2787.69 892.2C2592.39 973.095 2419.65 1112.6 2245.45 1236.86C2228.39 1249.02 2211.26 1261.03 2194.05 1272.8C2000.85 1405.09 1788.94 1506.94 1564.55 1504.09C1307.18 1500.82 1067.53 1350.06 854.772 1175.52C744.057 1084.72 636.689 990.219 520.435 910.5C413.259 837.091 300.373 777.515 180.635 734.836C42.436 685.402 -112.313 658.947 -259.46 693.533C-493.903 748.638 -673.494 904.323 -840.063 1049.14" stroke="url(#paint42_linear_878_2067)" stroke-miterlimit="10"/>
<path d="M5195.5 1423.9C4857.94 1249.48 4444.17 1079.94 4052.95 953.278C4038.35 948.554 4023.79 943.89 4009.27 939.286C3802.14 873.632 3603.2 821.781 3399.52 805.762C3234.85 792.88 3063.53 802.966 2897.47 854.639C2858.2 866.78 2819.24 881.216 2780.53 897.945C2585.9 982.288 2412.81 1121.46 2236.53 1243.76C2219.28 1255.73 2201.91 1267.53 2184.46 1279.08C1988.52 1408.88 1772.77 1506.04 1547.34 1496.82C1293.41 1486.44 1060.92 1333.41 851.618 1160.36C742.723 1070.34 636.501 977.492 520.931 900.229C414.353 829.058 301.787 772.481 182.773 732.807C45.4571 686.864 -107.118 663.888 -252.374 697.321C-487.321 751.399 -671.65 900.923 -844.026 1040.69" stroke="url(#paint43_linear_878_2067)" stroke-miterlimit="10"/>
<path d="M5198.81 1403.15C4864.84 1214.05 4451.95 1040.6 4056.64 921.001C4041.9 916.54 4027.18 912.155 4012.49 907.845C3802.99 846.379 3600.25 801.631 3394.23 792.925C3227.66 785.95 3055.78 802.135 2889.96 857.893C2850.77 870.998 2811.93 886.279 2773.37 903.689C2579.41 991.48 2405.97 1130.32 2227.62 1250.66C2210.16 1262.44 2192.57 1274.03 2174.88 1285.36C1976.2 1412.67 1756.58 1505.26 1530.12 1489.55C1279.62 1472.18 1054.31 1316.75 848.468 1145.19C741.392 1055.95 636.317 964.765 521.431 889.956C415.452 821.024 303.205 767.445 184.915 730.776C48.483 688.324 -101.921 668.817 -245.283 701.108C-480.738 754.141 -669.8 897.523 -847.983 1032.24" stroke="url(#paint44_linear_878_2067)" stroke-miterlimit="10"/>
<path d="M5202.12 1382.4C4871.75 1178.61 4459.73 1001.26 4060.34 888.725C4045.44 884.527 4030.56 880.421 4015.71 876.404C3803.83 819.126 3597.29 781.48 3388.94 780.088C3220.46 779.021 3048.03 801.304 2882.45 861.147C2843.34 875.215 2804.62 891.342 2766.21 909.432C2572.92 1000.67 2399.13 1139.18 2218.71 1257.56C2201.04 1269.14 2183.23 1280.53 2165.29 1291.64C1963.88 1416.45 1740.34 1504.6 1512.91 1482.28C1265.78 1458.04 1047.69 1300.1 845.316 1130.02C740.059 1041.57 636.13 952.038 521.928 879.684C416.548 812.991 304.621 762.411 187.054 728.746C51.5062 689.785 -96.7278 673.738 -238.196 704.895C-474.163 756.866 -667.955 894.122 -851.945 1023.79" stroke="url(#paint45_linear_878_2067)" stroke-miterlimit="10"/>
<path d="M5205.43 1361.64C4878.65 1143.17 4467.51 961.922 4064.04 856.449C4048.99 852.515 4033.95 848.686 4018.93 844.964C3804.68 791.875 3594.34 761.331 3383.64 767.252C3213.26 772.092 3040.28 800.473 2874.94 864.402C2835.9 879.434 2797.31 896.405 2759.05 915.177C2566.44 1009.86 2392.29 1148.05 2209.8 1264.45C2191.92 1275.85 2173.88 1287.03 2155.7 1297.92C1951.55 1420.25 1724.06 1504.06 1495.69 1475.02C1251.9 1444.01 1041.08 1283.45 842.164 1114.85C738.726 1027.19 635.944 939.314 522.426 869.415C417.644 804.96 306.037 757.379 189.193 726.72C54.5292 691.25 -91.5368 678.652 -231.109 708.687C-467.591 759.575 -666.109 890.726 -855.906 1015.34" stroke="url(#paint46_linear_878_2067)" stroke-miterlimit="10"/>
<path d="M5208.74 1340.89C4885.55 1107.73 4475.29 922.583 4067.74 824.171C4052.53 820.5 4037.33 816.95 4022.15 813.521C3805.53 764.62 3591.39 741.179 3378.35 754.412C3206.06 765.159 3032.53 799.639 2867.43 867.654C2828.47 883.65 2790 901.466 2751.89 920.919C2559.95 1019.05 2385.44 1156.91 2200.88 1271.35C2182.8 1282.55 2164.54 1293.53 2146.11 1304.2C1939.23 1424.03 1707.73 1503.64 1478.48 1467.75C1237.95 1430.08 1034.46 1266.79 839.012 1099.68C737.393 1012.81 635.757 926.586 522.923 859.141C418.74 796.925 307.453 752.343 191.332 724.688C57.5518 692.709 -86.3482 683.551 -224.022 712.472C-461.022 762.259 -664.264 887.323 -859.867 1006.89" stroke="url(#paint47_linear_878_2067)" stroke-miterlimit="10"/>
<path d="M5212.04 1320.14C4892.46 1072.3 4483.07 883.244 4071.43 791.894C4056.08 788.486 4040.72 785.215 4025.36 782.08C3806.37 737.367 3588.43 721.028 3373.05 741.575C3198.86 758.23 3024.77 798.808 2859.92 870.908C2821.04 887.868 2782.7 906.528 2744.73 926.662C2553.46 1028.24 2378.6 1165.77 2191.97 1278.25C2173.69 1289.26 2155.2 1300.03 2136.53 1310.48C1926.9 1427.82 1691.33 1503.35 1461.26 1460.48C1223.93 1416.25 1027.85 1250.14 835.859 1084.51C736.059 998.427 635.57 913.857 523.42 848.868C419.835 788.89 308.868 747.307 193.471 722.657C60.5748 694.169 -81.1601 688.441 -216.935 716.259C-454.456 764.923 -662.418 883.923 -863.829 998.436" stroke="url(#paint48_linear_878_2067)" stroke-miterlimit="10"/>
<path d="M5215.35 1299.38C4899.36 1036.86 4490.85 843.906 4075.13 759.617C4059.62 756.473 4044.11 753.48 4028.59 750.639C3807.22 710.115 3585.48 700.878 3367.76 728.738C3191.67 751.3 3017.03 797.976 2852.41 874.162C2813.61 892.086 2775.39 911.591 2737.58 932.406C2546.97 1037.43 2371.76 1174.63 2183.06 1285.14C2164.57 1295.97 2145.85 1306.53 2126.94 1316.76C1914.58 1431.61 1674.86 1503.17 1444.05 1453.21C1209.84 1402.51 1021.24 1233.48 832.708 1069.34C734.727 984.045 635.385 901.131 523.918 838.596C420.932 780.857 310.284 742.272 195.61 720.627C63.598 695.63 -75.9731 693.322 -209.847 720.046C-447.893 767.565 -660.572 880.522 -867.789 989.985" stroke="url(#paint49_linear_878_2067)" stroke-miterlimit="10"/>
<path d="M5218.66 1278.63C4906.27 1001.42 4498.63 804.565 4078.83 727.339C4063.17 724.458 4047.49 721.744 4031.81 719.196C3808.07 682.86 3582.53 680.726 3362.47 715.899C3184.47 744.368 3009.28 797.143 2844.9 877.414C2806.18 896.301 2768.08 916.652 2730.42 938.148C2540.49 1046.62 2364.92 1183.49 2174.14 1292.04C2155.45 1302.67 2136.51 1313.03 2117.35 1323.03C1902.25 1435.4 1658.31 1503.11 1426.83 1445.94C1195.66 1388.84 1014.62 1216.83 829.557 1054.17C733.395 969.662 635.199 888.403 524.417 828.323C422.03 772.822 311.702 737.237 197.751 718.596C66.623 697.09 -70.8311 697.956 -202.758 723.833C-441.414 769.756 -658.724 877.121 -871.748 981.533" stroke="url(#paint50_linear_878_2067)" stroke-miterlimit="10"/>
<path d="M5221.97 1257.88C4913.17 965.983 4506.41 765.227 4082.53 695.062C4066.71 692.444 4050.88 690.009 4035.03 687.755C3808.92 655.607 3579.58 660.575 3357.17 703.062C3177.28 737.438 3001.52 796.312 2837.39 880.669C2798.74 900.52 2760.77 921.715 2723.26 943.893C2534 1055.82 2358.07 1192.35 2165.23 1298.94C2146.33 1309.38 2127.17 1319.53 2107.76 1329.31C1889.93 1439.19 1641.66 1503.16 1409.62 1438.67C1181.38 1375.25 1008.01 1200.18 826.405 1039.01C732.062 955.282 635.013 875.677 524.914 818.052C423.125 764.789 313.117 732.203 199.89 716.566C69.646 698.551 -65.623 702.93 -195.671 727.62C-434.817 772.553 -656.879 873.72 -875.71 973.081" stroke="url(#paint51_linear_878_2067)" stroke-miterlimit="10"/>
<path d="M5225.28 1237.12C4920.08 930.547 4514.19 725.89 4086.23 662.786C3658.26 599.682 3210.58 678.482 2829.88 883.923C2596.63 1009.8 2389.85 1180.49 2156.32 1305.84C1922.78 1431.19 1645.62 1509.7 1392.4 1431.4C1049.94 1325.5 845.489 969.174 525.412 807.781C307.87 698.089 51.0531 687.466 -188.583 731.409C-428.219 775.352 -655.033 870.322 -879.67 964.632" stroke="url(#paint52_linear_878_2067)" stroke-miterlimit="10"/>
<path d="M-861.326 982.273C-642.407 880.583 -413.55 781.745 -171.99 737.128C66.7318 693.114 322.207 703.906 539.83 810.627C614.552 847.275 683.207 894.213 748.884 945.929C964.612 1115.79 1148.62 1337.18 1410.53 1414.8C1461.19 1429.81 1512.76 1438.68 1564.73 1442.23C1771.97 1456.4 1985.35 1386.13 2172.06 1288.35C2247.01 1249.1 2319.33 1205.58 2390.74 1160.82C2542 1066.07 2688.54 965.808 2846.64 886.204C3130.04 743.215 3448.82 670.504 3769.62 669.02C3878.45 668.533 3987.56 676.214 4095.51 692.305C4521.78 755.843 4927.87 950.183 5234.4 1237.48" stroke="url(#paint53_linear_878_2067)" stroke-miterlimit="10"/>
<path d="M-842.981 999.915C-629.782 890.846 -398.879 788.139 -155.397 742.849C82.411 698.762 336.543 709.726 554.248 813.476C628.984 849.102 697.884 894.688 763.902 944.872C980.776 1109.7 1167.36 1324.14 1428.67 1398.2C1479.19 1412.53 1530.59 1420.86 1582.38 1423.99C1788.9 1436.47 2001.08 1366.22 2187.8 1270.86C2262.77 1232.59 2335.25 1190.42 2406.89 1147.48C2558.75 1056.57 2705.62 962.206 2863.4 888.488C3145.92 755.922 3461.84 693.294 3780.54 696.144C3888.71 697.143 3997.27 705.625 4104.8 721.827C4529.38 785.8 4935.66 969.822 5243.52 1237.84" stroke="url(#paint54_linear_878_2067)" stroke-miterlimit="10"/>
<path d="M-824.636 1017.55C-617.156 901.105 -384.209 794.53 -138.804 748.565C98.0902 704.407 350.88 715.54 568.666 816.32C643.415 850.924 712.561 895.157 778.92 943.809C996.939 1103.61 1186.11 1311.1 1446.8 1381.6C1497.19 1395.23 1548.43 1403.04 1600.02 1405.75C1805.84 1416.53 2016.82 1346.3 2203.55 1253.37C2278.54 1216.07 2351.16 1175.26 2423.05 1134.13C2575.5 1047.07 2722.7 958.597 2880.16 890.766C3161.79 768.623 3474.85 716.078 3791.47 723.263C3898.98 725.749 4006.99 735.031 4114.09 751.344C4536.97 815.753 4943.45 989.456 5252.64 1238.2" stroke="url(#paint55_linear_878_2067)" stroke-miterlimit="10"/>
<path d="M-806.291 1035.2C-604.53 911.367 -369.539 800.924 -122.211 754.285C113.769 710.055 365.217 721.358 583.084 819.168C657.846 852.749 727.238 895.63 793.937 942.751C1013.1 1097.53 1204.85 1298.06 1464.93 1365C1515.19 1377.94 1566.26 1385.22 1617.66 1387.51C1822.77 1396.6 2032.55 1326.39 2219.29 1235.89C2294.31 1199.56 2367.08 1160.1 2439.21 1120.79C2592.25 1037.57 2739.77 954.995 2896.92 893.05C3177.67 781.331 3487.87 738.868 3802.4 750.387C3909.23 754.359 4016.7 764.443 4123.37 780.865C4544.56 845.709 4951.24 1009.09 5261.76 1238.56" stroke="url(#paint56_linear_878_2067)" stroke-miterlimit="10"/>
<path d="M-787.945 1052.84C-591.903 921.629 -354.868 807.317 -105.617 760.004C129.449 715.702 379.554 727.176 597.503 822.015C672.279 854.574 741.916 896.102 808.956 941.692C1029.27 1091.44 1223.59 1285.02 1483.06 1348.39C1533.2 1360.65 1584.09 1367.4 1635.31 1369.27C1839.71 1376.67 2048.28 1306.47 2235.04 1218.4C2310.07 1183.04 2383 1144.94 2455.37 1107.44C2609 1028.07 2756.85 951.39 2913.68 895.332C3193.54 794.036 3500.89 761.656 3813.33 777.51C3919.5 782.969 4026.42 793.853 4132.66 810.386C4552.15 875.665 4959.03 1028.73 5270.88 1238.92" stroke="url(#paint57_linear_878_2067)" stroke-miterlimit="10"/>
<path d="M-769.6 1070.48C-579.278 931.889 -340.198 813.71 -89.0241 765.723C145.128 721.349 393.891 732.993 611.921 824.862C686.71 856.399 756.593 896.575 823.974 940.632C1045.43 1085.36 1242.34 1271.98 1501.19 1331.79C1551.2 1343.36 1601.93 1349.58 1652.95 1351.02C1856.64 1356.74 2064.01 1286.56 2250.78 1200.91C2325.84 1166.52 2398.92 1129.78 2471.52 1094.1C2625.75 1018.56 2774.05 948.15 2930.43 897.613C3209.63 807.392 3513.9 784.443 3824.25 804.632C3929.75 811.577 4036.14 823.263 4141.95 839.906C4559.74 905.62 4966.82 1048.37 5280 1239.28" stroke="url(#paint58_linear_878_2067)" stroke-miterlimit="10"/>
<path d="M-751.255 1088.12C-566.652 942.153 -325.528 820.105 -72.4299 771.444C160.808 726.998 408.228 738.812 626.341 827.711C701.144 858.226 771.272 897.049 838.994 939.575C1061.6 1079.28 1261.08 1258.94 1519.33 1315.19C1569.2 1326.07 1619.76 1331.76 1670.6 1332.78C1873.58 1336.81 2079.75 1266.64 2266.53 1183.43C2341.61 1150.01 2414.84 1114.62 2487.68 1080.75C2642.5 1009.06 2791.12 944.597 2947.19 899.898C3225.51 820.187 3526.92 807.234 3835.18 831.757C3940.02 840.189 4045.85 852.675 4151.24 869.428C4567.34 935.577 4974.62 1068.01 5289.12 1239.64" stroke="url(#paint59_linear_878_2067)" stroke-miterlimit="10"/>
<path d="M-732.91 1105.76C-554.026 952.414 -310.857 826.498 -55.8372 777.163C176.487 732.645 422.565 744.63 640.759 830.558C715.575 860.05 785.949 897.521 854.012 938.515C1077.76 1073.19 1279.83 1245.9 1537.46 1298.59C1587.2 1308.78 1637.59 1313.94 1688.24 1314.54C1890.51 1316.87 2095.48 1246.72 2282.27 1165.94C2357.38 1133.49 2430.76 1099.45 2503.84 1067.4C2659.24 999.559 2808.2 941.034 2963.95 902.177C3241.38 832.967 3539.94 830.019 3846.11 858.877C3950.28 868.795 4055.57 882.082 4160.53 898.946C4574.93 965.53 4982.41 1087.64 5298.24 1239.99" stroke="url(#paint60_linear_878_2067)" stroke-miterlimit="10"/>
<path d="M-714.565 1123.4C-541.4 962.676 -296.187 832.891 -39.244 782.882C192.166 738.292 436.901 750.447 655.177 833.405C730.006 861.875 800.626 897.993 869.03 937.456C1093.92 1067.11 1298.57 1232.86 1555.59 1281.99C1605.21 1291.49 1655.43 1296.12 1705.88 1296.3C1907.45 1296.94 2111.21 1226.81 2298.01 1148.45C2373.14 1116.97 2446.68 1084.29 2519.99 1054.06C2675.99 990.058 2825.26 937.469 2980.71 904.461C3257.23 845.742 3552.96 852.809 3857.04 886.001C3960.54 897.405 4065.29 911.494 4169.81 928.468C4582.52 995.487 4990.2 1107.28 5307.36 1240.35" stroke="url(#paint61_linear_878_2067)" stroke-miterlimit="10"/>
<path d="M-696.22 1141.04C-528.774 972.936 -281.517 839.283 -22.6498 788.6C207.846 743.938 451.239 756.263 669.596 836.251C744.439 863.699 815.304 898.464 884.049 936.395C1110.09 1061.02 1317.32 1219.82 1573.72 1265.38C1623.21 1274.2 1673.26 1278.3 1723.53 1278.05C1924.38 1277.01 2126.95 1206.89 2313.76 1130.96C2388.91 1100.46 2462.6 1069.13 2536.15 1040.71C2692.74 980.555 2842.33 933.895 2997.47 906.741C3273.09 858.5 3565.97 875.595 3867.97 913.122C3970.8 926.013 4075 940.902 4179.1 957.986C4590.12 1025.44 4997.99 1126.92 5316.48 1240.71" stroke="url(#paint62_linear_878_2067)" stroke-miterlimit="10"/>
<path d="M-677.875 1158.68C-516.148 983.199 -266.846 845.678 -6.05701 794.321C223.525 749.587 465.575 762.083 684.014 839.1C758.87 865.526 829.981 898.939 899.067 935.338C1126.25 1054.94 1336.06 1206.78 1591.85 1248.78C1641.21 1256.91 1691.09 1260.48 1741.17 1259.81C1941.32 1257.08 2142.68 1186.98 2329.5 1113.48C2404.68 1083.94 2478.52 1053.97 2552.31 1027.37C2709.49 971.054 2859.39 930.317 3014.23 909.025C3288.93 871.25 3578.99 898.385 3878.89 940.246C3981.06 954.623 4084.72 970.314 4188.39 987.508C4597.71 1055.4 5005.78 1146.55 5325.6 1241.07" stroke="url(#paint63_linear_878_2067)" stroke-miterlimit="10"/>
<path d="M-659.53 1176.33C-503.522 993.46 -252.176 852.071 10.5363 800.04C239.204 755.234 479.912 767.9 698.432 841.947C773.302 867.35 844.658 899.411 914.085 934.278C1142.42 1048.85 1354.8 1193.74 1609.99 1232.18C1659.21 1239.62 1708.93 1242.66 1758.82 1241.57C1958.25 1237.15 2158.41 1167.06 2345.25 1095.99C2420.44 1067.42 2494.44 1038.81 2568.47 1014.02C2726.24 961.551 2876.45 926.728 3030.99 911.306C3304.78 883.983 3592.01 921.172 3889.82 967.368C3991.32 983.232 4094.44 999.723 4197.68 1017.03C4605.3 1085.35 5013.57 1166.19 5334.72 1241.43" stroke="url(#paint64_linear_878_2067)" stroke-miterlimit="10"/>
<path d="M-641.185 1193.97C-490.897 1003.72 -237.506 858.464 27.129 805.759C254.883 760.881 494.249 773.717 712.85 844.794C787.733 869.175 859.335 899.883 929.103 933.219C1158.58 1042.76 1373.55 1180.7 1628.12 1215.58C1677.21 1222.33 1726.76 1224.84 1776.46 1223.33C1975.19 1217.21 2174.14 1147.15 2360.99 1078.5C2436.21 1050.91 2510.35 1023.65 2584.62 1000.68C2742.99 952.049 2893.5 923.132 3047.74 913.588C3320.61 896.703 3605.02 943.96 3900.75 994.49C4001.58 1011.84 4104.15 1029.13 4206.96 1046.55C4612.89 1115.31 5021.36 1185.83 5343.84 1241.79" stroke="url(#paint65_linear_878_2067)" stroke-miterlimit="10"/>
<path d="M-622.84 1211.61C-478.271 1013.98 -222.836 864.857 43.7222 811.478C270.562 766.528 508.585 779.535 727.268 847.64C802.164 870.999 874.012 900.354 944.121 932.158C1174.74 1036.68 1392.29 1167.66 1646.25 1198.98C1695.22 1205.04 1744.59 1207.02 1794.1 1205.09C1992.12 1197.28 2189.87 1127.23 2376.74 1061.01C2451.98 1034.39 2526.27 1008.49 2600.78 987.329C2759.74 942.544 2910.56 919.525 3064.5 915.867C3336.45 909.404 3618.04 966.745 3911.68 1021.61C4011.84 1040.45 4113.87 1058.54 4216.25 1076.06C4620.48 1145.26 5029.16 1205.46 5352.96 1242.14" stroke="url(#paint66_linear_878_2067)" stroke-miterlimit="10"/>
<path d="M-604.495 1229.25C-465.645 1024.24 -208.165 871.248 60.3149 817.195C286.241 772.173 522.922 785.35 741.687 850.485C816.597 872.822 888.69 900.824 959.14 931.097C1190.91 1030.59 1411.04 1154.62 1664.38 1182.37C1713.22 1187.75 1762.43 1189.2 1811.75 1186.84C2009.06 1177.35 2205.61 1107.32 2392.48 1043.52C2467.75 1017.87 2542.19 993.326 2616.94 973.982C2776.49 933.04 2927.61 915.911 3081.26 918.147C3352.28 922.092 3631.06 989.531 3922.6 1048.73C4022.1 1069.05 4123.58 1087.95 4225.54 1105.58C4628.08 1175.21 5036.95 1225.1 5362.08 1242.5" stroke="url(#paint67_linear_878_2067)" stroke-miterlimit="10"/>
<path d="M-586.149 1246.89C-453.018 1034.51 -193.494 877.642 76.91 822.915C301.922 777.821 537.26 791.168 756.106 853.333C831.029 874.647 903.368 901.299 974.159 930.039C1207.07 1024.51 1429.78 1141.58 1682.51 1165.77C1731.22 1170.46 1780.26 1171.38 1829.39 1168.6C2025.99 1157.42 2221.34 1087.4 2408.22 1026.04C2483.51 1001.36 2558.11 978.167 2633.09 960.638C2793.24 923.539 2944.67 912.29 3098.02 920.43C3368.12 934.767 3644.08 1012.32 3933.53 1075.85C4032.36 1097.66 4133.3 1117.36 4234.83 1135.1C4635.67 1205.17 5044.74 1244.74 5371.2 1242.86" stroke="url(#paint68_linear_878_2067)" stroke-miterlimit="10"/>
<path d="M-567.804 1264.53C-440.392 1044.77 -178.824 884.035 93.5031 828.634C317.601 783.468 551.597 796.986 770.525 856.18C845.462 876.472 918.046 901.77 989.178 928.979C1223.24 1018.42 1448.53 1128.54 1700.65 1149.17C1749.23 1153.17 1798.1 1153.56 1847.04 1150.36C2042.93 1137.48 2237.07 1067.49 2423.97 1008.55C2499.28 984.839 2574.03 963.006 2649.25 947.292C2809.98 914.037 2961.73 908.661 3114.78 922.712C3383.97 947.426 3657.09 1035.11 3944.46 1102.98C4042.62 1126.27 4143.02 1146.77 4244.11 1164.62C4643.26 1235.12 5052.53 1264.37 5380.32 1243.22" stroke="url(#paint69_linear_878_2067)" stroke-miterlimit="10"/>
<path d="M-549.459 1282.17C-427.766 1055.03 -164.154 890.428 110.096 834.352C333.28 789.114 565.933 802.802 784.943 859.026C859.893 878.296 932.723 902.241 1004.2 927.919C1239.4 1012.34 1467.27 1115.5 1718.78 1132.57C1767.23 1135.88 1815.93 1135.74 1864.68 1132.12C2059.86 1117.55 2252.81 1047.57 2439.71 991.062C2515.05 968.321 2589.95 947.844 2665.41 933.945C2826.73 904.533 2978.79 905.021 3131.54 924.993C3399.81 960.07 3670.11 1057.89 3955.39 1130.1C4052.88 1154.88 4152.73 1176.18 4253.4 1194.14C4650.85 1265.08 5060.32 1284.01 5389.44 1243.58" stroke="url(#paint70_linear_878_2067)" stroke-miterlimit="10"/>
<path d="M-531.114 1299.81C-415.141 1065.29 -149.483 896.824 126.689 840.074C348.959 794.764 580.27 808.622 799.361 861.876C874.325 880.124 947.4 902.716 1019.21 926.862C1255.56 1006.25 1486.01 1102.46 1736.91 1115.97C1785.23 1118.59 1833.76 1117.92 1882.32 1113.88C2076.8 1097.62 2268.54 1027.66 2455.46 973.578C2530.81 951.808 2605.87 932.686 2681.57 920.602C2843.48 895.033 2995.86 901.377 3148.3 927.277C3415.67 972.703 3683.13 1080.68 3966.32 1157.22C4063.14 1183.49 4162.45 1205.59 4262.69 1223.67C4658.45 1295.03 5068.11 1303.65 5398.56 1243.94" stroke="url(#paint71_linear_878_2067)" stroke-miterlimit="10"/>
<path d="M-512.769 1317.45C-402.515 1075.55 -134.813 903.216 143.283 845.792C364.639 800.41 594.607 814.438 813.78 864.722C888.757 881.947 962.078 903.187 1034.23 925.802C1271.73 1000.17 1504.76 1089.42 1755.04 1099.36C1803.24 1101.3 1851.6 1100.1 1899.97 1095.63C2093.73 1077.69 2284.27 1007.74 2471.2 956.09C2546.58 935.29 2621.79 917.525 2697.73 907.256C2860.23 885.531 3012.93 897.723 3165.06 929.559C3431.53 985.322 3696.15 1103.47 3977.25 1184.34C4073.4 1212.1 4172.16 1235 4271.98 1253.19C4666.04 1324.99 5075.91 1323.29 5407.68 1244.3" stroke="url(#paint72_linear_878_2067)" stroke-miterlimit="10"/>
<path d="M-494.424 1335.1C-389.889 1085.81 -120.143 909.61 159.876 851.512C380.318 806.058 608.944 820.257 828.198 867.57C903.188 883.773 976.755 903.661 1049.25 924.743C1287.89 994.083 1523.5 1076.38 1773.17 1082.76C1821.24 1084.01 1869.43 1082.28 1917.61 1077.39C2110.67 1057.76 2300.01 987.826 2486.95 938.603C2562.35 918.774 2637.71 902.364 2713.88 893.91C2876.98 876.028 3030 894.063 3181.82 931.84C3447.4 997.928 3709.16 1126.26 3988.17 1211.47C4083.66 1240.71 4181.88 1264.41 4281.26 1282.7C4673.63 1354.94 5083.7 1342.92 5416.8 1244.66" stroke="url(#paint73_linear_878_2067)" stroke-miterlimit="10"/>
<path d="M-476.079 1352.74C-377.263 1096.07 -105.473 916.003 176.469 857.231C395.997 811.705 623.281 826.074 842.616 870.417C917.62 885.598 991.432 904.133 1064.27 923.684C1304.06 987.998 1542.25 1063.34 1791.3 1066.16C1839.24 1066.72 1887.26 1064.46 1935.26 1059.15C2127.6 1037.83 2315.74 967.91 2502.69 921.116C2578.12 902.258 2653.63 887.204 2730.04 880.565C2893.73 866.526 3047.17 890.11 3198.57 934.122C3463.43 1010.02 3722.18 1149.05 3999.1 1238.59C4093.92 1269.32 4191.6 1293.82 4290.55 1312.22C4681.22 1384.9 5091.49 1362.56 5425.92 1245.01" stroke="url(#paint74_linear_878_2067)" stroke-miterlimit="10"/>
<path d="M-457.734 1370.38C-364.637 1106.34 -90.8029 922.395 193.062 862.949C411.675 817.351 637.617 831.89 857.034 873.263C932.051 887.422 1006.11 904.604 1079.29 922.623C1320.22 981.911 1560.99 1050.3 1809.44 1049.56C1857.24 1049.43 1905.1 1046.64 1952.9 1040.91C2144.54 1017.89 2331.47 947.993 2518.43 903.627C2593.88 885.74 2669.55 872.041 2746.2 867.218C2910.48 857.023 3064.25 886.504 3215.33 936.403C3479.3 1022.73 3735.2 1171.83 4010.03 1265.71C4104.18 1297.92 4201.31 1323.23 4299.84 1341.74C4688.82 1414.85 5099.28 1382.2 5435.04 1245.37" stroke="url(#paint75_linear_878_2067)" stroke-miterlimit="10"/>
<path d="M-439.389 1388.02C-352.012 1116.6 -76.1319 928.787 209.655 868.667C427.354 822.997 651.954 837.707 871.452 876.109C946.483 889.245 1020.79 905.075 1094.31 921.563C1336.38 975.825 1579.73 1037.26 1827.57 1032.96C1875.24 1032.14 1922.93 1028.82 1970.54 1022.66C2161.47 997.961 2347.2 928.078 2534.18 886.14C2609.65 869.223 2685.46 856.881 2762.35 853.872C2927.23 847.52 3081.32 882.899 3232.09 938.684C3495.18 1035.43 3748.21 1194.62 4020.96 1292.83C4114.44 1326.53 4211.03 1352.64 4309.12 1371.26C4696.41 1444.81 5107.07 1401.83 5444.16 1245.73" stroke="url(#paint76_linear_878_2067)" stroke-miterlimit="10"/>
<path d="M-421.044 1405.66C-339.386 1126.86 -61.462 935.18 226.249 874.387C443.034 828.645 666.291 843.525 885.871 878.957C960.915 891.071 1035.46 905.549 1109.32 920.504C1352.55 969.74 1598.48 1024.22 1845.7 1016.35C1893.25 1014.84 1940.76 1011 1988.19 1004.42C2178.41 978.028 2362.94 908.162 2549.92 868.652C2625.42 852.706 2701.38 841.719 2778.51 840.526C2943.98 838.017 3098.4 879.293 3248.85 940.966C3511.05 1048.14 3761.23 1217.41 4031.88 1319.95C4124.7 1355.14 4220.74 1382.05 4318.41 1400.78C4704 1474.76 5114.86 1421.47 5453.28 1246.09" stroke="url(#paint77_linear_878_2067)" stroke-miterlimit="10"/>
<path d="M-402.698 1423.3C-326.759 1137.12 -46.791 941.575 242.843 880.108C532.477 818.641 832.988 866.735 1124.34 919.447C1415.7 972.158 1712.95 1029.58 2005.83 986.18C2271.88 946.758 2525.72 825.021 2794.67 827.183C3249.77 830.841 3619.95 1178.8 4042.81 1347.08C4498.78 1528.54 5036.59 1490.41 5462.4 1246.45" stroke="url(#paint78_linear_878_2067)" stroke-miterlimit="10"/>
<path d="M5455.36 1244.08C5026.12 1471.52 4484.82 1513.35 4028.7 1342.67C3614.34 1187.61 3253.91 851.355 2809.6 849.842C2538 848.917 2281.8 958.702 2014.99 989.445C1722.37 1024.01 1423.31 963.016 1130.77 914.81C843.319 867.442 548.597 823.869 263.966 887.966C-29.5759 954.07 -317.814 1142.98 -405.127 1409.05" stroke="url(#paint79_linear_878_2067)" stroke-miterlimit="10"/>
<path d="M5448.32 1241.72C5015.65 1452.63 4471.13 1498.15 4014.6 1338.27C3608.96 1196.21 3258.05 871.975 2824.54 872.501C2550.28 872.834 2291.67 969.907 2024.15 992.709C1731.72 1017.63 1430.97 953.819 1137.2 910.172C853.7 868.052 564.726 829.25 285.091 895.823C-12.3829 966.644 -308.866 1148.85 -407.554 1394.79" stroke="url(#paint80_linear_878_2067)" stroke-miterlimit="10"/>
<path d="M5441.28 1239.35C5005.18 1433.73 4457.73 1482.9 4000.49 1333.86C3603.81 1204.56 3262.18 892.698 2839.48 895.16C2562.54 896.773 2301.6 981.521 2033.31 995.973C1741.15 1011.71 1438.68 944.564 1143.62 905.534C864.128 868.562 580.866 834.777 306.217 903.68C4.79504 979.3 -299.918 1154.71 -409.98 1380.54" stroke="url(#paint81_linear_878_2067)" stroke-miterlimit="10"/>
<path d="M5434.24 1236.99C4994.71 1414.84 4444.6 1467.59 3986.38 1329.46C3598.89 1212.64 3266.3 913.52 2854.42 917.819C2574.8 920.737 2311.56 993.167 2042.47 999.237C1750.6 1005.82 1446.44 935.245 1150.05 900.896C874.598 868.973 597.018 840.446 327.342 911.537C21.9601 992.041 -290.971 1160.57 -412.406 1366.29" stroke="url(#paint82_linear_878_2067)" stroke-miterlimit="10"/>
<path d="M5427.2 1234.62C4984.24 1395.94 4431.75 1452.19 3972.28 1325.05C3594.2 1220.44 3270.42 934.441 2869.35 940.479C2587.06 944.729 2321.53 1004.85 2051.63 1002.5C1760.07 999.972 1454.24 925.859 1156.48 896.26C885.107 869.285 613.186 846.25 348.466 919.397C39.1181 1004.88 -282.025 1166.44 -414.834 1352.04" stroke="url(#paint83_linear_878_2067)" stroke-miterlimit="10"/>
<path d="M5420.15 1232.26C4973.77 1377.05 4419.18 1436.66 3958.17 1320.65C3589.73 1227.93 3274.53 955.456 2884.29 963.138C2599.3 968.748 2331.52 1016.56 2060.78 1005.77C1769.56 994.16 1462.09 916.397 1162.9 891.623C895.651 869.493 629.371 852.181 369.59 927.254C56.275 1017.8 -273.078 1172.3 -417.262 1337.79" stroke="url(#paint84_linear_878_2067)" stroke-miterlimit="10"/>
<path d="M5413.11 1229.89C4963.29 1358.16 4406.88 1420.98 3944.06 1316.24C3585.47 1235.09 3278.65 976.564 2899.22 985.799C2611.55 992.801 2341.52 1028.3 2069.95 1009.03C1779.06 988.39 1469.97 906.855 1169.33 886.987C906.228 869.599 645.578 858.234 390.715 935.113C73.438 1030.82 -264.131 1178.16 -419.689 1323.53" stroke="url(#paint85_linear_878_2067)" stroke-miterlimit="10"/>
<path d="M5406.07 1227.52C4952.82 1339.26 4394.85 1405.11 3929.96 1311.84C3581.42 1241.9 3282.76 997.759 2914.16 1008.46C2623.79 1016.88 2351.53 1040.09 2079.1 1012.3C1788.57 982.657 1477.89 897.225 1175.76 882.348C916.832 869.6 661.805 864.401 411.84 942.97C90.611 1043.94 -255.184 1184.02 -422.116 1309.28" stroke="url(#paint86_linear_878_2067)" stroke-miterlimit="10"/>
<path d="M5399.03 1225.16C4942.35 1320.37 4383.08 1389.02 3915.85 1307.43C3577.55 1248.36 3286.86 1019.04 2929.1 1031.12C2636.02 1041.01 2361.54 1051.91 2088.26 1015.56C1798.08 976.965 1485.83 887.502 1182.19 877.71C927.459 869.496 678.055 870.677 432.964 950.827C107.799 1057.16 -246.238 1189.88 -424.543 1295.03" stroke="url(#paint87_linear_878_2067)" stroke-miterlimit="10"/>
<path d="M5391.99 1222.79C4931.88 1301.48 4371.55 1372.64 3901.74 1303.03C3573.86 1254.44 3290.97 1040.41 2944.03 1053.78C2648.26 1065.17 2371.56 1063.76 2097.42 1018.83C1807.59 971.317 1493.8 877.684 1188.61 873.076C938.106 869.293 694.332 877.062 454.089 958.687C125.011 1070.5 -237.291 1195.75 -426.97 1280.78" stroke="url(#paint88_linear_878_2067)" stroke-miterlimit="10"/>
<path d="M5384.95 1220.43C4921.41 1282.58 4360.25 1355.94 3887.63 1298.62C3570.32 1260.14 3295.08 1061.86 2958.97 1076.44C2660.49 1089.38 2381.57 1075.66 2106.58 1022.09C1817.1 965.704 1501.79 867.759 1195.04 868.439C948.766 868.985 710.635 883.542 475.214 966.546C142.25 1083.94 -228.343 1201.61 -429.397 1266.52" stroke="url(#paint89_linear_878_2067)" stroke-miterlimit="10"/>
<path d="M5377.9 1218.06C4910.94 1263.69 4349.14 1338.86 3873.53 1294.21C3566.91 1265.43 3299.18 1083.39 2973.91 1099.09C2672.72 1113.64 2391.58 1087.58 2115.74 1025.35C1826.61 960.127 1509.79 857.721 1201.47 863.8C959.435 868.572 726.967 890.115 496.339 974.402C159.523 1097.5 -219.396 1207.47 -431.824 1252.27" stroke="url(#paint90_linear_878_2067)" stroke-miterlimit="10"/>
<path d="M5370.86 1215.7C4900.46 1244.8 4338.21 1321.33 3859.42 1289.81C3563.61 1270.34 3303.29 1105 2988.84 1121.76C2684.95 1137.95 2401.58 1099.55 2124.9 1028.62C1836.11 954.589 1517.8 847.568 1207.9 859.164C970.111 868.062 743.329 896.778 517.464 982.26C176.836 1111.18 -210.449 1213.34 -434.251 1238.02" stroke="url(#paint91_linear_878_2067)" stroke-miterlimit="10"/>
<path d="M5363.82 1213.33C4889.99 1225.9 4327.4 1303.3 3845.31 1285.41C3560.39 1274.83 3307.41 1126.68 3003.78 1144.42C2697.18 1162.32 2411.57 1111.54 2134.06 1031.89C1845.59 949.083 1525.8 837.289 1214.32 854.527C980.783 867.451 759.721 903.524 538.588 990.118C194.196 1124.98 -201.503 1219.2 -436.679 1223.77" stroke="url(#paint92_linear_878_2067)" stroke-miterlimit="10"/>
<path d="M5356.78 1210.97C4879.52 1207.01 4316.69 1284.68 3831.21 1281C3557.22 1278.92 3311.52 1148.44 3018.72 1167.07C2709.42 1186.76 2421.54 1123.57 2143.22 1035.15C1855.07 943.61 1533.8 826.881 1220.75 849.89C991.451 866.743 776.147 910.348 559.713 997.976C211.61 1138.91 -192.555 1225.06 -439.105 1209.51" stroke="url(#paint93_linear_878_2067)" stroke-miterlimit="10"/>
<path d="M5349.74 1208.6C4869.05 1188.11 4306.01 1265.4 3817.1 1276.59C3554.07 1282.62 3315.64 1170.27 3033.66 1189.73C2721.66 1211.27 2431.5 1135.62 2152.38 1038.41C1864.52 938.165 1541.78 816.336 1227.18 845.252C1002.11 865.938 792.607 917.245 580.838 1005.83C229.085 1152.98 -183.608 1230.92 -441.532 1195.26" stroke="url(#paint94_linear_878_2067)" stroke-miterlimit="10"/>
<path d="M5342.7 1206.23C4858.58 1169.22 4295.29 1245.37 3802.99 1272.19C3550.9 1285.92 3319.77 1192.17 3048.59 1212.39C2733.91 1235.86 2441.45 1147.7 2161.54 1041.68C1873.96 932.748 1549.74 805.648 1233.6 840.615C1012.75 865.042 809.102 924.212 601.963 1013.69C246.627 1167.19 -174.661 1236.79 -443.959 1181.01" stroke="url(#paint95_linear_878_2067)" stroke-miterlimit="10"/>
<path d="M5335.66 1203.87C4848.11 1150.33 4284.47 1224.51 3788.88 1267.79C3547.68 1288.85 3323.9 1214.14 3063.53 1235.05C2746.16 1260.55 2451.37 1159.81 2170.7 1044.94C1883.38 927.356 1557.67 794.812 1240.03 835.978C1023.37 864.057 825.634 931.244 623.089 1021.55C264.247 1181.54 -165.713 1242.65 -446.385 1166.75" stroke="url(#paint96_linear_878_2067)" stroke-miterlimit="10"/>
<path d="M5328.61 1201.5C4837.64 1131.43 4273.45 1202.71 3774.78 1263.38C3544.36 1291.42 3328.04 1236.17 3078.47 1257.71C2758.43 1285.34 2461.27 1171.94 2179.86 1048.21C1892.78 921.985 1565.56 783.822 1246.46 831.342C1033.96 862.986 842.203 938.337 644.212 1029.41C281.947 1196.04 -156.767 1248.51 -448.814 1152.5" stroke="url(#paint97_linear_878_2067)" stroke-miterlimit="10"/>
<path d="M5321.57 1199.14C4827.16 1112.54 4262.11 1179.87 3760.67 1258.97C3540.9 1293.64 3332.18 1258.27 3093.4 1280.37C2770.71 1310.25 2471.15 1184.09 2189.01 1051.47C1902.16 916.633 1573.39 772.671 1252.88 826.704C1044.52 861.83 858.811 945.483 665.336 1037.27C299.742 1210.7 -147.82 1254.38 -451.24 1138.25" stroke="url(#paint98_linear_878_2067)" stroke-miterlimit="10"/>
<path d="M5314.53 1196.77C4816.69 1093.65 4250.33 1155.9 3746.56 1254.57C3537.25 1295.57 3336.34 1280.43 3108.34 1303.03C2783.01 1335.29 2481.01 1196.27 2198.18 1054.74C1911.52 911.301 1581.17 761.358 1259.31 822.069C1055.05 860.599 875.462 952.685 686.463 1045.13C317.639 1225.52 -138.872 1260.24 -453.666 1124" stroke="url(#paint99_linear_878_2067)" stroke-miterlimit="10"/>
<path d="M5307.49 1194.4C4806.22 1074.75 4237.96 1130.71 3732.46 1250.16C3533.36 1297.21 3340.51 1302.64 3123.27 1325.69C2795.33 1360.48 2490.85 1208.45 2207.33 1058C1920.85 905.98 1588.88 749.871 1265.74 817.429C1065.53 859.288 892.153 959.929 707.586 1052.98C335.643 1240.5 -129.927 1266.1 -456.095 1109.74" stroke="url(#paint100_linear_878_2067)" stroke-miterlimit="10"/>
<path d="M5300.45 1192.04C4795.75 1055.86 4224.85 1104.21 3718.35 1245.76C3529.17 1298.63 3344.7 1324.92 3138.21 1348.35C2807.67 1385.86 2500.67 1220.65 2216.49 1061.27C1930.16 900.675 1596.5 738.215 1272.17 812.794C1075.96 857.911 908.888 967.221 728.711 1060.84C353.768 1255.66 -120.979 1271.97 -458.522 1095.49" stroke="url(#paint101_linear_878_2067)" stroke-miterlimit="10"/>
<path d="M5293.4 1189.67C4785.28 1036.96 4210.79 1076.36 3704.24 1241.35C3524.63 1299.85 3348.9 1347.25 3153.15 1371.01C2820.06 1411.43 2510.13 1233.43 2225.65 1064.53C1939.12 895.943 1604.03 726.378 1278.59 808.154C1086.33 856.465 925.669 974.547 749.837 1068.7C372.026 1270.99 -112.031 1277.83 -460.948 1081.24" stroke="url(#paint102_linear_878_2067)" stroke-miterlimit="10"/>
<path d="M5286.36 1187.31C4774.81 1018.07 4195.61 1047.13 3690.13 1236.95C3519.68 1300.95 3353.13 1369.64 3168.08 1393.67C2832.48 1437.25 2520.05 1245.37 2234.81 1067.8C1948.54 890.376 1611.46 714.366 1285.02 803.518C1096.65 854.963 942.495 981.912 770.961 1076.55C390.422 1286.51 -103.085 1283.69 -463.376 1066.99" stroke="url(#paint103_linear_878_2067)" stroke-miterlimit="10"/>
<path d="M5279.32 1184.94C4764.34 999.176 4179.09 1016.55 3676.03 1232.54C3514.27 1301.99 3357.38 1392.08 3183.02 1416.33C2844.97 1463.35 2529.98 1257.31 2243.97 1071.06C1957.96 884.809 1618.77 702.175 1291.45 798.882C1106.9 853.405 959.37 989.307 792.086 1084.41C408.972 1302.22 -94.138 1289.55 -465.803 1052.73" stroke="url(#paint104_linear_878_2067)" stroke-miterlimit="10"/>
</g>
<defs>
<linearGradient id="paint0_linear_878_2067" x1="-749.14" y1="1050.36" x2="5316.05" y2="1050.36" gradientUnits="userSpaceOnUse">
<stop stop-color="#43E29B"/>
<stop offset="1" stop-color="#289062"/>
</linearGradient>
<linearGradient id="paint1_linear_878_2067" x1="-750.2" y1="1055.78" x2="5309.25" y2="1055.78" gradientUnits="userSpaceOnUse">
<stop stop-color="#43E29B"/>
<stop offset="1" stop-color="#289062"/>
</linearGradient>
<linearGradient id="paint2_linear_878_2067" x1="-751.26" y1="1060.99" x2="5302.45" y2="1060.99" gradientUnits="userSpaceOnUse">
<stop stop-color="#43E29B"/>
<stop offset="1" stop-color="#289062"/>
</linearGradient>
<linearGradient id="paint3_linear_878_2067" x1="-752.319" y1="1066.01" x2="5295.65" y2="1066.01" gradientUnits="userSpaceOnUse">
<stop stop-color="#43E29B"/>
<stop offset="1" stop-color="#289062"/>
</linearGradient>
<linearGradient id="paint4_linear_878_2067" x1="-753.379" y1="1070.85" x2="5288.85" y2="1070.85" gradientUnits="userSpaceOnUse">
<stop stop-color="#43E29B"/>
<stop offset="1" stop-color="#289062"/>
</linearGradient>
<linearGradient id="paint5_linear_878_2067" x1="-754.438" y1="1075.51" x2="5282.05" y2="1075.51" gradientUnits="userSpaceOnUse">
<stop stop-color="#43E29B"/>
<stop offset="1" stop-color="#289062"/>
</linearGradient>
<linearGradient id="paint6_linear_878_2067" x1="-755.498" y1="1079.99" x2="5275.25" y2="1079.99" gradientUnits="userSpaceOnUse">
<stop stop-color="#43E29B"/>
<stop offset="1" stop-color="#289062"/>
</linearGradient>
<linearGradient id="paint7_linear_878_2067" x1="-756.557" y1="1084.31" x2="5268.45" y2="1084.31" gradientUnits="userSpaceOnUse">
<stop stop-color="#43E29B"/>
<stop offset="1" stop-color="#289062"/>
</linearGradient>
<linearGradient id="paint8_linear_878_2067" x1="-757.617" y1="1088.48" x2="5261.65" y2="1088.48" gradientUnits="userSpaceOnUse">
<stop stop-color="#43E29B"/>
<stop offset="1" stop-color="#289062"/>
</linearGradient>
<linearGradient id="paint9_linear_878_2067" x1="-758.677" y1="1092.49" x2="5254.86" y2="1092.49" gradientUnits="userSpaceOnUse">
<stop stop-color="#43E29B"/>
<stop offset="1" stop-color="#289062"/>
</linearGradient>
<linearGradient id="paint10_linear_878_2067" x1="-759.736" y1="1096.36" x2="5248.06" y2="1096.36" gradientUnits="userSpaceOnUse">
<stop stop-color="#43E29B"/>
<stop offset="1" stop-color="#289062"/>
</linearGradient>
<linearGradient id="paint11_linear_878_2067" x1="-760.796" y1="1100.1" x2="5241.26" y2="1100.1" gradientUnits="userSpaceOnUse">
<stop stop-color="#43E29B"/>
<stop offset="1" stop-color="#289062"/>
</linearGradient>
<linearGradient id="paint12_linear_878_2067" x1="-761.855" y1="1103.7" x2="5234.46" y2="1103.7" gradientUnits="userSpaceOnUse">
<stop stop-color="#43E29B"/>
<stop offset="1" stop-color="#289062"/>
</linearGradient>
<linearGradient id="paint13_linear_878_2067" x1="-762.915" y1="1107.91" x2="5227.66" y2="1107.91" gradientUnits="userSpaceOnUse">
<stop stop-color="#43E29B"/>
<stop offset="1" stop-color="#289062"/>
</linearGradient>
<linearGradient id="paint14_linear_878_2067" x1="-763.974" y1="1115.98" x2="5220.86" y2="1115.98" gradientUnits="userSpaceOnUse">
<stop stop-color="#43E29B"/>
<stop offset="1" stop-color="#289062"/>
</linearGradient>
<linearGradient id="paint15_linear_878_2067" x1="-765.034" y1="1124.22" x2="5214.06" y2="1124.22" gradientUnits="userSpaceOnUse">
<stop stop-color="#43E29B"/>
<stop offset="1" stop-color="#289062"/>
</linearGradient>
<linearGradient id="paint16_linear_878_2067" x1="-766.093" y1="1132.25" x2="5207.26" y2="1132.25" gradientUnits="userSpaceOnUse">
<stop stop-color="#43E29B"/>
<stop offset="1" stop-color="#289062"/>
</linearGradient>
<linearGradient id="paint17_linear_878_2067" x1="-767.153" y1="1140.2" x2="5200.46" y2="1140.2" gradientUnits="userSpaceOnUse">
<stop stop-color="#43E29B"/>
<stop offset="1" stop-color="#289062"/>
</linearGradient>
<linearGradient id="paint18_linear_878_2067" x1="-768.213" y1="1148.08" x2="5193.67" y2="1148.08" gradientUnits="userSpaceOnUse">
<stop stop-color="#43E29B"/>
<stop offset="1" stop-color="#289062"/>
</linearGradient>
<linearGradient id="paint19_linear_878_2067" x1="-769.272" y1="1155.88" x2="5186.87" y2="1155.88" gradientUnits="userSpaceOnUse">
<stop stop-color="#43E29B"/>
<stop offset="1" stop-color="#289062"/>
</linearGradient>
<linearGradient id="paint20_linear_878_2067" x1="-770.332" y1="1163.6" x2="5180.07" y2="1163.6" gradientUnits="userSpaceOnUse">
<stop stop-color="#43E29B"/>
<stop offset="1" stop-color="#289062"/>
</linearGradient>
<linearGradient id="paint21_linear_878_2067" x1="-771.391" y1="1171.25" x2="5173.27" y2="1171.25" gradientUnits="userSpaceOnUse">
<stop stop-color="#43E29B"/>
<stop offset="1" stop-color="#289062"/>
</linearGradient>
<linearGradient id="paint22_linear_878_2067" x1="-772.451" y1="1178.82" x2="5166.47" y2="1178.82" gradientUnits="userSpaceOnUse">
<stop stop-color="#43E29B"/>
<stop offset="1" stop-color="#289062"/>
</linearGradient>
<linearGradient id="paint23_linear_878_2067" x1="-773.51" y1="1186.31" x2="5159.67" y2="1186.31" gradientUnits="userSpaceOnUse">
<stop stop-color="#43E29B"/>
<stop offset="1" stop-color="#289062"/>
</linearGradient>
<linearGradient id="paint24_linear_878_2067" x1="-774.57" y1="1193.73" x2="5152.87" y2="1193.73" gradientUnits="userSpaceOnUse">
<stop stop-color="#43E29B"/>
<stop offset="1" stop-color="#289062"/>
</linearGradient>
<linearGradient id="paint25_linear_878_2067" x1="-775.629" y1="1201.07" x2="5146.07" y2="1201.07" gradientUnits="userSpaceOnUse">
<stop stop-color="#43E29B"/>
<stop offset="1" stop-color="#289062"/>
</linearGradient>
<linearGradient id="paint26_linear_878_2067" x1="-776.689" y1="1208.32" x2="5139.27" y2="1208.32" gradientUnits="userSpaceOnUse">
<stop stop-color="#43E29B"/>
<stop offset="1" stop-color="#289062"/>
</linearGradient>
<linearGradient id="paint27_linear_878_2067" x1="-780.65" y1="1196.16" x2="5142.58" y2="1196.16" gradientUnits="userSpaceOnUse">
<stop stop-color="#43E29B"/>
<stop offset="1" stop-color="#289062"/>
</linearGradient>
<linearGradient id="paint28_linear_878_2067" x1="-784.611" y1="1184.53" x2="5145.89" y2="1184.53" gradientUnits="userSpaceOnUse">
<stop stop-color="#43E29B"/>
<stop offset="1" stop-color="#289062"/>
</linearGradient>
<linearGradient id="paint29_linear_878_2067" x1="-788.572" y1="1173.55" x2="5149.2" y2="1173.55" gradientUnits="userSpaceOnUse">
<stop stop-color="#43E29B"/>
<stop offset="1" stop-color="#289062"/>
</linearGradient>
<linearGradient id="paint30_linear_878_2067" x1="-792.532" y1="1163.47" x2="5152.5" y2="1163.47" gradientUnits="userSpaceOnUse">
<stop stop-color="#43E29B"/>
<stop offset="1" stop-color="#289062"/>
</linearGradient>
<linearGradient id="paint31_linear_878_2067" x1="-796.493" y1="1154.32" x2="5155.81" y2="1154.32" gradientUnits="userSpaceOnUse">
<stop stop-color="#43E29B"/>
<stop offset="1" stop-color="#289062"/>
</linearGradient>
<linearGradient id="paint32_linear_878_2067" x1="-800.454" y1="1145.9" x2="5159.12" y2="1145.9" gradientUnits="userSpaceOnUse">
<stop stop-color="#43E29B"/>
<stop offset="1" stop-color="#289062"/>
</linearGradient>
<linearGradient id="paint33_linear_878_2067" x1="-804.416" y1="1137.49" x2="5162.43" y2="1137.49" gradientUnits="userSpaceOnUse">
<stop stop-color="#43E29B"/>
<stop offset="1" stop-color="#289062"/>
</linearGradient>
<linearGradient id="paint34_linear_878_2067" x1="-808.376" y1="1129.07" x2="5165.73" y2="1129.07" gradientUnits="userSpaceOnUse">
<stop stop-color="#43E29B"/>
<stop offset="1" stop-color="#289062"/>
</linearGradient>
<linearGradient id="paint35_linear_878_2067" x1="-812.339" y1="1120.63" x2="5169.04" y2="1120.63" gradientUnits="userSpaceOnUse">
<stop stop-color="#43E29B"/>
<stop offset="1" stop-color="#289062"/>
</linearGradient>
<linearGradient id="paint36_linear_878_2067" x1="-816.296" y1="1112.19" x2="5172.35" y2="1112.19" gradientUnits="userSpaceOnUse">
<stop stop-color="#43E29B"/>
<stop offset="1" stop-color="#289062"/>
</linearGradient>
<linearGradient id="paint37_linear_878_2067" x1="-820.258" y1="1103.74" x2="5175.66" y2="1103.74" gradientUnits="userSpaceOnUse">
<stop stop-color="#43E29B"/>
<stop offset="1" stop-color="#289062"/>
</linearGradient>
<linearGradient id="paint38_linear_878_2067" x1="-824.22" y1="1099.6" x2="5178.97" y2="1099.6" gradientUnits="userSpaceOnUse">
<stop stop-color="#43E29B"/>
<stop offset="1" stop-color="#289062"/>
</linearGradient>
<linearGradient id="paint39_linear_878_2067" x1="-828.182" y1="1097.11" x2="5182.27" y2="1097.11" gradientUnits="userSpaceOnUse">
<stop stop-color="#43E29B"/>
<stop offset="1" stop-color="#289062"/>
</linearGradient>
<linearGradient id="paint40_linear_878_2067" x1="-832.141" y1="1094.84" x2="5185.58" y2="1094.84" gradientUnits="userSpaceOnUse">
<stop stop-color="#43E29B"/>
<stop offset="1" stop-color="#289062"/>
</linearGradient>
<linearGradient id="paint41_linear_878_2067" x1="-836.102" y1="1092.8" x2="5188.89" y2="1092.8" gradientUnits="userSpaceOnUse">
<stop stop-color="#43E29B"/>
<stop offset="1" stop-color="#289062"/>
</linearGradient>
<linearGradient id="paint42_linear_878_2067" x1="-840.063" y1="1090.99" x2="5192.2" y2="1090.99" gradientUnits="userSpaceOnUse">
<stop stop-color="#43E29B"/>
<stop offset="1" stop-color="#289062"/>
</linearGradient>
<linearGradient id="paint43_linear_878_2067" x1="-844.026" y1="1089.44" x2="5195.5" y2="1089.44" gradientUnits="userSpaceOnUse">
<stop stop-color="#43E29B"/>
<stop offset="1" stop-color="#289062"/>
</linearGradient>
<linearGradient id="paint44_linear_878_2067" x1="-847.983" y1="1088.14" x2="5198.81" y2="1088.14" gradientUnits="userSpaceOnUse">
<stop stop-color="#43E29B"/>
<stop offset="1" stop-color="#289062"/>
</linearGradient>
<linearGradient id="paint45_linear_878_2067" x1="-851.945" y1="1087.1" x2="5202.12" y2="1087.1" gradientUnits="userSpaceOnUse">
<stop stop-color="#43E29B"/>
<stop offset="1" stop-color="#289062"/>
</linearGradient>
<linearGradient id="paint46_linear_878_2067" x1="-855.906" y1="1086.31" x2="5205.43" y2="1086.31" gradientUnits="userSpaceOnUse">
<stop stop-color="#43E29B"/>
<stop offset="1" stop-color="#289062"/>
</linearGradient>
<linearGradient id="paint47_linear_878_2067" x1="-859.867" y1="1085.73" x2="5208.74" y2="1085.73" gradientUnits="userSpaceOnUse">
<stop stop-color="#43E29B"/>
<stop offset="1" stop-color="#289062"/>
</linearGradient>
<linearGradient id="paint48_linear_878_2067" x1="-863.829" y1="1085.36" x2="5212.04" y2="1085.36" gradientUnits="userSpaceOnUse">
<stop stop-color="#43E29B"/>
<stop offset="1" stop-color="#289062"/>
</linearGradient>
<linearGradient id="paint49_linear_878_2067" x1="-867.789" y1="1085.15" x2="5215.35" y2="1085.15" gradientUnits="userSpaceOnUse">
<stop stop-color="#43E29B"/>
<stop offset="1" stop-color="#289062"/>
</linearGradient>
<linearGradient id="paint50_linear_878_2067" x1="-871.748" y1="1078.67" x2="5218.66" y2="1078.67" gradientUnits="userSpaceOnUse">
<stop stop-color="#43E29B"/>
<stop offset="1" stop-color="#289062"/>
</linearGradient>
<linearGradient id="paint51_linear_878_2067" x1="-875.71" y1="1065.68" x2="5221.97" y2="1065.68" gradientUnits="userSpaceOnUse">
<stop stop-color="#43E29B"/>
<stop offset="1" stop-color="#289062"/>
</linearGradient>
<linearGradient id="paint52_linear_878_2067" x1="-879.67" y1="1052.14" x2="5225.28" y2="1052.14" gradientUnits="userSpaceOnUse">
<stop stop-color="#43E29B"/>
<stop offset="1" stop-color="#289062"/>
</linearGradient>
<linearGradient id="paint53_linear_878_2067" x1="-861.326" y1="1056.52" x2="5234.4" y2="1056.52" gradientUnits="userSpaceOnUse">
<stop stop-color="#43E29B"/>
<stop offset="1" stop-color="#289062"/>
</linearGradient>
<linearGradient id="paint54_linear_878_2067" x1="-842.981" y1="1060.74" x2="5243.52" y2="1060.74" gradientUnits="userSpaceOnUse">
<stop stop-color="#43E29B"/>
<stop offset="1" stop-color="#289062"/>
</linearGradient>
<linearGradient id="paint55_linear_878_2067" x1="-824.636" y1="1064.73" x2="5252.64" y2="1064.73" gradientUnits="userSpaceOnUse">
<stop stop-color="#43E29B"/>
<stop offset="1" stop-color="#289062"/>
</linearGradient>
<linearGradient id="paint56_linear_878_2067" x1="-806.291" y1="1058.93" x2="5261.76" y2="1058.93" gradientUnits="userSpaceOnUse">
<stop stop-color="#43E29B"/>
<stop offset="1" stop-color="#289062"/>
</linearGradient>
<linearGradient id="paint57_linear_878_2067" x1="-787.945" y1="1052.46" x2="5270.88" y2="1052.46" gradientUnits="userSpaceOnUse">
<stop stop-color="#43E29B"/>
<stop offset="1" stop-color="#289062"/>
</linearGradient>
<linearGradient id="paint58_linear_878_2067" x1="-769.6" y1="1046.02" x2="5280" y2="1046.02" gradientUnits="userSpaceOnUse">
<stop stop-color="#43E29B"/>
<stop offset="1" stop-color="#289062"/>
</linearGradient>
<linearGradient id="paint59_linear_878_2067" x1="-751.255" y1="1039.61" x2="5289.12" y2="1039.61" gradientUnits="userSpaceOnUse">
<stop stop-color="#43E29B"/>
<stop offset="1" stop-color="#289062"/>
</linearGradient>
<linearGradient id="paint60_linear_878_2067" x1="-732.91" y1="1033.22" x2="5298.24" y2="1033.22" gradientUnits="userSpaceOnUse">
<stop stop-color="#43E29B"/>
<stop offset="1" stop-color="#289062"/>
</linearGradient>
<linearGradient id="paint61_linear_878_2067" x1="-714.565" y1="1026.85" x2="5307.36" y2="1026.85" gradientUnits="userSpaceOnUse">
<stop stop-color="#43E29B"/>
<stop offset="1" stop-color="#289062"/>
</linearGradient>
<linearGradient id="paint62_linear_878_2067" x1="-696.22" y1="1020.51" x2="5316.48" y2="1020.51" gradientUnits="userSpaceOnUse">
<stop stop-color="#43E29B"/>
<stop offset="1" stop-color="#289062"/>
</linearGradient>
<linearGradient id="paint63_linear_878_2067" x1="-677.875" y1="1014.2" x2="5325.6" y2="1014.2" gradientUnits="userSpaceOnUse">
<stop stop-color="#43E29B"/>
<stop offset="1" stop-color="#289062"/>
</linearGradient>
<linearGradient id="paint64_linear_878_2067" x1="-659.53" y1="1007.93" x2="5334.72" y2="1007.93" gradientUnits="userSpaceOnUse">
<stop stop-color="#43E29B"/>
<stop offset="1" stop-color="#289062"/>
</linearGradient>
<linearGradient id="paint65_linear_878_2067" x1="-641.185" y1="1010.7" x2="5343.84" y2="1010.7" gradientUnits="userSpaceOnUse">
<stop stop-color="#43E29B"/>
<stop offset="1" stop-color="#289062"/>
</linearGradient>
<linearGradient id="paint66_linear_878_2067" x1="-622.84" y1="1013.65" x2="5352.96" y2="1013.65" gradientUnits="userSpaceOnUse">
<stop stop-color="#43E29B"/>
<stop offset="1" stop-color="#289062"/>
</linearGradient>
<linearGradient id="paint67_linear_878_2067" x1="-604.495" y1="1016.6" x2="5362.08" y2="1016.6" gradientUnits="userSpaceOnUse">
<stop stop-color="#43E29B"/>
<stop offset="1" stop-color="#289062"/>
</linearGradient>
<linearGradient id="paint68_linear_878_2067" x1="-586.149" y1="1021.56" x2="5371.2" y2="1021.56" gradientUnits="userSpaceOnUse">
<stop stop-color="#43E29B"/>
<stop offset="1" stop-color="#289062"/>
</linearGradient>
<linearGradient id="paint69_linear_878_2067" x1="-567.804" y1="1033.15" x2="5380.32" y2="1033.15" gradientUnits="userSpaceOnUse">
<stop stop-color="#43E29B"/>
<stop offset="1" stop-color="#289062"/>
</linearGradient>
<linearGradient id="paint70_linear_878_2067" x1="-549.459" y1="1044.73" x2="5389.44" y2="1044.73" gradientUnits="userSpaceOnUse">
<stop stop-color="#43E29B"/>
<stop offset="1" stop-color="#289062"/>
</linearGradient>
<linearGradient id="paint71_linear_878_2067" x1="-531.114" y1="1056.32" x2="5398.56" y2="1056.32" gradientUnits="userSpaceOnUse">
<stop stop-color="#43E29B"/>
<stop offset="1" stop-color="#289062"/>
</linearGradient>
<linearGradient id="paint72_linear_878_2067" x1="-512.769" y1="1067.89" x2="5407.68" y2="1067.89" gradientUnits="userSpaceOnUse">
<stop stop-color="#43E29B"/>
<stop offset="1" stop-color="#289062"/>
</linearGradient>
<linearGradient id="paint73_linear_878_2067" x1="-494.424" y1="1079.47" x2="5416.8" y2="1079.47" gradientUnits="userSpaceOnUse">
<stop stop-color="#43E29B"/>
<stop offset="1" stop-color="#289062"/>
</linearGradient>
<linearGradient id="paint74_linear_878_2067" x1="-476.079" y1="1091.62" x2="5425.92" y2="1091.62" gradientUnits="userSpaceOnUse">
<stop stop-color="#43E29B"/>
<stop offset="1" stop-color="#289062"/>
</linearGradient>
<linearGradient id="paint75_linear_878_2067" x1="-457.734" y1="1107.27" x2="5435.04" y2="1107.27" gradientUnits="userSpaceOnUse">
<stop stop-color="#43E29B"/>
<stop offset="1" stop-color="#289062"/>
</linearGradient>
<linearGradient id="paint76_linear_878_2067" x1="-439.389" y1="1123.26" x2="5444.16" y2="1123.26" gradientUnits="userSpaceOnUse">
<stop stop-color="#43E29B"/>
<stop offset="1" stop-color="#289062"/>
</linearGradient>
<linearGradient id="paint77_linear_878_2067" x1="-421.044" y1="1136.79" x2="5453.28" y2="1136.79" gradientUnits="userSpaceOnUse">
<stop stop-color="#43E29B"/>
<stop offset="1" stop-color="#289062"/>
</linearGradient>
<linearGradient id="paint78_linear_878_2067" x1="-402.698" y1="1143.84" x2="5462.4" y2="1143.84" gradientUnits="userSpaceOnUse">
<stop stop-color="#43E29B"/>
<stop offset="1" stop-color="#289062"/>
</linearGradient>
<linearGradient id="paint79_linear_878_2067" x1="-405.127" y1="1148.57" x2="5455.36" y2="1148.57" gradientUnits="userSpaceOnUse">
<stop stop-color="#43E29B"/>
<stop offset="1" stop-color="#289062"/>
</linearGradient>
<linearGradient id="paint80_linear_878_2067" x1="-407.554" y1="1147.03" x2="5448.32" y2="1147.03" gradientUnits="userSpaceOnUse">
<stop stop-color="#43E29B"/>
<stop offset="1" stop-color="#289062"/>
</linearGradient>
<linearGradient id="paint81_linear_878_2067" x1="-409.98" y1="1142.4" x2="5441.28" y2="1142.4" gradientUnits="userSpaceOnUse">
<stop stop-color="#43E29B"/>
<stop offset="1" stop-color="#289062"/>
</linearGradient>
<linearGradient id="paint82_linear_878_2067" x1="-412.406" y1="1137.59" x2="5434.24" y2="1137.59" gradientUnits="userSpaceOnUse">
<stop stop-color="#43E29B"/>
<stop offset="1" stop-color="#289062"/>
</linearGradient>
<linearGradient id="paint83_linear_878_2067" x1="-414.834" y1="1132.56" x2="5427.2" y2="1132.56" gradientUnits="userSpaceOnUse">
<stop stop-color="#43E29B"/>
<stop offset="1" stop-color="#289062"/>
</linearGradient>
<linearGradient id="paint84_linear_878_2067" x1="-417.262" y1="1127.27" x2="5420.15" y2="1127.27" gradientUnits="userSpaceOnUse">
<stop stop-color="#43E29B"/>
<stop offset="1" stop-color="#289062"/>
</linearGradient>
<linearGradient id="paint85_linear_878_2067" x1="-419.689" y1="1121.64" x2="5413.11" y2="1121.64" gradientUnits="userSpaceOnUse">
<stop stop-color="#43E29B"/>
<stop offset="1" stop-color="#289062"/>
</linearGradient>
<linearGradient id="paint86_linear_878_2067" x1="-422.116" y1="1115.6" x2="5406.07" y2="1115.6" gradientUnits="userSpaceOnUse">
<stop stop-color="#43E29B"/>
<stop offset="1" stop-color="#289062"/>
</linearGradient>
<linearGradient id="paint87_linear_878_2067" x1="-424.543" y1="1109.03" x2="5399.03" y2="1109.03" gradientUnits="userSpaceOnUse">
<stop stop-color="#43E29B"/>
<stop offset="1" stop-color="#289062"/>
</linearGradient>
<linearGradient id="paint88_linear_878_2067" x1="-426.97" y1="1101.82" x2="5391.99" y2="1101.82" gradientUnits="userSpaceOnUse">
<stop stop-color="#43E29B"/>
<stop offset="1" stop-color="#289062"/>
</linearGradient>
<linearGradient id="paint89_linear_878_2067" x1="-429.397" y1="1093.88" x2="5384.95" y2="1093.88" gradientUnits="userSpaceOnUse">
<stop stop-color="#43E29B"/>
<stop offset="1" stop-color="#289062"/>
</linearGradient>
<linearGradient id="paint90_linear_878_2067" x1="-431.824" y1="1085.71" x2="5377.9" y2="1085.71" gradientUnits="userSpaceOnUse">
<stop stop-color="#43E29B"/>
<stop offset="1" stop-color="#289062"/>
</linearGradient>
<linearGradient id="paint91_linear_878_2067" x1="-434.251" y1="1077.79" x2="5370.86" y2="1077.79" gradientUnits="userSpaceOnUse">
<stop stop-color="#43E29B"/>
<stop offset="1" stop-color="#289062"/>
</linearGradient>
<linearGradient id="paint92_linear_878_2067" x1="-436.679" y1="1070.41" x2="5363.82" y2="1070.41" gradientUnits="userSpaceOnUse">
<stop stop-color="#43E29B"/>
<stop offset="1" stop-color="#289062"/>
</linearGradient>
<linearGradient id="paint93_linear_878_2067" x1="-439.105" y1="1064.04" x2="5356.78" y2="1064.04" gradientUnits="userSpaceOnUse">
<stop stop-color="#43E29B"/>
<stop offset="1" stop-color="#289062"/>
</linearGradient>
<linearGradient id="paint94_linear_878_2067" x1="-441.532" y1="1058.88" x2="5349.74" y2="1058.88" gradientUnits="userSpaceOnUse">
<stop stop-color="#43E29B"/>
<stop offset="1" stop-color="#289062"/>
</linearGradient>
<linearGradient id="paint95_linear_878_2067" x1="-443.959" y1="1054.14" x2="5342.7" y2="1054.14" gradientUnits="userSpaceOnUse">
<stop stop-color="#43E29B"/>
<stop offset="1" stop-color="#289062"/>
</linearGradient>
<linearGradient id="paint96_linear_878_2067" x1="-446.385" y1="1049.94" x2="5335.66" y2="1049.94" gradientUnits="userSpaceOnUse">
<stop stop-color="#43E29B"/>
<stop offset="1" stop-color="#289062"/>
</linearGradient>
<linearGradient id="paint97_linear_878_2067" x1="-448.814" y1="1046.63" x2="5328.61" y2="1046.63" gradientUnits="userSpaceOnUse">
<stop stop-color="#43E29B"/>
<stop offset="1" stop-color="#289062"/>
</linearGradient>
<linearGradient id="paint98_linear_878_2067" x1="-451.24" y1="1049.93" x2="5321.57" y2="1049.93" gradientUnits="userSpaceOnUse">
<stop stop-color="#43E29B"/>
<stop offset="1" stop-color="#289062"/>
</linearGradient>
<linearGradient id="paint99_linear_878_2067" x1="-453.666" y1="1057.98" x2="5314.53" y2="1057.98" gradientUnits="userSpaceOnUse">
<stop stop-color="#43E29B"/>
<stop offset="1" stop-color="#289062"/>
</linearGradient>
<linearGradient id="paint100_linear_878_2067" x1="-456.095" y1="1065.97" x2="5307.49" y2="1065.97" gradientUnits="userSpaceOnUse">
<stop stop-color="#43E29B"/>
<stop offset="1" stop-color="#289062"/>
</linearGradient>
<linearGradient id="paint101_linear_878_2067" x1="-458.522" y1="1073.93" x2="5300.45" y2="1073.93" gradientUnits="userSpaceOnUse">
<stop stop-color="#43E29B"/>
<stop offset="1" stop-color="#289062"/>
</linearGradient>
<linearGradient id="paint102_linear_878_2067" x1="-460.948" y1="1081.88" x2="5293.4" y2="1081.88" gradientUnits="userSpaceOnUse">
<stop stop-color="#43E29B"/>
<stop offset="1" stop-color="#289062"/>
</linearGradient>
<linearGradient id="paint103_linear_878_2067" x1="-463.376" y1="1089.76" x2="5286.36" y2="1089.76" gradientUnits="userSpaceOnUse">
<stop stop-color="#43E29B"/>
<stop offset="1" stop-color="#289062"/>
</linearGradient>
<linearGradient id="paint104_linear_878_2067" x1="-465.803" y1="1097.62" x2="5279.32" y2="1097.62" gradientUnits="userSpaceOnUse">
<stop stop-color="#43E29B"/>
<stop offset="1" stop-color="#289062"/>
</linearGradient>
</defs>
</svg>
