<svg width="4000" height="2000" viewBox="0 0 4000 2000" fill="none" xmlns="http://www.w3.org/2000/svg">
<mask id="mask0_878_2434" style="mask-type:luminance" maskUnits="userSpaceOnUse" x="0" y="0" width="4000" height="2000">
<path d="M0.5 0.5H3999.5V1999.5H0.5V0.5Z" fill="white" stroke="white"/>
</mask>
<g mask="url(#mask0_878_2434)">
<path d="M494.668 -268.693C461.912 -61.3804 439.163 150.32 469.527 357.997C499.891 565.674 588.282 771.075 747.124 908.264C926.599 1063.27 1175.05 1114.99 1412.2 1113.64C1684.02 1112.09 1951.25 1048.79 2215.67 985.758C2480.08 922.726 2747.26 859.262 3019.07 857.389C3290.89 855.516 3571.78 920.738 3783.88 1090.74C3995.98 1260.75 4124.78 1548.13 4059.39 1811.98" stroke="url(#paint0_linear_878_2434)" stroke-miterlimit="10"/>
<path d="M479.655 -260.979C446.477 -55.5985 424.139 154.318 454.038 360.237C483.937 566.154 570.797 769.749 726.513 907.174C903.004 1063.46 1147.71 1119.37 1382.65 1122.53C1505.7 1124.19 1628.13 1112.97 1749.99 1094.48C1894.83 1072.52 2038.82 1040.28 2182.01 1007.36C2414.16 953.996 2648.39 898.365 2885.07 881.443C2917.19 879.15 2949.37 877.57 2981.61 876.817C3251.39 870.477 3528.15 929.311 3743.03 1091.12C3852.48 1173.54 3942.73 1287.69 3995.95 1415.62C4049.98 1545.52 4067.19 1688.38 4036.16 1825.3" stroke="url(#paint1_linear_878_2434)" stroke-miterlimit="10"/>
<path d="M464.638 -253.264C431.038 -49.8177 409.11 158.318 438.544 362.479C467.978 566.635 553.306 768.426 705.898 906.086C879.405 1063.65 1120.37 1123.75 1353.1 1131.42C1474.99 1135.44 1596.6 1126.61 1717.85 1110.22C1861.99 1090.75 2005.55 1060.57 2148.36 1028.97C2379.84 977.734 2613.36 922.305 2848.34 902.293C2880.22 899.584 2912.15 897.527 2944.14 896.245C3211.88 885.438 3484.77 937.731 3702.18 1091.5C3815.99 1172 3911.68 1287.13 3967.45 1418.14C4023.98 1551.04 4042.02 1697.77 4012.92 1838.62" stroke="url(#paint2_linear_878_2434)" stroke-miterlimit="10"/>
<path d="M449.624 -245.549C415.601 -44.0368 394.085 162.318 423.054 364.72C452.022 567.115 536.15 766.744 685.286 904.997C856.189 1063.43 1093.03 1128.12 1323.56 1140.32C1444.28 1146.69 1565.07 1140.25 1685.71 1125.95C1829.16 1108.97 1972.29 1080.86 2114.71 1050.57C2345.52 1001.47 2578.32 946.245 2811.61 923.144C2843.25 920.019 2874.93 917.486 2906.67 915.675C3172.38 900.401 3441.65 945.99 3661.33 1091.89C3779.62 1170.44 3880.63 1286.58 3938.94 1420.66C3997.98 1556.55 4016.86 1707.17 3989.68 1851.94" stroke="url(#paint3_linear_878_2434)" stroke-miterlimit="10"/>
<path d="M434.611 -237.834C400.166 -38.255 379.061 166.318 407.565 366.961C436.068 567.596 518.764 765.324 664.675 903.908C832.71 1063.51 1065.7 1132.5 1294.01 1149.21C1413.58 1157.95 1533.54 1153.89 1653.58 1141.68C1796.33 1127.2 1939.02 1101.15 2081.06 1072.18C2311.21 1025.21 2543.29 970.183 2774.88 943.993C2806.28 940.453 2837.72 937.443 2869.2 935.103C3132.87 915.362 3398.76 954.072 3620.48 1092.27C3743.35 1168.84 3849.58 1286.03 3910.44 1423.18C3971.99 1562.07 3991.7 1716.56 3966.45 1865.26" stroke="url(#paint4_linear_878_2434)" stroke-miterlimit="10"/>
<path d="M419.595 -230.119C384.728 -32.4741 364.033 170.318 392.072 369.203C420.11 568.077 501.367 763.916 644.06 902.819C809.221 1063.59 1038.36 1136.88 1264.46 1158.1C1382.87 1169.2 1502 1167.53 1621.44 1157.41C1763.5 1145.43 1905.76 1121.44 2047.4 1093.78C2276.89 1048.95 2508.25 994.123 2738.14 964.843C2769.31 960.887 2800.5 957.401 2831.73 954.532C3093.37 930.324 3356.07 961.976 3579.63 1092.65C3707.18 1167.2 3818.54 1285.47 3881.93 1425.7C3945.99 1567.58 3966.53 1725.96 3943.21 1878.58" stroke="url(#paint5_linear_878_2434)" stroke-miterlimit="10"/>
<path d="M404.583 -222.406C369.294 -26.6942 349.01 174.316 376.584 371.442C404.156 568.555 483.968 762.517 623.45 901.728C785.729 1063.69 1011.02 1141.25 1234.92 1166.99C1352.16 1180.45 1470.48 1181.17 1589.31 1173.14C1730.67 1163.65 1872.5 1141.72 2013.75 1115.39C2242.57 1072.68 2473.22 1018.06 2701.41 985.691C2732.34 981.32 2763.29 977.357 2794.26 973.959C3053.87 945.285 3313.58 969.694 3538.79 1093.02C3671.1 1165.49 3787.49 1284.92 3853.43 1428.22C3920 1573.09 3941.37 1735.35 3919.98 1891.9" stroke="url(#paint6_linear_878_2434)" stroke-miterlimit="10"/>
<path d="M389.567 -214.689C353.855 -20.9115 333.983 178.318 361.092 373.686C388.199 569.039 466.557 761.135 602.836 900.642C762.227 1063.81 983.677 1145.63 1205.37 1175.88C1321.45 1191.7 1438.94 1194.81 1557.17 1188.88C1697.84 1181.88 1839.23 1162.02 1980.1 1136.99C2208.26 1096.42 2438.19 1042 2664.68 1006.54C2695.37 1001.76 2726.07 997.317 2756.79 993.389C3014.36 960.248 3271.25 977.229 3497.94 1093.41C3635.11 1163.71 3756.45 1284.36 3824.92 1430.74C3894 1578.6 3916.21 1744.74 3896.74 1905.22" stroke="url(#paint7_linear_878_2434)" stroke-miterlimit="10"/>
<path d="M374.552 -206.975C338.418 -15.1306 318.956 182.317 345.6 375.926C372.242 569.518 449.138 759.76 582.222 899.552C738.715 1063.93 956.336 1150.01 1175.82 1184.77C1290.74 1202.96 1407.41 1208.45 1525.03 1204.61C1665 1200.11 1805.97 1182.31 1946.45 1158.6C2173.94 1120.16 2403.15 1065.94 2627.95 1027.39C2658.4 1022.19 2688.85 1017.27 2719.32 1012.82C2974.85 975.21 3229.07 984.581 3457.08 1093.79C3599.19 1161.85 3725.4 1283.81 3796.41 1433.26C3868 1584.12 3891.04 1754.14 3873.5 1918.54" stroke="url(#paint8_linear_878_2434)" stroke-miterlimit="10"/>
<path d="M359.539 -199.262C322.983 -9.35072 303.932 186.315 330.111 378.166C356.287 569.997 431.714 758.396 561.612 898.462C715.198 1064.07 928.999 1154.39 1146.28 1193.66C1260.04 1214.21 1375.88 1222.09 1492.9 1220.34C1632.17 1218.33 1772.71 1202.59 1912.8 1180.2C2139.62 1143.89 2368.12 1089.88 2591.22 1048.24C2621.44 1042.62 2651.64 1037.23 2681.86 1032.25C2935.35 990.17 3187.02 991.748 3416.24 1094.17C3563.34 1159.9 3694.35 1283.26 3767.91 1435.77C3842.01 1589.63 3865.88 1763.53 3850.26 1931.86" stroke="url(#paint9_linear_878_2434)" stroke-miterlimit="10"/>
<path d="M344.526 -191.547C307.548 -3.56987 288.908 190.314 314.621 380.407C340.332 570.478 414.279 757.044 541 897.373C691.669 1064.22 901.66 1158.77 1116.73 1202.56C1229.33 1225.46 1344.35 1235.73 1460.76 1236.07C1599.34 1236.56 1739.44 1222.89 1879.14 1201.81C2105.3 1167.63 2333.09 1113.82 2554.49 1069.09C2584.47 1063.06 2614.42 1057.19 2644.39 1051.68C2895.85 1005.13 3145.07 998.739 3375.39 1094.55C3527.56 1157.85 3663.31 1282.7 3739.41 1438.3C3816.02 1595.14 3840.72 1772.93 3827.03 1945.19" stroke="url(#paint10_linear_878_2434)" stroke-miterlimit="10"/>
<path d="M329.511 -183.832C292.111 2.21097 273.881 194.314 299.13 382.648C324.376 570.958 396.834 755.704 520.387 896.284C668.129 1064.39 874.32 1163.14 1087.18 1211.45C1198.62 1236.71 1312.82 1249.37 1428.63 1251.81C1566.51 1254.78 1706.18 1243.17 1845.49 1223.41C2070.99 1191.37 2298.05 1137.76 2517.76 1089.94C2547.5 1083.49 2577.21 1077.15 2606.92 1071.1C2856.35 1020.1 3103.21 1005.56 3334.54 1094.93C3491.83 1155.7 3632.26 1282.15 3710.9 1440.81C3790.02 1600.66 3815.55 1782.32 3803.79 1958.51" stroke="url(#paint11_linear_878_2434)" stroke-miterlimit="10"/>
<path d="M314.497 -176.117C276.675 7.99281 258.856 198.314 283.64 384.89C308.421 571.439 379.378 754.375 499.774 895.196C644.576 1064.56 846.982 1167.52 1057.63 1220.34C1167.91 1247.97 1281.29 1263.01 1396.49 1267.54C1533.68 1273.01 1672.91 1263.46 1811.84 1245.02C2036.67 1215.11 2263.02 1161.7 2481.02 1110.79C2510.53 1103.93 2539.99 1097.1 2569.45 1090.53C2816.84 1035.06 3061.42 1012.2 3293.69 1095.31C3456.14 1153.43 3601.21 1281.6 3682.4 1443.33C3764.02 1606.17 3790.39 1791.72 3780.55 1971.83" stroke="url(#paint12_linear_878_2434)" stroke-miterlimit="10"/>
<path d="M299.483 -168.402C261.238 13.7737 243.831 202.314 268.149 387.131C292.464 571.92 361.912 753.056 479.162 894.107C621.012 1064.75 819.642 1171.9 1028.09 1229.23C1137.21 1259.22 1249.76 1276.65 1364.35 1283.27C1500.85 1291.23 1639.65 1283.75 1778.19 1266.62C2002.35 1238.84 2227.98 1185.64 2444.29 1131.64C2473.56 1124.36 2502.78 1117.06 2531.98 1109.96C2777.34 1050.02 3019.68 1018.69 3252.84 1095.69C3420.5 1151.05 3570.17 1281.04 3653.89 1445.85C3738.03 1611.68 3765.23 1801.11 3757.32 1985.15" stroke="url(#paint13_linear_878_2434)" stroke-miterlimit="10"/>
<path d="M284.467 -160.688C245.8 19.5545 228.803 206.313 252.657 389.372C276.507 572.4 344.433 751.748 458.548 893.019C597.432 1064.95 792.301 1176.28 998.539 1238.12C1106.5 1270.47 1218.23 1290.29 1332.21 1299C1468.01 1309.46 1606.39 1304.04 1744.54 1288.23C1968.04 1262.58 2192.95 1209.58 2407.56 1152.49C2436.59 1144.8 2465.56 1137.02 2494.51 1129.39C2737.83 1064.98 2977.98 1025.03 3211.99 1096.07C3384.88 1148.56 3539.12 1280.49 3625.39 1448.37C3712.03 1617.2 3740.06 1810.51 3734.08 1998.47" stroke="url(#paint14_linear_878_2434)" stroke-miterlimit="10"/>
<path d="M269.454 -152.973C230.365 25.3363 213.779 210.313 237.167 391.613C260.552 572.88 326.944 750.447 437.937 891.929C573.84 1065.17 764.963 1180.65 968.994 1247.01C1075.79 1281.72 1186.7 1303.93 1300.08 1314.74C1435.18 1327.69 1573.12 1324.34 1710.89 1309.83C1933.72 1286.32 2157.92 1233.52 2370.83 1173.34C2399.62 1165.23 2428.34 1156.98 2457.05 1148.82C2698.33 1079.94 2936.3 1031.22 3171.14 1096.45C3349.29 1145.94 3508.08 1279.94 3596.88 1450.89C3686.04 1622.71 3714.9 1819.9 3710.85 2011.79" stroke="url(#paint15_linear_878_2434)" stroke-miterlimit="10"/>
<path d="M254.44 -145.26C214.929 31.1152 198.753 214.31 221.677 393.852C244.596 573.359 309.443 749.155 417.325 890.838C550.232 1065.39 737.624 1185.03 939.448 1255.9C1045.08 1292.98 1155.17 1317.57 1267.94 1330.47C1402.35 1345.91 1539.86 1344.62 1677.23 1331.44C1899.4 1310.06 2122.88 1257.45 2334.1 1194.19C2362.65 1185.66 2391.13 1176.94 2419.58 1168.25C2658.82 1094.9 2894.64 1037.27 3130.29 1096.83C3313.71 1143.19 3477.03 1279.38 3568.38 1453.41C3660.04 1628.22 3689.74 1829.29 3687.61 2025.11" stroke="url(#paint16_linear_878_2434)" stroke-miterlimit="10"/>
<path d="M239.426 -137.545C199.492 36.8961 183.728 218.31 206.186 396.094C228.64 573.84 291.927 747.875 396.712 889.75C526.607 1065.62 710.284 1189.41 909.9 1264.8C1014.37 1304.23 1123.63 1331.21 1235.81 1346.2C1369.52 1364.14 1506.6 1364.91 1643.58 1353.04C1865.09 1333.79 2087.85 1281.39 2297.37 1215.04C2325.68 1206.1 2353.91 1196.89 2382.11 1187.68C2619.32 1109.87 2852.97 1043.19 3089.44 1097.21C3278.14 1140.32 3445.98 1278.83 3539.87 1455.93C3634.05 1633.73 3664.57 1838.69 3664.37 2038.43" stroke="url(#paint17_linear_878_2434)" stroke-miterlimit="10"/>
<path d="M224.411 -129.83C184.055 42.6779 168.702 222.31 190.695 398.335C212.684 574.32 274.398 746.602 376.099 888.661C502.964 1065.87 682.944 1193.79 880.353 1273.69C983.666 1315.48 1092.1 1344.85 1203.67 1361.93C1336.69 1382.36 1473.33 1385.2 1609.93 1374.65C1830.77 1357.53 2052.81 1305.33 2260.64 1235.89C2288.71 1226.53 2316.7 1216.85 2344.64 1207.1C2579.82 1124.83 2811.29 1048.99 3048.59 1097.59C3242.57 1137.32 3414.93 1278.27 3511.36 1458.44C3608.05 1639.25 3639.41 1848.08 3641.14 2051.75" stroke="url(#paint18_linear_878_2434)" stroke-miterlimit="10"/>
<path d="M209.397 -122.115C168.619 48.4588 153.676 226.31 175.205 400.577C196.728 574.802 256.856 745.338 355.487 887.573C479.304 1066.13 655.605 1198.16 850.806 1282.58C952.958 1326.73 1060.57 1358.49 1171.53 1377.66C1303.86 1400.59 1440.07 1405.49 1576.28 1396.25C1796.45 1381.27 2017.78 1329.27 2223.91 1256.74C2251.74 1246.97 2279.48 1236.81 2307.17 1226.53C2540.31 1139.79 2769.59 1054.67 3007.75 1097.97C3207 1134.19 3383.89 1277.72 3482.86 1460.96C3582.06 1644.76 3614.25 1857.48 3617.9 2065.07" stroke="url(#paint19_linear_878_2434)" stroke-miterlimit="10"/>
<path d="M194.383 -114.4C153.183 54.2396 138.651 230.31 159.714 402.818C180.772 575.282 239.298 744.08 334.874 886.484C455.623 1066.39 628.266 1202.54 821.259 1291.47C922.25 1337.99 1029.04 1372.13 1139.4 1393.4C1271.03 1418.82 1406.81 1425.78 1542.63 1417.86C1762.14 1405.01 1982.74 1353.21 2187.18 1277.59C2214.77 1267.4 2242.26 1256.77 2269.71 1245.96C2500.81 1154.75 2727.86 1060.26 2966.9 1098.35C3171.41 1130.95 3352.84 1277.17 3454.36 1463.48C3556.06 1650.27 3589.08 1866.87 3594.66 2078.4" stroke="url(#paint20_linear_878_2434)" stroke-miterlimit="10"/>
<path d="M179.369 -106.686C137.747 60.0215 123.626 234.309 144.224 405.059C164.817 575.763 221.726 742.829 314.263 885.395C431.924 1066.67 600.928 1206.92 791.713 1300.36C891.543 1349.24 997.511 1385.77 1107.26 1409.13C1238.2 1437.04 1373.54 1446.07 1508.97 1439.46C1727.82 1428.74 1947.71 1377.15 2150.45 1298.44C2177.8 1287.84 2205.05 1276.73 2232.24 1265.39C2461.3 1169.72 2686.09 1065.74 2926.05 1098.73C3135.81 1127.58 3321.8 1276.61 3425.85 1466C3530.07 1655.79 3563.92 1876.27 3571.43 2091.72" stroke="url(#paint21_linear_878_2434)" stroke-miterlimit="10"/>
<path d="M164.355 -98.9707C122.31 65.8023 108.6 238.309 128.733 407.3C148.861 576.243 204.137 741.583 293.65 884.306C408.202 1066.95 573.588 1211.3 762.166 1309.25C860.835 1360.49 965.979 1399.41 1075.12 1424.86C1205.36 1455.27 1340.28 1466.36 1475.32 1461.07C1693.5 1452.48 1912.68 1401.09 2113.71 1319.29C2140.83 1308.27 2167.83 1296.68 2194.77 1284.82C2421.8 1184.68 2644.27 1071.13 2885.2 1099.11C3100.18 1124.08 3290.75 1276.06 3397.35 1468.52C3504.07 1661.3 3538.75 1885.66 3548.19 2105.04" stroke="url(#paint22_linear_878_2434)" stroke-miterlimit="10"/>
<path d="M149.34 -91.2559C106.873 71.5831 93.5738 242.309 113.242 409.541C132.904 576.723 186.533 740.343 273.037 883.217C384.458 1067.25 546.248 1215.67 732.618 1318.14C830.126 1371.75 934.447 1413.05 1042.99 1440.59C1172.53 1473.5 1307.01 1486.65 1441.67 1482.67C1659.18 1476.22 1877.64 1425.03 2076.98 1340.14C2103.86 1328.7 2130.61 1316.64 2157.3 1304.25C2382.29 1199.64 2602.41 1076.45 2844.35 1099.49C3064.53 1120.47 3259.7 1275.5 3368.84 1471.04C3478.07 1666.81 3513.59 1895.06 3524.95 2118.36" stroke="url(#paint23_linear_878_2434)" stroke-miterlimit="10"/>
<path d="M134.325 -83.543C91.4362 77.363 78.5482 246.307 97.7512 411.781C116.948 577.203 168.912 739.106 252.424 882.127C360.691 1067.54 518.908 1220.05 703.071 1327.03C799.418 1383 902.916 1426.69 1010.85 1456.32C1139.7 1491.72 1273.75 1506.94 1408.02 1504.28C1624.87 1499.95 1842.61 1448.97 2040.25 1360.99C2066.89 1349.14 2093.4 1336.6 2119.83 1323.68C2342.79 1214.6 2560.49 1081.68 2803.5 1099.87C3028.84 1116.74 3228.66 1274.95 3340.34 1473.56C3452.08 1672.32 3488.43 1904.45 3501.72 2131.68" stroke="url(#paint24_linear_878_2434)" stroke-miterlimit="10"/>
<path d="M119.312 -75.8281C76.0007 83.1439 63.5227 250.306 82.2607 414.022C100.993 577.683 151.109 737.967 231.812 881.038C336.683 1067.97 491.569 1224.43 673.525 1335.93C768.711 1394.25 871.386 1440.33 978.715 1472.06C1106.87 1509.95 1240.49 1527.23 1374.37 1525.88C1590.55 1523.69 1807.57 1472.91 2003.52 1381.84C2029.92 1369.57 2056.18 1356.55 2082.36 1343.1C2303.29 1229.56 2518.51 1086.84 2762.65 1100.25C2993.12 1112.91 3197.61 1274.4 3311.83 1476.08C3426.09 1677.84 3463.27 1913.84 3478.48 2145" stroke="url(#paint25_linear_878_2434)" stroke-miterlimit="10"/>
<path d="M104.298 -68.1133C16.847 245.908 56.017 593.287 211.2 879.949C366.383 1166.61 635.833 1389.33 946.578 1487.79C1279.82 1593.38 1652.23 1555.16 1966.79 1402.69C2213.86 1282.93 2447.41 1090.92 2721.8 1100.63C2957.36 1108.97 3166.56 1273.84 3283.33 1478.6C3400.09 1683.35 3438.1 1923.24 3455.25 2158.32" stroke="url(#paint26_linear_878_2434)" stroke-miterlimit="10"/>
</g>
<defs>
<linearGradient id="paint0_linear_878_2434" x1="455.27" y1="771.641" x2="4076.48" y2="771.641" gradientUnits="userSpaceOnUse">
<stop stop-color="#43E29B"/>
<stop offset="1" stop-color="#289062"/>
</linearGradient>
<linearGradient id="paint1_linear_878_2434" x1="440.016" y1="782.158" x2="4051.53" y2="782.158" gradientUnits="userSpaceOnUse">
<stop stop-color="#43E29B"/>
<stop offset="1" stop-color="#289062"/>
</linearGradient>
<linearGradient id="paint2_linear_878_2434" x1="424.758" y1="792.676" x2="4026.66" y2="792.676" gradientUnits="userSpaceOnUse">
<stop stop-color="#43E29B"/>
<stop offset="1" stop-color="#289062"/>
</linearGradient>
<linearGradient id="paint3_linear_878_2434" x1="409.502" y1="803.195" x2="4001.87" y2="803.195" gradientUnits="userSpaceOnUse">
<stop stop-color="#43E29B"/>
<stop offset="1" stop-color="#289062"/>
</linearGradient>
<linearGradient id="paint4_linear_878_2434" x1="394.248" y1="813.713" x2="3977.15" y2="813.713" gradientUnits="userSpaceOnUse">
<stop stop-color="#43E29B"/>
<stop offset="1" stop-color="#289062"/>
</linearGradient>
<linearGradient id="paint5_linear_878_2434" x1="378.99" y1="824.23" x2="3952.52" y2="824.23" gradientUnits="userSpaceOnUse">
<stop stop-color="#43E29B"/>
<stop offset="1" stop-color="#289062"/>
</linearGradient>
<linearGradient id="paint6_linear_878_2434" x1="363.736" y1="834.747" x2="3927.97" y2="834.747" gradientUnits="userSpaceOnUse">
<stop stop-color="#43E29B"/>
<stop offset="1" stop-color="#289062"/>
</linearGradient>
<linearGradient id="paint7_linear_878_2434" x1="348.479" y1="845.266" x2="3903.5" y2="845.266" gradientUnits="userSpaceOnUse">
<stop stop-color="#43E29B"/>
<stop offset="1" stop-color="#289062"/>
</linearGradient>
<linearGradient id="paint8_linear_878_2434" x1="333.221" y1="855.785" x2="3879.11" y2="855.785" gradientUnits="userSpaceOnUse">
<stop stop-color="#43E29B"/>
<stop offset="1" stop-color="#289062"/>
</linearGradient>
<linearGradient id="paint9_linear_878_2434" x1="317.965" y1="866.3" x2="3854.82" y2="866.3" gradientUnits="userSpaceOnUse">
<stop stop-color="#43E29B"/>
<stop offset="1" stop-color="#289062"/>
</linearGradient>
<linearGradient id="paint10_linear_878_2434" x1="302.709" y1="876.819" x2="3830.62" y2="876.819" gradientUnits="userSpaceOnUse">
<stop stop-color="#43E29B"/>
<stop offset="1" stop-color="#289062"/>
</linearGradient>
<linearGradient id="paint11_linear_878_2434" x1="287.451" y1="887.337" x2="3806.51" y2="887.337" gradientUnits="userSpaceOnUse">
<stop stop-color="#43E29B"/>
<stop offset="1" stop-color="#289062"/>
</linearGradient>
<linearGradient id="paint12_linear_878_2434" x1="272.193" y1="897.855" x2="3782.51" y2="897.855" gradientUnits="userSpaceOnUse">
<stop stop-color="#43E29B"/>
<stop offset="1" stop-color="#289062"/>
</linearGradient>
<linearGradient id="paint13_linear_878_2434" x1="256.936" y1="908.373" x2="3758.63" y2="908.373" gradientUnits="userSpaceOnUse">
<stop stop-color="#43E29B"/>
<stop offset="1" stop-color="#289062"/>
</linearGradient>
<linearGradient id="paint14_linear_878_2434" x1="241.676" y1="918.891" x2="3734.85" y2="918.891" gradientUnits="userSpaceOnUse">
<stop stop-color="#43E29B"/>
<stop offset="1" stop-color="#289062"/>
</linearGradient>
<linearGradient id="paint15_linear_878_2434" x1="226.418" y1="929.41" x2="3711.22" y2="929.41" gradientUnits="userSpaceOnUse">
<stop stop-color="#43E29B"/>
<stop offset="1" stop-color="#289062"/>
</linearGradient>
<linearGradient id="paint16_linear_878_2434" x1="211.16" y1="939.925" x2="3687.72" y2="939.925" gradientUnits="userSpaceOnUse">
<stop stop-color="#43E29B"/>
<stop offset="1" stop-color="#289062"/>
</linearGradient>
<linearGradient id="paint17_linear_878_2434" x1="195.9" y1="950.444" x2="3664.37" y2="950.444" gradientUnits="userSpaceOnUse">
<stop stop-color="#43E29B"/>
<stop offset="1" stop-color="#289062"/>
</linearGradient>
<linearGradient id="paint18_linear_878_2434" x1="180.641" y1="960.961" x2="3641.14" y2="960.961" gradientUnits="userSpaceOnUse">
<stop stop-color="#43E29B"/>
<stop offset="1" stop-color="#289062"/>
</linearGradient>
<linearGradient id="paint19_linear_878_2434" x1="165.381" y1="971.479" x2="3617.9" y2="971.479" gradientUnits="userSpaceOnUse">
<stop stop-color="#43E29B"/>
<stop offset="1" stop-color="#289062"/>
</linearGradient>
<linearGradient id="paint20_linear_878_2434" x1="150.121" y1="981.998" x2="3594.66" y2="981.998" gradientUnits="userSpaceOnUse">
<stop stop-color="#43E29B"/>
<stop offset="1" stop-color="#289062"/>
</linearGradient>
<linearGradient id="paint21_linear_878_2434" x1="134.861" y1="992.516" x2="3571.43" y2="992.516" gradientUnits="userSpaceOnUse">
<stop stop-color="#43E29B"/>
<stop offset="1" stop-color="#289062"/>
</linearGradient>
<linearGradient id="paint22_linear_878_2434" x1="119.6" y1="1003.03" x2="3548.19" y2="1003.03" gradientUnits="userSpaceOnUse">
<stop stop-color="#43E29B"/>
<stop offset="1" stop-color="#289062"/>
</linearGradient>
<linearGradient id="paint23_linear_878_2434" x1="104.338" y1="1013.55" x2="3524.95" y2="1013.55" gradientUnits="userSpaceOnUse">
<stop stop-color="#43E29B"/>
<stop offset="1" stop-color="#289062"/>
</linearGradient>
<linearGradient id="paint24_linear_878_2434" x1="89.0762" y1="1024.07" x2="3501.72" y2="1024.07" gradientUnits="userSpaceOnUse">
<stop stop-color="#43E29B"/>
<stop offset="1" stop-color="#289062"/>
</linearGradient>
<linearGradient id="paint25_linear_878_2434" x1="73.8145" y1="1034.59" x2="3478.48" y2="1034.59" gradientUnits="userSpaceOnUse">
<stop stop-color="#43E29B"/>
<stop offset="1" stop-color="#289062"/>
</linearGradient>
<linearGradient id="paint26_linear_878_2434" x1="58.5527" y1="1045.1" x2="3455.25" y2="1045.1" gradientUnits="userSpaceOnUse">
<stop stop-color="#43E29B"/>
<stop offset="1" stop-color="#289062"/>
</linearGradient>
</defs>
</svg>
