<svg width="4500" height="2000" viewBox="0 0 4500 2000" fill="none" xmlns="http://www.w3.org/2000/svg">
<mask id="mask0_878_2665" style="mask-type:luminance" maskUnits="userSpaceOnUse" x="0" y="0" width="4500" height="2000">
<path d="M0.5 0.5H4499.5V1999.5H0.5V0.5Z" fill="white" stroke="white"/>
</mask>
<g mask="url(#mask0_878_2665)">
<path d="M-367.779 244.387C48.4057 452.3 389.805 806.276 582.532 1229.71C659.798 1399.46 721.557 1590.04 871.872 1700.46C1020.3 1809.5 1228.3 1812.16 1399.04 1743.1C1569.78 1674.04 1708.19 1542.76 1824.87 1400.25C1941.54 1257.74 2040.75 1101.46 2159.86 960.981C2267.58 833.924 2405.69 713.826 2571.95 703.472C2756.14 692.001 2916.81 815.89 3072.37 915.18C3549.38 1219.64 4144.5 1333.4 4700.17 1226.34" stroke="url(#paint0_linear_878_2665)" stroke-width="5" stroke-miterlimit="10"/>
<path d="M-371.182 291.436C43.7204 486.133 387.866 823.31 589.722 1229.75C670.649 1392.7 736.713 1575.99 887.182 1683.24C1035.76 1789.15 1241.07 1793.98 1410.64 1730.79C1580.75 1667.83 1719.86 1546.02 1838.69 1411.89C1851.36 1397.6 1863.85 1383.13 1876.19 1368.53C1979.63 1246.15 2073.47 1114 2181.1 991.145C2206.35 962.347 2233.07 933.746 2261.21 906.542C2354.57 816.267 2463.17 741.979 2587.59 729.536C2638.86 724.462 2688.29 729.955 2736.38 742.526C2856.5 773.71 2968.46 848.908 3078.49 912.703C3259.22 1017.59 3457.91 1097.33 3665.36 1150.94C4000.17 1237.46 4357.66 1255.96 4698.29 1199.35" stroke="url(#paint1_linear_878_2665)" stroke-width="4.7841" stroke-miterlimit="10"/>
<path d="M-374.586 338.484C39.0341 519.966 385.927 840.346 596.912 1229.8C681.5 1385.93 751.868 1561.94 902.492 1666.03C1051.21 1768.81 1253.71 1775.43 1422.23 1718.49C1591.59 1661.26 1731.52 1549.29 1852.51 1423.54C1865.41 1410.13 1878.15 1396.55 1890.75 1382.82C1996.34 1267.7 2093.5 1141.53 2202.34 1021.31C2227.91 993.113 2254.8 964.938 2282.93 937.911C2376.14 848.314 2482.18 772.529 2603.23 755.601C2653.08 748.734 2701.17 751.925 2748.07 761.937C2865.34 786.549 2975.61 853.521 3084.6 910.227C3263.58 1003.52 3461.18 1074.44 3667.84 1122.69C4001.38 1200.56 4358.23 1219.49 4696.42 1172.36" stroke="url(#paint2_linear_878_2665)" stroke-width="4.5682" stroke-miterlimit="10"/>
<path d="M-377.99 385.533C34.3468 553.799 383.988 857.382 604.102 1229.84C692.35 1379.16 767.024 1547.89 917.802 1648.81C1066.67 1748.47 1266.44 1757.08 1433.82 1706.18C1602.51 1654.88 1743.18 1552.56 1866.33 1435.18C1879.47 1422.67 1892.45 1409.97 1905.31 1397.1C2013.05 1289.25 2113.53 1169.04 2223.59 1051.47C2249.47 1023.88 2276.53 996.129 2304.64 969.28C2397.7 880.361 2501.19 803.079 2618.87 781.665C2667.3 773.006 2714.03 774.013 2759.77 781.346C2874.14 799.683 2982.76 858.133 3090.71 907.75C3267.93 989.446 3464.44 1051.54 3670.32 1094.43C4002.58 1163.66 4358.8 1183.01 4694.54 1145.37" stroke="url(#paint3_linear_878_2665)" stroke-width="4.3523" stroke-miterlimit="10"/>
<path d="M-381.393 432.582C29.6624 587.633 382.049 874.418 611.292 1229.89C703.201 1372.4 782.18 1533.85 933.112 1631.6C1082.12 1728.12 1279.19 1738.74 1445.41 1693.87C1613.45 1648.52 1754.85 1555.82 1880.16 1446.82C1893.52 1435.21 1906.75 1423.39 1919.87 1411.39C2029.77 1310.8 2133.56 1196.56 2244.83 1081.64C2271.04 1054.65 2298.26 1027.32 2326.36 1000.65C2419.27 912.407 2520.16 833.396 2634.51 807.73C2681.5 797.182 2726.91 796.019 2771.47 800.757C2883 812.616 2989.9 862.747 3096.83 905.274C3272.29 975.377 3467.71 1028.65 3672.8 1066.18C4003.8 1126.76 4359.37 1146.53 4692.66 1118.39" stroke="url(#paint4_linear_878_2665)" stroke-width="4.1364" stroke-miterlimit="10"/>
<path d="M-384.797 479.631C24.9761 621.466 380.111 891.454 618.483 1229.93C714.052 1365.63 797.336 1519.8 948.423 1614.38C1097.57 1707.77 1291.94 1720.41 1457 1681.57C1624.41 1642.17 1766.51 1559.08 1893.98 1458.47C1907.58 1447.74 1921.05 1436.81 1934.43 1425.67C2046.48 1332.34 2153.59 1224.08 2266.07 1111.8C2292.61 1085.41 2320 1058.51 2348.08 1032.02C2440.84 944.455 2539.15 863.902 2650.15 833.795C2695.72 821.436 2739.8 818.024 2783.17 820.168C2891.87 825.543 2997.05 867.361 3102.94 902.798C3276.64 961.307 3470.98 1005.75 3675.28 1037.93C4005.01 1089.85 4359.95 1110.05 4690.78 1091.4" stroke="url(#paint5_linear_878_2665)" stroke-width="3.9204" stroke-miterlimit="10"/>
<path d="M-388.199 526.68C20.2908 655.3 378.173 908.49 625.674 1229.98C724.904 1358.87 812.493 1505.75 963.734 1597.17C1113.03 1687.43 1304.72 1702.11 1468.59 1669.26C1635.37 1635.83 1778.18 1562.35 1907.81 1470.11C1921.63 1460.28 1935.35 1450.23 1948.99 1439.96C2063.19 1353.89 2173.62 1251.6 2287.32 1141.97C2314.17 1116.18 2341.73 1089.7 2369.8 1063.39C2462.41 976.501 2558.13 894.414 2665.79 859.859C2709.93 845.692 2752.69 840.023 2794.86 839.578C2900.74 838.459 3004.2 871.973 3109.05 900.321C3281 947.236 3474.25 982.859 3677.76 1009.67C4006.21 1052.95 4360.52 1073.57 4688.91 1064.41" stroke="url(#paint6_linear_878_2665)" stroke-width="3.7046" stroke-miterlimit="10"/>
<path d="M-391.604 573.729C15.6045 689.134 376.234 925.525 632.865 1230.02C735.755 1352.1 827.648 1491.7 979.044 1579.96C1128.48 1667.09 1317.5 1683.82 1480.19 1656.95C1646.35 1629.52 1789.84 1565.61 1921.63 1481.75C1935.69 1472.82 1949.65 1463.65 1963.55 1454.25C2079.9 1375.44 2193.65 1279.12 2308.56 1172.13C2335.73 1146.94 2363.46 1120.9 2391.52 1094.76C2483.98 1008.55 2577.12 924.936 2681.43 885.926C2724.14 869.955 2765.59 862.021 2806.56 858.991C2909.63 851.367 3011.35 876.589 3115.17 897.848C3285.36 933.169 3477.51 959.968 3680.24 981.426C4007.42 1016.05 4361.09 1037.1 4687.03 1037.42" stroke="url(#paint7_linear_878_2665)" stroke-width="3.4886" stroke-miterlimit="10"/>
<path d="M-395.006 620.777C10.9201 722.966 374.296 942.56 640.055 1230.07C746.606 1345.33 842.805 1477.66 994.355 1562.74C1143.94 1646.74 1330.3 1665.55 1491.78 1644.65C1657.35 1623.22 1801.51 1568.88 1935.45 1493.4C1949.75 1485.35 1963.95 1477.07 1978.11 1468.53C2096.62 1396.99 2213.68 1306.64 2329.81 1202.3C2357.3 1177.71 2385.19 1152.09 2413.24 1126.13C2505.55 1040.6 2596.1 955.464 2697.07 911.989C2738.35 894.217 2778.49 884.009 2818.26 878.4C2918.53 864.256 3018.49 881.201 3121.28 895.37C3289.72 919.098 3480.78 937.073 3682.72 953.172C4008.63 979.152 4361.67 1000.62 4685.15 1010.43" stroke="url(#paint8_linear_878_2665)" stroke-width="3.2727" stroke-miterlimit="10"/>
<path d="M-398.41 667.826C6.23285 756.799 372.357 959.596 647.245 1230.11C757.456 1338.57 857.96 1463.61 1009.66 1545.53C1159.39 1626.4 1343.1 1647.3 1503.37 1632.34C1668.35 1616.94 1813.17 1572.14 1949.28 1505.04C1963.8 1497.89 1978.26 1490.48 1992.67 1482.82C2113.33 1418.54 2233.7 1334.16 2351.05 1232.46C2378.86 1208.48 2406.92 1183.28 2434.95 1157.5C2527.11 1072.64 2615.09 986.002 2712.71 938.054C2752.56 918.484 2791.39 905.991 2829.95 897.81C2927.43 877.129 3025.64 885.814 3127.39 892.893C3294.07 905.027 3484.05 914.178 3685.2 924.918C4009.84 942.25 4362.24 964.142 4683.28 983.444" stroke="url(#paint9_linear_878_2665)" stroke-width="3.0568" stroke-miterlimit="10"/>
<path d="M-401.812 714.875C1.54849 790.633 370.42 976.632 654.437 1230.16C768.309 1331.8 873.117 1449.56 1024.98 1528.31C1174.85 1606.05 1355.91 1629.08 1514.96 1620.03C1679.36 1610.69 1824.83 1575.41 1963.1 1516.68C1977.86 1510.43 1992.56 1503.9 2007.24 1497.1C2130.04 1440.08 2253.73 1361.67 2372.29 1262.63C2400.43 1239.24 2428.65 1214.47 2456.67 1188.86C2548.68 1104.69 2634.07 1016.55 2728.36 964.119C2766.77 942.756 2804.3 927.967 2841.65 917.221C2936.34 889.983 3032.79 890.428 3133.51 890.418C3298.43 890.958 3487.32 891.285 3687.68 896.667C4011.05 905.35 4362.81 927.666 4681.4 956.457" stroke="url(#paint10_linear_878_2665)" stroke-width="2.8409" stroke-miterlimit="10"/>
<path d="M-405.217 761.924C-3.13879 824.467 368.48 993.667 661.626 1230.2C779.159 1325.03 888.272 1435.51 1040.29 1511.1C1190.3 1585.71 1368.72 1610.87 1526.56 1607.73C1690.37 1604.46 1836.5 1578.67 1976.92 1528.33C1991.91 1522.96 2006.86 1517.32 2021.8 1511.39C2146.76 1461.63 2273.76 1389.19 2393.54 1292.79C2421.99 1270.01 2450.39 1245.66 2478.39 1220.23C2570.25 1136.74 2653.06 1047.1 2744 990.184C2780.99 967.03 2817.2 949.934 2853.35 936.632C2945.25 902.817 3039.94 895.041 3139.62 887.942C3302.79 876.889 3490.59 868.392 3690.16 868.415C4012.26 868.45 4363.39 891.19 4679.52 929.469" stroke="url(#paint11_linear_878_2665)" stroke-width="2.625" stroke-miterlimit="10"/>
<path d="M-408.621 808.975C-7.8251 858.302 366.541 1010.7 668.816 1230.25C790.009 1318.27 903.428 1421.47 1055.6 1493.88C1205.75 1565.36 1381.54 1592.7 1538.15 1595.42C1701.38 1598.26 1848.16 1581.94 1990.75 1539.97C2005.96 1535.5 2021.16 1530.74 2036.36 1525.68C2163.47 1483.18 2293.79 1416.71 2414.78 1322.96C2443.56 1300.78 2472.12 1276.86 2500.11 1251.6C2591.82 1168.78 2672.06 1077.67 2759.64 1016.25C2795.2 991.311 2830.1 971.895 2865.05 956.045C2954.14 915.633 3047.08 899.657 3145.73 885.468C3307.14 862.821 3493.85 845.5 3692.64 840.164C4013.47 831.55 4363.96 854.714 4677.65 902.482" stroke="url(#paint12_linear_878_2665)" stroke-width="2.4091" stroke-miterlimit="10"/>
<path d="M-412.023 856.023C-12.5094 892.135 364.604 1027.74 676.008 1230.3C800.862 1311.5 918.585 1407.42 1070.91 1476.67C1221.21 1545.02 1394.36 1574.55 1549.74 1583.12C1712.39 1592.08 1859.83 1585.2 2004.57 1551.61C2020.02 1548.04 2035.46 1544.16 2050.92 1539.96C2180.18 1504.73 2313.82 1444.23 2436.02 1353.12C2465.12 1331.54 2493.85 1308.05 2521.83 1282.97C2613.39 1200.83 2691.06 1108.24 2775.28 1042.32C2809.42 1015.59 2843 993.847 2876.74 975.456C2963.03 928.429 3054.23 904.271 3151.85 882.992C3311.5 848.752 3497.12 822.606 3695.12 811.912C4014.68 794.65 4364.53 818.237 4675.77 875.494" stroke="url(#paint13_linear_878_2665)" stroke-width="2.1932" stroke-miterlimit="10"/>
<path d="M-415.426 903.071C-17.1938 925.967 362.665 1044.78 683.199 1230.34C811.713 1304.74 933.742 1393.37 1086.22 1459.45C1236.66 1524.67 1407.17 1556.42 1561.33 1570.81C1723.4 1585.93 1871.49 1588.47 2018.4 1563.26C2034.08 1560.57 2049.76 1557.58 2065.48 1554.25C2196.89 1526.28 2333.85 1471.75 2457.27 1383.29C2486.69 1362.31 2515.58 1339.24 2543.55 1314.34C2634.96 1232.88 2710.07 1138.82 2790.92 1068.38C2823.64 1039.88 2855.89 1015.79 2888.44 994.864C2971.91 941.207 3061.38 908.882 3157.96 880.514C3315.86 834.68 3500.39 799.711 3697.6 783.657C4015.89 757.746 4365.11 781.757 4673.89 848.504" stroke="url(#paint14_linear_878_2665)" stroke-width="1.9773" stroke-miterlimit="10"/>
<path d="M-418.83 950.121C-21.8811 959.802 360.726 1061.81 690.388 1230.39C822.563 1297.97 948.897 1379.33 1101.53 1442.24C1252.12 1504.33 1419.97 1538.32 1572.92 1558.5C1734.4 1579.81 1883.16 1591.73 2032.22 1574.9C2048.13 1573.11 2064.06 1571 2080.04 1568.54C2213.61 1547.83 2353.88 1499.27 2478.51 1413.45C2508.25 1393.07 2537.31 1370.43 2565.26 1345.71C2656.52 1264.92 2729.08 1169.4 2806.56 1094.44C2837.86 1064.16 2868.77 1037.73 2900.14 1014.27C2980.76 953.975 3068.53 913.495 3164.07 878.038C3320.21 820.61 3503.66 776.817 3700.08 755.405C4017.1 720.846 4365.68 745.28 4672.02 821.516" stroke="url(#paint15_linear_878_2665)" stroke-width="1.7614" stroke-miterlimit="10"/>
<path d="M-422.232 997.169C-26.5654 993.634 358.789 1078.85 697.58 1230.43C833.415 1291.2 964.054 1365.28 1116.84 1425.02C1267.57 1483.98 1432.77 1520.24 1584.52 1546.2C1745.4 1573.71 1894.82 1595 2046.04 1586.54C2062.19 1585.65 2078.37 1584.42 2094.6 1582.82C2230.32 1569.38 2373.91 1526.79 2499.76 1443.62C2529.82 1423.84 2559.05 1401.63 2586.98 1377.08C2678.09 1296.97 2748.11 1199.99 2822.2 1120.51C2852.09 1088.45 2881.65 1059.67 2911.83 1033.69C2989.6 966.736 3075.67 918.109 3170.19 875.562C3324.57 806.54 3506.93 753.924 3702.56 727.153C4018.31 683.945 4366.25 708.803 4670.14 794.528" stroke="url(#paint16_linear_878_2665)" stroke-width="1.5454" stroke-miterlimit="10"/>
<path d="M-425.637 1044.22C-31.2527 1027.47 356.849 1095.88 704.769 1230.48C844.265 1284.44 979.209 1351.23 1132.15 1407.81C1283.02 1463.64 1445.55 1502.19 1596.11 1533.89C1756.37 1567.64 1906.48 1598.26 2059.86 1598.19C2076.24 1598.19 2092.67 1597.84 2109.16 1597.11C2247.03 1590.92 2393.93 1554.31 2521 1473.78C2551.38 1454.61 2580.78 1432.82 2608.7 1408.45C2699.66 1329.02 2767.14 1230.58 2837.84 1146.57C2866.32 1112.74 2894.52 1081.61 2923.53 1053.1C2998.42 979.492 3082.82 922.722 3176.3 873.086C3328.92 792.471 3510.19 731.03 3705.04 698.9C4019.52 647.044 4366.82 672.326 4668.26 767.539" stroke="url(#paint17_linear_878_2665)" stroke-width="1.3296" stroke-miterlimit="10"/>
<path d="M-429.041 1091.27C-35.939 1061.3 354.91 1112.92 711.959 1230.52C855.116 1277.67 994.364 1337.18 1147.46 1390.59C1298.48 1443.29 1458.32 1484.15 1607.7 1521.58C1767.34 1561.58 1918.15 1601.53 2073.69 1609.83C2090.3 1610.72 2106.97 1611.26 2123.72 1611.39C2263.74 1612.47 2413.96 1581.82 2542.24 1503.94C2572.94 1485.37 2602.51 1464.01 2630.42 1439.82C2721.23 1361.06 2786.18 1261.17 2853.48 1172.64C2880.55 1137.03 2907.38 1103.54 2935.23 1072.51C3007.23 992.248 3089.97 927.335 3182.41 870.609C3333.28 778.4 3513.46 708.135 3707.52 670.647C4020.73 610.142 4367.4 635.848 4666.38 740.551" stroke="url(#paint18_linear_878_2665)" stroke-width="1.1136" stroke-miterlimit="10"/>
<path d="M-432.443 1138.32C-40.6234 1095.14 352.973 1129.95 719.151 1230.57C865.968 1270.91 1009.52 1323.14 1162.77 1373.38C1313.93 1422.95 1471.07 1466.13 1619.29 1509.28C1778.28 1555.55 1929.81 1604.79 2087.51 1621.47C2104.35 1623.26 2121.27 1624.68 2138.28 1625.68C2280.45 1634.02 2433.99 1609.34 2563.49 1534.11C2594.51 1516.14 2624.24 1495.2 2652.14 1471.19C2742.79 1393.11 2805.4 1291.88 2869.13 1198.7C2894.86 1161.36 2920.24 1125.48 2946.93 1091.92C3016.02 1005.01 3097.12 931.949 3188.53 868.133C3337.64 764.33 3516.73 685.242 3710 642.395C4021.94 573.241 4367.97 599.371 4664.51 713.563" stroke="url(#paint19_linear_878_2665)" stroke-width="0.8977" stroke-miterlimit="10"/>
<path d="M-435.848 1185.36C-45.3107 1128.97 351.033 1146.99 726.34 1230.61C876.818 1264.14 1024.68 1309.09 1178.08 1356.16C1329.39 1402.6 1483.8 1448.13 1630.89 1496.97C1789.21 1549.54 1941.48 1608.05 2101.33 1633.11C2118.41 1635.79 2135.57 1638.09 2152.84 1639.96C2297.17 1655.57 2454.02 1636.86 2584.73 1564.27C2616.07 1546.9 2645.97 1526.39 2673.85 1502.55C2764.36 1425.16 2824.41 1322.43 2884.77 1224.77C2909.08 1185.63 2933.03 1147.37 2958.62 1111.33C3024.61 1017.64 3104.26 936.56 3194.64 865.655C3341.99 750.259 3520 662.346 3712.48 614.14C4023.14 536.338 4368.54 562.891 4662.63 686.572" stroke="url(#paint20_linear_878_2665)" stroke-width="0.6818" stroke-miterlimit="10"/>
<path d="M-439.25 1232.41C-49.995 1162.8 349.095 1164.02 733.531 1230.66C887.669 1257.37 1039.83 1295.04 1193.39 1338.95C1344.84 1382.26 1496.44 1430.35 1642.48 1484.66C1800.03 1543.76 1953.14 1611.32 2115.16 1644.76C2132.46 1648.33 2149.87 1651.51 2167.4 1654.25C2313.88 1677.11 2474.05 1664.38 2605.97 1594.44C2637.64 1577.67 2667.7 1557.58 2695.57 1533.92C2785.93 1457.2 2843.43 1352.98 2900.41 1250.83C2923.3 1209.91 2945.91 1169.34 2970.32 1130.74C3033.46 1030.48 3111.41 941.175 3200.76 863.181C3346.35 736.191 3523.26 639.454 3714.96 585.89C4024.35 499.439 4369.12 526.416 4660.75 659.586" stroke="url(#paint21_linear_878_2665)" stroke-width="0.4659" stroke-miterlimit="10"/>
<path d="M-442.654 1279.46C254.288 1130.67 995.972 1198.91 1654.07 1472.36C1827.75 1544.53 1997.63 1631.18 2181.96 1668.54C2366.3 1705.9 2573.49 1686.52 2717.29 1565.3C2843.64 1458.79 2900.8 1294.06 2982.02 1150.15C3140.5 869.321 3409.32 652.738 3717.44 557.639C4025.56 462.54 4369.69 489.94 4658.88 632.6" stroke="url(#paint22_linear_878_2665)" stroke-width="0.25" stroke-miterlimit="10"/>
</g>
<defs>
<linearGradient id="paint0_linear_878_2665" x1="-367.779" y1="1017.02" x2="4700.17" y2="1017.02" gradientUnits="userSpaceOnUse">
<stop stop-color="#43E29B"/>
<stop offset="1" stop-color="#289062"/>
</linearGradient>
<linearGradient id="paint1_linear_878_2665" x1="-371.182" y1="1031.7" x2="4698.29" y2="1031.7" gradientUnits="userSpaceOnUse">
<stop stop-color="#43E29B"/>
<stop offset="1" stop-color="#289062"/>
</linearGradient>
<linearGradient id="paint2_linear_878_2665" x1="-374.586" y1="1046.36" x2="4696.42" y2="1046.36" gradientUnits="userSpaceOnUse">
<stop stop-color="#43E29B"/>
<stop offset="1" stop-color="#289062"/>
</linearGradient>
<linearGradient id="paint3_linear_878_2665" x1="-377.99" y1="1061.12" x2="4694.54" y2="1061.12" gradientUnits="userSpaceOnUse">
<stop stop-color="#43E29B"/>
<stop offset="1" stop-color="#289062"/>
</linearGradient>
<linearGradient id="paint4_linear_878_2665" x1="-381.393" y1="1075.96" x2="4692.66" y2="1075.96" gradientUnits="userSpaceOnUse">
<stop stop-color="#43E29B"/>
<stop offset="1" stop-color="#289062"/>
</linearGradient>
<linearGradient id="paint5_linear_878_2665" x1="-384.797" y1="1090.91" x2="4690.78" y2="1090.91" gradientUnits="userSpaceOnUse">
<stop stop-color="#43E29B"/>
<stop offset="1" stop-color="#289062"/>
</linearGradient>
<linearGradient id="paint6_linear_878_2665" x1="-388.199" y1="1105.98" x2="4688.91" y2="1105.98" gradientUnits="userSpaceOnUse">
<stop stop-color="#43E29B"/>
<stop offset="1" stop-color="#289062"/>
</linearGradient>
<linearGradient id="paint7_linear_878_2665" x1="-391.604" y1="1121.2" x2="4687.03" y2="1121.2" gradientUnits="userSpaceOnUse">
<stop stop-color="#43E29B"/>
<stop offset="1" stop-color="#289062"/>
</linearGradient>
<linearGradient id="paint8_linear_878_2665" x1="-395.006" y1="1136.63" x2="4685.15" y2="1136.63" gradientUnits="userSpaceOnUse">
<stop stop-color="#43E29B"/>
<stop offset="1" stop-color="#289062"/>
</linearGradient>
<linearGradient id="paint9_linear_878_2665" x1="-398.41" y1="1152.32" x2="4683.28" y2="1152.32" gradientUnits="userSpaceOnUse">
<stop stop-color="#43E29B"/>
<stop offset="1" stop-color="#289062"/>
</linearGradient>
<linearGradient id="paint10_linear_878_2665" x1="-401.812" y1="1168.38" x2="4681.4" y2="1168.38" gradientUnits="userSpaceOnUse">
<stop stop-color="#43E29B"/>
<stop offset="1" stop-color="#289062"/>
</linearGradient>
<linearGradient id="paint11_linear_878_2665" x1="-405.217" y1="1184.96" x2="4679.52" y2="1184.96" gradientUnits="userSpaceOnUse">
<stop stop-color="#43E29B"/>
<stop offset="1" stop-color="#289062"/>
</linearGradient>
<linearGradient id="paint12_linear_878_2665" x1="-408.621" y1="1202.36" x2="4677.65" y2="1202.36" gradientUnits="userSpaceOnUse">
<stop stop-color="#43E29B"/>
<stop offset="1" stop-color="#289062"/>
</linearGradient>
<linearGradient id="paint13_linear_878_2665" x1="-412.023" y1="1196.54" x2="4675.77" y2="1196.54" gradientUnits="userSpaceOnUse">
<stop stop-color="#43E29B"/>
<stop offset="1" stop-color="#289062"/>
</linearGradient>
<linearGradient id="paint14_linear_878_2665" x1="-415.426" y1="1177.83" x2="4673.89" y2="1177.83" gradientUnits="userSpaceOnUse">
<stop stop-color="#43E29B"/>
<stop offset="1" stop-color="#289062"/>
</linearGradient>
<linearGradient id="paint15_linear_878_2665" x1="-418.83" y1="1161.45" x2="4672.02" y2="1161.45" gradientUnits="userSpaceOnUse">
<stop stop-color="#43E29B"/>
<stop offset="1" stop-color="#289062"/>
</linearGradient>
<linearGradient id="paint16_linear_878_2665" x1="-422.232" y1="1147.38" x2="4670.14" y2="1147.38" gradientUnits="userSpaceOnUse">
<stop stop-color="#43E29B"/>
<stop offset="1" stop-color="#289062"/>
</linearGradient>
<linearGradient id="paint17_linear_878_2665" x1="-425.637" y1="1135.33" x2="4668.26" y2="1135.33" gradientUnits="userSpaceOnUse">
<stop stop-color="#43E29B"/>
<stop offset="1" stop-color="#289062"/>
</linearGradient>
<linearGradient id="paint18_linear_878_2665" x1="-429.041" y1="1124.95" x2="4666.38" y2="1124.95" gradientUnits="userSpaceOnUse">
<stop stop-color="#43E29B"/>
<stop offset="1" stop-color="#289062"/>
</linearGradient>
<linearGradient id="paint19_linear_878_2665" x1="-432.443" y1="1115.81" x2="4664.51" y2="1115.81" gradientUnits="userSpaceOnUse">
<stop stop-color="#43E29B"/>
<stop offset="1" stop-color="#289062"/>
</linearGradient>
<linearGradient id="paint20_linear_878_2665" x1="-435.848" y1="1107.66" x2="4662.63" y2="1107.66" gradientUnits="userSpaceOnUse">
<stop stop-color="#43E29B"/>
<stop offset="1" stop-color="#289062"/>
</linearGradient>
<linearGradient id="paint21_linear_878_2665" x1="-439.25" y1="1100.35" x2="4660.75" y2="1100.35" gradientUnits="userSpaceOnUse">
<stop stop-color="#43E29B"/>
<stop offset="1" stop-color="#289062"/>
</linearGradient>
<linearGradient id="paint22_linear_878_2665" x1="-442.654" y1="1093.74" x2="4658.88" y2="1093.74" gradientUnits="userSpaceOnUse">
<stop stop-color="#43E29B"/>
<stop offset="1" stop-color="#289062"/>
</linearGradient>
</defs>
</svg>
