<svg width="554" height="550" viewBox="0 0 554 550" fill="none" xmlns="http://www.w3.org/2000/svg">
<path d="M296.099 319.098C296.099 319.098 296.1 319.098 296.101 319.098L296.373 319.126L296.594 319.289C302.866 323.915 311.02 326.713 319.432 326.713C340.312 326.713 357.235 309.818 357.235 288.98C357.235 285.743 356.827 282.602 356.059 279.605L356.049 279.566L356.042 279.527C355.308 275.262 353.468 271.371 350.668 267.718L350.652 267.697L350.637 267.676C347.123 262.558 342.379 258.349 336.83 255.472L336.781 255.447L336.736 255.417C326.292 248.458 312.466 242.037 296.977 234.847L296.97 234.844C289.082 231.182 280.774 227.326 272.3 223.109C271.439 222.685 270.585 222.256 269.737 221.823C274.775 228.708 277.749 237.196 277.749 246.375C277.749 269.39 259.059 288.044 236.006 288.044C234.262 288.044 232.542 287.937 230.853 287.729C241.214 293.756 253.914 299.539 267.862 305.888L267.863 305.889C276.344 309.75 285.275 313.815 294.385 318.26M296.099 319.098L294.388 318.262C294.387 318.261 294.386 318.261 294.385 318.26M296.099 319.098C295.53 318.817 294.959 318.538 294.385 318.26M296.099 319.098L294.385 318.26M405.341 115.826L405.397 115.865L405.457 115.895C422.81 124.609 442.625 126.701 461.329 121.143C472.836 117.723 483.264 111.691 491.848 103.646C529.571 150.572 552.138 210.155 552.138 275.001C552.138 426.326 429.241 549.001 277.638 549.001C251.825 549.001 226.845 545.445 203.164 538.797C214.418 540.633 226.471 541.742 239.166 541.742C304.631 541.742 371.793 494.648 371.793 420.401C371.793 410.931 370.3 401.686 367.416 392.779C391.348 385.869 412.427 373.879 427.586 355.501C442.965 336.856 452.185 311.716 452.185 278.835C452.185 242.8 427.587 214.167 398.141 194.458L398.14 194.458L397.971 194.345L397.971 194.345C386.922 186.967 374.641 180.601 363.2 175.774C341.902 166.755 322.542 158.554 308.497 150.027C301.478 145.765 295.847 141.457 291.979 136.973C288.12 132.498 286.056 127.899 286.056 123.019C286.056 113.106 289.805 105.03 297.048 99.4055C304.323 93.7556 315.229 90.5 329.66 90.5C348.424 90.5 366.981 96.5715 381.064 102.798C395.136 109.02 404.662 115.362 405.341 115.826ZM363.934 15.451C351.082 12.766 336.949 11.0438 321.838 11.0438C260.897 11.0438 198.403 55.7447 198.403 126.188C198.403 129.876 198.637 133.528 199.098 137.137C171.22 143.587 146.364 155.846 128.415 175.549C110.261 195.476 99.2515 222.935 99.2515 259.467C99.2515 285.598 111.776 308.043 129.88 326.253C147.98 344.458 171.713 358.492 194.308 367.839L194.876 368.075C217.771 377.583 238.592 386.232 253.697 395.226C261.247 399.721 267.308 404.268 271.473 409.003C275.629 413.728 277.853 418.587 277.853 423.743C277.853 434.201 273.819 442.731 266.014 448.675C258.173 454.646 246.427 458.081 230.899 458.081C210.304 458.081 190.023 451.336 174.852 444.558C167.275 441.172 160.991 437.787 156.603 435.249C154.41 433.98 152.691 432.923 151.523 432.185C150.939 431.816 150.492 431.527 150.192 431.331C150.043 431.232 149.93 431.157 149.855 431.107L149.771 431.051L149.751 431.037L149.746 431.034L149.745 431.034C149.745 431.034 149.745 431.034 149.716 431.076L149.745 431.034L149.695 431L149.643 430.973C132.643 422.184 112.995 420.026 94.7368 425.497C83.0733 428.992 72.5614 435.308 64.0354 443.774C63.1833 444.621 62.3511 445.488 61.5395 446.377C23.8057 399.448 1.23193 339.857 1.23193 275C1.23193 123.676 124.128 1 275.732 1C306.588 1 336.253 6.08138 363.934 15.451ZM260.653 238.77C260.653 258.537 244.598 274.565 224.79 274.565C204.982 274.565 188.927 258.537 188.927 238.77C188.927 219.002 204.982 202.974 224.79 202.974C244.598 202.974 260.653 219.002 260.653 238.77Z" stroke="#43E29B" stroke-width="2"/>
</svg>
