<svg width="2026" height="666" viewBox="0 0 2026 666" fill="none" xmlns="http://www.w3.org/2000/svg">
<path d="M402.937 430.863L386.494 417.165C395.414 411.802 403.6 404.872 410.63 396.416C417.749 387.854 423.111 378.413 426.759 368.53L444.773 383.506C455.619 395.02 456.406 413.084 446.026 425.544C435.246 438.484 416.345 440.671 402.937 430.863Z" fill="#43E29B"/>
<path d="M356.558 310.661C356.96 310.996 357.365 311.327 357.771 311.653C367.403 323.181 367.74 340.294 357.794 352.258C347.467 364.679 329.662 367.216 316.386 358.763L311.316 354.54C311.227 354.465 311.137 354.391 311.047 354.317C310.956 354.241 310.865 354.166 310.773 354.091C300.746 342.562 300.26 325.14 310.344 313.01C320.478 300.821 337.813 298.151 351.003 306.043L356.558 310.661Z" fill="#43E29B"/>
<path d="M257.836 268.737C250.646 277.385 245.248 286.93 241.599 296.921L223.742 282.076C211.883 270.649 210.689 251.829 221.386 238.964C231.441 226.871 248.584 224.149 261.734 231.815C261.863 231.924 261.993 232.032 262.123 232.14L281.515 248.265C272.772 253.589 264.746 260.425 257.836 268.737Z" fill="#43E29B"/>
<path fill-rule="evenodd" clip-rule="evenodd" d="M333 0C149.089 0 0 149.089 0 333C0 516.911 149.089 666 333 666C516.911 666 666 516.911 666 333C666 149.089 516.911 0 333 0ZM478.274 164.277C481.345 166.831 484.214 169.537 486.88 172.375L613.668 279.353C626.729 290.374 628.384 309.896 617.363 322.958C606.342 336.019 586.82 337.673 573.758 326.653L528.381 288.365C527.596 287.822 526.829 287.237 526.083 286.612L506.751 270.407L506.729 270.467L346.977 137.636C333.503 126.433 313.497 128.273 302.294 141.748C292.24 153.839 292.69 171.189 302.625 182.719C302.727 182.803 302.829 182.888 302.931 182.972L384.721 250.98C387.168 252.655 389.559 254.459 391.885 256.393L486.326 334.907C518.333 361.516 528.463 404.68 514.613 441.568L514.585 441.545C510.93 451.364 505.578 460.742 498.492 469.249C483.03 487.809 462 498.995 439.865 502.401C440.801 525.16 433.619 548.328 417.892 567.208C384.244 607.6 324.223 613.068 283.831 579.42L189.467 500.813C187.098 498.839 184.849 496.775 182.721 494.629L51.8667 385.573C38.7147 374.612 36.9386 355.064 47.8997 341.912L48.6337 341.032C59.5948 327.88 79.1423 326.104 92.2943 337.065L231.191 452.823C231.895 453.411 232.568 454.023 233.207 454.657L320.739 527.574C334.203 538.79 354.21 536.967 365.426 523.503C376.207 510.562 374.941 491.575 362.87 480.161L283.23 413.818C280.963 412.244 278.744 410.558 276.582 408.76L182.14 330.246C180.16 328.6 178.264 326.89 176.451 325.123C140.408 290.891 136.639 234.083 168.881 195.306C184.41 176.63 205.576 165.404 227.842 162.045C227.102 139.568 234.279 116.743 249.789 98.0903C283.4 57.6675 343.416 52.1453 383.839 85.7562L478.274 164.277Z" fill="#43E29B"/>
<path d="M956.532 526.971C920.418 526.971 892.387 519.253 872.439 503.818C852.834 488.383 842.688 467.288 842 440.533H888.432C889.12 451.166 894.451 461.285 904.425 470.889C914.743 480.15 932.112 484.781 956.532 484.781C978.544 484.781 995.397 480.493 1007.09 471.918C1018.78 463 1024.63 452.195 1024.63 439.504C1024.63 428.185 1020.33 419.438 1011.73 413.264C1003.14 406.747 989.206 402.459 969.946 400.401L940.023 397.314C913.883 394.57 892.559 386.852 876.05 374.161C859.541 361.127 851.286 342.947 851.286 319.623C851.286 302.129 855.758 287.208 864.7 274.86C873.642 262.169 886.024 252.565 901.845 246.047C917.667 239.187 935.896 235.757 956.532 235.757C987.486 235.757 1012.59 242.617 1031.85 256.338C1051.12 270.058 1061.09 290.467 1061.78 317.565H1015.35C1015 306.588 1009.84 297.327 999.868 289.781C990.238 281.892 975.793 277.947 956.532 277.947C937.271 277.947 922.654 281.892 912.68 289.781C902.705 297.67 897.718 307.617 897.718 319.623C897.718 329.913 901.158 338.145 908.036 344.319C915.259 350.493 926.953 354.438 943.118 356.153L973.041 359.24C1002.62 362.327 1026.35 370.559 1044.24 383.937C1062.12 396.971 1071.06 415.493 1071.06 439.504C1071.06 456.654 1066.08 471.918 1056.1 485.296C1046.47 498.33 1033.06 508.62 1015.86 516.166C998.664 523.369 978.888 526.971 956.532 526.971Z" fill="white"/>
<path d="M1269.76 528C1245.68 528 1224.53 523.884 1206.3 515.652C1188.07 507.42 1172.59 496.615 1159.87 483.237C1147.49 469.517 1138.03 454.253 1131.49 437.446C1125.3 420.639 1122.21 403.488 1122.21 385.995V376.734C1122.21 359.24 1125.47 342.09 1132.01 325.282C1138.54 308.132 1148.17 292.868 1160.9 279.491C1173.63 265.77 1189.1 254.966 1207.33 247.077C1225.56 238.844 1246.37 234.728 1269.76 234.728C1293.15 234.728 1313.95 238.844 1332.18 247.077C1350.41 254.966 1365.89 265.77 1378.61 279.491C1391.34 292.868 1400.97 308.132 1407.51 325.282C1414.04 342.09 1417.31 359.24 1417.31 376.734V385.995C1417.31 403.488 1414.04 420.639 1407.51 437.446C1401.31 454.253 1391.86 469.517 1379.13 483.237C1366.75 496.615 1351.44 507.42 1333.21 515.652C1314.99 523.884 1293.83 528 1269.76 528ZM1269.76 483.752C1290.39 483.752 1307.93 479.293 1322.38 470.375C1337.17 461.113 1348.35 448.765 1355.91 433.33C1363.82 417.894 1367.78 400.573 1367.78 381.364C1367.78 361.813 1363.82 344.319 1355.91 328.884C1348 313.449 1336.65 301.272 1321.86 292.354C1307.42 283.435 1290.05 278.976 1269.76 278.976C1249.81 278.976 1232.44 283.435 1217.65 292.354C1202.86 301.272 1191.51 313.449 1183.6 328.884C1175.69 344.319 1171.73 361.813 1171.73 381.364C1171.73 400.573 1175.52 417.894 1183.08 433.33C1191 448.765 1202.17 461.113 1216.62 470.375C1231.41 479.293 1249.12 483.752 1269.76 483.752Z" fill="white"/>
<path d="M1586.93 526.971C1554.25 526.971 1529.15 516.338 1511.61 495.071C1494.07 473.805 1485.29 443.106 1485.29 402.974V243.475H1534.82V412.749C1534.82 434.359 1540.67 451.338 1552.36 463.686C1564.06 475.691 1579.88 481.694 1599.83 481.694C1620.46 481.694 1637.32 475.177 1650.39 462.142C1663.46 448.765 1669.99 430.586 1669.99 407.604V243.475H1719.52V518.739H1680.31V400.916H1686.5C1686.5 428.013 1682.89 450.995 1675.67 469.86C1668.44 488.383 1657.61 502.617 1643.16 512.565C1629.06 522.169 1611 526.971 1588.99 526.971H1586.93Z" fill="white"/>
<path d="M1818.54 518.739V143.145H1868.06V518.739H1818.54ZM1780.36 182.248V143.145H1868.06V182.248H1780.36Z" fill="white"/>
<path d="M1976.47 518.739V243.989H2026V518.739H1976.47ZM1934.17 283.092V243.989H2026V283.092H1934.17ZM1990.4 199.741C1979.4 199.741 1971.14 196.826 1965.64 190.995C1960.48 185.164 1957.9 177.789 1957.9 168.871C1957.9 159.952 1960.48 152.578 1965.64 146.747C1971.14 140.916 1979.4 138 1990.4 138C2001.41 138 2009.49 140.916 2014.65 146.747C2020.15 152.578 2022.9 159.952 2022.9 168.871C2022.9 177.789 2020.15 185.164 2014.65 190.995C2009.49 196.826 2001.41 199.741 1990.4 199.741Z" fill="#43E29B"/>
</svg>
