<svg width="1422" height="468" viewBox="0 0 1422 468" fill="none" xmlns="http://www.w3.org/2000/svg">
<path d="M233.417 467.056C362.329 467.056 466.833 362.552 466.833 233.639C466.833 178.067 447.412 127.03 414.987 86.9459C407.688 93.9997 398.727 99.2793 388.807 102.233C373.177 106.886 356.361 105.408 341.842 98.1037L341.855 98.0771C340.643 97.2457 309.623 76.1881 277.492 76.1881C252.813 76.1881 239.701 87.3375 239.701 104.638C239.701 122.25 269.532 134.906 305.58 150.199L306.029 150.389C315.68 154.468 325.587 159.656 334.898 165.885L335.057 165.954L335.041 165.981C359.893 182.644 380.454 206.724 380.454 236.893C380.454 292.377 349.412 321.451 308.4 333.034C310.997 340.768 312.342 348.809 312.342 357.053C312.342 419.474 255.96 459.197 200.822 459.197C183.992 459.197 168.498 456.881 154.85 453.503C179.401 462.277 205.85 467.056 233.417 467.056Z" fill="#43E29B"/>
<path d="M51.9081 380.41C52.7932 379.407 53.7091 378.435 54.6543 377.495C61.7803 370.406 70.5654 365.118 80.3122 362.192C95.5608 357.615 111.995 359.169 126.213 366.533L119.55 379.611L126.199 366.781C126.199 366.781 160.194 389.885 195.432 389.885C221.965 389.885 236.06 378.13 236.06 359.89C236.06 341.322 203.99 327.979 165.237 311.856L164.754 311.655C126.613 295.847 84.7413 264.231 84.7413 220.455C84.7413 158.803 121.812 128.08 169.431 117.278C168.977 114.002 168.747 110.684 168.747 107.329C168.747 48.1225 221.192 10.4453 272.479 10.4453C291.242 10.4453 308.219 13.6004 322.595 17.8638C295.119 6.49568 265 0.222656 233.417 0.222656C104.504 0.222656 0 104.727 0 233.639C0 289.247 19.4457 340.314 51.9081 380.41Z" fill="#43E29B"/>
<path d="M232.681 209.343C232.681 200.223 229.145 191.93 223.369 185.759C225.298 186.814 227.272 187.839 229.29 188.835C236.459 192.409 243.49 195.679 250.176 198.788C263.279 204.881 275.06 210.36 283.975 216.311C288.8 218.817 292.926 222.484 295.981 226.942C298.423 230.134 300.048 233.561 300.697 237.337C301.365 239.949 301.72 242.686 301.72 245.506C301.72 263.662 287.001 278.381 268.844 278.381C261.535 278.381 254.784 275.996 249.325 271.962C249.173 271.946 249.021 271.93 248.869 271.914C248.333 271.648 247.795 271.384 247.254 271.122C239.547 267.354 231.989 263.908 224.8 260.629C211.142 254.4 198.819 248.781 189.347 242.726C192.161 243.467 195.115 243.862 198.162 243.862C217.227 243.862 232.681 228.407 232.681 209.343Z" fill="#43E29B"/>
<path d="M219.891 202.887C219.891 220.136 205.908 234.119 188.659 234.119C171.41 234.119 157.427 220.136 157.427 202.887C157.427 185.639 171.41 171.656 188.659 171.656C205.908 171.656 219.891 185.639 219.891 202.887Z" fill="#43E29B"/>
<path d="M653.401 426.275C629.876 426.275 608.929 422.736 590.56 415.659C572.191 408.582 556.562 398.771 543.671 386.225C531.103 373.68 521.435 359.204 514.668 342.799C508.223 326.393 505 308.861 505 290.204V278.623C505 259.322 508.384 241.308 515.151 224.581C522.241 207.853 532.231 193.217 545.121 180.671C558.012 168.126 573.641 158.315 592.01 151.238C610.379 144.161 630.843 140.622 653.401 140.622C676.281 140.622 696.745 144.161 714.791 151.238C733.16 158.315 748.79 168.126 761.68 180.671C774.571 193.217 784.399 207.853 791.167 224.581C798.257 241.308 801.801 259.322 801.801 278.623V290.204C801.801 308.861 798.418 326.393 791.65 342.799C785.205 359.204 775.537 373.68 762.647 386.225C750.079 398.771 734.61 408.582 716.241 415.659C697.873 422.736 676.926 426.275 653.401 426.275ZM653.401 352.931C666.936 352.931 678.054 350.036 686.755 344.246C695.778 338.456 702.545 330.414 707.057 320.12C711.569 309.505 713.825 297.602 713.825 284.413C713.825 270.581 711.408 258.518 706.574 248.224C702.062 237.609 695.295 229.245 686.271 223.133C677.248 217.021 666.291 213.965 653.401 213.965C640.51 213.965 629.554 217.021 620.53 223.133C611.507 229.245 604.578 237.609 599.744 248.224C595.233 258.518 592.977 270.581 592.977 284.413C592.977 297.602 595.233 309.505 599.744 320.12C604.256 330.414 611.024 338.456 620.047 344.246C629.07 350.036 640.188 352.931 653.401 352.931Z" fill="white"/>
<path d="M939.394 425.31C909.101 425.31 885.577 415.498 868.819 395.876C852.384 375.932 844.166 345.533 844.166 304.679V150.272H932.143V307.092C932.143 318.994 935.688 328.645 942.778 336.043C949.867 343.442 959.374 347.141 971.298 347.141C983.221 347.141 992.889 343.442 1000.3 336.043C1007.71 328.645 1011.42 318.672 1011.42 306.127V150.272H1099.4V416.624H1029.79V304.679H1034.62C1034.62 332.022 1031.08 354.701 1023.99 372.715C1017.22 390.407 1007.07 403.596 993.534 412.282C979.999 420.967 963.241 425.31 943.261 425.31H939.394Z" fill="white"/>
<path d="M1168.23 416.624V64.3837H1256.2V416.624H1168.23ZM1138.26 128.077V64.3837H1256.2V128.077H1138.26Z" fill="white"/>
<path d="M1333.65 416.624V150.272H1421.63V416.624H1333.65ZM1299.81 213.965V150.272H1421.63V213.965H1299.81ZM1369.91 129.042C1353.79 129.042 1341.87 125.021 1334.13 116.979C1326.72 108.615 1323.02 97.9994 1323.02 85.1321C1323.02 72.2649 1326.72 61.8102 1334.13 53.7682C1341.87 45.4045 1353.63 41.2227 1369.42 41.2227C1385.54 41.2227 1397.3 45.4045 1404.71 53.7682C1412.12 61.8102 1415.83 72.2649 1415.83 85.1321C1415.83 97.9994 1412.12 108.615 1404.71 116.979C1397.3 125.021 1385.7 129.042 1369.91 129.042Z" fill="#43E29B"/>
</svg>
