<svg xmlns="http://www.w3.org/2000/svg" fill="none" viewBox="0 0 106 36"><path fill="#43E29B" fill-rule="evenodd" d="M17.875 35.75c9.872 0 17.875-8.003 17.875-17.875 0-5.847-2.807-11.038-7.148-14.3l-2.125 4.182s-2.421-1.679-4.931-1.679c-1.89 0-2.895.854-2.895 2.179 0 1.349 2.285 2.318 5.045 3.489l.035.015c.739.312 1.498.71 2.21 1.186l.013.006-.001.002c1.903 1.276 3.477 3.12 3.477 5.43 0 4.249-2.377 6.475-5.517 7.362.198.593.301 1.209.301 1.84 0 4.78-4.317 7.822-8.54 7.822h-.012c-.638 0-1.25-.043-1.833-.119 1.3.301 2.655.46 4.046.46Zm-10.13-3.146 2.21-4.271.003.002.002-.003s2.603 1.77 5.301 1.77c.142 0 .279-.005.411-.014 1.756-.118 2.685-.986 2.685-2.283 0-1.421-2.453-2.443-5.416-3.678l-.037-.015c-2.917-1.21-6.12-3.631-6.12-6.983v-.053c.02-4.688 2.852-7.027 6.486-7.851a5.54 5.54 0 0 1-.052-.762c0-4.534 4.016-7.42 7.944-7.42 1.899 0 3.56.423 4.836.905A17.8 17.8 0 0 0 17.875 0C8.003 0 0 8.003 0 17.875c0 6.11 3.066 11.505 7.744 14.73Zm9.765-12.401c-1.046-.477-1.99-.907-2.714-1.371a2.648 2.648 0 0 0 3.318-2.557c0-.698-.27-1.333-.713-1.806.148.081.299.16.453.236.55.274 1.088.524 1.6.762 1.003.467 1.905.886 2.588 1.342.37.192.686.473.92.814.186.245.31.507.36.796a2.518 2.518 0 0 1-3.934 2.652l-.034-.004-.124-.06a69.92 69.92 0 0 0-1.72-.804Zm-.376-4.422a2.392 2.392 0 1 1-4.783 0 2.392 2.392 0 0 1 4.783 0Z" clip-rule="evenodd"/><path fill="#F1F1F1" d="M49.138 30c-1.726 0-3.263-.26-4.61-.779-1.349-.519-2.495-1.239-3.44-2.16a9.666 9.666 0 0 1-2.129-3.185 10.458 10.458 0 0 1-.71-3.86v-.849c0-1.416.25-2.737.746-3.965a9.767 9.767 0 0 1 2.199-3.221c.945-.92 2.092-1.64 3.44-2.16 1.347-.519 2.849-.778 4.504-.778 1.678 0 3.18.26 4.504.778 1.347.52 2.494 1.24 3.44 2.16a9.331 9.331 0 0 1 2.163 3.221c.52 1.228.78 2.55.78 3.965v.85c0 1.369-.248 2.655-.744 3.859a8.988 8.988 0 0 1-2.128 3.186c-.922.92-2.057 1.64-3.405 2.16-1.348.518-2.884.778-4.61.778Zm0-5.38c.993 0 1.808-.213 2.447-.638a3.916 3.916 0 0 0 1.49-1.77c.33-.779.496-1.652.496-2.62 0-1.015-.178-1.9-.532-2.655-.331-.779-.828-1.392-1.49-1.84-.662-.45-1.466-.673-2.411-.673-.946 0-1.75.224-2.412.672-.662.449-1.17 1.062-1.525 1.841-.331.755-.496 1.64-.496 2.655 0 .968.165 1.841.496 2.62a3.916 3.916 0 0 0 1.49 1.77c.662.425 1.477.637 2.447.637ZM70.12 29.93c-2.223 0-3.948-.72-5.178-2.16-1.206-1.463-1.809-3.694-1.809-6.691V9.751h6.455v11.505c0 .873.26 1.581.78 2.124.52.543 1.218.814 2.093.814.874 0 1.584-.271 2.127-.814.544-.543.816-1.274.816-2.195V9.751h6.455v19.541h-5.107v-8.213h.355c0 2.006-.26 3.67-.78 4.991-.497 1.299-1.242 2.266-2.235 2.903-.993.638-2.222.956-3.688.956h-.284ZM86.909 29.292V3.449h6.454v25.843H86.91Zm-2.2-21.17V3.45h8.654v4.673H84.71Z"/><path fill="#43E29B" d="M99.045 29.292V9.751h6.455v19.541h-6.455Zm-2.482-14.868V9.75h8.937v4.673h-8.937Zm5.142-6.231c-1.182 0-2.057-.295-2.624-.885-.544-.614-.816-1.392-.816-2.336 0-.945.272-1.712.816-2.302.567-.613 1.43-.92 2.589-.92 1.182 0 2.045.307 2.589.92.543.59.815 1.357.815 2.302 0 .944-.272 1.722-.815 2.336-.544.59-1.395.885-2.554.885Z"/></svg>