<svg width="422" height="143" viewBox="0 0 422 143" fill="none" xmlns="http://www.w3.org/2000/svg">
<path fill-rule="evenodd" clip-rule="evenodd" d="M71.5 143C110.988 143 143 110.988 143 71.5C143 48.1116 131.77 27.346 114.408 14.3011L105.909 31.0262C105.909 31.0262 96.2226 24.3134 86.1821 24.3134C78.6222 24.3134 74.606 27.7287 74.606 33.0282C74.606 38.4232 83.7437 42.2998 94.7858 46.9843L94.9233 47.0426C97.8795 48.292 100.914 49.8813 103.766 51.7891L103.815 51.8103L103.81 51.8186C111.423 56.9231 117.721 64.2992 117.721 73.5404C117.721 90.5362 108.212 99.4422 95.6498 102.99C96.4452 105.359 96.8572 107.822 96.8572 110.348C96.8572 129.469 79.5863 141.636 62.6964 141.636L62.6705 141.636L62.6478 141.636C60.0981 141.636 57.6486 141.462 55.3184 141.161C60.518 142.364 65.9347 143 71.5 143ZM30.9778 130.416L39.8205 113.332L39.8318 113.339L39.8379 113.328C39.8379 113.328 50.2512 120.405 61.0455 120.405C61.6135 120.405 62.1628 120.387 62.6933 120.353C69.7142 119.879 73.4274 116.406 73.4274 111.221C73.4274 105.534 63.6171 101.448 51.7623 96.51L51.6146 96.4484C39.9473 91.6069 27.1387 81.9237 27.1387 68.5163L27.1389 68.376C27.1906 49.577 38.5275 40.2012 53.0806 36.8999C52.9417 35.8966 52.8712 34.8801 52.8712 33.8526C52.8712 15.7163 68.936 4.1751 84.6465 4.1751C92.2435 4.1751 98.885 5.86379 103.994 7.79308C94.2445 2.81044 83.2004 0 71.5 0C32.0116 0 0 32.0116 0 71.5C0 95.9433 12.2656 117.522 30.9778 130.416ZM70.0414 80.8112C65.858 78.9034 62.0837 77.1821 59.1822 75.3277C60.044 75.5545 60.9487 75.6754 61.8817 75.6754C67.7216 75.6754 72.4557 70.9413 72.4557 65.1014C72.4557 62.3078 71.3723 59.7672 69.6027 57.8768C70.1936 58.2 70.7984 58.5143 71.4166 58.8194C73.6126 59.914 75.766 60.9155 77.814 61.8679L77.8143 61.868C81.8284 63.7347 85.4375 65.4131 88.1683 67.2361C89.646 68.0036 90.9093 69.1266 91.8452 70.4917C92.5935 71.4695 93.0913 72.5197 93.2902 73.6765C93.4947 74.4766 93.6035 75.3149 93.6035 76.1787C93.6035 81.7405 89.0948 86.2491 83.5331 86.2491C81.2941 86.2491 79.2258 85.5185 77.5536 84.2826C77.5072 84.2779 77.4607 84.273 77.4143 84.268C77.2503 84.1865 77.0853 84.1057 76.9195 84.0254C74.5586 82.8713 72.2434 81.8155 70.0416 80.8113L70.0414 80.8112ZM68.5378 63.1239C68.5378 68.4075 64.2545 72.6908 58.9709 72.6908C53.6872 72.6908 49.404 68.4075 49.404 63.1239C49.404 57.8402 53.6872 53.557 58.9709 53.557C64.2545 53.557 68.5378 57.8402 68.5378 63.1239Z" fill="#43E29B"/>
<path d="M196.551 130C189.647 130 183.5 128.962 178.109 126.885C172.718 124.808 168.132 121.929 164.349 118.247C160.66 114.565 157.823 110.317 155.837 105.503C153.946 100.688 153 95.543 153 90.0677V86.6692C153 81.005 153.993 75.7185 155.979 70.8095C158.06 65.9006 160.991 61.6053 164.774 57.9236C168.557 54.2419 173.144 51.3626 178.535 49.2857C183.925 47.2089 189.931 46.1704 196.551 46.1704C203.265 46.1704 209.271 47.2089 214.567 49.2857C219.957 51.3626 224.544 54.2419 228.327 57.9236C232.11 61.6053 234.994 65.9006 236.98 70.8095C239.061 75.7185 240.101 81.005 240.101 86.6692V90.0677C240.101 95.543 239.108 100.688 237.122 105.503C235.231 110.317 232.394 114.565 228.611 118.247C224.922 121.929 220.383 124.808 214.992 126.885C209.602 128.962 203.455 130 196.551 130ZM196.551 108.476C200.523 108.476 203.786 107.627 206.339 105.927C208.987 104.228 210.973 101.868 212.297 98.8471C213.621 95.7318 214.283 92.2389 214.283 88.3684C214.283 84.3091 213.574 80.769 212.155 77.7481C210.831 74.6328 208.845 72.1784 206.197 70.3847C203.549 68.5911 200.334 67.6942 196.551 67.6942C192.768 67.6942 189.552 68.5911 186.904 70.3847C184.256 72.1784 182.223 74.6328 180.804 77.7481C179.48 80.769 178.818 84.3091 178.818 88.3684C178.818 92.2389 179.48 95.7318 180.804 98.8471C182.128 101.868 184.114 104.228 186.762 105.927C189.41 107.627 192.673 108.476 196.551 108.476Z" fill="white"/>
<path d="M280.48 129.717C271.59 129.717 264.687 126.838 259.769 121.079C254.946 115.226 252.534 106.305 252.534 94.3158V49.0025H278.352V95.0238C278.352 98.5167 279.393 101.349 281.473 103.52C283.554 105.691 286.344 106.777 289.843 106.777C293.342 106.777 296.179 105.691 298.354 103.52C300.53 101.349 301.617 98.4223 301.617 94.7406V49.0025H327.436V127.168H307.008V94.3158H308.426C308.426 102.34 307.386 108.995 305.306 114.282C303.32 119.474 300.34 123.345 296.368 125.893C292.396 128.442 287.479 129.717 281.615 129.717H280.48Z" fill="white"/>
<path d="M347.635 127.168V23.797H373.453V127.168H347.635ZM338.84 42.4887V23.797H373.453V42.4887H338.84Z" fill="white"/>
<path d="M396.182 127.168V49.0025H422V127.168H396.182ZM386.252 67.6942V49.0025H422V67.6942H386.252ZM406.821 42.7719C402.092 42.7719 398.593 41.5919 396.324 39.2318C394.148 36.7774 393.061 33.6621 393.061 29.886C393.061 26.1099 394.148 23.0418 396.324 20.6817C398.593 18.2272 402.045 17 406.679 17C411.408 17 414.86 18.2272 417.035 20.6817C419.21 23.0418 420.298 26.1099 420.298 29.886C420.298 33.6621 419.21 36.7774 417.035 39.2318C414.86 41.5919 411.455 42.7719 406.821 42.7719Z" fill="#43E29B"/>
</svg>
