<svg xmlns="http://www.w3.org/2000/svg" fill="none" viewBox="0 0 106 36"><path fill="#4DFFAF" fill-rule="evenodd" d="M17.875 35.75c9.8721 0 17.875-8.0029 17.875-17.875 0-5.8471-2.8075-11.0385-7.1479-14.2997l-2.1249 4.1812s-2.4215-1.6782-4.9317-1.6782c-1.8899 0-2.894.8539-2.894 2.1787 0 1.3488 2.2844 2.3179 5.0449 3.489l.0344.0146c.7391.3124 1.4978.7097 2.2107 1.1866l.0123.0053-.0012.0021c1.9032 1.2761 3.4777 3.1202 3.4777 5.4305 0 4.2489-2.3772 6.4754-5.5178 7.3624a5.757 5.757 0 0 1 .3018 1.8394c0 4.7802-4.3177 7.8222-8.5402 7.8222h-.0121c-.6376 0-1.2501-.0435-1.8327-.1189 1.3.3008 2.6543.4598 4.0457.4598ZM7.7444 32.6041l2.2107-4.2712.0029.0019.0015-.0029s2.6033 1.7693 5.3019 1.7693c.1416 0 .2785-.0044.4107-.013 1.756-.1181 2.6847-.9866 2.6847-2.2829 0-1.4217-2.4525-2.4433-5.4162-3.6779l-.0369-.0153c-2.9169-1.2104-6.119-3.6312-6.119-6.9831l.0001-.0527c.02-4.688 2.8517-7.0271 6.4854-7.8514a5.539 5.539 0 0 1-.0524-.7618c0-4.534 4.0162-7.4194 7.9438-7.4194 1.8992 0 3.5595.4222 4.8366.9045C23.5609.7026 20.8 0 17.875 0 8.003 0 0 8.003 0 17.875c0 6.1108 3.0664 11.5054 7.7444 14.7291Zm9.766-12.4013-.0001-.0001h-.0001c-1.0458-.4769-1.9893-.9072-2.7146-1.3708a2.648 2.648 0 0 0 .6749.0869c1.46 0 2.6435-1.1835 2.6435-2.6435a2.6343 2.6343 0 0 0-.7132-1.8061c.1477.0808.2988.1594.4534.2356.549.2737 1.0873.5241 1.5994.7622 1.0034.4666 1.9057.8862 2.5883 1.3419.3697.1919.6857.4729.9197.8144.1868.2443.3112.5066.3609.7954.0512.2002.0784.4099.0784.6259 0 1.3905-1.1272 2.5176-2.5176 2.5176a2.506 2.506 0 0 1-1.4948-.4916l-.0349-.0036a12.9268 12.9268 0 0 0-.1237-.0607c-.5902-.2885-1.169-.5525-1.7195-.8035Zm-.3759-4.4219c0 1.3209-1.0709 2.3918-2.3918 2.3918s-2.3917-1.0709-2.3917-2.3918 1.0708-2.3917 2.3917-2.3917c1.3209 0 2.3918 1.0708 2.3918 2.3917Z" clip-rule="evenodd"/><path fill="#fff" d="M49.1376 30c-1.7259 0-3.2627-.2596-4.6104-.7788-1.3477-.5192-2.4944-1.239-3.4401-2.1595-.9221-.9204-1.6314-1.9824-2.1279-3.1861-.4728-1.2036-.7093-2.4898-.7093-3.8587v-.8496c0-1.416.2483-2.7377.7448-3.9649.5201-1.2272 1.2531-2.3011 2.1988-3.2215.9457-.9204 2.0924-1.6402 3.4401-2.1594 1.3476-.5193 2.849-.7789 4.504-.7789 1.6787 0 3.18.2596 4.504.7789 1.3477.5192 2.4944 1.239 3.4401 2.1594.9457.9204 1.6668 1.9943 2.1634 3.2215.5201 1.2272.7802 2.5489.7802 3.9649v.8496c0 1.3689-.2483 2.6551-.7448 3.8587-.4728 1.2037-1.1821 2.2657-2.1279 3.1861-.922.9205-2.0569 1.6403-3.4046 2.1595-1.3476.5192-2.8844.7788-4.6104.7788Zm0-5.3809c.993 0 1.8087-.2124 2.4471-.6372.662-.4249 1.1585-1.0149 1.4895-1.7701.331-.7788.4965-1.652.4965-2.6197 0-1.0148-.1773-1.8998-.532-2.655-.331-.7789-.8275-1.3925-1.4895-1.8409-.662-.4484-1.4659-.6726-2.4116-.6726s-1.7496.2242-2.4116.6726c-.662.4484-1.1703 1.062-1.525 1.8409-.331.7552-.4965 1.6402-.4965 2.655 0 .9677.1655 1.8409.4965 2.6197.331.7552.8275 1.3452 1.4895 1.7701.6621.4248 1.4777.6372 2.4471.6372ZM70.12 29.9292c-2.2225 0-3.9484-.7198-5.1779-2.1594-1.2058-1.4633-1.8087-3.6935-1.8087-6.6908V9.7506h6.4546V21.256c0 .8732.2601 1.5812.7802 2.124.5202.5428 1.2176.8143 2.0924.8143s1.5841-.2715 2.1279-.8143c.5438-.5428.8157-1.2744.8157-2.1948V9.7507h6.4546V29.292h-5.1069v-8.213h.3546c0 2.006-.26 3.6699-.7802 4.9915-.4965 1.298-1.2413 2.2657-2.2343 2.9029-.993.6372-2.2224.9558-3.6883.9558H70.12Zm16.7886-.6372V3.4493h6.4546V29.292h-6.4546ZM84.7098 8.1222v-4.673h8.6534v4.673h-8.6534Z"/><path fill="#4DFFAF" d="M99.0453 29.292V9.7506H105.5V29.292h-6.4547Zm-2.4825-14.8684v-4.673H105.5v4.673h-8.9372Zm5.1422-6.2306c-1.182 0-2.0568-.295-2.6242-.885-.5438-.6136-.8157-1.3925-.8157-2.3365s.2719-1.711.8157-2.301c.5674-.6137 1.4302-.9205 2.5892-.9205 1.182 0 2.045.3068 2.589.9205.543.59.815 1.357.815 2.301 0 .944-.272 1.7229-.815 2.3365-.544.59-1.395.885-2.554.885Z"/></svg>