<svg width="6000" height="4000" viewBox="0 0 6000 4000" fill="none" xmlns="http://www.w3.org/2000/svg">
<mask id="mask0_878_1665" style="mask-type:luminance" maskUnits="userSpaceOnUse" x="0" y="0" width="6000" height="4000">
<path d="M0.5 0.5H5999.5V3999.5H0.5V0.5Z" fill="white" stroke="white"/>
</mask>
<g mask="url(#mask0_878_1665)">
<path d="M-1463.39 1127.68C-829.542 940.137 -106.989 1085.62 404.884 1503.86C656.762 1709.66 855.088 1971.82 1066.42 2219.08C1277.75 2466.33 1511.21 2705.94 1805.24 2845.02C2099.27 2984.1 2466.7 3006.27 2738.73 2827.96C2865.2 2745.07 2962.86 2625.8 3077.51 2527.21C3476.96 2183.75 4097.28 2126.37 4552.96 2390.72C4903.68 2594.18 5173.16 2969.41 5574.75 3025.37C5975.11 3081.15 6334.41 2796.04 6637.85 2528.97" stroke="url(#paint0_linear_878_1665)" stroke-width="2" stroke-miterlimit="10"/>
<path d="M6647.95 2524.78C6345.44 2780.22 5988.98 3055.14 5593.54 3004.23C5196.88 2953.16 4927.77 2597.07 4581.8 2407.91C4195.28 2197.71 3693.73 2217.87 3306.33 2437.75C3242.14 2474.17 3181.15 2516.05 3124.42 2563.3C3009.8 2658.75 2911.44 2773.33 2785.42 2852.35C2514.58 3022.38 2152.16 2997.07 1861.42 2858.34C1566.18 2716.79 1330.79 2476.18 1115.2 2230.44C1094.72 2207.09 1074.33 2183.63 1053.98 2160.12C860.209 1936.24 670.322 1708.4 437.903 1527.47C112.324 1274.01 -292.803 1127.55 -704.811 1102.33C-829.572 1094.69 -955.217 1098.2 -1080.15 1109.89C-1204.01 1121.49 -1327.19 1139.74 -1440.95 1167.85" stroke="url(#paint1_linear_878_1665)" stroke-width="2" stroke-miterlimit="10"/>
<path d="M6658.05 2520.59C6356.47 2764.4 6002.85 3029.13 5612.33 2983.1C5220.6 2936.92 4952.25 2599.18 4610.63 2425.09C4228.98 2230.6 3737.53 2261.8 3352.6 2477.26C3288.8 2512.97 3228.03 2553.69 3171.34 2599.39C3056.75 2691.7 2957.69 2801.6 2832.11 2876.75C2562.47 3038.48 2205.04 3010.04 1917.6 2871.65C1621.15 2727.63 1383.84 2486.02 1163.99 2241.8C1143.09 2218.59 1122.28 2195.3 1101.49 2171.99C903.503 1949.96 707.816 1726.71 470.923 1551.09C139.099 1305.08 -269.827 1166.92 -683.209 1150.46C-808.38 1145.48 -934.466 1151.7 -1060.28 1162.82C-1185.08 1173.85 -1309.67 1186.92 -1418.5 1208.03" stroke="url(#paint2_linear_878_1665)" stroke-width="2" stroke-miterlimit="10"/>
<path d="M6668.15 2516.41C6367.51 2748.57 6016.72 3003.12 5631.12 2961.96C5244.32 2920.68 4976.49 2601.68 4639.47 2442.28C4262.4 2263.94 3781.33 2305.73 3398.87 2516.78C3335.45 2551.76 3274.91 2591.33 3218.25 2635.47C3103.69 2724.65 3003.94 2829.86 2878.79 2901.14C2610.35 3054.59 2257.57 3023.73 1973.78 2884.97C1675.74 2739.23 1436.88 2495.86 1212.77 2253.15C1191.47 2230.09 1170.23 2206.97 1149 2183.85C946.795 1963.69 745.308 1745 503.941 1574.71C165.872 1336.15 -246.853 1206.29 -661.609 1198.6C-787.19 1196.26 -913.716 1205.19 -1040.42 1215.75C-1166.15 1226.2 -1292.14 1234.09 -1396.06 1248.2" stroke="url(#paint3_linear_878_1665)" stroke-width="2" stroke-miterlimit="10"/>
<path d="M6678.25 2512.22C6378.54 2732.75 6030.59 2977.12 5649.91 2940.83C5268.04 2904.43 5000.7 2604.18 4668.31 2459.46C4295.79 2297.28 3825.14 2349.66 3445.13 2556.29C3382.1 2590.55 3321.78 2628.97 3265.16 2671.56C3150.64 2757.6 3050.18 2858.13 2925.48 2925.54C2658.23 3070.7 2310.35 3036.88 2029.96 2898.28C1730.6 2750.3 1489.92 2505.7 1261.55 2264.51C1239.85 2241.59 1218.18 2218.64 1196.51 2195.72C990.087 1977.42 782.8 1763.31 536.959 1598.33C192.644 1367.22 -223.878 1245.66 -640.01 1246.73C-766.001 1247.05 -892.968 1258.69 -1020.57 1268.68C-1147.22 1278.56 -1274.62 1281.27 -1373.62 1288.38" stroke="url(#paint4_linear_878_1665)" stroke-width="2" stroke-miterlimit="10"/>
<path d="M6688.36 2508.04C6389.57 2716.93 6044.45 2951.11 5668.71 2919.69C5291.76 2888.19 5024.87 2606.69 4697.14 2476.65C4329.14 2330.62 3868.94 2393.59 3491.4 2595.81C3428.76 2629.34 3368.66 2666.61 3312.08 2707.64C3197.59 2790.55 3096.43 2886.39 2972.16 2949.93C2706.12 3086.81 2363.14 3050.02 2086.14 2911.59C1785.46 2761.34 1542.97 2515.54 1310.33 2275.87C1288.22 2253.09 1266.14 2230.3 1244.02 2207.58C1033.38 1991.14 820.293 1781.6 569.978 1621.94C219.418 1398.29 -200.903 1285.03 -618.408 1294.86C-744.809 1297.83 -872.217 1312.19 -1000.7 1321.6C-1128.29 1330.92 -1257.09 1328.44 -1351.17 1328.55" stroke="url(#paint5_linear_878_1665)" stroke-width="2" stroke-miterlimit="10"/>
<path d="M6698.46 2503.86C6400.6 2701.11 6058.32 2925.1 5687.5 2898.56C5315.48 2871.95 5049.01 2609.22 4725.98 2493.84C4362.45 2363.99 3912.74 2437.52 3537.67 2635.33C3475.41 2668.14 3415.54 2704.26 3358.99 2743.73C3244.53 2823.5 3142.68 2914.66 3018.85 2974.33C2754 3102.92 2415.94 3063.13 2142.32 2924.91C1840.33 2772.36 1596.01 2525.39 1359.12 2287.23C1336.6 2264.59 1314.09 2241.98 1291.53 2219.45C1076.67 2004.87 857.785 1799.91 602.997 1645.56C246.192 1429.36 -177.927 1324.4 -596.808 1343C-723.619 1348.61 -851.467 1365.69 -980.843 1374.53C-1109.36 1383.28 -1239.57 1375.62 -1328.73 1368.73" stroke="url(#paint6_linear_878_1665)" stroke-width="2" stroke-miterlimit="10"/>
<path d="M6708.56 2499.67C6411.64 2685.28 6072.19 2899.09 5706.29 2877.42C5339.21 2855.7 5073.11 2611.76 4754.82 2511.02C4395.72 2397.36 3956.54 2481.44 3583.94 2674.84C3522.06 2706.93 3462.42 2741.9 3405.9 2779.82C3291.48 2856.45 3188.93 2942.93 3065.54 2998.73C2801.88 3119.03 2468.76 3076.22 2198.5 2938.22C1895.2 2783.36 1649.05 2535.23 1407.9 2298.59C1384.97 2276.1 1362.04 2253.65 1339.04 2231.31C1119.96 2018.6 895.278 1818.21 636.016 1669.18C272.966 1460.43 -154.952 1363.77 -575.207 1391.13C-702.427 1399.4 -830.717 1419.19 -960.982 1427.46C-1090.44 1435.64 -1222.05 1422.79 -1306.29 1408.9" stroke="url(#paint7_linear_878_1665)" stroke-width="2" stroke-miterlimit="10"/>
<path d="M6718.66 2495.49C6422.67 2669.46 6086.06 2873.08 5725.08 2856.29C5362.93 2839.46 5097.17 2614.34 4783.65 2528.21C4428.94 2430.77 4000.35 2525.38 3630.21 2714.36C3568.72 2745.72 3509.3 2779.54 3452.82 2815.9C3338.42 2889.4 3235.17 2971.19 3112.22 3023.12C2849.77 3135.13 2521.58 3089.29 2254.68 2951.54C1950.09 2794.35 1702.1 2545.07 1456.69 2309.95C1433.35 2287.6 1409.99 2265.32 1386.54 2243.18C1163.26 2032.32 932.771 1836.51 669.034 1692.8C299.738 1491.5 -131.978 1403.15 -553.607 1439.27C-681.237 1450.18 -809.967 1472.69 -941.122 1480.39C-1071.51 1488 -1204.52 1469.97 -1283.85 1449.08" stroke="url(#paint8_linear_878_1665)" stroke-width="2" stroke-miterlimit="10"/>
<path d="M6728.77 2491.3C6433.7 2653.64 6099.93 2847.07 5743.87 2835.15C5386.65 2823.21 5121.19 2616.93 4812.49 2545.4C4462.12 2464.2 4044.15 2569.3 3676.48 2753.87C3615.37 2784.51 3556.18 2817.18 3499.73 2851.99C3385.37 2922.35 3281.32 2999.21 3158.91 3047.52C2897.44 3150.7 2574.42 3102.33 2310.86 2964.85C2004.99 2805.31 1755.14 2554.91 1505.47 2321.31C1481.73 2299.1 1457.94 2276.99 1434.05 2255.04C1206.55 2046.05 970.266 1854.81 702.055 1716.42C326.514 1522.57 -109 1442.52 -532.004 1487.4C-660.044 1500.97 -789.215 1526.19 -921.259 1533.31C-1052.58 1540.36 -1187 1517.14 -1261.4 1489.25" stroke="url(#paint9_linear_878_1665)" stroke-width="2" stroke-miterlimit="10"/>
<path d="M6738.87 2487.11C6444.74 2637.81 6113.8 2821.06 5762.67 2814.01C5410.37 2806.97 5145.18 2619.57 4841.33 2562.58C4495.26 2497.68 4087.95 2613.23 3722.74 2793.39C3662.03 2823.3 3603.06 2854.82 3546.64 2888.07C3432.32 2955.3 3327.57 3027.45 3205.6 3071.91C2945.32 3166.77 2627.26 3115.35 2367.04 2978.17C2059.89 2816.25 1808.18 2564.75 1554.25 2332.67C1530.1 2310.6 1505.9 2288.66 1481.56 2266.91C1249.84 2059.78 1007.76 1873.11 735.071 1740.03C353.285 1553.64 -86.0279 1481.89 -510.406 1535.53C-638.856 1551.75 -768.467 1579.69 -901.401 1586.24C-1033.65 1592.72 -1169.47 1564.32 -1238.96 1529.43" stroke="url(#paint10_linear_878_1665)" stroke-width="2" stroke-miterlimit="10"/>
<path d="M6748.97 2482.93C6455.77 2621.99 6127.67 2795.05 5781.46 2792.88C5434.09 2790.73 5169.13 2622.25 4870.16 2579.77C4528.36 2531.2 4131.76 2657.16 3769.01 2832.9C3708.68 2862.1 3649.93 2892.46 3593.56 2924.16C3479.26 2988.26 3373.82 3055.71 3252.28 3096.31C2993.21 3182.85 2680.11 3128.36 2423.22 2991.48C2114.81 2827.17 1861.23 2574.6 1603.03 2344.03C1578.48 2322.1 1553.85 2300.33 1529.07 2278.77C1293.13 2073.5 1045.25 1891.41 768.091 1763.65C380.06 1584.71 -63.0511 1521.26 -488.804 1583.67C-617.664 1602.53 -747.716 1633.19 -881.539 1639.17C-1014.72 1645.08 -1151.95 1611.49 -1216.52 1569.6" stroke="url(#paint11_linear_878_1665)" stroke-width="2" stroke-miterlimit="10"/>
<path d="M6759.07 2478.74C6466.8 2606.17 6141.54 2769.04 5800.25 2771.74C5457.82 2774.48 5193.06 2624.98 4899 2596.95C4561.43 2564.78 4175.56 2701.09 3815.28 2872.42C3755.33 2900.89 3696.81 2930.1 3640.47 2960.25C3526.21 3021.21 3420.07 3083.96 3298.97 3120.7C3041.11 3198.93 2732.98 3141.34 2479.4 3004.8C2169.74 2838.06 1914.27 2584.44 1651.82 2355.38C1626.86 2333.6 1601.8 2311.99 1576.58 2290.63C1336.43 2087.23 1082.74 1909.7 801.111 1787.27C406.834 1615.77 -40.0753 1560.63 -467.202 1631.8C-596.472 1653.32 -726.965 1686.69 -861.677 1692.09C-995.791 1697.43 -1134.42 1658.67 -1194.07 1609.77" stroke="url(#paint12_linear_878_1665)" stroke-width="2" stroke-miterlimit="10"/>
<path d="M6769.17 2474.56C6477.83 2590.34 6155.4 2743.03 5819.04 2750.61C5481.54 2758.24 5216.96 2627.77 4927.84 2614.14C4594.47 2598.42 4219.36 2745.02 3861.55 2911.94C3801.99 2939.68 3743.69 2967.75 3687.38 2996.33C3573.15 3054.16 3466.33 3112.22 3345.65 3145.1C3089 3215.03 2785.85 3154.3 2535.58 3018.11C2224.68 2848.94 1967.31 2594.28 1700.6 2366.74C1675.24 2345.11 1649.75 2323.67 1624.09 2302.5C1379.72 2100.96 1120.24 1928.01 834.129 1810.88C433.607 1646.85 -17.0999 1600 -445.602 1679.93C-575.282 1704.1 -706.215 1740.19 -841.817 1745.02C-976.863 1749.79 -1116.9 1705.84 -1171.63 1649.95" stroke="url(#paint13_linear_878_1665)" stroke-width="2" stroke-miterlimit="10"/>
<path d="M6779.28 2470.37C6488.86 2574.52 6169.27 2717.02 5837.83 2729.47C5505.26 2741.99 5240.84 2630.63 4956.67 2631.33C4627.49 2632.13 4263.16 2788.95 3907.81 2951.45C3848.64 2978.47 3790.57 3005.38 3734.3 3032.42C3620.1 3087.11 3512.58 3140.48 3392.34 3169.49C3136.91 3231.12 2838.74 3167.24 2591.75 3031.43C2279.63 2859.78 2020.36 2604.12 1749.39 2378.1C1723.61 2356.61 1697.7 2335.33 1671.6 2314.36C1423.01 2114.68 1157.73 1946.31 867.147 1834.5C460.38 1677.91 5.87399 1639.37 -424.002 1728.07C-554.092 1754.89 -685.466 1793.69 -821.958 1797.95C-957.937 1802.15 -1099.38 1753.02 -1149.19 1690.12" stroke="url(#paint14_linear_878_1665)" stroke-width="2" stroke-miterlimit="10"/>
<path d="M6789.38 2466.19C6499.9 2558.7 6183.14 2691.01 5856.63 2708.34C5528.98 2725.75 5264.72 2633.55 4985.51 2648.51C4660.5 2665.93 4306.97 2832.88 3954.08 2990.97C3895.29 3017.27 3837.45 3043.03 3781.21 3068.51C3667.04 3120.06 3558.84 3168.75 3439.02 3193.89C3184.81 3247.24 2891.63 3180.17 2647.93 3044.74C2334.59 2870.61 2073.4 2613.97 1798.17 2389.46C1771.99 2368.11 1745.65 2347.01 1719.1 2326.23C1466.3 2128.41 1195.22 1964.61 900.165 1858.12C487.153 1708.99 28.8479 1678.75 -402.402 1776.2C-532.902 1805.67 -664.716 1847.19 -802.097 1850.88C-939.008 1854.51 -1081.85 1800.19 -1126.75 1730.3" stroke="url(#paint15_linear_878_1665)" stroke-width="2" stroke-miterlimit="10"/>
<path d="M6799.48 2462C6510.93 2542.87 6197.01 2665 5875.42 2687.2C5552.7 2709.5 5288.6 2636.54 5014.35 2665.7C4693.52 2699.8 4350.77 2876.81 4000.35 3030.48C3941.95 3056.06 3884.33 3080.67 3828.12 3104.59C3713.99 3153.01 3605.09 3197.01 3485.71 3218.28C3232.71 3263.35 2944.54 3193.08 2704.11 3058.06C2389.57 2881.41 2126.44 2623.81 1846.95 2400.82C1820.36 2379.61 1793.61 2358.67 1766.61 2338.09C1509.6 2142.14 1232.71 1982.91 933.185 1881.74C513.927 1740.05 51.8248 1718.11 -380.8 1824.33C-511.709 1856.45 -643.965 1900.69 -782.236 1903.8C-920.079 1906.87 -1064.33 1847.37 -1104.3 1770.47" stroke="url(#paint16_linear_878_1665)" stroke-width="2" stroke-miterlimit="10"/>
<path d="M6809.58 2457.82C6521.96 2527.05 6210.88 2638.99 5894.21 2666.07C5576.42 2693.26 5312.49 2639.61 5043.18 2682.89C4726.55 2733.77 4394.57 2920.74 4046.62 3070C3988.6 3094.85 3931.2 3118.31 3875.04 3140.68C3760.94 3185.96 3651.35 3225.29 3532.4 3242.68C3280.62 3279.48 2997.45 3205.97 2760.29 3071.37C2444.57 2892.19 2179.49 2633.65 1895.73 2412.18C1868.74 2391.11 1841.56 2370.34 1814.12 2349.96C1552.89 2155.86 1270.2 2001.21 966.204 1905.35C540.7 1771.12 74.7987 1757.49 -359.2 1872.47C-490.519 1907.24 -623.215 1954.19 -762.376 1956.73C-901.151 1959.23 -1046.8 1894.54 -1081.86 1810.65" stroke="url(#paint17_linear_878_1665)" stroke-width="2" stroke-miterlimit="10"/>
<path d="M6819.68 2453.63C6532.99 2511.23 6224.75 2612.98 5913 2644.93C5600.14 2677.02 5336.41 2642.74 5072.02 2700.07C4759.62 2767.81 4438.37 2964.67 4092.89 3109.51C4035.25 3133.64 3978.08 3155.95 3921.95 3176.77C3807.88 3218.91 3697.61 3253.57 3579.08 3267.07C3328.53 3295.62 3050.38 3218.84 2816.47 3084.69C2499.58 2902.94 2232.53 2643.49 1944.52 2423.54C1917.12 2402.61 1889.51 2382.01 1861.63 2361.83C1596.18 2169.59 1307.7 2019.51 999.222 1928.97C567.474 1802.19 97.774 1796.86 -337.6 1920.6C-469.329 1958.02 -602.466 2007.69 -742.516 2009.66C-882.224 2011.59 -1029.28 1941.72 -1059.42 1850.82" stroke="url(#paint18_linear_878_1665)" stroke-width="2" stroke-miterlimit="10"/>
<path d="M6829.79 2449.45C6544.03 2495.41 6238.62 2586.98 5931.79 2623.8C5623.86 2660.77 5360.37 2645.94 5100.86 2717.26C4792.73 2801.94 4482.18 3008.6 4139.15 3149.03C4081.91 3172.44 4024.96 3193.59 3968.86 3212.85C3854.83 3251.87 3743.87 3281.86 3625.77 3291.47C3376.43 3311.77 3103.32 3231.7 2872.65 3098C2554.6 2913.66 2285.57 2653.34 1993.3 2434.9C1965.49 2414.12 1937.46 2393.69 1909.14 2373.69C1639.47 2183.32 1345.19 2037.81 1032.24 1952.59C594.248 1833.26 120.75 1836.23 -315.999 1968.74C-448.138 2008.81 -581.716 2061.19 -722.655 2062.58C-863.295 2063.95 -1011.76 1988.89 -1036.98 1891" stroke="url(#paint19_linear_878_1665)" stroke-width="2" stroke-miterlimit="10"/>
<path d="M6839.89 2445.26C6555.06 2479.58 6252.48 2560.96 5950.59 2602.66C5647.59 2644.53 5384.38 2649.19 5129.69 2734.44C4825.89 2836.13 4525.98 3052.52 4185.42 3188.54C4128.56 3211.23 4071.84 3231.23 4015.77 3248.94C3901.77 3284.81 3790.12 3310.14 3672.45 3315.86C3424.34 3327.93 3156.26 3244.54 2928.83 3111.32C2609.64 2924.36 2338.61 2663.17 2042.08 2446.25C2013.87 2425.62 1985.41 2405.35 1956.64 2385.55C1682.76 2197.04 1382.68 2056.11 1065.26 1976.21C621.019 1864.33 143.723 1875.6 -294.4 2016.87C-426.949 2059.59 -560.967 2114.69 -702.796 2115.51C-844.368 2116.3 -994.233 2036.07 -1014.54 1931.17" stroke="url(#paint20_linear_878_1665)" stroke-width="2" stroke-miterlimit="10"/>
<path d="M6849.99 2441.08C6566.09 2463.76 6266.35 2534.96 5969.38 2581.53C5671.31 2628.29 5408.45 2652.5 5158.53 2751.63C4859.13 2870.38 4569.78 3096.45 4231.69 3228.06C4175.21 3250.02 4118.72 3268.87 4062.69 3285.02C3948.72 3317.77 3836.38 3338.65 3719.14 3340.26C3472.24 3344.54 3209.22 3257.36 2985.01 3124.63C2664.71 2935.02 2391.66 2673.02 2090.87 2457.61C2062.24 2437.12 2033.36 2417.02 2004.15 2397.42C1726.06 2210.77 1420.17 2074.41 1098.28 1999.82C647.794 1895.4 166.7 1914.97 -272.797 2065C-405.756 2110.38 -540.215 2168.19 -682.933 2168.44C-825.437 2168.67 -976.706 2083.24 -992.09 1971.34" stroke="url(#paint21_linear_878_1665)" stroke-width="2" stroke-miterlimit="10"/>
<path d="M6860.09 2436.89C6577.12 2447.94 6280.22 2508.95 5988.17 2560.39C5695.03 2612.04 5432.58 2655.84 5187.37 2768.82C4892.45 2904.69 4613.59 3140.38 4277.96 3267.57C4221.87 3288.81 4165.6 3306.51 4109.6 3321.11C3995.67 3350.72 3882.63 3366.92 3765.83 3364.65C3520.13 3360.65 3262.19 3270.17 3041.19 3137.94C2719.79 2945.66 2444.7 2682.86 2139.65 2468.97C2110.62 2448.62 2081.32 2428.69 2051.66 2409.28C1769.35 2224.49 1457.67 2092.71 1131.3 2023.44C674.568 1926.47 189.675 1954.34 -251.197 2113.13C-384.566 2161.16 -519.465 2221.69 -663.073 2221.36C-806.51 2221.02 -959.182 2130.41 -969.648 2011.52" stroke="url(#paint22_linear_878_1665)" stroke-width="2" stroke-miterlimit="10"/>
<path d="M6870.19 2432.71C6588.16 2432.11 6294.09 2482.94 6006.96 2539.26C5718.75 2595.8 5456.78 2659.21 5216.2 2786C4925.85 2939.03 4657.39 3184.31 4324.23 3307.09C4268.52 3327.6 4212.48 3344.16 4156.52 3357.2C4042.61 3383.67 3928.88 3395.18 3812.51 3389.05C3568.01 3376.76 3315.17 3282.96 3097.37 3151.26C2774.9 2956.27 2497.75 2692.7 2188.43 2480.33C2159 2460.12 2129.27 2440.36 2099.17 2421.15C1812.64 2238.22 1495.16 2111.01 1164.32 2047.06C701.342 1957.54 212.651 1993.71 -229.596 2161.27C-363.375 2211.94 -498.715 2275.19 -643.212 2274.29C-787.581 2273.38 -941.658 2177.59 -947.205 2051.69" stroke="url(#paint23_linear_878_1665)" stroke-width="2" stroke-miterlimit="10"/>
<path d="M6880.3 2428.52C6599.19 2416.29 6307.96 2456.93 6025.75 2518.12C5742.47 2579.55 5481.05 2662.59 5245.04 2803.19C4959.33 2973.39 4701.19 3228.24 4370.5 3346.61C4315.17 3366.4 4259.36 3381.8 4203.43 3393.28C4089.56 3416.62 3975.12 3423.45 3859.2 3413.45C3615.89 3392.86 3368.42 3295.32 3153.55 3164.57C2830.4 2966.22 2550.79 2702.54 2237.22 2491.69C2207.37 2471.62 2177.22 2452.03 2146.68 2433.01C1855.93 2251.95 1532.65 2129.31 1197.33 2070.67C728.113 1988.61 235.624 2033.08 -207.997 2209.4C-342.185 2262.73 -477.966 2328.69 -623.353 2327.22C-768.654 2325.74 -924.135 2224.77 -924.763 2091.87" stroke="url(#paint24_linear_878_1665)" stroke-width="2" stroke-miterlimit="10"/>
<path d="M6890.4 2424.34C6610.22 2400.47 6321.83 2430.92 6044.55 2496.98C5766.19 2563.31 5505.39 2665.98 5273.88 2820.37C4992.89 3007.76 4744.99 3272.17 4416.76 3386.12C4361.83 3405.19 4306.23 3419.44 4250.34 3429.37C4136.5 3449.57 4021.37 3451.71 3905.88 3437.84C3663.78 3408.97 3421.3 3308.29 3209.73 3177.89C2885.37 2977.07 2603.83 2712.39 2286 2503.05C2255.75 2483.13 2225.17 2463.7 2194.19 2444.88C1899.22 2265.68 1570.14 2147.61 1230.35 2094.29C754.887 2019.68 258.599 2072.46 -186.396 2257.54C-320.994 2313.51 -457.216 2382.19 -603.492 2380.15C-749.725 2378.1 -906.611 2271.94 -902.32 2132.04" stroke="url(#paint25_linear_878_1665)" stroke-width="2" stroke-miterlimit="10"/>
<path d="M6900.5 2420.15C6340.92 2349 5755.99 2501.8 5302.71 2837.56C5026.54 3042.13 4788.8 3316.1 4463.03 3425.64C4064.59 3559.61 3622.46 3413.85 3265.9 3191.2C2909.35 2968.56 2603.3 2671.09 2241.7 2456.74C1523.89 2031.26 600.584 1973.29 -164.795 2305.67C-299.803 2364.3 -436.466 2435.69 -583.631 2433.07C-730.796 2430.46 -889.086 2319.11 -879.877 2172.21" stroke="url(#paint26_linear_878_1665)" stroke-width="2" stroke-miterlimit="10"/>
</g>
<defs>
<linearGradient id="paint0_linear_878_1665" x1="-1463.39" y1="2039.75" x2="6637.85" y2="2039.75" gradientUnits="userSpaceOnUse">
<stop stop-color="#43E29B"/>
<stop offset="1" stop-color="#289062"/>
</linearGradient>
<linearGradient id="paint1_linear_878_1665" x1="-1440.95" y1="2054.32" x2="6647.95" y2="2054.32" gradientUnits="userSpaceOnUse">
<stop stop-color="#43E29B"/>
<stop offset="1" stop-color="#289062"/>
</linearGradient>
<linearGradient id="paint2_linear_878_1665" x1="-1418.5" y1="2068.54" x2="6658.05" y2="2068.54" gradientUnits="userSpaceOnUse">
<stop stop-color="#43E29B"/>
<stop offset="1" stop-color="#289062"/>
</linearGradient>
<linearGradient id="paint3_linear_878_1665" x1="-1396.06" y1="2100.78" x2="6668.15" y2="2100.78" gradientUnits="userSpaceOnUse">
<stop stop-color="#43E29B"/>
<stop offset="1" stop-color="#289062"/>
</linearGradient>
<linearGradient id="paint4_linear_878_1665" x1="-1373.62" y1="2133.13" x2="6678.25" y2="2133.13" gradientUnits="userSpaceOnUse">
<stop stop-color="#43E29B"/>
<stop offset="1" stop-color="#289062"/>
</linearGradient>
<linearGradient id="paint5_linear_878_1665" x1="-1351.17" y1="2165.09" x2="6688.36" y2="2165.09" gradientUnits="userSpaceOnUse">
<stop stop-color="#43E29B"/>
<stop offset="1" stop-color="#289062"/>
</linearGradient>
<linearGradient id="paint6_linear_878_1665" x1="-1328.73" y1="2196.66" x2="6698.46" y2="2196.66" gradientUnits="userSpaceOnUse">
<stop stop-color="#43E29B"/>
<stop offset="1" stop-color="#289062"/>
</linearGradient>
<linearGradient id="paint7_linear_878_1665" x1="-1306.29" y1="2227.87" x2="6708.56" y2="2227.87" gradientUnits="userSpaceOnUse">
<stop stop-color="#43E29B"/>
<stop offset="1" stop-color="#289062"/>
</linearGradient>
<linearGradient id="paint8_linear_878_1665" x1="-1283.85" y1="2258.72" x2="6718.66" y2="2258.72" gradientUnits="userSpaceOnUse">
<stop stop-color="#43E29B"/>
<stop offset="1" stop-color="#289062"/>
</linearGradient>
<linearGradient id="paint9_linear_878_1665" x1="-1261.4" y1="2289.11" x2="6728.77" y2="2289.11" gradientUnits="userSpaceOnUse">
<stop stop-color="#43E29B"/>
<stop offset="1" stop-color="#289062"/>
</linearGradient>
<linearGradient id="paint10_linear_878_1665" x1="-1238.96" y1="2319.28" x2="6738.87" y2="2319.28" gradientUnits="userSpaceOnUse">
<stop stop-color="#43E29B"/>
<stop offset="1" stop-color="#289062"/>
</linearGradient>
<linearGradient id="paint11_linear_878_1665" x1="-1216.52" y1="2349.16" x2="6748.97" y2="2349.16" gradientUnits="userSpaceOnUse">
<stop stop-color="#43E29B"/>
<stop offset="1" stop-color="#289062"/>
</linearGradient>
<linearGradient id="paint12_linear_878_1665" x1="-1194.07" y1="2378.75" x2="6759.07" y2="2378.75" gradientUnits="userSpaceOnUse">
<stop stop-color="#43E29B"/>
<stop offset="1" stop-color="#289062"/>
</linearGradient>
<linearGradient id="paint13_linear_878_1665" x1="-1171.63" y1="2408.08" x2="6769.17" y2="2408.08" gradientUnits="userSpaceOnUse">
<stop stop-color="#43E29B"/>
<stop offset="1" stop-color="#289062"/>
</linearGradient>
<linearGradient id="paint14_linear_878_1665" x1="-1149.19" y1="2437.18" x2="6779.28" y2="2437.18" gradientUnits="userSpaceOnUse">
<stop stop-color="#43E29B"/>
<stop offset="1" stop-color="#289062"/>
</linearGradient>
<linearGradient id="paint15_linear_878_1665" x1="-1126.75" y1="2466.07" x2="6789.38" y2="2466.07" gradientUnits="userSpaceOnUse">
<stop stop-color="#43E29B"/>
<stop offset="1" stop-color="#289062"/>
</linearGradient>
<linearGradient id="paint16_linear_878_1665" x1="-1104.3" y1="2494.79" x2="6799.48" y2="2494.79" gradientUnits="userSpaceOnUse">
<stop stop-color="#43E29B"/>
<stop offset="1" stop-color="#289062"/>
</linearGradient>
<linearGradient id="paint17_linear_878_1665" x1="-1081.86" y1="2523.39" x2="6809.58" y2="2523.39" gradientUnits="userSpaceOnUse">
<stop stop-color="#43E29B"/>
<stop offset="1" stop-color="#289062"/>
</linearGradient>
<linearGradient id="paint18_linear_878_1665" x1="-1059.42" y1="2551.89" x2="6819.68" y2="2551.89" gradientUnits="userSpaceOnUse">
<stop stop-color="#43E29B"/>
<stop offset="1" stop-color="#289062"/>
</linearGradient>
<linearGradient id="paint19_linear_878_1665" x1="-1036.98" y1="2580.34" x2="6829.79" y2="2580.34" gradientUnits="userSpaceOnUse">
<stop stop-color="#43E29B"/>
<stop offset="1" stop-color="#289062"/>
</linearGradient>
<linearGradient id="paint20_linear_878_1665" x1="-1014.54" y1="2608.81" x2="6839.89" y2="2608.81" gradientUnits="userSpaceOnUse">
<stop stop-color="#43E29B"/>
<stop offset="1" stop-color="#289062"/>
</linearGradient>
<linearGradient id="paint21_linear_878_1665" x1="-992.09" y1="2637.38" x2="6849.99" y2="2637.38" gradientUnits="userSpaceOnUse">
<stop stop-color="#43E29B"/>
<stop offset="1" stop-color="#289062"/>
</linearGradient>
<linearGradient id="paint22_linear_878_1665" x1="-969.648" y1="2666.08" x2="6860.09" y2="2666.08" gradientUnits="userSpaceOnUse">
<stop stop-color="#43E29B"/>
<stop offset="1" stop-color="#289062"/>
</linearGradient>
<linearGradient id="paint23_linear_878_1665" x1="-947.205" y1="2695.08" x2="6870.19" y2="2695.08" gradientUnits="userSpaceOnUse">
<stop stop-color="#43E29B"/>
<stop offset="1" stop-color="#289062"/>
</linearGradient>
<linearGradient id="paint24_linear_878_1665" x1="-924.763" y1="2724.42" x2="6880.3" y2="2724.42" gradientUnits="userSpaceOnUse">
<stop stop-color="#43E29B"/>
<stop offset="1" stop-color="#289062"/>
</linearGradient>
<linearGradient id="paint25_linear_878_1665" x1="-902.406" y1="2754.17" x2="6890.4" y2="2754.17" gradientUnits="userSpaceOnUse">
<stop stop-color="#43E29B"/>
<stop offset="1" stop-color="#289062"/>
</linearGradient>
<linearGradient id="paint26_linear_878_1665" x1="-880.261" y1="2784.3" x2="6900.5" y2="2784.3" gradientUnits="userSpaceOnUse">
<stop stop-color="#43E29B"/>
<stop offset="1" stop-color="#289062"/>
</linearGradient>
</defs>
</svg>
