<svg width="5145" height="1551" viewBox="0 0 5145 1551" fill="none" xmlns="http://www.w3.org/2000/svg">
<path d="M75.875 3C492.06 210.913 833.459 564.889 1026.19 988.319C1103.45 1158.08 1165.21 1348.65 1315.53 1459.07C1463.96 1568.11 1671.96 1570.78 1842.7 1501.71C2013.44 1432.65 2151.85 1301.37 2268.52 1158.86C2385.2 1016.36 2484.4 860.076 2603.51 719.594C2711.24 592.537 2849.34 472.439 3015.6 462.085C3199.79 450.614 3360.47 574.503 3516.03 673.793C3993.03 978.251 4588.15 1092.01 5143.82 984.953" stroke="url(#paint0_linear_877_1181)" stroke-width="5" stroke-miterlimit="10"/>
<path d="M72.4719 50.0488C487.374 244.746 831.52 581.924 1033.38 988.364C1114.3 1151.31 1180.37 1334.6 1330.84 1441.86C1479.41 1547.77 1684.72 1552.59 1854.29 1489.41C2024.4 1426.45 2163.51 1304.64 2282.34 1170.51C2295.01 1156.21 2307.5 1141.74 2319.84 1127.14C2423.29 1004.76 2517.13 872.618 2624.76 749.758C2650 720.96 2676.72 692.359 2704.86 665.155C2798.23 574.88 2906.83 500.592 3031.24 488.149C3082.51 483.075 3131.94 488.568 3180.03 501.139C3300.15 532.323 3412.12 607.521 3522.14 671.316C3702.87 776.2 3901.56 855.942 4109.02 909.552C4443.82 996.072 4801.31 1014.57 5141.95 957.964" stroke="url(#paint1_linear_877_1181)" stroke-width="4.7841" stroke-miterlimit="10"/>
<path d="M69.0679 97.0981C482.688 278.58 829.581 598.96 1040.57 988.41C1125.15 1144.55 1195.52 1320.55 1346.15 1424.64C1494.87 1527.42 1697.37 1534.04 1865.88 1477.1C2035.24 1419.87 2175.17 1307.9 2296.17 1182.15C2309.07 1168.75 2321.8 1155.16 2334.4 1141.43C2440 1026.31 2537.16 900.139 2646 779.924C2671.57 751.727 2698.45 723.552 2726.58 696.525C2819.79 606.928 2925.84 531.143 3046.88 514.215C3096.74 507.348 3144.82 510.539 3191.73 520.551C3309 545.163 3419.26 612.135 3528.25 668.841C3707.23 762.131 3904.83 833.049 4111.5 881.301C4445.03 959.173 4801.88 978.099 5140.07 930.977" stroke="url(#paint2_linear_877_1181)" stroke-width="4.5682" stroke-miterlimit="10"/>
<path d="M65.665 144.147C478.002 312.413 827.643 615.996 1047.76 988.455C1136.01 1137.78 1210.68 1306.51 1361.46 1407.43C1510.32 1507.08 1710.1 1515.69 1877.47 1464.79C2046.17 1413.5 2186.84 1311.17 2309.99 1193.79C2323.12 1181.28 2336.1 1168.58 2348.96 1155.72C2456.71 1047.86 2557.18 927.656 2667.24 810.088C2693.13 782.493 2720.19 754.743 2748.3 727.894C2841.36 638.975 2944.85 561.693 3062.52 540.279C3110.96 531.62 3157.68 532.627 3203.43 539.96C3317.8 558.297 3426.41 616.747 3534.37 666.364C3711.59 748.06 3908.1 810.155 4113.98 853.047C4446.24 922.27 4802.46 941.62 5138.19 903.987" stroke="url(#paint3_linear_877_1181)" stroke-width="4.3523" stroke-miterlimit="10"/>
<path d="M62.262 191.195C473.317 346.246 825.704 633.031 1054.95 988.5C1146.86 1131.01 1225.83 1292.46 1376.77 1390.21C1525.77 1486.73 1722.84 1497.35 1889.06 1452.49C2057.1 1407.13 2198.5 1314.43 2323.81 1205.44C2337.18 1193.82 2350.4 1182 2363.52 1170C2473.42 1069.41 2577.21 955.175 2688.49 840.252C2714.7 813.258 2741.92 785.934 2770.02 759.262C2862.93 671.02 2963.81 592.009 3078.16 566.343C3125.16 555.795 3170.57 554.632 3215.12 559.37C3326.65 571.229 3433.56 621.36 3540.48 663.887C3715.94 733.99 3911.37 787.26 4116.46 824.794C4447.45 885.368 4803.03 905.142 5136.32 876.998" stroke="url(#paint4_linear_877_1181)" stroke-width="4.1364" stroke-miterlimit="10"/>
<path d="M58.8579 238.244C468.631 380.079 823.766 650.067 1062.14 988.545C1157.71 1124.25 1240.99 1278.41 1392.08 1373C1541.23 1466.39 1735.6 1479.03 1900.66 1440.18C2068.06 1400.78 2210.17 1317.7 2337.64 1217.08C2351.23 1206.36 2364.7 1195.42 2378.09 1184.29C2490.13 1090.96 2597.24 982.693 2709.73 870.417C2736.26 844.025 2763.65 817.127 2791.73 790.632C2884.5 703.068 2982.8 622.515 3093.8 592.408C3139.37 580.049 3183.45 576.637 3226.82 578.781C3335.52 584.156 3440.71 625.974 3546.59 661.411C3720.3 719.92 3914.63 764.366 4118.94 796.542C4448.66 848.468 4803.6 868.666 5134.44 850.011" stroke="url(#paint5_linear_877_1181)" stroke-width="3.9204" stroke-miterlimit="10"/>
<path d="M55.4551 285.293C463.945 413.913 821.827 667.103 1069.33 988.591C1168.56 1117.48 1256.15 1264.36 1407.39 1355.78C1556.68 1446.04 1748.37 1460.72 1912.25 1427.87C2079.03 1394.45 2221.83 1320.96 2351.46 1228.72C2365.29 1218.89 2379 1208.84 2392.65 1198.57C2506.85 1112.5 2617.27 1010.21 2730.97 900.581C2757.82 874.79 2785.38 848.318 2813.45 822C2906.06 735.114 3001.79 653.027 3109.45 618.472C3153.58 604.305 3196.35 598.636 3238.52 598.191C3344.4 597.072 3447.85 630.586 3552.71 658.934C3724.66 705.849 3917.9 741.472 4121.42 768.288C4449.87 811.566 4804.18 832.187 5132.56 823.021" stroke="url(#paint6_linear_877_1181)" stroke-width="3.7046" stroke-miterlimit="10"/>
<path d="M52.051 332.342C459.259 447.747 819.889 684.139 1076.52 988.636C1179.41 1110.71 1271.3 1250.32 1422.7 1338.57C1572.14 1425.7 1761.16 1442.43 1923.84 1415.57C2090.01 1388.13 2233.49 1324.23 2365.28 1240.37C2379.34 1231.43 2393.31 1222.26 2407.21 1212.86C2523.56 1134.05 2637.3 1037.73 2752.22 930.747C2779.39 905.558 2807.11 879.511 2835.17 853.371C2927.63 767.162 3020.77 683.549 3125.09 644.539C3167.79 628.568 3209.25 620.634 3250.22 617.604C3353.29 609.98 3455 635.202 3558.82 656.461C3729.01 691.782 3921.17 718.581 4123.9 740.039C4451.08 774.668 4804.75 795.713 5130.69 796.036" stroke="url(#paint7_linear_877_1181)" stroke-width="3.4886" stroke-miterlimit="10"/>
<path d="M48.6479 379.391C454.574 481.58 817.95 701.174 1083.71 988.682C1190.26 1103.95 1286.46 1236.27 1438.01 1321.36C1587.59 1405.36 1773.95 1424.16 1935.43 1403.26C2101 1381.83 2245.16 1327.49 2379.11 1252.01C2393.4 1243.97 2407.61 1235.68 2421.77 1227.15C2540.27 1155.6 2657.33 1065.25 2773.46 960.912C2800.95 936.324 2828.85 910.703 2856.89 884.74C2949.2 799.209 3039.76 714.078 3140.73 670.603C3182 652.831 3222.14 642.623 3261.91 637.014C3362.18 622.87 3462.15 639.815 3564.93 653.984C3733.37 677.712 3924.44 695.687 4126.38 711.786C4452.29 737.766 4805.32 759.235 5128.81 769.047" stroke="url(#paint8_linear_877_1181)" stroke-width="3.2727" stroke-miterlimit="10"/>
<path d="M45.2451 426.44C449.888 515.413 816.012 718.21 1090.9 988.727C1201.11 1097.18 1301.62 1222.22 1453.32 1304.14C1603.05 1385.01 1786.75 1405.91 1947.03 1390.95C2112 1375.56 2256.82 1330.76 2392.93 1263.65C2407.46 1256.5 2421.91 1249.1 2436.33 1241.43C2556.99 1177.15 2677.36 1092.77 2794.71 991.076C2822.52 967.09 2850.58 941.895 2878.61 916.109C2970.77 831.256 3058.74 744.616 3156.37 696.668C3196.22 677.098 3235.05 664.605 3273.61 656.424C3371.09 635.743 3469.3 644.428 3571.05 651.507C3737.73 663.641 3927.71 672.792 4128.86 683.532C4453.5 700.864 4805.9 722.756 5126.93 742.058" stroke="url(#paint9_linear_877_1181)" stroke-width="3.0568" stroke-miterlimit="10"/>
<path d="M41.8411 473.489C445.202 549.247 814.073 735.246 1098.09 988.772C1211.96 1090.41 1316.77 1208.18 1468.63 1286.92C1618.5 1364.66 1799.56 1387.69 1958.62 1378.65C2123.01 1369.3 2268.49 1334.02 2406.75 1275.3C2421.51 1269.04 2436.21 1262.52 2450.89 1255.72C2573.7 1198.7 2697.39 1120.29 2815.95 1021.24C2844.08 997.856 2872.31 973.087 2900.32 947.478C2992.34 863.302 3077.73 775.162 3172.01 722.733C3210.43 701.37 3247.95 686.581 3285.3 675.835C3379.99 648.597 3476.44 649.042 3577.16 649.032C3742.08 649.572 3930.97 649.899 4131.33 655.281C4454.7 663.964 4806.47 686.28 5125.05 715.071" stroke="url(#paint10_linear_877_1181)" stroke-width="2.8409" stroke-miterlimit="10"/>
<path d="M38.438 520.538C440.516 583.081 812.135 752.281 1105.28 988.818C1222.81 1083.65 1331.93 1194.13 1483.94 1269.71C1633.95 1344.32 1812.38 1369.49 1970.21 1366.34C2134.02 1363.08 2280.15 1337.29 2420.58 1286.94C2435.56 1281.58 2450.51 1275.94 2465.45 1270.01C2590.41 1220.25 2717.42 1147.81 2837.19 1051.41C2865.65 1028.62 2894.04 1004.28 2922.05 978.848C3013.91 895.35 3096.72 805.719 3187.65 748.798C3224.64 725.644 3260.86 708.548 3297 695.246C3388.9 661.431 3483.59 653.655 3583.28 646.556C3746.44 635.503 3934.24 627.006 4133.82 627.029C4455.92 627.064 4807.04 649.804 5123.18 688.083" stroke="url(#paint11_linear_877_1181)" stroke-width="2.625" stroke-miterlimit="10"/>
<path d="M35.0339 567.587C435.83 616.914 810.196 769.317 1112.47 988.863C1233.66 1076.88 1347.08 1180.08 1499.25 1252.5C1649.41 1323.98 1825.19 1351.31 1981.8 1354.04C2145.03 1356.87 2291.82 1340.55 2434.4 1298.58C2449.62 1294.11 2464.81 1289.35 2480.01 1284.29C2607.12 1241.79 2737.44 1175.32 2858.43 1081.57C2887.21 1059.39 2915.77 1035.47 2943.76 1010.22C3035.47 927.397 3115.71 836.283 3203.29 774.863C3238.86 749.923 3273.76 730.507 3308.7 714.657C3397.8 674.245 3490.74 658.269 3589.39 644.08C3750.8 621.433 3937.51 604.112 4136.3 598.776C4457.13 590.162 4807.61 613.326 5121.3 661.094" stroke="url(#paint12_linear_877_1181)" stroke-width="2.4091" stroke-miterlimit="10"/>
<path d="M31.6309 614.636C431.145 650.748 808.258 786.353 1119.66 988.909C1244.52 1070.12 1362.24 1166.03 1514.56 1235.28C1664.86 1303.63 1838.01 1333.16 1993.39 1341.73C2156.05 1350.7 2303.48 1343.82 2448.22 1310.23C2463.67 1306.65 2479.11 1302.77 2494.57 1298.58C2623.83 1263.34 2757.47 1202.85 2879.68 1111.74C2908.78 1090.16 2937.5 1066.66 2965.48 1041.59C3057.04 959.444 3134.71 866.856 3218.93 800.929C3253.07 774.205 3286.65 752.46 3320.4 734.069C3406.68 687.042 3497.88 662.884 3595.5 641.605C3755.15 607.365 3940.77 581.219 4138.77 570.525C4458.33 553.263 4808.18 576.85 5119.42 634.107" stroke="url(#paint13_linear_877_1181)" stroke-width="2.1932" stroke-miterlimit="10"/>
<path d="M28.228 661.685C426.46 684.581 806.319 803.389 1126.85 988.954C1255.37 1063.35 1377.4 1151.99 1529.87 1218.07C1680.32 1283.29 1850.82 1315.04 2004.99 1329.42C2167.06 1344.55 2315.15 1347.08 2462.05 1321.87C2477.73 1319.19 2493.42 1316.19 2509.13 1312.86C2640.55 1284.89 2777.5 1230.36 2900.92 1141.9C2930.34 1120.92 2959.24 1097.86 2987.2 1072.96C3078.61 991.491 3153.72 897.435 3234.57 826.993C3267.29 798.489 3299.54 774.405 3332.09 753.478C3415.56 699.821 3505.03 667.496 3601.62 639.128C3759.51 593.294 3944.04 558.325 4141.26 542.271C4459.54 516.36 4808.76 540.371 5117.55 607.118" stroke="url(#paint14_linear_877_1181)" stroke-width="1.9773" stroke-miterlimit="10"/>
<path d="M24.824 708.734C421.773 718.415 804.38 820.424 1134.04 988.999C1266.22 1056.58 1392.55 1137.94 1545.18 1200.85C1695.77 1262.94 1863.62 1296.94 2016.58 1317.12C2178.06 1338.42 2326.81 1350.35 2475.87 1333.51C2491.79 1331.72 2507.72 1329.61 2523.69 1327.15C2657.26 1306.44 2797.53 1257.88 2922.17 1172.06C2951.91 1151.69 2980.97 1129.05 3008.92 1104.32C3100.18 1023.54 3172.74 928.017 3250.22 853.057C3281.52 822.774 3312.43 796.345 3343.79 772.888C3424.42 712.588 3512.18 672.108 3607.73 636.651C3763.87 579.223 3947.31 535.43 4143.74 514.018C4460.75 479.459 4809.33 503.893 5115.67 580.129" stroke="url(#paint15_linear_877_1181)" stroke-width="1.7614" stroke-miterlimit="10"/>
<path d="M21.4209 755.783C417.088 752.248 802.442 837.46 1141.23 989.045C1277.07 1049.82 1407.71 1123.89 1560.49 1183.64C1711.22 1242.6 1876.42 1278.86 2028.17 1304.81C2189.05 1332.32 2338.47 1353.61 2489.69 1345.16C2505.84 1344.26 2522.02 1343.03 2538.25 1341.44C2673.97 1327.99 2817.56 1285.4 2943.41 1202.23C2973.47 1182.45 3002.7 1160.24 3030.63 1135.69C3121.74 1055.58 3191.76 958.607 3265.86 879.123C3295.74 847.063 3325.3 818.285 3355.49 792.3C3433.26 725.35 3519.33 676.723 3613.84 634.176C3768.22 565.154 3950.58 512.538 4146.22 485.767C4461.96 442.559 4809.9 467.417 5113.79 553.142" stroke="url(#paint16_linear_877_1181)" stroke-width="1.5454" stroke-miterlimit="10"/>
<path d="M18.0171 802.832C412.401 786.082 800.503 854.496 1148.42 989.09C1287.92 1043.05 1422.86 1109.84 1575.8 1166.42C1726.68 1222.25 1889.2 1260.8 2039.76 1292.5C2200.03 1326.25 2350.14 1356.87 2503.52 1356.8C2519.9 1356.8 2536.32 1356.45 2552.81 1355.72C2690.68 1349.54 2837.59 1312.92 2964.65 1232.39C2995.03 1213.22 3024.43 1191.43 3052.35 1167.06C3143.31 1087.63 3210.79 989.196 3281.5 905.186C3309.97 871.35 3338.18 840.22 3367.19 811.709C3442.08 738.105 3526.48 681.335 3619.96 631.699C3772.58 551.084 3953.85 489.643 4148.7 457.513C4463.17 405.657 4810.48 430.939 5111.92 526.152" stroke="url(#paint17_linear_877_1181)" stroke-width="1.3296" stroke-miterlimit="10"/>
<path d="M14.614 849.88C407.716 819.914 798.565 871.531 1155.61 989.135C1298.77 1036.28 1438.02 1095.8 1591.11 1149.21C1742.13 1201.91 1901.97 1242.76 2051.36 1280.2C2210.99 1320.2 2361.8 1360.14 2517.34 1368.44C2533.95 1369.33 2550.62 1369.87 2567.37 1370.01C2707.4 1371.08 2857.62 1340.44 2985.9 1262.56C3016.6 1243.98 3046.16 1222.62 3074.07 1198.43C3164.88 1119.68 3229.84 1019.79 3297.14 931.251C3324.21 895.64 3351.04 862.157 3378.88 831.12C3450.88 750.862 3533.62 685.949 3626.07 629.223C3776.94 537.014 3957.11 466.749 4151.18 429.261C4464.38 368.756 4811.05 394.462 5110.04 499.165" stroke="url(#paint18_linear_877_1181)" stroke-width="1.1136" stroke-miterlimit="10"/>
<path d="M11.2109 896.93C403.031 853.749 796.627 888.567 1162.8 989.181C1309.62 1029.52 1453.18 1081.75 1606.42 1131.99C1757.59 1181.56 1914.72 1224.75 2062.95 1267.89C2221.94 1314.17 2373.47 1363.41 2531.17 1380.09C2548.01 1381.87 2564.92 1383.29 2581.94 1384.29C2724.11 1392.63 2877.65 1367.96 3007.14 1292.72C3038.16 1274.75 3067.9 1253.81 3095.79 1229.8C3186.45 1151.72 3249.06 1050.49 3312.78 957.317C3338.51 919.976 3363.9 884.097 3390.58 850.531C3459.67 763.621 3540.77 690.563 3632.18 626.747C3781.29 522.944 3960.38 443.856 4153.66 401.009C4465.59 331.855 4811.62 357.985 5108.16 472.177" stroke="url(#paint19_linear_877_1181)" stroke-width="0.8977" stroke-miterlimit="10"/>
<path d="M7.80713 943.978C398.344 887.581 794.688 905.602 1170 989.225C1320.47 1022.75 1468.33 1067.7 1621.74 1114.78C1773.04 1161.22 1927.46 1206.74 2074.54 1255.58C2232.86 1308.15 2385.13 1366.67 2544.99 1391.73C2562.06 1394.41 2579.23 1396.71 2596.5 1398.58C2740.82 1414.18 2897.68 1395.47 3028.38 1322.89C3059.73 1305.52 3089.63 1285.01 3117.51 1261.17C3208.02 1183.77 3268.07 1081.04 3328.42 983.38C3352.74 944.246 3376.68 905.986 3402.28 869.94C3468.26 776.255 3547.92 695.174 3638.3 624.269C3785.65 508.873 3963.65 420.96 4156.14 372.754C4466.8 294.952 4812.2 321.505 5106.29 445.186" stroke="url(#paint20_linear_877_1181)" stroke-width="0.6818" stroke-miterlimit="10"/>
<path d="M4.40405 991.027C393.659 921.415 792.749 922.638 1177.19 989.271C1331.32 1015.99 1483.49 1053.66 1637.05 1097.56C1788.5 1140.87 1940.09 1188.96 2086.13 1243.28C2243.68 1302.38 2396.8 1369.93 2558.81 1403.37C2576.12 1406.94 2593.53 1410.13 2611.06 1412.87C2757.53 1435.73 2917.7 1422.99 3049.63 1353.05C3081.29 1336.28 3111.36 1316.2 3139.23 1292.54C3229.58 1215.82 3287.08 1111.6 3344.06 1009.45C3366.96 968.52 3389.56 927.957 3413.97 889.352C3477.11 789.096 3555.07 699.789 3644.41 621.795C3790.01 494.805 3966.92 398.068 4158.62 344.504C4468.01 258.053 4812.77 285.03 5104.41 418.2" stroke="url(#paint21_linear_877_1181)" stroke-width="0.4659" stroke-miterlimit="10"/>
<path d="M1 1038.08C697.942 889.287 1439.63 957.52 2097.72 1230.97C2271.41 1303.14 2441.28 1389.79 2625.62 1427.15C2809.95 1464.51 3017.14 1445.13 3160.95 1323.91C3287.29 1217.4 3344.46 1052.68 3425.67 908.763C3584.15 627.933 3852.98 411.351 4161.1 316.252C4469.22 221.153 4813.34 248.553 5102.53 391.213" stroke="url(#paint22_linear_877_1181)" stroke-width="0.25" stroke-miterlimit="10"/>
<defs>
<linearGradient id="paint0_linear_877_1181" x1="75.875" y1="775.635" x2="5143.82" y2="775.635" gradientUnits="userSpaceOnUse">
<stop stop-color="#43E29B"/>
<stop offset="1" stop-color="#289062"/>
</linearGradient>
<linearGradient id="paint1_linear_877_1181" x1="72.4719" y1="790.314" x2="5141.95" y2="790.314" gradientUnits="userSpaceOnUse">
<stop stop-color="#43E29B"/>
<stop offset="1" stop-color="#289062"/>
</linearGradient>
<linearGradient id="paint2_linear_877_1181" x1="69.0679" y1="804.971" x2="5140.07" y2="804.971" gradientUnits="userSpaceOnUse">
<stop stop-color="#43E29B"/>
<stop offset="1" stop-color="#289062"/>
</linearGradient>
<linearGradient id="paint3_linear_877_1181" x1="65.665" y1="819.734" x2="5138.19" y2="819.734" gradientUnits="userSpaceOnUse">
<stop stop-color="#43E29B"/>
<stop offset="1" stop-color="#289062"/>
</linearGradient>
<linearGradient id="paint4_linear_877_1181" x1="62.262" y1="834.578" x2="5136.32" y2="834.578" gradientUnits="userSpaceOnUse">
<stop stop-color="#43E29B"/>
<stop offset="1" stop-color="#289062"/>
</linearGradient>
<linearGradient id="paint5_linear_877_1181" x1="58.8579" y1="849.523" x2="5134.44" y2="849.523" gradientUnits="userSpaceOnUse">
<stop stop-color="#43E29B"/>
<stop offset="1" stop-color="#289062"/>
</linearGradient>
<linearGradient id="paint6_linear_877_1181" x1="55.4551" y1="864.592" x2="5132.56" y2="864.592" gradientUnits="userSpaceOnUse">
<stop stop-color="#43E29B"/>
<stop offset="1" stop-color="#289062"/>
</linearGradient>
<linearGradient id="paint7_linear_877_1181" x1="52.051" y1="879.817" x2="5130.69" y2="879.817" gradientUnits="userSpaceOnUse">
<stop stop-color="#43E29B"/>
<stop offset="1" stop-color="#289062"/>
</linearGradient>
<linearGradient id="paint8_linear_877_1181" x1="48.6479" y1="895.245" x2="5128.81" y2="895.245" gradientUnits="userSpaceOnUse">
<stop stop-color="#43E29B"/>
<stop offset="1" stop-color="#289062"/>
</linearGradient>
<linearGradient id="paint9_linear_877_1181" x1="45.2451" y1="910.938" x2="5126.93" y2="910.938" gradientUnits="userSpaceOnUse">
<stop stop-color="#43E29B"/>
<stop offset="1" stop-color="#289062"/>
</linearGradient>
<linearGradient id="paint10_linear_877_1181" x1="41.8411" y1="926.995" x2="5125.05" y2="926.995" gradientUnits="userSpaceOnUse">
<stop stop-color="#43E29B"/>
<stop offset="1" stop-color="#289062"/>
</linearGradient>
<linearGradient id="paint11_linear_877_1181" x1="38.438" y1="943.569" x2="5123.18" y2="943.569" gradientUnits="userSpaceOnUse">
<stop stop-color="#43E29B"/>
<stop offset="1" stop-color="#289062"/>
</linearGradient>
<linearGradient id="paint12_linear_877_1181" x1="35.0339" y1="960.968" x2="5121.3" y2="960.968" gradientUnits="userSpaceOnUse">
<stop stop-color="#43E29B"/>
<stop offset="1" stop-color="#289062"/>
</linearGradient>
<linearGradient id="paint13_linear_877_1181" x1="31.6309" y1="955.152" x2="5119.42" y2="955.152" gradientUnits="userSpaceOnUse">
<stop stop-color="#43E29B"/>
<stop offset="1" stop-color="#289062"/>
</linearGradient>
<linearGradient id="paint14_linear_877_1181" x1="28.228" y1="936.443" x2="5117.55" y2="936.443" gradientUnits="userSpaceOnUse">
<stop stop-color="#43E29B"/>
<stop offset="1" stop-color="#289062"/>
</linearGradient>
<linearGradient id="paint15_linear_877_1181" x1="24.824" y1="920.064" x2="5115.67" y2="920.064" gradientUnits="userSpaceOnUse">
<stop stop-color="#43E29B"/>
<stop offset="1" stop-color="#289062"/>
</linearGradient>
<linearGradient id="paint16_linear_877_1181" x1="21.4209" y1="905.996" x2="5113.79" y2="905.996" gradientUnits="userSpaceOnUse">
<stop stop-color="#43E29B"/>
<stop offset="1" stop-color="#289062"/>
</linearGradient>
<linearGradient id="paint17_linear_877_1181" x1="18.0171" y1="893.943" x2="5111.92" y2="893.943" gradientUnits="userSpaceOnUse">
<stop stop-color="#43E29B"/>
<stop offset="1" stop-color="#289062"/>
</linearGradient>
<linearGradient id="paint18_linear_877_1181" x1="14.614" y1="883.564" x2="5110.04" y2="883.564" gradientUnits="userSpaceOnUse">
<stop stop-color="#43E29B"/>
<stop offset="1" stop-color="#289062"/>
</linearGradient>
<linearGradient id="paint19_linear_877_1181" x1="11.2109" y1="874.427" x2="5108.16" y2="874.427" gradientUnits="userSpaceOnUse">
<stop stop-color="#43E29B"/>
<stop offset="1" stop-color="#289062"/>
</linearGradient>
<linearGradient id="paint20_linear_877_1181" x1="7.80713" y1="866.279" x2="5106.29" y2="866.279" gradientUnits="userSpaceOnUse">
<stop stop-color="#43E29B"/>
<stop offset="1" stop-color="#289062"/>
</linearGradient>
<linearGradient id="paint21_linear_877_1181" x1="4.40405" y1="858.965" x2="5104.41" y2="858.965" gradientUnits="userSpaceOnUse">
<stop stop-color="#43E29B"/>
<stop offset="1" stop-color="#289062"/>
</linearGradient>
<linearGradient id="paint22_linear_877_1181" x1="1" y1="852.348" x2="5102.53" y2="852.348" gradientUnits="userSpaceOnUse">
<stop stop-color="#43E29B"/>
<stop offset="1" stop-color="#289062"/>
</linearGradient>
</defs>
</svg>
