<svg width="1894" height="1212" fill="none" xmlns="http://www.w3.org/2000/svg"><path d="M112.225 843.21c-42.97 10.804-89.207-20.54-104.426-63.123-15.217-42.582-3.557-91.746 21.736-128.956 94.94-139.676 241.846-20.917 357.249 11.607 70.084 19.752 155.418 22.225 225.729 2.243 43.726-12.427 92.86-38.126 114.708-80.878 39.906-78.086-41.161-130.454-40.825-204.799.452-100.026 136.649-113.325 205.929-90.394 79.578 26.34 145.645 83.875 225.695 108.882 87.42 27.31 168.83-3.017 229.46-70.778 38.08-42.556 66.75-97.697 64.23-155.385C1405.9 38.494 1268.34 10.096 1164.6 1" stroke="url(#a)" stroke-miterlimit="10"/><path d="M115.299 851.489c-40.888 11.063-84.85-19.327-98.553-60.905-3.848-11.672-5.631-23.866-5.635-36.183.036-31.562 11.71-63.709 30.255-90.029 7.555-10.76 15.42-19.998 23.56-27.893 73.621-71.658 169.329-29.229 256.676 5.585 25.356 10.112 50.016 19.594 73.361 25.463 24.668 6.225 51.276 10.258 78.544 11.869 48.304 2.871 98.818-1.999 143.854-14.921a303.77 303.77 0 0 0 20.798-6.783c16.324-5.988 32.692-13.647 47.549-23.305 15.071-9.799 28.605-21.656 38.938-35.898a108.339 108.339 0 0 0 8.264-13.262c11.501-21.928 13.243-42.056 9.973-61.245-3.055-17.777-10.383-34.67-18.135-51.502-13.315-28.913-28.543-56.86-27.882-88.889 1.65-95.736 135.553-106.522 204.802-82.68 25.798 8.829 50.262 20.814 74.34 33.774 49.842 26.832 97.912 57.736 151.842 73.503 23.08 6.774 45.7 9.494 67.54 8.519 60.63-2.599 115.21-33.222 159.34-83.32 25.02-28.445 46.13-62.24 57.18-98.428 5.62-18.409 8.64-37.425 8.2-56.72-.6-24.27-5.55-45.068-13.89-62.977-37.1-79.251-140.91-101.63-224.05-111.196" stroke="url(#b)" stroke-miterlimit="10"/><path d="M118.373 859.77c-38.804 11.323-80.493-18.114-92.682-58.686-3.425-11.388-4.836-23.307-4.515-35.357.917-30.889 13.125-62.232 32.023-88.107 7.668-10.569 15.636-19.685 23.87-27.535 73.978-70.982 168.957-31.852 254.456-.412 24.818 9.138 48.86 17.655 71.618 22.645 24.051 5.325 49.995 8.512 76.694 9.349 47.295 1.518 97.244-4.624 142.373-17.698a343.573 343.573 0 0 0 20.84-6.757c16.38-5.902 32.811-13.303 47.763-22.673 15.161-9.51 28.837-21.046 39.36-35.079a104.627 104.627 0 0 0 8.427-13.108c11.674-21.692 13.578-41.852 10.577-61.118-2.822-17.799-9.774-34.678-16.863-51.401-12.203-28.784-26.038-55.529-24.98-85.957 3.18-91.435 134.461-99.72 203.675-74.964 25.686 9.083 50.135 21.168 74.298 34.101 49.973 26.757 98.483 56.905 152.363 71.573 23.03 6.319 45.55 8.57 67.22 7.091 60.07-3.887 113.41-35.548 157.09-85.913 24.8-28.683 45.91-62.542 57.38-98.578 5.83-18.329 9.21-37.199 9.14-56.334-.08-24.032-4.49-44.669-12.21-62.544-34.45-78.978-134.92-103.464-216.55-115.172" stroke="url(#c)" stroke-miterlimit="10"/><path d="M121.445 868.049c-36.72 11.583-76.135-16.901-86.81-56.468-3-11.107-4.07-22.748-3.397-34.532 1.724-30.221 14.599-60.708 33.789-86.187 7.802-10.361 15.868-19.351 24.182-27.177 74.496-70.123 168.581-34.473 252.234-6.408 24.282 8.165 47.703 15.713 69.875 19.829 23.433 4.425 48.714 6.767 74.844 6.828 46.287.165 95.669-7.249 140.891-20.473a391.146 391.146 0 0 0 20.882-6.734c16.437-5.815 32.929-12.958 47.977-22.04 15.252-9.219 29.072-20.436 39.783-34.258a100.88 100.88 0 0 0 8.592-12.957c11.849-21.453 13.953-41.655 11.183-60.989-2.554-17.827-9.163-34.69-15.592-51.299-11.094-28.663-23.584-54.194-22.076-83.024 4.557-87.133 133.3-92.734 202.549-67.251 25.552 9.404 50.01 21.523 74.257 34.428 50.112 26.682 99.062 56.074 152.902 69.643 22.97 5.866 45.39 7.592 66.89 5.664 59.48-5.333 111.6-37.876 154.82-88.509 24.59-28.922 45.7-62.841 57.6-98.728 6.04-18.248 9.75-36.972 10.08-55.948.4-23.792-3.39-44.29-10.53-62.111-31.58-78.796-128.93-105.295-209.06-119.143" stroke="url(#d)" stroke-miterlimit="10"/><path d="M124.52 876.328c-34.638 11.843-71.776-15.688-80.936-54.251-2.579-10.825-3.284-22.19-2.277-33.707 2.58-29.551 16.03-59.217 35.554-84.265 7.922-10.164 16.087-19.029 24.493-26.818 74.898-69.391 168.209-37.094 250.014-12.405 23.743 7.19 46.552 13.726 68.132 17.011 22.822 3.474 47.432 5.022 72.995 4.309 45.277-1.187 94.094-9.876 139.408-23.25a458.784 458.784 0 0 0 20.924-6.707c16.494-5.729 33.049-12.614 48.193-21.409 15.341-8.927 29.304-19.827 40.203-33.437a96.4 96.4 0 0 0 8.756-12.804c12.068-21.188 14.299-41.45 11.785-60.864-2.311-17.848-8.553-34.707-14.317-51.196-9.984-28.553-21.127-52.857-19.173-80.092 5.944-82.82 132.184-85.876 201.421-59.535 25.432 9.676 49.885 21.879 74.215 34.755 50.25 26.607 99.65 55.243 153.43 67.713 22.92 5.413 45.24 6.65 66.57 4.236 58.91-6.67 109.79-40.202 152.56-91.103 24.37-29.157 45.48-63.142 57.8-98.877 6.26-18.167 10.3-36.744 11.02-55.562.9-23.55-2.31-43.895-8.85-61.677-28.85-78.545-122.94-107.133-201.56-123.124" stroke="url(#e)" stroke-miterlimit="10"/><path d="M127.592 884.607c-32.555 12.103-67.418-14.475-75.065-52.033-2.154-10.544-2.496-21.633-1.158-32.882 3.437-28.886 17.459-57.725 37.32-82.345 8.04-9.967 16.306-18.711 24.804-26.458 75.297-68.664 167.836-39.717 247.792-18.399 23.208 6.217 45.394 11.772 66.392 14.195 22.203 2.56 46.149 3.275 71.145 1.788 44.268-2.541 92.518-12.502 137.927-26.027a554.725 554.725 0 0 0 20.966-6.682c16.55-5.642 33.166-12.269 48.408-20.776 15.432-8.637 29.511-19.238 40.626-32.618 3.305-3.978 6.306-8.184 8.919-12.651 12.252-20.943 14.644-41.247 12.391-60.735-2.068-17.87-7.943-34.733-13.046-51.094-8.875-28.453-18.67-51.518-16.27-77.158 7.345-78.497 131.066-79.025 200.293-51.819 25.314 9.947 49.759 22.234 74.174 35.082 50.39 26.53 100.25 54.278 153.96 65.783 22.88 4.901 45.08 5.711 66.24 2.808 58.33-8.003 107.98-42.527 150.31-93.696 24.14-29.396 45.26-63.442 58-99.027 6.47-18.086 10.85-36.515 11.96-55.177 1.39-23.306-1.24-43.498-7.16-61.241-26.14-78.287-116.96-108.967-194.07-127.1" stroke="url(#f)" stroke-miterlimit="10"/><path d="M130.666 892.888c-30.47 12.361-63.06-13.262-69.193-49.814-1.731-10.26-1.71-21.076-.038-32.057 4.294-28.218 18.888-56.231 39.087-80.423 8.158-9.769 16.526-18.389 25.114-26.099 75.691-67.939 167.461-42.338 245.573-24.396 22.67 5.242 44.235 9.819 64.649 11.377 21.584 1.648 44.867 1.53 69.295-.731 43.259-3.893 90.944-15.126 136.445-28.801a697.713 697.713 0 0 0 21.006-6.658c16.608-5.556 33.286-11.924 48.622-20.144 15.522-8.346 29.74-18.634 41.049-31.797 3.368-3.919 6.425-8.072 9.082-12.499 12.435-20.7 14.99-41.045 12.996-60.608-1.825-17.891-7.33-34.762-11.774-50.991-7.766-28.364-16.206-50.173-13.367-74.226 8.758-74.16 129.95-72.175 199.168-44.105 25.194 10.217 49.634 22.588 74.13 35.409 50.53 26.455 100.84 53.421 154.49 63.853 22.83 4.437 44.93 4.771 65.92 1.38 57.76-9.332 106.28-44.766 148.05-96.291 23.98-29.586 45.04-63.741 58.21-99.177 6.68-18.006 11.39-36.285 12.9-54.793 1.88-23.064-.17-43.1-5.48-60.808-23.43-78.023-110.97-110.8-186.58-131.076" stroke="url(#g)" stroke-miterlimit="10"/><path d="M133.738 901.167c-28.388 12.621-58.703-12.048-63.32-47.597-1.308-9.978-.922-20.52 1.08-31.231 5.155-27.557 20.315-54.741 40.854-78.503 8.275-9.573 16.744-18.07 25.425-25.741 76.081-67.217 167.088-44.959 243.352-30.392 22.134 4.269 43.074 7.865 62.906 8.56 20.964.735 43.586-.216 67.447-3.251 42.25-5.246 89.369-17.751 134.964-31.578a942.955 942.955 0 0 0 21.048-6.633c16.666-5.468 33.404-11.579 48.836-19.514 15.613-8.056 29.971-18.027 41.472-30.975 3.43-3.862 6.543-7.962 9.248-12.346 12.615-20.455 15.336-40.839 13.599-60.481-1.583-17.911-6.715-34.798-10.5-50.889-6.654-28.288-13.741-48.822-10.464-71.294 10.185-69.808 128.833-65.33 198.04-36.389 25.077 10.487 49.505 22.945 74.095 35.734 50.66 26.381 101.41 52.569 155.01 61.921 22.78 3.974 44.77 3.834 65.59-.047 57.19-10.66 104.49-47.081 145.8-98.886 23.77-29.817 44.82-64.042 58.42-99.326 6.89-17.925 11.93-36.054 13.84-54.406 2.37-22.821.9-42.701-3.81-60.376-20.7-77.75-104.97-112.633-179.08-135.052" stroke="url(#h)" stroke-miterlimit="10"/><path d="M136.812 909.446c-26.303 12.881-54.345-10.837-57.448-45.379-.883-9.697-.136-19.965 2.2-30.406 6.014-26.893 21.74-53.251 42.619-76.581a287.93 287.93 0 0 1 25.737-25.381c76.467-66.498 166.716-47.582 241.131-36.389 21.596 3.295 41.914 5.912 61.163 5.743 20.342-.179 42.304-1.962 65.597-5.77 41.241-6.6 87.793-20.379 133.481-34.355a1441.549 1441.549 0 0 0 21.09-6.607c16.721-5.382 33.523-11.235 49.052-18.882 15.703-7.765 30.201-17.421 41.892-30.154 3.491-3.803 6.662-7.85 9.411-12.194 12.798-20.213 15.68-40.635 14.204-60.354-1.343-17.93-6.098-34.839-9.228-50.788-5.539-28.223-11.274-47.463-7.56-68.361 11.626-65.435 127.717-58.487 196.912-28.676 24.958 10.753 49.385 23.299 74.055 36.061 50.8 26.306 101.99 51.716 155.54 59.993 22.72 3.511 44.61 2.897 65.26-1.475 56.61-11.985 102.7-49.398 143.54-101.481 23.56-30.048 44.61-64.342 58.62-99.476 7.11-17.844 12.48-35.824 14.79-54.02 2.85-22.577 1.97-42.301-2.13-59.943-17.99-77.474-98.98-114.466-171.58-139.027" stroke="url(#i)" stroke-miterlimit="10"/><path d="M139.886 917.725c-24.22 13.141-49.987-9.624-51.576-43.162-.461-9.413.653-19.409 3.318-29.583 6.876-26.231 23.164-51.757 44.385-74.66a310.895 310.895 0 0 1 26.047-25.023c76.85-65.781 166.342-50.203 238.91-42.385 21.06 2.32 40.752 3.96 59.421 2.926 19.719-1.093 41.023-3.708 63.746-8.291 40.233-7.952 86.218-23.003 132-37.129a2951.717 2951.717 0 0 0 21.131-6.582c16.779-5.295 33.642-10.89 49.266-18.249 15.794-7.476 30.432-16.816 42.316-29.335 3.554-3.744 6.778-7.74 9.574-12.041 12.978-19.968 16.024-40.43 14.808-60.225-1.103-17.953-5.478-34.889-7.957-50.686-4.419-28.17-8.801-46.094-4.657-65.429 13.084-61.035 126.601-51.649 195.786-20.959 24.836 11.018 49.256 23.653 74.016 36.387 50.94 26.231 102.56 50.863 156.07 58.061 22.67 3.05 44.45 1.961 64.94-2.903 56.02-13.307 100.9-51.714 141.28-104.074 23.35-30.282 44.39-64.643 58.82-99.624 7.32-17.763 13.03-35.592 15.73-53.634 3.34-22.331 3.04-41.9-.44-59.507-15.29-77.194-93-116.302-164.1-143.004" stroke="url(#j)" stroke-miterlimit="10"/><path d="M142.959 926.006c-22.138 13.401-45.63-8.411-45.705-40.942-.036-9.132 1.441-18.856 4.438-28.758 7.739-25.574 24.588-50.269 46.153-72.739 8.621-8.984 17.395-17.113 26.358-24.664 77.228-65.07 165.969-52.825 236.69-48.38 20.521 1.347 39.587 2.007 57.68.108 19.094-2.004 39.729-5.5 61.896-10.809 39.204-9.39 84.644-25.629 130.518-39.906 6.882-2.135 13.972-4.327 21.173-6.556 16.837-5.209 33.762-10.544 49.48-17.618 15.884-7.184 30.663-16.209 42.738-28.513 3.616-3.685 6.896-7.628 9.739-11.889 13.158-19.725 16.366-40.225 15.413-60.1-.862-17.972-4.853-34.941-6.684-50.584-3.293-28.125-6.329-44.713-1.754-62.496 14.56-56.602 125.486-44.814 194.658-13.246 24.72 11.283 49.13 24.01 73.97 36.714 51.08 26.155 103.15 50.015 156.6 56.132 22.62 2.588 44.3 1.028 64.61-4.331 55.45-14.624 99.12-54.034 139.03-106.668 23.14-30.514 44.17-64.942 59.03-99.773 7.53-17.683 13.57-35.359 16.66-53.249 3.83-22.083 4.12-41.495 1.24-59.073-12.58-76.908-87.01-118.135-156.59-146.98" stroke="url(#k)" stroke-miterlimit="10"/><path d="M146.033 934.285c-20.053 13.661-41.27-7.198-39.831-38.725.386-8.85 2.23-18.301 5.556-27.933 8.606-24.914 26.009-48.778 47.918-70.818 8.737-8.789 17.613-16.795 26.668-24.304 77.605-64.361 165.596-55.448 234.47-54.378 19.986.372 38.423.057 55.938-2.708 18.468-2.917 38.444-7.251 60.047-13.33 38.191-10.749 83.069-28.256 129.037-42.683a2652.43 2652.43 0 0 1 21.214-6.533c16.894-5.122 33.88-10.199 49.695-16.985 15.974-6.895 30.893-15.603 43.159-27.693 3.679-3.625 7.015-7.516 9.902-11.737 13.336-19.482 16.708-40.02 16.017-59.971-.625-17.992-4.222-35.001-5.413-50.482-2.159-28.092-3.852-43.317 1.149-59.564 16.049-52.124 124.372-37.982 193.53-5.53 24.601 11.547 49.001 24.365 73.931 37.041 51.22 26.08 103.72 49.166 157.13 54.202 22.56 2.127 44.14.094 64.28-5.758 54.87-15.94 97.32-56.354 136.77-109.264 22.93-30.749 43.96-65.242 59.24-99.923 7.74-17.602 14.11-35.129 17.6-52.864 4.31-21.838 5.19-41.092 2.93-58.641-9.88-76.614-81.03-119.969-149.1-150.956" stroke="url(#l)" stroke-miterlimit="10"/><path d="M149.105 942.564c-17.97 13.921-36.913-5.985-33.96-36.507.809-8.567 3.021-17.748 6.677-27.108 9.472-24.258 27.429-47.289 49.684-68.898 8.85-8.593 17.83-16.476 26.979-23.945 77.978-63.655 165.221-58.07 232.249-60.374 19.448-.6 37.257-1.894 54.195-5.526 17.842-3.826 37.159-8.997 58.197-15.851 37.176-12.107 81.494-30.881 127.556-45.457a1331.278 1331.278 0 0 1 21.255-6.507c16.95-5.036 34-9.855 49.911-16.355 16.064-6.603 31.126-14.997 43.582-26.872 3.74-3.568 7.132-7.406 10.065-11.583 13.515-19.24 17.05-39.816 16.622-59.844-.386-18.011-3.585-35.065-4.139-50.379-1.016-28.07-1.377-41.903 4.052-56.631 17.546-47.591 123.26-31.155 192.4 2.184 24.49 11.808 48.89 24.718 73.89 37.365 51.36 26.005 104.3 48.32 157.66 52.272 22.51 1.668 43.99-.837 63.96-7.186 54.28-17.249 95.53-58.674 134.51-111.857 22.71-30.985 43.74-65.543 59.45-100.073 7.95-17.521 14.64-34.894 18.54-52.478 4.79-21.592 6.25-40.686 4.6-58.207-7.18-76.319-75.03-121.803-141.6-154.933" stroke="url(#m)" stroke-miterlimit="10"/><path d="M152.179 950.843c-15.888 14.181-32.555-4.772-28.086-34.29 1.233-8.285 3.812-17.194 7.795-26.282 10.342-23.601 28.847-45.801 51.449-66.977 8.963-8.399 18.045-16.158 27.291-23.586 78.346-62.952 164.848-60.691 230.028-66.37 18.911-1.576 36.09-3.842 52.452-8.344 17.213-4.735 35.873-10.747 56.347-18.37 36.161-13.464 79.918-33.506 126.072-48.235a909.688 909.688 0 0 1 21.298-6.481c17.008-4.948 34.119-9.509 50.124-15.723 16.154-6.313 31.358-14.387 44.004-26.052 3.804-3.509 7.249-7.294 10.229-11.432 13.692-18.996 17.392-39.608 17.227-59.715-.148-18.031-2.942-35.135-2.867-50.277.137-28.057 1.094-40.463 6.956-53.699 19.04-42.99 122.146-24.331 191.272 9.9 24.37 12.068 48.76 25.075 73.85 37.692 51.49 25.93 104.87 47.475 158.19 50.342 22.45 1.207 43.82-1.767 63.64-8.614 53.7-18.557 93.72-60.995 132.25-114.451 22.5-31.219 43.52-65.842 59.65-100.222 8.16-17.442 15.18-34.662 19.48-52.092 5.27-21.346 7.32-40.281 6.29-57.774-4.5-76.018-69.05-123.636-134.12-158.908" stroke="url(#n)" stroke-miterlimit="10"/><path d="M155.253 959.124c-13.803 14.441-28.197-3.559-22.214-32.072 1.656-8.004 4.605-16.641 8.915-25.458 11.215-22.944 30.265-44.311 53.217-65.054 9.076-8.202 18.262-15.841 27.602-23.226 78.713-62.25 164.456-63.444 227.806-72.367 18.37-2.587 34.921-5.79 50.712-11.16 16.583-5.64 34.588-12.495 54.497-20.89 35.145-14.822 78.342-36.132 124.591-51.012a693.352 693.352 0 0 1 21.338-6.457c17.065-4.862 34.238-9.165 50.339-15.091 16.245-6.022 31.59-13.781 44.427-25.231 3.867-3.45 7.366-7.184 10.394-11.278 13.868-18.754 17.73-39.404 17.83-59.588.089-18.05-2.29-35.205-1.594-50.176 1.302-28.049 3.552-38.992 9.858-50.765 20.514-38.305 121.036-17.511 190.149 17.614 24.25 12.326 48.63 25.429 73.81 38.019 51.63 25.853 105.44 46.63 158.71 48.412 22.39.748 43.67-2.696 63.31-10.042 53.12-19.86 91.93-63.317 129.99-117.046 22.29-31.456 43.31-66.143 59.86-100.372 8.37-17.362 15.72-34.428 20.43-51.708 5.74-21.098 8.38-39.873 7.96-57.339-1.81-75.712-63.05-125.471-126.62-162.884" stroke="url(#o)" stroke-miterlimit="10"/><path d="M158.325 967.403c-11.72 14.699-23.839-2.346-16.342-29.855 2.08-7.722 5.399-16.087 10.033-24.632 12.091-22.289 31.681-42.827 54.983-63.135 9.189-8.009 18.477-15.524 27.911-22.867 79.076-61.555 164.074-66.073 225.586-78.361 17.83-3.563 33.752-7.734 48.969-13.979 15.952-6.546 33.302-14.242 52.648-23.409 34.131-16.176 76.769-38.758 123.109-53.786a558.426 558.426 0 0 1 21.381-6.432c17.121-4.773 34.357-8.82 50.554-14.458 16.335-5.731 31.823-13.173 44.848-24.41 3.931-3.391 7.483-7.074 10.558-11.127 14.045-18.513 18.07-39.197 18.435-59.461.324-18.071-1.631-35.281-.323-50.074 2.48-28.047 5.995-37.488 12.761-47.833 21.934-33.529 119.926-10.693 189.024 25.33 24.14 12.584 48.5 25.784 73.77 38.346 51.76 25.778 106.01 45.789 159.24 46.482 22.34.291 43.51-3.624 62.99-11.469 52.53-21.161 90.13-65.642 127.73-119.64 22.07-31.693 43.09-66.443 60.06-100.522 8.59-17.281 16.26-34.195 21.37-51.322 6.22-20.852 9.45-39.468 9.65-56.906.86-75.405-57.07-127.304-119.13-166.86" stroke="url(#p)" stroke-miterlimit="10"/><path d="M161.4 975.682c-9.638 14.959-19.483-1.135-10.472-27.636 2.504-7.438 6.193-15.534 11.154-23.807 12.969-21.633 33.095-41.34 56.748-61.212 9.302-7.814 18.693-15.207 28.223-22.509 79.437-60.862 163.692-68.698 223.364-84.358 17.29-4.537 32.582-9.677 47.227-16.794 15.322-7.448 32.017-15.987 50.798-25.93 33.116-17.531 75.193-41.383 121.628-56.563a465.796 465.796 0 0 1 21.421-6.406c17.179-4.687 34.476-8.476 50.767-13.827 16.426-5.441 32.058-12.566 45.271-23.59 3.992-3.332 7.601-6.964 10.721-10.975 14.22-18.271 18.408-38.993 19.038-59.334.561-18.09-.962-35.357.951-49.971 3.674-28.049 8.402-35.948 15.665-44.901 23.254-28.665 118.817-3.879 187.896 33.044 24.02 12.84 48.38 26.14 73.72 38.671 51.91 25.704 106.6 44.948 159.78 44.552 22.28-.165 43.35-4.551 62.66-12.897 51.95-22.456 88.33-67.967 125.47-122.234 21.86-31.928 42.87-66.744 60.27-100.671 8.8-17.2 16.79-33.961 22.31-50.936 6.69-20.603 10.51-39.058 11.33-56.473 3.53-75.096-51.08-129.138-111.63-170.836" stroke="url(#q)" stroke-miterlimit="10"/><path d="M164.472 983.961c-7.553 15.219-15.125.079-4.598-25.418 2.928-7.157 6.99-14.981 12.273-22.982 13.849-20.975 34.51-39.855 58.515-59.292 9.412-7.622 18.906-14.89 28.533-22.151 79.795-60.173 163.31-71.321 221.144-90.354 16.75-5.513 31.412-11.617 45.484-19.613 14.692-8.348 30.731-17.734 48.948-28.449 32.099-18.883 73.617-44.008 120.146-59.339a400.88 400.88 0 0 1 21.464-6.381c17.236-4.6 34.595-8.131 50.982-13.194 16.516-5.15 32.29-11.958 45.693-22.769 4.056-3.273 7.716-6.853 10.887-10.822 14.394-18.031 18.746-38.785 19.643-59.205.796-18.11-.288-35.434 2.223-49.869 4.88-28.053 10.76-34.373 18.568-41.968 24.411-23.742 117.71 2.932 186.773 40.759 23.9 13.096 48.25 26.495 73.68 38.998 52.04 25.629 107.17 44.111 160.3 42.622 22.23-.622 43.2-5.477 62.34-14.325 51.37-23.748 86.53-70.291 123.22-124.829 21.63-32.165 42.65-67.043 60.47-100.819 9.01-17.119 17.32-33.729 23.25-50.551 7.16-20.356 11.57-38.649 13.01-56.038 6.19-74.785-45.09-130.972-104.13-174.815" stroke="url(#r)" stroke-miterlimit="10"/><path d="M167.546 992.242c-5.47 15.478-10.765 1.292 1.274-23.201 3.35-6.875 7.785-14.427 13.391-22.159 14.733-20.317 35.922-38.372 60.282-57.372 9.524-7.428 19.121-14.575 28.845-21.79 80.15-59.485 162.925-73.944 218.925-96.351 16.21-6.487 30.243-13.555 43.743-22.428 14.062-9.244 29.446-19.479 47.097-30.97 31.085-20.235 72.044-46.633 118.664-62.114a352.84 352.84 0 0 1 21.505-6.357c17.294-4.514 34.715-7.785 51.198-12.562 16.606-4.861 32.524-11.35 46.116-21.948 4.119-3.212 7.833-6.741 11.049-10.67 14.568-17.791 19.083-38.581 20.247-59.08 1.03-18.129.394-35.512 3.495-49.766 6.102-28.055 13.05-32.785 21.471-39.036 25.352-18.819 116.604 9.74 185.642 48.475 23.79 13.35 48.13 26.849 73.64 39.325 52.18 25.552 107.74 43.274 160.83 40.692 22.17-1.077 43.04-6.4 62.01-15.753 50.8-25.038 84.73-72.616 120.96-127.422 21.43-32.403 42.44-67.345 60.68-100.969 9.22-17.039 17.86-33.496 24.19-50.165 7.64-20.108 12.63-38.24 14.7-55.605 8.84-74.474-39.11-132.805-96.64-178.79" stroke="url(#s)" stroke-miterlimit="10"/><path d="M170.618 1000.52c-3.387 15.74-6.407 2.51 7.148-20.982 3.773-6.592 8.582-13.872 14.511-21.334 15.619-19.658 37.334-36.889 62.048-55.45 9.635-7.235 19.336-14.26 29.156-21.432 80.504-58.802 162.543-76.565 216.703-102.347 15.671-7.46 29.076-15.491 42.001-25.247 13.434-10.14 28.163-21.223 45.249-33.488 30.071-21.586 70.469-49.261 117.182-64.891a315.328 315.328 0 0 1 21.546-6.332c17.35-4.427 34.834-7.442 51.413-11.932 16.696-4.568 32.759-10.74 46.537-21.126 4.182-3.153 7.95-6.631 11.213-10.517 14.74-17.55 19.42-38.374 20.852-58.951 1.264-18.147 1.085-35.588 4.767-49.664 7.339-28.055 14.559-32.955 24.374-36.104 23.202-18.529 115.502 16.544 184.512 56.189 23.68 13.602 48 27.206 73.6 39.652 52.32 25.477 108.31 42.439 161.36 38.762 22.12-1.532 42.88-7.324 61.69-17.18 50.21-26.324 82.92-74.945 118.7-130.019 21.21-32.641 42.22-67.644 60.89-101.118 9.43-16.958 18.38-33.264 25.13-49.78 8.11-19.863 13.68-37.833 16.37-55.171 11.49-74.162-33.11-134.638-89.15-182.766" stroke="url(#t)" stroke-miterlimit="10"/><path d="M173.692 1008.8c-1.303 16-2.05 3.72 13.019-18.764a201.807 201.807 0 0 1 15.63-20.508c16.508-18.996 38.744-35.409 63.813-53.53 9.745-7.045 19.55-13.945 29.466-21.074 80.853-58.122 162.158-79.182 214.482-108.342 15.131-8.433 27.909-17.424 40.258-28.063 12.805-11.032 26.877-22.968 43.399-36.009 29.058-22.936 68.893-51.885 115.701-67.667a283.81 283.81 0 0 1 21.588-6.306c17.407-4.34 34.951-7.096 51.626-11.3 16.787-4.279 32.993-10.13 46.959-20.308 4.246-3.093 8.066-6.522 11.378-10.364 14.914-17.31 19.755-38.167 21.458-58.824 1.496-18.167 1.783-35.66 6.04-49.561 8.591-28.051 16.954-31.626 27.278-33.172 24.399-14.24 114.393 23.345 183.383 63.905 23.57 13.854 47.88 27.56 73.56 39.977 52.46 25.402 108.89 41.608 161.89 36.832 22.06-1.987 42.73-8.245 61.36-18.608 49.64-27.608 81.12-77.272 116.45-132.612 20.99-32.882 42-67.943 61.09-101.268 9.64-16.877 18.91-33.031 26.07-49.394 8.58-19.619 14.74-37.425 18.05-54.738 14.14-73.851-27.12-136.473-81.65-186.742" stroke="url(#u)" stroke-miterlimit="10"/><path d="M176.767 1017.08c.78 16.26 2.307 4.93 18.89-16.55 4.621-6.025 10.181-12.759 16.75-19.681 17.398-18.334 40.154-33.929 65.579-51.608 9.855-6.851 19.763-13.629 29.777-20.713 81.201-57.447 161.778-81.799 212.261-114.338 14.591-9.406 26.743-19.357 38.515-30.881 12.18-11.923 25.593-24.711 41.549-38.53 28.044-24.286 67.318-54.511 114.22-70.442a258.296 258.296 0 0 1 21.628-6.281c17.465-4.253 35.072-6.75 51.842-10.667 16.877-3.988 33.227-9.522 47.382-19.487 4.309-3.034 8.182-6.41 11.541-10.213 15.086-17.072 20.091-37.962 22.061-58.695 1.729-18.187 2.488-35.731 7.312-49.459 9.855-28.042 19.348-30.298 30.181-30.237 25.596-9.951 113.295 30.142 182.255 71.618 23.46 14.106 47.76 27.915 73.52 40.304 52.6 25.327 109.46 40.776 162.42 34.902 22-2.44 42.57-9.165 61.03-20.036 49.07-28.888 79.32-79.6 114.19-135.205 20.77-33.12 41.79-68.245 61.3-101.418 9.85-16.796 19.44-32.799 27.01-49.008 9.04-19.373 15.79-37.018 19.74-54.304 16.76-73.545-21.14-138.307-74.16-190.719" stroke="url(#v)" stroke-miterlimit="10"/><path d="M179.839 1025.36c2.863 16.52 6.665 6.14 24.764-14.33 5.045-5.75 10.98-12.203 17.868-18.857 18.29-17.667 41.563-32.451 67.345-49.688 9.964-6.66 19.976-13.316 30.088-20.355 81.547-56.773 161.398-84.415 210.04-120.335 14.053-10.376 25.581-21.288 36.773-33.697 11.556-12.812 24.308-26.454 39.698-41.048 27.031-25.635 65.742-57.136 112.736-73.219a237.943 237.943 0 0 1 21.671-6.257c17.521-4.167 35.191-6.406 52.057-10.036 16.967-3.698 33.462-8.911 47.804-18.665 4.373-2.974 8.299-6.302 11.705-10.059 15.257-16.834 20.426-37.758 22.666-58.57 1.96-18.206 3.197-35.798 8.585-49.359 11.132-28.023 22.427-22.991 33.083-27.304 25.444-10.3 112.198 36.938 181.128 79.334 23.35 14.356 47.63 28.269 73.48 40.631 52.73 25.25 110.03 39.947 162.95 32.972 21.95-2.893 42.41-10.085 60.7-21.464 48.5-30.164 77.52-81.929 111.94-137.801 20.55-33.358 41.57-68.544 61.5-101.567 10.06-16.716 19.97-32.569 27.95-48.622 9.51-19.128 16.85-36.61 21.42-53.871 19.39-73.239-15.15-140.141-66.66-194.695" stroke="url(#w)" stroke-miterlimit="10"/><path d="M182.913 1033.64c4.947 16.78 11.022 7.35 30.635-12.11 5.468-5.47 11.782-11.65 18.989-18.04 19.182-16.995 42.968-30.969 69.112-47.761 10.074-6.472 20.189-13.002 30.399-19.997 81.891-56.106 161.018-87.028 207.82-126.331 13.512-11.35 24.42-23.219 35.031-36.516 10.934-13.7 23.025-28.196 37.85-43.569 26.021-26.981 64.169-59.763 111.255-75.996a220.924 220.924 0 0 1 21.713-6.231c17.579-4.08 35.309-6.061 52.27-9.403 17.058-3.407 33.696-8.301 48.226-17.846 4.436-2.915 8.413-6.191 11.868-9.908 15.428-16.595 20.758-37.55 23.269-58.441 2.192-18.226 3.914-35.861 9.856-49.257 12.422-27.995 23.967-21.833 35.987-24.372 27.446-5.796 111.097 43.731 180.007 87.048 23.23 14.604 47.5 28.626 73.44 40.958 52.87 25.175 110.6 39.12 163.47 31.042 21.89-3.344 42.26-11.003 60.38-22.891 47.93-31.438 75.71-84.259 109.68-140.395 20.33-33.598 41.35-68.845 61.71-101.717 10.27-16.635 20.49-32.338 28.89-48.238 9.97-18.886 17.9-36.202 23.1-53.438 22.01-72.935-9.16-141.974-59.17-198.67" stroke="url(#x)" stroke-miterlimit="10"/><path d="M185.985 1041.92c7.031 17.03 15.383 8.57 36.508-9.89 5.89-5.19 12.58-11.09 20.106-17.21 20.078-16.332 44.377-29.5 70.878-45.848 10.181-6.28 20.403-12.688 30.711-19.638 82.233-55.44 160.641-89.639 205.6-132.328 12.975-12.32 23.261-25.146 33.289-39.331 10.314-14.591 21.742-29.94 36-46.088 25.01-28.329 62.593-62.388 109.773-78.771a206.007 206.007 0 0 1 21.754-6.205c17.636-3.994 35.427-5.717 52.485-8.771 17.148-3.116 33.931-7.691 48.648-17.025 4.5-2.854 8.531-6.081 12.033-9.754 15.598-16.359 21.091-37.346 23.875-58.314 2.421-18.245 4.634-35.918 11.13-49.154 13.72-27.958 26.003-24.563 38.89-21.44 28.539 6.919 110.005 50.519 178.875 94.764 23.12 14.852 47.38 28.98 73.4 41.285 53.01 25.1 111.18 38.295 164 29.112 21.84-3.795 42.11-11.92 60.06-24.319 47.35-32.71 73.9-86.589 107.42-142.99 20.11-33.839 41.13-69.145 61.91-101.867 10.49-16.556 21.02-32.11 29.83-47.852 10.44-18.642 18.95-35.797 24.78-53.003 24.63-72.636-3.17-143.809-51.67-202.646" stroke="url(#y)" stroke-miterlimit="10"/><path d="M189.059 1050.2c9.112 17.29 19.739 9.78 42.378-7.68 6.316-4.9 13.383-10.53 21.227-16.38 20.974-15.66 45.784-28.024 72.644-43.924 10.291-6.091 20.616-12.375 31.02-19.278 82.573-54.776 160.264-92.252 203.379-138.322 12.437-13.291 22.103-27.077 31.546-42.15 9.697-15.479 20.46-31.68 34.15-48.608 23.999-29.676 61.018-65.013 108.292-81.548a192.863 192.863 0 0 1 21.796-6.18c17.691-3.907 35.546-5.372 52.7-8.141 17.238-2.826 34.167-7.079 49.071-16.203 4.565-2.795 8.646-5.971 12.196-9.603 15.769-16.122 21.423-37.141 24.478-58.187 2.652-18.265 5.357-35.97 12.402-49.052 15.031-27.909 28.288-23.435 41.793-18.507 29.383 10.721 108.919 57.305 177.749 102.477 23.01 15.101 47.25 29.335 73.36 41.61 53.14 25.026 111.75 37.472 164.53 27.182 21.78-4.246 41.95-12.838 59.73-25.747 46.79-33.98 72.09-88.918 105.16-145.583 19.89-34.079 40.92-69.446 62.12-102.015 10.7-16.475 21.54-31.881 30.77-47.466 10.9-18.402 19.99-35.393 26.46-52.569 27.24-72.343 2.82-145.643-44.17-206.623" stroke="url(#z)" stroke-miterlimit="10"/><path d="M192.133 1058.48c11.198 17.55 24.098 10.99 48.253-5.46 6.738-4.62 14.183-9.97 22.345-15.56 21.868-14.98 47.188-26.55 74.411-42 10.398-5.902 20.827-12.062 31.331-18.92 82.912-54.118 159.89-94.864 201.158-144.319 11.901-14.262 20.948-29.006 29.804-44.965 9.082-16.367 19.179-33.424 32.299-51.128 22.991-31.02 59.443-67.64 106.811-84.324a181.316 181.316 0 0 1 21.838-6.156c17.749-3.821 35.666-5.028 52.915-7.509 17.329-2.535 34.402-6.469 49.494-15.382 4.628-2.734 8.761-5.863 12.36-9.451 15.937-15.887 21.755-36.937 25.083-58.06 2.882-18.285 6.083-36.018 13.674-48.949 16.347-27.85 30.628-22.31 44.696-15.575 30.367 14.537 107.825 64.089 176.625 110.193 22.9 15.347 47.12 29.691 73.31 41.937 53.29 24.949 112.33 36.65 165.07 25.252 21.72-4.695 41.8-13.754 59.4-27.175 46.22-35.246 70.28-91.25 102.9-148.177 19.67-34.321 40.7-69.745 62.33-102.164 10.91-16.395 22.06-31.653 31.71-47.081 11.36-18.161 21.04-34.988 28.14-52.135 29.85-72.054 8.81-147.476-36.68-210.599" stroke="url(#A)" stroke-miterlimit="10"/><path d="M195.205 1066.76c13.28 17.81 28.455 12.2 54.124-3.24 7.163-4.34 14.985-9.41 23.465-14.74 22.764-14.3 48.595-25.08 76.177-40.08 10.508-5.71 21.041-11.748 31.643-18.557 83.247-53.463 159.62-97.395 198.936-150.316 11.394-15.21 19.796-30.936 28.064-47.784 8.467-17.255 17.897-35.164 30.451-53.648 21.982-32.368 57.868-70.265 105.327-87.099a171.079 171.079 0 0 1 21.878-6.13c17.807-3.734 35.785-4.684 53.129-6.877 17.419-2.245 34.638-5.857 49.914-14.563 4.692-2.675 8.877-5.753 12.524-9.298 16.106-15.65 22.085-36.731 25.688-57.931 3.111-18.307 6.811-36.06 14.946-48.847 17.671-27.777 33.01-21.172 47.599-12.643 31.46 18.393 106.74 70.87 175.5 117.907 22.79 15.591 46.99 30.046 73.27 42.263 53.42 24.875 112.9 35.832 165.59 23.323 21.67-5.144 41.65-14.669 59.08-28.602 45.66-36.513 68.47-93.582 100.64-150.773 19.45-34.562 40.49-70.047 62.54-102.314 11.12-16.314 22.58-31.426 32.65-46.696 11.82-17.923 22.09-34.588 29.82-51.703 32.45-71.768 14.8-149.31-29.18-214.575" stroke="url(#B)" stroke-miterlimit="10"/><path d="M198.279 1075.04c15.363 18.07 32.813 13.42 59.998-1.03 7.585-4.05 15.785-8.84 24.583-13.91 23.66-13.62 49.999-23.61 77.943-38.16 10.615-5.52 21.252-11.44 31.954-18.2 83.581-52.809 159.246-100.015 196.715-156.31 10.856-16.184 18.643-32.866 26.321-50.6 7.854-18.145 16.615-36.907 28.601-56.168 20.977-33.715 56.293-72.891 103.846-89.876a162.107 162.107 0 0 1 21.92-6.105c17.865-3.647 35.904-4.338 53.344-6.245 17.509-1.953 34.874-5.244 50.337-13.742 4.756-2.613 8.992-5.644 12.689-9.145 16.273-15.416 22.416-36.527 26.291-57.803 3.339-18.327 7.541-36.096 16.218-48.747 18.998-27.695 35.422-20.016 50.502-9.709 32.629 22.301 105.649 77.648 174.369 125.623 22.69 15.835 46.87 30.402 73.23 42.59 53.56 24.8 113.48 35.013 166.13 21.393 21.61-5.593 41.5-15.583 58.75-30.03 45.1-37.777 66.65-95.916 98.38-153.366 19.23-34.804 40.27-70.346 62.75-102.464 11.33-16.233 23.1-31.202 33.59-46.31 12.27-17.685 23.13-34.186 31.5-51.27 35.04-71.486 20.79-151.143-21.69-218.55" stroke="url(#C)" stroke-miterlimit="10"/><path d="M201.352 1083.32c17.448 18.33 37.17 14.63 65.869 1.19 8.008-3.77 16.587-8.27 25.704-13.08 24.554-12.94 51.403-22.15 79.708-36.24 10.723-5.34 21.463-11.13 32.265-17.84 83.914-52.163 158.873-102.64 194.497-162.309 10.319-17.156 17.492-34.797 24.577-53.417 7.244-19.036 15.336-38.648 26.751-58.688 19.97-35.06 54.718-75.515 102.365-92.652a154.349 154.349 0 0 1 21.961-6.082c17.92-3.56 36.023-3.991 53.559-5.612 17.599-1.664 35.108-4.632 50.76-12.921 4.818-2.552 9.107-5.536 12.851-8.992 16.443-15.181 22.747-36.322 26.897-57.677 3.566-18.348 8.273-36.129 17.492-48.644 20.329-27.598 37.852-18.839 53.405-6.777 33.857 26.255 104.567 84.425 173.247 133.339 22.57 16.079 46.74 30.757 73.19 42.917 53.69 24.725 114.05 34.195 166.65 19.463 21.56-6.04 41.35-16.497 58.42-31.458 44.55-39.04 64.85-98.247 96.13-155.962 19-35.046 40.05-70.645 62.95-102.613 11.54-16.152 23.62-30.977 34.53-45.925 12.73-17.448 24.18-33.785 33.19-50.835 37.63-71.213 26.77-152.977-14.2-222.527" stroke="url(#D)" stroke-miterlimit="10"/><path d="M204.426 1091.6c19.53 18.59 41.527 15.84 71.74 3.41 8.433-3.49 17.389-7.72 26.824-12.26 25.45-12.25 52.808-20.68 81.476-34.32 10.831-5.15 21.675-10.82 32.575-17.48 84.246-51.517 158.5-105.261 192.275-168.305 9.782-18.131 16.343-36.73 22.835-56.234 6.634-19.927 14.057-40.39 24.901-61.208 18.965-36.407 53.142-78.143 100.883-95.427a146.754 146.754 0 0 1 22.003-6.056c17.978-3.474 36.142-3.647 53.773-4.98 17.689-1.373 35.344-4.02 51.18-12.102 4.884-2.491 9.222-5.425 13.015-8.84 16.61-14.949 23.075-36.117 27.5-57.549 3.795-18.368 9.004-36.155 18.764-48.542 21.663-27.492 40.294-17.641 56.31-3.844 35.11 30.254 103.48 91.197 172.11 141.052 22.47 16.324 46.62 31.111 73.15 43.242 53.84 24.65 114.63 33.38 167.18 17.531 21.51-6.487 41.21-17.41 58.1-32.885 44-40.302 63.03-100.581 93.87-158.556 18.78-35.288 39.84-70.947 63.16-102.763 11.75-16.071 24.14-30.753 35.47-45.538 13.19-17.212 25.22-33.388 34.87-50.401 40.22-70.943 32.76-154.812-6.71-226.503" stroke="url(#E)" stroke-miterlimit="10"/><path d="M207.5 1099.87c21.613 18.86 45.887 17.06 77.612 5.64 8.856-3.21 18.188-7.15 27.942-11.44 26.344-11.56 54.213-19.21 83.242-32.39 10.938-4.97 21.886-10.51 32.886-17.13 84.577-50.871 158.125-107.878 190.054-174.298 9.245-19.104 15.194-38.663 21.094-59.051 6.026-20.82 12.779-42.132 23.052-63.728 17.961-37.753 51.569-80.767 99.401-98.204a140.258 140.258 0 0 1 22.045-6.03c18.036-3.387 36.261-3.302 53.988-4.348 17.78-1.081 35.581-3.405 51.603-11.28 4.947-2.432 9.337-5.317 13.18-8.689 16.777-14.716 23.404-35.914 28.105-57.421 4.022-18.389 9.734-36.176 20.036-48.439 22.998-27.374 42.744-16.424 59.21-.912 36.4 34.292 102.41 97.969 170.99 148.768 22.37 16.566 46.5 31.466 73.11 43.569 53.97 24.573 115.21 32.567 167.71 15.601 21.45-6.934 41.06-18.322 57.77-34.313 43.45-41.563 61.22-102.915 91.62-161.149 18.54-35.531 39.61-71.246 63.35-102.913 11.97-15.991 24.67-30.532 36.42-45.152 13.64-16.978 26.26-32.99 36.55-49.968 42.82-70.679 38.75-156.645.79-230.479" stroke="url(#F)" stroke-miterlimit="10"/><path d="M210.572 1108.15c23.698 19.12 50.245 18.28 83.486 7.85 9.28-2.92 18.989-6.58 29.062-10.61 27.237-10.87 55.615-17.75 85.008-30.47 11.047-4.78 22.097-10.2 33.196-16.77 84.908-50.23 157.753-110.501 187.834-180.294 8.707-20.079 14.047-40.597 19.351-61.868 5.417-21.714 11.54-43.857 21.202-66.248 17.027-39.069 49.993-83.393 97.919-100.979a134.503 134.503 0 0 1 22.086-6.004c18.093-3.301 36.38-2.958 54.203-3.718 17.87-.792 35.817-2.793 52.026-10.459 5.01-2.371 9.453-5.209 13.343-8.535 16.944-14.484 23.731-35.712 28.711-57.293 4.248-18.412 10.463-36.195 21.307-48.337 24.332-27.246 45.194-15.196 62.114 2.02 37.7 38.362 101.33 104.738 169.86 156.482 22.26 16.806 46.37 31.822 73.07 43.896 54.11 24.498 115.79 31.755 168.24 13.671 21.4-7.379 40.91-19.236 57.45-35.741 42.89-42.823 59.39-105.248 89.35-163.745 18.33-35.772 39.4-71.547 63.57-103.062 12.18-15.91 25.18-30.312 37.35-44.768 14.1-16.747 27.31-32.595 38.23-49.535 45.41-70.418 44.74-158.478 8.29-234.455" stroke="url(#G)" stroke-miterlimit="10"/><path d="M213.646 1116.43c25.781 19.38 54.603 19.49 89.358 10.07 9.703-2.64 19.788-6.02 30.18-9.78 28.128-10.19 57.02-16.3 86.773-28.56 11.156-4.6 22.309-9.89 33.508-16.41 85.237-49.59 157.379-113.121 185.613-186.289 8.171-21.052 12.898-42.533 17.609-64.686 4.807-22.607 10.256-45.601 19.351-68.766 16.019-40.422 48.418-86.018 96.438-103.756a129.19 129.19 0 0 1 22.128-5.98c18.149-3.214 36.5-2.614 54.418-3.086 17.96-.501 36.052-2.178 52.448-9.638 5.075-2.31 9.567-5.101 13.507-8.384 17.11-14.254 24.059-35.508 29.314-57.167 4.473-18.433 11.192-36.208 22.582-48.234 25.667-27.108 47.647-13.951 65.017 4.952 39.01 42.461 100.26 111.505 168.73 164.198 22.16 17.048 46.25 32.177 73.03 44.223 54.25 24.424 116.38 30.944 168.77 11.741 21.34-7.824 40.77-20.148 57.12-37.169 42.35-44.081 57.58-107.583 87.1-166.338 18.09-36.017 39.18-71.847 63.77-103.212 12.39-15.829 25.7-30.091 38.29-44.382 14.56-16.515 28.35-32.199 39.91-49.101 48-70.165 50.73-160.313 15.78-238.433" stroke="url(#H)" stroke-miterlimit="10"/><path d="M216.719 1124.71c27.863 19.64 58.96 20.7 95.229 12.29 10.127-2.36 20.587-5.45 31.3-8.96 29.02-9.5 58.424-14.83 88.541-26.63 11.263-4.42 22.518-9.58 33.817-16.05 85.563-48.97 157.006-115.746 183.392-192.289 7.633-22.027 11.751-44.469 15.866-67.502 4.2-23.504 8.975-47.349 17.501-71.288 15.01-41.775 46.843-88.645 94.957-106.532a124.191 124.191 0 0 1 22.168-5.955c18.206-3.127 36.619-2.269 54.631-2.454 18.051-.21 36.288-1.563 52.869-8.818 5.14-2.249 9.682-4.993 13.671-8.232 17.276-14.024 24.385-35.306 29.919-57.039 4.699-18.457 11.92-36.218 23.853-48.132 26.997-26.962 50.107-12.699 67.917 7.885 40.33 46.582 99.19 118.269 167.61 171.911 22.05 17.289 46.12 32.531 72.99 44.55 54.38 24.349 116.95 30.135 169.29 9.811 21.3-8.269 40.63-21.06 56.8-38.596 41.81-45.342 55.76-109.918 84.84-168.934 17.87-36.259 38.97-72.148 63.98-103.362 12.6-15.748 26.21-29.872 39.23-43.996 15.01-16.285 29.39-31.805 41.59-48.668 50.59-69.915 56.72-162.146 23.28-242.409" stroke="url(#I)" stroke-miterlimit="10"/><path d="M219.793 1132.99c29.948 19.9 63.318 21.91 101.102 14.51 10.55-2.08 21.387-4.89 32.419-8.14 29.91-8.8 59.829-13.37 90.307-24.71 11.37-4.23 22.729-9.27 34.128-15.69 85.89-48.34 156.633-118.367 181.17-198.282 7.098-22.999 10.604-46.407 14.126-70.32 3.593-24.4 7.693-49.093 15.653-73.806 14.001-43.128 45.269-91.27 93.473-109.309a119.482 119.482 0 0 1 22.211-5.929c18.264-3.041 36.737-1.925 54.846-1.822 18.141.081 36.525-.949 53.292-7.998 5.203-2.187 9.797-4.883 13.836-8.078 17.441-13.793 24.712-35.103 30.522-56.911 4.924-18.478 12.646-36.222 25.125-48.032 28.327-26.808 52.557-11.433 70.827 10.818 41.64 50.724 98.11 125.032 166.48 179.627 21.94 17.529 45.99 32.888 72.94 44.875 54.52 24.272 117.54 29.325 169.83 7.881 21.24-8.714 40.48-21.972 56.47-40.024 41.26-46.6 53.82-112.31 82.58-171.528 17.57-36.538 38.75-72.447 64.18-103.509 12.82-15.668 26.74-29.656 40.18-43.61 15.47-16.056 30.43-31.413 43.27-48.233 53.18-69.668 62.71-163.979 30.78-246.385" stroke="url(#J)" stroke-miterlimit="10"/><path d="M222.867 1141.27c32.031 20.16 67.675 23.13 106.974 16.72 10.973-1.79 22.184-4.32 33.539-7.3 30.797-8.12 61.233-11.92 92.072-22.8 11.478-4.04 22.939-8.96 34.44-15.33 86.214-47.71 156.258-120.988 178.951-204.278 6.56-23.975 9.457-48.345 12.383-73.137 2.986-25.297 6.412-50.839 13.803-76.326 12.992-44.481 43.693-93.895 91.992-112.084a115.114 115.114 0 0 1 22.252-5.904c18.32-2.954 36.857-1.579 55.062-1.189 18.232.37 36.772-.306 53.715-7.177 5.27-2.117 9.912-4.777 13.999-7.926 17.607-13.565 25.036-34.9 31.127-56.785 5.149-18.5 13.371-36.226 26.397-47.93 29.657-26.646 55.007-10.163 73.727 13.75 42.96 54.881 97.05 131.793 165.35 187.341 21.85 17.767 45.87 33.242 72.91 45.202 54.66 24.197 118.12 28.518 170.35 5.951 21.19-9.157 40.34-22.883 56.14-41.452 40.73-47.858 52.03-114.636 80.33-174.121 17.35-36.777 38.53-72.749 64.39-103.659 13.03-15.589 27.25-29.439 41.12-43.226 15.92-15.83 31.47-31.021 44.95-47.8 55.77-69.428 68.7-165.814 38.27-250.361" stroke="url(#K)" stroke-miterlimit="10"/><path d="M225.939 1149.55c34.113 20.42 72.035 24.34 112.846 18.94 11.397-1.51 22.983-3.75 34.657-6.48 31.684-7.42 62.637-10.47 93.838-20.87 11.587-3.87 23.15-8.66 34.751-14.97 86.539-47.1 155.885-123.62 176.73-210.283 6.023-24.947 8.352-50.278 10.64-75.954 2.421-26.192 5.13-52.585 11.953-78.848 11.981-45.833 42.117-96.52 90.51-114.86a111.35 111.35 0 0 1 22.293-5.88c18.378-2.868 36.976-1.235 55.277-.558 18.322.662 37.005.306 54.137-6.357 5.334-2.056 10.026-4.669 14.162-7.773 17.773-13.336 25.364-34.699 31.733-56.657 5.374-18.523 14.093-36.225 27.671-47.827 30.983-26.477 57.453-8.887 76.633 16.684 44.28 59.052 95.98 138.55 164.22 195.057 21.75 18.008 45.74 33.597 72.86 45.529 54.8 24.122 118.77 27.815 170.89 4.021 21.16-9.559 40.2-23.795 55.82-42.88 40.19-49.118 50.21-116.961 78.07-176.716 17.13-37.016 38.31-73.048 64.59-103.809 13.24-15.508 27.77-29.225 42.06-42.84 16.37-15.603 32.52-30.629 46.63-47.366 58.36-69.19 74.69-167.648 45.77-254.338" stroke="url(#L)" stroke-miterlimit="10"/><path d="M229.014 1157.83c36.198 20.68 76.392 25.55 118.719 21.16 11.82-1.23 23.78-3.18 35.777-5.66 32.57-6.72 64.042-9.01 95.604-18.95 11.695-3.68 23.359-8.35 35.062-14.61 86.864-46.47 155.513-126.24 174.509-216.275 5.485-25.922 7.195-52.219 8.898-78.771 1.802-27.092 3.846-54.331 10.102-81.366 10.973-47.187 40.542-99.147 89.029-117.635a107.726 107.726 0 0 1 22.335-5.855c18.436-2.781 37.094-.89 55.49.073 18.413.953 37.24.916 54.559-5.536 5.397-1.997 10.135-4.571 14.327-7.621 17.914-13.145 25.654-34.509 32.336-56.529 5.568-18.557 14.813-36.222 28.939-47.725 32.31-26.304 59.91-7.605 79.54 19.617 45.6 63.234 94.92 145.308 163.1 202.77 21.64 18.246 45.61 33.953 72.82 45.856 54.93 24.047 119.34 26.983 171.41 2.091 21.11-10.012 40.06-24.709 55.49-44.307 39.66-50.378 48.41-119.288 75.82-179.311 16.91-37.251 38.09-73.347 64.79-103.958 13.45-15.428 28.29-29.012 43-42.455 16.83-15.378 33.57-30.238 48.32-46.932 60.95-68.958 80.68-169.482 53.26-258.314" stroke="url(#M)" stroke-miterlimit="10"/><path d="M232.085 1166.11c38.281 20.93 80.75 26.76 124.591 23.38 12.244-.95 24.579-2.6 36.895-4.84 33.464-5.98 65.433-7.61 97.371-17.03 11.799-3.52 23.562-8.06 35.372-14.25 87.123-45.99 155.138-128.86 172.288-222.272 4.949-26.895 6.037-54.16 7.157-81.588 1.183-27.992 2.565-56.077 8.254-83.887 9.964-48.54 38.968-101.773 87.547-120.412a104.32 104.32 0 0 1 22.376-5.829c18.491-2.695 37.213-.544 55.705.705 18.503 1.242 37.472 1.526 54.981-4.715 5.459-1.938 10.251-4.461 14.491-7.468 18.088-12.907 25.988-34.305 32.941-56.401 5.803-18.576 15.534-36.216 30.216-47.622 33.62-26.125 62.35-6.319 82.43 22.549 46.92 67.425 93.95 151.962 161.98 210.486 21.57 18.453 45.49 34.308 72.78 46.183 55.07 23.97 119.91 26.152 171.94.161 21.05-10.467 39.95-25.599 55.16-45.735 39.2-51.581 46.61-121.615 73.56-181.904 16.7-37.49 37.88-73.649 65-104.108 13.67-15.347 28.78-28.829 43.94-42.068 17.26-15.19 34.58-29.875 50-46.5 63.45-68.826 86.67-171.315 60.75-262.289" stroke="url(#N)" stroke-miterlimit="10"/><path d="M235.16 1174.39c40.363 21.19 85.107 27.97 130.462 25.59 12.667-.66 25.375-2.04 38.016-4.01 34.343-5.3 66.847-6.13 99.136-15.11 11.911-3.33 23.775-7.74 35.684-13.89 87.478-45.31 154.765-131.48 170.066-228.264 4.412-27.87 4.88-56.102 5.415-84.405.566-28.892 1.283-57.821 6.403-86.406 8.956-49.892 37.393-104.397 86.065-123.188a101.26 101.26 0 0 1 22.418-5.804c18.548-2.607 37.331-.199 55.918 1.337 18.593 1.534 37.704 2.135 55.404-3.893 5.522-1.877 10.367-4.35 14.654-7.316 18.26-12.671 26.324-34.101 33.544-56.275 6.035-18.599 16.255-36.208 31.485-47.52 34.94-25.94 64.85-5.063 85.34 25.481 48.35 71.545 92.85 158.764 160.84 218.2 21.47 18.707 45.37 34.662 72.74 46.508 55.22 23.895 120.5 25.321 172.47-1.769 21-10.92 39.81-26.521 54.85-47.161 38.63-52.868 44.8-123.941 71.29-184.499 16.48-37.728 37.67-73.948 65.22-104.258 13.87-15.266 29.3-28.602 44.87-41.684 17.73-14.951 35.64-29.475 51.68-46.065 66.09-68.55 92.66-173.148 68.25-266.265" stroke="url(#O)" stroke-miterlimit="10"/><path d="M238.231 1182.67c54.303 27.45 116.085 32.44 175.47 24.63 48.195-6.34 92.295-4.06 136.897-26.72 87.834-44.64 154.393-134.11 167.848-234.267 7.831-58.291-.786-118.035 8.225-176.149 9.095-58.652 44.29-123.244 107.043-131.743 18.606-2.521 37.451.145 56.134 1.969 18.683 1.823 37.938 2.745 55.826-3.074 29.345-9.545 39.718-35.83 48.967-63.31 6.269-18.62 16.969-36.198 32.759-47.417 36.26-25.753 67.24-3.736 88.24 28.413 65.11 99.658 117.56 223.319 232.42 272.751 77.68 33.431 175.8 21.262 227.51-52.288 38.08-54.158 43-126.266 69.04-187.093 16.26-37.966 37.45-74.249 65.42-104.407 30.13-32.476 67.88-55.832 99.18-86.929 68.74-68.277 98.64-174.984 75.74-270.242" stroke="url(#P)" stroke-miterlimit="10"/><defs><linearGradient id="a" x1="1" y1="423.178" x2="1411.87" y2="423.178" gradientUnits="userSpaceOnUse"><stop stop-color="#43E29B"/><stop offset="1" stop-color="#289062"/></linearGradient><linearGradient id="b" x1="11.111" y1="428.924" x2="1420.15" y2="428.924" gradientUnits="userSpaceOnUse"><stop stop-color="#43E29B"/><stop offset="1" stop-color="#289062"/></linearGradient><linearGradient id="c" x1="21.132" y1="434.676" x2="1428.5" y2="434.676" gradientUnits="userSpaceOnUse"><stop stop-color="#43E29B"/><stop offset="1" stop-color="#289062"/></linearGradient><linearGradient id="d" x1="31.045" y1="440.43" x2="1436.93" y2="440.43" gradientUnits="userSpaceOnUse"><stop stop-color="#43E29B"/><stop offset="1" stop-color="#289062"/></linearGradient><linearGradient id="e" x1="40.867" y1="446.187" x2="1445.44" y2="446.187" gradientUnits="userSpaceOnUse"><stop stop-color="#43E29B"/><stop offset="1" stop-color="#289062"/></linearGradient><linearGradient id="f" x1="50.578" y1="451.954" x2="1454.05" y2="451.954" gradientUnits="userSpaceOnUse"><stop stop-color="#43E29B"/><stop offset="1" stop-color="#289062"/></linearGradient><linearGradient id="g" x1="60.178" y1="457.723" x2="1462.76" y2="457.723" gradientUnits="userSpaceOnUse"><stop stop-color="#43E29B"/><stop offset="1" stop-color="#289062"/></linearGradient><linearGradient id="h" x1="69.656" y1="463.494" x2="1471.59" y2="463.494" gradientUnits="userSpaceOnUse"><stop stop-color="#43E29B"/><stop offset="1" stop-color="#289062"/></linearGradient><linearGradient id="i" x1="79.004" y1="469.273" x2="1480.53" y2="469.273" gradientUnits="userSpaceOnUse"><stop stop-color="#43E29B"/><stop offset="1" stop-color="#289062"/></linearGradient><linearGradient id="j" x1="88.209" y1="475.058" x2="1489.6" y2="475.058" gradientUnits="userSpaceOnUse"><stop stop-color="#43E29B"/><stop offset="1" stop-color="#289062"/></linearGradient><linearGradient id="k" x1="97.253" y1="480.852" x2="1498.82" y2="480.852" gradientUnits="userSpaceOnUse"><stop stop-color="#43E29B"/><stop offset="1" stop-color="#289062"/></linearGradient><linearGradient id="l" x1="106.132" y1="486.647" x2="1508.18" y2="486.647" gradientUnits="userSpaceOnUse"><stop stop-color="#43E29B"/><stop offset="1" stop-color="#289062"/></linearGradient><linearGradient id="m" x1="114.839" y1="492.451" x2="1517.7" y2="492.451" gradientUnits="userSpaceOnUse"><stop stop-color="#43E29B"/><stop offset="1" stop-color="#289062"/></linearGradient><linearGradient id="n" x1="123.356" y1="498.264" x2="1527.38" y2="498.264" gradientUnits="userSpaceOnUse"><stop stop-color="#43E29B"/><stop offset="1" stop-color="#289062"/></linearGradient><linearGradient id="o" x1="131.646" y1="504.086" x2="1537.23" y2="504.086" gradientUnits="userSpaceOnUse"><stop stop-color="#43E29B"/><stop offset="1" stop-color="#289062"/></linearGradient><linearGradient id="p" x1="139.668" y1="509.916" x2="1547.28" y2="509.916" gradientUnits="userSpaceOnUse"><stop stop-color="#43E29B"/><stop offset="1" stop-color="#289062"/></linearGradient><linearGradient id="q" x1="147.375" y1="515.753" x2="1557.5" y2="515.753" gradientUnits="userSpaceOnUse"><stop stop-color="#43E29B"/><stop offset="1" stop-color="#289062"/></linearGradient><linearGradient id="r" x1="154.695" y1="521.601" x2="1567.93" y2="521.601" gradientUnits="userSpaceOnUse"><stop stop-color="#43E29B"/><stop offset="1" stop-color="#289062"/></linearGradient><linearGradient id="s" x1="161.533" y1="527.461" x2="1578.55" y2="527.461" gradientUnits="userSpaceOnUse"><stop stop-color="#43E29B"/><stop offset="1" stop-color="#289062"/></linearGradient><linearGradient id="t" x1="167.74" y1="533.33" x2="1589.39" y2="533.33" gradientUnits="userSpaceOnUse"><stop stop-color="#43E29B"/><stop offset="1" stop-color="#289062"/></linearGradient><linearGradient id="u" x1="173.057" y1="539.213" x2="1600.44" y2="539.213" gradientUnits="userSpaceOnUse"><stop stop-color="#43E29B"/><stop offset="1" stop-color="#289062"/></linearGradient><linearGradient id="v" x1="176.767" y1="545.111" x2="1611.73" y2="545.111" gradientUnits="userSpaceOnUse"><stop stop-color="#43E29B"/><stop offset="1" stop-color="#289062"/></linearGradient><linearGradient id="w" x1="179.839" y1="551.021" x2="1623.26" y2="551.021" gradientUnits="userSpaceOnUse"><stop stop-color="#43E29B"/><stop offset="1" stop-color="#289062"/></linearGradient><linearGradient id="x" x1="182.913" y1="556.943" x2="1635.04" y2="556.943" gradientUnits="userSpaceOnUse"><stop stop-color="#43E29B"/><stop offset="1" stop-color="#289062"/></linearGradient><linearGradient id="y" x1="185.985" y1="562.89" x2="1647.08" y2="562.89" gradientUnits="userSpaceOnUse"><stop stop-color="#43E29B"/><stop offset="1" stop-color="#289062"/></linearGradient><linearGradient id="z" x1="189.059" y1="568.849" x2="1659.39" y2="568.849" gradientUnits="userSpaceOnUse"><stop stop-color="#43E29B"/><stop offset="1" stop-color="#289062"/></linearGradient><linearGradient id="A" x1="192.133" y1="574.832" x2="1671.98" y2="574.832" gradientUnits="userSpaceOnUse"><stop stop-color="#43E29B"/><stop offset="1" stop-color="#289062"/></linearGradient><linearGradient id="B" x1="195.205" y1="580.833" x2="1684.84" y2="580.833" gradientUnits="userSpaceOnUse"><stop stop-color="#43E29B"/><stop offset="1" stop-color="#289062"/></linearGradient><linearGradient id="C" x1="198.279" y1="586.858" x2="1698" y2="586.858" gradientUnits="userSpaceOnUse"><stop stop-color="#43E29B"/><stop offset="1" stop-color="#289062"/></linearGradient><linearGradient id="D" x1="201.352" y1="592.913" x2="1711.44" y2="592.913" gradientUnits="userSpaceOnUse"><stop stop-color="#43E29B"/><stop offset="1" stop-color="#289062"/></linearGradient><linearGradient id="E" x1="204.426" y1="598.991" x2="1725.15" y2="598.991" gradientUnits="userSpaceOnUse"><stop stop-color="#43E29B"/><stop offset="1" stop-color="#289062"/></linearGradient><linearGradient id="F" x1="207.5" y1="605.103" x2="1739.17" y2="605.103" gradientUnits="userSpaceOnUse"><stop stop-color="#43E29B"/><stop offset="1" stop-color="#289062"/></linearGradient><linearGradient id="G" x1="210.572" y1="611.245" x2="1753.45" y2="611.245" gradientUnits="userSpaceOnUse"><stop stop-color="#43E29B"/><stop offset="1" stop-color="#289062"/></linearGradient><linearGradient id="H" x1="213.646" y1="617.425" x2="1768" y2="617.425" gradientUnits="userSpaceOnUse"><stop stop-color="#43E29B"/><stop offset="1" stop-color="#289062"/></linearGradient><linearGradient id="I" x1="216.719" y1="623.648" x2="1782.8" y2="623.648" gradientUnits="userSpaceOnUse"><stop stop-color="#43E29B"/><stop offset="1" stop-color="#289062"/></linearGradient><linearGradient id="J" x1="219.793" y1="629.918" x2="1797.86" y2="629.918" gradientUnits="userSpaceOnUse"><stop stop-color="#43E29B"/><stop offset="1" stop-color="#289062"/></linearGradient><linearGradient id="K" x1="222.867" y1="636.232" x2="1813.15" y2="636.232" gradientUnits="userSpaceOnUse"><stop stop-color="#43E29B"/><stop offset="1" stop-color="#289062"/></linearGradient><linearGradient id="L" x1="225.939" y1="642.6" x2="1828.65" y2="642.6" gradientUnits="userSpaceOnUse"><stop stop-color="#43E29B"/><stop offset="1" stop-color="#289062"/></linearGradient><linearGradient id="M" x1="229.014" y1="649.03" x2="1844.36" y2="649.03" gradientUnits="userSpaceOnUse"><stop stop-color="#43E29B"/><stop offset="1" stop-color="#289062"/></linearGradient><linearGradient id="N" x1="232.085" y1="655.521" x2="1860.23" y2="655.521" gradientUnits="userSpaceOnUse"><stop stop-color="#43E29B"/><stop offset="1" stop-color="#289062"/></linearGradient><linearGradient id="O" x1="235.16" y1="662.08" x2="1876.31" y2="662.08" gradientUnits="userSpaceOnUse"><stop stop-color="#43E29B"/><stop offset="1" stop-color="#289062"/></linearGradient><linearGradient id="P" x1="238.231" y1="668.715" x2="1892.55" y2="668.715" gradientUnits="userSpaceOnUse"><stop stop-color="#43E29B"/><stop offset="1" stop-color="#289062"/></linearGradient></defs></svg>