<svg width="2004" height="1239" fill="none" xmlns="http://www.w3.org/2000/svg"><path d="M1297.08 1238.28c10.18-13.91 20.37-27.81 30.55-41.72 34.92-47.66 59.91-100.39 52.59-161.65-8.13-68.005-53.67-128.29-116.27-152.53-53.11-20.565-109.7-37.263-137.91-93.103-21.36-42.278-33.78-88.684-76-116.336-42.18-27.619-97.436-21.418-145.193-6.077-47.756 15.341-93.74 38.908-143.581 43.557-41.56 3.878-84.241-6.101-120.051-28.066-83.464-51.195-124.838-160.933-214.822-198.787-50.685-21.322-109.164-15.39-160.489 4.26-56.825 21.755-102.928 70.432-159.659 87.613-30.123 9.121-102.228 31.446-69.4 75.986" stroke="url(#a)" stroke-miterlimit="10"/><path d="M1314.3 1231.91c9.38-13.62 18.79-27.37 28.21-41.16 5.98-8.75 11.64-17.69 16.84-26.82 22.75-40.2 36.59-84.13 29.67-133.81-4.78-34.118-18.72-66.444-39.3-93.534-20.24-26.637-47.07-47.963-78.07-60.555-52.91-21.422-109.46-38.927-138.57-94.086-5.85-11.054-11.11-22.367-16.46-33.52-14.9-31.014-30.5-60.783-61.84-80.556-42.65-26.846-98.088-20.495-146.196-5.44-23.396 7.318-46.379 16.479-69.579 24.394-24.52 8.368-49.271 15.337-74.971 17.334-41.702 3.236-84.379-7.312-120.123-29.748-7.355-4.616-14.38-9.687-21.135-15.123-33.769-27.176-60.795-63.449-89.188-97.579-30.263-36.37-62.077-70.291-104.548-88.427-25.897-11.059-53.828-15.122-81.841-13.919-27 1.158-54.074 7.212-79.47 16.596-7.324 2.707-14.479 5.852-21.505 9.318-31.216 15.371-59.754 37.189-89.704 54.545-16.108 9.338-32.562 17.465-49.95 22.785-30.534 9.364-101.862 31.861-70.602 76.474" stroke="url(#b)" stroke-miterlimit="10"/><path d="M1331.52 1225.55c8.57-13.34 17.2-26.93 25.86-40.61 5.51-8.67 10.7-17.55 15.44-26.62 20.7-39.94 32.87-83.53 25-132.99-5.46-33.991-19.77-66.361-40.46-93.827-20.31-26.937-47.08-48.668-78.01-61.817-52.71-22.281-109.21-40.594-139.23-95.071-6.05-10.928-11.54-22.082-17.13-33.051-15.57-30.507-31.84-59.556-63.46-78.763-43.13-26.071-98.751-19.569-147.209-4.803-23.577 7.178-46.748 16.101-70.125 23.703-24.701 8.039-49.605 14.593-75.391 16.194-41.845 2.595-84.518-8.524-120.195-31.433-7.341-4.714-14.35-9.878-21.086-15.406-33.679-27.651-60.505-64.339-88.912-98.79-30.265-36.691-62.315-70.809-104.922-89.27-25.982-11.258-54.011-15.596-82.153-14.679-27.135.88-54.373 6.647-79.979 15.774-7.384 2.633-14.6 5.704-21.694 9.095-31.565 15.041-60.345 36.726-90.631 53.882-16.279 9.228-32.868 17.312-50.335 22.704-30.943 9.607-101.494 32.28-71.804 76.963" stroke="url(#c)" stroke-miterlimit="10"/><path d="M1348.73 1219.19c7.78-13.07 15.63-26.49 23.52-40.05 5.03-8.61 9.78-17.41 14.04-26.42 18.75-39.62 29.16-82.95 20.33-132.19-6.15-33.859-20.82-66.27-41.62-94.114-20.38-27.236-47.1-49.375-77.96-63.081-52.51-23.138-108.96-42.258-139.88-96.055-6.26-10.802-11.97-21.799-17.81-32.585-16.23-29.996-33.17-58.329-65.08-76.971-43.61-25.295-99.404-18.645-148.214-4.167-23.757 7.039-47.117 15.721-70.67 23.012-24.882 7.708-49.942 13.848-75.81 15.055-41.987 1.954-84.656-9.732-120.268-33.114-7.328-4.811-14.322-10.069-21.037-15.691-33.587-28.126-60.215-65.232-88.637-100.004-30.265-37.009-62.553-71.327-105.297-90.112-26.068-11.458-54.191-16.07-82.463-15.438-27.27.601-54.674 6.082-80.489 14.953-7.443 2.561-14.723 5.554-21.882 8.87-31.917 14.715-60.939 36.263-91.557 53.219-16.45 9.118-33.174 17.157-50.719 22.626-31.355 9.846-101.128 32.694-73.005 77.451" stroke="url(#d)" stroke-miterlimit="10"/><path d="M1365.95 1212.83c6.98-12.79 14.05-26.06 21.18-39.5 4.54-8.53 8.84-17.27 12.64-26.21 16.72-39.36 25.44-82.37 15.65-131.38-6.83-33.734-21.87-66.188-42.78-94.411-20.44-27.537-47.11-50.081-77.9-64.345-52.31-23.996-108.59-44.001-140.53-97.038-6.44-10.692-12.42-21.515-18.49-32.118-16.9-29.486-34.47-57.167-66.7-75.176-44.05-24.613-100.067-17.72-149.227-3.531-23.938 6.9-47.485 15.342-71.216 22.318-25.062 7.379-50.275 13.104-76.231 13.917-42.129 1.313-84.794-10.944-120.339-34.798-7.314-4.907-14.292-10.262-20.988-15.975-33.497-28.602-59.925-66.124-88.36-101.215-30.267-37.33-62.791-71.845-105.672-90.955-26.153-11.658-54.372-16.544-82.775-16.197-27.402.322-54.973 5.518-80.997 14.131-7.501 2.486-14.845 5.404-22.069 8.646-32.267 14.385-61.53 35.798-92.483 52.555-16.622 9.009-33.479 17.003-51.106 22.547-31.763 10.088-100.758 33.11-74.206 77.939" stroke="url(#e)" stroke-miterlimit="10"/><path d="M1383.17 1206.46c6.17-12.51 12.46-25.61 18.83-38.94 4.06-8.45 7.9-17.13 11.24-26.01 14.71-39.08 21.72-81.78 10.98-130.56-7.51-33.609-22.92-66.105-43.93-94.705-20.52-27.837-47.11-50.858-77.86-65.608-52.05-24.971-108.31-45.686-141.18-98.023-6.64-10.569-12.85-21.229-19.17-31.649-17.56-28.976-35.8-55.956-68.31-73.384-44.52-23.861-100.729-16.797-150.24-2.895-24.118 6.76-47.854 14.965-71.762 21.627-25.242 7.048-50.611 12.359-76.651 12.779-42.271.671-84.933-12.155-120.412-36.48-7.301-5.006-14.264-10.453-20.941-16.261-33.406-29.077-59.632-67.013-88.083-102.428-30.269-37.649-63.029-72.362-106.046-91.797-26.238-11.858-54.553-17.019-83.086-16.958-27.539.045-55.273 4.953-81.507 13.31-7.561 2.411-14.967 5.255-22.259 8.421-32.618 14.059-62.124 35.336-93.409 51.892-16.793 8.899-33.785 16.847-51.49 22.466-32.175 10.331-100.392 33.525-75.409 78.428" stroke="url(#f)" stroke-miterlimit="10"/><path d="M1400.39 1200.1c5.37-12.23 10.88-25.17 16.48-38.39 3.59-8.38 6.97-16.99 9.85-25.8 12.68-38.82 18.09-81.22 6.31-129.76-8.14-33.492-23.97-66.014-45.1-94.99-20.58-28.136-47.12-51.575-77.8-66.872-51.84-25.848-108.05-47.37-141.84-99.008-6.84-10.447-13.28-20.945-19.84-31.182-18.23-28.466-37.13-54.743-69.94-71.592-44.99-23.104-101.382-15.871-151.245-2.259-24.299 6.621-48.223 14.585-72.307 20.936-25.421 6.719-50.946 11.613-77.073 11.64-42.413.032-85.07-13.366-120.483-38.163-7.287-5.103-14.235-10.644-20.892-16.544-33.316-29.552-59.342-67.906-87.809-103.64-30.269-37.968-63.267-72.88-106.419-92.64-26.324-12.056-54.733-17.492-83.399-17.718-27.673-.234-55.573 4.388-82.018 12.489-7.618 2.338-15.09 5.105-22.447 8.197-32.968 13.73-62.716 34.872-94.335 51.229-16.964 8.791-34.091 16.694-51.874 22.388-32.584 10.571-100.025 33.943-76.61 78.916" stroke="url(#g)" stroke-miterlimit="10"/><path d="M1417.61 1193.74c4.56-11.95 9.27-24.75 14.14-37.84 3.08-8.3 6.02-16.85 8.44-25.59 10.66-38.56 14.39-80.64 1.64-128.95-8.82-33.37-25.02-65.93-46.26-95.285-20.65-28.435-47.13-52.291-77.74-68.136-51.64-26.722-107.78-49.054-142.5-99.99-7.04-10.326-13.72-20.662-20.52-30.714-18.9-27.956-38.46-53.53-71.56-69.798-45.46-22.35-102.036-14.947-152.248-1.623-24.48 6.481-48.594 14.207-72.855 20.244-25.602 6.391-51.282 10.869-77.493 10.501-42.556-.609-85.209-14.577-120.556-39.845-7.274-5.199-14.206-10.835-20.845-16.83-33.223-30.028-59.052-68.796-87.532-104.852-30.27-38.29-63.507-73.399-106.793-93.484-26.409-12.257-54.916-17.966-83.711-18.478-27.805-.512-55.87 3.824-82.527 11.668-7.677 2.263-15.211 4.955-22.633 7.972-33.32 13.403-63.31 34.41-95.262 50.566-17.134 8.681-34.409 16.501-52.258 22.309-33.016 10.742-99.658 34.358-77.81 79.404" stroke="url(#h)" stroke-miterlimit="10"/><path d="M1434.83 1187.38c3.76-11.67 7.69-24.31 11.79-37.28 2.6-8.24 5.09-16.72 7.04-25.4 8.64-38.3 10.69-80.05-3.03-128.133-9.49-33.248-26.07-65.848-47.43-95.581-20.71-28.736-47.13-53.006-77.68-69.398-51.42-27.594-107.51-50.738-143.15-100.975-7.24-10.203-14.15-20.377-21.19-30.247-19.57-27.446-39.8-52.315-73.18-68.006-45.94-21.592-102.703-14.022-153.264-.987-24.661 6.341-48.964 13.829-73.401 19.554-25.782 6.059-51.617 10.124-77.914 9.362-42.698-1.251-85.347-15.786-120.627-41.529-7.259-5.298-14.178-11.026-20.797-17.114-33.133-30.502-58.762-69.688-87.255-106.065-30.271-38.609-63.746-73.918-107.168-94.328-26.493-12.456-55.096-18.439-84.022-19.239-27.94-.789-56.17 3.26-83.036 10.847-7.737 2.188-15.328 4.819-22.824 7.748-33.644 13.143-63.901 33.947-96.187 49.902-17.306 8.571-34.717 16.343-52.645 22.23-33.43 10.977-99.289 34.774-79.01 79.893" stroke="url(#i)" stroke-miterlimit="10"/><path d="M1452.05 1181.02c2.95-11.4 6.1-23.87 9.44-36.73 2.12-8.16 4.15-16.58 5.65-25.19 6.61-38.05 6.98-79.47-7.71-127.324-10.17-33.126-27.12-65.764-48.59-95.875-20.77-29.035-47.14-53.721-77.62-70.663-51.21-28.462-107.26-52.421-143.81-101.957-7.44-10.081-14.58-20.093-21.86-29.78-20.24-26.936-41.14-51.1-74.81-66.212-46.41-20.836-103.354-13.098-154.267-.349-24.841 6.201-49.333 13.449-73.947 18.86-25.963 5.731-51.953 9.38-78.334 8.224-42.838-1.89-85.486-16.997-120.701-43.211-7.245-5.394-14.148-11.219-20.746-17.397-33.043-30.977-58.472-70.58-86.979-107.276-30.272-38.928-63.984-74.436-107.543-95.171-26.577-12.655-55.276-18.914-84.333-19.999-28.074-1.069-56.47 2.694-83.545 10.024-7.795 2.115-15.451 4.671-23.012 7.523-33.994 12.822-64.495 33.484-97.116 49.241-17.478 8.462-35.022 16.185-53.028 22.149-33.843 11.211-98.922 35.191-80.214 80.381" stroke="url(#j)" stroke-miterlimit="10"/><path d="M1469.27 1174.65c2.15-11.11 4.51-23.43 7.09-36.17 1.64-8.08 3.22-16.45 4.25-24.98 4.59-37.81 3.27-78.9-12.38-126.516-10.85-33.003-28.17-65.678-49.75-96.165-20.84-29.335-47.15-54.434-77.57-71.928-51-29.333-106.99-54.103-144.46-102.942-7.64-9.957-15.02-19.809-22.54-29.311-20.91-26.426-42.47-49.883-76.42-64.42-46.89-20.076-104.017-12.173-155.283.287-25.021 6.062-49.701 13.071-74.492 18.169-26.143 5.4-52.289 8.636-78.755 7.086-42.982-2.533-85.624-18.209-120.771-44.895-7.232-5.492-14.12-11.41-20.699-17.682-32.952-31.452-58.182-71.471-86.704-108.49-30.274-39.248-64.222-74.954-107.917-96.014-26.664-12.856-55.458-19.388-84.645-20.757-28.209-1.347-56.769 2.131-84.054 9.205-7.854 2.04-15.572 4.524-23.2 7.298-34.344 12.502-65.089 33.022-98.042 48.577-17.649 8.352-35.329 16.029-53.413 22.071C75.261 458.52 10.96 482.68 28.1 527.941" stroke="url(#k)" stroke-miterlimit="10"/><path d="M1486.48 1168.29c1.35-10.83 2.93-22.99 4.75-35.62 1.16-8 2.28-16.31 2.86-24.77 2.55-37.57-.44-78.32-17.06-125.709-11.53-32.88-29.22-65.596-50.91-96.459-20.91-29.636-47.16-55.147-77.51-73.19-50.79-30.199-106.74-55.785-145.12-103.926-7.84-9.835-15.45-19.524-23.21-28.845-21.58-25.916-43.81-48.666-78.05-62.628-47.37-19.315-104.671-11.249-156.288.923-25.202 5.924-50.07 12.693-75.037 17.478-26.324 5.071-52.624 7.891-79.177 5.947-43.122-3.172-85.762-19.419-120.844-46.576-7.218-5.589-14.091-11.601-20.65-17.966-32.861-31.929-57.892-72.363-86.427-109.701-30.275-39.567-64.461-75.472-108.291-96.857-26.748-13.054-55.64-19.86-84.955-21.516-28.344-1.625-57.07 1.565-84.564 8.381-7.914 1.967-15.693 4.374-23.386 7.074-34.694 12.178-65.681 32.558-98.968 47.913-17.821 8.244-35.637 15.871-53.798 21.992-34.666 11.684-98.188 36.022-82.615 81.358" stroke="url(#l)" stroke-miterlimit="10"/><path d="M1503.7 1161.93c.55-10.56 1.35-22.55 2.41-35.07.67-7.93 1.33-16.18 1.45-24.56.52-37.34-4.15-77.74-21.73-124.902-12.21-32.758-30.27-65.512-52.07-96.753-20.97-29.935-47.18-55.858-77.46-74.454-50.58-31.064-106.48-57.464-145.77-104.909-8.04-9.713-15.89-19.24-23.89-28.376-22.24-25.408-45.14-47.447-79.67-60.834-47.84-18.553-105.33-10.323-157.294 1.559-25.383 5.784-50.439 12.315-75.584 16.787-26.503 4.742-52.959 7.145-79.597 4.807-43.264-3.815-85.901-20.629-120.917-48.26-7.205-5.686-14.062-11.792-20.602-18.252-32.771-32.403-57.602-73.252-86.151-110.914-30.276-39.886-64.699-75.99-108.665-97.699-26.833-13.254-55.82-20.336-85.269-22.277-28.478-1.905-57.369 1.002-85.072 7.56-7.972 1.892-15.817 4.226-23.577 6.849-35.043 11.854-66.275 32.096-99.894 47.25-17.991 8.133-35.943 15.713-54.184 21.913-35.077 11.92-97.819 36.438-83.818 81.844" stroke="url(#m)" stroke-miterlimit="10"/><path d="M1520.92 1155.57c-.25-10.28-.24-22.11.06-34.51.19-7.86.39-16.05.05-24.37-1.51-37.1-7.86-77.15-26.4-124.084-12.89-32.633-31.32-65.426-53.23-97.046-21.04-30.234-47.19-56.568-77.4-75.718-50.38-31.928-106.23-59.144-146.42-105.894-8.25-9.588-16.33-18.954-24.57-27.909-22.91-24.898-46.48-46.228-81.29-59.042-48.32-17.791-105.99-9.4-158.305 2.196-25.564 5.644-50.808 11.934-76.129 16.095-26.684 4.411-53.294 6.4-80.018 3.669-43.407-4.455-86.039-21.84-120.988-49.942-7.192-5.782-14.034-11.985-20.555-18.535-32.68-32.878-57.311-74.145-85.876-112.125-30.278-40.208-64.937-76.508-109.039-98.543-26.92-13.454-56.001-20.808-85.58-23.037-28.613-2.182-57.669.437-85.582 6.739-8.031 1.82-15.94 4.076-23.765 6.625-35.393 11.53-66.866 31.633-100.82 46.588-18.163 8.023-36.25 15.557-54.568 21.832-35.491 12.156-97.452 36.855-85.02 82.333" stroke="url(#n)" stroke-miterlimit="10"/><path d="M1538.14 1149.2c-1.06-10-1.82-21.66-2.29-33.95-.29-7.78-.55-15.92-1.34-24.16-3.57-36.88-11.58-76.58-31.08-123.279-13.57-32.511-32.37-65.342-54.38-97.337-21.11-30.534-47.21-57.278-77.35-76.981-50.17-32.791-105.98-60.822-147.08-106.879-8.45-9.464-16.76-18.671-25.25-27.442-23.57-24.388-47.81-45.007-82.9-57.25-48.81-17.027-106.65-8.474-159.319 2.832-25.744 5.504-51.176 11.556-76.676 15.404-26.864 4.082-53.63 5.656-80.439 2.53-43.549-5.094-86.175-23.05-121.059-51.625-7.178-5.881-14.005-12.176-20.505-18.821-32.589-33.354-57.021-75.037-85.599-113.338-30.278-40.527-65.175-77.026-109.414-99.386-27.004-13.653-56.182-21.282-85.891-23.797-28.747-2.459-57.969-.128-86.092 5.918-8.09 1.745-16.06 3.927-23.953 6.4-35.744 11.206-67.46 31.171-101.746 45.925-18.333 7.914-36.555 15.402-54.952 21.753-35.902 12.395-97.085 37.271-86.22 82.821" stroke="url(#o)" stroke-miterlimit="10"/><path d="M1555.36 1142.84c-1.86-9.72-3.41-21.22-4.63-33.4-.78-7.7-1.5-15.79-2.75-23.95-5.61-36.65-15.29-76-35.75-122.468-14.25-32.388-33.41-65.258-55.54-97.631-21.18-30.836-47.22-57.987-77.3-78.245-49.96-33.652-105.72-62.5-147.73-107.862-8.65-9.342-17.19-18.387-25.92-26.973-24.25-23.878-49.15-43.786-84.53-55.456-49.29-16.261-107.3-7.551-160.323 3.468-25.927 5.364-51.548 11.176-77.222 14.711-27.045 3.751-53.965 4.911-80.86 1.392-43.691-5.737-86.314-24.262-121.132-53.308-7.165-5.976-13.976-12.367-20.457-19.104-32.497-33.829-56.731-75.927-85.322-114.551-30.28-40.846-65.416-77.544-109.789-100.228-27.089-13.855-56.362-21.757-86.203-24.558-28.881-2.739-58.268-.691-86.602 5.097-8.148 1.67-16.183 3.777-24.141 6.176-36.096 10.88-68.052 30.707-102.672 45.26-18.505 7.805-36.861 15.247-55.337 21.675-36.313 12.635-96.718 37.686-87.42 83.31" stroke="url(#p)" stroke-miterlimit="10"/><path d="M1572.58 1136.48c-2.67-9.44-4.99-20.78-6.98-32.85-1.26-7.62-2.44-15.66-4.14-23.75-7.67-36.42-19.01-75.41-40.42-121.652-14.94-32.263-34.47-65.172-56.71-97.924-21.25-31.135-47.23-58.695-77.24-79.509-49.76-34.512-105.48-64.176-148.39-108.846-8.85-9.219-17.63-18.102-26.6-26.507-24.91-23.368-50.49-42.563-86.15-53.664-49.77-15.493-107.96-6.625-161.329 4.104-26.107 5.225-51.916 10.798-77.767 14.02-27.226 3.422-54.301 4.167-81.28.254-43.834-6.377-86.453-25.472-121.206-54.992-7.151-6.075-13.947-12.558-20.408-19.389-32.407-34.304-56.441-76.82-85.048-115.763-30.28-41.166-65.654-78.062-110.162-101.073-27.173-14.053-56.544-22.23-86.513-25.318-29.016-3.017-58.566-1.256-87.112 4.276-8.208 1.597-16.304 3.627-24.328 5.951-36.445 10.556-68.645 30.245-103.6 44.599-18.675 7.696-37.168 15.091-55.722 21.596-36.725 12.873-96.35 38.102-88.624 83.798" stroke="url(#q)" stroke-miterlimit="10"/><path d="M1589.8 1130.12c-3.47-9.16-6.58-20.34-9.33-32.3-1.73-7.54-3.38-15.52-5.54-23.54-9.73-36.2-22.72-74.832-45.09-120.845-15.62-32.139-35.52-65.088-57.87-98.218-21.31-31.434-47.24-59.4-77.18-80.771-49.56-35.369-105.24-65.85-149.05-109.831-9.06-9.094-18.06-17.818-27.27-26.04-25.58-22.858-51.83-41.34-87.77-51.872-50.25-14.724-108.62-5.701-162.341 4.742-26.288 5.087-52.285 10.42-78.313 13.329-27.406 3.093-54.636 3.422-81.701-.887-43.976-7.018-86.591-26.682-121.277-56.673-7.138-6.171-13.918-12.751-20.36-19.673-32.317-34.78-56.151-77.709-84.771-116.976-30.283-41.485-65.892-78.581-110.537-101.916-27.259-14.252-56.725-22.704-86.825-26.077-29.15-3.295-58.865-1.822-87.62 3.454-8.266 1.522-16.428 3.48-24.518 5.729-36.798 10.228-69.239 29.78-104.527 43.935-18.846 7.586-37.473 14.935-56.106 21.515-37.136 13.113-95.983 38.52-89.825 84.287" stroke="url(#r)" stroke-miterlimit="10"/><path d="M1607.02 1123.75c-4.28-8.88-8.16-19.89-11.68-31.74-2.21-7.46-4.33-15.39-6.94-23.33-11.8-35.97-26.44-74.256-49.76-120.038-16.31-32.015-36.57-65.004-59.03-98.509-21.38-31.736-47.26-60.108-77.13-82.036-49.35-36.228-104.99-67.522-149.7-110.814-9.26-8.968-18.5-17.535-27.94-25.571-26.25-22.348-53.17-40.115-89.39-50.078-50.74-13.955-109.28-4.776-163.354 5.378-26.468 4.947-52.654 10.04-78.859 12.637-27.587 2.763-54.972 2.677-82.122-2.024-44.118-7.659-86.729-27.894-121.349-58.357-7.125-6.268-13.89-12.942-20.313-19.959-32.224-35.255-55.859-78.601-84.494-118.187-30.284-41.804-66.131-79.099-110.911-102.759-27.345-14.452-56.906-23.178-87.138-26.835-29.285-3.575-59.166-2.385-88.13 2.633-8.325 1.447-16.55 3.328-24.706 5.502-37.149 9.904-69.831 29.319-105.453 43.272-19.017 7.475-37.779 14.781-56.491 21.436-37.547 13.354-95.615 38.935-91.025 84.775" stroke="url(#s)" stroke-miterlimit="10"/><path d="M1624.23 1117.39c-5.07-8.6-9.73-19.45-14.01-31.18-2.7-7.39-5.29-15.27-8.34-23.13-13.88-35.74-30.17-73.674-54.44-119.23-17-31.891-37.62-64.918-60.19-98.802-21.45-32.035-47.28-60.815-77.07-83.3-49.15-37.083-104.75-69.192-150.36-111.799-9.46-8.844-18.93-17.249-28.62-25.104-26.92-21.838-54.51-38.89-91.01-48.286-51.22-13.183-109.94-3.852-164.359 6.014-26.649 4.807-53.023 9.662-79.405 11.946-27.765 2.434-55.306 1.932-82.543-3.163-44.259-8.3-86.867-29.104-121.42-60.04-7.111-6.365-13.861-13.133-20.263-20.243-32.134-35.729-55.57-79.491-84.217-119.399-30.285-42.126-66.369-79.618-111.286-103.602-27.429-14.652-57.087-23.652-87.449-27.596-29.42-3.852-59.466-2.95-88.639 1.812-8.385 1.374-16.674 3.18-24.895 5.277-37.501 9.577-70.425 28.855-106.378 42.61-19.191 7.368-38.085 14.627-56.876 21.358-37.958 13.596-95.248 39.351-92.228 85.263" stroke="url(#t)" stroke-miterlimit="10"/><path d="M1641.45 1111.03c-5.88-8.32-11.31-19.01-16.36-30.63-3.18-7.31-6.24-15.14-9.74-22.93-15.96-35.5-33.88-73.083-59.11-118.413-17.68-31.765-38.67-64.834-61.35-99.096-21.51-32.334-47.29-61.519-77.02-84.564-48.94-37.937-104.5-70.862-151-112.783-9.68-8.718-19.37-16.966-29.3-24.636-27.59-21.328-55.85-37.663-92.63-46.492-51.71-12.41-110.6-2.926-165.372 6.651-26.83 4.667-53.392 9.283-79.951 11.254-27.945 2.103-55.641 1.188-82.963-4.301-44.402-8.94-87.005-30.313-121.493-61.722-7.098-6.463-13.832-13.324-20.215-20.526-32.044-36.206-55.278-80.384-83.943-120.613-30.286-42.445-66.607-80.135-111.66-104.445-27.514-14.85-57.269-24.126-87.761-28.356-29.554-4.13-59.765-3.515-89.148.991-8.442 1.299-16.794 3.028-25.083 5.053-37.852 9.248-71.016 28.392-107.304 41.946-19.362 7.257-38.39 14.473-57.262 21.279-38.367 13.836-94.881 39.766-93.428 85.752" stroke="url(#u)" stroke-miterlimit="10"/><path d="M1658.67 1104.67c-6.68-8.05-12.89-18.57-18.71-30.08-3.65-7.23-7.19-15-11.14-22.72-18.04-35.26-37.6-72.503-63.78-117.604-18.37-31.641-39.72-64.749-62.51-99.388-21.58-32.635-47.3-62.222-76.96-85.826-48.74-38.792-104.26-72.53-151.66-113.766-9.88-8.592-19.8-16.682-29.97-24.169-28.26-20.82-57.19-36.437-94.26-44.7-52.19-11.634-111.25-2.003-166.375 7.287-27.01 4.527-53.761 8.903-80.498 10.561-28.127 1.774-55.976.443-83.384-5.441-44.544-9.583-87.144-31.525-121.565-63.406-7.084-6.56-13.801-13.518-20.166-20.812-31.954-36.68-54.989-81.276-83.666-121.824-30.288-42.764-66.846-80.653-112.035-105.287-27.6-15.052-57.45-24.599-88.072-29.117-29.689-4.409-60.065-4.078-89.657.168-8.502 1.227-16.918 2.879-25.272 4.83-38.204 8.919-71.61 27.929-108.23 41.283-19.533 7.149-38.698 14.319-57.646 21.198-38.778 14.079-94.512 40.184-94.63 86.24" stroke="url(#v)" stroke-miterlimit="10"/><path d="M1675.89 1098.3c-7.49-7.76-14.47-18.12-21.06-29.52-4.13-7.15-8.14-14.87-12.53-22.51-20.13-35.03-41.32-71.923-68.46-116.799-19.05-31.515-40.76-64.665-63.67-99.681-21.65-32.935-47.32-62.928-76.91-87.091-48.53-39.645-104.02-74.196-152.31-114.751-10.08-8.468-20.24-16.396-30.65-23.702-28.92-20.31-58.53-35.208-95.88-42.908-52.67-10.858-111.91-1.077-167.382 7.923-27.19 4.388-54.131 8.525-81.043 9.87-28.307 1.444-56.313-.301-83.805-6.579-44.687-10.223-87.283-32.736-121.638-65.088a276.175 276.175 0 0 1-20.118-21.096c-31.862-37.155-54.699-82.165-83.39-123.037-30.288-43.084-67.083-81.171-112.407-106.13-27.685-15.25-57.631-25.073-88.384-29.877-29.823-4.686-60.364-4.643-90.166-.653-8.561 1.152-17.04 2.729-25.46 4.606-38.555 8.59-72.201 27.466-109.156 40.619-19.704 7.038-39.003 14.165-58.03 21.119-39.188 14.323-94.146 40.599-95.83 86.729" stroke="url(#w)" stroke-miterlimit="10"/><path d="M1693.11 1091.94c-8.29-7.48-16.05-17.68-23.4-28.96-4.61-7.08-9.1-14.74-13.94-22.31-22.22-34.78-45.04-71.337-73.12-115.987-19.75-31.389-41.82-64.58-64.84-99.974-21.71-33.235-47.33-63.631-76.85-88.356-48.33-40.495-103.78-75.86-152.97-115.734-10.29-8.341-20.67-16.113-31.32-23.234-29.59-19.8-59.87-33.979-97.5-41.114-53.15-10.081-112.57-.153-168.392 8.559-27.371 4.248-54.498 8.147-81.589 9.179-28.488 1.114-56.647-1.048-84.226-7.718-44.828-10.863-87.42-33.947-121.708-66.772a278.35 278.35 0 0 1-20.069-21.381c-31.771-37.629-54.408-83.057-83.115-124.248-30.289-43.403-67.321-81.689-112.782-106.975-27.769-15.451-57.811-25.548-88.694-30.637-29.958-4.964-60.665-5.208-90.676-1.475-8.619 1.078-17.163 2.58-25.648 4.382-38.909 8.261-72.795 27.003-110.084 39.958-19.875 6.93-39.309 14.011-58.415 21.04-39.598 14.565-93.778 41.015-97.033 87.217" stroke="url(#x)" stroke-miterlimit="10"/><path d="M1710.33 1085.58c-9.09-7.21-17.63-17.25-25.75-28.41-5.09-7-10.05-14.6-15.34-22.1-24.31-34.53-48.76-70.754-77.79-115.18-20.44-31.261-42.87-64.495-66-100.268-21.78-33.533-47.35-64.332-76.79-89.618-48.14-41.345-103.55-77.522-153.63-116.717-10.49-8.214-21.11-15.829-32-22.767-30.26-19.29-61.21-32.748-99.12-39.322-53.64-9.303-113.22.772-169.398 9.195-27.552 4.11-54.869 7.767-82.135 8.488-28.666.786-56.983-1.792-84.644-8.856-44.971-11.505-87.559-35.156-121.782-68.454a281.253 281.253 0 0 1-20.02-21.664c-31.681-38.106-54.119-83.948-82.839-125.461-30.289-43.725-67.561-82.207-113.157-107.818-27.853-15.651-57.991-26.021-89.007-31.397-30.092-5.243-60.964-5.772-91.187-2.296-8.678 1.004-17.286 2.43-25.836 4.157-39.258 7.93-73.387 26.538-111.009 39.292-20.045 6.819-39.612 13.858-58.8 20.961-40.008 14.809-93.41 41.432-98.234 87.703" stroke="url(#y)" stroke-miterlimit="10"/><path d="M1727.55 1079.22c-9.9-6.93-19.21-16.81-28.1-27.86-5.57-6.93-11-14.46-16.73-21.9-26.41-34.27-52.49-70.164-82.47-114.366-21.12-31.135-43.92-64.41-67.16-100.559-21.85-33.835-47.37-65.035-76.74-90.882-47.94-42.196-103.31-79.182-154.28-117.702-10.7-8.088-21.54-15.544-32.67-22.3-30.93-18.78-62.55-31.515-100.74-37.53-54.12-8.523-113.89 1.696-170.411 9.833-27.733 3.97-55.238 7.389-82.681 7.797-28.847.454-57.317-2.537-85.065-9.997-45.113-12.144-87.697-36.367-121.853-70.137a284.83 284.83 0 0 1-19.972-21.95c-31.591-38.581-53.828-84.84-82.562-126.672-30.291-44.044-67.8-82.725-113.531-108.661-27.94-15.849-58.174-26.495-89.319-32.155-30.227-5.522-61.264-6.337-91.696-3.118-8.738.93-17.407 2.279-26.024 3.933-39.614 7.604-73.983 26.078-111.939 38.632-20.216 6.71-39.918 13.707-59.185 20.881-40.417 15.053-93.042 41.848-99.435 88.192" stroke="url(#z)" stroke-miterlimit="10"/><path d="M1744.77 1072.85c-10.7-6.64-20.79-16.36-30.44-27.3-6.05-6.85-11.96-14.32-18.14-21.69-28.5-34.014-56.21-69.582-87.14-113.559-21.81-31.007-44.97-64.326-68.32-100.852-21.91-34.135-47.39-65.736-76.68-92.147-47.74-43.045-103.08-80.84-154.93-118.685-10.91-7.96-21.98-15.26-33.36-21.831-31.59-18.27-63.89-30.283-102.36-35.736-54.6-7.741-114.54 2.622-171.42 10.469-27.909 3.831-55.603 7.011-83.222 7.106-29.028.126-57.654-3.281-85.486-11.135-45.255-12.787-87.836-37.578-121.926-71.819a287.653 287.653 0 0 1-19.924-22.234c-31.499-39.055-53.538-85.73-82.285-127.885-30.294-44.363-68.038-83.245-113.905-109.504-28.024-16.05-58.354-26.968-89.63-32.915-30.361-5.8-61.563-6.9-92.205-3.939-8.795.857-17.53 2.129-26.212 3.709-39.964 7.27-74.575 25.615-112.863 37.968a1380.656 1380.656 0 0 0-59.571 20.8c-40.827 15.298-92.676 42.263-100.636 88.68" stroke="url(#A)" stroke-miterlimit="10"/><path d="M1761.99 1066.49c-11.51-6.37-22.37-15.93-32.79-26.75-6.53-6.77-12.91-14.18-19.53-21.48-30.6-33.749-59.94-68.996-91.82-112.75-22.5-30.879-46.02-64.241-69.48-101.146-21.98-34.434-47.4-66.437-76.62-93.409-47.55-43.894-102.85-82.499-155.59-119.669-11.11-7.832-22.41-14.975-34.03-21.366-32.26-17.759-65.23-29.049-103.98-33.943-55.09-6.957-115.2 3.545-172.43 11.105-28.091 3.691-55.973 6.631-83.771 6.412-29.208-.204-57.99-4.025-85.906-12.272-45.398-13.427-87.974-38.79-121.997-73.503a291.273 291.273 0 0 1-19.877-22.517c-31.408-39.532-53.247-86.623-82.01-129.097-30.293-44.684-68.276-83.763-114.279-110.347-28.109-16.249-58.535-27.442-89.941-33.675-30.496-6.077-61.861-7.466-92.714-4.76-8.856.782-17.653 1.977-26.401 3.484-40.319 6.938-75.169 25.15-113.793 37.303a1160.51 1160.51 0 0 0-59.953 20.723c-41.236 15.544-92.309 42.681-101.839 89.169" stroke="url(#B)" stroke-miterlimit="10"/><path d="M1779.2 1060.13c-12.3-6.09-23.94-15.49-35.13-26.19-7.01-6.7-13.86-14.05-20.93-21.29-32.69-33.472-63.66-68.398-96.49-111.931-23.19-30.751-47.07-64.157-70.64-101.438-22.05-34.733-47.43-67.138-76.57-94.673-47.35-44.741-102.61-84.153-156.24-120.654-11.32-7.704-22.85-14.691-34.7-20.896-32.93-17.25-66.58-27.815-105.61-32.152-55.57-6.173-115.86 4.471-173.43 11.742-28.278 3.55-56.349 6.252-84.322 5.72-29.388-.533-58.324-4.771-86.327-13.411-45.54-14.068-88.111-39.998-122.07-75.184a294.177 294.177 0 0 1-19.828-22.803c-31.318-40.007-52.958-87.514-81.734-130.31-30.295-45.002-68.515-84.28-114.653-111.189-28.194-16.448-58.716-27.917-90.253-34.436-30.63-6.357-62.161-8.031-93.223-5.581-8.913.707-17.776 1.828-26.59 3.259-40.67 6.606-75.76 24.686-114.717 36.638-20.729 6.382-40.834 13.247-60.339 20.644-41.645 15.79-91.942 43.097-103.04 89.657" stroke="url(#C)" stroke-miterlimit="10"/><path d="M1796.42 1053.77c-13.11-5.81-25.52-15.06-37.48-25.64-7.48-6.63-14.81-13.91-22.33-21.08-34.78-33.207-67.38-67.814-101.16-111.125-23.88-30.621-48.11-64.072-71.8-101.731-22.11-35.034-47.45-67.839-76.51-95.937-47.16-45.59-102.38-85.807-156.9-121.639-11.53-7.574-23.28-14.407-35.38-20.429-33.6-16.74-67.91-26.58-107.22-30.357-56.06-5.389-116.52 5.393-174.45 12.377-28.454 3.411-56.711 5.874-84.863 5.029-29.569-.862-58.66-5.516-86.748-14.549-45.681-14.709-88.25-41.21-122.141-76.868a297.037 297.037 0 0 1-19.778-23.087c-31.227-40.481-52.668-88.404-81.457-131.522-30.297-45.322-68.753-84.799-115.028-112.035-28.28-16.648-58.899-28.39-90.566-35.195-30.764-6.635-62.461-8.595-93.732-6.403-8.973.634-17.898 1.676-26.778 3.035-41.02 6.276-76.352 24.227-115.643 35.979-20.902 6.273-41.14 13.096-60.724 20.564-42.052 16.036-91.572 43.512-104.24 90.145" stroke="url(#D)" stroke-miterlimit="10"/><path d="M1813.64 1047.41c-13.91-5.54-27.1-14.62-39.82-25.09-7.97-6.55-15.77-13.77-23.73-20.87-36.88-32.936-71.11-67.227-105.84-110.318-24.57-30.491-49.16-63.987-72.96-102.024-22.18-35.334-47.47-68.539-76.46-97.2-46.96-46.434-102.14-87.457-157.55-122.621-11.73-7.446-23.72-14.122-36.05-19.963-34.27-16.232-69.25-25.344-108.85-28.565-56.54-4.601-117.17 6.317-175.45 13.013-28.639 3.271-57.085 5.494-85.413 4.338-29.748-1.193-58.994-6.26-87.169-15.687-45.824-15.351-88.387-42.421-122.214-78.55a300.147 300.147 0 0 1-19.73-23.372c-31.135-40.958-52.378-89.297-81.182-132.734-30.298-45.643-68.992-85.317-115.403-112.878-28.365-16.847-59.079-28.864-90.877-35.955-30.899-6.913-62.761-9.16-94.242-7.224a327.655 327.655 0 0 0-26.966 2.81c-41.381 5.861-76.943 23.762-116.567 35.314-21.073 6.162-41.43 12.984-61.108 20.485-42.429 16.369-91.206 43.928-105.443 90.634" stroke="url(#E)" stroke-miterlimit="10"/><path d="M1830.86 1041.04c-14.72-5.25-28.67-14.2-42.17-24.53-8.43-6.49-16.73-13.63-25.13-20.666-38.97-32.655-74.84-66.633-110.51-109.504-25.26-30.36-50.21-63.902-74.12-102.317-22.24-35.633-47.49-69.238-76.4-98.464-46.77-47.282-101.91-89.108-158.21-123.606-11.94-7.316-24.15-13.839-36.73-19.495-34.93-15.719-70.59-24.106-110.46-26.77-57.03-3.813-117.83 7.243-176.46 13.649-28.823 3.133-57.457 5.116-85.961 3.647-29.929-1.522-59.331-7.005-87.59-16.828-45.966-15.991-88.526-43.632-122.285-80.234a303.286 303.286 0 0 1-19.682-23.655c-31.045-41.433-52.088-90.187-80.906-133.947-30.299-45.962-69.229-85.835-115.776-113.72-28.449-17.047-59.259-29.337-91.188-36.716-31.033-7.192-63.06-9.725-94.751-8.047a332.484 332.484 0 0 0-27.154 2.586c-41.737 5.536-77.541 23.301-117.497 34.654-21.244 6.054-41.735 12.83-61.492 20.406-42.84 16.611-90.839 44.345-106.644 91.122" stroke="url(#F)" stroke-miterlimit="10"/><path d="M1848.08 1034.68c-15.52-4.98-30.25-13.77-44.52-23.98-8.91-6.42-17.68-13.481-26.52-20.458-41.06-32.376-78.57-66.043-115.18-108.695-25.96-30.229-51.27-63.817-75.29-102.609-22.31-35.934-47.51-69.936-76.34-99.728-46.58-48.126-101.68-90.756-158.86-124.591-12.15-7.186-24.59-13.555-37.41-19.028-35.6-15.211-71.93-22.867-112.08-24.978-57.52-3.023-118.49 8.168-177.48 14.287-28.996 2.993-57.82 4.738-86.5 2.956-30.109-1.853-59.665-7.749-88.01-17.966-46.109-16.631-88.664-44.841-122.359-81.916a306.353 306.353 0 0 1-19.634-23.941c-30.954-41.907-51.797-91.079-80.629-135.158-30.299-46.283-69.467-86.352-116.15-114.563-28.535-17.247-59.44-29.811-91.5-37.474-31.167-7.47-63.359-10.288-95.261-8.868a336.831 336.831 0 0 0-27.343 2.361c-42.086 5.203-78.133 22.835-118.423 33.987-21.415 5.943-42.041 12.676-61.878 20.327-43.25 16.853-90.472 44.761-107.845 91.611" stroke="url(#G)" stroke-miterlimit="10"/><path d="M1865.3 1028.32c-16.32-4.7-31.83-13.33-46.87-23.42-9.39-6.348-18.63-13.347-27.92-20.261-43.15-32.096-82.37-65.379-119.85-107.885-26.7-30.048-52.32-63.733-76.45-102.903-22.38-36.233-47.53-70.635-76.29-100.99-46.39-48.973-101.45-92.403-159.52-125.574-12.35-7.056-25.02-13.269-38.08-18.561-36.27-14.7-73.27-21.629-113.7-23.186-58-2.233-119.15 9.092-178.49 14.923-29.176 2.854-58.188 4.358-87.044 2.263-30.29-2.182-60.001-8.494-88.431-19.104-46.251-17.273-88.803-46.053-122.432-83.6a309.78 309.78 0 0 1-19.586-24.224c-30.864-42.382-51.505-91.971-80.354-136.372-30.301-46.602-69.708-86.87-116.525-115.406a327.092 327.092 0 0 0-91.811-38.234c-31.298-7.747-63.655-10.853-95.767-9.689a341.089 341.089 0 0 0-27.53 2.137c-42.435 4.878-78.723 22.375-119.346 33.327-21.586 5.835-42.346 12.52-62.263 20.246-43.66 17.094-90.102 45.176-109.045 92.099" stroke="url(#H)" stroke-miterlimit="10"/><path d="M1882.52 1021.96c-17.13-4.42-33.42-12.89-49.21-22.872-9.88-6.269-19.59-13.201-29.33-20.052-45.23-31.812-86.08-64.792-124.52-107.074-27.39-29.919-53.37-63.648-77.61-103.196-22.44-36.533-47.55-71.334-76.23-102.255-46.2-49.817-101.22-94.046-160.18-126.558-12.56-6.926-25.45-12.985-38.75-18.092-36.94-14.191-74.61-20.39-115.33-21.392-58.47-1.442-119.81 10.017-179.49 15.559-29.36 2.714-58.558 3.98-87.591 1.572-30.471-2.511-60.336-9.238-88.852-20.243-46.393-17.913-88.941-47.264-122.503-85.281a313.122 313.122 0 0 1-19.536-24.51c-30.772-42.859-51.215-92.862-80.077-137.583-30.303-46.921-69.946-87.388-116.9-116.248a332.977 332.977 0 0 0-92.122-38.995c-31.437-8.027-63.959-11.418-96.28-10.51a346.62 346.62 0 0 0-27.719 1.912c-42.788 4.547-79.318 21.909-120.275 32.659-21.758 5.725-42.652 12.366-62.647 20.168-44.07 17.336-89.736 45.592-110.248 92.587" stroke="url(#I)" stroke-miterlimit="10"/><path d="M1899.74 1015.59c-17.93-4.13-35-12.45-51.56-22.312-10.35-6.193-20.53-13.056-30.72-19.844-47.33-31.529-89.81-64.208-129.2-106.265-28.07-29.793-54.42-63.563-78.77-103.489-22.51-36.832-47.63-71.981-76.18-103.519-46.1-50.576-100.98-95.689-160.83-127.541-12.76-6.796-25.89-12.702-39.43-17.626-37.6-13.68-75.94-19.149-116.95-19.6-58.96-.648-120.46 10.941-180.5 16.196-29.54 2.573-58.926 3.601-88.138.88-30.651-2.842-60.672-9.985-89.273-21.383-46.534-18.555-89.078-48.475-122.575-86.965a316.385 316.385 0 0 1-19.488-24.794c-30.682-43.333-50.925-93.753-79.801-138.795-30.303-47.242-70.184-87.909-117.274-117.092-28.789-17.846-59.984-31.233-92.434-39.755-31.571-8.304-64.259-11.98-96.789-11.33-9.326.188-18.633.757-27.907 1.687-43.13 4.222-79.904 21.45-121.194 32.001-21.928 5.615-42.957 12.212-63.033 20.089-44.48 17.578-89.369 46.009-111.449 93.076" stroke="url(#J)" stroke-miterlimit="10"/><path d="M1916.96 1009.23c-18.74-3.86-36.58-12.009-53.91-21.759-10.83-6.119-21.48-12.915-32.12-19.64-49.41-31.243-93.52-63.621-133.87-105.455-28.76-29.666-55.47-63.479-79.93-103.781-22.57-37.134-47.65-72.688-76.12-104.782-45.9-51.434-100.75-97.331-161.48-128.525-12.97-6.664-26.33-12.417-40.11-17.157-38.27-13.17-77.28-17.832-118.57-17.808-59.44.258-121.12 11.865-181.51 16.832-29.72 2.434-59.294 3.221-88.682.189-30.832-3.171-61.007-10.729-89.694-22.522-46.677-19.194-89.217-49.685-122.646-88.646a319.533 319.533 0 0 1-19.441-25.08c-30.591-43.807-50.634-94.643-79.524-140.008-30.305-47.561-70.422-88.426-117.647-117.935-28.875-18.044-60.164-31.706-92.746-40.514-31.706-8.585-64.559-12.547-97.298-12.153-9.386.114-18.758.608-28.096 1.463-43.488 3.894-80.504 20.985-122.128 31.336-22.099 5.506-43.262 12.058-63.417 20.01-44.892 17.818-89.002 46.425-112.65 93.564" stroke="url(#K)" stroke-miterlimit="10"/><path d="M1934.17 1002.87c-19.53-3.579-38.15-11.571-56.24-21.207-11.32-6.042-22.44-12.771-33.53-19.435-51.49-30.958-97.23-63.036-138.54-104.644-29.44-29.539-56.52-63.394-81.09-104.074-22.64-37.433-47.67-73.392-76.06-106.046-45.71-52.291-100.58-98.857-162.14-129.51-13.19-6.508-26.76-12.133-40.78-16.69-38.94-12.661-78.62-16.605-120.2-16.014-59.91 1.032-121.78 12.79-182.51 17.468-29.9 2.294-59.669 2.843-89.235-.503a324.298 324.298 0 0 1-90.114-23.659c-46.819-19.837-89.356-50.895-122.72-90.331a323.29 323.29 0 0 1-19.392-25.362c-30.501-44.284-50.344-95.536-79.249-141.22-30.305-47.88-70.661-88.944-118.022-118.779-28.96-18.246-60.345-32.181-93.057-41.275-31.835-8.862-64.853-13.112-97.804-12.974-9.443.041-18.879.459-28.284 1.238-43.837 3.567-81.094 20.523-123.052 30.675-22.27 5.395-43.568 11.902-63.801 19.929-45.302 18.061-88.633 46.84-113.853 94.051" stroke="url(#L)" stroke-miterlimit="10"/><path d="M1951.39 996.506c-20.34-3.301-39.74-11.131-58.59-20.65-11.79-5.967-23.4-12.61-34.92-19.229-53.62-30.585-100.96-62.451-143.22-103.834-30.12-29.412-57.56-63.309-82.25-104.368-22.71-37.732-47.68-74.099-76.01-107.31-45.5-53.15-100.33-100.522-162.79-130.493-13.4-6.382-27.2-11.849-41.46-16.223-39.61-12.151-79.95-15.378-121.81-14.222-60.4 1.806-122.44 13.714-183.53 18.104-30.08 2.156-60.032 2.463-89.774-1.196-31.191-3.83-61.677-12.217-90.535-24.797-46.961-20.477-89.494-52.107-122.79-92.013a326.668 326.668 0 0 1-19.344-25.648c-30.409-44.759-50.055-96.428-78.973-142.433-30.307-48.201-70.899-89.462-118.396-119.622-29.045-18.445-60.528-32.653-93.37-42.035-31.971-9.138-65.154-13.673-98.314-13.793-9.503-.034-19 .309-28.472 1.014-44.189 3.24-81.688 20.06-123.98 30.01-22.441 5.288-43.876 11.75-64.186 19.851-45.71 18.303-88.266 47.258-115.053 94.541" stroke="url(#M)" stroke-miterlimit="10"/><path d="M1968.61 990.143c-21.14-3.021-41.32-10.691-60.94-20.097-12.27-5.892-24.35-12.471-36.32-19.023-55.68-30.324-104.67-61.864-147.89-103.023-30.81-29.286-58.61-63.225-83.41-104.662-22.77-38.033-47.7-74.806-75.95-108.572-45.3-54.006-100.08-102.188-163.45-131.477-13.6-6.255-27.63-11.564-42.13-15.755-40.28-11.641-81.3-14.149-123.44-12.43-60.87 2.58-123.09 14.64-184.53 18.742-30.26 2.016-60.406 2.085-90.325-1.887-31.371-4.159-62.013-12.962-90.956-25.936-47.103-21.119-89.632-53.317-122.863-93.696a330.137 330.137 0 0 1-19.294-25.932c-30.319-45.233-49.765-97.318-78.696-143.644-30.309-48.52-71.137-89.98-118.771-120.465-29.128-18.645-60.707-33.13-93.679-42.797-32.109-9.417-65.456-14.24-98.825-14.616-9.561-.107-19.123.16-28.661.79-44.54 2.91-82.281 19.596-124.906 29.348-22.614 5.177-44.181 11.593-64.572 19.772C72.881 93.326 31.103 122.456 2.748 169.81" stroke="url(#N)" stroke-miterlimit="10"/><path d="M1985.83 983.78c-21.95-2.741-42.91-10.252-63.29-19.541-12.75-5.817-25.29-12.334-37.71-18.819-57.75-30.065-108.39-61.279-152.57-102.213-31.49-29.158-59.66-63.141-84.57-104.953-22.84-38.333-47.72-75.513-75.9-109.837-45.1-54.863-99.83-103.852-164.1-132.462-13.8-6.128-28.06-11.28-42.8-15.288-40.95-11.132-82.64-12.922-125.06-10.636-61.36 3.356-123.75 15.564-185.54 19.376-30.45 1.877-60.779 1.708-90.873-2.578-31.552-4.49-62.347-13.708-91.376-27.076-47.246-21.759-89.771-54.528-122.935-95.38a333.511 333.511 0 0 1-19.246-26.215c-30.228-45.708-49.474-98.21-78.421-144.857-30.309-48.839-71.376-90.498-119.146-121.308-29.216-18.845-60.889-33.603-93.991-43.556C406.058 18.74 372.546 13.634 338.967 13a375.86 375.86 0 0 0-28.849.565c-44.888 2.586-82.873 19.136-125.832 28.687-22.785 5.067-44.487 11.44-64.957 19.693-46.53 18.786-87.532 48.089-117.454 95.516" stroke="url(#O)" stroke-miterlimit="10"/><path d="M2003.05 977.419c-36.99-4.003-71.3-20.931-104.75-37.602-102.47-51.058-182.87-105.295-242.97-206.65-22.9-38.632-47.73-76.218-75.84-111.101-54.55-67.699-123.55-126.649-208.24-148.266-131.56-33.581-270.53 28.27-404.644 7.901-94.01-14.278-181.164-70.807-234.003-151.777-30.136-46.185-49.184-99.1-78.144-146.068-48.85-79.228-126.253-139.487-213.823-166.465C398.983 4.56 355.179-.69 311.755 1.473c-45.238 2.255-83.465 18.67-126.757 28.022C109.603 45.779 46.28 76.819 1 145.11" stroke="url(#P)" stroke-miterlimit="10"/><defs><linearGradient id="a" x1="28.46" y1="854.188" x2="1381.49" y2="854.188" gradientUnits="userSpaceOnUse"><stop stop-color="#43E29B"/><stop offset="1" stop-color="#289062"/></linearGradient><linearGradient id="b" x1="28.213" y1="845.536" x2="1390.81" y2="845.536" gradientUnits="userSpaceOnUse"><stop stop-color="#43E29B"/><stop offset="1" stop-color="#289062"/></linearGradient><linearGradient id="c" x1="27.955" y1="836.876" x2="1400.23" y2="836.876" gradientUnits="userSpaceOnUse"><stop stop-color="#43E29B"/><stop offset="1" stop-color="#289062"/></linearGradient><linearGradient id="d" x1="27.682" y1="828.2" x2="1409.81" y2="828.2" gradientUnits="userSpaceOnUse"><stop stop-color="#43E29B"/><stop offset="1" stop-color="#289062"/></linearGradient><linearGradient id="e" x1="27.396" y1="819.513" x2="1419.52" y2="819.513" gradientUnits="userSpaceOnUse"><stop stop-color="#43E29B"/><stop offset="1" stop-color="#289062"/></linearGradient><linearGradient id="f" x1="27.088" y1="810.816" x2="1429.42" y2="810.816" gradientUnits="userSpaceOnUse"><stop stop-color="#43E29B"/><stop offset="1" stop-color="#289062"/></linearGradient><linearGradient id="g" x1="26.76" y1="802.107" x2="1439.56" y2="802.107" gradientUnits="userSpaceOnUse"><stop stop-color="#43E29B"/><stop offset="1" stop-color="#289062"/></linearGradient><linearGradient id="h" x1="26.416" y1="793.385" x2="1449.9" y2="793.385" gradientUnits="userSpaceOnUse"><stop stop-color="#43E29B"/><stop offset="1" stop-color="#289062"/></linearGradient><linearGradient id="i" x1="26.047" y1="784.648" x2="1460.54" y2="784.648" gradientUnits="userSpaceOnUse"><stop stop-color="#43E29B"/><stop offset="1" stop-color="#289062"/></linearGradient><linearGradient id="j" x1="25.66" y1="775.903" x2="1471.51" y2="775.903" gradientUnits="userSpaceOnUse"><stop stop-color="#43E29B"/><stop offset="1" stop-color="#289062"/></linearGradient><linearGradient id="k" x1="25.248" y1="767.146" x2="1482.92" y2="767.146" gradientUnits="userSpaceOnUse"><stop stop-color="#43E29B"/><stop offset="1" stop-color="#289062"/></linearGradient><linearGradient id="l" x1="24.815" y1="758.374" x2="1494.89" y2="758.374" gradientUnits="userSpaceOnUse"><stop stop-color="#43E29B"/><stop offset="1" stop-color="#289062"/></linearGradient><linearGradient id="m" x1="24.343" y1="749.588" x2="1507.6" y2="749.588" gradientUnits="userSpaceOnUse"><stop stop-color="#43E29B"/><stop offset="1" stop-color="#289062"/></linearGradient><linearGradient id="n" x1="23.853" y1="740.792" x2="1521.22" y2="740.792" gradientUnits="userSpaceOnUse"><stop stop-color="#43E29B"/><stop offset="1" stop-color="#289062"/></linearGradient><linearGradient id="o" x1="23.331" y1="731.979" x2="1538.14" y2="731.979" gradientUnits="userSpaceOnUse"><stop stop-color="#43E29B"/><stop offset="1" stop-color="#289062"/></linearGradient><linearGradient id="p" x1="22.77" y1="723.159" x2="1555.36" y2="723.159" gradientUnits="userSpaceOnUse"><stop stop-color="#43E29B"/><stop offset="1" stop-color="#289062"/></linearGradient><linearGradient id="q" x1="22.169" y1="714.319" x2="1572.58" y2="714.319" gradientUnits="userSpaceOnUse"><stop stop-color="#43E29B"/><stop offset="1" stop-color="#289062"/></linearGradient><linearGradient id="r" x1="21.532" y1="705.469" x2="1589.8" y2="705.469" gradientUnits="userSpaceOnUse"><stop stop-color="#43E29B"/><stop offset="1" stop-color="#289062"/></linearGradient><linearGradient id="s" x1="20.849" y1="696.609" x2="1607.02" y2="696.609" gradientUnits="userSpaceOnUse"><stop stop-color="#43E29B"/><stop offset="1" stop-color="#289062"/></linearGradient><linearGradient id="t" x1="20.118" y1="687.732" x2="1624.23" y2="687.732" gradientUnits="userSpaceOnUse"><stop stop-color="#43E29B"/><stop offset="1" stop-color="#289062"/></linearGradient><linearGradient id="u" x1="19.329" y1="678.844" x2="1641.45" y2="678.844" gradientUnits="userSpaceOnUse"><stop stop-color="#43E29B"/><stop offset="1" stop-color="#289062"/></linearGradient><linearGradient id="v" x1="18.484" y1="669.94" x2="1658.67" y2="669.94" gradientUnits="userSpaceOnUse"><stop stop-color="#43E29B"/><stop offset="1" stop-color="#289062"/></linearGradient><linearGradient id="w" x1="17.61" y1="661.022" x2="1675.89" y2="661.022" gradientUnits="userSpaceOnUse"><stop stop-color="#43E29B"/><stop offset="1" stop-color="#289062"/></linearGradient><linearGradient id="x" x1="16.739" y1="652.095" x2="1693.11" y2="652.095" gradientUnits="userSpaceOnUse"><stop stop-color="#43E29B"/><stop offset="1" stop-color="#289062"/></linearGradient><linearGradient id="y" x1="15.862" y1="643.154" x2="1710.33" y2="643.154" gradientUnits="userSpaceOnUse"><stop stop-color="#43E29B"/><stop offset="1" stop-color="#289062"/></linearGradient><linearGradient id="z" x1="14.987" y1="634.196" x2="1727.55" y2="634.196" gradientUnits="userSpaceOnUse"><stop stop-color="#43E29B"/><stop offset="1" stop-color="#289062"/></linearGradient><linearGradient id="A" x1="14.115" y1="625.229" x2="1744.77" y2="625.229" gradientUnits="userSpaceOnUse"><stop stop-color="#43E29B"/><stop offset="1" stop-color="#289062"/></linearGradient><linearGradient id="B" x1="13.239" y1="616.247" x2="1761.99" y2="616.247" gradientUnits="userSpaceOnUse"><stop stop-color="#43E29B"/><stop offset="1" stop-color="#289062"/></linearGradient><linearGradient id="C" x1="12.365" y1="607.254" x2="1779.2" y2="607.254" gradientUnits="userSpaceOnUse"><stop stop-color="#43E29B"/><stop offset="1" stop-color="#289062"/></linearGradient><linearGradient id="D" x1="11.492" y1="598.244" x2="1796.42" y2="598.244" gradientUnits="userSpaceOnUse"><stop stop-color="#43E29B"/><stop offset="1" stop-color="#289062"/></linearGradient><linearGradient id="E" x1="10.616" y1="589.225" x2="1813.64" y2="589.225" gradientUnits="userSpaceOnUse"><stop stop-color="#43E29B"/><stop offset="1" stop-color="#289062"/></linearGradient><linearGradient id="F" x1="9.744" y1="580.191" x2="1830.86" y2="580.191" gradientUnits="userSpaceOnUse"><stop stop-color="#43E29B"/><stop offset="1" stop-color="#289062"/></linearGradient><linearGradient id="G" x1="8.868" y1="571.147" x2="1848.08" y2="571.147" gradientUnits="userSpaceOnUse"><stop stop-color="#43E29B"/><stop offset="1" stop-color="#289062"/></linearGradient><linearGradient id="H" x1="7.996" y1="562.089" x2="1865.3" y2="562.089" gradientUnits="userSpaceOnUse"><stop stop-color="#43E29B"/><stop offset="1" stop-color="#289062"/></linearGradient><linearGradient id="I" x1="7.12" y1="553.021" x2="1882.52" y2="553.021" gradientUnits="userSpaceOnUse"><stop stop-color="#43E29B"/><stop offset="1" stop-color="#289062"/></linearGradient><linearGradient id="J" x1="6.245" y1="543.937" x2="1899.74" y2="543.937" gradientUnits="userSpaceOnUse"><stop stop-color="#43E29B"/><stop offset="1" stop-color="#289062"/></linearGradient><linearGradient id="K" x1="5.371" y1="534.845" x2="1916.96" y2="534.845" gradientUnits="userSpaceOnUse"><stop stop-color="#43E29B"/><stop offset="1" stop-color="#289062"/></linearGradient><linearGradient id="L" x1="4.497" y1="525.74" x2="1934.17" y2="525.74" gradientUnits="userSpaceOnUse"><stop stop-color="#43E29B"/><stop offset="1" stop-color="#289062"/></linearGradient><linearGradient id="M" x1="3.623" y1="516.624" x2="1951.39" y2="516.624" gradientUnits="userSpaceOnUse"><stop stop-color="#43E29B"/><stop offset="1" stop-color="#289062"/></linearGradient><linearGradient id="N" x1="2.748" y1="507.496" x2="1968.61" y2="507.496" gradientUnits="userSpaceOnUse"><stop stop-color="#43E29B"/><stop offset="1" stop-color="#289062"/></linearGradient><linearGradient id="O" x1="1.875" y1="498.357" x2="1985.83" y2="498.357" gradientUnits="userSpaceOnUse"><stop stop-color="#43E29B"/><stop offset="1" stop-color="#289062"/></linearGradient><linearGradient id="P" x1="1" y1="489.21" x2="2003.05" y2="489.21" gradientUnits="userSpaceOnUse"><stop stop-color="#43E29B"/><stop offset="1" stop-color="#289062"/></linearGradient></defs></svg>