<svg width="1441" height="985" viewBox="0 0 1441 985" fill="none" xmlns="http://www.w3.org/2000/svg">
<mask id="mask0_879_2" style="mask-type:luminance" maskUnits="userSpaceOnUse" x="0" y="0" width="1441" height="985">
<path d="M1441 0H0V985H1441V0Z" fill="white"/>
</mask>
<g mask="url(#mask0_879_2)">
<path d="M-133.279 745.107C-176.25 755.91 -222.487 724.567 -237.706 681.984C-252.923 639.402 -241.262 590.238 -215.97 553.028C-121.029 413.352 25.8764 532.111 141.279 564.635C211.364 584.387 296.698 586.86 367.009 566.878C410.735 554.451 459.869 528.752 481.717 486C521.623 407.914 440.556 355.546 440.892 281.201C441.344 181.175 577.541 167.876 646.821 190.807C726.398 217.147 792.469 274.682 872.512 299.689C959.935 326.999 1041.35 296.672 1101.98 228.911C1140.06 186.355 1168.73 131.214 1166.21 73.5264C1160.4 -59.6092 1022.84 -88.0068 919.097 -97.103" stroke="url(#paint0_linear_879_2)" stroke-miterlimit="10"/>
<path d="M-130.205 753.386C-171.093 764.45 -215.055 734.059 -228.758 692.481C-232.606 680.809 -234.389 668.615 -234.393 656.299C-234.357 624.736 -222.683 592.589 -204.138 566.269C-196.583 555.509 -188.717 546.271 -180.579 538.376C-106.957 466.718 -11.2496 509.147 76.098 543.961C101.454 554.073 126.114 563.556 149.458 569.424C174.126 575.649 200.735 579.682 228.002 581.293C276.307 584.165 326.821 579.294 371.857 566.372C378.691 564.412 385.663 562.153 392.655 559.589C408.979 553.601 425.346 545.942 440.204 536.285C455.275 526.485 468.809 514.628 479.142 500.386C482.203 496.175 484.969 491.756 487.406 487.125C498.907 465.196 500.649 445.068 497.379 425.879C494.324 408.102 486.996 391.209 479.244 374.377C465.929 345.464 450.7 317.517 451.361 285.488C453.012 189.752 586.915 178.966 656.164 202.808C681.962 211.637 706.426 223.622 730.504 236.582C780.344 263.414 828.411 294.319 882.343 310.085C905.426 316.859 928.042 319.579 949.888 318.604C1010.51 316.005 1065.09 285.382 1109.23 235.284C1134.25 206.84 1155.36 173.044 1166.41 136.856C1172.03 118.447 1175.05 99.431 1174.61 80.1357C1174.01 55.8658 1169.06 35.0678 1160.72 17.1589C1123.62 -62.0923 1019.81 -84.4717 936.665 -94.0366" stroke="url(#paint1_linear_879_2)" stroke-miterlimit="10"/>
<path d="M-127.131 761.667C-165.935 772.99 -207.624 743.553 -219.813 702.981C-223.238 691.592 -224.649 679.674 -224.328 667.624C-223.411 636.735 -211.203 605.391 -192.305 579.517C-184.637 568.947 -176.669 559.831 -168.434 551.982C-94.4571 481 0.522111 520.13 86.0214 551.57C110.839 560.708 134.881 569.225 157.639 574.215C181.69 579.54 207.634 582.727 234.333 583.564C281.629 585.082 331.577 578.94 376.706 565.865C383.546 563.886 390.532 561.635 397.546 559.109C413.926 553.207 430.357 545.806 445.309 536.436C460.47 526.926 474.146 515.39 484.669 501.356C487.793 497.205 490.614 492.835 493.096 488.249C504.77 466.557 506.674 446.397 503.673 427.131C500.851 409.332 493.899 392.453 486.81 375.73C474.607 346.946 460.772 320.201 461.83 289.773C465.01 198.338 596.291 190.053 665.505 214.809C691.191 223.892 715.64 235.977 739.803 248.91C789.781 275.667 838.289 305.815 892.171 320.483C915.2 326.802 937.718 329.053 959.39 327.574C1019.45 323.687 1072.79 292.026 1116.47 241.661C1141.27 212.978 1162.38 179.119 1173.86 143.083C1179.69 124.754 1183.06 105.884 1183 86.7483C1182.91 62.7167 1178.5 42.0802 1170.79 24.2048C1136.34 -54.7727 1035.87 -79.2592 954.234 -90.9668" stroke="url(#paint2_linear_879_2)" stroke-miterlimit="10"/>
<path d="M-124.059 769.946C-160.779 781.529 -200.194 753.045 -210.869 713.478C-213.87 702.371 -214.938 690.73 -214.266 678.946C-212.542 648.725 -199.667 618.237 -180.477 592.758C-172.674 582.398 -164.609 573.408 -156.295 565.582C-81.7992 495.458 12.2866 531.109 95.9395 559.174C120.221 567.339 143.642 574.887 165.815 579.003C189.247 583.428 214.528 585.769 240.658 585.83C286.945 585.996 336.327 578.581 381.55 565.357C388.395 563.359 395.393 561.116 402.431 558.624C418.868 552.809 435.36 545.666 450.408 536.584C465.66 527.365 479.48 516.148 490.191 502.325C493.379 498.235 496.253 493.915 498.784 489.369C510.632 467.916 512.736 447.714 509.966 428.38C507.412 410.553 500.803 393.69 494.374 377.081C483.28 348.417 470.79 322.887 472.298 294.056C476.855 206.924 605.598 201.323 674.847 226.806C700.399 236.21 724.857 248.329 749.104 261.234C799.219 287.916 848.17 317.308 902.002 330.877C924.977 336.743 947.394 338.469 968.895 336.541C1028.38 331.208 1080.49 298.665 1123.72 248.032C1148.3 219.11 1169.41 185.191 1181.31 149.304C1187.36 131.056 1191.06 112.332 1191.39 93.3555C1191.8 69.5642 1188.01 49.0656 1180.86 31.2452C1149.29 -47.5511 1051.93 -74.0502 971.804 -87.8984" stroke="url(#paint3_linear_879_2)" stroke-miterlimit="10"/>
<path d="M-120.984 778.225C-155.622 790.068 -192.76 762.537 -201.921 723.974C-204.499 713.149 -205.204 701.784 -204.197 690.267C-201.617 660.716 -188.168 631.05 -168.643 606.002C-160.721 595.839 -152.556 586.973 -144.15 579.184C-69.2526 509.793 24.0589 542.09 105.864 566.779C129.607 573.969 152.415 580.506 173.996 583.79C196.818 587.264 221.428 588.812 246.991 588.099C292.267 586.912 341.085 578.223 386.399 564.849C393.249 562.831 400.262 560.596 407.323 558.142C423.817 552.413 440.371 545.529 455.515 536.734C470.857 527.807 484.82 516.906 495.719 503.297C498.97 499.265 501.906 495.002 504.475 490.492C516.543 469.304 518.773 449.042 516.26 429.628C513.949 411.78 507.707 394.921 501.943 378.432C491.959 349.879 480.816 325.576 482.77 298.34C488.714 215.52 614.953 212.464 684.191 238.805C709.623 248.481 734.076 260.685 758.408 273.56C808.66 300.167 858.052 328.803 911.834 341.273C934.757 346.687 957.072 347.923 978.402 345.509C1037.31 338.839 1088.19 305.307 1130.97 254.406C1155.33 225.249 1176.45 191.264 1188.77 155.529C1195.02 137.362 1199.07 118.785 1199.79 99.9667C1200.69 76.4176 1197.47 56.0726 1190.94 38.2897C1162.08 -40.2546 1068 -68.8431 989.375 -84.834" stroke="url(#paint4_linear_879_2)" stroke-miterlimit="10"/>
<path d="M-117.913 786.504C-150.468 798.607 -185.33 772.029 -192.977 734.47C-195.131 723.927 -195.473 712.837 -194.136 701.589C-190.699 672.703 -176.677 643.864 -156.816 619.244C-148.775 609.277 -140.509 600.533 -132.011 592.786C-56.7143 524.122 35.8248 553.069 115.781 574.387C138.989 580.604 161.174 586.159 182.173 588.581C204.376 591.142 228.321 591.856 253.318 590.369C297.585 587.829 345.836 577.868 391.245 564.343C398.1 562.305 405.124 560.077 412.21 557.661C428.76 552.019 445.376 545.392 460.618 536.885C476.05 528.247 490.13 517.647 501.245 504.267C504.549 500.289 507.551 496.083 510.164 491.616C522.416 470.672 524.808 450.369 522.554 430.88C520.487 413.011 514.611 396.148 509.508 379.787C500.634 351.334 490.839 328.269 493.239 302.629C500.584 224.132 624.304 223.604 693.532 250.81C718.845 260.757 743.29 273.044 767.707 285.891C818.098 312.422 867.958 340.17 921.661 351.675C944.542 356.576 966.743 357.386 987.903 354.483C1046.24 346.479 1095.89 311.955 1138.21 260.787C1162.36 231.391 1183.47 197.345 1196.22 161.76C1202.68 143.673 1207.06 125.244 1208.18 106.583C1209.57 83.2763 1206.94 63.0849 1201.01 45.3414C1174.87 -32.9448 1084.06 -63.6248 1006.94 -81.7583" stroke="url(#paint5_linear_879_2)" stroke-miterlimit="10"/>
<path d="M-114.838 794.785C-145.309 807.147 -177.899 781.524 -184.031 744.971C-185.763 734.711 -185.741 723.896 -184.07 712.915C-179.776 684.696 -165.181 656.683 -144.982 632.492C-136.824 622.722 -128.457 614.102 -119.869 606.392C-44.1776 538.453 47.593 564.054 125.705 581.997C148.375 587.239 169.94 591.816 190.354 593.373C211.938 595.022 235.221 594.903 259.649 592.643C302.907 588.749 350.593 577.516 396.094 563.841C402.955 561.784 409.993 559.562 417.1 557.183C433.708 551.628 450.385 545.259 465.721 537.039C481.244 528.693 495.462 518.405 506.771 505.242C510.139 501.324 513.195 497.17 515.853 492.743C528.288 472.044 530.843 451.699 528.849 432.136C527.023 414.244 521.519 397.373 517.075 381.144C509.309 352.78 500.868 330.972 503.708 306.918C512.465 232.758 633.657 234.743 702.875 262.814C728.07 273.03 752.509 285.402 777.01 298.222C827.537 324.678 877.843 351.644 931.495 362.075C954.324 366.512 976.421 366.847 997.412 363.456C1055.17 354.123 1103.69 318.689 1145.46 267.164C1169.45 237.579 1190.51 203.423 1203.67 167.987C1210.35 149.982 1215.07 131.702 1216.57 113.195C1218.46 90.1302 1216.41 70.0944 1211.09 52.3863C1187.67 -25.6361 1100.12 -58.4134 1024.52 -78.6895" stroke="url(#paint6_linear_879_2)" stroke-miterlimit="10"/>
<path d="M-111.766 803.063C-140.154 815.685 -170.469 791.015 -175.086 755.467C-176.394 745.489 -176.008 734.947 -174.006 724.236C-168.851 696.679 -153.692 669.495 -133.153 645.733C-124.877 636.16 -116.408 627.662 -107.728 619.992C-31.6466 552.775 59.3612 575.032 135.625 589.599C157.758 593.869 178.699 597.465 198.531 598.16C219.495 598.895 242.117 597.943 265.978 594.909C308.228 589.662 355.346 577.157 400.942 563.331C407.808 561.253 414.858 559.04 421.99 556.698C438.655 551.229 455.394 545.118 470.826 537.184C486.439 529.128 500.797 519.157 512.298 506.209C515.728 502.347 518.84 498.247 521.546 493.863C534.161 473.408 536.882 453.023 535.145 433.381C533.562 415.47 528.43 398.584 524.645 382.492C517.991 354.205 510.903 333.671 514.181 311.199C524.366 241.391 643.014 245.869 712.221 274.81C737.298 285.297 761.73 297.755 786.315 310.543C836.981 336.924 887.729 363.112 941.328 372.464C964.104 376.439 986.099 376.299 1006.92 372.417C1064.1 361.757 1111.41 325.337 1152.72 273.532C1176.49 243.714 1197.54 209.49 1211.13 174.205C1218.02 156.281 1223.07 138.151 1224.97 119.799C1227.34 96.9787 1225.88 77.0985 1221.17 59.4239C1200.46 -18.3267 1116.19 -53.2092 1042.09 -75.6279" stroke="url(#paint7_linear_879_2)" stroke-miterlimit="10"/>
<path d="M-108.692 811.343C-134.995 824.224 -163.037 800.506 -166.14 765.964C-167.024 756.267 -166.276 745.999 -163.94 735.557C-157.926 708.664 -142.2 682.307 -121.321 658.977C-112.93 649.601 -104.359 641.225 -95.5846 633.596C-19.1174 567.098 71.1314 586.013 145.547 597.207C167.142 600.502 187.46 603.119 206.71 602.95C227.051 602.77 249.014 600.988 272.307 597.179C313.548 590.58 360.1 576.801 405.787 562.825C412.66 560.727 419.723 558.522 426.878 556.218C443.599 550.835 460.401 544.983 475.929 537.336C491.633 529.571 506.131 519.915 517.822 507.182C521.313 503.379 524.483 499.332 527.233 494.988C540.031 474.775 542.913 454.353 541.437 434.634C540.094 416.703 535.339 399.795 532.209 383.845C526.67 355.623 520.935 336.383 524.649 315.484C536.275 250.05 652.366 256.998 721.56 286.809C746.519 297.562 770.942 310.108 795.612 322.869C846.416 349.176 897.605 374.586 951.154 382.863C973.876 386.374 995.767 385.76 1016.42 381.388C1073.03 369.402 1119.12 331.989 1159.96 279.907C1183.52 249.859 1204.57 215.565 1218.58 180.431C1225.68 162.587 1231.06 144.607 1233.36 126.41C1236.22 103.834 1235.34 84.1094 1231.24 66.4683C1213.25 -11.0066 1132.25 -47.9983 1059.65 -72.5596" stroke="url(#paint8_linear_879_2)" stroke-miterlimit="10"/>
<path d="M-105.618 819.622C-129.838 832.763 -155.605 809.998 -157.194 776.46C-157.655 767.047 -156.541 757.051 -153.876 746.877C-147 720.646 -130.713 695.12 -109.491 672.216C-100.986 663.036 -92.3128 654.784 -83.444 647.194C-6.59448 581.413 82.8974 596.991 155.466 604.809C176.526 607.129 196.218 608.769 214.887 607.735C234.606 606.642 255.91 604.027 278.633 599.444C318.866 591.492 364.851 576.441 410.633 562.315C417.509 560.2 424.585 558 431.763 555.733C448.542 550.438 465.406 544.843 481.03 537.484C496.824 530.008 511.462 520.668 523.346 508.149C526.9 504.405 530.124 500.409 532.92 496.108C545.898 476.139 548.944 455.678 547.727 435.883C546.625 417.93 542.25 400.994 539.771 385.196C535.352 357.027 530.97 339.103 535.114 319.768C548.198 258.733 661.714 268.119 730.9 298.808C755.739 309.827 780.157 322.462 804.911 335.196C855.852 361.427 907.48 386.059 960.983 393.257C983.651 396.307 1005.44 395.218 1025.92 390.354C1081.95 377.047 1126.83 338.64 1167.2 286.28C1190.55 255.997 1211.59 221.637 1226.03 186.656C1233.34 168.893 1239.05 151.064 1241.75 133.021C1245.09 110.691 1244.8 91.1223 1241.31 73.5146C1226.03 -3.67864 1148.31 -42.7873 1077.22 -69.4893" stroke="url(#paint9_linear_879_2)" stroke-miterlimit="10"/>
<path d="M-102.545 827.903C-124.683 841.304 -148.175 819.492 -148.25 786.961C-148.287 777.829 -146.809 768.105 -143.812 758.203C-136.073 732.629 -119.224 707.934 -97.6594 685.464C-89.0384 676.48 -80.2637 668.351 -71.3007 660.801C5.92733 595.73 94.668 607.976 165.388 612.42C185.91 613.767 204.976 614.427 223.069 612.529C242.163 610.524 262.798 607.028 284.965 601.719C324.169 592.329 369.609 576.09 415.483 561.813C422.365 559.678 429.455 557.486 436.656 555.257C453.492 550.048 470.417 544.713 486.136 537.639C502.019 530.455 516.798 521.43 528.874 509.126C532.49 505.441 535.77 501.498 538.613 497.237C551.77 477.512 554.979 457.012 554.026 437.137C553.163 419.165 549.173 402.196 547.342 386.553C544.049 358.428 541.013 341.84 545.588 324.057C560.148 267.455 671.074 279.243 740.246 310.812C764.967 322.094 789.378 334.821 814.217 347.525C865.296 373.68 917.364 397.54 970.817 403.657C993.431 406.245 1015.12 404.685 1035.43 399.326C1090.88 384.702 1134.54 345.292 1174.45 292.658C1197.59 262.144 1218.63 227.716 1233.49 192.885C1241.01 175.202 1247.05 157.526 1250.15 139.637C1253.97 117.553 1254.27 98.1411 1251.39 80.563C1238.81 3.65522 1164.38 -37.5724 1094.79 -66.417" stroke="url(#paint10_linear_879_2)" stroke-miterlimit="10"/>
<path d="M-99.4713 836.182C-119.524 849.843 -140.742 828.984 -139.302 797.457C-138.916 788.607 -137.072 779.157 -133.746 769.525C-125.14 744.611 -107.737 720.747 -85.8279 698.706C-77.0916 689.917 -68.2151 681.912 -59.1598 674.403C18.4447 610.042 106.436 618.955 175.31 620.024C195.296 620.396 213.733 620.081 231.248 617.316C249.716 614.4 269.692 610.065 291.295 603.986C329.486 593.237 374.364 575.73 420.332 561.303C427.22 559.149 434.321 556.965 441.545 554.771C458.44 549.648 475.426 544.572 491.241 537.785C507.215 530.891 522.134 522.182 534.4 510.093C538.079 506.467 541.414 502.576 544.302 498.356C557.638 478.873 561.01 458.335 560.318 438.384C559.694 420.392 556.097 403.383 554.906 387.903C552.746 359.81 551.054 344.586 556.055 328.339C572.104 276.215 680.427 290.356 749.585 322.809C774.19 334.355 798.591 347.173 823.514 359.85C874.731 385.929 927.237 409.016 980.643 414.051C1003.2 416.178 1024.78 414.146 1044.93 408.293C1099.79 392.353 1142.25 351.939 1181.7 299.029C1204.62 268.28 1225.65 233.788 1240.94 199.106C1248.67 181.504 1255.04 163.978 1258.54 146.242C1262.85 124.404 1263.73 105.15 1261.46 87.6015C1251.58 10.9872 1180.44 -32.3673 1112.36 -63.3545" stroke="url(#paint11_linear_879_2)" stroke-miterlimit="10"/>
<path d="M-96.3991 844.46C-114.369 858.381 -133.312 838.476 -130.359 807.953C-129.55 799.387 -127.338 790.206 -123.682 780.845C-114.21 756.587 -96.2531 733.556 -73.9983 711.947C-65.1486 703.355 -56.1683 695.472 -47.0189 688.002C30.9584 624.348 118.202 629.933 185.23 627.629C204.678 627.028 222.487 625.734 239.425 622.103C257.266 618.276 276.584 613.105 297.622 606.252C334.798 594.144 379.116 575.371 425.178 560.794C432.071 558.62 439.186 556.442 446.433 554.287C463.383 549.252 480.433 544.433 496.344 537.932C512.408 531.329 527.469 522.936 539.925 511.061C543.666 507.493 547.057 503.654 549.991 499.477C563.506 480.237 567.041 459.662 566.613 439.634C566.227 421.622 563.028 404.568 562.474 389.255C561.458 361.184 561.097 347.352 566.526 332.623C584.072 285.033 689.786 301.469 758.931 334.807C783.418 346.615 807.811 359.526 832.819 372.173C884.173 398.178 937.117 420.492 990.478 424.444C1012.98 426.112 1034.46 423.608 1054.44 417.258C1108.72 400.009 1149.96 358.585 1188.95 305.401C1211.66 274.416 1232.69 239.858 1248.39 205.328C1256.34 187.807 1263.04 170.434 1266.94 152.85C1271.72 131.258 1273.19 112.164 1271.54 94.643C1264.36 18.3241 1196.51 -27.1592 1129.93 -60.2891" stroke="url(#paint12_linear_879_2)" stroke-miterlimit="10"/>
<path d="M-93.3252 852.74C-109.213 866.921 -125.88 847.968 -121.411 818.45C-120.178 810.165 -117.599 801.256 -113.616 792.167C-103.274 768.567 -84.7695 746.367 -62.1669 725.191C-53.2039 716.792 -44.1217 709.033 -34.8763 701.604C43.4699 638.653 129.972 640.914 195.151 635.234C214.063 633.659 231.242 631.392 247.604 626.89C264.817 622.156 283.477 616.144 303.951 608.521C340.112 595.056 383.869 575.015 430.023 560.286C436.921 558.092 444.049 555.922 451.321 553.805C468.329 548.856 485.44 544.295 501.445 538.082C517.599 531.768 532.803 523.694 545.449 512.03C549.253 508.521 552.698 504.736 555.678 500.598C569.37 481.602 573.07 460.989 572.905 440.883C572.757 422.851 569.963 405.748 570.038 390.606C570.175 362.549 571.131 350.142 576.993 336.907C596.034 293.916 699.14 312.576 768.27 346.806C792.64 358.874 817.026 371.882 842.118 384.499C893.61 410.429 946.99 431.973 1000.31 434.841C1022.75 436.048 1044.13 433.074 1063.94 426.227C1117.64 407.67 1157.67 365.231 1196.19 311.776C1218.69 280.556 1239.72 245.934 1255.84 211.554C1264 194.111 1271.03 176.892 1275.33 159.461C1280.6 138.116 1282.65 119.181 1281.61 101.687C1277.12 25.6698 1212.57 -21.9483 1147.5 -57.2207" stroke="url(#paint13_linear_879_2)" stroke-miterlimit="10"/>
<path d="M-90.251 861.021C-104.054 875.462 -118.448 857.462 -112.465 828.948C-110.809 820.945 -107.86 812.308 -103.55 803.491C-92.3356 780.546 -73.2856 759.179 -50.3333 738.437C-41.257 730.234 -32.0711 722.595 -22.7315 715.21C55.9817 652.96 141.725 651.767 205.075 642.844C223.445 640.256 239.995 637.054 255.787 631.684C272.37 626.044 290.375 619.189 310.284 610.793C345.429 595.972 388.626 574.662 434.874 559.782C441.778 557.569 448.917 555.406 456.213 553.325C473.278 548.462 490.451 544.16 506.552 538.234C522.797 532.212 538.142 524.453 550.979 513.003C554.846 509.553 558.345 505.819 561.373 501.725C575.241 482.971 579.103 462.321 579.203 442.137C579.291 424.086 576.913 406.932 577.608 391.961C578.911 363.912 581.161 352.968 587.467 341.196C607.981 302.891 708.503 323.685 777.615 358.809C801.87 371.135 826.244 384.239 851.421 396.829C903.052 422.682 956.868 443.459 1010.14 445.241C1032.53 445.989 1053.8 442.545 1073.45 435.199C1126.57 415.339 1165.38 371.882 1203.44 318.153C1225.73 286.697 1246.75 252.009 1263.3 217.781C1271.67 200.419 1279.02 183.353 1283.72 166.072C1289.47 144.975 1292.11 126.2 1291.69 108.734C1289.88 33.0214 1228.63 -16.7373 1165.07 -54.1504" stroke="url(#paint14_linear_879_2)" stroke-miterlimit="10"/>
<path d="M-87.1787 869.3C-98.8988 883.999 -111.019 866.954 -103.522 839.445C-101.441 831.723 -98.1226 823.358 -93.4883 814.813C-81.3974 792.524 -61.8074 771.986 -38.5055 751.678C-29.3158 743.669 -20.0281 736.154 -10.5943 728.811C68.482 667.256 153.48 662.738 214.991 650.45C232.821 646.887 248.743 642.716 263.96 636.471C279.913 629.925 297.263 622.229 316.609 613.062C350.739 596.886 393.378 574.304 439.718 559.276C446.627 557.043 453.78 554.889 461.099 552.844C478.22 548.071 495.456 544.024 511.653 538.386C527.988 532.655 543.476 525.213 556.501 513.976C560.432 510.585 563.984 506.902 567.058 502.849C581.103 484.336 585.129 463.652 585.494 443.388C585.818 425.317 583.862 408.107 585.171 393.314C587.651 365.267 591.165 355.826 597.932 345.481C619.866 311.952 717.858 334.788 786.955 370.811C811.093 383.394 835.459 396.595 860.721 409.157C912.489 434.935 966.74 454.946 1019.97 455.639C1042.3 455.93 1063.48 452.015 1082.95 444.17C1135.49 423.009 1173.08 378.528 1210.69 324.53C1232.76 292.837 1253.78 258.087 1270.75 224.008C1279.33 206.727 1287.01 189.813 1292.12 172.686C1298.34 151.834 1301.56 133.218 1301.76 115.78C1302.63 40.375 1244.7 -11.5244 1182.64 -51.0801" stroke="url(#paint15_linear_879_2)" stroke-miterlimit="10"/>
<path d="M-84.1044 877.579C-93.7418 892.538 -103.587 876.445 -94.5757 849.944C-92.0722 842.505 -88.3832 834.41 -83.4223 826.137C-70.4533 804.504 -50.3274 784.797 -26.6738 764.924C-17.3726 757.11 -7.98117 749.717 1.54865 742.415C80.9862 681.553 165.24 673.717 224.913 658.057C242.203 653.52 257.495 648.38 272.14 641.263C287.462 633.815 304.157 625.276 322.938 615.333C356.054 597.802 398.131 573.95 444.566 558.77C451.481 556.519 458.645 554.369 465.987 552.364C483.165 547.677 500.463 543.888 516.754 538.537C533.18 533.096 548.812 525.971 562.025 514.947C566.017 511.615 569.625 507.984 572.746 503.972C586.965 485.701 591.154 464.98 591.784 444.638C592.345 426.548 590.822 409.281 592.735 394.667C596.409 366.618 601.137 358.719 608.4 349.767C631.654 321.101 727.217 345.887 796.295 382.81C820.317 395.65 844.674 408.951 870.018 421.481C921.923 447.185 976.612 466.429 1029.79 466.033C1052.07 465.868 1073.14 461.482 1092.45 453.136C1144.41 430.68 1180.78 385.169 1217.93 330.903C1239.78 298.974 1260.8 264.158 1278.2 230.231C1286.99 213.031 1294.99 196.27 1300.5 179.295C1307.2 158.692 1311.01 140.237 1311.83 122.823C1315.37 47.7266 1260.75 -6.31536 1200.21 -48.0137" stroke="url(#paint16_linear_879_2)" stroke-miterlimit="10"/>
<path d="M-81.0324 885.858C-88.5852 901.077 -96.1571 885.937 -85.6302 860.44C-82.702 853.284 -78.6403 845.46 -73.3567 837.458C-59.5077 816.483 -38.8476 797.603 -14.8425 778.166C-5.42986 770.545 4.06346 763.276 13.6913 756.015C93.4862 695.843 177.001 684.694 234.835 665.661C251.585 660.149 266.247 654.044 280.319 646.049C295.011 637.701 311.05 628.315 329.266 617.6C361.366 598.716 402.884 573.591 449.413 558.26C456.334 555.99 463.512 553.847 470.876 551.88C488.113 547.279 505.472 543.748 521.859 538.685C538.375 533.536 554.149 526.728 567.552 515.916C571.608 512.643 575.268 509.063 578.438 505.095C592.833 487.064 597.185 466.309 598.082 445.889C598.878 427.779 597.794 410.455 600.305 396.02C605.185 367.967 611.065 361.648 618.873 354.052C643.283 330.31 736.583 356.984 805.642 394.811C829.549 407.907 853.894 421.306 879.325 433.809C931.368 459.438 986.491 477.92 1039.63 476.431C1061.85 475.809 1082.82 470.955 1101.96 462.107C1153.34 438.359 1188.49 391.816 1225.18 337.277C1246.82 305.113 1267.84 270.234 1285.66 236.458C1294.66 219.339 1302.98 202.73 1308.9 185.908C1316.07 165.551 1320.47 147.258 1321.91 129.869C1328.11 55.0842 1276.82 -1.10241 1217.78 -44.9453" stroke="url(#paint17_linear_879_2)" stroke-miterlimit="10"/>
<path d="M-77.9586 894.138C-83.4286 909.617 -88.7238 895.43 -76.6848 870.938C-73.334 864.063 -68.8995 856.511 -63.2931 848.779C-48.5603 828.462 -27.3718 810.407 -3.01124 791.407C6.51281 783.979 16.1099 776.832 25.8337 769.616C105.984 710.131 188.759 695.673 244.758 673.266C260.968 666.779 275.002 659.711 288.501 650.837C302.563 641.593 317.948 631.359 335.599 619.868C366.684 599.633 407.643 573.234 454.262 557.753C461.187 555.463 468.378 553.328 475.768 551.396C493.062 546.883 510.482 543.612 526.965 538.834C543.572 533.974 559.49 527.485 573.081 516.886C577.201 513.674 580.915 510.145 584.131 506.216C598.699 488.426 603.214 467.635 604.378 447.137C605.408 429.007 604.772 411.624 607.873 397.37C613.975 369.315 620.923 364.585 629.344 358.334C654.696 339.516 745.948 368.075 814.985 406.809C838.779 420.159 863.112 433.659 888.628 446.135C940.809 471.686 996.366 489.408 1049.46 486.827C1071.63 485.749 1092.49 480.426 1111.47 471.074C1162.26 446.036 1196.2 398.457 1232.43 343.651C1253.85 311.248 1274.87 276.307 1293.11 242.682C1302.33 225.644 1310.96 209.186 1317.3 192.518C1324.94 172.409 1329.93 154.278 1331.99 136.912C1340.84 62.4387 1292.89 4.10758 1235.35 -41.8779" stroke="url(#paint18_linear_879_2)" stroke-miterlimit="10"/>
<path d="M-74.8862 902.417C-78.2735 918.156 -81.2938 904.922 -67.7388 881.434C-63.9653 874.843 -59.1562 867.563 -53.227 860.101C-37.6085 840.443 -15.8936 823.212 8.82053 804.651C18.456 797.416 28.1568 790.391 37.9768 783.219C118.481 724.417 200.52 706.654 254.68 680.871C270.35 673.412 283.756 665.381 296.68 655.625C310.114 645.485 324.843 634.401 341.93 622.136C372.001 600.551 412.399 572.876 459.112 557.246C466.042 554.935 473.247 552.809 480.658 550.914C498.007 546.487 515.491 543.472 532.071 538.982C548.767 534.413 564.829 528.241 578.607 517.855C582.79 514.702 586.558 511.225 589.82 507.339C604.561 489.789 609.241 468.965 610.672 448.388C611.937 430.24 611.758 412.8 615.439 398.723C622.779 370.668 629.999 365.769 639.813 362.62C663.015 344.091 755.314 379.164 824.327 418.808C848.007 432.411 872.329 446.015 897.927 458.461C950.245 483.938 1006.24 500.899 1059.29 497.223C1081.4 495.691 1102.17 489.899 1120.97 480.042C1171.19 453.719 1203.9 405.098 1239.68 350.024C1260.88 317.383 1281.9 282.38 1300.56 248.906C1309.99 231.948 1318.95 215.642 1325.69 199.125C1333.8 179.263 1339.38 161.293 1342.06 143.955C1353.56 69.7924 1308.95 9.31661 1252.92 -38.8115" stroke="url(#paint19_linear_879_2)" stroke-miterlimit="10"/>
<path d="M-71.812 910.697C-73.1146 926.695 -73.862 914.415 -58.793 891.933C-54.5949 885.623 -49.4111 878.616 -43.163 871.425C-26.6549 852.429 -4.41929 836.016 20.6503 817.895C30.3953 810.85 40.1998 803.95 50.1158 796.821C130.969 738.698 212.274 717.639 264.598 688.479C279.729 680.046 292.507 671.054 304.856 660.416C317.662 649.384 331.733 637.448 348.255 624.407C377.313 601.471 417.148 572.522 463.956 556.74C470.892 554.41 478.108 552.291 485.544 550.434C502.951 546.093 520.495 543.338 537.17 539.134C553.957 534.855 570.163 529.004 584.129 518.826C588.375 515.732 592.195 512.304 595.507 508.462C610.421 491.151 615.263 470.294 616.965 449.638C618.462 431.471 618.748 413.978 623.006 400.076C631.596 372.026 639.959 368.451 650.283 366.905C674.682 352.665 764.681 390.25 833.67 430.81C857.237 444.664 881.546 458.37 907.23 470.787C959.687 496.189 1016.11 512.394 1069.12 507.619C1091.18 505.632 1111.84 499.373 1130.48 489.011C1180.12 461.403 1211.6 411.739 1246.92 356.399C1267.91 323.517 1288.93 288.456 1308.02 255.131C1317.66 238.254 1326.93 222.099 1334.09 205.736C1342.66 186.118 1348.83 168.312 1352.14 150.999C1366.28 77.1479 1325.02 14.5256 1270.49 -35.7432" stroke="url(#paint20_linear_879_2)" stroke-miterlimit="10"/>
<path d="M-68.7378 918.976C-67.9577 935.234 -66.4303 923.907 -49.8472 902.43C-45.2264 896.402 -39.6661 889.668 -33.0971 882.746C-15.6994 864.412 7.05688 848.817 32.4819 831.138C42.3364 824.287 52.2447 817.509 62.2587 810.425C143.46 752.978 224.037 728.626 274.52 696.087C289.111 686.681 301.263 676.73 313.035 665.206C325.214 653.283 338.627 640.495 354.584 626.676C382.628 602.39 421.902 572.165 468.803 556.234C475.745 553.884 482.975 551.771 490.432 549.953C507.897 545.7 525.504 543.203 542.273 539.286C559.15 535.298 575.501 529.764 589.655 519.799C593.965 516.765 597.838 513.389 601.197 509.586C616.283 492.514 621.288 471.624 623.257 450.891C624.987 432.704 625.745 415.16 630.57 401.431C640.424 373.39 649.918 371.134 660.75 371.195C686.346 361.244 774.047 401.337 843.01 442.813C866.464 456.919 890.761 470.728 916.53 483.117C969.124 508.444 1025.99 523.893 1078.95 518.019C1100.95 515.579 1121.51 508.854 1139.98 497.983C1189.05 469.095 1219.3 418.383 1254.17 362.778C1274.94 329.658 1295.95 294.533 1315.47 261.36C1325.32 244.564 1334.91 228.561 1342.48 212.351C1351.52 192.979 1358.27 175.334 1362.21 158.048C1378.98 84.5034 1341.08 19.7405 1288.06 -32.6709" stroke="url(#paint21_linear_879_2)" stroke-miterlimit="10"/>
<path d="M-65.6655 927.257C-62.8027 943.776 -59.0004 933.401 -40.9015 912.928C-35.856 907.182 -29.921 900.724 -23.0331 894.07C-4.74389 876.403 18.5292 861.62 44.3116 844.382C54.2756 837.722 64.2877 831.066 74.3997 824.027C155.947 767.254 235.797 739.613 284.44 703.692C298.492 693.316 310.02 682.404 321.212 669.995C332.769 657.183 345.521 643.541 360.911 628.947C387.942 603.312 426.653 571.811 473.647 555.728C480.594 553.359 487.836 551.253 495.318 549.471C512.838 545.304 530.509 543.065 547.374 539.435C564.342 535.737 580.836 530.524 595.179 520.77C599.552 517.797 603.477 514.468 606.884 510.711C622.141 493.877 627.309 472.953 629.55 452.142C631.509 433.935 632.747 416.343 638.134 402.783C649.266 374.759 660.562 379.791 671.218 375.478C696.662 365.179 783.416 412.417 852.349 454.812C875.692 469.168 899.975 483.082 925.827 495.443C978.56 520.694 1035.86 535.391 1088.78 528.415C1110.72 525.522 1131.19 518.33 1149.48 506.952C1197.97 476.788 1226.99 425.022 1261.41 369.151C1281.96 335.792 1302.98 300.607 1322.92 267.583C1332.98 250.868 1342.88 235.015 1350.87 218.961C1360.38 199.833 1367.71 182.351 1372.28 165.09C1391.68 91.8511 1357.14 24.9495 1305.62 -29.6045" stroke="url(#paint22_linear_879_2)" stroke-miterlimit="10"/>
<path d="M-62.5916 935.536C-57.6441 952.315 -51.5689 942.892 -31.9559 923.425C-26.4878 917.962 -20.1743 911.78 -12.9674 905.392C6.21523 888.393 30.0013 874.418 56.1449 857.626C66.2185 851.155 76.3343 844.625 86.5443 837.63C168.435 781.524 247.562 750.602 294.363 711.298C307.876 699.949 318.784 688.08 329.395 674.783C340.329 661.082 352.42 646.586 367.245 631.214C393.266 604.232 431.414 571.451 478.5 555.218C485.451 552.829 492.708 550.732 500.213 548.987C517.791 544.906 535.521 542.925 552.483 539.583C569.541 536.176 586.179 531.283 600.708 521.737C605.145 518.823 609.122 515.546 612.577 511.83C628.005 495.234 633.335 474.279 635.846 453.388C638.038 435.162 639.76 417.527 645.702 404.132C658.124 376.136 669.669 382.298 681.689 379.76C709.135 373.964 792.79 423.49 861.695 466.807C884.926 481.412 909.196 495.433 935.132 507.765C988.001 532.941 1045.73 546.886 1098.61 538.807C1120.5 535.464 1140.87 527.805 1158.99 515.916C1206.91 484.478 1234.69 431.657 1268.66 375.522C1289 341.923 1310.02 306.676 1330.38 273.804C1340.65 257.17 1350.87 241.466 1359.26 225.566C1369.24 206.68 1377.16 189.364 1382.36 172.129C1404.38 99.193 1373.21 30.1546 1323.2 -26.542" stroke="url(#paint23_linear_879_2)" stroke-miterlimit="10"/>
<path d="M-59.519 943.815C-52.4889 960.852 -44.1368 952.384 -23.0118 933.923C-17.121 928.742 -10.4309 922.836 -2.90504 916.715C17.1729 900.386 41.472 887.217 67.973 870.87C78.1541 864.59 88.3756 858.181 98.6835 851.232C180.917 795.792 259.324 761.592 304.283 718.904C317.258 706.584 327.545 693.757 337.573 679.572C347.886 664.982 359.314 649.633 373.573 633.484C398.583 605.156 436.166 571.096 483.346 554.714C490.303 552.307 497.572 550.216 505.099 548.508C522.735 544.515 540.527 542.792 557.584 539.737C574.732 536.622 591.515 532.047 606.233 522.712C610.732 519.859 614.763 516.631 618.266 512.958C633.863 496.599 639.356 475.612 642.14 454.645C644.561 436.399 646.775 418.726 653.271 405.491C666.991 377.532 679.274 380.927 692.16 384.051C720.7 390.969 802.166 434.57 871.038 478.814C894.158 493.667 918.413 507.795 944.435 520.099C997.443 545.2 1055.61 558.394 1108.44 549.211C1130.27 545.417 1150.54 537.291 1168.49 524.892C1215.85 492.182 1242.39 438.303 1275.91 381.902C1296.02 348.063 1317.05 312.758 1337.83 280.035C1348.31 263.479 1358.85 247.926 1367.66 232.183C1378.1 213.541 1386.61 196.387 1392.44 179.181C1417.07 106.545 1389.27 35.3715 1340.77 -23.4658" stroke="url(#paint24_linear_879_2)" stroke-miterlimit="10"/>
<path d="M-56.4453 952.093C-47.3324 969.39 -36.7055 961.875 -14.0665 944.419C-7.75104 939.519 -0.684378 933.891 7.16043 928.036C28.1337 912.38 52.9439 900.013 79.8041 884.113C90.0948 878.022 100.42 871.738 110.824 864.835C193.397 810.059 271.088 772.582 314.203 726.512C326.64 713.221 336.306 699.436 345.749 684.363C355.446 668.884 366.21 652.683 379.899 635.754C403.898 606.079 440.917 570.741 488.191 554.207C495.154 551.781 502.436 549.697 509.987 548.027C527.678 544.12 545.533 542.655 562.687 539.886C579.925 537.06 596.854 532.806 611.758 523.682C616.323 520.888 620.404 517.711 623.955 514.08C639.723 497.957 645.377 476.939 648.432 455.893C651.084 437.627 653.789 419.923 660.835 406.841C675.865 378.932 689.122 383.406 702.627 388.333C732.01 399.054 811.542 445.638 880.378 490.811C903.387 505.911 927.627 520.146 953.732 532.42C1006.88 557.446 1065.48 569.892 1118.27 559.603C1140.05 555.357 1160.22 546.765 1177.99 533.856C1224.78 499.875 1250.08 444.937 1283.15 388.272C1303.04 354.193 1324.07 318.826 1345.28 286.258C1355.98 269.782 1366.82 254.376 1376.05 238.791C1386.94 220.39 1396.04 203.399 1402.51 186.222C1429.74 113.879 1405.33 40.5795 1358.33 -20.4004" stroke="url(#paint25_linear_879_2)" stroke-miterlimit="10"/>
<path d="M-53.3708 960.375C-42.1733 977.931 -29.2735 971.369 -5.11849 954.918C1.61963 950.3 9.0648 944.951 17.2266 939.36C39.0952 924.379 64.4146 912.808 91.6379 897.357C102.036 891.454 112.465 885.294 122.969 878.437C205.88 824.318 282.859 783.573 324.127 734.118C336.028 719.856 345.075 705.112 353.931 689.152C363.013 672.786 373.109 655.729 386.23 638.025C409.221 607.004 445.672 570.385 493.041 553.701C500.01 551.255 507.303 549.177 514.879 547.545C532.628 543.724 550.545 542.517 567.794 540.036C585.123 537.501 602.196 533.567 617.288 524.653C621.916 521.92 626.049 518.791 629.648 515.203C645.585 499.316 651.403 478.266 654.731 457.143C657.613 438.858 660.814 421.124 668.405 408.194C684.752 380.344 699.033 385.884 713.101 392.619C743.468 407.156 820.924 456.708 889.725 502.812C912.626 518.159 936.85 532.503 963.039 544.748C1016.32 569.698 1075.36 581.399 1128.1 570.001C1149.83 565.306 1169.9 556.247 1187.5 542.826C1233.73 507.58 1257.79 451.576 1290.41 394.649C1310.08 360.328 1331.11 324.904 1352.74 292.485C1363.65 276.09 1374.8 260.832 1384.45 245.404C1395.8 227.243 1405.49 210.415 1412.59 193.269C1442.43 121.215 1421.4 45.7924 1375.91 -17.3301" stroke="url(#paint26_linear_879_2)" stroke-miterlimit="10"/>
<path d="M-50.2991 968.654C-37.0188 986.47 -21.8441 980.862 3.82489 965.414C10.9876 961.08 18.8094 956.009 27.2901 950.682C50.0541 936.379 75.8845 925.601 103.467 910.6C113.975 904.885 124.508 898.849 135.11 892.04C218.357 838.577 294.73 794.645 334.046 741.724C345.44 726.515 353.842 710.788 362.109 693.94C370.577 676.685 380.007 658.776 392.561 640.292C414.543 607.924 450.429 570.027 497.888 553.193C504.862 550.727 512.167 548.658 519.766 547.063C537.573 543.329 555.551 542.379 572.895 540.186C590.314 537.941 607.533 534.329 622.809 525.623C627.501 522.948 631.686 519.87 635.333 516.325C651.439 500.675 657.418 479.594 661.021 458.394C664.131 440.087 667.832 422.334 675.967 409.547C693.637 381.77 708.977 388.375 723.566 396.904C755.024 415.297 830.302 467.774 899.062 514.811C921.855 530.402 946.06 544.857 972.336 557.075C1025.76 581.949 1085.24 592.906 1137.93 580.397C1159.6 575.253 1179.58 565.728 1197 551.795C1242.67 515.282 1265.47 458.213 1297.65 401.022C1317.09 366.46 1338.13 330.975 1360.18 298.708C1371.3 282.394 1382.77 267.282 1392.84 252.012C1404.65 234.089 1414.92 217.424 1422.66 200.309C1455.1 128.541 1437.46 50.9995 1393.47 -14.2656" stroke="url(#paint27_linear_879_2)" stroke-miterlimit="10"/>
<path d="M-47.2246 976.933C-31.8616 995.009 -14.4121 990.354 12.7729 975.911C20.3583 971.858 28.5585 967.069 37.3563 962.002C61.0156 948.38 87.3552 938.39 115.299 923.84C125.914 918.314 136.551 912.4 147.253 905.64C230.835 852.829 306.499 805.622 343.968 749.327C354.824 733.143 362.611 716.461 370.289 698.728C378.143 680.582 386.905 661.821 398.89 642.559C419.867 608.844 455.183 569.668 502.736 552.683C509.714 550.198 517.034 548.136 524.656 546.578C542.521 542.931 560.56 542.24 578 540.334C595.509 538.38 612.874 535.089 628.337 526.592C633.093 523.978 637.329 520.948 641.026 517.446C657.299 502.03 663.442 480.919 667.317 459.643C670.657 441.316 674.859 423.547 683.535 410.896C702.533 383.202 718.957 390.88 734.038 401.187C766.668 423.488 839.688 478.836 908.408 526.81C931.091 542.646 955.281 557.213 981.64 569.401C1035.2 594.2 1095.12 604.413 1147.76 590.793C1169.38 585.2 1189.26 575.21 1206.51 560.763C1251.62 522.986 1273.17 464.848 1304.9 407.397C1324.12 372.593 1345.17 337.051 1367.64 304.933C1378.98 288.7 1390.75 273.731 1401.23 258.623C1413.51 240.938 1424.36 224.437 1432.74 207.354C1467.78 135.867 1453.52 56.2105 1411.05 -11.1973" stroke="url(#paint28_linear_879_2)" stroke-miterlimit="10"/>
<path d="M-44.1521 985.214C-26.7045 1003.55 -6.98198 999.848 21.717 986.411C29.7251 982.64 38.3038 978.132 47.4206 973.327C71.9752 960.389 98.8239 951.182 127.129 937.088C137.852 931.749 148.592 925.959 159.394 919.246C243.308 867.085 318.267 816.607 353.891 756.939C364.21 739.782 371.382 722.141 378.468 703.521C385.712 684.486 393.804 664.873 405.219 644.833C425.189 609.774 459.937 569.318 507.584 552.181C514.568 549.676 521.9 547.622 529.545 546.1C547.465 542.539 565.568 542.108 583.104 540.487C600.703 538.823 618.212 535.855 633.863 527.567C638.682 525.014 642.97 522.031 646.715 518.575C663.158 503.393 669.462 482.253 673.612 460.897C677.178 442.549 681.885 424.768 691.104 412.253C711.433 384.655 728.956 393.415 744.509 405.477C778.363 431.732 849.074 489.901 917.752 538.815C940.329 554.895 964.5 569.572 990.943 581.733C1044.64 606.457 1105 615.928 1157.59 601.195C1179.15 595.155 1198.95 584.698 1216.02 569.738C1260.57 530.698 1280.86 471.49 1312.15 413.775C1331.15 378.73 1352.2 343.13 1375.09 311.162C1386.64 295.01 1398.72 280.185 1409.63 265.238C1422.36 247.79 1433.8 231.452 1442.81 214.402C1480.45 143.189 1469.59 61.4254 1428.62 -8.125" stroke="url(#paint29_linear_879_2)" stroke-miterlimit="10"/>
<path d="M-41.0784 993.492C-21.548 1012.09 0.44933 1009.34 30.6623 996.907C39.095 993.419 48.0504 989.191 57.486 984.648C82.936 972.393 110.294 963.968 138.962 950.329C149.793 945.175 160.637 939.511 171.536 932.845C255.783 881.33 330.037 827.585 363.812 764.542C373.593 746.41 380.155 727.812 386.647 708.308C393.281 688.38 400.703 667.917 411.547 647.099C430.513 610.693 464.69 568.957 512.431 551.672C519.421 549.148 526.766 547.099 534.434 545.617C552.412 542.143 570.576 541.969 588.206 540.636C605.896 539.264 623.551 536.617 639.387 528.535C644.271 526.043 648.609 523.109 652.402 519.694C669.012 504.745 675.477 483.577 679.902 462.145C683.697 443.777 688.905 425.99 698.666 413.603C720.329 386.112 738.96 395.962 754.974 409.759C790.09 440.014 858.459 500.956 927.089 550.812C949.559 567.135 973.71 581.923 1000.24 594.054C1054.07 618.704 1114.87 627.434 1167.42 611.585C1188.92 605.098 1208.62 594.174 1225.52 578.699C1269.51 538.397 1288.55 478.118 1319.39 420.143C1338.16 384.855 1359.22 349.197 1382.54 317.381C1394.3 301.309 1406.69 286.628 1418.01 271.842C1431.2 254.63 1443.23 238.454 1452.88 221.441C1493.11 150.499 1485.65 66.6295 1446.18 -5.06152" stroke="url(#paint30_linear_879_2)" stroke-miterlimit="10"/>
<path d="M-38.0039 1001.77C-16.3908 1020.63 7.8833 1018.83 39.6084 1007.4C48.4638 1004.2 57.7957 1000.25 67.5503 995.97C93.8937 984.402 121.763 976.755 150.792 963.573C161.73 958.606 172.678 953.064 183.678 946.449C268.255 895.576 341.803 838.568 373.732 772.149C382.978 753.045 388.926 733.486 394.826 713.097C400.852 692.278 407.605 670.966 417.879 649.37C435.839 611.616 469.447 568.602 517.279 551.166C524.274 548.622 531.631 546.582 539.324 545.136C557.36 541.749 575.585 541.834 593.312 540.788C611.092 539.707 628.893 537.383 644.915 529.508C649.862 527.076 654.253 524.19 658.095 520.819C674.872 506.102 681.499 484.905 686.2 463.398C690.222 445.008 695.934 427.221 706.236 414.958C729.235 387.585 748.98 398.534 765.448 414.047C801.849 448.338 867.853 512.016 936.437 562.815C958.801 579.381 982.933 594.28 1009.55 606.384C1063.52 630.957 1124.76 638.95 1177.25 621.985C1198.71 615.051 1218.31 603.662 1235.03 587.671C1278.47 546.109 1296.24 484.757 1326.64 426.522C1345.19 390.992 1366.26 355.276 1390 323.61C1401.97 307.619 1414.66 293.077 1426.42 278.457C1440.06 261.48 1452.68 245.467 1462.96 228.49C1505.78 157.811 1501.72 71.8444 1463.76 -1.98926" stroke="url(#paint31_linear_879_2)" stroke-miterlimit="10"/>
<path d="M-34.9321 1010.05C-11.2344 1029.16 15.3127 1028.32 48.5536 1017.9C57.8337 1014.98 67.5422 1011.31 77.6157 1007.29C104.853 996.413 133.231 989.538 162.623 976.814C173.671 972.033 184.72 966.617 195.82 960.05C280.728 909.814 353.573 849.545 383.653 779.753C392.361 759.674 397.7 739.155 403.005 717.885C408.421 696.171 414.545 674.028 424.207 651.637C441.234 612.568 474.2 568.244 522.126 550.658C529.127 548.096 536.497 546.062 544.212 544.654C562.305 541.353 580.592 541.696 598.414 540.936C616.285 540.144 634.232 538.143 650.44 530.477C655.451 528.106 659.893 525.268 663.784 521.942C680.728 507.457 687.514 486.23 692.494 464.648C696.742 446.237 702.958 428.454 713.802 416.312C738.134 389.066 758.997 401.116 775.917 418.332C813.619 456.694 877.246 523.07 945.778 574.814C968.038 591.62 992.149 606.636 1018.85 618.71C1072.96 643.208 1134.64 650.465 1187.08 632.381C1208.48 625.002 1228 613.145 1244.53 596.64C1287.43 553.817 1303.93 491.392 1333.89 432.895C1352.21 397.122 1373.29 361.348 1397.45 329.833C1409.63 313.923 1422.63 299.521 1434.81 285.064C1448.91 268.317 1462.11 252.47 1473.04 235.53C1518.45 165.111 1517.78 77.0514 1481.32 1.0752" stroke="url(#paint32_linear_879_2)" stroke-miterlimit="10"/>
<path d="M-31.8577 1018.33C-6.07721 1037.7 22.7447 1037.81 57.4997 1028.4C67.2024 1025.76 77.2875 1022.38 87.68 1018.61C115.808 1008.42 144.699 1002.32 174.453 990.058C185.608 985.46 196.762 980.168 207.961 973.652C293.197 924.053 365.34 860.527 393.574 787.359C401.745 766.307 406.471 744.825 411.183 722.672C415.99 700.065 421.439 677.071 430.534 653.906C446.552 613.484 478.952 567.888 526.972 550.15C533.979 547.569 541.361 545.542 549.1 544.17C567.249 540.956 585.599 541.556 603.518 541.084C621.478 540.583 639.57 538.906 655.966 531.446C661.041 529.136 665.533 526.345 669.473 523.062C686.583 508.809 693.532 487.554 698.787 465.895C703.26 447.462 709.979 429.687 721.368 417.661C747.036 390.553 769.017 403.71 786.386 422.614C825.397 465.074 886.641 534.118 955.12 586.811C977.275 603.86 1001.36 618.988 1028.15 631.034C1082.39 655.458 1144.52 661.978 1196.91 642.775C1218.26 634.951 1237.68 622.627 1254.03 605.606C1296.39 561.525 1311.61 498.023 1341.13 439.268C1359.23 403.251 1380.31 367.421 1404.9 336.056C1417.29 320.227 1430.6 305.965 1443.2 291.674C1457.75 275.159 1471.55 259.475 1483.11 242.573C1531.11 172.408 1533.84 82.2605 1498.89 4.13965" stroke="url(#paint33_linear_879_2)" stroke-miterlimit="10"/>
<path d="M-28.7856 1026.61C-0.922469 1046.25 30.1743 1047.31 66.4433 1038.9C76.5707 1036.54 87.0304 1033.44 97.7438 1029.94C126.764 1020.44 156.168 1015.11 186.285 1003.3C197.547 998.891 208.803 993.723 220.102 987.258C305.665 938.289 377.108 871.512 403.493 794.968C411.127 772.941 415.244 750.499 419.36 727.466C423.56 703.962 428.334 680.118 436.861 656.179C451.87 614.403 483.703 567.534 531.817 549.646C538.828 547.045 546.225 545.026 553.986 543.691C572.192 540.564 590.604 541.423 608.617 541.237C626.668 541.027 644.905 539.674 661.486 532.419C666.626 530.17 671.168 527.427 675.156 524.187C692.433 510.164 699.542 488.881 705.075 467.148C709.775 448.691 716.995 430.93 728.929 419.016C755.927 392.054 779.031 406.318 796.85 426.901C837.177 473.483 896.033 545.17 964.457 598.812C986.508 616.101 1010.58 631.344 1037.44 643.362C1091.83 667.711 1154.4 673.497 1206.74 653.173C1228.03 644.904 1247.36 632.114 1263.53 614.577C1305.34 569.235 1319.29 504.659 1348.38 445.643C1366.25 409.384 1387.34 373.495 1412.35 342.281C1424.96 326.533 1438.57 312.409 1451.59 298.285C1466.6 282.001 1480.98 266.48 1493.18 249.617C1543.77 179.702 1549.9 87.4714 1516.46 7.20801" stroke="url(#paint34_linear_879_2)" stroke-miterlimit="10"/>
<path d="M-25.7114 1034.89C4.2364 1054.78 37.6061 1056.8 75.3911 1049.39C85.9411 1047.32 96.7774 1044.51 107.81 1041.26C137.719 1032.46 167.638 1027.89 198.116 1016.55C209.487 1012.32 220.846 1007.28 232.245 1000.86C318.134 952.521 388.878 882.491 413.415 802.576C420.512 779.576 424.019 756.169 427.541 732.255C431.134 707.856 435.234 683.162 443.194 658.449C457.195 615.321 488.462 567.179 536.667 549.14C543.683 546.519 551.092 544.509 558.877 543.211C577.141 540.17 595.615 541.287 613.724 541.389C631.865 541.47 650.248 540.44 667.016 533.392C672.219 531.204 676.813 528.508 680.851 525.314C698.293 511.521 705.563 490.211 711.373 468.402C716.298 449.924 724.02 432.181 736.499 420.371C764.829 393.562 789.053 408.937 807.321 431.188C848.966 481.912 905.436 556.22 973.801 610.815C995.75 628.344 1019.8 643.703 1046.75 655.69C1101.27 679.962 1164.29 685.015 1216.57 663.572C1237.81 654.857 1257.06 641.6 1273.04 623.547C1314.31 576.947 1326.87 511.237 1355.63 452.02C1373.2 415.481 1394.37 379.572 1419.81 348.51C1432.62 332.842 1446.54 318.854 1459.99 304.9C1475.45 288.844 1490.42 273.487 1503.26 256.667C1556.44 186.999 1565.97 92.6883 1534.03 10.2822" stroke="url(#paint35_linear_879_2)" stroke-miterlimit="10"/>
<path d="M-22.6372 1043.17C9.39334 1063.32 45.0379 1066.29 84.3369 1059.89C95.3096 1058.09 106.521 1055.57 117.876 1052.58C148.673 1044.47 179.109 1040.66 209.948 1029.79C221.426 1025.74 232.887 1020.82 244.388 1014.46C330.602 966.745 400.646 893.469 423.339 810.179C429.898 786.204 432.796 761.834 435.722 737.042C438.708 711.744 442.133 686.202 449.525 660.715C462.517 616.234 493.218 566.82 541.516 548.632C548.539 545.991 555.961 543.986 563.769 542.728C582.089 539.774 600.626 541.148 618.831 541.538C637.062 541.908 655.603 541.233 672.545 534.362C677.816 532.245 682.457 529.584 686.544 526.435C704.151 512.871 711.581 491.535 717.672 469.65C722.821 451.15 731.042 433.425 744.069 421.721C773.727 395.074 799.073 411.557 817.794 435.471C860.757 490.352 914.843 567.263 983.148 622.812C1005 640.579 1029.02 656.054 1056.05 668.014C1110.71 692.211 1174.18 696.531 1226.4 673.965C1247.6 664.807 1266.75 651.081 1282.55 632.513C1323.28 584.654 1334.57 517.877 1362.88 458.392C1380.23 421.615 1401.41 385.643 1427.27 354.733C1440.29 339.144 1454.52 325.293 1468.38 311.506C1484.3 295.677 1499.86 280.485 1513.34 263.707C1569.11 194.279 1582.03 97.8924 1551.6 13.3457" stroke="url(#paint36_linear_879_2)" stroke-miterlimit="10"/>
<path d="M-19.5652 1051.45C14.5481 1071.86 52.4695 1075.78 93.2805 1070.39C104.678 1068.88 116.263 1066.64 127.937 1063.9C159.622 1056.49 190.575 1053.44 221.775 1043.03C233.363 1039.17 244.926 1034.38 256.527 1028.06C343.065 980.97 412.412 904.45 433.257 817.784C439.28 792.837 441.609 767.506 443.897 741.83C446.318 715.638 449.027 689.245 455.85 662.982C467.831 617.148 497.967 566.462 546.36 548.122C553.388 545.461 560.822 543.464 568.653 542.241C587.031 539.374 605.629 541.007 623.93 541.684C642.252 542.346 660.935 541.989 678.067 535.327C683.401 533.271 688.093 530.658 692.229 527.554C710.002 514.218 717.593 492.855 723.962 470.897C729.336 452.374 738.055 434.671 751.633 423.07C782.616 396.593 809.089 414.183 828.262 439.754C872.543 498.806 924.248 578.303 992.488 634.811C1014.24 652.818 1038.23 668.408 1065.35 680.34C1120.15 704.462 1184.11 708.154 1236.23 684.361C1257.4 674.802 1276.44 660.566 1292.05 641.481C1332.25 592.362 1342.27 524.519 1370.12 464.764C1387.26 427.749 1408.44 391.717 1434.72 360.956C1447.95 345.448 1462.48 331.731 1476.77 318.115C1493.15 302.512 1509.29 287.487 1523.41 270.749C1581.77 201.559 1598.1 103.101 1569.17 16.4121" stroke="url(#paint37_linear_879_2)" stroke-miterlimit="10"/>
<path d="M-16.4907 1059.73C19.7072 1080.4 59.9015 1085.28 102.228 1080.89C114.049 1079.66 126.009 1077.7 138.006 1075.23C170.576 1068.51 202.047 1066.22 233.609 1056.28C245.304 1052.59 256.969 1047.93 268.672 1041.67C355.535 995.192 424.184 915.431 443.181 825.392C448.666 799.47 450.376 773.173 452.078 746.621C453.88 719.529 455.925 692.29 462.181 665.255C473.153 618.068 502.723 566.108 551.209 547.62C558.242 544.939 565.689 542.95 573.545 541.765C591.98 538.984 610.638 540.875 629.035 541.838C647.447 542.791 666.274 542.753 683.593 536.302C688.99 534.305 693.728 531.731 697.921 528.681C715.835 515.536 723.574 494.172 730.257 472.151C735.825 453.595 745.07 435.93 759.2 424.427C791.505 398.123 819.103 416.822 838.733 444.043C884.332 507.278 933.657 589.351 1001.83 646.814C1023.48 665.06 1047.45 680.767 1074.65 692.67C1129.59 716.717 1193.99 719.653 1246.07 694.761C1267.18 684.749 1286.13 670.052 1301.56 650.453C1341.22 600.076 1349.97 531.166 1377.37 471.143C1394.29 433.892 1415.47 397.796 1442.17 367.185C1455.62 351.757 1470.46 338.173 1485.17 324.73C1502 309.352 1518.73 294.492 1533.49 277.798C1594.44 208.84 1614.16 108.316 1586.74 19.4844" stroke="url(#paint38_linear_879_2)" stroke-miterlimit="10"/>
<path d="M-13.4189 1068.01C24.8617 1088.94 67.3309 1094.77 111.172 1091.38C123.416 1090.43 135.751 1088.78 148.067 1086.55C181.531 1080.57 213.5 1078.94 245.438 1069.52C257.237 1066 269 1061.46 280.81 1055.27C367.933 1009.28 435.948 926.41 453.098 832.995C458.047 806.1 459.135 778.835 460.255 751.407C461.439 723.415 462.82 695.33 468.509 667.52C478.473 618.98 507.478 565.747 556.057 547.108C563.094 544.408 570.555 542.427 578.432 541.279C596.923 538.585 615.645 540.735 634.138 541.984C652.64 543.226 671.609 543.51 689.118 537.269C694.577 535.331 699.369 532.809 703.609 529.801C721.697 516.894 729.597 495.496 736.55 473.4C742.353 454.824 752.084 437.184 766.765 425.778C800.391 399.653 829.115 419.459 849.2 448.327C896.115 515.752 943.148 600.289 1011.17 658.813C1032.75 677.266 1056.66 693.121 1083.95 704.996C1139.03 728.966 1203.87 731.148 1255.89 705.157C1276.95 694.69 1295.84 679.558 1311.06 659.422C1350.26 607.841 1357.67 537.807 1384.62 477.518C1401.31 440.028 1422.5 403.87 1449.62 373.41C1463.28 358.063 1478.4 344.581 1493.56 331.342C1510.82 316.152 1528.14 301.467 1543.56 284.842C1607 216.016 1630.22 113.527 1604.31 22.5527" stroke="url(#paint39_linear_879_2)" stroke-miterlimit="10"/>
<path d="M-10.3445 1076.29C30.0189 1097.48 74.7629 1104.26 120.118 1101.88C132.785 1101.21 145.493 1099.84 158.133 1097.87C192.477 1092.57 224.98 1091.73 257.27 1082.76C269.181 1079.43 281.045 1075.01 292.953 1068.87C380.432 1023.56 447.719 937.391 463.02 840.603C467.432 812.733 467.9 784.501 468.434 756.198C469.001 727.306 469.718 698.377 474.838 669.792C483.794 619.9 512.231 565.395 560.903 546.604C567.946 543.886 575.42 541.911 583.321 540.8C601.869 538.193 620.652 540.601 639.239 542.137C657.832 543.672 676.943 544.272 694.643 538.244C700.165 536.367 705.01 533.894 709.297 530.928C727.557 518.258 735.621 496.827 742.841 474.653C748.876 456.055 759.092 438.445 774.328 427.133C809.269 401.193 839.171 422.07 859.666 452.614C908.013 524.16 952.518 611.379 1020.51 670.815C1041.97 689.521 1065.88 705.477 1093.25 717.322C1148.46 741.218 1213.75 742.643 1265.72 715.553C1286.72 704.634 1305.52 689.033 1320.56 668.392C1359.2 615.524 1365.36 544.451 1391.86 483.893C1408.34 446.165 1429.52 409.945 1457.07 379.635C1470.95 364.369 1486.38 351.033 1501.95 337.951C1519.68 323 1537.59 308.476 1553.63 291.887C1619.72 223.337 1646.28 118.738 1621.88 25.6211" stroke="url(#paint40_linear_879_2)" stroke-miterlimit="10"/>
<path d="M-7.27246 1084.57C47.0302 1112.01 108.813 1117 168.197 1109.19C216.392 1102.86 260.492 1105.14 305.094 1082.47C392.928 1037.84 459.487 948.372 472.942 848.211C480.773 789.919 472.156 730.176 481.167 672.061C490.263 613.409 525.458 548.817 588.21 540.318C606.816 537.797 625.661 540.464 644.344 542.287C663.027 544.111 682.283 545.032 700.17 539.213C729.515 529.668 739.888 503.383 749.137 475.904C755.405 457.284 766.103 439.706 781.898 428.486C818.152 402.734 849.137 424.751 870.139 456.9C935.247 556.557 987.696 680.218 1102.56 729.65C1180.24 763.081 1278.36 750.913 1330.07 677.363C1368.14 623.205 1373.06 551.096 1399.11 490.27C1415.37 452.303 1436.56 416.021 1464.53 385.862C1494.65 353.386 1532.4 330.03 1563.71 298.933C1632.45 230.657 1662.35 123.949 1639.45 28.6914" stroke="url(#paint41_linear_879_2)" stroke-miterlimit="10"/>
</g>
<defs>
<linearGradient id="paint0_linear_879_2" x1="-244.504" y1="325.075" x2="1166.36" y2="325.075" gradientUnits="userSpaceOnUse">
<stop stop-color="#43E29B"/>
<stop offset="1" stop-color="#289062"/>
</linearGradient>
<linearGradient id="paint1_linear_879_2" x1="-234.393" y1="330.821" x2="1174.65" y2="330.821" gradientUnits="userSpaceOnUse">
<stop stop-color="#43E29B"/>
<stop offset="1" stop-color="#289062"/>
</linearGradient>
<linearGradient id="paint2_linear_879_2" x1="-224.372" y1="336.573" x2="1183" y2="336.573" gradientUnits="userSpaceOnUse">
<stop stop-color="#43E29B"/>
<stop offset="1" stop-color="#289062"/>
</linearGradient>
<linearGradient id="paint3_linear_879_2" x1="-214.459" y1="342.327" x2="1191.42" y2="342.327" gradientUnits="userSpaceOnUse">
<stop stop-color="#43E29B"/>
<stop offset="1" stop-color="#289062"/>
</linearGradient>
<linearGradient id="paint4_linear_879_2" x1="-204.637" y1="348.084" x2="1199.94" y2="348.084" gradientUnits="userSpaceOnUse">
<stop stop-color="#43E29B"/>
<stop offset="1" stop-color="#289062"/>
</linearGradient>
<linearGradient id="paint5_linear_879_2" x1="-194.926" y1="353.851" x2="1208.54" y2="353.851" gradientUnits="userSpaceOnUse">
<stop stop-color="#43E29B"/>
<stop offset="1" stop-color="#289062"/>
</linearGradient>
<linearGradient id="paint6_linear_879_2" x1="-185.327" y1="359.62" x2="1217.26" y2="359.62" gradientUnits="userSpaceOnUse">
<stop stop-color="#43E29B"/>
<stop offset="1" stop-color="#289062"/>
</linearGradient>
<linearGradient id="paint7_linear_879_2" x1="-175.848" y1="365.39" x2="1226.09" y2="365.39" gradientUnits="userSpaceOnUse">
<stop stop-color="#43E29B"/>
<stop offset="1" stop-color="#289062"/>
</linearGradient>
<linearGradient id="paint8_linear_879_2" x1="-166.5" y1="371.169" x2="1235.03" y2="371.169" gradientUnits="userSpaceOnUse">
<stop stop-color="#43E29B"/>
<stop offset="1" stop-color="#289062"/>
</linearGradient>
<linearGradient id="paint9_linear_879_2" x1="-157.296" y1="376.955" x2="1244.1" y2="376.955" gradientUnits="userSpaceOnUse">
<stop stop-color="#43E29B"/>
<stop offset="1" stop-color="#289062"/>
</linearGradient>
<linearGradient id="paint10_linear_879_2" x1="-148.251" y1="382.75" x2="1253.31" y2="382.75" gradientUnits="userSpaceOnUse">
<stop stop-color="#43E29B"/>
<stop offset="1" stop-color="#289062"/>
</linearGradient>
<linearGradient id="paint11_linear_879_2" x1="-139.372" y1="388.545" x2="1262.67" y2="388.545" gradientUnits="userSpaceOnUse">
<stop stop-color="#43E29B"/>
<stop offset="1" stop-color="#289062"/>
</linearGradient>
<linearGradient id="paint12_linear_879_2" x1="-130.665" y1="394.348" x2="1272.19" y2="394.348" gradientUnits="userSpaceOnUse">
<stop stop-color="#43E29B"/>
<stop offset="1" stop-color="#289062"/>
</linearGradient>
<linearGradient id="paint13_linear_879_2" x1="-122.148" y1="400.16" x2="1281.87" y2="400.16" gradientUnits="userSpaceOnUse">
<stop stop-color="#43E29B"/>
<stop offset="1" stop-color="#289062"/>
</linearGradient>
<linearGradient id="paint14_linear_879_2" x1="-113.858" y1="405.983" x2="1291.73" y2="405.983" gradientUnits="userSpaceOnUse">
<stop stop-color="#43E29B"/>
<stop offset="1" stop-color="#289062"/>
</linearGradient>
<linearGradient id="paint15_linear_879_2" x1="-105.836" y1="411.813" x2="1301.77" y2="411.813" gradientUnits="userSpaceOnUse">
<stop stop-color="#43E29B"/>
<stop offset="1" stop-color="#289062"/>
</linearGradient>
<linearGradient id="paint16_linear_879_2" x1="-98.1287" y1="417.65" x2="1312" y2="417.65" gradientUnits="userSpaceOnUse">
<stop stop-color="#43E29B"/>
<stop offset="1" stop-color="#289062"/>
</linearGradient>
<linearGradient id="paint17_linear_879_2" x1="-90.8093" y1="423.498" x2="1322.42" y2="423.498" gradientUnits="userSpaceOnUse">
<stop stop-color="#43E29B"/>
<stop offset="1" stop-color="#289062"/>
</linearGradient>
<linearGradient id="paint18_linear_879_2" x1="-83.9712" y1="429.357" x2="1333.05" y2="429.357" gradientUnits="userSpaceOnUse">
<stop stop-color="#43E29B"/>
<stop offset="1" stop-color="#289062"/>
</linearGradient>
<linearGradient id="paint19_linear_879_2" x1="-77.7642" y1="435.227" x2="1343.88" y2="435.227" gradientUnits="userSpaceOnUse">
<stop stop-color="#43E29B"/>
<stop offset="1" stop-color="#289062"/>
</linearGradient>
<linearGradient id="paint20_linear_879_2" x1="-72.4473" y1="441.11" x2="1354.94" y2="441.11" gradientUnits="userSpaceOnUse">
<stop stop-color="#43E29B"/>
<stop offset="1" stop-color="#289062"/>
</linearGradient>
<linearGradient id="paint21_linear_879_2" x1="-68.7378" y1="447.008" x2="1366.22" y2="447.008" gradientUnits="userSpaceOnUse">
<stop stop-color="#43E29B"/>
<stop offset="1" stop-color="#289062"/>
</linearGradient>
<linearGradient id="paint22_linear_879_2" x1="-65.6655" y1="452.918" x2="1377.75" y2="452.918" gradientUnits="userSpaceOnUse">
<stop stop-color="#43E29B"/>
<stop offset="1" stop-color="#289062"/>
</linearGradient>
<linearGradient id="paint23_linear_879_2" x1="-62.5916" y1="458.841" x2="1389.54" y2="458.841" gradientUnits="userSpaceOnUse">
<stop stop-color="#43E29B"/>
<stop offset="1" stop-color="#289062"/>
</linearGradient>
<linearGradient id="paint24_linear_879_2" x1="-59.519" y1="464.787" x2="1401.58" y2="464.787" gradientUnits="userSpaceOnUse">
<stop stop-color="#43E29B"/>
<stop offset="1" stop-color="#289062"/>
</linearGradient>
<linearGradient id="paint25_linear_879_2" x1="-56.4453" y1="470.746" x2="1413.88" y2="470.746" gradientUnits="userSpaceOnUse">
<stop stop-color="#43E29B"/>
<stop offset="1" stop-color="#289062"/>
</linearGradient>
<linearGradient id="paint26_linear_879_2" x1="-53.3708" y1="476.729" x2="1426.47" y2="476.729" gradientUnits="userSpaceOnUse">
<stop stop-color="#43E29B"/>
<stop offset="1" stop-color="#289062"/>
</linearGradient>
<linearGradient id="paint27_linear_879_2" x1="-50.2991" y1="482.73" x2="1439.34" y2="482.73" gradientUnits="userSpaceOnUse">
<stop stop-color="#43E29B"/>
<stop offset="1" stop-color="#289062"/>
</linearGradient>
<linearGradient id="paint28_linear_879_2" x1="-47.2246" y1="488.756" x2="1452.49" y2="488.756" gradientUnits="userSpaceOnUse">
<stop stop-color="#43E29B"/>
<stop offset="1" stop-color="#289062"/>
</linearGradient>
<linearGradient id="paint29_linear_879_2" x1="-44.1521" y1="494.811" x2="1465.93" y2="494.811" gradientUnits="userSpaceOnUse">
<stop stop-color="#43E29B"/>
<stop offset="1" stop-color="#289062"/>
</linearGradient>
<linearGradient id="paint30_linear_879_2" x1="-41.0784" y1="500.888" x2="1479.65" y2="500.888" gradientUnits="userSpaceOnUse">
<stop stop-color="#43E29B"/>
<stop offset="1" stop-color="#289062"/>
</linearGradient>
<linearGradient id="paint31_linear_879_2" x1="-38.0039" y1="507" x2="1493.66" y2="507" gradientUnits="userSpaceOnUse">
<stop stop-color="#43E29B"/>
<stop offset="1" stop-color="#289062"/>
</linearGradient>
<linearGradient id="paint32_linear_879_2" x1="-34.9321" y1="513.142" x2="1507.95" y2="513.142" gradientUnits="userSpaceOnUse">
<stop stop-color="#43E29B"/>
<stop offset="1" stop-color="#289062"/>
</linearGradient>
<linearGradient id="paint33_linear_879_2" x1="-31.8577" y1="519.322" x2="1522.49" y2="519.322" gradientUnits="userSpaceOnUse">
<stop stop-color="#43E29B"/>
<stop offset="1" stop-color="#289062"/>
</linearGradient>
<linearGradient id="paint34_linear_879_2" x1="-28.7856" y1="525.546" x2="1537.3" y2="525.546" gradientUnits="userSpaceOnUse">
<stop stop-color="#43E29B"/>
<stop offset="1" stop-color="#289062"/>
</linearGradient>
<linearGradient id="paint35_linear_879_2" x1="-25.7114" y1="531.815" x2="1552.36" y2="531.815" gradientUnits="userSpaceOnUse">
<stop stop-color="#43E29B"/>
<stop offset="1" stop-color="#289062"/>
</linearGradient>
<linearGradient id="paint36_linear_879_2" x1="-22.6372" y1="538.128" x2="1567.64" y2="538.128" gradientUnits="userSpaceOnUse">
<stop stop-color="#43E29B"/>
<stop offset="1" stop-color="#289062"/>
</linearGradient>
<linearGradient id="paint37_linear_879_2" x1="-19.5652" y1="544.497" x2="1583.14" y2="544.497" gradientUnits="userSpaceOnUse">
<stop stop-color="#43E29B"/>
<stop offset="1" stop-color="#289062"/>
</linearGradient>
<linearGradient id="paint38_linear_879_2" x1="-16.4907" y1="550.927" x2="1598.85" y2="550.927" gradientUnits="userSpaceOnUse">
<stop stop-color="#43E29B"/>
<stop offset="1" stop-color="#289062"/>
</linearGradient>
<linearGradient id="paint39_linear_879_2" x1="-13.4189" y1="557.418" x2="1614.73" y2="557.418" gradientUnits="userSpaceOnUse">
<stop stop-color="#43E29B"/>
<stop offset="1" stop-color="#289062"/>
</linearGradient>
<linearGradient id="paint40_linear_879_2" x1="-10.3445" y1="563.977" x2="1630.81" y2="563.977" gradientUnits="userSpaceOnUse">
<stop stop-color="#43E29B"/>
<stop offset="1" stop-color="#289062"/>
</linearGradient>
<linearGradient id="paint41_linear_879_2" x1="-7.27246" y1="570.612" x2="1647.05" y2="570.612" gradientUnits="userSpaceOnUse">
<stop stop-color="#43E29B"/>
<stop offset="1" stop-color="#289062"/>
</linearGradient>
</defs>
</svg>
