<svg width="4000" height="2000" viewBox="0 0 4000 2000" fill="none" xmlns="http://www.w3.org/2000/svg">
<mask id="mask0_878_1827" style="mask-type:luminance" maskUnits="userSpaceOnUse" x="0" y="0" width="4000" height="2000">
<path d="M0.5 0.5H3999.5V1999.5H0.5V0.5Z" fill="white" stroke="white"/>
</mask>
<g mask="url(#mask0_878_1827)">
<path d="M-349.241 1580.25C-281.443 1371.2 -212.414 1159.51 -93.598 974.623C25.218 789.738 201.498 631.599 415.639 582.167C629.78 532.734 880.734 614.247 987.977 806.077C1037.11 893.954 1053.51 995.73 1084.33 1091.57C1115.15 1187.42 1167.35 1284.91 1258.45 1327.76C1356.39 1373.84 1475.8 1343.75 1565.61 1283.35C1655.42 1222.95 1723.41 1136.16 1796.53 1056.36C1957.33 880.897 2172.08 726.504 2409.77 738.647C2618.54 749.313 2796.77 884.48 2967.01 1005.79C3137.26 1127.09 3334.83 1244.93 3541.56 1213.91C3757.96 1181.43 3918.02 993.353 4016.22 797.799C4114.42 602.244 4173.02 385.878 4297.05 205.594" stroke="url(#paint0_linear_878_1827)" stroke-width="2" stroke-miterlimit="10"/>
<path d="M4279.64 187.59C4163.66 367.655 4107.37 580.949 4013.85 774.888C3920.34 968.81 3768.57 1153.45 3565.09 1198.71C3450.11 1224.29 3337.7 1206.05 3226.63 1161.82C3147.21 1130.52 3069.56 1085.6 2996.25 1038.04C2935.71 998.633 2874.27 956.375 2811.77 917.167C2693.11 842.726 2569.43 779.665 2433.57 766.012C2366.34 759.297 2300.81 765.092 2237.49 780.536C2078.33 819.083 1931.98 918.32 1811.07 1034.52C1788.87 1055.83 1767.07 1077.92 1745.08 1100.08C1690.81 1154.77 1635.94 1209.76 1571.18 1253.12C1480.34 1313.94 1362.27 1349.43 1264.8 1311.25C1175.63 1276.31 1122.83 1188.35 1089.05 1102.36C1055.12 1016.43 1034.26 924.229 983.208 843.489C943.267 780.386 886.334 729.484 820.192 691.368C701.741 623.083 554.992 596.531 422.577 619.354C216.229 654.809 48.754 791.831 -76.738 957.985C-140.78 1042.78 -196.613 1138.97 -241.27 1241.57C-285.829 1343.92 -321.513 1451.19 -356.785 1557.63" stroke="url(#paint1_linear_878_1827)" stroke-width="2" stroke-miterlimit="10"/>
<path d="M4262.23 169.588C4154.29 349.433 4100.32 559.656 4011.49 751.979C3922.66 944.268 3778.93 1125.8 3588.62 1183.52C3479.21 1216.71 3372.28 1212.35 3260.89 1178.73C3181.11 1154.65 3101.29 1114.95 3025.49 1070.29C2963.13 1033.33 2899.94 992.308 2836.5 953.36C2716.05 879.416 2592.34 813.7 2457.38 793.379C2390.65 783.41 2325.47 784.933 2262.12 795.596C2102.61 821.949 1952.47 905.738 1825.61 1012.69C1802.3 1032.3 1779.35 1052.89 1756.24 1073.84C1699.23 1125.55 1642.36 1179.17 1576.75 1222.9C1484.89 1284.14 1368.4 1325.01 1271.16 1294.73C1184.11 1267.63 1130.51 1189.29 1093.77 1113.14C1056.74 1037.12 1031.41 954.503 978.445 880.9C936.96 823.378 879.915 776.114 814.59 739.336C697.74 673.502 556.882 642.627 429.521 656.54C230.96 678.019 71.597 794.071 -59.877 941.348C-128.801 1018.56 -193.135 1111.47 -241.828 1214.36C-290.431 1317.02 -327.638 1426.51 -364.327 1535.01" stroke="url(#paint2_linear_878_1827)" stroke-width="2" stroke-miterlimit="10"/>
<path d="M4244.83 151.586C4144.93 331.211 4093.27 538.363 4009.12 729.07C3924.98 919.725 3789.11 1098.56 3612.15 1168.33C3508.16 1209.33 3406.74 1218.87 3295.14 1195.63C3214.92 1178.93 3133.01 1144.3 3054.72 1102.55C2990.56 1068.02 2925.6 1028.24 2861.22 989.552C2739 916.105 2615.24 847.734 2481.18 820.746C2414.96 807.523 2350.14 804.908 2286.76 810.656C2126.92 825.153 1972.95 893.155 1840.15 990.854C1815.73 1008.77 1791.62 1027.85 1767.39 1047.6C1707.65 1096.32 1648.77 1148.57 1582.32 1192.67C1489.43 1254.33 1374.77 1300.49 1277.51 1278.22C1192.8 1258.81 1138.39 1190.11 1098.49 1123.92C1058.56 1057.7 1028.57 984.78 973.678 918.314C930.649 866.374 873.492 822.748 808.983 787.306C693.734 723.923 558.768 688.726 436.461 693.728C245.691 701.229 93.618 796.288 -43.017 924.711C-117.214 994.449 -189.659 1083.97 -242.387 1187.15C-295.034 1290.12 -333.764 1401.83 -371.869 1512.39" stroke="url(#paint3_linear_878_1827)" stroke-width="2" stroke-miterlimit="10"/>
<path d="M4227.42 133.584C4135.56 312.99 4086.22 517.07 4006.75 706.161C3927.3 895.183 3799.18 1071.82 3635.68 1153.14C3537.02 1202.2 3441.17 1225.42 3329.4 1212.54C3248.71 1203.24 3164.64 1173.82 3083.96 1134.8C3017.91 1102.87 2951.27 1064.18 2885.94 1025.74C2761.94 952.794 2638.15 881.769 2504.98 848.114C2439.27 831.636 2374.78 824.778 2311.4 825.717C2151.18 828.09 1993.43 880.574 1854.69 969.019C1829.15 985.239 1803.9 1002.82 1778.55 1021.36C1716.07 1067.09 1655.19 1117.98 1587.89 1162.45C1493.98 1224.53 1381.37 1275.83 1283.86 1261.7C1201.69 1249.8 1146.11 1190.98 1103.2 1134.71C1060.22 1078.33 1025.72 1015.06 968.91 955.729C924.337 909.37 867.068 869.382 803.375 835.277C689.727 774.345 560.652 734.826 443.4 730.917C260.42 724.44 114.751 798.271 -26.158 908.075C-106.061 970.34 -186.183 1056.47 -242.947 1159.94C-299.638 1263.23 -339.891 1377.15 -379.413 1489.77" stroke="url(#paint4_linear_878_1827)" stroke-width="2" stroke-miterlimit="10"/>
<path d="M4210.02 115.58C4126.2 294.766 4079.17 495.774 4004.38 683.25C3929.62 870.639 3809.27 1045.63 3659.2 1137.95C3565.85 1195.37 3475.57 1232.01 3363.65 1229.44C3282.47 1227.57 3196.36 1203.19 3113.19 1167.06C3045.33 1137.58 2976.93 1100.11 2910.66 1061.94C2784.88 989.481 2661.06 915.801 2528.78 875.479C2463.58 855.747 2399.43 844.634 2336.03 840.775C2175.42 830.998 2013.91 867.989 1869.23 947.182C1842.57 961.706 1816.17 977.792 1789.7 995.117C1724.49 1037.86 1661.6 1087.38 1593.46 1132.22C1498.52 1194.72 1388.17 1250.92 1290.22 1245.18C1210.73 1240.53 1153.8 1191.84 1107.92 1145.49C1061.85 1098.95 1022.88 1045.33 964.144 993.139C918.028 952.361 860.647 916.012 797.77 883.244C685.724 824.763 562.54 780.922 450.341 768.102C275.151 747.648 135.025 799.788 -9.29706 891.436C-95.3461 946.079 -182.705 1028.96 -243.506 1132.73C-304.241 1236.33 -346.017 1352.48 -386.956 1467.14" stroke="url(#paint5_linear_878_1827)" stroke-width="2" stroke-miterlimit="10"/>
<path d="M4192.61 97.5781C4116.83 276.544 4072.12 474.481 4002.02 660.341C3931.94 846.097 3819.52 1019.98 3682.73 1122.76C3594.76 1188.85 3509.96 1238.66 3397.9 1246.35C3316.24 1251.95 3228.09 1232.55 3142.42 1199.31C3072.76 1172.28 3002.6 1136.04 2935.38 1098.13C2807.83 1026.17 2683.96 949.834 2552.58 902.845C2487.89 879.859 2424.07 864.48 2360.67 855.833C2199.66 833.877 2034.39 855.405 1883.77 925.345C1856 938.173 1828.45 952.759 1800.86 968.876C1732.91 1008.63 1668.01 1056.78 1599.03 1102C1503.07 1164.92 1395.1 1225.71 1296.57 1228.67C1219.88 1230.97 1161.47 1192.71 1112.64 1156.27C1063.45 1119.57 1020.03 1075.61 959.376 1030.55C911.716 995.354 854.223 962.643 792.162 931.212C681.717 875.182 564.424 827.018 457.28 805.289C289.881 770.858 154.566 800.645 7.56198 874.798C-85.033 921.505 -179.229 1001.46 -244.066 1105.52C-308.845 1209.43 -352.144 1327.8 -394.499 1444.52" stroke="url(#paint6_linear_878_1827)" stroke-width="2" stroke-miterlimit="10"/>
<path d="M4175.2 79.5762C4107.46 258.322 4065.07 453.188 3999.65 637.432C3934.26 821.555 3830.04 994.82 3706.26 1107.56C3623.84 1182.63 3544.36 1245.35 3432.16 1263.25C3350 1276.36 3259.81 1261.9 3171.66 1231.57C3100.19 1206.98 3028.26 1171.98 2960.11 1134.32C2830.77 1062.86 2706.87 983.868 2576.39 930.212C2512.2 903.971 2448.71 884.316 2385.3 870.893C2223.91 836.731 2054.88 842.822 1898.32 903.509C1869.42 914.641 1840.73 927.727 1812.02 942.636C1741.33 979.401 1674.42 1026.19 1604.61 1071.77C1507.62 1135.11 1402.08 1200.14 1302.93 1212.15C1229.06 1221.1 1169.1 1193.59 1117.36 1167.06C1065.02 1140.21 1017.18 1105.88 954.611 1067.96C905.407 1038.35 847.802 1009.28 786.558 979.181C677.714 925.602 566.313 873.116 464.223 842.476C304.614 794.067 173.602 800.707 24.4249 858.16C-75.0211 896.461 -175.75 973.96 -244.622 1078.31C-313.446 1182.53 -358.267 1303.12 -402.039 1421.9" stroke="url(#paint7_linear_878_1827)" stroke-width="2" stroke-miterlimit="10"/>
<path d="M4157.79 61.5742C4098.1 240.101 4058.02 431.894 3997.28 614.523C3936.58 797.013 3840.96 970.031 3729.79 1092.37C3653.19 1176.67 3578.77 1252.09 3466.41 1280.16C3383.77 1300.8 3291.55 1291.23 3200.89 1263.82C3127.62 1241.67 3053.93 1207.91 2984.83 1170.51C2853.71 1099.55 2729.78 1017.9 2600.19 957.58C2536.51 928.085 2473.36 904.143 2409.94 885.954C2248.17 839.56 2075.36 830.241 1912.86 881.675C1882.85 891.112 1853 902.698 1823.17 916.398C1749.75 950.174 1680.84 995.591 1610.18 1041.55C1512.16 1105.31 1408.99 1174.17 1309.28 1195.64C1238.19 1210.94 1176.7 1194.51 1122.08 1177.84C1066.56 1160.89 1014.34 1136.16 949.844 1105.38C899.097 1081.34 841.38 1055.91 780.951 1027.15C673.708 976.022 568.198 919.214 471.162 879.663C319.343 817.277 192.398 799.928 41.284 841.523C-65.182 870.828 -172.274 946.46 -245.182 1051.1C-318.05 1155.63 -364.394 1278.44 -409.583 1399.28" stroke="url(#paint8_linear_878_1827)" stroke-width="2" stroke-miterlimit="10"/>
<path d="M4140.39 43.5723C4088.73 221.879 4050.97 410.601 3994.92 591.614C3938.9 772.47 3852.33 945.47 3753.31 1077.18C3682.87 1170.88 3613.21 1258.86 3500.66 1297.06C3417.57 1325.27 3323.33 1320.38 3230.13 1296.08C3155.09 1276.2 3079.6 1243.84 3009.55 1206.71C2876.66 1136.24 2752.68 1051.94 2623.99 984.948C2560.82 952.199 2498.01 923.962 2434.57 901.015C2272.43 842.368 2095.84 817.659 1927.4 859.841C1896.27 867.582 1865.28 877.668 1834.33 890.16C1758.17 920.947 1687.25 964.997 1615.75 1011.32C1516.71 1075.51 1415.73 1147.8 1315.63 1179.12C1247.2 1200.54 1184.3 1195.49 1126.8 1188.63C1068.09 1181.62 1011.49 1166.44 945.077 1142.79C892.786 1124.34 834.957 1102.54 775.345 1075.12C669.704 1026.45 570.085 965.316 478.103 916.854C334.074 840.491 211.239 798.361 58.145 824.889C-55.347 844.555 -168.796 918.962 -245.741 1023.89C-322.653 1128.74 -370.52 1253.77 -417.126 1376.66" stroke="url(#paint9_linear_878_1827)" stroke-width="2" stroke-miterlimit="10"/>
<path d="M4122.98 25.5703C4079.37 203.657 4043.92 389.308 3992.55 568.705C3941.22 747.928 3864.18 920.983 3776.84 1061.99C3712.92 1165.19 3647.67 1265.66 3534.92 1313.97C3451.38 1349.75 3355.05 1349.73 3259.36 1328.33C3182.52 1310.9 3105.26 1279.78 3034.27 1242.9C2899.6 1172.93 2775.59 1085.97 2647.79 1012.31C2585.13 976.311 2522.72 943.661 2459.21 916.074C2296.84 844.872 2116.32 805.076 1941.94 838.004C1909.7 844.049 1877.55 852.635 1845.49 863.918C1766.59 891.716 1693.66 934.398 1621.32 981.096C1521.25 1045.7 1422.19 1121.08 1321.99 1162.6C1256.03 1189.94 1191.92 1196.49 1131.52 1199.41C1069.65 1202.39 1008.65 1196.71 940.311 1180.2C886.476 1167.33 828.535 1149.17 769.739 1123.09C665.699 1076.86 571.971 1011.41 485.044 954.038C348.805 863.698 230.361 796.115 75.005 808.249C-45.362 817.65 -165.319 891.458 -246.3 996.679C-327.256 1101.84 -376.646 1229.09 -424.668 1354.03" stroke="url(#paint10_linear_878_1827)" stroke-width="2" stroke-miterlimit="10"/>
<path d="M4105.57 7.56641C4070 185.433 4036.87 368.012 3990.18 545.794C3943.54 723.384 3876.47 896.429 3800.37 1046.8C3743.33 1159.5 3682.16 1272.48 3569.17 1330.87C3485.22 1374.25 3386.77 1379.07 3288.6 1360.58C3209.94 1345.59 3130.93 1315.71 3059 1279.09C2922.54 1209.62 2798.5 1120 2671.6 1039.68C2609.44 1000.42 2547.38 963.5 2483.84 931.132C2321.12 847.735 2136.81 792.491 1956.48 816.167C1923.12 820.516 1889.83 827.602 1856.64 837.678C1775 862.487 1700.07 903.802 1626.89 950.87C1525.8 1015.89 1428.31 1094.08 1328.34 1146.09C1264.64 1179.22 1199.57 1197.53 1136.24 1210.19C1071.24 1223.19 1005.8 1226.98 935.544 1217.61C880.165 1210.32 822.112 1195.8 764.133 1171.06C661.694 1127.28 573.858 1057.51 491.984 991.226C363.536 886.907 249.934 793.361 91.866 791.611C-35.1 790.205 -161.842 863.956 -246.858 969.469C-331.858 1074.94 -382.771 1204.41 -432.21 1331.41" stroke="url(#paint11_linear_878_1827)" stroke-width="2" stroke-miterlimit="10"/>
<path d="M4088.17 -10.4355C4060.63 167.212 4029.82 346.719 3987.81 522.885C3945.85 698.842 3889.13 871.706 3823.9 1031.61C3774.07 1153.74 3716.78 1279.45 3603.42 1347.77C3519.15 1398.88 3418.49 1408.42 3317.83 1392.84C3237.36 1380.29 3156.59 1351.64 3083.72 1315.28C2945.48 1246.3 2821.4 1154.04 2695.4 1067.05C2633.75 1024.53 2572.04 983.341 2508.48 946.192C2345.4 850.601 2157.29 779.909 1971.02 794.331C1936.55 796.984 1902.1 802.571 1867.8 811.437C1783.42 833.257 1706.49 873.205 1632.46 920.644C1530.34 986.086 1434.07 1066.91 1334.69 1129.57C1273.02 1168.46 1207.28 1198.66 1140.95 1220.97C1072.9 1244.08 1002.96 1257.26 930.776 1255.03C873.854 1253.31 815.688 1242.43 758.525 1219.03C657.687 1177.7 575.742 1103.6 498.923 1028.41C378.266 910.118 270.052 790.269 108.726 774.974C-24.482 762.344 -158.365 836.456 -247.418 942.26C-336.463 1048.04 -388.898 1179.73 -439.754 1308.79" stroke="url(#paint12_linear_878_1827)" stroke-width="2" stroke-miterlimit="10"/>
<path d="M4070.76 -28.4375C4031.81 326.189 3956.85 676.851 3847.43 1016.41C3805.07 1147.85 3751.25 1286.13 3637.68 1364.68C3485.38 1470.02 3274.79 1432.83 3108.44 1351.47C2900.01 1249.53 2726.81 1088.99 2533.12 961.253C2339.42 833.513 2105.74 736.173 1878.95 785.198C1671.84 829.971 1510.91 986.383 1341.05 1113.06C1171.18 1239.73 950.219 1344.28 752.92 1267C497.611 1166.99 395.747 805.216 125.586 758.336C-13.48 734.204 -154.888 808.954 -247.977 915.049C-341.066 1021.14 -395.024 1155.05 -447.297 1286.16" stroke="url(#paint13_linear_878_1827)" stroke-width="2" stroke-miterlimit="10"/>
</g>
<defs>
<linearGradient id="paint0_linear_878_1827" x1="-349.241" y1="892.924" x2="4297.05" y2="892.924" gradientUnits="userSpaceOnUse">
<stop stop-color="#43E29B"/>
<stop offset="1" stop-color="#289062"/>
</linearGradient>
<linearGradient id="paint1_linear_878_1827" x1="-356.785" y1="872.61" x2="4279.64" y2="872.61" gradientUnits="userSpaceOnUse">
<stop stop-color="#43E29B"/>
<stop offset="1" stop-color="#289062"/>
</linearGradient>
<linearGradient id="paint2_linear_878_1827" x1="-364.327" y1="852.298" x2="4262.23" y2="852.298" gradientUnits="userSpaceOnUse">
<stop stop-color="#43E29B"/>
<stop offset="1" stop-color="#289062"/>
</linearGradient>
<linearGradient id="paint3_linear_878_1827" x1="-371.869" y1="831.986" x2="4244.83" y2="831.986" gradientUnits="userSpaceOnUse">
<stop stop-color="#43E29B"/>
<stop offset="1" stop-color="#289062"/>
</linearGradient>
<linearGradient id="paint4_linear_878_1827" x1="-379.413" y1="811.675" x2="4227.42" y2="811.675" gradientUnits="userSpaceOnUse">
<stop stop-color="#43E29B"/>
<stop offset="1" stop-color="#289062"/>
</linearGradient>
<linearGradient id="paint5_linear_878_1827" x1="-386.956" y1="791.361" x2="4210.02" y2="791.361" gradientUnits="userSpaceOnUse">
<stop stop-color="#43E29B"/>
<stop offset="1" stop-color="#289062"/>
</linearGradient>
<linearGradient id="paint6_linear_878_1827" x1="-394.499" y1="771.049" x2="4192.61" y2="771.049" gradientUnits="userSpaceOnUse">
<stop stop-color="#43E29B"/>
<stop offset="1" stop-color="#289062"/>
</linearGradient>
<linearGradient id="paint7_linear_878_1827" x1="-402.039" y1="750.736" x2="4175.2" y2="750.736" gradientUnits="userSpaceOnUse">
<stop stop-color="#43E29B"/>
<stop offset="1" stop-color="#289062"/>
</linearGradient>
<linearGradient id="paint8_linear_878_1827" x1="-409.583" y1="730.425" x2="4157.79" y2="730.425" gradientUnits="userSpaceOnUse">
<stop stop-color="#43E29B"/>
<stop offset="1" stop-color="#289062"/>
</linearGradient>
<linearGradient id="paint9_linear_878_1827" x1="-417.126" y1="710.114" x2="4140.39" y2="710.114" gradientUnits="userSpaceOnUse">
<stop stop-color="#43E29B"/>
<stop offset="1" stop-color="#289062"/>
</linearGradient>
<linearGradient id="paint10_linear_878_1827" x1="-424.668" y1="689.8" x2="4122.98" y2="689.8" gradientUnits="userSpaceOnUse">
<stop stop-color="#43E29B"/>
<stop offset="1" stop-color="#289062"/>
</linearGradient>
<linearGradient id="paint11_linear_878_1827" x1="-432.21" y1="689.173" x2="4105.57" y2="689.173" gradientUnits="userSpaceOnUse">
<stop stop-color="#43E29B"/>
<stop offset="1" stop-color="#289062"/>
</linearGradient>
<linearGradient id="paint12_linear_878_1827" x1="-439.754" y1="694.612" x2="4088.17" y2="694.612" gradientUnits="userSpaceOnUse">
<stop stop-color="#43E29B"/>
<stop offset="1" stop-color="#289062"/>
</linearGradient>
<linearGradient id="paint13_linear_878_1827" x1="-447.297" y1="700.448" x2="4070.76" y2="700.448" gradientUnits="userSpaceOnUse">
<stop stop-color="#43E29B"/>
<stop offset="1" stop-color="#289062"/>
</linearGradient>
</defs>
</svg>
