<svg width="943" height="633" viewBox="0 0 943 633" fill="none" xmlns="http://www.w3.org/2000/svg">
<mask id="mask0_880_228" style="mask-type:luminance" maskUnits="userSpaceOnUse" x="0" y="0" width="943" height="633">
<path d="M0 633H943V0H0V633Z" fill="white"/>
</mask>
<g mask="url(#mask0_880_228)">
<path d="M902.498 760.273C859.488 771.884 816.448 781.256 773.489 788.351C623.862 813.064 480.31 809.015 346.822 776.318C277.179 759.259 209.264 733.034 144.963 698.371C80.5641 663.654 21.3691 621.324 -30.9769 572.554C-141.664 469.429 -215.378 343.693 -244.149 208.938C-274.741 65.6576 -252.423 -80.9044 -182.916 -193.168L-182.066 -192.642C-251.438 -80.5954 -273.71 65.6986 -243.171 208.73C-186.298 475.097 50.8972 702.803 347.06 775.346C602.164 837.833 899.013 793.776 1182.92 651.289L1183.37 652.183C1090.73 698.675 996.692 734.844 902.498 760.273Z" fill="url(#paint0_linear_880_228)"/>
<path d="M1061.83 742.49C972.627 766.575 883.358 781.276 795.135 786.357C765.128 788.103 735.383 788.528 706.725 787.621C690.407 787.108 674.871 786.302 659.848 785.521C646.052 784.805 633.02 784.128 620.118 783.709C595.278 782.909 569.495 783.109 538.978 784.337C532.948 784.579 526.955 784.864 520.609 785.166C508.047 785.764 495.058 786.382 481.126 786.681C453.929 787.279 425.817 785.48 399.832 781.48C389.638 779.918 379.176 777.972 368.739 775.696C337.961 768.975 306.015 758.959 273.787 745.927C237.312 731.169 199.034 712.084 156.766 687.583C119.089 665.743 82.5884 642.261 45.3994 618.115C39.8944 614.54 34.4054 610.987 28.9524 607.457C-1.93561 587.461 -31.1096 568.575 -56.3206 550.272C-81.4786 531.95 -103.038 512.357 -122.226 490.371C-141.516 468.257 -154.2 448.804 -163.354 427.295C-173.246 404.075 -181.688 376.138 -188.642 351.874C-200.093 311.813 -209.58 269.571 -216.841 226.322C-225.549 174.33 -230.95 121.379 -232.897 68.9413C-236.897 -39.7657 -224.634 -123.618 -195.405 -187.407L-194.495 -186.99C-223.658 -123.347 -235.892 -39.6427 -231.897 68.9043C-229.952 121.299 -224.555 174.207 -215.854 226.157C-208.6 269.369 -199.12 311.574 -187.679 351.599C-180.734 375.834 -172.304 403.734 -162.433 426.904C-153.321 448.313 -140.687 467.684 -121.471 489.715C-102.331 511.644 -80.8284 531.188 -55.7314 549.465C-30.5424 567.752 -1.37868 586.632 29.4973 606.619C34.9503 610.149 40.4383 613.703 45.9443 617.278C83.1223 641.417 119.611 664.892 157.268 686.72C199.496 711.197 237.732 730.262 274.163 745.002C306.338 758.013 338.23 768.012 368.954 774.721C379.371 776.993 389.811 778.935 399.985 780.494C425.915 784.485 453.965 786.28 481.105 785.683C495.025 785.384 508.007 784.766 520.563 784.169C526.91 783.867 532.905 783.582 538.938 783.34C569.481 782.11 595.287 781.911 620.151 782.712C633.064 783.13 646.1 783.807 659.901 784.524C674.92 785.304 690.45 786.11 706.759 786.622C735.387 787.529 765.102 787.103 795.079 785.36C924.604 777.899 1056.44 749.675 1186.93 701.468L1187.27 702.406C1145.57 717.813 1103.7 731.187 1061.83 742.49Z" fill="url(#paint1_linear_880_228)"/>
<path d="M1191.18 752.623C1122.77 770.115 1053.24 782.237 984.528 788.654C915.549 795.096 847.07 795.817 780.994 790.797C749.519 788.439 719.422 784.422 693.958 779.181C682.754 776.882 672.564 774.51 662.709 772.216C647.121 768.587 633.658 765.454 620.926 763.721C601.178 761.047 582.705 761.854 559.158 766.416C552.966 767.614 546.466 769.109 539.584 770.692C530.47 772.788 520.139 775.165 508.638 777.264C482.587 782.045 452.598 783.052 424.197 780.102C413.277 778.979 401.992 777.288 390.655 775.075C357.981 768.684 323.731 757.675 288.856 742.353C243.521 722.418 201.193 697.268 165.768 675.294C152.646 667.154 139.29 658.706 126.374 650.537C100.021 633.868 72.7698 616.631 45.9248 601.009C9.3778 579.735 -27.3892 561.994 -56.9312 547.739L-65.2002 543.745C-91.6952 530.822 -110.744 518.256 -126.965 502.997C-141.445 489.351 -152.132 475.813 -157.227 454.097C-160.655 439.538 -163.598 420.513 -166.713 400.37C-167.835 393.125 -168.993 385.633 -170.215 378.076C-176.975 335.945 -183.472 290.736 -189.53 243.706C-196.196 191.69 -202.601 134.911 -208.571 74.943C-219.864 -39.069 -223.688 -121.758 -207.891 -181.623L-206.924 -181.368C-222.684 -121.648 -218.858 -39.058 -207.577 74.844C-201.608 134.802 -195.202 191.573 -188.539 243.578C-182.482 290.597 -175.985 335.795 -169.228 377.917C-168.005 385.476 -166.846 392.97 -165.724 400.217C-162.612 420.34 -159.672 439.347 -156.252 453.868C-151.214 475.342 -140.627 488.748 -126.279 502.269C-110.134 517.456 -91.1622 529.97 -64.7622 542.846L-56.4954 546.839C-26.9374 561.101 9.84871 578.852 46.4287 600.145C73.2897 615.776 100.549 633.017 126.909 649.691C139.823 657.859 153.178 666.306 166.296 674.443C201.692 696.398 243.98 721.527 289.259 741.436C324.066 756.729 358.246 767.715 390.848 774.092C402.155 776.298 413.409 777.985 424.3 779.106C452.61 782.047 482.497 781.043 508.458 776.279C519.936 774.185 530.255 771.812 539.359 769.718C546.25 768.133 552.758 766.636 558.967 765.434C582.628 760.849 601.198 760.04 621.061 762.729C633.84 764.468 647.323 767.606 662.936 771.24C672.785 773.532 682.969 775.903 694.159 778.199C719.582 783.432 749.635 787.443 781.069 789.798C912.536 799.786 1054.26 786.596 1190.93 751.653L1191.18 752.623Z" fill="url(#paint2_linear_880_228)"/>
<path d="M1195.09 802.834C1049.74 825.647 901.656 823.017 766.856 795.228C733.204 788.34 703.58 779.866 681.187 770.723C667.866 765.298 656.769 759.826 646.977 754.998C637.306 750.229 628.955 746.111 621.696 743.716C608.142 739.268 597.068 740.513 579.374 748.47C576.1 749.94 572.577 751.682 568.845 753.526C560.283 757.758 549.627 763.024 536.151 767.834C511.604 776.635 479.679 780.603 448.561 778.721C436.887 778.03 424.779 776.595 412.571 774.454C377.78 768.334 341.229 756.332 303.929 738.78C258.856 717.55 217.118 690.823 174.775 663.006L165.061 656.618C126.572 631.295 86.7729 605.111 46.4509 583.903C-5.65707 556.488 -55.1871 542.117 -74.0631 537.21C-99.8851 530.498 -117.587 524.817 -131.668 515.646C-142.726 508.404 -151.176 501.245 -151.084 480.868C-151.073 477.248 -151.033 473.146 -150.989 468.651C-150.821 451.626 -150.591 428.31 -151.781 404.284C-153.914 359.762 -157.426 311.586 -162.219 261.095C-168.291 196.565 -175.702 135.953 -184.246 80.9443C-189.217 48.8033 -194.498 18.4304 -199.605 -10.9426C-211.269 -78.0306 -221.344 -135.971 -220.366 -175.801L-219.366 -175.777C-220.341 -136.045 -210.275 -78.1506 -198.62 -11.1146C-193.512 18.2624 -188.231 48.6404 -183.258 80.7914C-174.711 135.819 -167.298 196.45 -161.224 261C-156.43 311.506 -152.917 359.698 -150.784 404.234C-149.592 428.288 -149.823 451.622 -149.991 468.659C-150.035 473.152 -150.076 477.251 -150.086 480.87C-150.176 500.745 -141.922 507.735 -131.123 514.807C-117.158 523.904 -99.5351 529.555 -73.8141 536.241C-54.9051 541.157 -5.28716 555.554 46.9128 583.017C87.2798 604.247 127.099 630.446 165.608 655.782L175.321 662.169C217.632 689.966 259.339 716.673 304.351 737.874C341.57 755.388 378.038 767.363 412.741 773.468C424.91 775.602 436.981 777.033 448.617 777.721C479.606 779.595 511.387 775.651 535.811 766.89C549.232 762.1 559.415 757.067 568.4 752.627C572.139 750.779 575.671 749.034 578.961 747.556C596.912 739.48 608.176 738.227 622.007 742.764C629.332 745.181 637.713 749.314 647.418 754.099C657.194 758.92 668.275 764.384 681.562 769.796C703.9 778.916 733.462 787.371 767.055 794.247C901.74 822.012 1049.7 824.64 1194.93 801.845L1195.09 802.834Z" fill="url(#paint3_linear_880_228)"/>
<path d="M1199 853.041C1044.58 863.919 890.256 845.457 752.724 799.654C716.73 787.73 688.367 775.145 668.423 762.25C650.722 750.834 639.12 739.553 630.65 731.316C627.455 728.21 624.695 725.527 622.397 723.644C614.705 717.338 611.212 719.309 599.621 730.463C598.875 731.18 598.098 731.936 597.285 732.729C590.103 739.728 580.267 749.315 563.658 758.393C540.658 771.014 506.737 778.097 472.922 777.34C460.488 777.08 447.556 775.9 434.487 773.833C397.48 767.961 358.626 754.965 319.003 735.208C272.652 712.071 229.468 682.258 187.706 653.427L183.782 650.719C136.093 617.803 92.881 588.769 46.975 566.795C-4.17102 542.304 -53.658 532.068 -82.915 530.656C-94.689 530.087 -104.066 529.974 -111.6 529.883C-122.689 529.75 -130.014 529.661 -136.27 528.308C-140.909 527.305 -144.572 526.512 -146.251 523.629C-147.919 520.766 -147.516 515.975 -144.904 507.606C-140.378 492.989 -135.045 463.475 -133.338 430.495C-130.837 383.837 -131.364 332.693 -134.903 278.485C-139.184 211.995 -147.833 145.76 -159.915 86.9424C-176.273 7.02345 -199.12 -63.6646 -215.803 -115.278C-222.734 -136.723 -228.721 -155.244 -232.802 -169.949L-231.838 -170.216C-227.762 -155.531 -221.78 -137.019 -214.851 -115.585C-198.162 -63.9486 -175.304 6.76943 -158.935 86.7424C-146.844 145.605 -138.189 211.886 -133.904 278.421C-130.362 332.668 -129.835 383.852 -132.339 430.548C-134.05 463.614 -139.403 493.226 -143.949 507.903C-146.47 515.978 -146.9 520.53 -145.387 523.125C-143.929 525.628 -140.456 526.379 -136.058 527.33C-129.901 528.662 -122.615 528.749 -111.588 528.883C-104.045 528.973 -94.6589 529.087 -82.8669 529.656C-53.5119 531.073 -3.87302 541.337 47.407 565.892C93.379 587.897 136.625 616.955 184.351 649.895L188.274 652.603C230.006 681.415 273.16 711.208 319.448 734.313C358.979 754.025 397.737 766.989 434.642 772.845C447.666 774.904 460.553 776.08 472.942 776.34C506.591 777.092 540.325 770.053 563.176 757.516C579.665 748.503 589.445 738.972 596.587 732.012C597.401 731.218 598.179 730.46 598.927 729.742C610.222 718.876 614.582 715.946 623.031 722.87C625.361 724.78 628.135 727.477 631.346 730.599C639.788 738.807 651.349 750.048 668.965 761.411C688.839 774.26 717.125 786.807 753.039 798.706C890.448 844.469 1044.63 862.913 1198.93 852.044L1199 853.041Z" fill="url(#paint4_linear_880_228)"/>
<path d="M1202.92 903.243C1039.04 902.262 878.484 867.969 738.599 804.074C700.589 786.787 673.463 770.331 655.672 753.766C629.904 729.83 624.007 707.593 623.087 703.378C623.015 703.051 622.95 702.745 622.892 702.458C622.403 704.919 621.46 708.332 619.844 712.375C614.064 726.789 604.68 738.751 591.153 748.943C569.663 765.194 533.693 775.544 497.28 775.957C484.081 776.125 470.326 775.201 456.401 773.21C417.122 767.573 375.967 753.585 334.077 731.635C288.955 707.966 247.166 677.743 206.753 648.515C202.105 645.154 197.453 641.789 192.792 638.431C149.81 607.464 99.5919 572.514 47.4958 549.684C-0.537151 528.626 -55.2041 518.576 -91.7711 524.08C-117.48 527.951 -129.5 534.648 -137.458 539.08C-138.623 539.729 -139.695 540.326 -140.704 540.855C-142.324 541.703 -143.585 542.623 -144.44 543.337C-145.317 544.297 -146.014 544.916 -146.295 544.838L-146.627 544.751L-146.67 544.405C-146.707 544.078 -146.063 543.372 -145.091 542.571C-143.871 541.194 -141.783 538.642 -138.677 534.348C-129.24 521.225 -119.681 490.025 -114.893 456.711C-107.882 408.574 -105.356 352.959 -107.589 295.876C-110.28 225.449 -119.962 155.274 -135.587 92.9362C-163.078 -17.0828 -210.231 -111.978 -245.192 -164.1L-244.361 -164.657C-209.353 -112.465 -162.139 -17.4499 -134.616 92.6931C-118.975 155.097 -109.282 225.343 -106.589 295.837C-104.353 352.98 -106.882 408.659 -113.902 456.854C-118.711 490.311 -128.341 521.689 -137.866 534.932C-138.465 535.76 -140.236 538.19 -142.015 540.437C-141.732 540.272 -141.449 540.114 -141.168 539.967C-140.166 539.443 -139.102 538.849 -137.944 538.204C-129.924 533.737 -117.805 526.986 -91.9213 523.09C-55.1793 517.559 -0.297173 527.638 47.8978 548.767C100.083 571.636 150.354 606.621 193.376 637.619C198.039 640.978 202.691 644.343 207.339 647.704C247.723 676.911 289.483 707.113 334.542 730.749C376.329 752.647 417.377 766.6 456.542 772.22C470.417 774.204 484.118 775.124 497.267 774.956C533.48 774.548 569.221 764.273 590.549 748.145C603.927 738.065 613.206 726.243 618.915 712.003C622.402 703.277 622.378 698.664 622.376 698.619L622.418 698.618C622.459 698.273 622.562 698.211 622.619 698.177L622.927 697.992L623.2 698.225C623.254 698.271 623.293 698.401 623.313 698.609H623.376C623.376 698.624 623.398 700.126 624.061 703.163C626.573 714.665 636.538 734.627 656.35 753.032C673.816 769.294 701.627 786.16 739.012 803.162C878.77 867.001 1039.19 901.262 1202.92 902.242L1202.92 903.243Z" fill="url(#paint5_linear_880_228)"/>
<path d="M1206.84 953.443C1033.24 940.597 866.447 890.474 724.48 808.491C685.246 785.918 658.571 765.24 642.934 745.277C637.68 738.585 633.502 731.771 630.309 725.153C627.375 729.808 623.568 734.653 618.633 739.49C598.287 759.498 561.121 772.941 521.634 774.571C507.67 775.168 493.094 774.5 478.312 772.586C436.729 767.179 393.273 752.198 349.151 728.06C304.338 703.52 263.078 672.364 223.175 642.234C216.065 636.865 208.948 631.491 201.799 626.142C154.279 590.588 102.76 554.644 48.0142 532.569C-4.67284 511.315 -64.4171 505.261 -100.642 517.486C-102.61 518.15 -104.49 518.834 -106.286 519.536C-113.911 539.713 -123.006 555.112 -131.813 561.921C-140.222 568.388 -144.305 567.852 -146.251 566.263C-149.296 563.778 -148.51 557.6 -146.16 552.782C-140.546 541.272 -131.455 528.39 -107.055 518.763C-103.013 507.988 -99.387 495.851 -96.446 482.932C-84.904 432.649 -79.3129 373.981 -80.2759 313.267C-81.3939 238.697 -92.108 164.579 -111.259 98.9264C-147.025 -24.0016 -212.165 -120.579 -257.555 -158.29L-256.915 -159.06C-211.413 -121.254 -146.123 -24.4836 -110.298 98.6454C-91.1221 164.382 -80.3949 238.592 -79.2759 313.25C-78.3109 374.042 -83.9109 432.794 -95.4709 483.153C-98.3439 495.776 -101.876 507.667 -105.817 518.281C-104.259 517.686 -102.644 517.105 -100.962 516.537C-64.5129 504.222 -4.50084 510.303 48.3892 531.64C103.24 553.758 154.824 589.745 202.398 625.339C209.548 630.689 216.667 636.064 223.778 641.434C263.651 671.543 304.882 702.676 349.63 727.182C393.644 751.26 436.981 766.202 478.44 771.593C493.166 773.5 507.684 774.165 521.591 773.571C560.245 771.975 598.061 758.317 617.932 738.775C622.998 733.809 626.859 728.838 629.798 724.08C621.87 707.141 620.418 691.639 623.97 683.092C625.768 678.763 628.733 676.554 631.903 677.185C635.916 677.983 639.97 683.577 639.982 694.274C639.982 699.578 638.886 711.064 630.901 724.193C634.006 730.72 638.196 737.622 643.719 744.658C659.277 764.519 685.857 785.115 724.979 807.623C866.816 889.531 1033.47 939.609 1206.91 952.444L1206.84 953.443ZM629.742 678.233C627.827 678.75 626.095 680.589 624.895 683.478C622.068 690.28 622.153 705.205 630.393 723.105C637.936 710.431 638.985 699.408 638.985 694.277C638.974 684.201 635.206 678.863 631.711 678.168C631.042 678.035 630.381 678.06 629.742 678.233ZM-107.536 520.032C-130.984 529.498 -139.799 542.021 -145.261 553.22C-147.76 558.342 -147.914 563.616 -145.619 565.488C-143.263 567.409 -138.577 565.861 -132.424 561.128C-123.867 554.513 -115.016 539.609 -107.536 520.032Z" fill="url(#paint6_linear_880_228)"/>
<path d="M1210.77 1003.64C1027.27 978.887 854.237 912.933 710.368 812.911C672.697 786.803 648.098 764.19 633.633 742.281C612.556 759.175 580.132 770.863 545.987 773.189C531.253 774.213 515.856 773.801 500.223 771.965C456.936 766.858 409.909 750.442 364.226 724.49C319.199 698.887 277.976 666.506 238.109 635.192C229.183 628.181 219.954 620.931 210.808 613.856C161.683 575.852 108.024 537.628 48.5323 515.458C6.40935 499.753 -38.7045 494.506 -74.2755 500.077C-75.1715 503.234 -76.0927 506.359 -77.0397 509.453C-89.2737 549.647 -108.395 580.819 -125.753 588.866C-133.684 592.527 -140.029 592.646 -144.614 589.227C-151.123 584.374 -152.168 573.801 -150.978 565.524C-148.742 549.584 -142.058 526.484 -109.984 509.998C-100.078 504.906 -88.2236 501.311 -75.0656 499.198C-60.8826 448.975 -53.2595 390.967 -52.9635 330.663C-52.5075 251.873 -64.2535 173.812 -86.9305 104.918C-106.801 44.4146 -136.228 -13.0194 -172.03 -61.1774C-204.07 -104.274 -238.835 -136.714 -269.92 -152.521L-269.467 -153.412C-238.248 -137.537 -203.358 -104.992 -171.228 -61.7734C-135.362 -13.5304 -105.884 44.0026 -85.9816 104.606C-63.2716 173.602 -51.5087 251.773 -51.9647 330.67C-52.2607 390.883 -59.8546 448.824 -73.9786 499.028C-38.2946 493.547 6.79145 498.83 48.8824 514.522C108.499 536.739 162.233 575.014 211.42 613.066C220.569 620.144 229.8 627.395 238.728 634.407C278.565 665.699 319.759 698.056 364.72 723.622C410.288 749.509 457.184 765.882 500.34 770.973C515.913 772.803 531.247 773.213 545.92 772.193C579.914 769.876 612.176 758.246 633.086 741.445C632.078 739.891 631.12 738.341 630.213 736.793C612.111 705.991 613.972 675.772 624.912 662.978C629.651 657.408 636.052 655.029 642.474 656.453C650.574 658.247 657.153 665.642 660.072 676.234C661.838 682.658 666.047 705.523 646.105 730.042C642.799 734.12 638.869 738.004 634.416 741.65C648.8 763.474 673.326 786.022 710.941 812.091C854.68 912.024 1027.56 977.919 1210.9 1002.65L1210.77 1003.64ZM634.809 657.586C631.439 658.496 628.292 660.547 625.672 663.626C614.956 676.159 613.208 705.883 631.075 736.286C631.957 737.791 632.888 739.299 633.866 740.81C638.231 737.226 642.082 733.414 645.327 729.41C664.967 705.261 660.839 682.804 659.106 676.498C656.287 666.27 649.989 659.141 642.256 657.428C639.736 656.87 637.216 656.936 634.809 657.586ZM-89.3485 503.248C-96.7095 505.235 -103.483 507.779 -109.529 510.887C-141.188 527.16 -147.782 549.943 -149.988 565.664C-151.086 573.292 -150.18 583.829 -144.017 588.424C-139.748 591.607 -133.743 591.45 -126.173 587.957C-109.062 580.023 -90.1517 549.094 -77.9957 509.159C-77.0947 506.217 -76.2176 503.249 -75.3636 500.25C-80.2186 501.046 -84.8925 502.045 -89.3485 503.248Z" fill="url(#paint7_linear_880_228)"/>
<path d="M1214.7 1053.84C1118.08 1035.5 1024.31 1005.7 935.986 965.238C848.718 925.264 768.064 875.499 696.266 817.33C676.608 801.447 651.083 779.349 632.877 754.357C614.742 763.493 593.099 769.705 570.343 771.806C554.845 773.257 538.625 773.101 522.136 771.343C476.541 766.457 427.15 749.021 379.305 720.918C333.734 694.13 292.233 660.341 252.098 627.664C241.555 619.08 230.652 610.203 219.82 601.57C171.408 562.982 113.259 520.542 49.0498 498.344C18.6648 487.834 -13.3812 483.065 -42.4712 483.872C-47.0282 501.955 -52.4184 519.308 -58.6104 535.744C-71.3714 569.782 -94.1143 608.682 -119.674 615.779C-128.77 618.31 -136.485 617.281 -142.515 612.751C-154.177 603.991 -155.659 585.665 -155.755 578.193C-156.066 557.063 -152.594 526.326 -118.993 503.459C-100.334 490.76 -73.3933 483.847 -43.2593 482.906C-32.7783 441.061 -26.7662 395.329 -25.6482 348.058C-23.6182 265.015 -36.3973 183.008 -62.6013 110.905C-85.7953 46.9618 -120.433 -12.1051 -162.77 -59.9111C-201.639 -103.801 -244.089 -134.654 -282.3 -146.785L-281.997 -147.739C-243.617 -135.553 -201.008 -104.597 -162.022 -60.5742C-119.602 -12.6742 -84.8984 46.5038 -61.6614 110.564C-35.4144 182.783 -22.6152 264.916 -24.6482 348.082C-25.7652 395.323 -31.7632 441.034 -42.2212 482.876C-13.0762 482.101 18.9837 486.887 49.3777 497.399C113.73 519.647 171.965 562.147 220.444 600.788C231.279 609.424 242.184 618.303 252.73 626.889C292.837 659.542 334.308 693.306 379.812 720.056C427.536 748.087 476.787 765.478 522.242 770.349C538.665 772.1 554.818 772.255 570.25 770.81C592.829 768.724 614.299 762.578 632.287 753.542C626.42 745.397 621.341 736.948 617.506 728.312C609.996 711.442 607.122 693.938 609.194 677.695C611.096 662.794 617.003 650.45 625.829 642.936C633.754 636.172 643.589 633.613 653.526 635.732C664.788 638.135 674.49 646.338 680.148 658.238C687.168 673.026 689.126 697.173 673.569 720.592C664.921 733.647 650.965 745.092 633.78 753.898C651.908 778.739 677.321 800.735 696.897 816.552C842.421 934.453 1021.54 1016.17 1214.88 1052.86L1214.7 1053.84ZM638.908 637.043C634.458 638.244 630.246 640.48 626.477 643.697C610.467 657.328 602.201 691.473 618.42 727.906C622.246 736.521 627.322 744.953 633.189 753.085C650.28 744.352 664.154 732.994 672.735 720.04C688.062 696.967 686.146 673.209 679.243 658.668C673.721 647.051 664.271 639.048 653.316 636.711C648.412 635.664 643.532 635.795 638.908 637.043ZM-85.4692 489.81C-98.0682 493.211 -109.258 498.043 -118.43 504.285C-151.632 526.881 -155.063 557.28 -154.755 578.179C-154.559 593.434 -149.759 606.058 -141.914 611.951C-136.144 616.285 -128.738 617.264 -119.94 614.816C-94.7422 607.819 -72.2202 569.201 -59.5442 535.393C-53.3972 519.076 -48.0413 501.852 -43.5083 483.904C-58.5113 484.389 -72.7122 486.366 -85.4692 489.81Z" fill="url(#paint8_linear_880_228)"/>
<path d="M1218.63 1104.04C1117.15 1079.74 1019.34 1042.94 927.913 994.662C837.456 946.898 754.775 888.721 682.166 821.748C664.299 805.306 644.162 785.452 628.218 763.425C617.579 766.71 606.317 769.092 594.693 770.421C578.426 772.299 561.386 772.4 544.046 770.719C496.133 766.055 444.38 747.6 394.381 717.346C348.044 689.288 306.055 653.968 265.449 619.81C253.498 609.756 241.139 599.36 228.832 589.284C178.711 548.249 118.218 503.321 49.5674 481.229C29.7074 474.836 9.34327 470.932 -10.4487 469.417C-17.6557 502.444 -27.6307 533.618 -40.1797 562.032C-55.2187 596.214 -80.8907 634.107 -109.136 641.735C-110.612 642.133 -112.089 642.448 -113.577 642.677C-123.974 644.263 -132.984 642.171 -140.358 636.462C-155.015 625.111 -159.285 603 -160.525 590.83C-163.245 564.449 -162.831 526.011 -127.987 496.917C-101.822 474.904 -58.1607 464.94 -11.2427 468.361C-4.14268 435.574 0.225236 400.976 1.66724 365.454C5.27324 278.136 -8.5377 192.185 -38.2727 116.891C-64.7767 49.6671 -104.627 -11.0339 -153.513 -58.6519C-199.169 -103.122 -249.31 -132.391 -294.7 -141.066L-294.512 -142.048C-248.932 -133.336 -198.609 -103.973 -152.815 -59.3679C-103.828 -11.6529 -63.8978 49.1701 -37.3418 116.524C-7.5558 191.946 6.27826 278.039 2.66626 365.495C1.22426 401.022 -3.1406 435.636 -10.2356 468.437C9.5954 469.962 29.9873 473.876 49.8733 480.278C118.683 502.42 179.273 547.416 229.465 588.51C241.778 598.591 254.14 608.989 266.094 619.045C306.671 653.178 348.629 688.473 394.9 716.491C444.772 746.667 496.38 765.075 544.144 769.724C561.413 771.398 578.383 771.298 594.581 769.428C606.026 768.12 617.122 765.784 627.605 762.572C617.907 749.044 609.81 734.703 604.807 719.838C590.23 676.634 604.8 638.38 626.725 622.923C637.785 615.113 651.238 612.288 664.61 614.969C679.171 617.888 691.818 626.875 700.225 640.275C710.487 656.645 716.085 683.86 701.023 711.147C688.429 734.025 661.848 752.822 629.227 763.111C645.09 784.962 665.089 804.673 682.845 821.013C830.079 956.82 1015.43 1054.35 1218.86 1103.06L1218.63 1104.04ZM642.41 616.612C637.066 618.055 631.967 620.443 627.3 623.739C605.677 638.983 591.333 676.777 605.753 719.517C610.756 734.38 618.878 748.724 628.61 762.258C661.138 752.073 687.628 733.402 700.146 710.663C714.999 683.755 709.486 656.934 699.376 640.805C691.118 627.64 678.701 618.812 664.412 615.948C656.955 614.454 649.47 614.707 642.41 616.612ZM-81.6948 475.215C-99.6908 480.073 -115.364 487.603 -127.346 497.683C-161.825 526.472 -162.228 564.572 -159.532 590.727C-158.308 602.738 -154.11 624.548 -139.747 635.67C-132.599 641.206 -123.846 643.23 -113.731 641.687C-84.1407 637.149 -56.8137 597.352 -41.0967 561.627C-28.5937 533.314 -18.6477 502.248 -11.4587 469.341C-36.5517 467.521 -60.7008 469.547 -81.6948 475.215Z" fill="url(#paint9_linear_880_228)"/>
<path d="M1222.56 1154.23C1116.22 1123.96 1014.37 1080.17 919.845 1024.09C826.192 968.517 741.484 901.927 668.072 826.168C652.074 809.691 634.383 790.253 619.763 768.938C619.524 768.971 619.285 769.004 619.046 769.036C602.013 771.34 584.152 771.696 565.959 770.095C515.721 765.652 461.605 746.176 409.461 713.774C362.21 684.392 319.592 647.46 278.379 611.745C265.159 600.289 251.489 588.443 237.844 576.997C189.005 536.031 123.527 486.178 50.083 464.113C40.489 461.23 30.8119 458.93 21.1519 457.196C12.3949 504.68 -2.09305 549.13 -21.748 588.314C-32.762 610.336 -45.9381 629.431 -59.8511 643.533C-75.8971 659.798 -91.9181 668.557 -107.466 669.566C-149.716 672.274 -161.982 624.23 -165.294 603.448C-170.353 571.856 -172.922 525.763 -136.973 490.372C-104.129 457.847 -42.3361 445.046 20.3479 456.039C24.6829 432.302 27.584 407.814 28.981 382.848C34.094 292.551 18.8489 200.224 -13.9441 122.873C-43.7561 52.4624 -88.8171 -9.87366 -144.258 -57.3997C-196.687 -102.342 -254.523 -130.027 -307.114 -135.357L-307.013 -136.352C-254.221 -131.002 -196.189 -103.233 -143.607 -58.1586C-88.0489 -10.5336 -42.8942 51.9314 -13.0232 122.483C19.8288 199.972 35.101 292.458 29.98 382.904C28.58 407.91 25.674 432.435 21.333 456.213C31.031 457.953 40.7399 460.26 50.3699 463.155C123.989 485.272 189.574 535.202 238.486 576.23C252.137 587.68 265.811 599.529 279.033 610.988C320.218 646.678 362.804 683.584 409.988 712.924C462 745.244 515.964 764.669 566.045 769.099C584.164 770.694 601.951 770.339 618.912 768.045C618.984 768.035 619.059 768.025 619.131 768.015C607.023 750.211 597.099 731.121 592.112 711.369C586.556 689.412 587.31 667.125 594.294 646.915C600.908 627.776 612.74 612.151 627.61 602.92C642.133 593.893 659.585 590.861 676.746 594.385C694.031 597.934 709.502 607.858 720.307 622.327C733.723 640.303 742.913 670.595 728.472 701.705C720.556 718.801 705.601 734.263 685.223 746.419C666.286 757.716 644.073 765.432 620.867 768.782C635.392 789.877 652.927 809.134 668.79 825.471C817.684 979.127 1009.27 1092.48 1222.84 1153.27L1222.56 1154.23ZM620.236 767.862C669.275 760.909 712.294 734.263 727.564 701.285C741.821 670.574 732.749 640.671 719.505 622.926C697.423 593.355 658.141 585.117 628.138 603.77C596.979 623.114 582.236 668.263 593.082 711.124C598.075 730.9 608.062 750.029 620.236 767.862ZM-78.615 460.108C-101.852 466.381 -121.866 476.821 -136.27 491.084C-171.892 526.152 -169.331 571.917 -164.306 603.29C-161.036 623.802 -148.959 671.224 -107.529 668.567C-92.2371 667.577 -76.432 658.917 -60.562 642.83C-46.723 628.802 -33.6101 609.795 -22.6421 587.866C-3.03009 548.769 11.428 504.407 20.168 457.021C-14.668 450.908 -49.218 452.172 -78.615 460.108Z" fill="url(#paint10_linear_880_228)"/>
<path d="M1226.5 1204.43C1115.27 1168.17 1009.38 1117.4 911.777 1053.51C814.926 990.123 728.191 915.121 653.978 830.592C638.566 813.065 621.683 792.583 607.694 770.289C601.143 770.278 594.527 770.007 587.866 769.474C535.296 765.252 478.818 744.757 424.537 710.204C376.254 679.454 332.899 640.846 290.971 603.509C276.594 590.706 261.727 577.467 246.854 564.713C196.662 521.674 129.243 469.543 52.0825 447.422C42.7725 508.628 23.9205 565.714 -3.32153 614.597C-31.8485 665.908 -68.4904 696.511 -101.346 696.454C-147.201 696.352 -164.083 646.042 -170.066 616.062C-177.431 579.25 -182.944 525.493 -145.953 483.828C-126.577 461.901 -96.8405 446.782 -59.9595 440.109C-24.7405 433.736 14.6185 435.841 50.8655 446.037C50.9985 446.074 51.1307 446.111 51.2637 446.149C53.5237 431.078 55.2075 415.756 56.2935 400.248C62.9665 305.714 46.6616 209.333 10.3826 128.859C-55.1334 -16.6242 -193.885 -125.342 -319.54 -129.647L-319.505 -130.646C-259.5 -128.59 -193.761 -102.414 -134.399 -56.9413C-72.2704 -9.34728 -21.8893 54.7598 11.2947 128.448C47.6397 209.07 63.9755 305.622 57.2925 400.318C56.2005 415.897 54.5096 431.285 52.2346 446.424C129.635 468.577 197.209 520.824 247.506 563.953C262.386 576.713 277.256 589.955 291.637 602.761C333.535 640.072 376.86 678.653 425.074 709.36C479.218 743.825 535.539 764.267 587.946 768.477C594.367 768.991 600.749 769.26 607.068 769.287C594.087 748.417 583.685 725.979 579.421 702.909C574.884 678.425 577.45 653.748 586.842 631.547C595.826 610.311 610.614 593.045 628.484 582.927C646.042 572.976 667.002 569.63 687.497 573.508C708.1 577.406 726.885 588.375 740.391 604.394C756.906 623.99 769.657 657.365 755.914 692.27C741.36 729.314 696.143 759.611 643.393 767.653C632.191 769.372 620.64 770.251 608.873 770.288C622.761 792.321 639.466 812.578 654.728 829.932C805.255 1001.39 1003.08 1130.56 1226.81 1203.48L1226.5 1204.43ZM608.248 769.289C620.181 769.282 631.892 768.406 643.243 766.664C695.653 758.672 740.557 728.628 754.985 691.904C768.567 657.408 755.958 624.414 739.627 605.039C712.324 572.655 664.752 563.523 628.977 583.797C591.35 605.1 571.376 654.006 580.404 702.727C584.68 725.854 595.171 748.361 608.248 769.289ZM-76.1216 444.62C-104.452 452.268 -128.676 465.787 -145.203 484.49C-181.898 525.821 -176.407 579.263 -169.083 615.865C-163.16 645.545 -146.485 695.353 -101.344 695.453C-96.3885 695.461 -91.3395 694.76 -86.2495 693.386C-57.9625 685.752 -28.2194 657.322 -4.19336 614.109C23.0106 565.294 41.8295 508.284 51.1145 447.144C50.9435 447.096 50.7677 447.046 50.5967 446.998C6.75468 434.667 -38.3346 434.419 -76.1216 444.62Z" fill="url(#paint11_linear_880_228)"/>
<path d="M1230.44 1254.62C1114.32 1212.38 1004.4 1154.62 903.713 1082.94C803.665 1011.72 714.902 928.3 639.89 835.015C623.198 814.283 606.071 791.443 592.469 767.033C530.245 758.531 475.651 730.074 439.617 706.632C390.222 674.482 346.049 634.153 303.332 595.151C287.874 581.039 271.892 566.446 255.868 552.427C210.406 512.653 151.107 465.652 82.3442 439.869C73.3192 514.072 50.2561 583.165 15.1111 640.874C0.496084 664.916 -16.5347 685.195 -34.1377 699.522C-54.8587 716.385 -75.4078 724.397 -95.2158 723.338C-143.686 720.727 -165.266 670.414 -174.834 628.666C-184.483 586.626 -192.918 525.194 -154.925 477.277C-135.125 452.215 -104.099 434.443 -65.1958 425.871C-28.2818 417.74 13.1133 418.822 51.3643 428.916C61.5953 431.615 71.6462 434.834 81.5032 438.488C82.3272 431.584 83.0301 424.632 83.6091 417.645C91.8451 318.868 74.4792 218.432 34.7102 134.84C-37.7458 -17.596 -191.958 -126.43 -331.97 -123.943L-331.987 -124.943C-264.771 -126.137 -191.327 -101.554 -125.186 -55.724C-91.9468 -32.692 -61.4139 -5.01093 -34.4309 26.5491C-6.37191 59.3691 17.1943 95.659 35.6143 134.41C75.4573 218.159 92.8572 318.776 84.6062 417.727C84.0192 424.808 83.3053 431.85 82.4673 438.846C151.473 464.666 210.947 511.797 256.526 551.673C272.558 565.698 288.545 580.295 304.005 594.411C346.693 633.385 390.834 673.687 440.162 705.792C475.964 729.084 530.128 757.338 591.862 765.938C579.373 743.306 569.952 719.335 566.736 694.449C559.702 640.188 585.453 586.106 629.358 562.932C671.993 540.417 727.137 550.312 760.484 586.462C780.062 607.69 796.351 644.155 783.359 682.833C771.243 718.971 732.936 749.561 685.341 762.412C679.598 763.962 673.727 765.253 667.743 766.266C649.171 769.424 629.669 770.292 609.777 768.847C604.37 768.454 599.011 767.898 593.708 767.197C607.217 791.303 624.156 813.876 640.67 834.385C792.809 1023.59 996.867 1168.58 1230.78 1253.68L1230.44 1254.62ZM593.099 766.109C598.626 766.854 604.21 767.441 609.849 767.851C629.661 769.29 649.083 768.425 667.576 765.281C722.79 755.938 768.947 722.675 782.411 682.516C795.264 644.251 779.131 608.159 759.748 587.141C726.703 551.319 672.061 541.509 629.825 563.817C586.282 586.8 560.747 640.465 567.727 694.321C570.957 719.306 580.484 743.382 593.099 766.109ZM-74.1218 428.863C-107.403 437.848 -135.714 454.574 -154.141 477.897C-191.866 525.477 -183.463 586.603 -173.859 628.442C-164.368 669.854 -143.01 719.761 -95.1619 722.339C-88.2839 722.707 -81.2248 721.892 -74.0928 719.967C-43.7578 711.781 -11.9619 683.482 14.2571 640.354C49.3641 582.708 72.3921 513.658 81.3811 439.509C71.4831 435.831 61.3861 432.593 51.1101 429.882C7.78311 418.449 -36.3678 418.671 -74.1218 428.863Z" fill="url(#paint12_linear_880_228)"/>
<path d="M1234.38 1304.82C1113.37 1256.58 999.406 1191.83 895.651 1112.37C792.405 1033.3 701.614 941.472 625.803 839.44C607.566 814.921 588.91 787.754 575.119 758.77C526.493 745.882 484.473 722.822 454.697 703.061C404.124 669.488 359.076 627.403 315.51 586.703C299.033 571.31 281.996 555.393 264.88 540.142C224.035 503.742 172.264 461.693 112.014 434.127C111.983 434.461 111.951 434.804 111.92 435.137C103.75 521.334 76.649 601.563 33.543 667.149C17.113 692.181 -1.84408 713.054 -21.2781 727.509C-44.3341 744.66 -67.146 752.302 -89.082 750.22C-142.491 745.136 -167.788 688.165 -179.604 641.267C-188.158 607.345 -191.716 579.764 -190.799 554.467C-189.607 521.616 -180.807 494.223 -163.894 470.723C-143.664 442.537 -111.354 422.127 -70.4299 411.633C-31.8199 401.752 11.6111 401.809 51.8621 411.795C72.4081 416.891 92.194 424.043 111.147 432.632C120.436 330.392 101.961 226.851 59.0369 140.821C-20.3681 -18.4407 -190.041 -127.391 -344.407 -118.239L-344.466 -119.238C-270.041 -123.65 -188.893 -100.66 -115.973 -54.5027C-79.5129 -31.4247 -46.035 -3.28477 -16.467 29.1362C14.181 62.7412 39.8859 100.167 59.9319 140.374C102.988 226.669 121.492 330.532 112.111 433.07C172.612 460.686 224.572 502.879 265.545 539.393C282.67 554.652 299.711 570.574 316.192 585.97C359.727 626.642 404.745 668.698 455.248 702.226C484.79 721.83 526.406 744.69 574.558 757.584C563.796 734.706 556.096 710.704 554.049 685.995C549.118 626.631 580.444 567.805 630.228 542.941C653.87 531.129 681.849 527.154 709.013 531.747C736.253 536.353 761.668 549.418 780.576 568.537C803.19 591.406 823.005 630.964 810.798 673.403C796.227 724.143 740.676 755.906 692.092 764.882C672.749 768.465 652.425 769.59 631.685 768.225C612.572 766.963 594.046 763.707 576.386 759.102C590.107 787.728 608.562 814.582 626.605 838.841C778.153 1042.8 994.131 1207.96 1234.75 1303.89L1234.38 1304.82ZM575.823 757.922C593.671 762.626 612.41 765.951 631.751 767.228C652.408 768.588 672.648 767.468 691.909 763.9C740.204 754.984 795.383 723.459 809.837 673.128C821.924 631.104 802.279 591.91 779.865 569.241C740.914 529.857 679.563 519.412 630.674 543.837C581.246 568.523 550.147 626.946 555.045 685.913C557.104 710.765 564.918 734.911 575.823 757.922ZM-72.2471 413.368C-110.607 423.724 -143.252 443.68 -163.081 471.307C-201.812 525.124 -190.507 593.941 -178.633 641.023C-166.895 687.609 -141.814 744.197 -88.9861 749.225C-49.2201 753.001 -3.72699 722.111 32.708 666.601C75.724 601.15 102.771 521.078 110.925 435.043C110.968 434.59 111.01 434.141 111.052 433.688C92.057 425.059 72.219 417.875 51.623 412.767C9.35605 402.281 -34.2501 403.11 -72.2471 413.368Z" fill="url(#paint13_linear_880_228)"/>
<path d="M1238.32 1355.02C1112.42 1300.77 994.414 1229.03 887.591 1141.8C781.148 1054.87 688.331 954.635 611.718 843.866C591.143 814.142 570.147 780.875 556.48 745.454C522.204 732.105 492.527 714.867 469.775 699.491C417.975 664.475 372.001 620.606 327.542 578.181C310.094 561.532 292.051 544.315 273.893 527.857C237.643 495.001 192.962 457.824 141.166 430.05C140.671 437.553 140.027 445.05 139.232 452.547C129.738 542.366 99.5628 625.66 51.9738 693.424C33.7218 719.438 12.8387 740.903 -8.41626 755.496C-33.8143 772.934 -58.8893 780.204 -82.9443 777.104C-109.125 773.726 -131.64 758.921 -149.865 733.099C-163.961 713.126 -175.572 686.468 -184.374 653.868C-194.574 616.113 -199.226 585.423 -199.014 557.284C-198.741 520.821 -190.185 490.363 -172.86 464.169C-152.194 432.867 -118.584 409.778 -75.6633 397.397C-35.3413 385.761 10.1108 384.804 52.3638 394.676C83.5208 401.955 112.882 413.874 140.269 428.437C146.554 329.084 126.638 229.929 83.3657 146.802C-2.99928 -19.1914 -188.134 -128.258 -356.846 -112.535L-356.939 -113.531C-275.309 -121.138 -186.459 -99.7414 -106.756 -53.2794C-67.0783 -30.1494 -30.6552 -1.54942 1.49878 31.7256C34.7368 66.1216 62.5777 104.683 84.2517 146.34C127.673 229.752 147.623 329.268 141.237 428.953C193.296 456.798 238.171 494.13 274.565 527.115C292.733 543.582 310.779 560.802 328.232 577.457C372.662 619.852 418.605 663.692 470.334 698.661C492.851 713.877 522.156 730.92 555.996 744.191C547.809 722.664 542.354 700.343 541.365 677.547C539.969 645.511 547.964 613.671 564.486 585.471C580.594 557.977 604.25 535.775 631.095 522.955C686.328 496.571 756.057 507.947 800.671 550.617C826.303 575.133 849.632 617.787 838.237 663.976C825.814 714.398 776.049 747.83 728.461 760.679C724.428 761.768 720.418 762.707 716.44 763.498C696.331 767.507 675.186 768.888 653.594 767.602C619.296 765.554 586.879 757.169 557.743 745.942C571.38 780.959 592.165 813.861 612.539 843.296C765.663 1064.68 988.045 1246.09 1238.72 1354.1L1238.32 1355.02ZM557.256 744.683C586.524 756.042 619.139 764.544 653.655 766.605C675.162 767.886 696.22 766.511 716.245 762.519C766.867 752.455 823.896 718.006 837.267 663.738C848.56 617.963 825.411 575.663 799.981 551.341C755.662 508.952 686.385 497.652 631.528 523.858C576.238 550.262 539.574 613.443 542.366 677.505C543.363 700.484 548.924 722.984 557.256 744.683ZM-70.7783 397.249C-113.93 408.899 -150.615 432.292 -172.025 464.721C-211.744 524.768 -197.544 601.28 -183.409 653.608C-163.077 728.908 -129.233 770.125 -82.8152 776.113C-70.7692 777.665 -59.1053 776.555 -47.9993 773.559C-1.44927 760.996 35.4538 715.23 51.1558 692.85C98.6478 625.225 128.761 542.093 138.239 452.442C139.048 444.808 139.7 437.173 140.198 429.533C112.768 414.912 83.3477 402.942 52.1357 395.65C10.1787 385.847 -32.8063 386.998 -70.7783 397.249Z" fill="url(#paint14_linear_880_228)"/>
<path d="M1242.27 1405.21C1111.46 1344.95 989.422 1266.23 879.533 1171.22C769.897 1076.44 675.053 967.791 597.635 848.294C574.151 812.065 550.264 771.025 537.695 727.467C517.596 717.212 499.785 706.18 484.856 695.921C431.786 659.445 384.848 613.767 339.454 569.594C321.075 551.709 302.07 533.215 282.908 515.573C251.288 486.462 213.393 454.163 169.865 427.533C169.292 441.663 168.188 455.82 166.548 469.957C155.722 563.397 122.476 649.756 70.4065 719.698C53.4835 742.443 14.3465 788.193 -34.8125 801.467C-48.1535 805.069 -62.2275 806.278 -76.8015 803.989C-127.647 795.997 -165.445 749.727 -189.144 666.467C-200.987 624.873 -206.734 591.074 -207.23 560.098C-207.872 520.022 -199.562 486.499 -181.823 457.613C-160.717 423.202 -125.816 397.456 -80.8945 383.161C-38.8875 369.793 8.61455 367.803 52.8625 377.557C91.4525 386.063 129.498 401.907 168.927 425.918C172.59 329.09 151.352 233.517 107.694 152.782C14.3576 -19.8711 -186.243 -129.055 -369.291 -106.831L-369.41 -107.824C-280.578 -118.609 -184.027 -98.8032 -97.5386 -52.0532C-54.6416 -28.8662 -15.2764 0.193893 19.4656 34.3169C55.2916 69.5059 85.2705 109.204 108.573 152.306C152.399 233.35 173.676 329.321 169.905 426.514C172.045 427.823 174.186 429.155 176.333 430.512C209.947 451.757 245.029 479.339 283.585 514.835C302.757 532.486 321.767 550.985 340.151 568.875C385.515 613.019 432.422 658.667 485.422 695.094C500.112 705.189 517.607 716.038 537.32 726.149C532.049 707.525 528.869 688.452 528.683 669.098C528.35 634.55 538.153 600.324 557.032 570.118C575.785 540.114 601.696 516.893 631.962 502.965C662.117 489.087 696.2 484.6 730.531 489.991C764.9 495.388 796.104 510.155 820.768 532.695C849.403 558.865 876.237 604.619 865.673 654.549C853.281 713.184 794.022 750.827 740.786 762.113C719.906 766.548 697.941 768.184 675.503 766.978C624.477 764.229 577.541 747.639 538.918 728.085C551.52 771.189 575.195 811.837 598.471 847.747C753.171 1086.53 981.958 1284.19 1242.69 1404.3L1242.27 1405.21ZM538.539 726.774C577.214 746.459 624.326 763.222 675.558 765.982C697.909 767.184 719.786 765.554 740.58 761.138C793.494 749.918 852.396 712.542 864.695 654.345C875.172 604.828 848.525 559.42 820.094 533.437C770.407 488.031 693.211 475.874 632.38 503.877C571.246 532.01 529.015 599.949 529.683 669.092C529.87 688.658 533.138 707.946 538.539 726.774ZM-71.1165 381.53C-115.965 393.638 -156.638 418.464 -180.971 458.136C-221.666 524.404 -204.576 608.615 -188.181 666.193C-164.599 749.045 -127.073 795.074 -76.6455 803.001C-62.2245 805.266 -48.2755 804.067 -35.0615 800.5C13.7985 787.313 52.7555 741.747 69.6045 719.101C121.569 649.3 154.748 563.108 165.553 469.842C167.212 455.547 168.321 441.224 168.887 426.937C133.697 405.52 94.8355 387.833 52.6465 378.534C14.0815 370.033 -30.2535 370.499 -71.1165 381.53Z" fill="url(#paint15_linear_880_228)"/>
<path d="M1246.21 1455.41C1110.51 1389.13 984.427 1303.42 871.473 1200.65C758.645 1098 661.773 980.94 583.55 852.721C556.819 808.919 529.736 758.621 519.863 705.561C512.766 701.098 506.111 696.66 499.934 692.349C445.565 654.403 397.634 606.904 351.281 560.968C331.998 541.858 312.058 522.098 291.919 503.287C266.603 479.639 234.912 451.852 198.184 426.781C197.826 446.926 196.392 467.159 193.859 487.365C181.7 584.425 145.385 673.848 88.8384 745.968C70.7974 768.983 29.6964 814.595 -21.6946 828.471C-37.1976 832.656 -53.6347 833.953 -70.6597 830.871C-125.5 820.942 -166.969 769.866 -193.917 679.064C-207.404 633.627 -214.245 596.718 -215.449 562.908C-217.005 519.219 -208.938 482.631 -190.788 451.054C-169.237 413.539 -133.046 385.139 -86.1267 368.923C-42.4297 353.823 7.11533 350.805 53.3613 360.438C96.1023 369.339 138.085 387.072 181.708 414.648C186.846 417.896 192.012 421.287 197.215 424.829C198.57 330.176 176.106 237.531 132.019 158.761C31.7033 -20.4979 -184.362 -129.797 -381.737 -101.128L-381.881 -102.118C-333.206 -109.188 -282.833 -108.177 -232.16 -99.1128C-182.733 -90.2718 -134.338 -74.0269 -88.3208 -50.8269C-42.2068 -27.5789 0.103348 1.9402 37.4333 36.9082C75.8474 72.8932 107.964 113.726 132.893 158.272C177.17 237.382 199.681 330.442 198.207 425.504C228.071 445.927 259.124 471.283 292.603 502.556C312.753 521.377 332.697 541.143 351.987 560.257C398.31 606.163 446.21 653.631 500.507 691.528C506.447 695.673 512.827 699.935 519.619 704.224C517.03 689.876 515.708 675.327 515.999 660.653C516.733 623.596 528.344 586.982 549.576 554.769C570.742 522.655 599.53 497.83 632.826 482.977C666.07 468.147 703.573 463.354 741.29 469.112C779.027 474.873 813.46 490.663 840.867 514.776C881.221 550.281 901.239 600.228 893.111 645.124C888.069 672.981 872.315 698.904 847.553 720.088C824.925 739.448 795.658 753.885 765.132 760.728C743.485 765.588 720.701 767.48 697.412 766.354C627.888 762.986 565.837 734.292 521.018 706.282C531.001 758.858 557.877 808.727 584.404 852.198C740.679 1108.35 975.869 1322.26 1246.65 1454.51L1246.21 1455.41ZM520.767 704.949C565.535 733.044 627.74 761.98 697.46 765.358C720.659 766.48 743.353 764.596 764.913 759.755C820.13 747.361 880.883 707.064 892.126 644.949C900.193 600.395 880.298 550.804 840.205 515.529C784.282 466.327 701.109 453.611 633.233 483.893C565.204 514.239 518.493 585.282 516.999 660.674C516.702 675.585 518.08 690.37 520.767 704.949ZM-70.1758 365.25C-119.295 378.511 -164.039 406.5 -189.921 451.552C-231.583 524.033 -211.607 615.947 -192.958 678.779C-166.126 769.191 -124.919 820.031 -70.4817 829.888C-53.6147 832.941 -37.3166 831.654 -21.9426 827.504C29.1594 813.71 70.0862 768.272 88.0522 745.352C144.487 673.375 180.732 584.122 192.868 487.242C195.424 466.854 196.859 446.434 197.197 426.109C155.087 397.49 106.408 372.507 53.1594 361.416C14.5974 353.385 -29.3058 354.216 -70.1758 365.25Z" fill="url(#paint16_linear_880_228)"/>
<path d="M1250.16 1505.61C1109.56 1433.31 979.436 1340.61 863.419 1230.08C747.402 1119.56 648.502 994.087 569.47 857.151C539.345 804.954 508.978 744.201 503.849 680.679C452.73 642.71 407.175 596.795 363.024 552.294C342.866 531.976 322.021 510.967 300.935 491.003C280.047 471.228 254.923 448.697 226.218 427.14C226.275 443.314 225.639 459.551 224.303 475.801C219.836 530.18 207.696 583.085 188.218 633.05C168.211 684.371 140.978 731.201 107.272 772.239C83.5202 801.16 56.8612 824.4 30.1782 839.447C-2.23378 857.724 -34.0947 863.886 -64.5137 857.754C-97.7467 851.057 -126.832 830.254 -150.962 795.923C-169.479 769.578 -185.537 734.498 -198.688 691.66C-213.817 642.379 -221.753 602.36 -223.665 565.718C-226.133 518.414 -218.31 478.762 -199.749 444.495C-177.75 403.88 -140.268 372.826 -91.3547 354.686C-45.9507 337.849 5.62326 333.812 53.8643 343.319C98.3423 352.085 141.921 370.227 187.087 398.783C199.438 406.592 211.927 415.212 224.647 424.717C224.006 333.65 201.565 243.043 156.347 164.741C49.0422 -21.0795 -182.489 -130.494 -394.183 -95.4226L-394.346 -96.4095C-341.956 -105.089 -287.783 -105.27 -233.333 -96.9446C-180.323 -88.8406 -128.431 -72.9106 -79.1008 -49.5986C-29.7698 -26.2856 15.4822 3.69244 55.3992 39.5024C96.4002 76.2854 130.655 118.253 157.212 164.241C183.769 210.229 202.995 260.875 214.36 314.772C222.031 351.158 225.992 388.367 226.21 425.891C250.332 444.028 275.275 465.335 301.621 490.278C322.718 510.252 343.569 531.268 363.732 551.591C407.656 595.862 452.967 641.533 503.744 679.357C503.067 670.357 502.901 661.306 503.316 652.213C505.121 612.649 518.54 573.647 542.119 539.424C565.699 505.201 597.363 478.772 633.691 462.993C670.018 447.214 710.945 442.112 752.05 448.237C793.155 454.363 830.818 471.177 860.965 496.861C905.126 534.486 927.956 587.688 920.545 635.704C915.97 665.347 900.084 693.01 874.604 715.704C851.393 736.378 821.15 751.885 789.479 759.346C744.826 769.874 696.71 767.918 646.466 753.534C602.552 740.961 557.096 718.57 515.014 688.78C511.625 686.38 508.257 683.942 504.916 681.472C510.237 744.487 540.404 804.794 570.335 856.653C728.187 1130.16 969.784 1360.31 1250.62 1504.72L1250.16 1505.61ZM504.81 680.147C508.377 682.793 511.971 685.399 515.593 687.964C568.993 725.766 675.553 785.179 789.25 758.373C846.753 744.83 909.367 701.576 919.558 635.552C926.916 587.875 904.216 535.024 860.318 497.622C798.95 445.339 708.039 431.792 634.09 463.909C560.143 496.029 507.991 571.72 504.317 652.257C503.89 661.597 504.081 670.903 504.81 680.147ZM-69.4148 348.889C-122.733 363.283 -171.517 394.473 -198.87 444.97C-241.017 522.783 -220.401 617.522 -197.731 691.366C-167.653 789.345 -122.765 844.996 -64.3167 856.774C-44.9457 860.678 -26.2309 859.303 -8.65991 854.56C44.6261 840.177 87.4452 794.805 106.5 771.604C185.043 675.971 225.262 550.611 224.653 425.969C176.565 390.08 118.549 357.086 53.6692 344.3C15.0712 336.693 -28.5078 337.846 -69.4148 348.889Z" fill="url(#paint17_linear_880_228)"/>
</g>
<defs>
<linearGradient id="paint0_linear_880_228" x1="1183.37" y1="305.558" x2="-257.556" y2="305.558" gradientUnits="userSpaceOnUse">
<stop stop-color="#43E29B"/>
<stop offset="1" stop-color="#289062"/>
</linearGradient>
<linearGradient id="paint1_linear_880_228" x1="1187.27" y1="300.339" x2="-233.634" y2="300.339" gradientUnits="userSpaceOnUse">
<stop stop-color="#43E29B"/>
<stop offset="1" stop-color="#289062"/>
</linearGradient>
<linearGradient id="paint2_linear_880_228" x1="1191.18" y1="306.234" x2="-218.424" y2="306.234" gradientUnits="userSpaceOnUse">
<stop stop-color="#43E29B"/>
<stop offset="1" stop-color="#289062"/>
</linearGradient>
<linearGradient id="paint3_linear_880_228" x1="1195.09" y1="321.2" x2="-220.432" y2="321.2" gradientUnits="userSpaceOnUse">
<stop stop-color="#43E29B"/>
<stop offset="1" stop-color="#289062"/>
</linearGradient>
<linearGradient id="paint4_linear_880_228" x1="1199" y1="342.932" x2="-232.802" y2="342.932" gradientUnits="userSpaceOnUse">
<stop stop-color="#43E29B"/>
<stop offset="1" stop-color="#289062"/>
</linearGradient>
<linearGradient id="paint5_linear_880_228" x1="1202.92" y1="369.293" x2="-245.192" y2="369.293" gradientUnits="userSpaceOnUse">
<stop stop-color="#43E29B"/>
<stop offset="1" stop-color="#289062"/>
</linearGradient>
<linearGradient id="paint6_linear_880_228" x1="1206.91" y1="397.192" x2="-257.555" y2="397.192" gradientUnits="userSpaceOnUse">
<stop stop-color="#43E29B"/>
<stop offset="1" stop-color="#289062"/>
</linearGradient>
<linearGradient id="paint7_linear_880_228" x1="1210.9" y1="425.115" x2="-269.92" y2="425.115" gradientUnits="userSpaceOnUse">
<stop stop-color="#43E29B"/>
<stop offset="1" stop-color="#289062"/>
</linearGradient>
<linearGradient id="paint8_linear_880_228" x1="1214.88" y1="453.051" x2="-282.3" y2="453.051" gradientUnits="userSpaceOnUse">
<stop stop-color="#43E29B"/>
<stop offset="1" stop-color="#289062"/>
</linearGradient>
<linearGradient id="paint9_linear_880_228" x1="1218.86" y1="480.994" x2="-294.7" y2="480.994" gradientUnits="userSpaceOnUse">
<stop stop-color="#43E29B"/>
<stop offset="1" stop-color="#289062"/>
</linearGradient>
<linearGradient id="paint10_linear_880_228" x1="1222.84" y1="508.941" x2="-307.114" y2="508.941" gradientUnits="userSpaceOnUse">
<stop stop-color="#43E29B"/>
<stop offset="1" stop-color="#289062"/>
</linearGradient>
<linearGradient id="paint11_linear_880_228" x1="1226.81" y1="536.891" x2="-319.54" y2="536.891" gradientUnits="userSpaceOnUse">
<stop stop-color="#43E29B"/>
<stop offset="1" stop-color="#289062"/>
</linearGradient>
<linearGradient id="paint12_linear_880_228" x1="1230.78" y1="564.82" x2="-331.987" y2="564.82" gradientUnits="userSpaceOnUse">
<stop stop-color="#43E29B"/>
<stop offset="1" stop-color="#289062"/>
</linearGradient>
<linearGradient id="paint13_linear_880_228" x1="1234.75" y1="592.524" x2="-344.466" y2="592.524" gradientUnits="userSpaceOnUse">
<stop stop-color="#43E29B"/>
<stop offset="1" stop-color="#289062"/>
</linearGradient>
<linearGradient id="paint14_linear_880_228" x1="1238.72" y1="619.99" x2="-356.939" y2="619.99" gradientUnits="userSpaceOnUse">
<stop stop-color="#43E29B"/>
<stop offset="1" stop-color="#289062"/>
</linearGradient>
<linearGradient id="paint15_linear_880_228" x1="1242.69" y1="647.259" x2="-369.41" y2="647.259" gradientUnits="userSpaceOnUse">
<stop stop-color="#43E29B"/>
<stop offset="1" stop-color="#289062"/>
</linearGradient>
<linearGradient id="paint16_linear_880_228" x1="1246.65" y1="674.326" x2="-381.881" y2="674.326" gradientUnits="userSpaceOnUse">
<stop stop-color="#43E29B"/>
<stop offset="1" stop-color="#289062"/>
</linearGradient>
<linearGradient id="paint17_linear_880_228" x1="1250.62" y1="701.276" x2="-394.346" y2="701.276" gradientUnits="userSpaceOnUse">
<stop stop-color="#43E29B"/>
<stop offset="1" stop-color="#289062"/>
</linearGradient>
</defs>
</svg>
