<svg width="4500" height="2000" viewBox="0 0 4500 2000" fill="none" xmlns="http://www.w3.org/2000/svg">
<mask id="mask0_878_1487" style="mask-type:luminance" maskUnits="userSpaceOnUse" x="0" y="0" width="4500" height="2000">
<path d="M0.5 0.5H4499.5V1999.5H0.5V0.5Z" fill="white" stroke="white"/>
</mask>
<g mask="url(#mask0_878_1487)">
<path d="M4435.69 -786.496C4325.03 -620.676 4242.72 -435.994 4193.38 -242.843C4124.12 28.3139 4119.63 314.183 4034.41 580.755C3949.19 847.326 3751.18 1107.48 3473.79 1144.66C3280.84 1170.52 3091.16 1084.02 2923.77 984.602C2756.39 885.188 2593.53 768.594 2404 724.119C2052.77 641.701 1699.17 821.757 1381.48 992.722C1063.78 1163.69 703.805 1336.46 356.297 1239.53C145.406 1180.7 -32.2031 1027.44 -246.897 984.53C-431.485 947.633 -631.986 1001.2 -773.577 1125.24" stroke="url(#paint0_linear_878_1487)" stroke-width="0.25" stroke-miterlimit="10"/>
<path d="M-740.647 1162.63C-662.832 1097.51 -572.171 1046.79 -478.346 1017.95C-394.724 992.252 -308.112 983.475 -223.406 994.253C-212.918 995.587 -202.496 997.191 -192.128 999.043C-98.2355 1015.81 -7.75352 1052.68 83.7195 1097.05C162.499 1135.25 239.964 1178.87 320.495 1211.61C341.978 1220.34 363.729 1228.32 385.828 1235.31C552.286 1287.92 721.586 1281.86 889.969 1242.31C1074.62 1199.26 1259.03 1114.64 1428.37 1022.08C1709.51 868.414 2015.29 705.223 2322.69 725.578C2356.09 727.813 2389.53 732.211 2422.97 739.028C2607.12 776.474 2766.69 883.061 2931.43 975.224C3011.6 1019.94 3097.02 1062.27 3185.59 1091.52C3279.23 1122.48 3376 1138.78 3473.49 1127.17C3690.41 1101.25 3858.84 942.376 3963.41 751.505C3990.19 702.739 4012.83 651.871 4031.04 600.647C4120.37 349 4133.46 76.5323 4207.84 -184.172C4260.82 -369.878 4345.01 -548.659 4455.49 -710.551" stroke="url(#paint1_linear_878_1487)" stroke-width="0.4659" stroke-miterlimit="10"/>
<path d="M-707.717 1200.02C-626.952 1135.36 -536.965 1079.81 -446.058 1045.35C-365.039 1014.66 -282.336 999.806 -199.913 1003.98C-189.707 1004.49 -179.542 1005.27 -169.398 1006.29C-77.5328 1015.52 14.4342 1044.32 108.709 1086.67C189.92 1123.13 268.744 1169.34 349.732 1204.97C371.328 1214.46 393.176 1223.25 415.359 1231.1C582.331 1290.02 752.146 1293.12 923.242 1261.17C1111.27 1226.66 1302.57 1147.25 1475.27 1051.43C1751.04 898.412 2046.8 733.532 2344.71 743.967C2377.07 745.146 2409.49 748.385 2441.95 753.938C2620.71 784.356 2776.99 880.936 2939.09 965.849C3018.09 1006.98 3102.32 1046.37 3189.79 1074.08C3282.19 1103.4 3377.39 1119.6 3473.19 1109.69C3686.12 1087.44 3852.4 940.744 3958.2 762.073C3985.35 716.452 4008.6 668.72 4027.67 620.543C4121.11 383.82 4142.8 124.755 4222.29 -125.499C4278.93 -303.76 4364.99 -476.641 4475.3 -634.604" stroke="url(#paint2_linear_878_1487)" stroke-width="0.6818" stroke-miterlimit="10"/>
<path d="M-674.786 1237.41C-591.072 1173.21 -501.758 1112.83 -413.769 1072.75C-335.354 1037.07 -256.559 1016.14 -176.419 1013.7C-166.496 1013.39 -156.586 1013.35 -146.666 1013.54C-56.8301 1015.24 36.6219 1035.97 133.701 1076.29C217.343 1111.01 297.526 1159.81 378.971 1198.33C400.68 1208.59 422.626 1218.18 444.893 1226.88C612.379 1292.12 782.656 1304.01 956.518 1280.03C1147.88 1253.65 1346.13 1179.9 1522.17 1080.78C1792.62 928.504 2078.31 761.839 2366.74 762.354C2398.05 762.478 2429.45 764.559 2460.93 768.848C2634.3 792.237 2787.29 878.811 2946.75 956.473C3024.58 994.019 3107.63 1030.47 3193.99 1056.64C3285.16 1084.33 3378.79 1100.42 3472.89 1092.2C3681.83 1073.64 3845.97 939.108 3953 772.638C3980.51 730.162 4004.37 685.568 4024.3 640.437C4121.85 418.638 4152.14 172.974 4236.75 -66.8272C4297.03 -237.644 4384.97 -404.623 4495.1 -558.658" stroke="url(#paint3_linear_878_1487)" stroke-width="0.8977" stroke-miterlimit="10"/>
<path d="M-641.855 1274.8C-555.191 1211.06 -466.551 1145.85 -381.481 1100.16C-305.669 1059.48 -230.784 1032.47 -152.926 1023.42C-143.285 1022.3 -133.631 1021.43 -123.936 1020.79C-36.1295 1014.97 58.8075 1027.62 158.69 1065.92C244.762 1098.89 326.305 1150.28 408.207 1191.69C430.029 1202.71 452.074 1213.11 474.424 1222.67C642.424 1294.23 813.223 1315.18 989.791 1298.9C1184.54 1280.94 1389.7 1212.59 1569.06 1110.14C1834.23 958.681 2109.82 790.146 2388.76 780.741C2419.02 779.809 2449.41 780.732 2479.9 783.757C2647.89 800.118 2797.4 877.082 2954.4 947.097C3030.98 981.25 3112.93 1014.57 3198.19 1039.19C3288.12 1065.25 3380.19 1081.24 3472.59 1074.71C3677.53 1059.84 3839.16 937.213 3947.79 783.204C3975.57 743.806 4000.14 702.416 4020.93 660.332C4122.59 453.457 4161.48 221.195 4251.21 -8.15393C4315.13 -171.526 4404.95 -332.604 4514.91 -482.711" stroke="url(#paint4_linear_878_1487)" stroke-width="1.1136" stroke-miterlimit="10"/>
<path d="M-608.925 1312.19C-519.311 1248.91 -431.345 1178.87 -349.193 1127.56C-275.985 1081.88 -205.009 1048.81 -129.433 1033.15C-120.075 1031.2 -110.676 1029.5 -101.205 1028.04C-15.4258 1014.69 80.9962 1019.26 183.681 1055.54C272.184 1086.77 355.086 1140.75 437.445 1185.05C459.381 1196.83 481.523 1208.04 503.957 1218.45C672.47 1296.33 843.801 1326.36 1023.07 1317.76C1221.22 1308.25 1433.28 1245.3 1615.96 1139.49C1875.89 988.937 2141.33 818.453 2410.78 799.127C2440.01 797.14 2469.38 796.904 2498.88 798.665C2661.48 807.998 2807.68 875.047 2962.06 937.719C3037.46 968.33 3118.24 998.671 3202.39 1021.75C3291.08 1046.18 3381.59 1062.06 3472.29 1057.22C3673.24 1046.03 3832.66 935.492 3942.58 793.767C3970.72 757.493 3995.92 719.261 4017.57 680.223C4123.34 488.272 4170.82 269.412 4265.67 50.5154C4333.24 -105.413 4424.94 -260.589 4534.71 -406.768" stroke="url(#paint5_linear_878_1487)" stroke-width="1.3296" stroke-miterlimit="10"/>
<path d="M-575.994 1349.58C-483.431 1286.76 -396.138 1211.89 -316.905 1154.96C-246.3 1104.29 -179.233 1065.14 -105.941 1042.87C-96.8651 1040.11 -87.7221 1037.58 -78.4761 1035.28C5.27386 1014.41 103.181 1010.91 208.669 1045.16C299.603 1074.65 383.864 1131.22 466.68 1178.42C488.729 1190.96 510.969 1202.97 533.487 1214.24C702.515 1298.43 874.382 1337.56 1056.34 1336.62C1257.9 1335.58 1476.88 1278.05 1662.86 1168.85C1917.58 1019.27 2172.77 846.184 2432.8 817.517C2460.97 814.411 2489.34 813.079 2517.85 813.577C2675.07 815.881 2817.97 873.012 2969.71 928.346C3043.95 955.414 3123.54 982.775 3206.59 1004.31C3294.04 1027.1 3382.98 1042.89 3471.99 1039.74C3668.95 1032.23 3826.16 933.771 3937.37 804.336C3965.86 771.184 3991.69 736.112 4014.2 700.121C4124.07 523.094 4180.16 317.635 4280.12 109.191C4351.34 -39.2924 4444.91 -188.568 4554.51 -330.818" stroke="url(#paint6_linear_878_1487)" stroke-width="1.5454" stroke-miterlimit="10"/>
<path d="M-543.063 1386.97C-447.55 1324.62 -360.931 1244.9 -284.616 1182.36C-216.614 1126.7 -153.457 1081.47 -82.4475 1052.59C-73.6535 1049.01 -64.7665 1045.66 -55.7445 1042.53C25.9765 1014.12 125.37 1002.56 233.661 1034.79C327.026 1062.53 412.645 1121.69 495.918 1171.78C518.08 1185.08 540.419 1197.9 563.021 1210.02C732.563 1300.54 904.971 1348.77 1089.61 1355.48C1294.59 1362.93 1520.5 1310.84 1709.76 1198.2C1959.32 1049.67 2204.25 874.419 2454.83 835.903C2481.95 831.734 2509.3 829.251 2536.83 828.485C2688.66 823.761 2828.27 870.966 2977.37 918.968C3050.44 942.489 3128.85 966.874 3210.79 986.86C3297 1008.03 3384.38 1023.71 3471.69 1022.25C3664.66 1018.43 3819.68 932.039 3932.17 814.9C3961.01 784.868 3987.53 753.006 4010.83 720.014C4125.15 558.148 4189.5 365.854 4294.58 167.862C4369.45 26.8229 4464.9 -116.551 4574.32 -254.873" stroke="url(#paint7_linear_878_1487)" stroke-width="1.7614" stroke-miterlimit="10"/>
<path d="M-510.133 1424.36C-411.671 1362.47 -325.725 1277.93 -252.328 1209.77C-186.93 1149.11 -127.681 1097.81 -58.9538 1062.32C-50.4428 1057.92 -41.8108 1053.74 -33.0128 1049.78C46.6802 1013.85 147.557 994.207 258.651 1024.41C354.447 1050.41 441.427 1112.16 525.156 1165.14C547.431 1179.2 569.867 1192.83 592.552 1205.81C762.607 1302.64 935.558 1360 1122.89 1374.34C1331.28 1390.29 1564.13 1343.66 1756.65 1227.56C2001.08 1080.14 2235.71 902.668 2476.85 854.291C2502.92 849.06 2529.26 845.425 2555.8 843.395C2702.25 831.642 2838.57 868.913 2985.03 909.593C3056.93 929.563 3134.15 950.975 3214.99 969.417C3299.96 988.953 3385.78 1004.53 3471.39 1004.76C3660.36 1004.63 3813.22 930.306 3926.96 825.467C3956.16 798.554 3983.3 769.866 4007.46 739.909C4125.91 593.019 4198.83 414.075 4309.03 226.535C4387.55 92.9412 4484.87 -44.5318 4594.12 -178.926" stroke="url(#paint8_linear_878_1487)" stroke-width="1.9773" stroke-miterlimit="10"/>
<path d="M-477.202 1461.75C-375.79 1400.32 -290.518 1310.94 -220.04 1237.17C-157.245 1171.51 -101.906 1114.14 -35.4612 1072.04C-27.2322 1066.82 -18.8561 1061.82 -10.2831 1057.03C67.3809 1013.57 169.743 985.855 283.641 1014.03C381.868 1038.29 470.206 1102.63 554.393 1158.5C576.781 1173.33 599.315 1187.76 622.084 1201.59C792.653 1304.74 966.146 1371.25 1156.16 1393.2C1367.97 1417.67 1607.79 1376.52 1803.55 1256.91C2042.88 1110.67 2267.17 930.93 2498.87 872.679C2523.9 866.388 2549.23 861.652 2574.78 858.305C2715.87 839.818 2848.89 866.851 2992.69 900.217C3063.43 916.632 3139.46 935.076 3219.19 951.973C3302.92 969.878 3387.17 985.354 3471.08 987.274C3656.07 990.822 3806.78 928.572 3921.75 836.032C3951.31 812.238 3979.08 786.724 4004.09 759.803C4126.67 627.891 4208.17 462.295 4323.49 285.207C4405.66 159.058 4504.86 27.4855 4613.93 -102.98" stroke="url(#paint9_linear_878_1487)" stroke-width="2.1932" stroke-miterlimit="10"/>
<path d="M-444.272 1499.14C-339.91 1438.17 -255.312 1343.96 -187.752 1264.57C-127.56 1193.92 -76.1315 1130.47 -11.9695 1081.76C-4.02345 1075.73 4.09753 1069.9 12.4465 1064.28C88.0825 1013.28 191.93 977.501 308.63 1003.65C409.288 1026.17 498.985 1093.09 583.629 1151.86C606.13 1167.45 628.762 1182.69 651.615 1197.38C822.697 1306.84 996.732 1382.51 1189.43 1412.06C1404.65 1445.07 1651.47 1409.42 1850.44 1286.26C2084.72 1141.25 2298.63 959.206 2520.89 891.066C2544.87 883.716 2569.2 877.827 2593.75 873.214C2729.48 847.713 2859.21 864.774 3000.34 890.841C3069.93 903.694 3144.76 919.177 3223.38 934.529C3305.88 950.803 3388.57 966.176 3470.78 969.787C3651.78 977.02 3800.36 926.842 3916.54 846.598C3946.48 825.925 3974.85 803.583 4000.72 779.698C4127.4 662.763 4217.51 510.516 4337.94 343.88C4423.76 225.175 4524.83 99.5038 4633.73 -27.0332" stroke="url(#paint10_linear_878_1487)" stroke-width="2.4091" stroke-miterlimit="10"/>
<path d="M-411.341 1536.53C-304.03 1476.02 -220.105 1376.98 -155.464 1291.98C-97.8758 1216.33 -50.3548 1146.81 11.5242 1091.49C19.1882 1084.63 27.0532 1077.98 35.1772 1071.52C108.784 1013.01 214.116 969.148 333.62 993.276C436.709 1014.05 527.766 1083.57 612.866 1145.22C635.48 1161.57 658.21 1177.62 681.147 1193.16C852.744 1308.95 1027.32 1393.79 1222.71 1430.92C1441.34 1472.48 1695.17 1442.37 1897.34 1315.62C2126.59 1171.89 2330.09 987.5 2542.92 909.453C2565.84 901.046 2589.16 894.001 2612.73 888.123C2743.09 855.601 2869.55 862.683 3008 881.464C3076.44 890.748 3150.07 903.277 3227.58 917.084C3308.85 931.727 3389.96 947.165 3470.48 952.299C3647.46 963.584 3793.97 925.123 3911.34 857.163C3941.65 839.613 3970.61 820.44 3997.35 799.591C4128.13 697.629 4226.85 558.734 4352.4 402.551C4441.86 291.291 4544.82 171.521 4653.53 48.9121" stroke="url(#paint11_linear_878_1487)" stroke-width="2.625" stroke-miterlimit="10"/>
<path d="M-378.41 1573.92C-268.149 1513.87 -184.898 1410 -123.175 1319.38C-68.1902 1238.73 -24.5791 1163.14 35.0179 1101.21C42.3999 1093.53 50.0088 1086.05 57.9088 1078.77C129.487 1012.72 236.305 960.794 358.611 982.898C464.131 1001.93 556.547 1074.03 642.104 1138.58C664.832 1155.7 687.659 1172.55 710.68 1188.95C882.791 1311.05 1057.89 1405.07 1255.98 1449.78C1478.01 1499.9 1738.91 1475.35 1944.24 1344.97C2168.48 1202.58 2361.55 1015.81 2564.94 927.839C2586.82 918.377 2609.13 910.173 2631.7 903.032C2756.7 863.481 2879.89 860.574 3015.66 872.088C3082.95 877.795 3155.37 887.378 3231.78 899.64C3311.81 912.652 3391.35 927.989 3470.18 934.812C3643.16 949.785 3787.61 923.424 3906.13 867.729C3936.82 853.306 3966.38 837.296 3993.99 819.486C4128.83 732.489 4236.19 606.955 4366.86 461.224C4459.97 357.408 4564.8 243.54 4673.34 124.859" stroke="url(#paint12_linear_878_1487)" stroke-width="2.8409" stroke-miterlimit="10"/>
<path d="M-345.48 1611.31C-232.269 1551.73 -149.693 1443.02 -90.8885 1346.78C-38.5075 1261.14 1.19555 1179.47 58.5085 1110.93C65.6075 1102.44 72.9615 1094.13 80.6375 1086.02C150.188 1012.44 258.49 952.441 383.6 972.52C491.55 989.812 585.326 1064.5 671.34 1131.94C694.181 1149.82 717.106 1167.48 740.211 1184.73C912.836 1313.15 1088.47 1416.36 1289.25 1468.64C1514.69 1527.34 1782.67 1508.39 1991.13 1374.32C2210.41 1233.31 2393.01 1044.14 2586.96 946.225C2607.79 935.71 2629.09 926.343 2650.68 917.94C2770.31 871.352 2890.23 858.445 3023.31 862.71C3089.46 864.83 3160.68 871.477 3235.98 882.194C3314.77 893.575 3392.74 908.808 3469.88 917.323C3638.86 935.977 3781.26 921.75 3900.92 878.293C3932 867.005 3962.14 854.148 3990.62 839.378C4129.53 767.331 4245.53 655.173 4381.31 519.894C4478.07 423.523 4584.78 315.555 4693.14 200.803" stroke="url(#paint13_linear_878_1487)" stroke-width="3.0568" stroke-miterlimit="10"/>
<path d="M-312.549 1648.7C-196.389 1589.58 -114.486 1476.04 -58.5988 1374.18C-8.82082 1283.55 26.9722 1195.8 82.0032 1120.66C88.8202 1111.34 95.9182 1102.21 103.369 1093.27C170.89 1012.16 280.678 944.089 408.59 962.143C518.971 977.692 614.106 1054.97 700.577 1125.3C723.531 1143.94 746.554 1162.41 769.743 1180.52C942.882 1315.26 1119.03 1427.67 1322.53 1487.51C1551.35 1554.79 1826.46 1541.47 2038.03 1403.68C2252.37 1264.08 2424.49 1072.5 2608.98 964.613C2628.76 953.048 2649.06 942.514 2669.65 932.85C2783.92 879.218 2900.58 856.298 3030.97 853.335C3095.98 851.858 3165.99 855.578 3240.18 864.751C3317.73 874.501 3394.14 889.626 3469.58 899.836C3634.56 922.164 3774.93 920.112 3895.71 888.859C3927.19 880.715 3957.9 870.998 3987.25 859.273C4130.21 802.159 4254.87 703.394 4395.77 578.567C4496.17 489.641 4604.75 387.574 4712.94 276.75" stroke="url(#paint14_linear_878_1487)" stroke-width="3.2727" stroke-miterlimit="10"/>
<path d="M-279.619 1686.09C-160.509 1627.43 -79.2802 1509.06 -26.3112 1401.59C20.8638 1305.96 52.7468 1212.14 105.496 1130.38C112.03 1120.25 118.873 1110.29 126.1 1100.52C191.592 1011.88 302.865 935.737 433.581 951.767C546.393 965.573 642.887 1045.44 729.815 1118.66C752.882 1138.07 776.003 1157.34 799.276 1176.3C972.929 1317.36 1149.6 1438.99 1355.8 1506.37C1588.01 1582.24 1870.29 1574.6 2084.93 1433.03C2294.35 1294.9 2455.97 1100.87 2631.01 983C2649.74 970.386 2669.02 958.682 2688.63 947.759C2797.52 887.074 2910.92 854.127 3038.63 843.958C3102.49 838.873 3171.29 839.678 3244.38 847.306C3320.69 855.425 3395.53 870.44 3469.28 882.348C3630.26 908.343 3768.61 918.513 3890.51 899.424C3922.38 894.434 3953.66 887.842 3983.88 879.167C4130.89 836.965 4264.21 751.613 4410.22 637.238C4514.28 555.756 4624.74 459.591 4732.75 352.695" stroke="url(#paint15_linear_878_1487)" stroke-width="3.4886" stroke-miterlimit="10"/>
<path d="M-246.688 1723.48C-124.628 1665.28 -44.0735 1542.08 5.97653 1428.99C50.5475 1328.36 78.5225 1228.47 128.989 1140.1C135.241 1129.15 141.828 1118.37 148.83 1107.76C212.294 1011.6 325.051 927.383 458.571 941.388C573.814 953.451 671.667 1035.91 759.052 1112.02C782.232 1132.19 805.451 1152.27 828.807 1172.08C1002.97 1319.46 1180.15 1450.31 1389.07 1525.23C1624.66 1609.71 1914.16 1607.78 2131.83 1462.38C2336.37 1325.75 2487.48 1129.25 2653.03 1001.39C2670.72 987.726 2688.99 974.85 2707.6 962.668C2811.11 894.924 2921.26 851.934 3046.28 834.581C3109 825.876 3176.59 823.778 3248.58 829.861C3323.65 836.349 3396.93 851.25 3468.98 864.86C3625.96 894.515 3762.28 916.953 3885.3 909.99C3917.56 908.164 3949.42 904.683 3980.51 899.061C4131.57 871.748 4273.55 799.833 4424.68 695.91C4532.38 621.873 4644.71 531.609 4752.55 428.641" stroke="url(#paint16_linear_878_1487)" stroke-width="3.7046" stroke-miterlimit="10"/>
<path d="M-213.757 1760.87C-88.7478 1703.13 -8.86583 1575.1 38.2662 1456.39C80.2342 1350.77 104.299 1244.8 152.482 1149.83C158.451 1138.06 164.783 1126.45 171.561 1115.01C232.996 1011.32 347.239 919.032 483.561 931.013C601.235 941.333 700.447 1026.38 788.289 1105.38C811.582 1126.31 834.9 1147.2 858.34 1167.87C1033.02 1321.57 1210.55 1462.03 1422.35 1544.09C1661.14 1637.63 1958.07 1641.02 2178.72 1491.74C2378.41 1356.64 2519 1157.65 2675.05 1019.78C2691.7 1005.07 2708.95 991.018 2726.58 977.579C2824.7 902.77 2931.59 849.722 3053.94 825.207C3115.51 812.872 3181.9 807.881 3252.78 812.419C3326.62 817.276 3398.35 831.929 3468.68 847.375C3621.73 880.397 3755.93 915.432 3880.09 920.558C3912.74 921.906 3945.18 921.522 3977.14 918.958C4132.26 906.514 4282.89 848.056 4439.14 754.585C4550.49 687.992 4664.7 603.629 4772.36 504.59" stroke="url(#paint17_linear_878_1487)" stroke-width="3.9204" stroke-miterlimit="10"/>
<path d="M-180.827 1798.27C-52.8681 1740.99 26.3399 1608.12 70.5529 1483.8C109.918 1373.18 130.074 1261.14 175.974 1159.55C181.661 1146.96 187.737 1134.53 194.291 1122.26C253.697 1011.04 369.425 910.679 508.551 920.636C628.656 929.213 729.227 1016.85 817.526 1098.75C840.932 1120.44 864.348 1142.13 887.871 1163.66C1063.07 1323.67 1241.11 1473.29 1455.62 1562.95C1697.79 1665.03 2002.02 1674.32 2225.62 1521.1C2420.48 1387.56 2550.55 1186.06 2697.07 1038.16C2712.68 1022.41 2728.88 1007.16 2745.55 992.488C2838.14 910.452 2941.9 847.487 3061.6 815.83C3122 799.854 3187.2 791.981 3256.98 794.974C3329.58 798.2 3399.75 812.75 3468.37 829.887C3617.44 866.593 3749.56 913.936 3874.89 931.123C3907.92 935.652 3940.94 938.355 3973.78 938.851C4132.96 941.26 4292.22 896.275 4453.59 813.256C4568.59 754.108 4684.68 675.646 4792.16 580.535" stroke="url(#paint18_linear_878_1487)" stroke-width="4.1364" stroke-miterlimit="10"/>
<path d="M-147.896 1835.66C-16.9885 1778.84 61.5465 1641.14 102.842 1511.2C139.603 1395.59 155.85 1277.47 199.468 1169.28C204.873 1155.87 210.693 1142.6 217.022 1129.51C274.4 1010.76 391.613 902.325 533.541 910.258C656.077 917.092 758.007 1007.32 846.763 1092.11C870.283 1114.56 893.796 1137.06 917.403 1159.44C1093.11 1325.77 1271.67 1484.55 1488.89 1581.81C1734.45 1692.42 2046.02 1707.68 2272.52 1550.45C2462.57 1418.51 2582.12 1214.47 2719.1 1056.55C2733.67 1039.75 2748.85 1023.33 2764.53 1007.4C2851.73 918.333 2952.2 845.237 3069.25 806.455C3128.49 786.83 3192.51 776.083 3261.18 777.531C3332.54 779.126 3401.14 793.573 3468.07 812.4C3613.15 852.791 3743.15 912.46 3869.68 941.689C3903.08 949.405 3936.72 955.131 3970.41 958.746C4133.7 975.733 4301.56 944.496 4468.05 871.929C4586.69 820.225 4704.66 747.665 4811.96 656.482" stroke="url(#paint19_linear_878_1487)" stroke-width="4.3523" stroke-miterlimit="10"/>
<path d="M-114.965 1873.04C18.8932 1816.69 96.7542 1674.16 135.131 1538.6C169.289 1417.99 181.626 1293.8 222.961 1179C228.083 1164.77 233.648 1150.68 239.753 1136.76C295.102 1010.48 413.8 893.973 558.531 899.881C683.497 904.972 786.787 997.788 876 1085.47C899.633 1108.68 923.244 1131.99 946.935 1155.22C1123.16 1327.88 1302.23 1495.81 1522.17 1600.67C1771.11 1719.82 2090.07 1741.1 2319.41 1579.8C2504.69 1449.49 2613.97 1243.06 2741.12 1074.94C2754.68 1057.12 2768.81 1039.5 2783.5 1022.31C2865.32 926.214 2962.47 842.972 3076.91 797.078C3134.97 773.796 3197.82 760.182 3265.38 760.086C3335.5 760.05 3402.54 774.394 3467.77 794.912C3608.85 838.987 3736.71 910.991 3864.47 952.254C3898.24 963.159 3932.49 971.978 3967.04 978.64C4134.44 1010.55 4310.9 992.715 4482.5 930.601C4604.8 886.342 4724.64 819.683 4831.77 732.428" stroke="url(#paint20_linear_878_1487)" stroke-width="4.5682" stroke-miterlimit="10"/>
<path d="M-82.0352 1910.43C54.7728 1854.54 131.96 1707.17 167.418 1566.01C198.973 1440.4 207.401 1310.14 246.453 1188.72C251.293 1173.67 256.602 1158.76 262.482 1144C315.803 1010.2 435.986 885.619 583.52 889.502C710.918 892.85 815.567 988.256 905.236 1078.83C928.982 1102.81 952.691 1126.92 976.466 1151.01C1153.2 1329.98 1332.78 1507.07 1555.44 1619.53C1807.76 1747.22 2134.18 1774.59 2366.31 1609.16C2546.84 1480.49 2645.48 1271.37 2763.14 1093.32C2775.66 1074.45 2788.77 1055.67 2802.48 1037.21C2878.9 934.092 2972.65 840.544 3084.57 787.7C3141.39 760.679 3203.12 744.281 3269.57 742.64C3338.46 740.973 3403.94 755.214 3467.47 777.423C3604.56 825.182 3730.17 909.681 3859.26 962.818C3893.37 976.954 3928.26 988.824 3963.67 998.532C4135.19 1045.37 4320.24 1040.93 4496.96 989.271C4622.9 952.456 4744.62 891.698 4851.57 808.372" stroke="url(#paint21_linear_878_1487)" stroke-width="4.7841" stroke-miterlimit="10"/>
<path d="M-49.1045 1947.83C90.6525 1892.39 167.167 1740.19 199.707 1593.41C232.247 1446.62 233.922 1292.58 285.214 1151.25C336.506 1009.92 458.174 877.267 608.512 879.126C738.34 880.732 844.348 978.726 934.474 1072.19C1135.59 1280.75 1333.01 1502.17 1588.72 1638.39C1844.42 1774.62 2178.35 1808.16 2413.21 1638.51C2589.01 1511.52 2676.99 1299.68 2785.16 1111.71C2893.34 923.745 3057.16 735.76 3273.77 725.197C3487.03 714.799 3663.19 877.694 3854.06 973.384C4174.38 1133.98 4583.83 1098.13 4871.38 884.319" stroke="url(#paint22_linear_878_1487)" stroke-width="5" stroke-miterlimit="10"/>
</g>
<defs>
<linearGradient id="paint0_linear_878_1487" x1="-773.577" y1="240.498" x2="4435.69" y2="240.498" gradientUnits="userSpaceOnUse">
<stop stop-color="#43E29B"/>
<stop offset="1" stop-color="#289062"/>
</linearGradient>
<linearGradient id="paint1_linear_878_1487" x1="-740.647" y1="281.41" x2="4455.49" y2="281.41" gradientUnits="userSpaceOnUse">
<stop stop-color="#43E29B"/>
<stop offset="1" stop-color="#289062"/>
</linearGradient>
<linearGradient id="paint2_linear_878_1487" x1="-707.717" y1="323.38" x2="4475.3" y2="323.38" gradientUnits="userSpaceOnUse">
<stop stop-color="#43E29B"/>
<stop offset="1" stop-color="#289062"/>
</linearGradient>
<linearGradient id="paint3_linear_878_1487" x1="-674.786" y1="366.406" x2="4495.1" y2="366.406" gradientUnits="userSpaceOnUse">
<stop stop-color="#43E29B"/>
<stop offset="1" stop-color="#289062"/>
</linearGradient>
<linearGradient id="paint4_linear_878_1487" x1="-641.855" y1="410.696" x2="4514.91" y2="410.696" gradientUnits="userSpaceOnUse">
<stop stop-color="#43E29B"/>
<stop offset="1" stop-color="#289062"/>
</linearGradient>
<linearGradient id="paint5_linear_878_1487" x1="-608.925" y1="456.206" x2="4534.71" y2="456.206" gradientUnits="userSpaceOnUse">
<stop stop-color="#43E29B"/>
<stop offset="1" stop-color="#289062"/>
</linearGradient>
<linearGradient id="paint6_linear_878_1487" x1="-575.994" y1="509.382" x2="4554.51" y2="509.382" gradientUnits="userSpaceOnUse">
<stop stop-color="#43E29B"/>
<stop offset="1" stop-color="#289062"/>
</linearGradient>
<linearGradient id="paint7_linear_878_1487" x1="-543.063" y1="566.049" x2="4574.32" y2="566.049" gradientUnits="userSpaceOnUse">
<stop stop-color="#43E29B"/>
<stop offset="1" stop-color="#289062"/>
</linearGradient>
<linearGradient id="paint8_linear_878_1487" x1="-510.133" y1="622.718" x2="4594.12" y2="622.718" gradientUnits="userSpaceOnUse">
<stop stop-color="#43E29B"/>
<stop offset="1" stop-color="#289062"/>
</linearGradient>
<linearGradient id="paint9_linear_878_1487" x1="-477.202" y1="679.386" x2="4613.93" y2="679.386" gradientUnits="userSpaceOnUse">
<stop stop-color="#43E29B"/>
<stop offset="1" stop-color="#289062"/>
</linearGradient>
<linearGradient id="paint10_linear_878_1487" x1="-444.272" y1="736.054" x2="4633.73" y2="736.054" gradientUnits="userSpaceOnUse">
<stop stop-color="#43E29B"/>
<stop offset="1" stop-color="#289062"/>
</linearGradient>
<linearGradient id="paint11_linear_878_1487" x1="-411.341" y1="792.723" x2="4653.53" y2="792.723" gradientUnits="userSpaceOnUse">
<stop stop-color="#43E29B"/>
<stop offset="1" stop-color="#289062"/>
</linearGradient>
<linearGradient id="paint12_linear_878_1487" x1="-378.41" y1="849.391" x2="4673.34" y2="849.391" gradientUnits="userSpaceOnUse">
<stop stop-color="#43E29B"/>
<stop offset="1" stop-color="#289062"/>
</linearGradient>
<linearGradient id="paint13_linear_878_1487" x1="-345.48" y1="906.058" x2="4693.14" y2="906.058" gradientUnits="userSpaceOnUse">
<stop stop-color="#43E29B"/>
<stop offset="1" stop-color="#289062"/>
</linearGradient>
<linearGradient id="paint14_linear_878_1487" x1="-312.549" y1="962.727" x2="4712.94" y2="962.727" gradientUnits="userSpaceOnUse">
<stop stop-color="#43E29B"/>
<stop offset="1" stop-color="#289062"/>
</linearGradient>
<linearGradient id="paint15_linear_878_1487" x1="-279.619" y1="1019.39" x2="4732.75" y2="1019.39" gradientUnits="userSpaceOnUse">
<stop stop-color="#43E29B"/>
<stop offset="1" stop-color="#289062"/>
</linearGradient>
<linearGradient id="paint16_linear_878_1487" x1="-246.688" y1="1076.06" x2="4752.55" y2="1076.06" gradientUnits="userSpaceOnUse">
<stop stop-color="#43E29B"/>
<stop offset="1" stop-color="#289062"/>
</linearGradient>
<linearGradient id="paint17_linear_878_1487" x1="-213.757" y1="1132.73" x2="4772.36" y2="1132.73" gradientUnits="userSpaceOnUse">
<stop stop-color="#43E29B"/>
<stop offset="1" stop-color="#289062"/>
</linearGradient>
<linearGradient id="paint18_linear_878_1487" x1="-180.827" y1="1189.4" x2="4792.16" y2="1189.4" gradientUnits="userSpaceOnUse">
<stop stop-color="#43E29B"/>
<stop offset="1" stop-color="#289062"/>
</linearGradient>
<linearGradient id="paint19_linear_878_1487" x1="-147.896" y1="1246.07" x2="4811.96" y2="1246.07" gradientUnits="userSpaceOnUse">
<stop stop-color="#43E29B"/>
<stop offset="1" stop-color="#289062"/>
</linearGradient>
<linearGradient id="paint20_linear_878_1487" x1="-114.965" y1="1302.74" x2="4831.77" y2="1302.74" gradientUnits="userSpaceOnUse">
<stop stop-color="#43E29B"/>
<stop offset="1" stop-color="#289062"/>
</linearGradient>
<linearGradient id="paint21_linear_878_1487" x1="-82.0352" y1="1326.47" x2="4851.57" y2="1326.47" gradientUnits="userSpaceOnUse">
<stop stop-color="#43E29B"/>
<stop offset="1" stop-color="#289062"/>
</linearGradient>
<linearGradient id="paint22_linear_878_1487" x1="-49.1045" y1="1336.27" x2="4871.38" y2="1336.27" gradientUnits="userSpaceOnUse">
<stop stop-color="#43E29B"/>
<stop offset="1" stop-color="#289062"/>
</linearGradient>
</defs>
</svg>
