<svg width="6000" height="4000" viewBox="0 0 6000 4000" fill="none" xmlns="http://www.w3.org/2000/svg">
<mask id="mask0_878_1702" style="mask-type:luminance" maskUnits="userSpaceOnUse" x="0" y="0" width="6000" height="4000">
<path d="M0.5 0.5H5999.5V3999.5H0.5V0.5Z" fill="white" stroke="white"/>
</mask>
<g mask="url(#mask0_878_1702)">
<path d="M-1506.43 2115.53C-1432.48 1746.21 -1030.27 1516.75 -653.63 1513.97C-276.987 1511.19 77.3004 1680.57 412.082 1853.16C814.744 2060.75 1212.14 2278.55 1603.76 2506.28C1900.52 2678.84 2216.46 2863.13 2559.41 2847.97C2992.42 2828.82 3341.13 2500.89 3641.88 2188.78C3942.62 1876.67 4277.32 1540.3 4708.46 1495.73C5072.4 1458.1 5417.82 1638.94 5754.01 1783.32C6090.2 1927.71 6487.35 2037.1 6811.07 1866.59" stroke="url(#paint0_linear_878_1702)" stroke-width="2" stroke-miterlimit="10"/>
<path d="M-1487.3 2115.72C-1412.17 1756.32 -1018.65 1531.6 -650.897 1534.13C-489.663 1535.25 -333.256 1567.88 -180.652 1618.51C21.9121 1685.74 218.104 1783.94 408.549 1882.4C581.763 1971.95 754.327 2062.71 926.291 2154.22C1153.05 2274.91 1378.9 2396.68 1602.09 2518.86C1733.49 2590.68 1868.17 2663.73 2006.41 2720.38C2181.13 2792.2 2361.39 2838.11 2550.85 2825.52C2584.66 2823.27 2617.99 2819.22 2650.89 2813.53C2978.92 2756.72 3261.92 2538.3 3511.58 2307.1C3554.2 2267.67 3595.86 2227.86 3636.66 2188.4C3832.36 1999.07 4040.84 1801.86 4278.96 1675.82C4410.43 1606.04 4551.06 1558.05 4703.61 1545.21C4893.05 1529.33 5077.87 1570.35 5259.44 1632.41C5424.88 1688.93 5587.47 1762.68 5747.79 1827.33C6084.03 1963.02 6477.75 2060.15 6796.15 1884.87" stroke="url(#paint1_linear_878_1702)" stroke-width="2" stroke-miterlimit="10"/>
<path d="M-1468.17 2115.9C-1391.86 1766.43 -1007.03 1551.14 -648.165 1554.3C-487.539 1555.71 -332.473 1592.38 -181.094 1644.65C19.908 1714.12 215.036 1813.14 405.015 1911.64C577.81 2001.23 750.285 2091.34 922.58 2181.07C1149.71 2299.39 1376.79 2416.61 1600.41 2531.43C1732.21 2598.9 1866.82 2666.52 2004.14 2717.25C2177.51 2781.7 2354.92 2819.79 2542.29 2803.08C2575.73 2800.09 2608.75 2795.42 2641.4 2789.23C2967.04 2727.44 3253.04 2517.74 3505.07 2299.67C3548.12 2262.49 3590.21 2225.05 3631.44 2188.02C3829.16 2010.35 4038.36 1827 4276.08 1711.61C4407.17 1647.63 4547.16 1604.5 4698.75 1594.69C4887.13 1582.62 5071.34 1624.5 5252.8 1685.16C5418.26 1740.42 5581.14 1810.84 5741.56 1871.33C6077.86 1998.34 6468.16 2083.2 6781.23 1903.15" stroke="url(#paint2_linear_878_1702)" stroke-width="2" stroke-miterlimit="10"/>
<path d="M-1449.03 2116.09C-1371.54 1776.55 -995.382 1568.46 -645.43 1574.47C-485.407 1577.21 -331.687 1616.88 -181.533 1670.8C17.9058 1742.49 211.972 1842.34 401.483 1940.88C573.859 2030.51 746.245 2119.97 918.871 2207.91C1146.36 2323.87 1374.68 2436.54 1598.74 2544.01C1730.92 2607.12 1865.47 2669.31 2001.86 2714.12C2173.9 2771.21 2348.45 2801.47 2533.74 2780.64C2566.81 2776.91 2599.51 2771.62 2631.92 2764.93C2955.17 2698.16 3244.15 2497.19 3498.56 2292.24C3542.04 2257.31 3584.56 2222.23 3626.22 2187.64C3825.97 2021.63 4035.89 1852.14 4273.2 1747.41C4403.9 1689.22 4543.26 1650.95 4693.91 1644.17C4881.22 1635.92 5064.81 1678.66 5246.16 1737.91C5411.65 1791.92 5574.82 1859.01 5735.34 1915.33C6071.69 2033.65 6458.56 2106.25 6766.32 1921.43" stroke="url(#paint3_linear_878_1702)" stroke-width="2" stroke-miterlimit="10"/>
<path d="M-1429.9 2116.27C-1351.23 1786.66 -983.727 1585.87 -642.698 1594.63C-483.268 1598.73 -330.904 1641.38 -181.975 1696.94C15.9015 1770.87 208.903 1871.54 397.948 1970.12C569.905 2059.78 742.203 2148.59 915.159 2234.76C1143.02 2348.34 1372.57 2456.47 1597.06 2556.59C1729.64 2615.33 1864.11 2672.11 1999.58 2710.99C2170.28 2760.72 2341.98 2783.14 2525.18 2758.19C2557.88 2753.73 2590.27 2747.81 2622.43 2740.63C2943.29 2668.88 3235.26 2476.64 3492.04 2284.82C3535.96 2252.13 3578.91 2219.42 3621 2187.26C3822.77 2032.92 4033.61 1877.79 4270.31 1783.21C4400.74 1731.09 4539.35 1697.4 4689.06 1693.65C4875.31 1689.21 5058.28 1732.81 5239.51 1790.66C5405.03 1843.41 5568.49 1907.17 5729.12 1959.33C6065.52 2068.96 6448.97 2129.3 6751.4 1939.7" stroke="url(#paint4_linear_878_1702)" stroke-width="2" stroke-miterlimit="10"/>
<path d="M-1410.76 2116.46C-1330.92 1796.77 -972.058 1603.37 -639.965 1614.8C-481.121 1620.26 -330.12 1665.88 -182.416 1723.09C13.8983 1799.24 205.838 1900.74 394.416 1999.36C565.955 2089.06 738.163 2177.22 911.451 2261.6C1139.68 2372.82 1370.47 2476.4 1595.39 2569.17C1728.36 2623.55 1862.84 2674.57 1997.31 2707.86C2166.77 2749.81 2335.51 2764.82 2516.63 2735.75C2548.96 2730.55 2581.04 2724.01 2612.95 2716.33C2931.42 2639.6 3226.38 2456.09 3485.53 2277.39C3529.89 2246.95 3573.27 2216.61 3615.78 2186.88C3819.58 2044.2 4031.16 1903.04 4267.43 1819C4397.49 1772.75 4535.45 1743.86 4684.21 1743.14C4869.39 1742.51 5051.76 1786.96 5232.87 1843.41C5398.42 1894.9 5562.16 1955.33 5722.9 2003.33C6059.35 2104.27 6439.38 2152.35 6736.49 1957.98" stroke="url(#paint5_linear_878_1702)" stroke-width="2" stroke-miterlimit="10"/>
<path d="M-1391.63 2116.64C-1310.61 1806.89 -960.379 1620.96 -637.232 1634.96C-478.965 1641.82 -329.336 1690.38 -182.857 1749.24C11.8951 1827.62 202.771 1929.94 390.883 2028.6C562.003 2118.34 734.122 2205.85 907.741 2288.45C1136.33 2397.3 1368.36 2496.33 1593.71 2581.74C1727.07 2631.77 1861.49 2677.31 1995.03 2704.73C2163.15 2739.25 2329.04 2746.49 2508.07 2713.3C2540.03 2707.37 2571.79 2700.2 2603.46 2692.03C2919.54 2610.32 3217.49 2435.53 3479.02 2269.96C3523.81 2241.77 3567.62 2213.79 3610.56 2186.51C3816.38 2055.48 4028.69 1928.29 4264.55 1854.8C4394.23 1814.4 4531.55 1790.31 4679.36 1792.62C4863.48 1795.8 5045.23 1841.11 5226.23 1896.16C5391.8 1946.39 5555.83 2003.49 5716.67 2047.34C6053.17 2139.59 6429.78 2175.4 6721.57 1976.26" stroke="url(#paint6_linear_878_1702)" stroke-width="2" stroke-miterlimit="10"/>
<path d="M-1372.5 2116.83C-1290.3 1817 -948.691 1638.64 -634.499 1655.13C-476.803 1663.41 -328.552 1714.88 -183.298 1775.38C9.89191 1856 199.705 1959.14 387.349 2057.84C558.051 2147.62 730.081 2234.47 904.03 2315.3C1132.99 2421.78 1366.24 2516.26 1592.04 2594.32C1725.79 2639.99 1860.12 2680.05 1992.75 2701.59C2159.52 2728.69 2322.57 2728.17 2499.51 2690.86C2531.1 2684.19 2562.55 2676.4 2593.97 2667.74C2907.66 2581.04 3208.61 2414.98 3472.5 2262.53C3517.73 2236.59 3561.97 2210.98 3605.34 2186.13C3813.18 2066.77 4026.21 1953.53 4261.67 1890.6C4390.96 1856.04 4527.64 1836.76 4674.51 1842.1C4857.57 1849.1 5038.7 1895.27 5219.59 1948.91C5385.19 1997.89 5549.51 2051.65 5710.45 2091.34C6047 2174.9 6420.19 2198.45 6706.65 1994.54" stroke="url(#paint7_linear_878_1702)" stroke-width="2" stroke-miterlimit="10"/>
<path d="M-1353.36 2117.01C-1269.99 1827.11 -936.996 1656.41 -631.765 1675.3C-474.632 1685.02 -327.767 1739.38 -183.738 1801.53C7.88872 1884.38 196.639 1988.34 383.817 2087.08C554.1 2176.9 726.041 2263.1 900.321 2342.14C1129.64 2446.26 1363.99 2536.67 1590.36 2606.9C1724.42 2648.49 1858.76 2682.8 1990.47 2698.46C2155.89 2718.14 2316.1 2709.85 2490.96 2668.42C2522.18 2661 2553.31 2652.6 2584.49 2643.44C2895.78 2551.76 3199.72 2394.43 3465.99 2255.11C3511.65 2231.42 3556.32 2208.17 3600.13 2185.75C3809.99 2078.05 4023.72 1978.76 4258.79 1926.4C4387.68 1897.68 4523.74 1883.21 4669.66 1891.58C4851.65 1902.4 5032.18 1949.42 5212.95 2001.66C5378.57 2049.38 5543.18 2099.81 5704.23 2135.34C6040.83 2210.21 6410.6 2221.5 6691.74 2012.82" stroke="url(#paint8_linear_878_1702)" stroke-width="2" stroke-miterlimit="10"/>
<path d="M-1334.23 2117.19C-1249.68 1837.22 -925.297 1674.27 -629.034 1695.46C-472.459 1706.66 -326.984 1763.88 -184.179 1827.67C5.88556 1912.75 193.572 2017.54 380.283 2116.31C550.147 2206.17 721.999 2291.72 896.61 2368.99C1126.3 2470.74 1361.88 2556.64 1588.69 2619.48C1723.14 2656.73 1857.38 2685.55 1988.2 2695.33C2152.25 2707.6 2309.62 2691.52 2482.4 2645.97C2513.25 2637.82 2544.07 2628.8 2575 2619.14C2883.91 2522.47 3190.84 2373.88 3459.48 2247.68C3505.57 2226.24 3550.67 2205.35 3594.91 2185.37C3806.79 2089.33 4021.21 2003.98 4255.91 1962.19C4384.4 1939.32 4519.84 1929.66 4664.81 1941.06C4845.74 1955.69 5025.65 2003.57 5206.3 2054.41C5371.96 2100.87 5536.85 2147.97 5698.01 2179.34C6034.66 2245.53 6401 2244.55 6676.82 2031.1" stroke="url(#paint9_linear_878_1702)" stroke-width="2" stroke-miterlimit="10"/>
<path d="M-1315.1 2117.38C-1229.37 1847.33 -913.592 1692.23 -626.301 1715.63C-470.28 1728.33 -326.201 1788.38 -184.621 1853.82C3.88228 1941.13 190.505 2046.74 376.749 2145.55C546.195 2235.45 717.958 2320.35 892.899 2395.83C1122.95 2495.22 1359.78 2576.6 1587.01 2632.06C1721.86 2664.96 1856.01 2688.31 1985.92 2692.2C2148.61 2697.07 2303.15 2673.2 2473.84 2623.53C2504.32 2614.64 2534.83 2604.99 2565.51 2594.84C2872.03 2493.19 3181.95 2353.32 3452.96 2240.25C3499.49 2221.06 3545.02 2202.54 3589.69 2184.99C3803.59 2100.62 4018.7 2029.18 4253.03 1997.99C4381.11 1980.94 4515.93 1976.12 4659.96 1990.55C4839.82 2008.99 5019.12 2057.73 5199.66 2107.16C5365.34 2152.37 5530.52 2196.14 5691.78 2223.34C6028.49 2280.84 6391.41 2267.6 6661.9 2049.38" stroke="url(#paint10_linear_878_1702)" stroke-width="2" stroke-miterlimit="10"/>
<path d="M-1295.96 2117.56C-1209.06 1857.45 -901.886 1710.28 -623.568 1735.79C-468.097 1750.04 -325.417 1812.88 -185.062 1879.96C1.87811 1969.5 187.439 2075.94 373.216 2174.79C542.243 2264.73 713.917 2348.98 889.19 2422.68C1119.61 2519.69 1357.69 2596.55 1585.34 2644.63C1720.58 2673.2 1854.63 2691.08 1983.64 2689.07C2144.96 2686.55 2296.68 2654.88 2465.29 2601.08C2495.4 2591.46 2525.59 2581.19 2556.03 2570.54C2860.15 2463.91 3172.86 2332.2 3446.45 2232.83C3493.38 2215.78 3539.37 2199.73 3584.47 2184.61C3800.4 2111.9 4016.18 2054.37 4250.15 2033.79C4377.82 2022.56 4512.03 2022.57 4655.12 2040.03C4833.91 2062.28 5012.59 2111.88 5193.02 2159.91C5358.73 2203.86 5524.2 2244.3 5685.56 2267.34C6022.32 2316.15 6381.81 2290.65 6646.98 2067.66" stroke="url(#paint11_linear_878_1702)" stroke-width="2" stroke-miterlimit="10"/>
<path d="M-1276.83 2117.75C-1188.75 1867.56 -890.178 1728.43 -620.834 1755.96C-465.911 1771.79 -324.632 1837.38 -185.502 1906.11C-0.124191 1997.88 184.373 2105.14 369.684 2204.03C538.292 2294.01 709.877 2377.6 885.481 2449.53C1116.27 2544.17 1355.59 2616.5 1583.66 2657.21C1719.31 2681.42 1853.25 2693.87 1981.37 2685.94C2141.31 2676.04 2290.21 2636.55 2456.73 2578.64C2486.48 2568.28 2516.36 2557.39 2546.54 2546.25C2848.28 2434.63 3164 2311.63 3439.94 2225.4C3487.3 2210.6 3533.73 2196.92 3579.25 2184.24C3797.2 2123.19 4013.65 2079.54 4247.27 2069.59C4374.52 2064.17 4508.13 2069.03 4650.27 2089.51C4828 2115.58 5006.07 2166.04 5186.38 2212.67C5352.11 2255.36 5517.87 2292.46 5679.34 2311.35C6016.15 2351.47 6372.22 2313.7 6632.07 2085.94" stroke="url(#paint12_linear_878_1702)" stroke-width="2" stroke-miterlimit="10"/>
<path d="M-1257.69 2117.94C-1168.44 1877.67 -878.474 1746.67 -618.101 1776.12C-463.725 1793.59 -323.848 1861.88 -185.943 1932.26C-2.12836 2026.26 181.307 2134.34 366.15 2233.27C534.34 2323.29 705.836 2406.23 881.77 2476.37C1112.92 2568.65 1353.5 2636.44 1581.99 2669.79C1718.04 2689.65 1851.86 2696.66 1979.09 2682.81C2137.66 2665.55 2283.74 2618.23 2448.17 2556.2C2477.55 2545.1 2507.11 2533.59 2537.06 2521.95C2836.4 2405.35 3155.13 2291.06 3433.42 2217.97C3481.22 2205.42 3528.07 2194.1 3574.03 2183.86C3794.01 2134.47 4011.12 2107.04 4244.38 2105.38C4371.22 2104.48 4504.22 2115.48 4645.42 2138.99C4822.08 2168.88 4999.54 2220.19 5179.73 2265.42C5345.49 2306.85 5511.54 2340.62 5673.11 2355.35C6009.97 2386.78 6362.62 2336.75 6617.15 2104.22" stroke="url(#paint13_linear_878_1702)" stroke-width="2" stroke-miterlimit="10"/>
<path d="M-1238.56 2118.12C-1148.13 1887.78 -866.776 1765.02 -615.369 1796.29C-461.542 1815.43 -323.065 1886.38 -186.385 1958.4C-4.13152 2054.64 178.239 2163.54 362.616 2262.51C530.387 2352.57 701.795 2434.86 878.06 2503.22C1109.58 2593.13 1351.41 2656.37 1580.31 2682.37C1716.76 2697.87 1850.48 2699.46 1976.81 2679.68C2134.01 2655.06 2277.27 2599.91 2439.62 2533.75C2468.62 2521.92 2497.87 2509.78 2527.57 2497.65C2824.52 2376.07 3146.28 2270.51 3426.91 2210.55C3475.15 2200.24 3522.42 2191.29 3568.81 2183.48C3790.81 2145.76 4008.59 2129.82 4241.5 2141.18C4367.93 2147.35 4500.32 2161.93 4640.57 2188.48C4816.17 2222.17 4993.01 2274.34 5173.09 2318.17C5338.88 2358.34 5505.21 2388.79 5666.89 2399.35C6003.8 2422.1 6353.03 2359.8 6602.23 2122.5" stroke="url(#paint14_linear_878_1702)" stroke-width="2" stroke-miterlimit="10"/>
<path d="M-1219.43 2118.31C-1127.81 1897.9 -855.085 1783.46 -612.636 1816.46C-459.361 1837.32 -322.281 1910.88 -186.826 1984.55C-6.13481 2083.01 175.173 2192.75 359.083 2291.75C526.435 2381.84 697.753 2463.48 874.349 2530.06C1106.24 2617.61 1349.32 2676.29 1578.64 2694.95C1715.49 2706.08 1849.1 2702.27 1974.53 2676.55C2130.36 2644.59 2270.8 2581.58 2431.06 2511.31C2459.7 2498.74 2488.63 2485.98 2518.08 2473.35C2812.64 2346.79 3137.42 2249.96 3420.4 2203.12C3469.08 2195.06 3516.77 2188.48 3563.59 2183.1C3787.61 2157.04 4006.06 2154.93 4238.62 2176.98C4364.63 2188.93 4496.41 2208.38 4635.72 2237.96C4810.25 2275.47 4986.48 2328.49 5166.45 2370.92C5332.26 2409.84 5498.88 2436.95 5660.67 2443.35C5997.63 2457.41 6343.44 2382.85 6587.32 2140.78" stroke="url(#paint15_linear_878_1702)" stroke-width="2" stroke-miterlimit="10"/>
<path d="M-1200.29 2118.49C-1107.5 1908.01 -843.406 1802 -609.904 1836.62C-457.188 1859.27 -321.498 1935.38 -187.268 2010.69C-8.13988 2111.39 172.105 2221.94 355.548 2320.99C522.482 2411.12 693.711 2492.11 870.637 2556.91C1102.89 2642.09 1347.23 2696.21 1576.96 2707.52C1714.22 2714.29 1847.73 2705.08 1972.25 2673.41C2126.71 2634.13 2264.33 2563.26 2422.5 2488.86C2450.77 2475.55 2479.39 2462.18 2508.59 2449.05C2800.77 2317.51 3128.56 2229.42 3413.88 2195.69C3463 2189.88 3511.13 2185.66 3558.37 2182.72C3784.42 2168.32 4003.54 2180.02 4235.74 2212.77C4361.34 2230.49 4492.51 2254.83 4630.87 2287.44C4804.34 2328.76 4979.95 2382.65 5159.81 2423.67C5325.65 2461.33 5492.55 2485.11 5654.44 2487.35C5991.46 2492.72 6333.84 2405.9 6572.4 2159.05" stroke="url(#paint16_linear_878_1702)" stroke-width="2" stroke-miterlimit="10"/>
<path d="M-1181.16 2118.67C-1087.19 1918.12 -831.738 1820.63 -607.169 1856.79C-455.021 1881.28 -320.712 1959.88 -187.707 2036.84C-10.1412 2139.77 169.041 2251.15 352.017 2350.23C518.532 2440.4 689.672 2520.74 866.929 2583.75C1099.55 2666.57 1345.14 2716.11 1575.29 2720.1C1712.94 2722.49 1846.36 2707.91 1969.98 2670.28C2123.08 2623.68 2257.86 2544.94 2413.95 2466.42C2441.84 2452.37 2470.15 2438.38 2499.11 2424.76C2788.89 2288.23 3119.75 2209.46 3407.37 2188.26C3456.94 2184.81 3505.48 2182.85 3553.15 2182.34C3781.22 2179.61 4001.02 2205.1 4232.86 2248.57C4358.05 2272.05 4488.61 2301.29 4626.02 2336.92C4798.42 2382.06 4973.43 2436.8 5153.17 2476.42C5319.03 2512.82 5486.23 2533.27 5648.22 2531.36C5985.29 2528.04 6324.25 2428.95 6557.48 2177.33" stroke="url(#paint17_linear_878_1702)" stroke-width="2" stroke-miterlimit="10"/>
<path d="M-1162.03 2118.86C-1066.88 1928.23 -820.091 1839.37 -604.436 1876.95C-452.87 1903.37 -319.928 1984.38 -188.148 2062.99C-12.1444 2168.14 165.974 2280.35 348.484 2379.47C514.58 2469.68 685.631 2549.36 863.22 2610.6C1096.2 2691.05 1343.05 2736.01 1573.61 2732.68C1711.67 2730.69 1844.99 2710.75 1967.7 2667.15C2119.45 2613.24 2251.39 2526.61 2405.39 2443.98C2432.92 2429.19 2460.92 2414.57 2489.63 2400.46C2777.02 2258.95 3110.87 2188.9 3400.86 2180.84C3450.86 2179.63 3499.83 2180.04 3547.94 2181.96C3778.03 2190.89 3998.52 2230.16 4229.98 2284.37C4354.77 2313.59 4484.71 2347.74 4621.17 2386.41C4792.51 2435.35 4966.9 2490.95 5146.53 2529.17C5312.42 2564.31 5479.9 2581.43 5642 2575.36C5979.12 2563.35 6314.66 2452 6542.57 2195.61" stroke="url(#paint18_linear_878_1702)" stroke-width="2" stroke-miterlimit="10"/>
<path d="M-1142.89 2119.04C-1046.57 1938.35 -808.468 1858.2 -601.705 1897.12C-450.738 1925.53 -319.146 2008.88 -188.591 2089.13C-14.1495 2196.52 162.906 2309.55 344.948 2408.71C510.626 2498.96 681.589 2577.99 859.508 2637.45C1092.86 2715.53 1340.95 2755.9 1571.94 2745.26C1710.4 2738.88 1843.63 2713.59 1965.42 2664.02C2115.82 2602.81 2244.91 2508.29 2396.83 2421.53C2423.99 2406.01 2451.67 2390.77 2480.14 2376.16C2765.14 2229.67 3101.98 2168.35 3394.34 2173.41C3444.78 2174.45 3494.18 2177.23 3542.71 2181.59C3774.83 2202.18 3996.02 2255.21 4227.09 2320.17C4351.49 2355.14 4480.8 2394.19 4616.32 2435.89C4786.59 2488.65 4960.37 2545.11 5139.88 2581.92C5305.8 2615.81 5473.57 2629.59 5635.77 2619.36C5972.94 2598.66 6305.06 2475.05 6527.65 2213.89" stroke="url(#paint19_linear_878_1702)" stroke-width="2" stroke-miterlimit="10"/>
<path d="M-1123.76 2119.23C-1026.26 1948.46 -796.871 1877.13 -598.971 1917.28C-448.626 1947.78 -318.361 2033.38 -189.031 2115.28C-16.1518 2224.89 159.84 2338.75 341.416 2437.95C506.675 2528.23 677.548 2606.61 855.798 2664.29C1089.52 2740 1338.82 2775.36 1570.26 2757.84C1709.1 2746.82 1842.28 2716.44 1963.15 2660.89C2112.21 2592.38 2238.44 2489.96 2388.28 2399.09C2415.07 2382.83 2442.43 2366.97 2470.65 2351.86C2753.26 2200.39 3093.09 2147.8 3387.83 2165.98C3438.7 2169.27 3488.53 2174.41 3537.5 2181.2C3771.63 2213.46 3993.54 2280.24 4224.21 2355.96C4348.21 2396.67 4476.9 2440.64 4611.47 2485.37C4780.68 2541.94 4953.84 2599.26 5133.24 2634.67C5299.19 2667.3 5467.24 2677.75 5629.55 2663.36C5966.77 2633.97 6295.47 2498.1 6512.73 2232.17" stroke="url(#paint20_linear_878_1702)" stroke-width="2" stroke-miterlimit="10"/>
<path d="M-1104.63 2119.41C-1005.95 1958.57 -785.308 1896.16 -596.239 1937.45C-446.545 1970.14 -317.578 2057.89 -189.472 2141.42C-18.156 2253.27 156.773 2367.95 337.883 2467.19C502.723 2557.51 673.507 2635.24 852.088 2691.14C1086.17 2764.48 1336.71 2795.29 1568.59 2770.41C1707.81 2755.03 1840.94 2719.29 1960.87 2657.76C2108.61 2581.96 2231.97 2471.64 2379.72 2376.64C2406.14 2359.65 2433.19 2343.16 2461.16 2327.56C2741.38 2171.11 3084.21 2127.25 3381.32 2158.56C3432.62 2164.09 3482.88 2171.6 3532.28 2180.83C3768.44 2224.74 3991.07 2305.26 4221.33 2391.76C4344.95 2438.2 4472.99 2487.1 4606.62 2534.85C4774.77 2595.24 4947.32 2653.41 5126.6 2687.42C5292.57 2718.79 5460.92 2725.91 5623.33 2707.36C5960.6 2669.29 6285.87 2521.15 6497.81 2250.45" stroke="url(#paint21_linear_878_1702)" stroke-width="2" stroke-miterlimit="10"/>
<path d="M-1085.49 2119.6C-985.638 1968.68 -773.782 1915.29 -593.504 1957.62C-444.498 1992.6 -316.792 2082.39 -189.911 2167.57C-20.1571 2281.65 153.709 2397.15 334.351 2496.43C498.773 2586.79 669.468 2663.87 848.379 2717.98C1082.83 2788.96 1334.6 2815.22 1566.91 2782.99C1706.53 2763.25 1839.6 2722.14 1958.59 2654.63C2105.01 2571.55 2225.5 2453.32 2371.17 2354.2C2397.22 2336.47 2423.95 2319.36 2451.68 2303.27C2729.51 2141.83 3075.32 2106.69 3374.8 2151.13C3426.54 2158.91 3477.23 2168.79 3527.06 2180.45C3765.24 2236.03 3988.62 2330.28 4218.45 2427.56C4341.7 2479.73 4469.09 2533.55 4601.77 2584.34C4768.85 2648.54 4940.79 2707.57 5119.96 2740.17C5285.96 2770.29 5454.59 2774.08 5617.11 2751.37C5954.43 2704.6 6276.28 2544.21 6482.9 2268.73" stroke="url(#paint22_linear_878_1702)" stroke-width="2" stroke-miterlimit="10"/>
<path d="M-1066.36 2119.78C-965.326 1978.79 -762.304 1934.5 -590.771 1977.78C-442.498 2015.19 -316.008 2106.88 -190.352 2193.71C-22.1604 2310.02 150.643 2426.35 330.818 2525.66C494.821 2616.06 665.427 2692.49 844.669 2744.83C1079.48 2813.44 1332.49 2835.15 1565.24 2795.57C1705.25 2771.47 1838.39 2725.2 1956.32 2651.5C2101.58 2561.37 2219.03 2434.99 2362.61 2331.75C2388.29 2313.28 2414.71 2295.56 2442.19 2278.97C2717.63 2112.55 3066.44 2086.14 3368.29 2143.7C3420.46 2153.73 3471.58 2165.98 3521.84 2180.07C3762.05 2247.31 3986.37 2354.88 4215.57 2463.36C4338.55 2521.03 4465.19 2580 4596.92 2633.82C4762.94 2701.83 4934.26 2761.72 5113.31 2792.92C5279.34 2821.78 5448.26 2822.24 5610.88 2795.37C5948.26 2739.91 6266.69 2567.25 6467.98 2287.01" stroke="url(#paint23_linear_878_1702)" stroke-width="2" stroke-miterlimit="10"/>
<path d="M-1047.23 2119.97C-945.017 1988.91 -750.883 1953.81 -588.04 1997.95C-440.558 2037.92 -315.226 2131.39 -190.795 2219.86C-24.1656 2338.4 147.574 2455.55 327.283 2554.9C490.867 2645.34 661.384 2721.12 840.957 2771.67C1076.14 2837.92 1330.38 2855.08 1563.56 2808.15C1703.96 2779.69 1837.04 2727.99 1954.04 2648.36C2097.96 2550.88 2212.56 2416.67 2354.05 2309.31C2379.36 2290.1 2405.47 2271.76 2432.7 2254.67C2705.75 2083.27 3057.55 2065.59 3361.78 2136.27C3414.38 2148.55 3465.93 2163.16 3516.62 2179.69C3758.85 2258.59 3983.89 2380.02 4212.69 2499.15C4335.28 2562.62 4461.28 2626.45 4592.07 2683.3C4757.02 2755.13 4927.73 2815.87 5106.67 2845.67C5272.73 2873.27 5441.93 2870.4 5604.66 2839.37C5942.09 2775.22 6257.09 2590.3 6453.06 2305.28" stroke="url(#paint24_linear_878_1702)" stroke-width="2" stroke-miterlimit="10"/>
<path d="M-1028.09 2120.15C-924.706 1999.02 -739.525 1973.2 -585.306 2018.11C-438.686 2060.82 -314.441 2155.89 -191.235 2246.01C-26.1677 2366.78 144.509 2484.75 323.751 2584.14C486.916 2674.62 657.345 2749.75 837.249 2798.52C1072.8 2862.4 1328.27 2875.01 1561.89 2820.73C1702.68 2787.91 1835.69 2730.78 1951.76 2645.23C2094.35 2540.39 2206.09 2398.35 2345.5 2286.87C2370.44 2266.92 2396.23 2247.95 2423.22 2230.37C2693.88 2053.99 3048.67 2045.04 3355.27 2128.85C3408.31 2143.38 3460.29 2160.35 3511.4 2179.31C3755.66 2269.88 3981.42 2405.16 4209.81 2534.95C4332.02 2604.21 4457.38 2672.91 4587.23 2732.78C4751.11 2808.42 4921.21 2870.02 5100.03 2898.42C5266.11 2924.77 5435.61 2918.56 5598.44 2883.37C5935.92 2810.54 6247.5 2613.35 6438.15 2323.57" stroke="url(#paint25_linear_878_1702)" stroke-width="2" stroke-miterlimit="10"/>
<path d="M-1008.96 2120.34C-904.395 2009.13 -728.245 1992.67 -582.574 2038.28C-436.903 2083.89 -313.658 2180.39 -191.677 2272.15C120.672 2507.13 455.317 2726.75 833.537 2825.36C1211.76 2923.98 1643.43 2885.23 1949.48 2642.1C2116 2509.82 2237.55 2325.18 2413.73 2206.07C2682 2024.71 3039.78 2024.48 3348.75 2121.42C3657.72 2218.36 3931.22 2400.9 4206.92 2570.75C4482.62 2740.6 4773.2 2902.81 5093.38 2951.17C5603.6 3028.24 6148.44 2778.6 6423.23 2341.84" stroke="url(#paint26_linear_878_1702)" stroke-width="2" stroke-miterlimit="10"/>
</g>
<defs>
<linearGradient id="paint0_linear_878_1702" x1="-1506.43" y1="2169.77" x2="6811.07" y2="2169.77" gradientUnits="userSpaceOnUse">
<stop stop-color="#43E29B"/>
<stop offset="1" stop-color="#289062"/>
</linearGradient>
<linearGradient id="paint1_linear_878_1702" x1="-1487.3" y1="2180.86" x2="6796.15" y2="2180.86" gradientUnits="userSpaceOnUse">
<stop stop-color="#43E29B"/>
<stop offset="1" stop-color="#289062"/>
</linearGradient>
<linearGradient id="paint2_linear_878_1702" x1="-1468.17" y1="2180.64" x2="6781.23" y2="2180.64" gradientUnits="userSpaceOnUse">
<stop stop-color="#43E29B"/>
<stop offset="1" stop-color="#289062"/>
</linearGradient>
<linearGradient id="paint3_linear_878_1702" x1="-1449.03" y1="2180.78" x2="6766.32" y2="2180.78" gradientUnits="userSpaceOnUse">
<stop stop-color="#43E29B"/>
<stop offset="1" stop-color="#289062"/>
</linearGradient>
<linearGradient id="paint4_linear_878_1702" x1="-1429.9" y1="2181.4" x2="6751.4" y2="2181.4" gradientUnits="userSpaceOnUse">
<stop stop-color="#43E29B"/>
<stop offset="1" stop-color="#289062"/>
</linearGradient>
<linearGradient id="paint5_linear_878_1702" x1="-1410.76" y1="2182.56" x2="6736.49" y2="2182.56" gradientUnits="userSpaceOnUse">
<stop stop-color="#43E29B"/>
<stop offset="1" stop-color="#289062"/>
</linearGradient>
<linearGradient id="paint6_linear_878_1702" x1="-1391.63" y1="2184.49" x2="6721.57" y2="2184.49" gradientUnits="userSpaceOnUse">
<stop stop-color="#43E29B"/>
<stop offset="1" stop-color="#289062"/>
</linearGradient>
<linearGradient id="paint7_linear_878_1702" x1="-1372.5" y1="2187.32" x2="6706.65" y2="2187.32" gradientUnits="userSpaceOnUse">
<stop stop-color="#43E29B"/>
<stop offset="1" stop-color="#289062"/>
</linearGradient>
<linearGradient id="paint8_linear_878_1702" x1="-1353.36" y1="2191.25" x2="6691.74" y2="2191.25" gradientUnits="userSpaceOnUse">
<stop stop-color="#43E29B"/>
<stop offset="1" stop-color="#289062"/>
</linearGradient>
<linearGradient id="paint9_linear_878_1702" x1="-1334.23" y1="2196.46" x2="6676.82" y2="2196.46" gradientUnits="userSpaceOnUse">
<stop stop-color="#43E29B"/>
<stop offset="1" stop-color="#289062"/>
</linearGradient>
<linearGradient id="paint10_linear_878_1702" x1="-1315.1" y1="2203.06" x2="6661.9" y2="2203.06" gradientUnits="userSpaceOnUse">
<stop stop-color="#43E29B"/>
<stop offset="1" stop-color="#289062"/>
</linearGradient>
<linearGradient id="paint11_linear_878_1702" x1="-1295.96" y1="2211.08" x2="6646.98" y2="2211.08" gradientUnits="userSpaceOnUse">
<stop stop-color="#43E29B"/>
<stop offset="1" stop-color="#289062"/>
</linearGradient>
<linearGradient id="paint12_linear_878_1702" x1="-1276.83" y1="2220.42" x2="6632.07" y2="2220.42" gradientUnits="userSpaceOnUse">
<stop stop-color="#43E29B"/>
<stop offset="1" stop-color="#289062"/>
</linearGradient>
<linearGradient id="paint13_linear_878_1702" x1="-1257.69" y1="2231.03" x2="6617.15" y2="2231.03" gradientUnits="userSpaceOnUse">
<stop stop-color="#43E29B"/>
<stop offset="1" stop-color="#289062"/>
</linearGradient>
<linearGradient id="paint14_linear_878_1702" x1="-1238.56" y1="2242.87" x2="6602.23" y2="2242.87" gradientUnits="userSpaceOnUse">
<stop stop-color="#43E29B"/>
<stop offset="1" stop-color="#289062"/>
</linearGradient>
<linearGradient id="paint15_linear_878_1702" x1="-1219.43" y1="2255.85" x2="6587.32" y2="2255.85" gradientUnits="userSpaceOnUse">
<stop stop-color="#43E29B"/>
<stop offset="1" stop-color="#289062"/>
</linearGradient>
<linearGradient id="paint16_linear_878_1702" x1="-1200.29" y1="2269.89" x2="6572.4" y2="2269.89" gradientUnits="userSpaceOnUse">
<stop stop-color="#43E29B"/>
<stop offset="1" stop-color="#289062"/>
</linearGradient>
<linearGradient id="paint17_linear_878_1702" x1="-1181.16" y1="2284.86" x2="6557.48" y2="2284.86" gradientUnits="userSpaceOnUse">
<stop stop-color="#43E29B"/>
<stop offset="1" stop-color="#289062"/>
</linearGradient>
<linearGradient id="paint18_linear_878_1702" x1="-1162.03" y1="2300.67" x2="6542.57" y2="2300.67" gradientUnits="userSpaceOnUse">
<stop stop-color="#43E29B"/>
<stop offset="1" stop-color="#289062"/>
</linearGradient>
<linearGradient id="paint19_linear_878_1702" x1="-1142.89" y1="2317.22" x2="6527.65" y2="2317.22" gradientUnits="userSpaceOnUse">
<stop stop-color="#43E29B"/>
<stop offset="1" stop-color="#289062"/>
</linearGradient>
<linearGradient id="paint20_linear_878_1702" x1="-1123.76" y1="2334.31" x2="6512.73" y2="2334.31" gradientUnits="userSpaceOnUse">
<stop stop-color="#43E29B"/>
<stop offset="1" stop-color="#289062"/>
</linearGradient>
<linearGradient id="paint21_linear_878_1702" x1="-1104.63" y1="2351.99" x2="6497.81" y2="2351.99" gradientUnits="userSpaceOnUse">
<stop stop-color="#43E29B"/>
<stop offset="1" stop-color="#289062"/>
</linearGradient>
<linearGradient id="paint22_linear_878_1702" x1="-1085.49" y1="2370.11" x2="6482.9" y2="2370.11" gradientUnits="userSpaceOnUse">
<stop stop-color="#43E29B"/>
<stop offset="1" stop-color="#289062"/>
</linearGradient>
<linearGradient id="paint23_linear_878_1702" x1="-1066.36" y1="2388.56" x2="6467.98" y2="2388.56" gradientUnits="userSpaceOnUse">
<stop stop-color="#43E29B"/>
<stop offset="1" stop-color="#289062"/>
</linearGradient>
<linearGradient id="paint24_linear_878_1702" x1="-1047.23" y1="2422.25" x2="6453.06" y2="2422.25" gradientUnits="userSpaceOnUse">
<stop stop-color="#43E29B"/>
<stop offset="1" stop-color="#289062"/>
</linearGradient>
<linearGradient id="paint25_linear_878_1702" x1="-1028.09" y1="2456.05" x2="6438.15" y2="2456.05" gradientUnits="userSpaceOnUse">
<stop stop-color="#43E29B"/>
<stop offset="1" stop-color="#289062"/>
</linearGradient>
<linearGradient id="paint26_linear_878_1702" x1="-1008.96" y1="2489.81" x2="6423.23" y2="2489.81" gradientUnits="userSpaceOnUse">
<stop stop-color="#43E29B"/>
<stop offset="1" stop-color="#289062"/>
</linearGradient>
</defs>
</svg>
