<svg width="4000" height="2000" viewBox="0 0 4000 2000" fill="none" xmlns="http://www.w3.org/2000/svg">
<mask id="mask0_878_2256" style="mask-type:luminance" maskUnits="userSpaceOnUse" x="0" y="0" width="4000" height="2000">
<path d="M0.5 0.5H3999.5V1999.5H0.5V0.5Z" fill="white" stroke="white"/>
</mask>
<g mask="url(#mask0_878_2256)">
<path d="M-228.613 -174.24C-144.524 300.736 192.501 723.266 636.895 910.851C713.756 943.295 796.167 969.451 879.275 962.149C962.383 954.847 1046.34 907.482 1076.25 829.598C1113.88 731.572 1060.25 612.04 1110.84 520.029C1142.15 463.084 1208.41 431.529 1273.31 428.168C1338.21 424.807 1402.02 445.817 1461.08 472.929C1682 574.341 1858.58 768.37 1938.8 997.828C1981.99 1121.39 2009.48 1269.22 2123.96 1332.68C2258.23 1407.11 2422.86 1316.57 2540.45 1217.89C2662.88 1115.15 2775.85 999.533 2911.78 915.484C3047.72 831.435 3214.92 781.117 3368.51 825.317C3727.1 928.515 3824.02 1463.72 4185.94 1554.54" stroke="url(#paint0_linear_878_2256)" stroke-miterlimit="10"/>
<path d="M-177.443 -174.432C-147.622 55.2624 -56.9913 275.255 80.4456 462.931C217.785 650.486 403.024 804.153 617.205 901.87C694.452 937.113 778.469 965.508 863.522 959.458C916.726 955.686 970.29 936.283 1011.34 903.19C1035.97 883.322 1055.97 858.619 1068.79 829.709C1111.44 733.026 1068.22 614.016 1123.3 523.321C1157.67 466.999 1225.19 435.508 1291.66 431.499C1358.15 427.488 1423.83 447.432 1484.65 474.53C1497.89 480.429 1510.96 486.69 1523.86 493.303C1655.23 560.647 1767.64 664.271 1846.63 787.088C1893.14 859.402 1928.81 938.658 1959.03 1019.97C2003.81 1140.46 2036.65 1279.64 2150.51 1338.77C2189.1 1358.91 2230.08 1365.99 2271.58 1363.64C2373.4 1357.87 2478.84 1296.09 2562.31 1229.99C2684.68 1133.01 2798.07 1023.03 2932.15 941.171C2983.99 909.518 3040.07 882.36 3097.98 862.939C3189.81 832.17 3286.28 820.91 3378.08 842.611C3508.96 873.539 3606.06 960.675 3695.66 1062.93C3845.48 1233.55 3976 1448.12 4192.75 1512.36" stroke="url(#paint1_linear_878_2256)" stroke-miterlimit="10"/>
<path d="M-126.275 -174.625C-108.691 47.192 -32.7674 262.727 91.7046 449.586C216.088 636.333 391.199 791.564 597.513 892.887C675.148 931.014 760.768 961.564 847.767 956.765C902.266 953.781 957.153 935.165 1000.07 902.473C1025.76 882.868 1046.92 858.4 1061.33 829.818C1109.01 734.477 1076.18 615.99 1135.76 526.611C1173.18 470.912 1241.97 439.486 1310.02 434.827C1378.08 430.166 1445.64 449.044 1508.21 476.127C1521.83 482.023 1535.28 488.328 1548.53 495.035C1683.48 563.336 1797.16 672.825 1871.47 801.241C1915.22 876.84 1946.76 959.582 1979.26 1042.11C2025.5 1159.55 2063.83 1290.05 2177.05 1344.85C2215.22 1363.5 2255.59 1369.97 2296.33 1367.66C2396.85 1361.94 2500.64 1304.28 2584.17 1242.08C2706.48 1150.87 2820.29 1046.53 2952.51 966.853C3003.67 936.03 3058.63 909.157 3115.15 889.214C3204.69 857.675 3298.28 843.616 3387.64 859.901C3515.07 883.096 3611.66 958.082 3702.28 1048.75C3854.05 1199.94 3992.39 1398.5 4199.55 1470.17" stroke="url(#paint2_linear_878_2256)" stroke-miterlimit="10"/>
<path d="M-75.1055 -174.816C-69.7595 39.1236 -8.54247 250.201 102.966 436.243C214.393 622.183 379.288 779.308 577.823 883.907C655.836 925.008 743.07 957.622 832.014 954.074C887.809 951.878 944.019 934.05 988.79 901.759C1015.55 882.418 1037.94 858.218 1053.87 829.93C1106.76 736.042 1083.93 617.809 1148.21 529.904C1188.56 474.729 1258.75 443.466 1328.37 438.158C1398.02 432.846 1467.45 450.659 1531.77 477.728C1545.77 483.62 1559.59 489.97 1573.19 496.771C1711.72 566.028 1826.68 681.383 1896.3 815.398C1937.3 894.283 1964.65 980.519 1999.48 1064.25C2047.08 1178.67 2091.13 1300.17 2203.6 1350.94C2241.38 1368 2281.1 1373.96 2321.08 1371.68C2420.29 1366.02 2522.44 1312.47 2606.02 1254.18C2728.28 1168.73 2842.51 1070.03 2972.87 992.541C3023.35 962.548 3077.17 935.961 3132.32 915.494C3219.58 883.186 3310.28 866.327 3397.21 877.195C3521.19 892.658 3617.26 955.492 3708.9 1034.57C3862.61 1166.34 4008.78 1348.88 4206.35 1427.99" stroke="url(#paint3_linear_878_2256)" stroke-miterlimit="10"/>
<path d="M-23.938 -175.008C-30.83 31.0552 15.681 237.674 114.224 422.899C212.694 608.033 367.27 767.36 558.13 874.927C636.499 919.095 725.368 953.68 816.259 951.384C873.35 949.977 930.882 932.935 977.513 901.045C1005.34 881.967 1028.9 858.011 1046.41 830.042C1104.36 737.527 1091.86 619.748 1160.67 533.197C1204.06 478.62 1275.53 447.447 1346.72 441.49C1417.96 435.528 1489.26 452.275 1555.33 479.329C1569.72 485.218 1583.9 491.612 1597.86 498.507C1739.97 568.721 1856.2 689.941 1921.14 829.554C1959.38 911.725 1982.49 1001.47 2019.71 1086.39C2068.56 1197.82 2118.33 1310.51 2230.14 1357.03C2267.51 1372.57 2306.61 1377.94 2345.84 1375.7C2443.74 1370.09 2544.24 1320.67 2627.88 1266.28C2750.09 1186.59 2864.74 1093.53 2993.24 1018.23C3043.02 989.063 3095.73 962.763 3149.5 941.773C3234.46 908.696 3322.28 889.037 3406.78 894.489C3527.3 902.219 3622.71 953.106 3715.53 1020.4C3870.94 1133.08 4025.18 1299.26 4213.15 1385.81" stroke="url(#paint4_linear_878_2256)" stroke-miterlimit="10"/>
<path d="M27.2309 -175.199C8.10189 22.9858 39.9059 225.147 125.485 409.555C210.999 593.881 355.138 755.696 538.44 865.946C617.131 913.276 707.67 949.738 800.506 948.693C858.892 948.074 917.748 931.82 966.238 900.33C995.132 881.515 1019.85 857.802 1038.96 830.153C1101.93 739.005 1099.82 621.697 1173.13 536.489C1219.57 482.518 1292.31 451.427 1365.08 444.82C1437.89 438.208 1511.07 453.888 1578.9 480.929C1593.66 486.815 1608.22 493.253 1622.52 500.241C1768.22 571.411 1885.72 698.497 1945.98 843.709C1981.47 929.166 2000.26 1022.44 2039.94 1108.53C2089.94 1217.01 2145.51 1320.87 2256.69 1363.11C2293.63 1377.14 2332.12 1381.92 2370.59 1379.71C2467.19 1374.16 2566.05 1328.86 2649.73 1278.38C2771.89 1204.44 2886.96 1117.03 3013.6 1043.91C3062.7 1015.58 3114.28 989.562 3166.67 968.049C3249.35 934.203 3334.29 911.744 3416.35 911.78C3533.42 911.778 3628.31 950.562 3722.15 1006.22C3879.5 1099.55 4041.57 1249.63 4219.96 1343.63" stroke="url(#paint5_linear_878_2256)" stroke-miterlimit="10"/>
<path d="M78.3998 -175.391C47.0318 14.9184 64.1298 212.62 136.745 396.211C209.303 579.731 342.876 744.292 518.749 856.965C597.715 907.554 689.97 945.795 784.752 946.001C844.434 946.17 904.612 930.703 954.961 899.614C984.922 881.062 1010.8 857.589 1031.5 830.263C1099.49 740.473 1107.79 623.656 1185.59 539.78C1235.08 486.421 1309.09 455.405 1383.43 448.15C1457.83 440.887 1532.88 455.502 1602.46 482.528C1617.6 488.41 1632.53 494.893 1647.18 501.975C1796.47 574.102 1915.23 707.054 1970.82 857.864C2003.55 946.607 2017.97 1043.43 2060.17 1130.67C2111.23 1236.23 2172.68 1331.24 2283.23 1369.19C2319.75 1381.73 2357.63 1385.9 2395.34 1383.73C2490.64 1378.24 2587.85 1337.05 2671.59 1290.48C2793.69 1222.3 2909.18 1140.53 3033.97 1069.6C3082.37 1042.09 3132.83 1016.37 3183.84 994.329C3264.23 959.713 3346.29 934.455 3425.92 929.074C3539.53 921.339 3633.92 948.011 3728.78 992.047C3888.1 1066.02 4057.97 1200.02 4226.76 1301.45" stroke="url(#paint6_linear_878_2256)" stroke-miterlimit="10"/>
<path d="M129.568 -175.582C85.9628 6.84897 88.3538 200.093 148.004 382.867C207.606 565.58 330.472 733.121 499.057 847.984C578.239 901.933 672.27 941.852 768.998 943.31C829.976 944.267 891.477 929.587 943.685 898.899C974.713 880.611 1001.75 857.374 1024.04 830.374C1097.04 741.932 1115.77 625.628 1198.04 543.072C1250.61 490.334 1325.87 459.385 1401.79 451.48C1477.77 443.567 1554.69 457.116 1626.02 484.128C1641.55 490.007 1656.84 496.534 1671.85 503.71C1824.72 576.794 1944.75 715.611 1995.66 872.019C2025.63 964.048 2035.62 1064.45 2080.4 1152.81C2132.43 1255.49 2199.84 1341.64 2309.78 1375.28C2345.86 1386.32 2383.13 1389.88 2420.1 1387.75C2514.08 1382.31 2609.65 1345.24 2693.45 1302.57C2815.49 1240.16 2931.4 1164.03 3054.33 1095.28C3102.05 1068.61 3151.38 1043.16 3201.01 1020.61C3279.12 985.222 3358.29 957.164 3435.49 946.367C3545.65 930.9 3639.55 945.443 3735.4 977.871C3896.72 1032.45 4074.36 1150.39 4233.56 1259.26" stroke="url(#paint7_linear_878_2256)" stroke-miterlimit="10"/>
<path d="M180.738 -175.773C124.895 -1.21944 112.579 187.567 159.265 369.524C205.91 551.43 317.922 722.159 479.367 839.004C558.691 896.415 654.571 937.91 753.245 940.62C815.518 942.365 878.343 928.472 932.409 898.185C964.504 880.16 992.7 857.157 1016.58 830.487C1094.58 743.383 1123.76 627.616 1210.5 546.366C1266.14 494.256 1342.65 463.366 1420.14 454.812C1497.7 446.248 1576.5 458.732 1649.59 485.729C1665.49 491.604 1681.15 498.176 1696.51 505.446C1852.97 579.487 1974.27 724.169 2020.5 886.176C2047.71 981.491 2053.2 1085.51 2100.62 1174.95C2153.57 1274.79 2226.99 1352.06 2336.32 1381.36C2371.97 1390.92 2408.64 1393.87 2444.85 1391.77C2537.53 1386.38 2631.45 1353.44 2715.3 1314.67C2837.3 1258.02 2953.63 1187.54 3074.7 1120.97C3121.73 1095.12 3169.93 1069.97 3218.19 1046.89C3294.01 1010.73 3370.29 979.874 3445.06 963.66C3551.76 940.46 3645.19 942.853 3742.02 963.695C3905.35 998.851 4090.76 1100.77 4240.37 1217.08" stroke="url(#paint8_linear_878_2256)" stroke-miterlimit="10"/>
<path d="M231.907 -175.965C163.826 -9.28784 136.804 175.04 170.525 356.179C204.214 537.278 305.213 711.375 459.676 830.022C539.057 890.996 636.872 933.967 737.492 937.928C801.061 940.462 865.208 927.356 921.134 897.469C954.297 879.707 983.644 856.935 1009.13 830.597C1092.11 744.821 1131.76 629.613 1222.96 549.657C1281.68 498.185 1359.43 467.345 1438.5 458.142C1517.64 448.928 1598.31 460.346 1673.15 487.329C1689.44 493.201 1705.47 499.817 1721.18 507.181C1881.22 582.178 2003.79 732.727 2045.34 900.332C2069.79 998.934 2070.71 1106.62 2120.85 1197.09C2174.64 1294.13 2254.14 1362.51 2362.87 1387.45C2398.09 1395.53 2434.16 1397.85 2469.61 1395.79C2560.98 1390.46 2653.26 1361.63 2737.16 1326.77C2859.1 1275.88 2975.85 1211.04 3095.06 1146.66C3141.4 1121.64 3188.48 1096.77 3235.36 1073.17C3308.89 1036.24 3382.3 1002.58 3454.63 980.954C3557.88 950.022 3650.84 940.24 3748.65 949.52C3913.99 965.209 4107.15 1051.15 4247.17 1174.9" stroke="url(#paint9_linear_878_2256)" stroke-miterlimit="10"/>
<path d="M283.076 -176.156C202.757 -17.3562 161.028 162.514 181.785 342.836C202.518 523.128 292.339 700.746 439.986 821.042C519.323 885.682 619.173 930.025 721.738 935.237C786.603 938.559 852.073 926.24 909.857 896.755C944.087 879.256 974.542 856.668 1001.67 830.709C1089.5 746.109 1139.91 631.802 1235.42 552.95C1297.31 502.237 1376.21 471.325 1456.85 461.473C1537.58 451.609 1620.12 461.961 1696.71 488.929C1713.38 494.798 1729.78 501.458 1745.85 508.915C1909.47 584.869 2033.31 741.283 2070.18 914.486C2091.87 1016.37 2088.15 1127.76 2141.08 1219.23C2195.64 1313.51 2281.29 1372.99 2389.42 1393.53C2424.19 1400.14 2459.66 1401.83 2494.36 1399.8C2584.43 1394.53 2675.06 1369.82 2759.01 1338.86C2880.9 1293.74 2998.07 1234.53 3115.43 1172.34C3161.08 1148.15 3207.03 1123.57 3252.53 1099.44C3323.78 1061.75 3394.3 1025.29 3464.2 998.243C3564 959.578 3656.47 937.596 3755.27 935.34C3922.61 931.52 4123.54 1001.53 4253.97 1132.71" stroke="url(#paint10_linear_878_2256)" stroke-miterlimit="10"/>
<path d="M334.246 -176.348C241.689 -25.4257 185.253 149.986 193.046 329.492C200.823 508.977 279.296 690.243 420.296 812.062C499.475 880.47 601.475 926.083 705.986 932.547C772.146 936.657 838.939 925.126 898.583 896.04C933.88 878.805 965.496 856.451 994.211 830.82C1087.07 747.563 1147.88 633.778 1247.88 556.242C1312.83 506.153 1392.99 475.305 1475.21 464.803C1557.52 454.288 1641.93 463.575 1720.28 490.529C1737.32 496.394 1754.1 503.099 1770.51 510.65C1937.72 587.56 2062.83 749.84 2095.02 928.642C2113.96 1033.82 2105.52 1148.96 2161.31 1241.37C2216.6 1332.94 2308.43 1383.5 2415.96 1399.62C2450.3 1404.77 2485.18 1405.81 2519.12 1403.82C2607.88 1398.6 2696.86 1378.01 2780.87 1350.96C2902.71 1311.6 3020.3 1258.04 3135.79 1198.03C3180.76 1174.67 3225.59 1150.37 3269.71 1125.72C3338.67 1087.26 3406.3 1048 3473.77 1015.54C3570.12 969.14 3662.07 934.766 3761.9 921.165C3931.18 897.511 4139.94 951.907 4260.78 1090.53" stroke="url(#paint11_linear_878_2256)" stroke-miterlimit="10"/>
<path d="M385.414 -176.539C280.619 -33.4931 209.477 137.46 204.305 316.148C199.125 494.826 266.076 679.84 400.604 803.081C479.498 875.356 583.774 922.141 690.231 929.856C757.687 934.754 825.803 924.01 887.305 895.326C923.669 878.354 956.446 856.235 986.751 830.932C1084.63 749.017 1155.84 635.755 1260.33 559.535C1328.34 510.069 1409.77 479.285 1493.56 468.135C1577.45 456.97 1663.74 465.191 1743.84 492.13C1761.26 497.992 1778.41 504.741 1795.17 512.386C1965.97 590.253 2092.35 758.398 2119.85 942.798C2136.04 1051.26 2122.81 1170.22 2181.54 1263.51C2237.5 1352.41 2335.56 1394.2 2442.51 1405.7C2476.41 1409.45 2510.68 1409.79 2543.87 1407.84C2631.32 1402.68 2718.66 1386.21 2802.73 1363.06C2924.5 1329.45 3042.52 1281.53 3156.15 1223.71C3200.43 1201.18 3244.13 1177.17 3286.87 1152C3353.55 1112.77 3418.3 1070.71 3483.33 1032.83C3576.23 978.701 3667.67 932.176 3768.52 906.989C3939.74 863.908 4156.33 902.286 4267.58 1048.35" stroke="url(#paint12_linear_878_2256)" stroke-miterlimit="10"/>
<path d="M436.583 -176.73C319.551 -41.5625 233.702 124.934 215.565 302.805C197.429 480.676 252.678 669.51 380.913 794.101C509.148 918.692 712.764 967.49 876.03 894.611C1034.22 823.998 1130.03 660.949 1272.79 562.827C1430.5 454.436 1645.46 435.296 1819.84 514.12C1994.22 592.944 2121.87 766.955 2144.69 956.953C2158.12 1068.7 2140.03 1191.55 2201.77 1285.65C2276.19 1399.1 2433.18 1419.88 2568.62 1411.86C2828.04 1396.49 3083.3 1315.41 3304.05 1178.28C3460.43 1081.12 3601.97 955.322 3775.14 892.814C3948.31 830.306 4172.73 852.666 4274.38 1006.17" stroke="url(#paint13_linear_878_2256)" stroke-miterlimit="10"/>
</g>
<defs>
<linearGradient id="paint0_linear_878_2256" x1="-228.613" y1="690.15" x2="4185.94" y2="690.15" gradientUnits="userSpaceOnUse">
<stop stop-color="#43E29B"/>
<stop offset="1" stop-color="#289062"/>
</linearGradient>
<linearGradient id="paint1_linear_878_2256" x1="-177.443" y1="668.964" x2="4192.75" y2="668.964" gradientUnits="userSpaceOnUse">
<stop stop-color="#43E29B"/>
<stop offset="1" stop-color="#289062"/>
</linearGradient>
<linearGradient id="paint2_linear_878_2256" x1="-126.275" y1="647.775" x2="4199.55" y2="647.775" gradientUnits="userSpaceOnUse">
<stop stop-color="#43E29B"/>
<stop offset="1" stop-color="#289062"/>
</linearGradient>
<linearGradient id="paint3_linear_878_2256" x1="-75.1055" y1="626.588" x2="4206.35" y2="626.588" gradientUnits="userSpaceOnUse">
<stop stop-color="#43E29B"/>
<stop offset="1" stop-color="#289062"/>
</linearGradient>
<linearGradient id="paint4_linear_878_2256" x1="-24.6055" y1="605.402" x2="4213.15" y2="605.402" gradientUnits="userSpaceOnUse">
<stop stop-color="#43E29B"/>
<stop offset="1" stop-color="#289062"/>
</linearGradient>
<linearGradient id="paint5_linear_878_2256" x1="21.8613" y1="602.514" x2="4219.96" y2="602.514" gradientUnits="userSpaceOnUse">
<stop stop-color="#43E29B"/>
<stop offset="1" stop-color="#289062"/>
</linearGradient>
<linearGradient id="paint6_linear_878_2256" x1="63.4043" y1="604.444" x2="4226.76" y2="604.444" gradientUnits="userSpaceOnUse">
<stop stop-color="#43E29B"/>
<stop offset="1" stop-color="#289062"/>
</linearGradient>
<linearGradient id="paint7_linear_878_2256" x1="99.6699" y1="606.377" x2="4233.56" y2="606.377" gradientUnits="userSpaceOnUse">
<stop stop-color="#43E29B"/>
<stop offset="1" stop-color="#289062"/>
</linearGradient>
<linearGradient id="paint8_linear_878_2256" x1="130.518" y1="608.317" x2="4240.37" y2="608.317" gradientUnits="userSpaceOnUse">
<stop stop-color="#43E29B"/>
<stop offset="1" stop-color="#289062"/>
</linearGradient>
<linearGradient id="paint9_linear_878_2256" x1="156.033" y1="610.266" x2="4247.17" y2="610.266" gradientUnits="userSpaceOnUse">
<stop stop-color="#43E29B"/>
<stop offset="1" stop-color="#289062"/>
</linearGradient>
<linearGradient id="paint10_linear_878_2256" x1="176.498" y1="612.226" x2="4253.97" y2="612.226" gradientUnits="userSpaceOnUse">
<stop stop-color="#43E29B"/>
<stop offset="1" stop-color="#289062"/>
</linearGradient>
<linearGradient id="paint11_linear_878_2256" x1="192.33" y1="614.209" x2="4260.78" y2="614.209" gradientUnits="userSpaceOnUse">
<stop stop-color="#43E29B"/>
<stop offset="1" stop-color="#289062"/>
</linearGradient>
<linearGradient id="paint12_linear_878_2256" x1="204.025" y1="616.236" x2="4267.58" y2="616.236" gradientUnits="userSpaceOnUse">
<stop stop-color="#43E29B"/>
<stop offset="1" stop-color="#289062"/>
</linearGradient>
<linearGradient id="paint13_linear_878_2256" x1="212.203" y1="618.33" x2="4274.38" y2="618.33" gradientUnits="userSpaceOnUse">
<stop stop-color="#43E29B"/>
<stop offset="1" stop-color="#289062"/>
</linearGradient>
</defs>
</svg>
