<svg width="3500" height="2000" viewBox="0 0 3500 2000" fill="none" xmlns="http://www.w3.org/2000/svg">
<mask id="mask0_878_3120" style="mask-type:luminance" maskUnits="userSpaceOnUse" x="0" y="0" width="3500" height="2000">
<path d="M0.5 0.5H3499.5V1999.5H0.5V0.5Z" fill="white" stroke="white"/>
</mask>
<g mask="url(#mask0_878_3120)">
<path d="M2723.19 1366.02C2670.18 1366.02 2613.79 1357.48 2553.2 1340.38C2447.29 1310.5 2343.42 1258.76 2254.38 1212.61L1520.37 832.167C1373.89 756.249 1241.25 695.177 1101.14 716.963C1002.09 732.36 905.008 790.226 804.327 893.867C771.824 927.326 740.709 963.223 710.618 997.938C665.039 1050.52 617.908 1104.89 565.024 1151.85C495.623 1213.47 414.28 1261.87 323.255 1295.71C235.307 1328.4 142 1346.22 45.9249 1348.66C38.3609 1348.85 30.7918 1348.94 23.2528 1348.94C-64.9542 1348.95 -151.287 1335.82 -233.735 1309.85C-326.36 1280.68 -410.055 1236.47 -482.494 1178.45L-481.869 1177.67C-187.244 1413.65 282.091 1401.73 564.36 1151.1C617.195 1104.19 664.305 1049.84 709.863 997.283C739.962 962.558 771.087 926.65 803.61 893.17C904.448 789.367 1001.72 731.406 1100.98 715.974C1166.71 705.756 1237.21 713.497 1316.54 739.639C1386.24 762.61 1452.94 796.094 1520.83 831.278L2254.84 1211.72C2453.02 1314.44 2663.12 1409.2 2861.68 1343.23C3049.77 1280.74 3163.33 1090.8 3263.52 923.209L3271.22 910.329C3312.59 841.193 3376.91 740.206 3457.52 661.764C3496.22 624.112 3536.38 593.871 3576.89 571.885C3621.98 547.41 3669.21 532.214 3717.26 526.717L3717.38 527.711C3511.83 551.22 3371.43 744.812 3272.08 910.843L3264.37 923.722C3212.94 1009.76 3159.75 1098.73 3095.51 1174.62C3022.62 1260.73 2946.24 1316.19 2862 1344.18C2818.19 1358.74 2772.13 1366.02 2723.19 1366.02Z" stroke="url(#paint0_linear_878_3120)" stroke-miterlimit="10"/>
<path d="M2776.21 1364.02C2748.55 1364.02 2719.9 1361.64 2690 1356.9C2628.44 1347.12 2562.94 1327.71 2483.88 1295.79C2419.78 1269.91 2356.49 1239.88 2295.29 1210.83L2283.97 1205.46C2221.51 1175.9 2160.25 1148.25 2101.86 1123.28C2078.25 1113.13 2054.49 1103.05 2031.51 1093.31C1997.35 1078.83 1962.03 1063.85 1926.59 1048.37C1845.44 1012.94 1757.78 970.375 1666.06 921.853C1624.19 899.705 1583.08 877.36 1544.9 856.513C1498.87 831.367 1453.7 807.075 1407.27 786.293C1297.74 737.304 1207.78 720.921 1124.17 734.733C1043.72 748.132 965.539 791.281 885.156 866.647C866.926 883.734 848.629 902.4 829.222 923.708C806.966 948.162 785.101 973.845 763.957 998.682C742.93 1023.38 721.187 1048.92 699.002 1073.32C657.866 1118.54 621.207 1153.45 583.634 1183.19C515.307 1237.58 435.3 1278.97 345.834 1306.23C279.728 1326.28 209.705 1338.06 137.711 1341.22C67.6637 1344.31 -4.34631 1339.25 -76.3163 1326.2C-219.981 1300.15 -362.26 1242.92 -476.945 1165.05L-476.384 1164.22C-361.811 1242.01 -219.668 1299.19 -76.1383 1325.22C69.6217 1351.64 215.436 1344.74 345.543 1305.27C434.887 1278.05 514.784 1236.72 583.013 1182.41C620.543 1152.7 657.164 1117.83 698.263 1072.65C720.436 1048.26 742.175 1022.73 763.196 998.035C784.346 973.191 806.216 947.502 828.483 923.036C847.908 901.707 866.222 883.023 884.472 865.918C965.003 790.413 1043.35 747.179 1124.01 733.747C1207.82 719.9 1297.96 736.308 1407.68 785.38C1454.14 806.177 1499.33 830.479 1545.38 855.636C1583.56 876.482 1624.66 898.824 1666.53 920.969C1758.23 969.48 1845.86 1012.04 1926.99 1047.45C1962.42 1062.93 1997.74 1077.9 2031.9 1092.39C2054.88 1102.13 2078.64 1112.21 2102.26 1122.36C2160.65 1147.33 2221.93 1174.99 2284.4 1204.56L2295.72 1209.93C2356.91 1238.97 2420.18 1269 2484.26 1294.87C2598.81 1341.11 2749.1 1388.77 2895.75 1346.6C3082.4 1292.91 3199.5 1112.17 3302.81 952.699L3309.41 942.521C3356.24 870.272 3420 777.817 3497.95 703.55C3536.54 666.781 3576.22 636.912 3615.9 614.774C3660.17 590.069 3706.21 573.978 3752.71 566.947L3752.86 567.936C3558.02 597.391 3419.78 774.096 3310.25 943.065L3303.65 953.242C3250.52 1035.26 3195.58 1120.06 3130.3 1191.48C3056.28 1272.45 2979.65 1323.51 2896.03 1347.56C2857.83 1358.54 2818.17 1364.02 2776.21 1364.02Z" stroke="url(#paint1_linear_878_3120)" stroke-miterlimit="10"/>
<path d="M2829.03 1362.71C2795.49 1362.72 2760.43 1359.15 2723.4 1352.01C2663.49 1340.46 2599.73 1320.2 2516.66 1286.3C2471.71 1267.96 2426.36 1247.93 2382.51 1228.55C2359.75 1218.5 2336.22 1208.1 2313.56 1198.32C2249.23 1170.63 2187.16 1146.67 2129.09 1127.1C2105.35 1119.01 2081.71 1111.27 2058.85 1103.79C2025.33 1092.83 1990.67 1081.49 1955.2 1068.86C1874.5 1040.14 1783.02 998.619 1690.67 948.786C1648.54 926.057 1607.51 902.71 1569.44 880.865C1519.27 852.055 1477.31 828.324 1432.27 807.018C1322.26 755.063 1231.68 737.745 1147.2 752.508C1066.63 766.788 988.655 812.964 908.836 893.674C891.455 911.238 873.557 930.826 854.115 953.555C838.836 971.44 823.588 989.98 808.844 1007.91C781.456 1041.21 753.137 1075.65 723.151 1107.69C683.336 1150.17 643.786 1185.12 602.245 1214.53C531.461 1264.64 449.262 1300.36 357.93 1320.72C229.708 1349.01 88.3225 1345.71 -62.3025 1310.9C-132.008 1294.79 -203.653 1272.39 -275.247 1244.33C-344.662 1217.12 -410.655 1185.94 -471.395 1151.65L-470.904 1150.78C-347.671 1220.35 -198.66 1278.36 -62.0775 1309.93C88.4005 1344.7 229.639 1348 357.714 1319.75C448.912 1299.42 530.991 1263.74 601.666 1213.71C643.152 1184.34 682.65 1149.44 722.419 1107.01C752.383 1074.99 780.693 1040.56 808.07 1007.27C822.817 989.34 838.068 970.797 853.353 952.904C872.81 930.156 890.726 910.552 908.124 892.97C988.093 812.108 1066.24 765.84 1147.02 751.522C1193.08 743.475 1240.71 745.067 1292.64 756.396C1336.14 765.886 1381.96 782.149 1432.7 806.113C1477.77 827.434 1519.75 851.176 1569.93 879.997C1607.99 901.838 1649.02 925.182 1691.14 947.905C1783.45 997.714 1874.87 1039.21 1955.53 1067.91C1990.99 1080.54 2025.64 1091.88 2059.16 1102.84C2082.02 1110.32 2105.66 1118.06 2129.41 1126.15C2187.5 1145.73 2249.59 1169.7 2313.95 1197.4C2336.61 1207.19 2360.15 1217.58 2382.91 1227.64C2426.76 1247.01 2472.1 1267.04 2517.03 1285.37C2648.57 1339.04 2789.61 1384.01 2929.83 1349.96C3115.39 1304.89 3231.17 1140.26 3343.14 981.048L3347.6 974.713C3399.66 900.702 3463.03 815.572 3538.37 745.335C3620.54 668.731 3702.24 623.54 3788.16 607.178L3788.35 608.16C3603.96 643.274 3467.94 805.361 3348.42 975.288L3343.96 981.622C3288.97 1059.81 3232.11 1140.66 3165.62 1207.83C3090.28 1283.92 3013.23 1330.73 2930.06 1350.93C2897.72 1358.79 2864.2 1362.71 2829.03 1362.71Z" stroke="url(#paint2_linear_878_3120)" stroke-miterlimit="10"/>
<path d="M2881.93 1362.16C2842.62 1362.16 2801.15 1357.15 2756.76 1347.09C2684.64 1330.75 2611.49 1302.39 2549.44 1276.81C2523.93 1266.29 2497.89 1255.28 2472.71 1244.63C2429.8 1226.48 2385.42 1207.71 2343.15 1191.17C2278.07 1165.84 2215.21 1145.57 2156.32 1130.92C2133.37 1125.21 2110.77 1120.06 2088.92 1115.07C2055.17 1107.38 2020.27 1099.42 1983.81 1089.34C1902.41 1066.86 1809.55 1027.57 1715.27 975.714C1672.9 952.407 1631.93 928.056 1593.98 905.212C1549.86 878.633 1504.25 851.151 1457.28 827.737C1348.36 773.558 1254.46 754.763 1170.23 770.279C1089.34 785.447 1011.58 834.65 932.521 920.696C915.813 938.866 898.81 958.789 879.011 983.396C868.76 996.157 858.433 1009.28 848.446 1021.97C816.601 1062.42 783.673 1104.26 747.303 1142.05C707.872 1182.95 665.329 1217.88 620.857 1245.86C548.761 1291.23 462.026 1322.13 370.029 1335.21C245.238 1352.57 108.408 1339.61 -48.2829 1295.6C-205.443 1251.44 -362.096 1185.66 -465.836 1138.25L-465.421 1137.34C-361.713 1184.73 -205.111 1250.5 -48.0139 1294.64C108.541 1338.61 245.238 1351.56 369.889 1334.22C461.746 1321.16 548.345 1290.31 620.323 1245.02C664.727 1217.08 707.207 1182.2 746.582 1141.36C782.916 1103.6 815.83 1061.79 847.659 1021.35C857.648 1008.66 867.976 995.535 878.231 982.77C898.044 958.145 915.061 938.206 931.784 920.02C968.477 880.085 1003.69 848.972 1039.43 824.9C1081.9 796.293 1125.85 777.585 1170.05 769.296C1215.83 760.864 1265.28 762.592 1317.06 774.433C1361.03 784.491 1407.04 801.634 1457.72 826.843C1504.73 850.274 1550.36 877.768 1594.49 904.356C1632.44 927.194 1673.39 951.54 1715.76 974.838C1809.97 1026.65 1902.75 1065.91 1984.08 1088.37C2020.52 1098.45 2055.4 1106.41 2089.14 1114.1C2111 1119.08 2133.61 1124.24 2156.56 1129.95C2215.49 1144.61 2278.39 1164.89 2343.51 1190.24C2385.8 1206.79 2430.18 1225.55 2473.1 1243.71C2498.28 1254.35 2524.32 1265.36 2549.82 1275.88C2682 1330.38 2822.84 1381.25 2963.91 1353.32C3148.86 1316.7 3268.8 1159.88 3384.79 1008.22L3385.8 1006.91C3443.28 931.734 3506.45 853.081 3578.8 787.122C3660.84 712.33 3740.92 666.631 3823.62 647.412L3823.84 648.386C3641.35 690.799 3502.46 855.999 3386.59 1007.51L3385.58 1008.83C3328.54 1083.41 3269.56 1160.53 3201.62 1223.67C3124.71 1295.16 3047.02 1337.89 2964.1 1354.3C2937.65 1359.54 2910.35 1362.16 2881.93 1362.16Z" stroke="url(#paint3_linear_878_3120)" stroke-miterlimit="10"/>
<path d="M2934.87 1362.38C2889.94 1362.38 2842.08 1355.66 2790.09 1342.13C2720.56 1324.04 2652.09 1296.42 2582.22 1267.31L2566.08 1260.59C2502.01 1233.86 2435.75 1206.21 2372.74 1184.02C2305.71 1160.58 2242.05 1144 2183.54 1134.73C2160.36 1131.06 2137.78 1128.22 2115.94 1125.47C2082.93 1121.32 2048.8 1117.02 2012.42 1109.81C1931.5 1093.84 1834.71 1055.78 1739.88 1002.64C1697.24 978.752 1656.35 953.4 1618.51 929.562L1614.31 926.911C1571.72 900.04 1527.69 872.255 1482.28 848.46C1372.98 791.331 1278.44 771.574 1193.26 788.052C1110.75 804.344 1035.42 855.079 956.2 947.719C940.482 966.084 923.864 986.905 903.903 1013.24C897.427 1021.8 890.865 1030.56 884.52 1039.02C849.504 1085.76 813.296 1134.08 771.453 1176.41C731.474 1216.77 687.067 1250.68 639.466 1277.2C564.841 1318.77 475.854 1343.84 382.124 1349.7C260.822 1356.82 132.408 1335.42 -34.2673 1280.3C-121.011 1251.6 -212.28 1217.22 -300.544 1183.97C-357.144 1162.65 -410.605 1142.52 -460.279 1124.84L-459.944 1123.9C-410.261 1141.58 -356.796 1161.72 -300.192 1183.04C-211.938 1216.28 -120.678 1250.66 -33.9543 1279.35C132.596 1334.43 260.9 1355.82 382.063 1348.7C475.642 1342.85 564.483 1317.82 638.978 1276.33C686.497 1249.85 730.829 1216 770.741 1175.71C812.537 1133.42 848.724 1085.13 883.72 1038.43C890.066 1029.96 896.628 1021.2 903.106 1012.64C923.08 986.285 939.709 965.452 955.44 947.072C991.584 904.805 1026.28 871.917 1061.51 846.528C1104.57 815.497 1147.61 796.049 1193.07 787.072C1278.48 770.548 1373.23 790.338 1482.74 847.576C1528.19 871.389 1572.24 899.186 1614.84 926.067L1619.04 928.716C1656.87 952.547 1697.74 977.892 1740.37 1001.77C1835.11 1054.85 1931.79 1092.88 2012.61 1108.83C2048.96 1116.03 2083.07 1120.33 2116.06 1124.48C2137.91 1127.23 2160.5 1130.07 2183.7 1133.75C2242.27 1143.02 2305.98 1159.62 2373.07 1183.08C2436.11 1205.28 2502.38 1232.93 2566.47 1259.66L2582.6 1266.39C2730.39 1327.95 2863.64 1377.23 2997.99 1356.68C3182.86 1328.4 3310.97 1174.7 3423.99 1039.1C3483.35 967.869 3547.31 892.966 3619.22 828.909C3701.2 755.879 3779.66 709.672 3859.07 687.645L3859.33 688.607C3688.94 735.873 3551.22 887.986 3424.76 1039.74C3369.41 1106.15 3306.67 1181.43 3236.08 1241.07C3158.09 1306.97 3080.25 1345.11 2998.14 1357.67C2977.65 1360.81 2956.6 1362.38 2934.87 1362.38Z" stroke="url(#paint4_linear_878_3120)" stroke-miterlimit="10"/>
<path d="M405.978 1364.29C402.06 1364.29 398.146 1364.25 394.216 1364.18C260.08 1361.73 131.517 1322.76 -20.2507 1265C-43.5617 1256.12 -66.8497 1247.15 -91.5067 1237.65C-216.212 1189.62 -345.164 1139.95 -454.721 1111.43L-454.469 1110.47C-344.857 1139 -215.879 1188.68 -91.1467 1236.72C-66.4917 1246.22 -43.2037 1255.19 -19.8947 1264.06C131.775 1321.79 260.244 1360.73 394.235 1363.18C488.93 1364.91 580.001 1345.7 657.634 1307.63C708.023 1282.92 754.207 1250.09 794.901 1210.06C841.54 1164.07 880.059 1109.89 917.31 1057.49C920.868 1052.49 924.423 1047.49 927.982 1042.5C942.646 1021.99 960.186 997.825 979.098 974.12C1057.56 875.679 1132.86 821.891 1216.1 804.844C1302.25 787.199 1397.66 807.958 1507.76 868.305C1551.83 892.527 1594.47 920.658 1635.7 947.863L1643.6 953.075C1681.29 977.896 1722.09 1004.24 1764.98 1028.7C1861.6 1083.82 1959.67 1119.54 2041.15 1129.3C2077.47 1133.67 2110.88 1134.37 2143.19 1135.04C2164.96 1135.5 2187.47 1135.97 2210.84 1137.55C2269.07 1141.48 2333.59 1154.39 2402.63 1175.92C2473.47 1198.2 2546.75 1228.01 2615.38 1256.9L2624.96 1260.93C2764.03 1319.48 2895.38 1374.78 3032.07 1360.05C3217.38 1340.07 3353.12 1191.04 3462.19 1071.29L3463.33 1070.03C3522.18 1005.41 3588.87 932.16 3660.33 870.1C3742.09 799.092 3818.69 752.57 3894.52 727.875L3894.83 728.826C3725.02 784.13 3586.39 936.377 3464.07 1070.7L3462.93 1071.96C3397.77 1143.5 3338.27 1206.95 3269.9 1258.94C3191.06 1318.9 3113.29 1352.3 3032.17 1361.04C2970.69 1367.67 2903.95 1360.3 2828.14 1338.51C2760.42 1319.04 2691.36 1289.97 2624.58 1261.85L2615 1257.82C2546.38 1228.94 2473.13 1199.14 2402.33 1176.87C2333.37 1155.37 2268.92 1142.48 2210.78 1138.55C2187.43 1136.97 2164.93 1136.5 2143.17 1136.04C2110.83 1135.37 2077.4 1134.67 2041.04 1130.29C1959.43 1120.52 1861.21 1084.75 1764.49 1029.57C1721.57 1005.09 1680.76 978.739 1643.05 953.909L1635.15 948.696C1593.94 921.503 1551.32 893.383 1507.28 869.18C1397.4 808.953 1302.21 788.229 1216.3 805.823C1133.31 822.82 1058.19 876.495 979.882 974.743C960.985 998.43 943.454 1022.58 928.798 1043.08C925.24 1048.07 921.685 1053.07 918.128 1058.07C880.852 1110.5 842.307 1164.72 795.606 1210.77C754.835 1250.88 708.563 1283.77 658.077 1308.53C583.521 1345.09 496.587 1364.29 405.978 1364.29Z" stroke="url(#paint5_linear_878_3120)" stroke-miterlimit="10"/>
<path d="M464.914 1381.48C443.457 1381.48 423.728 1380.34 406.312 1378.66C342.048 1372.48 276.798 1357.69 200.965 1332.1C133.446 1309.31 67.1829 1281.3 -6.23312 1249.69C-158.385 1184.17 -317.352 1120.44 -449.162 1098.02L-448.994 1097.04C-317.079 1119.47 -158.046 1183.22 -5.83713 1248.78C145.422 1313.89 271.822 1364.73 406.408 1377.67C473.321 1384.1 574.462 1382.61 676.289 1338.94C729.387 1316.18 777.422 1284.37 819.06 1244.42C870.102 1195.31 910.259 1135.65 949.094 1077.96L952.857 1072.37C970.992 1045.5 986.418 1023.11 1002.76 1001.17C1051.35 935.83 1128.73 846.231 1239.12 822.619C1285.95 812.6 1336.81 814.567 1390.28 828.462C1435.04 840.096 1482.99 860.476 1532.78 889.036C1575.62 913.681 1616.97 942.173 1656.96 969.728L1668.15 977.435C1705.73 1003.25 1746.44 1030.59 1789.6 1055.64C1886.65 1111.98 1988.74 1146.29 2069.69 1149.76C2106.02 1151.35 2138.77 1148.5 2170.45 1145.74C2192.1 1143.85 2214.48 1141.91 2237.98 1141.35C2295.88 1140 2361.22 1149.22 2432.19 1168.76C2493.34 1185.78 2561.97 1210.77 2648.17 1247.41C2660.38 1252.6 2672.76 1257.91 2684.73 1263.05C2814.58 1318.79 2937.22 1371.46 3066.14 1363.41C3238.19 1352.68 3369.72 1234.34 3500.39 1103.48C3508.28 1095.57 3516.24 1087.56 3524.28 1079.48C3642.34 960.764 3776.15 826.207 3929.96 768.111L3930.32 769.047C3776.71 827.066 3642.98 961.542 3524.99 1080.19C3516.95 1088.27 3508.99 1096.28 3501.09 1104.18C3440.51 1164.86 3375.37 1228.16 3303.69 1276.74C3224.03 1330.74 3146.35 1359.41 3066.21 1364.41C3008.2 1368.03 2945.57 1359.31 2874.73 1337.78C2811.4 1318.52 2746.8 1290.79 2684.33 1263.97C2672.37 1258.83 2659.99 1253.52 2647.77 1248.33C2561.62 1211.71 2493.03 1186.73 2431.92 1169.72C2361.05 1150.21 2295.81 1141 2238.01 1142.35C2214.54 1142.9 2192.17 1144.85 2170.54 1146.74C2138.83 1149.5 2106.03 1152.35 2069.65 1150.76C2027.13 1148.94 1979.92 1139.11 1929.35 1121.54C1883.41 1105.59 1834.91 1083.1 1789.09 1056.5C1745.91 1031.44 1705.18 1004.08 1667.59 978.259L1656.39 970.551C1616.42 943.008 1575.09 914.528 1532.28 889.903C1423.61 827.57 1325.05 805.262 1239.33 823.597C1129.27 847.139 1052.06 936.558 1003.56 1001.77C987.232 1023.7 971.813 1046.07 953.686 1072.93L949.924 1078.52C911.06 1136.25 870.873 1195.96 819.754 1245.14C778.028 1285.18 729.893 1317.05 676.685 1339.86C601.17 1372.24 526.039 1381.48 464.914 1381.48Z" stroke="url(#paint6_linear_878_3120)" stroke-miterlimit="10"/>
<path d="M517.777 1401.73C484.763 1401.73 451.485 1398.86 418.407 1393.14C290.425 1371.01 171.785 1313.65 46.1795 1252.91C33.4875 1246.78 20.6965 1240.59 7.78549 1234.39C-181.801 1143.27 -329.452 1094.28 -443.604 1084.61L-443.52 1083.61C-380.41 1088.96 -304.854 1107.03 -218.951 1137.34C-150.31 1161.56 -76.0015 1193.01 8.21848 1233.49C21.1305 1239.69 33.9215 1245.88 46.6135 1252.01C172.154 1312.71 290.733 1370.04 418.578 1392.16C514.255 1408.7 612.403 1400.92 694.943 1370.25C750.631 1349.56 800.517 1318.78 843.216 1278.77C898.316 1227 938.688 1163.58 977.731 1102.23C994.728 1075.6 1010.12 1051.64 1026.41 1028.22C1074.17 959.494 1150.56 865.251 1262.14 840.393C1349.16 821.006 1448.63 844.348 1557.8 909.767C1599.54 934.855 1639.74 963.741 1678.61 991.675C1683.31 995.054 1688.01 998.429 1692.7 1001.79C1730.16 1028.6 1770.8 1056.94 1814.21 1082.57C1913.11 1140.96 2016.61 1172.92 2098.22 1170.23C2134.59 1169.06 2166.74 1162.69 2197.83 1156.53C2219.31 1152.27 2241.53 1147.87 2265.12 1145.16C2322.72 1138.55 2388.87 1144.08 2461.74 1161.6C2526.03 1177.24 2597.73 1202.21 2680.94 1237.91C2707.75 1249.41 2734.72 1261.78 2760.81 1273.75C2876.14 1326.65 2985.08 1376.63 3100.19 1366.78C3279.08 1351.48 3416.61 1246.66 3538.58 1135.67C3555.62 1120.16 3572.55 1104.5 3590.48 1087.93C3702.1 984.699 3828.62 867.7 3965.41 808.348L3965.81 809.265C3829.17 868.55 3702.72 985.487 3591.16 1088.66C3573.23 1105.24 3556.3 1120.89 3539.26 1136.41C3462.16 1206.56 3399.85 1253.93 3337.21 1289.98C3258.22 1335.45 3180.72 1360.9 3100.27 1367.78C3048.47 1372.21 2992.62 1364.56 2929.55 1344.41C2873.19 1326.4 2815.85 1300.1 2760.39 1274.66C2734.31 1262.7 2707.34 1250.33 2680.55 1238.83C2597.39 1203.15 2525.74 1178.2 2461.5 1162.57C2388.74 1145.08 2322.71 1139.56 2265.24 1146.16C2241.68 1148.86 2219.49 1153.26 2198.02 1157.51C2166.89 1163.68 2134.71 1170.06 2098.26 1171.23C2016.46 1173.92 1912.76 1141.92 1813.7 1083.43C1770.25 1057.78 1729.59 1029.43 1692.12 1002.61C1687.42 999.241 1682.73 995.866 1678.02 992.487C1639.17 964.565 1598.99 935.692 1557.28 910.624C1448.34 845.343 1349.11 822.043 1262.36 841.369C1151.11 866.151 1074.89 960.203 1027.23 1028.79C1010.95 1052.2 995.564 1076.14 978.573 1102.77C939.497 1164.16 899.092 1227.65 843.9 1279.5C801.102 1319.6 751.101 1350.45 695.289 1371.19C652.141 1387.22 605.338 1397.06 556.177 1400.43C543.442 1401.3 530.626 1401.73 517.777 1401.73Z" stroke="url(#paint7_linear_878_3120)" stroke-miterlimit="10"/>
<path d="M566.589 1424.45C521.641 1424.45 475.663 1418.85 430.507 1407.62C315.282 1378.95 210.762 1321.87 100.106 1261.43C74.7061 1247.56 48.4411 1233.21 21.8071 1219.09C-104.755 1151.93 -287.271 1071.76 -438.045 1071.19L-438.041 1070.19C-287.062 1070.76 -104.385 1151 22.2761 1218.2C48.9161 1232.33 75.1831 1246.68 100.586 1260.55C211.184 1320.96 315.649 1378.02 430.749 1406.65C527.371 1430.68 627.822 1428.88 713.6 1401.57C771.791 1383.04 823.53 1353.29 867.378 1313.12C921.628 1263.31 960.719 1201.67 1002.61 1132.1L1005.46 1127.38C1019.89 1103.47 1034.81 1078.74 1050.08 1055.27C1096.91 983.174 1172.25 884.301 1285.17 858.168C1373.26 837.779 1473.41 862.116 1582.82 930.499C1623.57 956.047 1662.73 985.352 1700.59 1013.69C1706.15 1017.85 1711.7 1022.01 1717.26 1026.16C1754.59 1053.96 1795.15 1083.29 1838.82 1109.51C1939.57 1169.98 2044.52 1199.57 2126.76 1190.7C2163.2 1186.81 2194.76 1176.94 2225.29 1167.4C2246.58 1160.75 2268.6 1153.86 2292.26 1148.98C2349.57 1137.15 2416.53 1138.99 2491.3 1154.44C2557.68 1168.35 2632.51 1193.25 2713.73 1228.42C2745.96 1242.38 2778.2 1257.78 2809.37 1272.67C2919.23 1325.14 3022.99 1374.71 3134.27 1370.14C3316.71 1362.67 3460.34 1263.7 3576.79 1167.86C3605.3 1144.38 3633.78 1120.01 3663.93 1094.2C3771.32 1002.27 3882.37 907.211 4000.86 848.586L4001.3 849.482C3882.92 908.052 3771.92 1003.07 3664.58 1094.96C3634.42 1120.77 3605.94 1145.15 3577.42 1168.63C3501.22 1231.35 3435.68 1275.5 3371.16 1307.58C3291.74 1347.08 3214.27 1367.87 3134.31 1371.14C3129.52 1371.34 3124.72 1371.44 3119.95 1371.44C3013.83 1371.44 2914.19 1323.84 2808.94 1273.57C2777.78 1258.68 2745.55 1243.29 2713.33 1229.34C2632.18 1194.19 2557.41 1169.32 2491.1 1155.42C2416.47 1139.99 2349.64 1138.15 2292.47 1149.96C2268.86 1154.83 2246.86 1161.71 2225.59 1168.36C2195.02 1177.91 2163.41 1187.79 2126.87 1191.7C2083.98 1196.32 2035.43 1190.68 1982.56 1174.92C1934.87 1160.7 1884.98 1138.38 1838.31 1110.36C1794.6 1084.13 1754.01 1054.77 1716.66 1026.96C1711.11 1022.81 1705.55 1018.65 1699.99 1014.49C1662.14 986.163 1623.01 956.871 1582.29 931.346C1473.11 863.107 1373.22 838.814 1285.39 859.141C1172.83 885.193 1097.66 983.864 1050.92 1055.82C1035.66 1079.27 1020.74 1103.99 1006.32 1127.9L1003.47 1132.62C961.536 1202.25 922.403 1263.96 868.055 1313.86C824.098 1354.12 772.234 1383.95 713.904 1402.52C668.046 1417.12 617.994 1424.45 566.589 1424.45Z" stroke="url(#paint8_linear_878_3120)" stroke-miterlimit="10"/>
<path d="M611.697 1449.24C555.953 1449.24 498.411 1440.14 442.608 1422.09C336.676 1387.82 242.399 1329.74 142.589 1268.25C108.144 1247.03 72.5265 1225.08 35.8285 1203.78C-67.1345 1144 -264.895 1045.54 -432.49 1057.76L-432.562 1056.77C-365.066 1051.84 -285.667 1064.68 -196.576 1094.92C-122.714 1119.99 -42.1765 1157.34 36.3305 1202.92C73.0405 1224.23 108.664 1246.17 143.115 1267.4C242.873 1328.85 337.099 1386.9 442.917 1421.14C540.362 1452.66 643.118 1456.84 732.254 1432.88C792.884 1416.59 846.473 1387.85 891.536 1347.48C948.661 1296.17 988.442 1230.45 1027.49 1161.96C1029.99 1157.6 1032.48 1153.23 1034.97 1148.86C1047.53 1126.82 1060.52 1104.04 1073.74 1082.32C1119.6 1006.87 1193.81 903.378 1308.19 875.941C1356.18 864.429 1408.44 866.661 1463.52 882.576C1509.87 895.971 1558.43 919.069 1607.83 951.228C1647.7 977.251 1685.9 1007 1722.85 1035.77C1729.17 1040.7 1735.49 1045.62 1741.81 1050.51C1779.02 1079.31 1819.51 1109.65 1863.43 1136.44C1964.52 1198.09 2073.63 1226.03 2155.3 1211.18C2191.83 1204.57 2222.83 1191.23 2252.81 1178.33C2273.9 1169.25 2295.7 1159.87 2319.41 1152.8C2376.43 1135.78 2444.21 1133.92 2520.86 1147.28C2589.71 1159.47 2665.63 1183.58 2746.51 1218.93C2780.09 1233.6 2813.53 1249.47 2845.86 1264.82C2954.51 1316.39 3057.13 1365.1 3168.38 1373.51C3337.68 1386.32 3483.08 1297.71 3614.99 1200.05C3658.44 1167.87 3701.84 1133.11 3747.8 1096.32C3841.41 1021.36 3938.2 943.852 4036.31 888.824L4036.79 889.696C3938.76 944.683 3842 1022.17 3748.42 1097.1C3702.46 1133.9 3659.05 1168.66 3615.58 1200.85C3492.12 1292.26 3356.83 1375.75 3201.14 1375.75C3190.29 1375.75 3179.35 1375.35 3168.31 1374.51C3056.87 1366.08 2954.17 1317.33 2845.43 1265.72C2813.11 1250.38 2779.68 1234.51 2746.11 1219.85C2665.31 1184.53 2589.46 1160.45 2520.69 1148.27C2444.19 1134.94 2376.57 1136.78 2319.7 1153.75C2296.05 1160.81 2274.27 1170.18 2253.21 1179.25C2223.18 1192.17 2192.12 1205.53 2155.48 1212.16C2112.4 1219.99 2063.17 1216.44 2009.17 1201.6C1960.59 1188.26 1910.02 1166.02 1862.92 1137.29C1818.95 1110.48 1778.43 1080.12 1741.2 1051.3C1734.88 1046.41 1728.56 1041.49 1722.24 1036.56C1685.31 1007.8 1647.12 978.066 1607.29 952.066C1497.91 880.865 1397.35 855.579 1308.42 876.913C1194.41 904.263 1120.37 1007.54 1074.59 1082.84C1061.38 1104.55 1048.4 1127.32 1035.84 1149.36C1033.35 1153.72 1030.86 1158.09 1028.36 1162.46C989.27 1231.02 949.443 1296.81 892.207 1348.22C847.026 1388.7 793.298 1417.51 732.516 1433.85C694.247 1444.13 653.476 1449.24 611.697 1449.24Z" stroke="url(#paint9_linear_878_3120)" stroke-miterlimit="10"/>
<path d="M654.503 1475.48C636.431 1475.48 618.052 1474.48 599.422 1472.46C550.162 1467.12 501.475 1455.04 454.712 1436.56C355.69 1397 268.977 1337.12 177.172 1273.74C136.299 1245.51 94.0329 1216.33 49.8519 1188.48C-32.8911 1136.3 -244.99 1017.79 -426.936 1044.34L-427.08 1043.35C-357.602 1033.21 -276.286 1043.43 -185.389 1073.71C-108.942 1099.18 -27.4121 1138.57 50.3849 1187.63C94.5839 1215.5 136.858 1244.69 177.74 1272.91C269.497 1336.27 356.166 1396.11 455.082 1435.63C553.599 1474.56 658.659 1484.71 750.908 1464.2C813.926 1450.18 869.369 1422.47 915.696 1381.83C975.491 1329.26 1016 1259.14 1052.37 1191.83C1056.12 1184.9 1059.85 1177.96 1063.58 1171.03C1074.55 1150.64 1085.9 1129.55 1097.4 1109.37C1142.24 1030.57 1215.27 922.48 1331.21 893.712C1379.6 881.708 1432.32 884.03 1487.93 900.617C1534.83 914.608 1583.59 938.611 1632.85 971.957C1671.9 998.46 1709.22 1028.67 1745.32 1057.87C1752.33 1063.55 1759.34 1069.23 1766.36 1074.87C1803.44 1104.65 1843.85 1135.99 1888.05 1163.37C1990.95 1227.11 2101.53 1252.64 2183.85 1231.65C2220.48 1222.34 2250.93 1205.54 2280.39 1189.3C2301.24 1177.79 2322.82 1165.89 2346.56 1156.61C2402.52 1134.75 2473.01 1129.05 2550.42 1140.12C2620.45 1150.32 2699.59 1174.29 2779.29 1209.44C2818.78 1226.84 2857.81 1246.13 2895.56 1264.79C2998.61 1315.73 3095.96 1363.84 3202.46 1376.88C3375.08 1398 3527.17 1315.62 3653.19 1232.24C3717.22 1189.86 3783.66 1139.19 3847.92 1090.18C3921.56 1034.01 3997.71 975.936 4071.75 929.062L4072.29 929.907C3998.28 976.759 3922.15 1034.82 3848.52 1090.98C3784.26 1139.99 3717.8 1190.67 3653.74 1233.07C3572 1287.16 3503.67 1323.4 3438.71 1347.12C3356.34 1377.2 3279.02 1387.26 3202.34 1377.87C3095.67 1364.81 2998.25 1316.66 2895.11 1265.69C2857.38 1247.03 2818.35 1227.75 2778.89 1210.35C2699.27 1175.24 2620.22 1151.3 2550.28 1141.11C2473.04 1130.06 2402.72 1135.74 2346.92 1157.55C2323.24 1166.8 2301.7 1178.68 2280.87 1190.17C2251.36 1206.45 2220.85 1223.28 2184.09 1232.62C2140.82 1243.65 2090.91 1242.2 2035.77 1228.29C1986.32 1215.82 1935.05 1193.66 1887.52 1164.22C1843.28 1136.81 1802.84 1105.45 1765.74 1075.65C1758.72 1070 1751.71 1064.33 1744.69 1058.65C1708.61 1029.45 1671.31 999.263 1632.29 972.784C1556.97 921.791 1443.63 866.846 1331.45 894.682C1215.89 923.357 1143.02 1031.22 1098.27 1109.86C1086.78 1130.03 1075.43 1151.11 1064.46 1171.51C1060.73 1178.44 1057 1185.37 1053.25 1192.3C1016.84 1259.69 976.275 1329.9 916.355 1382.58C869.899 1423.33 814.308 1451.12 751.124 1465.17C720.236 1472.04 687.898 1475.48 654.503 1475.48Z" stroke="url(#paint10_linear_878_3120)" stroke-miterlimit="10"/>
<path d="M693.698 1503.09C667.657 1503.09 640.978 1500.9 613.835 1496.5C563.929 1488.42 513.091 1472.7 466.817 1451.03C373.006 1406.74 292.151 1344.48 206.548 1278.56C160.966 1243.46 113.832 1207.17 63.8743 1173.17C-108.558 1055.8 -289.963 1002.62 -421.387 1030.91L-421.598 1029.93C-350.202 1014.56 -266.969 1022.16 -174.204 1052.5C-95.4037 1078.27 -12.8837 1119.72 64.4363 1172.35C114.418 1206.36 161.564 1242.66 207.158 1277.77C292.717 1343.65 373.531 1405.88 467.243 1450.13C564.923 1495.86 675.112 1512.4 769.559 1495.51C834.923 1483.82 892.219 1457.13 939.853 1416.18C1002.2 1362.48 1041.91 1290.66 1077.25 1221.69C1082.03 1212.38 1086.84 1202.89 1091.49 1193.72C1101.1 1174.79 1111.03 1155.21 1121.06 1136.42C1164.77 1054.41 1236.5 941.874 1354.24 911.486C1468.44 882.446 1582.39 939.616 1657.87 992.689C1696.19 1019.69 1732.71 1050.38 1768.03 1080.05C1775.66 1086.46 1783.28 1092.87 1790.92 1099.23C1827.88 1130.01 1868.21 1162.35 1912.66 1190.3C1993.51 1241.15 2114.7 1284.09 2212.39 1252.13C2249.14 1240.13 2279.06 1219.89 2308 1200.3C2328.62 1186.35 2349.94 1171.93 2373.71 1160.44C2429.41 1133.51 2500.74 1124.02 2579.98 1132.97C2651.96 1141.26 2732.21 1164.42 2812.07 1199.94C2857.09 1219.96 2901.25 1242.72 2943.97 1264.74C3041.93 1315.24 3134.46 1362.93 3236.54 1380.25C3374.65 1403.68 3514.93 1367.96 3691.4 1264.43C3786.56 1208.59 3883.04 1136.09 3976.34 1065.97C4021.68 1031.9 4064.5 999.713 4107.2 969.307L4107.78 970.121C4065.09 1000.52 4022.28 1032.7 3976.94 1066.77C3883.62 1136.9 3787.11 1209.43 3691.9 1265.3C3611.44 1312.5 3539.67 1344.96 3472.49 1364.53C3389.63 1388.67 3312.4 1394.13 3236.37 1381.24C3134.14 1363.89 3041.54 1316.16 2943.51 1265.63C2900.81 1243.62 2856.65 1220.86 2811.67 1200.86C2731.9 1165.38 2651.74 1142.24 2579.86 1133.96C2500.81 1125.03 2429.68 1134.5 2374.14 1161.34C2350.44 1172.8 2329.15 1187.2 2308.56 1201.13C2279.56 1220.75 2249.58 1241.04 2212.7 1253.08C2169.84 1267.11 2117.86 1267.76 2062.37 1254.98C2012.04 1243.38 1960.09 1221.31 1912.13 1191.15C1867.63 1163.17 1827.27 1130.8 1790.28 1100C1782.64 1093.64 1775.02 1087.23 1767.39 1080.82C1732.08 1051.16 1695.58 1020.49 1657.3 993.508C1581.99 940.557 1468.32 883.508 1354.48 912.457C1237.13 942.745 1165.56 1055.05 1121.94 1136.89C1111.92 1155.67 1101.99 1175.25 1092.38 1194.18C1087.73 1203.35 1082.92 1212.83 1078.14 1222.15C1042.76 1291.2 1002.99 1363.12 940.506 1416.94C892.733 1458.01 835.278 1484.78 769.736 1496.5C745.154 1500.9 719.746 1503.09 693.698 1503.09Z" stroke="url(#paint11_linear_878_3120)" stroke-miterlimit="10"/>
<path d="M731.02 1531.66C647.791 1531.66 558.636 1508.58 478.927 1465.5C389.008 1416.6 312.667 1351.48 231.845 1282.54C182.888 1240.77 132.264 1197.59 77.8986 1157.87C-55.5084 1060.38 -255.27 972.307 -415.838 1017.48L-416.109 1016.52C-378.363 1005.9 -336.735 1002.09 -292.379 1005.21C-251.441 1008.09 -207.917 1016.86 -163.016 1031.29C-81.9994 1057.32 1.51162 1100.81 78.4886 1157.06C132.884 1196.8 183.523 1240 232.494 1281.78C313.276 1350.69 389.577 1415.77 479.403 1464.62C577.604 1517.69 690.16 1540.37 788.212 1526.83C855.89 1517.49 915.038 1491.82 964.013 1450.54C1028.8 1395.84 1069.27 1319.15 1102.12 1251.56C1107.76 1239.99 1113.39 1228.21 1118.84 1216.81C1127.26 1199.2 1135.96 1180.99 1144.72 1163.47C1174.86 1103.11 1205.45 1056.02 1238.23 1019.53C1279.99 973.049 1326.76 942.679 1377.26 929.263C1426.48 916.347 1480.15 918.874 1536.78 936.775C1584.83 951.965 1633.99 977.753 1682.89 1013.42C1720.52 1040.93 1756.3 1072.1 1790.89 1102.25C1798.94 1109.26 1807.26 1116.51 1815.47 1123.59C1852.31 1155.37 1892.56 1188.7 1937.27 1217.24C2019.53 1269.73 2142.49 1311.85 2240.93 1272.62C2277.81 1257.94 2307.21 1234.25 2335.65 1211.35C2356.02 1194.94 2377.08 1177.97 2400.86 1164.27C2429.56 1147.73 2462.57 1136.13 2498.96 1129.8C2533.08 1123.86 2570.29 1122.52 2609.54 1125.81C2683.33 1132.15 2764.7 1154.5 2844.85 1190.46C2895.12 1213 2944.07 1239.33 2991.41 1264.8C3084.67 1314.97 3172.76 1362.35 3270.62 1383.63C3407.87 1413.46 3558.01 1385.01 3729.6 1296.63C3869.33 1224.65 4010.27 1115.34 4142.65 1009.56L4143.27 1010.34C4010.85 1116.16 3869.87 1225.5 3730.06 1297.52C3649.73 1338.89 3576.54 1366.48 3506.3 1381.87C3423.04 1400.12 3345.88 1401.01 3270.4 1384.6C3172.41 1363.3 3084.26 1315.88 2990.94 1265.68C2943.61 1240.22 2894.67 1213.89 2844.44 1191.37C2764.39 1155.46 2683.14 1133.14 2609.45 1126.81C2528.6 1120.02 2456.64 1133.28 2401.36 1165.13C2377.64 1178.8 2356.61 1195.74 2336.28 1212.12C2307.78 1235.08 2278.32 1258.81 2241.3 1273.54C2214.23 1284.33 2185.3 1289 2155.89 1289C2077.98 1289 1996.6 1256.29 1936.73 1218.08C1891.97 1189.51 1851.68 1156.15 1814.81 1124.35C1806.61 1117.27 1798.28 1110.01 1790.23 1103C1755.65 1072.87 1719.9 1041.71 1682.3 1014.23C1606.87 959.215 1492.78 899.982 1377.51 930.229C1258.45 961.86 1188.14 1078.75 1145.62 1163.92C1136.86 1181.43 1128.16 1199.64 1119.74 1217.24C1114.29 1228.64 1108.66 1240.43 1103.02 1251.99C1070.12 1319.68 1029.59 1396.48 964.657 1451.3C915.535 1492.71 856.216 1518.45 788.348 1527.82C769.698 1530.4 750.52 1531.66 731.02 1531.66Z" stroke="url(#paint12_linear_878_3120)" stroke-miterlimit="10"/>
<path d="M765.863 1561.16C726.008 1561.16 684.734 1555.62 642.664 1544.6C590.053 1530.82 537.621 1508.47 491.036 1479.97C404.024 1426.51 331.226 1358.14 254.153 1285.77C202.791 1237.53 149.679 1187.66 91.9229 1142.57C-41.8911 1038.08 -244.097 946.817 -410.295 1004.05L-410.621 1003.11C-244.042 945.739 -41.4821 1037.12 92.5379 1141.78C150.331 1186.9 203.459 1236.79 254.837 1285.04C331.872 1357.38 404.634 1425.71 491.559 1479.12C590.227 1539.48 705.153 1568.28 806.861 1558.15C876.825 1551.18 937.826 1526.53 988.169 1484.89C1048.55 1434.89 1087.34 1367.39 1127 1281.42C1133.33 1267.73 1139.61 1253.77 1145.69 1240.28C1153.08 1223.86 1160.72 1206.89 1168.38 1190.52C1197.64 1127.98 1227.72 1079.12 1260.33 1041.15C1301.94 992.693 1349.03 961.028 1400.28 947.036C1449.9 933.615 1504.04 936.232 1561.19 954.811C1609.79 970.609 1659.15 997.303 1707.9 1034.15C1744.92 1062.17 1780.02 1093.86 1813.96 1124.51C1822.49 1132.21 1831.31 1140.18 1840.02 1147.95C1876.74 1180.72 1916.91 1215.05 1961.89 1244.17C2045.54 1298.33 2170.28 1339.63 2269.48 1293.09C2306.4 1275.79 2335.21 1248.74 2363.07 1222.57C2383.25 1203.62 2404.11 1184.03 2428.02 1168.09C2456.58 1148.89 2489.79 1135 2526.76 1126.8C2561.2 1119.15 2599 1116.41 2639.1 1118.66C2714.62 1122.99 2797.11 1144.54 2877.63 1180.96C2932.96 1205.98 2986.46 1236.02 3038.19 1265.07C3127.03 1314.96 3210.95 1362.09 3304.69 1386.99C3443.17 1423.79 3598.99 1404.22 3767.81 1328.83C3930.48 1256.16 4080.71 1136.98 4178.1 1049.8L4178.76 1050.54C4081.33 1137.77 3931.01 1257.02 3768.22 1329.74C3689.09 1365.08 3612.35 1388.43 3540.15 1399.15C3457.75 1411.39 3378.44 1407.63 3304.44 1387.96C3210.57 1363.02 3126.6 1315.87 3037.7 1265.94C2985.99 1236.9 2932.51 1206.88 2877.22 1181.87C2796.8 1145.5 2714.44 1123.98 2639.04 1119.65C2556.17 1115.02 2483.4 1132.06 2428.58 1168.92C2404.73 1184.82 2383.9 1204.38 2363.76 1223.3C2335.84 1249.52 2306.97 1276.63 2269.91 1294C2226.66 1314.29 2173.29 1319.25 2115.58 1308.35C2063.49 1298.51 2010.15 1276.61 1961.34 1245.01C1916.32 1215.85 1876.1 1181.49 1839.35 1148.7C1830.65 1140.92 1821.82 1132.96 1813.29 1125.25C1779.37 1094.62 1744.29 1062.95 1707.3 1034.95C1645.47 988.216 1523.4 914.774 1400.55 948.001C1279.71 980.991 1210.69 1102.45 1169.29 1190.94C1161.63 1207.31 1153.99 1224.28 1146.6 1240.69C1140.52 1254.19 1134.24 1268.15 1127.91 1281.84C1088.19 1367.93 1049.34 1435.53 988.809 1485.66C938.309 1527.43 877.128 1552.15 806.963 1559.14C793.452 1560.49 779.743 1561.16 765.863 1561.16Z" stroke="url(#paint13_linear_878_3120)" stroke-miterlimit="10"/>
<path d="M799.165 1591.32C753.321 1591.32 705.651 1583.75 657.083 1568.73C603.171 1552.05 549.942 1526.37 503.15 1494.44C418.298 1436.39 345.06 1361.12 274.235 1288.33C221.187 1233.81 166.333 1177.43 105.95 1127.26C-22.2059 1020.76 -232.855 921.075 -404.752 990.62L-405.127 989.693C-365.584 973.695 -321.979 965.835 -275.557 966.35C-232.673 966.82 -187.281 974.396 -140.642 988.87C-56.6399 1014.94 31.1631 1063.81 106.591 1126.49C167.014 1176.7 221.887 1233.1 274.953 1287.63C349.003 1363.74 418.946 1435.62 503.715 1493.62C601.58 1560.38 721.878 1596.22 825.512 1589.47C897.583 1585.02 960.437 1561.39 1012.33 1519.25C1078.45 1465.51 1118.48 1387.54 1151.88 1311.28C1158.78 1295.57 1165.57 1279.54 1172.14 1264.02C1178.63 1248.71 1185.33 1232.88 1192.05 1217.57C1220.41 1152.87 1249.97 1102.24 1282.42 1062.78C1323.9 1012.34 1371.3 979.382 1423.31 964.811C1548.13 930.071 1670.87 1006.33 1732.92 1054.89C1769.37 1083.43 1803.82 1115.63 1837.14 1146.78C1846.12 1155.17 1855.4 1163.85 1864.57 1172.31C1901.17 1206.07 1941.27 1241.41 1986.5 1271.1C2067.67 1324.4 2197.96 1367.5 2298.04 1313.58C2335.13 1293.6 2363.46 1263.11 2390.86 1233.62C2410.74 1212.22 2431.3 1190.09 2455.19 1171.92C2483.68 1150.11 2517.13 1133.94 2554.59 1123.86C2589.43 1114.48 2627.81 1110.33 2668.66 1111.5C2744.74 1113.77 2830.6 1135.07 2910.42 1171.47C2970.7 1198.96 3028.57 1232.88 3084.53 1265.68C3165.44 1313.11 3249.1 1362.16 3338.77 1390.37C3480.62 1435 3637.83 1425.13 3806.02 1361.02C3948.73 1306.62 4093.46 1210.38 4213.54 1090.05L4214.25 1090.75C4094.07 1211.19 3949.21 1307.51 3806.37 1361.96C3727.25 1392.11 3649.08 1410.43 3574.05 1416.39C3555.95 1417.82 3537.99 1418.54 3520.24 1418.54C3456.96 1418.54 3396.03 1409.43 3338.47 1391.32C3248.69 1363.08 3164.98 1314 3084.02 1266.55C3028.08 1233.75 2970.24 1199.84 2910 1172.38C2830.3 1136.04 2744.58 1114.77 2668.63 1112.5C2584.05 1110.06 2510.46 1130.88 2455.79 1172.71C2431.98 1190.84 2411.45 1212.93 2391.59 1234.3C2364.14 1263.85 2335.75 1294.4 2298.51 1314.46C2255.07 1337.86 2201.01 1344.98 2142.18 1335.04C2089.97 1326.21 2034.48 1303.8 1985.95 1271.94C1940.67 1242.2 1900.52 1206.84 1863.89 1173.05C1854.72 1164.58 1845.43 1155.9 1836.46 1147.51C1803.15 1116.38 1768.71 1084.19 1732.31 1055.67C1670.4 1007.24 1547.97 931.149 1423.57 965.773C1300.9 1000.14 1233.21 1126.16 1192.96 1217.97C1186.25 1233.27 1179.55 1249.1 1173.06 1264.41C1166.49 1279.93 1159.69 1295.97 1152.8 1311.68C1119.34 1388.05 1079.24 1466.14 1012.96 1520.02C960.902 1562.3 897.857 1586 825.576 1590.47C816.845 1591.04 808.039 1591.32 799.165 1591.32Z" stroke="url(#paint14_linear_878_3120)" stroke-miterlimit="10"/>
<path d="M832 1621.97C780.237 1621.97 726.308 1612.16 671.494 1592.75C616.199 1573.17 562.177 1544.18 515.266 1508.91C432 1446.22 361.152 1366.95 292.637 1290.3C238.442 1229.66 182.403 1166.96 119.978 1111.96C-8.69685 998.575 -221.879 895.246 -399.214 977.188L-399.633 976.28C-359.196 957.595 -314.621 947.716 -267.145 946.919C-223.297 946.189 -176.971 953.161 -129.456 967.659C-43.4498 993.902 45.3682 1044.88 120.639 1111.21C183.108 1166.25 239.168 1228.97 293.382 1289.63C361.866 1366.25 432.68 1445.48 515.867 1508.11C614.006 1581.9 736.733 1624.01 844.162 1620.79C918.557 1618.68 983.264 1596.07 1036.49 1553.6C1104.73 1499.13 1144.24 1419.3 1176.76 1341.15C1184.12 1323.49 1191.3 1305.45 1198.25 1288C1203.94 1273.71 1209.83 1258.93 1215.71 1244.61C1243.16 1177.78 1272.21 1125.37 1304.51 1084.4C1345.84 1031.99 1393.56 997.733 1446.33 982.583C1496.75 968.158 1551.82 970.952 1610.02 990.886C1659.03 1007.67 1710.18 1036.97 1757.94 1075.62C1793.85 1104.69 1827.71 1137.43 1860.45 1169.09C1869.83 1178.15 1879.53 1187.53 1889.12 1196.67C1925.6 1231.42 1965.62 1267.75 2011.11 1298.03C2093.62 1352.95 2225.75 1395.34 2326.59 1334.06C2363.87 1311.41 2391.72 1277.48 2418.66 1244.67C2438.25 1220.81 2458.5 1196.15 2482.35 1175.74C2510.79 1151.33 2544.46 1132.89 2582.43 1120.91C2617.64 1109.81 2656.61 1104.19 2698.22 1104.35C2775.88 1104.59 2862.88 1125.06 2943.2 1161.98C3008.4 1191.94 3070.55 1229.97 3130.65 1266.74C3207.66 1313.86 3287.29 1362.58 3372.85 1393.74C3516.2 1445.96 3679.2 1445.77 3844.23 1393.22C3997.63 1344.36 4141.38 1250.98 4249 1130.29L4249.74 1130.96C4142.01 1251.78 3998.1 1345.26 3844.53 1394.17C3765.31 1419.4 3685.73 1432.66 3608 1433.58C3525.29 1434.56 3446.05 1421.47 3372.51 1394.68C3286.85 1363.49 3207.18 1314.74 3130.13 1267.59C3070.05 1230.84 3007.93 1192.83 2942.78 1162.88C2862.59 1126.03 2775.74 1105.59 2698.22 1105.35C2697.82 1105.35 2697.41 1105.34 2697.02 1105.34C2611.24 1105.34 2537.26 1129.94 2483 1176.5C2459.22 1196.85 2438.99 1221.48 2419.44 1245.3C2392.44 1278.18 2364.53 1312.18 2327.11 1334.91C2283.47 1361.43 2228.72 1370.7 2168.79 1361.72C2115.7 1353.77 2059.51 1331.45 2010.56 1298.87C1965 1268.55 1924.94 1232.18 1888.43 1197.39C1878.84 1188.25 1869.14 1178.87 1859.76 1169.81C1827.03 1138.16 1793.19 1105.44 1757.31 1076.39C1695.34 1026.25 1572.56 947.508 1446.61 983.545C1351.79 1010.76 1278.71 1093.84 1216.64 1244.99C1210.76 1259.31 1204.87 1274.08 1199.18 1288.37C1192.23 1305.82 1185.04 1323.87 1177.69 1341.53C1145.11 1419.81 1105.53 1499.77 1037.11 1554.38C983.714 1596.99 918.807 1619.67 844.191 1621.79C840.142 1621.91 836.077 1621.97 832 1621.97Z" stroke="url(#paint15_linear_878_3120)" stroke-miterlimit="10"/>
<path d="M864.061 1653.06C746.058 1653.07 620.862 1600.1 527.382 1523.38C445.255 1455.98 376.368 1372.47 309.749 1291.72C254.819 1225.13 198.02 1156.27 134.005 1096.65C4.77525 976.295 -210.964 869.273 -393.677 963.757L-394.137 962.869C-352.809 941.498 -307.254 929.594 -258.735 927.49C-213.923 925.544 -166.667 931.924 -118.271 946.449C-30.2917 972.854 59.5423 1025.94 134.685 1095.92C198.748 1155.59 255.568 1224.47 310.518 1291.08C377.107 1371.8 445.964 1455.27 528.015 1522.61C677.596 1645.37 908.582 1707.23 1060.64 1587.96C1145.9 1521.08 1185.64 1414.89 1224.06 1312.2C1229.06 1298.85 1234.22 1285.05 1239.37 1271.66C1265.89 1202.7 1294.43 1148.52 1326.61 1106.02C1367.78 1051.64 1415.81 1016.09 1469.35 1000.36C1520.17 985.429 1575.71 988.311 1634.43 1008.92C1683.99 1026.32 1735.35 1056.55 1782.95 1096.35C1818.37 1125.96 1851.67 1159.23 1883.88 1191.42C1930.99 1238.5 1979.7 1287.18 2035.72 1324.97C2119.57 1381.52 2253.54 1423.2 2355.14 1354.54C2392.61 1329.22 2419.99 1291.86 2446.48 1255.73C2465.76 1229.42 2485.7 1202.21 2509.51 1179.56C2538.31 1152.17 2572.77 1131.24 2611.93 1117.38C2648.14 1104.56 2688.36 1097.74 2731.46 1097.12C2809.67 1096 2896.48 1115.66 2975.97 1152.48C3046.11 1184.97 3112.51 1227.37 3176.74 1268.37C3249.9 1315.09 3325.56 1363.39 3406.92 1397.12C3705.71 1520.97 4082.97 1423.56 4284.44 1170.54L4285.23 1171.16C4187.43 1293.97 4044.41 1384.63 3882.5 1426.43C3720.6 1468.24 3551.56 1458.15 3406.54 1398.04C3325.1 1364.28 3249.4 1315.95 3176.2 1269.21C3112 1228.23 3045.62 1185.85 2975.55 1153.39C2839.95 1090.58 2636.71 1059.94 2510.2 1180.29C2486.45 1202.87 2466.54 1230.04 2447.28 1256.32C2420.74 1292.52 2393.31 1329.95 2355.7 1355.37C2311.86 1384.99 2256.43 1396.42 2195.38 1388.41C2141.43 1381.33 2084.52 1359.09 2035.16 1325.8C1979.06 1287.95 1930.31 1239.24 1883.17 1192.12C1850.98 1159.96 1817.69 1126.69 1782.31 1097.11C1676.74 1008.87 1562.78 973.953 1469.63 1001.32C1374.64 1029.22 1299.63 1117.77 1240.3 1272.02C1235.16 1285.4 1229.99 1299.2 1225 1312.55C1186.52 1415.37 1146.74 1521.69 1061.26 1588.74C1003.88 1633.76 935.269 1653.05 864.061 1653.06Z" stroke="url(#paint16_linear_878_3120)" stroke-miterlimit="10"/>
</g>
<mask id="mask1_878_3120" style="mask-type:luminance" maskUnits="userSpaceOnUse" x="0" y="0" width="3500" height="2000">
<path d="M0.5 0.5H3499.5V1999.5H0.5V0.5Z" fill="white" stroke="white"/>
</mask>
<g mask="url(#mask1_878_3120)">
<path d="M-1213.15 1119.76C-1009.07 907.224 -662.362 906.619 -385.965 1008.72C-109.569 1110.82 263.568 1629.16 531.536 1751.69C799.504 1874.21 996.312 1593.08 1242.67 1431.44C1403.79 1325.73 1505.59 1142.64 1675.04 1050.88C1862.44 949.403 2094.81 980.817 2295.22 1053.28C2495.63 1125.74 2682.25 1235.97 2888.25 1290.54C3305.4 1401.05 3779.85 1253.47 4060.71 925.854" stroke="url(#paint17_linear_878_3120)" stroke-miterlimit="10"/>
<path d="M-1173.25 1160.85C-1021.13 984.786 -771.78 939.798 -536.452 976.712C-484.685 984.78 -433.712 997.191 -384.446 1012.31C-252.954 1052.65 -97.8279 1182.85 56.4581 1324.97C226.712 1481.65 395.466 1651.2 536.177 1719.08C658.515 1778.57 766.751 1761.2 874.308 1709.44C970.823 1663 1068.03 1588.03 1165.78 1511.12C1201.77 1482.81 1237.42 1454.55 1273.62 1428.33C1355.52 1369.21 1420.82 1289.37 1491 1214.31C1558.43 1142.17 1631.1 1076.11 1717.92 1032.4C1901.75 939.824 2124.64 968.356 2318.94 1038.49C2513.16 1108.6 2694.42 1214.47 2894.07 1266.96C3309.54 1375.51 3781.23 1222.65 4053.81 892.406" stroke="url(#paint18_linear_878_3120)" stroke-miterlimit="10"/>
<path d="M-1133.36 1201.95C-996.417 1024.05 -760.879 965.877 -531.916 989.256C-481.51 994.302 -431.604 1004.04 -382.927 1015.89C-251.289 1047.96 -94.5512 1165.64 60.4888 1300.34C231.785 1448.89 400.089 1614.55 540.818 1686.47C664.774 1749.82 774.774 1742.36 886.758 1699.81C988.168 1661.27 1093.45 1592.68 1194.8 1513.37C1232.29 1484.03 1268.41 1453.88 1304.57 1425.22C1386.2 1360.88 1450.06 1275.26 1522.24 1196.92C1591.63 1121.61 1670.06 1056.34 1760.79 1013.91C1940.68 929.782 2154.47 955.893 2342.66 1023.7C2530.69 1091.45 2706.59 1192.96 2899.89 1243.36C3313.67 1349.96 3782.62 1191.82 4046.9 858.953" stroke="url(#paint19_linear_878_3120)" stroke-miterlimit="10"/>
<path d="M-1093.47 1243.05C-971.706 1063.32 -749.979 991.959 -527.382 1001.8C-478.336 1003.83 -429.45 1010.84 -381.411 1019.48C-249.493 1043.2 -91.2768 1148.43 64.5172 1275.72C236.855 1416.13 404.592 1578.17 545.457 1653.87C670.931 1721.3 782.895 1723.6 899.207 1690.18C1005.6 1659.6 1118.87 1597.33 1223.81 1515.61C1262.81 1485.26 1299.4 1453.21 1335.53 1422.11C1416.88 1352.56 1479.29 1261.15 1553.49 1179.54C1624.84 1101.05 1708.89 1036.51 1803.66 995.431C1979.29 919.301 2184.3 943.436 2366.38 1008.91C2548.22 1074.3 2718.66 1171.86 2905.71 1219.78C3317.59 1325.29 3784 1161 4040 825.508" stroke="url(#paint20_linear_878_3120)" stroke-miterlimit="10"/>
<path d="M-1053.57 1284.14C-946.993 1102.58 -739.076 1018.04 -522.844 1014.35C-475.158 1013.35 -427.249 1017.6 -379.89 1023.07C-247.57 1038.33 -87.9983 1131.22 68.5497 1251.09C241.93 1383.37 409.088 1541.81 550.1 1621.26C677.082 1692.8 791.097 1704.92 911.659 1680.54C1023.11 1658 1144.3 1601.98 1252.83 1517.86C1293.33 1486.48 1330.33 1452.47 1366.48 1419C1447.4 1344.08 1508.52 1247.04 1584.73 1162.15C1658.04 1080.49 1747.61 1016.59 1846.54 976.945C2017.6 908.389 2214.12 930.973 2390.1 994.12C2565.75 1057.15 2730.81 1150.45 2911.53 1196.19C3321.67 1299.99 3785.39 1130.17 4033.09 792.057" stroke="url(#paint21_linear_878_3120)" stroke-miterlimit="10"/>
<path d="M-1013.68 1325.24C-922.282 1141.84 -728.135 1044.6 -518.309 1026.89C-471.974 1022.98 -425.015 1024.31 -378.372 1026.65C-245.545 1033.34 -84.7216 1114.02 72.5793 1226.47C247 1350.61 413.565 1505.49 554.74 1588.65C683.218 1664.33 799.347 1686.34 924.109 1670.9C1040.67 1656.49 1169.72 1606.63 1281.84 1520.1C1323.85 1487.71 1361.31 1451.8 1397.43 1415.89C1478.06 1335.75 1537.76 1232.92 1615.98 1144.77C1691.24 1059.93 1786.22 996.56 1889.41 958.459C2055.68 897.07 2243.95 918.51 2413.82 979.328C2583.28 1040.01 2742.96 1129.02 2917.35 1172.6C3325.76 1274.65 3786.77 1099.34 4026.18 758.607" stroke="url(#paint22_linear_878_3120)" stroke-miterlimit="10"/>
<path d="M-973.787 1366.34C-897.569 1181.11 -717.191 1070.73 -513.772 1039.43C-468.788 1032.51 -422.602 1034.03 -376.852 1030.24C-243.882 1019.23 -81.444 1096.81 76.611 1201.85C252.074 1317.85 418.031 1469.2 559.382 1556.04C689.343 1635.89 807.625 1667.85 936.56 1661.27C1058.24 1655.06 1195.14 1611.28 1310.85 1522.35C1354.37 1488.93 1392.3 1451.12 1428.38 1412.78C1508.72 1327.42 1566.99 1218.81 1647.22 1127.38C1724.44 1039.37 1824.73 976.393 1932.29 939.976C2093.56 885.372 2273.78 906.05 2437.54 964.538C2600.81 1022.86 2755.12 1107.58 2923.17 1149.01C3329.86 1249.29 3788.16 1068.52 4019.28 725.158" stroke="url(#paint23_linear_878_3120)" stroke-miterlimit="10"/>
<path d="M-933.895 1407.44C-872.858 1220.37 -706.245 1096.84 -509.237 1051.98C-465.603 1042.04 -420.479 1037.53 -375.334 1033.83C-241.299 1022.85 -78.1685 1079.6 80.6405 1177.22C257.146 1285.09 422.478 1432.94 564.022 1523.44C695.453 1607.47 815.906 1649.45 949.01 1651.64C1075.83 1653.72 1220.56 1615.92 1339.87 1524.6C1384.89 1490.16 1423.28 1450.46 1459.33 1409.68C1539.39 1319.1 1596.23 1204.7 1678.47 1110C1757.65 1018.81 1863.15 956.062 1975.16 921.493C2131.27 873.313 2303.61 893.59 2461.26 949.749C2618.34 1005.71 2767.29 1086.11 2928.99 1125.43C3333.97 1223.89 3789.54 1037.69 4012.37 691.709" stroke="url(#paint24_linear_878_3120)" stroke-miterlimit="10"/>
<path d="M-894.002 1448.53C-848.146 1259.64 -695.298 1122.92 -504.702 1064.52C-462.418 1051.57 -418.204 1044.03 -373.817 1037.41C-239.151 1017.33 -74.893 1062.39 84.67 1152.6C262.217 1252.33 426.911 1396.69 568.662 1490.83C701.548 1579.08 824.175 1631.13 961.459 1642C1093.4 1652.45 1245.98 1620.57 1368.88 1526.84C1415.41 1491.38 1454.27 1449.79 1490.28 1406.57C1570.06 1310.79 1625.46 1190.59 1709.72 1092.61C1790.85 998.251 1901.49 935.536 2018.04 903.011C2168.85 860.919 2333.44 881.131 2484.98 934.961C2635.87 988.565 2779.45 1064.63 2934.81 1101.84C3338.08 1198.44 3790.92 1006.86 4005.46 658.262" stroke="url(#paint25_linear_878_3120)" stroke-miterlimit="10"/>
<path d="M-854.107 1489.63C-823.433 1298.9 -684.355 1148.99 -500.164 1077.07C-459.232 1061.09 -415.936 1050.48 -372.296 1041C-237.032 1011.62 -71.6144 1045.19 88.7026 1127.97C267.292 1219.57 431.331 1360.48 573.306 1458.22C707.632 1550.71 832.425 1612.88 973.912 1632.37C1110.95 1651.25 1271.41 1625.22 1397.9 1529.09C1445.93 1492.61 1485.36 1449.2 1521.23 1403.46C1600.94 1302.64 1654.7 1176.48 1740.96 1075.23C1824.05 977.692 1939.77 914.779 2060.91 884.528C2206.35 848.21 2363.27 868.671 2508.71 920.171C2653.4 971.418 2791.63 1043.12 2940.63 1078.25C3342.22 1172.95 3792.31 976.04 3998.56 624.814" stroke="url(#paint26_linear_878_3120)" stroke-miterlimit="10"/>
<path d="M-814.215 1530.73C-798.722 1338.17 -673.426 1175.02 -495.629 1089.61C-456.051 1070.6 -413.694 1056.87 -370.779 1044.59C-234.987 1005.72 -68.3388 1027.98 92.7312 1103.35C272.361 1186.81 435.731 1324.28 577.944 1425.62C713.695 1522.35 840.638 1594.67 986.36 1622.74C1128.47 1650.1 1296.83 1629.87 1426.91 1531.33C1476.45 1493.83 1516.35 1448.53 1552.18 1400.35C1631.62 1294.32 1683.93 1162.37 1772.21 1057.84C1857.26 957.13 1977.99 893.754 2103.79 866.042C2243.77 835.206 2393.1 856.208 2532.42 905.379C2670.93 954.268 2803.81 1021.59 2946.45 1054.66C3346.36 1147.4 3793.7 945.211 3991.65 591.363" stroke="url(#paint27_linear_878_3120)" stroke-miterlimit="10"/>
<path d="M-774.32 1571.83C-774.009 1377.43 -662.51 1201.04 -491.092 1102.16C-452.871 1080.11 -411.481 1063.21 -369.259 1048.17C-233.041 999.657 -65.0613 1010.77 96.7627 1078.72C277.435 1154.05 440.119 1288.1 582.587 1393.01C719.747 1494.01 848.822 1576.51 998.812 1613.1C1145.95 1649 1322.25 1634.52 1455.93 1533.58C1506.97 1495.06 1547.34 1447.86 1583.13 1397.24C1662.29 1286 1713.16 1148.26 1803.46 1040.46C1890.46 936.572 2016.16 872.422 2146.66 847.56C2281.17 821.934 2422.93 843.749 2556.15 890.591C2688.46 937.123 2815.99 1000.04 2952.27 1031.08C3350.53 1121.79 3795.08 914.387 3984.75 557.916" stroke="url(#paint28_linear_878_3120)" stroke-miterlimit="10"/>
<path d="M-734.427 1612.92C-749.297 1416.7 -651.615 1227.04 -486.556 1114.7C-449.697 1089.61 -409.308 1069.52 -367.74 1051.76C-231.224 993.448 -61.7844 993.563 100.794 1054.1C282.508 1121.29 444.49 1251.93 587.228 1360.4C725.781 1465.69 856.969 1558.38 1011.26 1603.47C1163.41 1647.93 1347.67 1639.17 1484.94 1535.83C1537.49 1496.28 1578.33 1447.19 1614.09 1394.13C1692.97 1277.67 1742.4 1134.15 1834.7 1023.07C1923.66 916.012 2054.3 850.734 2189.54 829.076C2318.57 808.411 2452.76 831.288 2579.87 875.8C2705.99 919.974 2828.18 978.465 2958.09 1007.49C3354.7 1096.1 3796.47 883.559 3977.84 524.465" stroke="url(#paint29_linear_878_3120)" stroke-miterlimit="10"/>
<path d="M-694.534 1654.02C-724.586 1455.96 -640.963 1252.75 -482.021 1127.24C-446.577 1099.05 -407.179 1075.79 -366.222 1055.35C-229.551 987.12 -58.5077 976.354 104.823 1029.47C287.579 1088.53 448.844 1215.78 591.868 1327.79C731.799 1437.39 865.081 1540.27 1023.71 1593.83C1180.82 1646.88 1373.09 1643.82 1513.95 1538.07C1568.01 1497.5 1609.32 1446.52 1645.04 1391.02C1723.65 1269.35 1771.63 1120.03 1865.95 1005.68C1956.87 895.451 2092.44 828.636 2232.41 810.591C2356.01 794.657 2482.58 818.826 2603.59 861.009C2723.52 902.826 2840.38 956.869 2963.91 983.9C3358.89 1070.33 3797.85 852.733 3970.93 491.016" stroke="url(#paint30_linear_878_3120)" stroke-miterlimit="10"/>
<path d="M-654.64 1695.12C-699.873 1495.22 -630.061 1278.83 -477.484 1139.79C-443.401 1108.58 -405.092 1082.05 -364.703 1058.94C-228.028 980.705 -55.231 959.145 108.854 1004.85C292.651 1055.77 452.975 1179.9 596.509 1295.19C737.594 1409.35 873.16 1522.18 1036.16 1584.2C1198.21 1645.85 1398.52 1648.47 1542.97 1540.32C1598.53 1498.73 1640.32 1445.85 1675.99 1387.91C1754.33 1261.03 1800.87 1105.92 1897.19 988.299C1990.07 874.89 2130.6 806.074 2275.28 792.106C2393.51 780.692 2512.41 806.364 2627.31 846.218C2741.05 885.677 2852.57 935.25 2969.72 960.311C3363.1 1044.46 3799.24 821.906 3964.02 457.566" stroke="url(#paint31_linear_878_3120)" stroke-miterlimit="10"/>
<path d="M-614.747 1736.22C-675.162 1534.49 -619.159 1304.91 -472.948 1152.33C-440.225 1118.1 -403.05 1088.3 -363.184 1062.52C-226.657 974.232 -51.9538 941.938 112.885 980.222C297.724 1023.01 457.399 1143.65 601.151 1262.58C743.678 1380.95 881.083 1504.4 1048.61 1574.57C1215.44 1645.14 1423.94 1653.12 1571.98 1542.56C1629.05 1499.95 1671.31 1445.18 1706.94 1384.8C1785 1252.71 1830.1 1091.81 1928.44 970.914C2023.27 854.331 2168.81 782.988 2318.16 773.623C2431.13 766.539 2542.24 793.904 2651.03 831.428C2758.58 868.53 2864.81 913.446 2975.55 936.723C3367.46 1017.9 3800.62 791.079 3957.12 424.117" stroke="url(#paint32_linear_878_3120)" stroke-miterlimit="10"/>
<path d="M-574.853 1777.31C-650.449 1573.75 -608.257 1330.99 -468.412 1164.88C-328.566 998.763 -96.5502 915.807 116.916 955.598C302.797 990.247 461.823 1107.4 605.792 1229.97C749.761 1352.55 889.232 1486.03 1061.06 1564.93C1232.9 1643.84 1449.36 1657.76 1601 1544.81C1787.6 1405.81 1813.42 1134.5 1959.69 953.53C2056.47 833.773 2207.11 759.311 2361.03 755.14C2575.36 749.333 2771.24 870.479 2981.36 913.137C3371.6 992.361 3802.01 760.255 3950.21 390.67" stroke="url(#paint33_linear_878_3120)" stroke-miterlimit="10"/>
</g>
<defs>
<linearGradient id="paint0_linear_878_3120" x1="-482.494" y1="946.369" x2="3717.38" y2="946.369" gradientUnits="userSpaceOnUse">
<stop stop-color="#43E29B"/>
<stop offset="1" stop-color="#289062"/>
</linearGradient>
<linearGradient id="paint1_linear_878_3120" x1="-476.945" y1="965.483" x2="3752.86" y2="965.483" gradientUnits="userSpaceOnUse">
<stop stop-color="#43E29B"/>
<stop offset="1" stop-color="#289062"/>
</linearGradient>
<linearGradient id="paint2_linear_878_3120" x1="-471.395" y1="984.946" x2="3788.35" y2="984.946" gradientUnits="userSpaceOnUse">
<stop stop-color="#43E29B"/>
<stop offset="1" stop-color="#289062"/>
</linearGradient>
<linearGradient id="paint3_linear_878_3120" x1="-465.836" y1="1004.79" x2="3823.84" y2="1004.79" gradientUnits="userSpaceOnUse">
<stop stop-color="#43E29B"/>
<stop offset="1" stop-color="#289062"/>
</linearGradient>
<linearGradient id="paint4_linear_878_3120" x1="-460.279" y1="1025.01" x2="3859.33" y2="1025.01" gradientUnits="userSpaceOnUse">
<stop stop-color="#43E29B"/>
<stop offset="1" stop-color="#289062"/>
</linearGradient>
<linearGradient id="paint5_linear_878_3120" x1="-454.721" y1="1046.08" x2="3894.83" y2="1046.08" gradientUnits="userSpaceOnUse">
<stop stop-color="#43E29B"/>
<stop offset="1" stop-color="#289062"/>
</linearGradient>
<linearGradient id="paint6_linear_878_3120" x1="-449.162" y1="1074.79" x2="3930.32" y2="1074.79" gradientUnits="userSpaceOnUse">
<stop stop-color="#43E29B"/>
<stop offset="1" stop-color="#289062"/>
</linearGradient>
<linearGradient id="paint7_linear_878_3120" x1="-443.604" y1="1105.04" x2="3965.81" y2="1105.04" gradientUnits="userSpaceOnUse">
<stop stop-color="#43E29B"/>
<stop offset="1" stop-color="#289062"/>
</linearGradient>
<linearGradient id="paint8_linear_878_3120" x1="-438.045" y1="1136.52" x2="4001.3" y2="1136.52" gradientUnits="userSpaceOnUse">
<stop stop-color="#43E29B"/>
<stop offset="1" stop-color="#289062"/>
</linearGradient>
<linearGradient id="paint9_linear_878_3120" x1="-432.562" y1="1158.97" x2="4036.79" y2="1158.97" gradientUnits="userSpaceOnUse">
<stop stop-color="#43E29B"/>
<stop offset="1" stop-color="#289062"/>
</linearGradient>
<linearGradient id="paint10_linear_878_3120" x1="-427.08" y1="1180.82" x2="4072.29" y2="1180.82" gradientUnits="userSpaceOnUse">
<stop stop-color="#43E29B"/>
<stop offset="1" stop-color="#289062"/>
</linearGradient>
<linearGradient id="paint11_linear_878_3120" x1="-421.598" y1="1203.37" x2="4107.78" y2="1203.37" gradientUnits="userSpaceOnUse">
<stop stop-color="#43E29B"/>
<stop offset="1" stop-color="#289062"/>
</linearGradient>
<linearGradient id="paint12_linear_878_3120" x1="-416.109" y1="1226.41" x2="4143.27" y2="1226.41" gradientUnits="userSpaceOnUse">
<stop stop-color="#43E29B"/>
<stop offset="1" stop-color="#289062"/>
</linearGradient>
<linearGradient id="paint13_linear_878_3120" x1="-410.621" y1="1249.89" x2="4178.76" y2="1249.89" gradientUnits="userSpaceOnUse">
<stop stop-color="#43E29B"/>
<stop offset="1" stop-color="#289062"/>
</linearGradient>
<linearGradient id="paint14_linear_878_3120" x1="-405.127" y1="1273.67" x2="4214.25" y2="1273.67" gradientUnits="userSpaceOnUse">
<stop stop-color="#43E29B"/>
<stop offset="1" stop-color="#289062"/>
</linearGradient>
<linearGradient id="paint15_linear_878_3120" x1="-399.633" y1="1284.42" x2="4249.74" y2="1284.42" gradientUnits="userSpaceOnUse">
<stop stop-color="#43E29B"/>
<stop offset="1" stop-color="#289062"/>
</linearGradient>
<linearGradient id="paint16_linear_878_3120" x1="-394.137" y1="1290.1" x2="4285.23" y2="1290.1" gradientUnits="userSpaceOnUse">
<stop stop-color="#43E29B"/>
<stop offset="1" stop-color="#289062"/>
</linearGradient>
<linearGradient id="paint17_linear_878_3120" x1="-1213.15" y1="1353.8" x2="4060.71" y2="1353.8" gradientUnits="userSpaceOnUse">
<stop stop-color="#43E29B"/>
<stop offset="1" stop-color="#289062"/>
</linearGradient>
<linearGradient id="paint18_linear_878_3120" x1="-1173.25" y1="1324.49" x2="4053.81" y2="1324.49" gradientUnits="userSpaceOnUse">
<stop stop-color="#43E29B"/>
<stop offset="1" stop-color="#289062"/>
</linearGradient>
<linearGradient id="paint19_linear_878_3120" x1="-1133.36" y1="1295.92" x2="4046.9" y2="1295.92" gradientUnits="userSpaceOnUse">
<stop stop-color="#43E29B"/>
<stop offset="1" stop-color="#289062"/>
</linearGradient>
<linearGradient id="paint20_linear_878_3120" x1="-1093.47" y1="1268.38" x2="4040" y2="1268.38" gradientUnits="userSpaceOnUse">
<stop stop-color="#43E29B"/>
<stop offset="1" stop-color="#289062"/>
</linearGradient>
<linearGradient id="paint21_linear_878_3120" x1="-1053.57" y1="1242.03" x2="4033.09" y2="1242.03" gradientUnits="userSpaceOnUse">
<stop stop-color="#43E29B"/>
<stop offset="1" stop-color="#289062"/>
</linearGradient>
<linearGradient id="paint22_linear_878_3120" x1="-1013.68" y1="1217.08" x2="4026.18" y2="1217.08" gradientUnits="userSpaceOnUse">
<stop stop-color="#43E29B"/>
<stop offset="1" stop-color="#289062"/>
</linearGradient>
<linearGradient id="paint23_linear_878_3120" x1="-973.787" y1="1193.63" x2="4019.28" y2="1193.63" gradientUnits="userSpaceOnUse">
<stop stop-color="#43E29B"/>
<stop offset="1" stop-color="#289062"/>
</linearGradient>
<linearGradient id="paint24_linear_878_3120" x1="-933.895" y1="1171.71" x2="4012.37" y2="1171.71" gradientUnits="userSpaceOnUse">
<stop stop-color="#43E29B"/>
<stop offset="1" stop-color="#289062"/>
</linearGradient>
<linearGradient id="paint25_linear_878_3120" x1="-894.002" y1="1151.08" x2="4005.46" y2="1151.08" gradientUnits="userSpaceOnUse">
<stop stop-color="#43E29B"/>
<stop offset="1" stop-color="#289062"/>
</linearGradient>
<linearGradient id="paint26_linear_878_3120" x1="-854.107" y1="1131.46" x2="3998.56" y2="1131.46" gradientUnits="userSpaceOnUse">
<stop stop-color="#43E29B"/>
<stop offset="1" stop-color="#289062"/>
</linearGradient>
<linearGradient id="paint27_linear_878_3120" x1="-814.215" y1="1112.63" x2="3991.65" y2="1112.63" gradientUnits="userSpaceOnUse">
<stop stop-color="#43E29B"/>
<stop offset="1" stop-color="#289062"/>
</linearGradient>
<linearGradient id="paint28_linear_878_3120" x1="-774.32" y1="1094.41" x2="3984.75" y2="1094.41" gradientUnits="userSpaceOnUse">
<stop stop-color="#43E29B"/>
<stop offset="1" stop-color="#289062"/>
</linearGradient>
<linearGradient id="paint29_linear_878_3120" x1="-735.914" y1="1076.67" x2="3977.84" y2="1076.67" gradientUnits="userSpaceOnUse">
<stop stop-color="#43E29B"/>
<stop offset="1" stop-color="#289062"/>
</linearGradient>
<linearGradient id="paint30_linear_878_3120" x1="-700.584" y1="1072.52" x2="3970.93" y2="1072.52" gradientUnits="userSpaceOnUse">
<stop stop-color="#43E29B"/>
<stop offset="1" stop-color="#289062"/>
</linearGradient>
<linearGradient id="paint31_linear_878_3120" x1="-668.234" y1="1076.34" x2="3964.02" y2="1076.34" gradientUnits="userSpaceOnUse">
<stop stop-color="#43E29B"/>
<stop offset="1" stop-color="#289062"/>
</linearGradient>
<linearGradient id="paint32_linear_878_3120" x1="-638.74" y1="1080.17" x2="3957.12" y2="1080.17" gradientUnits="userSpaceOnUse">
<stop stop-color="#43E29B"/>
<stop offset="1" stop-color="#289062"/>
</linearGradient>
<linearGradient id="paint33_linear_878_3120" x1="-611.936" y1="1083.99" x2="3950.21" y2="1083.99" gradientUnits="userSpaceOnUse">
<stop stop-color="#43E29B"/>
<stop offset="1" stop-color="#289062"/>
</linearGradient>
</defs>
</svg>
