<svg width="2225" height="1697" viewBox="0 0 2225 1697" fill="none" xmlns="http://www.w3.org/2000/svg">
<path d="M2215.41 363.089L2217.4 362.891C2229.65 485.256 2225.96 609.555 2206.45 732.335C2186.93 855.114 2151.9 974.43 2102.31 1086.97C2076.7 1145.1 2039.79 1218.83 1981.18 1273.37C1921.18 1329.21 1844.74 1356.04 1776.71 1345.14C1744.66 1340.01 1713.14 1326.65 1683.02 1305.43C1656.46 1286.72 1631.54 1262.36 1608.96 1233.03C1579.24 1194.44 1555.5 1150.92 1532.54 1108.83C1523.1 1091.53 1513.34 1073.64 1503.3 1056.34C1424.03 919.741 1314.35 798.803 1186.12 706.599C1117.22 657.055 1017.58 607.095 934.102 650.465C883.064 676.982 854.177 732.889 836.888 772.635C799.696 858.138 777.99 952.123 756.998 1043.02C740.902 1112.71 724.258 1184.78 700.809 1251.84C674.521 1327.03 642.17 1388.11 601.908 1438.58C569.401 1479.33 529.531 1515.78 483.404 1546.91C441.586 1575.13 393.16 1599.96 339.473 1620.7C251.824 1654.55 149.378 1678.61 17.0709 1696.4L16.8049 1694.42C214.185 1667.88 458.889 1614.67 600.346 1437.33C689.767 1325.23 722.955 1181.53 755.05 1042.56C776.061 951.584 797.789 857.507 835.054 771.837C852.465 731.812 881.579 675.5 933.181 648.689C947.1 641.457 961.964 636.577 977.694 634.055C1003.83 629.863 1032.37 632.178 1063.03 641.015C1102.13 652.284 1143.94 673.803 1187.29 704.975C1315.74 797.342 1425.61 918.494 1505.03 1055.33C1515.08 1072.65 1524.85 1090.56 1534.3 1107.87C1557.22 1149.89 1580.92 1193.34 1610.55 1231.81C1644.48 1275.88 1700.91 1330.97 1777.03 1343.17C1844.46 1353.97 1920.27 1327.32 1979.82 1271.9C2038.16 1217.61 2074.95 1144.12 2100.48 1086.16C2200.33 859.537 2240.07 609.503 2215.41 363.089Z" fill="url(#paint0_linear_877_1214)"/>
<path d="M2214.13 349.684L2216.12 349.552C2223.9 467.882 2216.45 588.795 2193.97 708.934C2171.52 828.931 2134.45 946.199 2083.79 1057.48C2071.68 1084.09 2060.27 1106.94 2048.9 1127.34C2022.32 1175.08 1994.04 1212.79 1962.46 1242.63C1903.45 1298.38 1828.53 1326.63 1762.05 1318.22C1730.8 1314.26 1700.04 1302.47 1670.62 1283.16C1644.77 1266.19 1620.46 1243.83 1598.38 1216.7C1569.06 1180.69 1545.75 1139.91 1523.21 1100.48C1514.32 1084.91 1505.12 1068.81 1495.69 1053.26C1489.4 1042.89 1482.84 1032.48 1476.18 1022.31C1421.58 938.983 1355.77 864.546 1280.57 801.068C1251.72 776.693 1220.75 753.413 1188.54 731.873C1144.69 702.642 1078.73 667.489 1013.54 666.027C986.231 665.403 960.974 670.764 938.472 681.956C887.63 707.232 857.906 760.178 839.971 797.803C833.704 810.955 827.59 824.853 821.797 839.112C793.805 907.87 774.526 981.327 755.88 1052.36C748.278 1081.33 740.416 1111.28 732.095 1140.39C714.59 1201.79 698.308 1247.89 679.304 1289.85C655.694 1341.98 628.275 1386.03 595.483 1424.52C532.723 1498.07 446.048 1555.51 330.503 1600.12C244.439 1633.34 141.767 1659.85 16.6199 1681.14L16.2839 1679.17C141.298 1657.9 243.844 1631.43 329.782 1598.25C445.008 1553.77 531.422 1496.52 593.961 1423.22C667.152 1337.33 702.681 1236.26 730.172 1139.85C738.488 1110.75 746.346 1080.81 753.947 1051.86C772.608 980.757 791.905 907.237 819.946 838.358C825.754 824.064 831.885 810.13 838.168 796.943C856.23 759.049 886.188 705.717 937.584 680.166C960.378 668.826 985.948 663.396 1013.59 664.028C1079.26 665.501 1145.58 700.831 1189.65 730.211C1221.93 751.792 1252.95 775.118 1281.86 799.54C1357.21 863.143 1423.15 937.725 1477.85 1021.21C1484.52 1031.4 1491.1 1041.83 1497.4 1052.22C1506.84 1067.8 1516.05 1083.91 1524.95 1099.48C1547.45 1138.85 1570.71 1179.55 1599.93 1215.44C1633.15 1256.25 1688.28 1306.86 1762.3 1316.23C1828.2 1324.58 1902.51 1296.51 1961.09 1241.17C1992.52 1211.48 2020.67 1173.93 2047.16 1126.37C2058.49 1106.01 2069.88 1083.21 2081.97 1056.65C2184.08 832.348 2229.78 587.882 2214.13 349.684Z" fill="url(#paint1_linear_877_1214)"/>
<path d="M2212.85 336.274L2214.85 336.217C2218.16 450.507 2206.93 568.035 2181.49 685.534C2156.11 802.744 2117.01 917.963 2065.28 1027.99C2052.87 1054.38 2041.29 1076.99 2029.88 1097.12C2003.05 1144.49 1974.87 1182.03 1943.74 1211.89C1916.37 1238.14 1884.63 1259.34 1851.96 1273.2C1816.36 1288.29 1781.19 1294.38 1747.4 1291.29C1674.82 1284.67 1620.55 1238.2 1587.8 1200.38C1558.89 1167 1536.02 1129.01 1513.91 1092.28C1505.55 1078.4 1496.91 1064.04 1488.08 1050.18C1482.02 1040.66 1475.7 1031.1 1469.28 1021.76C1416.13 944.399 1352.75 876.457 1280.89 819.823C1253.15 797.919 1222.9 776.833 1190.96 757.15C1127.85 718.501 1069.56 698.58 1017.7 697.941C990.439 697.584 965.252 702.8 942.847 713.449C892.221 737.481 861.649 787.467 843.057 822.975C836.562 835.391 830.229 848.454 824.237 861.8C795.13 926.377 774.612 995.146 754.772 1061.65C746.698 1088.71 738.35 1116.7 729.564 1143.9C711.372 1200.51 693.876 1244.99 674.506 1283.88C650.171 1332.74 622.221 1374.14 589.059 1410.45C526.709 1478.56 439.768 1533.65 323.265 1578.87C237.704 1612.09 137.253 1640.55 16.1739 1665.88L15.7649 1663.92C136.736 1638.61 237.083 1610.18 322.541 1577.01C438.75 1531.9 525.447 1476.98 587.584 1409.1C661.893 1327.73 700.094 1229.07 727.662 1143.29C736.441 1116.11 744.786 1088.13 752.856 1061.08C772.715 994.513 793.252 925.678 822.414 860.981C828.422 847.599 834.772 834.5 841.285 822.049C860.011 786.286 890.823 735.932 941.99 711.643C964.673 700.862 990.155 695.579 1017.72 695.942C1069.95 696.586 1128.59 716.606 1192.01 755.447C1224.01 775.172 1254.33 796.303 1282.13 818.254C1354.15 875.013 1417.67 943.102 1470.93 1020.63C1477.36 1029.99 1483.7 1039.57 1489.77 1049.11C1498.61 1062.99 1507.26 1077.36 1515.62 1091.26C1537.69 1127.91 1560.51 1165.82 1589.31 1199.07C1621.82 1236.61 1675.67 1282.74 1747.58 1289.3C1811.93 1295.18 1884.74 1265.7 1942.36 1210.45C1973.34 1180.73 2001.41 1143.34 2028.14 1096.13C2039.52 1076.05 2051.08 1053.48 2063.47 1027.14C2167.85 805.142 2219.51 566.245 2212.85 336.274Z" fill="url(#paint2_linear_877_1214)"/>
<path d="M2211.57 322.862L2213.57 322.884C2212.42 433.132 2197.43 547.273 2169.01 662.136C2140.71 776.552 2099.58 889.722 2046.76 998.501C2033.87 1025.04 2022.46 1046.77 2010.86 1066.89C1983.77 1113.91 1955.69 1151.28 1925.02 1181.15C1898.03 1207.43 1866.85 1228.96 1834.85 1243.4C1800.07 1259.1 1765.72 1266.16 1732.74 1264.37C1662.29 1260.55 1609.29 1218.59 1577.22 1184.06C1548.72 1153.36 1526.3 1118.24 1504.62 1084.27C1496.79 1072.01 1488.7 1059.34 1480.47 1047.1C1474.62 1038.41 1468.54 1029.7 1462.38 1021.22C1410.75 950.005 1349.8 888.558 1281.22 838.581C1254.07 818.736 1224.52 799.844 1193.38 782.426C1132.09 748.143 1072.78 729.965 1021.85 729.854C994.628 729.763 969.518 734.84 947.22 744.943C897.398 767.472 867.029 811.932 846.137 848.149C839.403 859.839 832.854 872.067 826.673 884.493C796.456 944.868 774.707 1008.93 753.675 1070.87C745.126 1096.06 736.285 1122.09 727.031 1147.41C698.007 1227.37 658.154 1319.49 582.631 1396.39C520.129 1459.79 435.414 1511.03 316.025 1557.63C231.944 1590.45 133.718 1620.87 15.7309 1650.62L15.2419 1648.68C133.147 1618.95 231.296 1588.56 315.297 1555.77C434.415 1509.27 518.91 1458.18 581.205 1394.98C656.459 1318.36 696.201 1226.49 725.152 1146.72C734.399 1121.43 743.235 1095.4 751.782 1070.23C772.836 1008.22 794.606 944.095 824.884 883.6C831.082 871.141 837.65 858.876 844.404 847.15C863.805 813.517 895.486 766.142 946.394 743.121C968.956 732.898 994.346 727.762 1021.86 727.854C1073.85 727.967 1131.89 745.742 1194.36 780.682C1225.57 798.139 1255.19 817.075 1282.4 836.966C1351.14 887.066 1412.24 948.662 1464 1020.04C1470.17 1028.55 1476.27 1037.28 1482.13 1045.99C1490.38 1058.24 1498.47 1070.93 1506.31 1083.2C1527.94 1117.09 1550.31 1152.14 1578.69 1182.7C1610.5 1216.96 1663.07 1258.59 1732.85 1262.37C1795.66 1265.78 1866.98 1234.88 1923.62 1179.72C1954.16 1149.98 1982.13 1112.75 2009.13 1065.89C2020.71 1045.81 2032.09 1024.12 2044.96 997.628C2151.64 777.918 2209.25 544.588 2211.57 322.862Z" fill="url(#paint3_linear_877_1214)"/>
<path d="M2210.29 309.449L2212.29 309.554C2206.68 415.757 2187.92 526.509 2156.53 638.737C2125.31 750.35 2082.15 861.471 2028.23 969.012C2015.02 995.356 2003.46 1016.85 1991.84 1036.67C1964.49 1083.33 1936.5 1120.54 1906.29 1150.41C1879.69 1176.72 1849.07 1198.57 1817.74 1213.61C1783.78 1229.91 1750.25 1237.93 1718.09 1237.44C1649.79 1236.41 1598.04 1198.97 1566.65 1167.74C1538.56 1139.8 1516.6 1107.6 1495.36 1076.46C1488.06 1065.76 1480.51 1054.7 1472.87 1044.03C1467.24 1036.19 1461.4 1028.33 1455.49 1020.67C1404.74 954.893 1347.84 901.465 1281.54 857.338C1255.36 839.826 1226.51 823.127 1195.81 807.703C1134.31 776.81 1077.18 761.355 1026.01 761.766C998.807 761.946 973.768 766.879 951.587 776.435C902.039 797.724 870.848 839.397 849.21 873.324C842.251 884.256 835.486 895.649 829.102 907.186C797.787 963.338 774.813 1022.66 752.595 1080.03C743.563 1103.36 734.223 1127.47 724.492 1150.92C694.092 1224.86 652.699 1310.18 576.197 1382.32C513.985 1440.7 431.511 1488.21 308.782 1536.38C202.214 1578.22 90.2409 1612.9 15.2869 1635.35L14.7129 1633.43C89.6329 1611 201.553 1576.33 308.051 1534.52C430.534 1486.44 512.811 1439.05 574.827 1380.87C651.052 1308.99 692.325 1223.9 722.644 1150.15C732.368 1126.73 741.703 1102.62 750.731 1079.31C772.973 1021.88 795.973 962.485 827.355 906.214C833.756 894.644 840.544 883.215 847.525 872.248C869.318 838.079 900.749 796.101 950.799 774.596C973.226 764.935 998.527 759.944 1025.99 759.765C1077.49 759.35 1134.93 774.878 1196.71 805.914C1227.49 821.375 1256.4 838.116 1282.66 855.673C1349.14 899.922 1406.19 953.494 1457.07 1019.45C1462.99 1027.12 1468.86 1035 1474.49 1042.86C1482.15 1053.55 1489.71 1064.62 1497.01 1075.33C1518.2 1106.39 1540.1 1138.51 1568.06 1166.32C1599.19 1197.29 1650.49 1234.42 1718.12 1235.44C1779.39 1236.37 1849.21 1204.05 1904.89 1148.99C1934.97 1119.24 1962.85 1082.17 1990.12 1035.65C2001.71 1015.88 2013.26 994.417 2026.45 968.113C2135.45 750.666 2199.03 522.903 2210.29 309.449Z" fill="url(#paint4_linear_877_1214)"/>
<path d="M2209.01 296.032L2211 296.227C2200.96 398.376 2178.43 505.741 2144.05 615.34C2109.92 724.139 2064.72 833.21 2009.71 939.523C1996.17 965.681 1984.45 986.944 1972.82 1006.44C1945.19 1052.77 1917.31 1089.81 1887.57 1119.67C1861.35 1146.01 1831.29 1168.19 1800.64 1183.82C1767.49 1200.72 1734.79 1209.7 1703.44 1210.52C1637.33 1212.24 1586.82 1179.33 1556.08 1151.42C1528.42 1126.3 1506.93 1097.11 1486.15 1068.88C1479.36 1059.67 1472.35 1050.14 1465.27 1040.96C1459.86 1033.96 1454.26 1026.95 1448.6 1020.13C1399.55 960.985 1345.02 913.871 1281.88 876.097C1256.69 860.92 1228.55 846.413 1198.24 832.978C1137.33 805.974 1080.78 792.751 1030.16 793.678C1002.97 794.128 978.008 798.922 955.959 807.925C906.723 827.969 874.69 866.859 852.284 898.501C845.262 908.44 838.472 918.706 831.529 929.883C798.784 982.604 774.228 1037.92 750.481 1091.41C741.28 1112.13 731.768 1133.56 721.953 1154.43C700.817 1199.37 681.137 1234.81 660.02 1265.95C633.508 1305.04 603.986 1338.51 569.764 1368.26C492.737 1434.79 390.951 1479.84 301.543 1515.14C207.027 1552.45 107.396 1587.51 27.3408 1615.68L14.8498 1620.08L14.1858 1618.19L26.6778 1613.8C106.717 1585.63 206.329 1550.58 300.809 1513.28C390.061 1478.05 491.657 1433.08 568.455 1366.75C644.917 1300.28 686.546 1225.01 720.143 1153.58C729.948 1132.73 739.456 1111.31 748.653 1090.6C772.428 1037.04 797.012 981.665 829.831 928.827C836.794 917.616 843.606 907.318 850.652 897.344C873.216 865.48 905.491 826.31 955.205 806.071C977.483 796.975 1002.69 792.13 1030.13 791.675C1081.04 790.744 1137.88 804.024 1199.05 831.146C1229.43 844.615 1257.65 859.162 1282.91 874.38C1346.24 912.27 1400.95 959.528 1450.14 1018.85C1455.81 1025.69 1461.43 1032.72 1466.85 1039.74C1473.95 1048.93 1480.97 1058.47 1487.76 1067.69C1508.48 1095.84 1529.91 1124.95 1557.43 1149.94C1587.89 1177.6 1637.94 1210.22 1703.39 1208.51C1764.01 1206.94 1830.62 1174.04 1886.16 1118.26C1915.78 1088.51 1943.56 1051.6 1971.11 1005.41C1982.71 985.951 1994.42 964.721 2007.94 938.6C2119.3 723.375 2188.83 501.178 2209.01 296.032Z" fill="url(#paint5_linear_877_1214)"/>
<path d="M2207.74 282.611L2209.72 282.903C2195.24 380.99 2168.94 484.965 2131.57 591.942C2094.54 697.908 2047.31 804.93 1991.19 910.033C1977.3 936.045 1965.42 957.074 1953.8 976.211C1925.89 1022.22 1898.1 1059.09 1868.85 1088.93C1813.95 1144.95 1748.32 1179.45 1688.8 1183.59C1624.91 1188.03 1575.62 1159.68 1545.52 1135.11C1518.3 1112.89 1497.3 1086.79 1476.99 1061.55C1470.7 1053.74 1464.2 1045.66 1457.67 1037.9C1452.5 1031.75 1447.13 1025.59 1441.72 1019.6C1394.47 967.286 1342.3 926.483 1282.22 894.857C1258.03 882.003 1230.6 869.688 1200.68 858.253C1140.23 835.148 1084.26 824.159 1034.32 825.59C1006.74 826.323 982.536 830.847 960.33 839.417C911.463 858.204 878.559 894.317 855.352 923.68C848.147 932.823 841.147 942.277 833.952 952.583C800.011 1001.19 774.134 1051.84 749.11 1100.83C739.516 1119.61 729.595 1139.03 719.408 1157.95C685.906 1220.17 641.164 1292.15 563.329 1354.2C494.014 1409.02 405.652 1449.69 294.303 1493.89C258.512 1508.1 222.238 1522.33 187.158 1536.1C124.509 1560.68 65.3348 1583.89 14.4138 1604.81L13.6538 1602.96C64.5908 1582.04 123.772 1558.82 186.427 1534.24C221.505 1520.47 257.777 1506.24 293.566 1492.03C404.752 1447.89 492.965 1407.3 562.086 1352.63C639.636 1290.81 684.241 1219.05 717.647 1157C727.825 1138.1 737.74 1118.69 747.329 1099.92C772.385 1050.88 798.293 1000.16 832.313 951.438C839.53 941.101 846.552 931.616 853.782 922.441C877.148 892.876 910.292 856.511 959.612 837.551C982.033 828.897 1006.45 824.331 1034.26 823.591C1084.46 822.152 1140.69 833.185 1201.39 856.384C1231.39 867.848 1258.9 880.198 1283.16 893.089C1343.45 924.825 1395.8 965.769 1443.2 1018.26C1448.63 1024.27 1454.01 1030.44 1459.2 1036.61C1465.75 1044.39 1472.25 1052.48 1478.54 1060.3C1498.79 1085.46 1519.73 1111.47 1546.79 1133.56C1576.61 1157.9 1625.42 1185.99 1688.66 1181.59C1747.7 1177.48 1812.86 1143.2 1867.42 1087.53C1896.57 1057.8 1924.26 1021.04 1952.09 975.173C1963.69 956.067 1975.55 935.069 1989.43 909.091C2103.2 696.03 2178.69 479.397 2207.74 282.611Z" fill="url(#paint6_linear_877_1214)"/>
<path d="M2206.47 269.188L2208.43 269.582C2189.53 363.59 2159.47 464.176 2119.08 568.546C2079.18 671.653 2029.92 776.625 1972.67 880.544C1958.4 906.433 1946.36 927.227 1934.78 945.984C1906.19 992.313 1879.29 1027.97 1850.13 1058.2C1796.22 1114.08 1732.07 1149.96 1674.15 1156.65C1612.54 1163.78 1564.46 1140 1534.97 1118.8C1508.22 1099.57 1487.73 1076.66 1467.92 1054.5C1462.11 1048 1456.1 1041.29 1450.08 1034.84C1445.14 1029.54 1440.01 1024.23 1434.84 1019.07C1389.21 973.484 1340.83 939.976 1282.57 913.619C1258.94 902.926 1232.21 892.803 1203.12 883.528C1142.94 864.343 1087.55 855.587 1038.47 857.504C1010.86 858.519 986.727 862.905 964.7 870.911C916.275 888.428 882.462 921.773 858.416 948.864C851.064 957.175 843.852 965.819 836.371 975.288C801.23 1019.76 774.03 1065.71 747.726 1110.15C737.741 1127.02 727.417 1144.46 716.857 1161.48C680.01 1220.84 635.128 1283.57 556.889 1340.14C480.322 1395.49 377.65 1436.48 287.064 1472.65C173.18 1518.13 81.3008 1557.45 13.9809 1589.53L13.1208 1587.72C80.4799 1555.63 172.398 1516.29 286.323 1470.79C376.801 1434.67 479.351 1393.73 555.717 1338.52C633.675 1282.15 678.418 1219.61 715.157 1160.42C725.706 1143.43 736.025 1125.99 746.004 1109.13C772.342 1064.64 799.577 1018.62 834.8 974.048C842.305 964.55 849.539 955.878 856.917 947.538C881.122 920.268 915.17 886.702 964.018 869.031C986.242 860.954 1010.57 856.529 1038.4 855.506C1087.7 853.58 1143.33 862.368 1203.73 881.623C1232.89 890.921 1259.7 901.073 1283.4 911.798C1341.88 938.257 1390.45 971.895 1436.25 1017.66C1441.44 1022.84 1446.58 1028.16 1451.54 1033.48C1457.58 1039.94 1463.59 1046.67 1469.41 1053.17C1489.15 1075.25 1509.56 1098.07 1536.14 1117.17C1565.34 1138.17 1612.95 1161.72 1673.92 1154.67C1731.4 1148.03 1795.1 1112.36 1848.69 1056.81C1877.75 1026.69 1904.56 991.139 1933.08 944.935C1944.64 926.206 1956.67 905.44 1970.92 879.58C2087.15 668.6 2168.6 457.529 2206.47 269.188Z" fill="url(#paint7_linear_877_1214)"/>
<path d="M2205.2 255.761L2207.14 256.263C2160.51 436.197 2073.03 641.873 1954.15 851.056C1939.27 877.234 1927.43 897.189 1915.76 915.759C1886.85 961.797 1860.05 997.29 1831.4 1027.46C1778.49 1083.2 1715.83 1120.47 1659.51 1129.72C1659.24 1129.76 1658.98 1129.81 1658.71 1129.85C1599.82 1139.29 1553.21 1120.21 1524.43 1102.49C1498.19 1086.34 1478.25 1066.73 1458.97 1047.76C1453.6 1042.48 1448.04 1037.02 1442.51 1031.79C1437.77 1027.32 1432.88 1022.86 1427.98 1018.55C1384.53 980.32 1338.44 952.94 1282.93 932.38C1259.99 923.881 1234.68 916.168 1205.57 908.801C1144.51 893.351 1091.21 887.011 1042.63 889.418C1014.95 890.718 990.888 894.966 969.067 902.403C921.462 918.544 887.962 947.677 861.471 974.047C853.993 981.519 846.57 989.353 838.778 997.994C802.44 1038.29 773.921 1079.51 746.341 1119.36C735.963 1134.36 725.232 1149.86 714.294 1165.01C675.934 1218.12 629.535 1274.39 550.444 1326.08C482.669 1370.36 397.656 1404.32 307.649 1440.27C298.402 1443.96 289.121 1447.67 279.822 1451.41C178.265 1492.2 81.211 1536.97 13.548 1574.25L12.583 1572.5C80.315 1535.18 177.449 1490.37 279.078 1449.55C288.378 1445.81 297.66 1442.11 306.907 1438.41C396.818 1402.5 481.742 1368.58 549.35 1324.4C628.169 1272.9 674.426 1216.79 712.673 1163.84C723.6 1148.71 734.325 1133.21 744.698 1118.22C772.313 1078.32 800.87 1037.05 837.295 996.655C845.11 987.988 852.556 980.13 860.059 972.631C886.714 946.097 920.433 916.781 968.424 900.51C990.425 893.013 1014.67 888.731 1042.53 887.42C1091.31 885.004 1144.8 891.364 1206.06 906.863C1235.24 914.247 1260.62 921.98 1283.63 930.505C1339.37 951.152 1385.66 978.652 1429.3 1017.05C1434.22 1021.38 1439.13 1025.85 1443.88 1030.34C1449.43 1035.58 1454.99 1041.05 1460.37 1046.34C1479.58 1065.23 1499.44 1084.76 1525.48 1100.79C1553.97 1118.33 1600.12 1137.22 1658.4 1127.87C1658.66 1127.83 1658.92 1127.79 1659.18 1127.75C1715.09 1118.57 1777.33 1081.51 1829.95 1026.08C1858.5 996.013 1885.23 960.619 1914.06 914.696C1925.71 896.152 1937.54 876.22 1952.41 850.068C2071.21 641.035 2158.62 435.528 2205.2 255.761Z" fill="url(#paint8_linear_877_1214)"/>
<path d="M2203.94 242.334L2205.84 242.949C2150.66 414.043 2057.22 614.127 1935.63 821.568C1925.29 839.199 1911.52 862.402 1896.74 885.532C1867.5 931.301 1840.79 966.632 1812.68 996.718C1760.75 1052.31 1699.59 1090.97 1644.86 1102.78C1588.05 1115.07 1542.29 1100.53 1513.91 1086.18C1488.26 1073.22 1468.92 1057.03 1450.22 1041.37C1445.23 1037.19 1440.07 1032.87 1434.94 1028.75C1430.43 1025.11 1425.78 1021.51 1421.13 1018.03C1379.53 986.927 1337.02 966.296 1283.3 951.138C1261.49 944.981 1236.86 939.397 1208.02 934.069C1168.69 926.805 1109.19 917.579 1046.78 921.329C1018.99 922.924 994.998 927.032 973.435 933.894C926.512 948.733 892.047 975.248 864.521 999.228C856.918 1005.88 849.282 1012.91 841.18 1020.7C803.644 1056.8 773.811 1093.23 744.961 1128.46C734.186 1141.62 723.045 1155.23 711.723 1168.54C671.871 1215.39 623.97 1265.2 544 1312.01C484.842 1346.64 412.75 1374.92 336.426 1404.86C315.558 1413.05 293.98 1421.52 272.583 1430.16C173.433 1470.21 78.8609 1517.16 13.1189 1558.96L12.0449 1557.27C77.8859 1515.41 172.576 1468.4 271.834 1428.3C293.241 1419.66 314.823 1411.19 335.695 1403C411.945 1373.09 483.966 1344.83 542.99 1310.28C622.703 1263.62 670.463 1213.96 710.201 1167.24C721.51 1153.95 732.646 1140.35 743.415 1127.2C772.302 1091.92 802.174 1055.44 839.795 1019.26C847.92 1011.44 855.578 1004.4 863.207 997.721C890.89 973.605 925.561 946.937 972.832 931.987C994.553 925.075 1018.71 920.936 1046.67 919.332C1109.29 915.571 1168.95 924.819 1208.38 932.102C1237.28 937.442 1261.97 943.039 1283.85 949.213C1337.81 964.44 1380.52 985.171 1422.32 1016.43C1427 1019.92 1431.66 1023.54 1436.2 1027.19C1441.34 1031.32 1446.51 1035.65 1451.5 1039.83C1470.12 1055.42 1489.37 1071.54 1514.81 1084.4C1542.9 1098.6 1588.19 1112.98 1644.44 1100.83C1698.78 1089.09 1759.57 1050.65 1811.22 995.351C1839.25 965.356 1865.88 930.117 1895.05 884.453C1909.82 861.35 1923.58 838.169 1933.91 820.554C2055.43 613.239 2148.8 413.293 2203.94 242.334Z" fill="url(#paint9_linear_877_1214)"/>
<path d="M2202.68 228.904L2204.54 229.634C2141.12 391.437 2041.72 585.928 1917.11 792.079C1905.74 810.869 1892.17 833.076 1877.72 855.307C1848.11 900.848 1821.5 936.015 1793.96 965.98C1743.02 1021.41 1683.34 1061.45 1630.23 1075.85C1586.67 1087.65 1544 1085.65 1503.4 1069.87C1478.48 1060.21 1459.82 1047.55 1441.78 1035.32C1437.07 1032.13 1432.21 1028.83 1427.4 1025.71C1423.11 1022.92 1418.7 1020.17 1414.3 1017.52C1375.5 994.218 1335.22 979.528 1283.69 969.892C1263.22 966.064 1239.27 962.611 1210.47 959.335C1163.9 954.038 1108.53 949.17 1050.94 953.241C1022.97 955.138 999.044 959.109 977.805 965.386C931.909 978.852 897.699 1001.71 867.567 1024.41C859.885 1030.23 852.037 1036.44 843.576 1043.41C804.86 1075.27 773.734 1106.88 743.632 1137.44C732.442 1148.81 720.871 1160.56 709.143 1172.08C669.808 1210.72 618.661 1255.88 537.552 1297.94C486.813 1324.26 426.745 1346.97 363.151 1371.01C331.226 1383.08 298.213 1395.56 265.343 1408.91C168.559 1448.24 74.1078 1498.61 12.6888 1543.67L11.5068 1542.06C73.0508 1496.91 167.662 1446.44 264.59 1407.06C297.482 1393.7 330.507 1381.22 362.443 1369.14C425.981 1345.12 485.996 1322.43 536.631 1296.17C617.505 1254.23 668.512 1209.19 707.74 1170.65C719.457 1159.14 731.022 1147.4 742.206 1136.04C772.344 1105.44 803.508 1073.79 842.305 1041.86C850.787 1034.88 858.655 1028.65 866.361 1022.82C896.646 1000 931.037 977.024 977.239 963.468C998.62 957.15 1022.68 953.155 1050.8 951.247C1108.55 947.166 1164.04 952.042 1210.7 957.35C1239.54 960.631 1263.54 964.091 1284.06 967.928C1335.83 977.61 1376.32 992.377 1415.33 1015.81C1419.75 1018.46 1424.18 1021.23 1428.49 1024.03C1433.32 1027.16 1438.19 1030.47 1442.9 1033.66C1460.85 1045.84 1479.41 1058.42 1504.12 1068.01C1544.31 1083.62 1586.56 1085.61 1629.7 1073.91C1682.46 1059.62 1741.79 1019.79 1792.49 964.627C1819.95 934.747 1846.5 899.663 1876.04 854.218C1890.48 832.011 1904.04 809.822 1915.4 791.045C2039.96 584.988 2139.3 390.603 2202.68 228.904Z" fill="url(#paint10_linear_877_1214)"/>
<path d="M2201.43 215.472L2203.24 216.321C2132.3 367.747 2026.96 556.644 1898.59 762.589C1886.14 782.543 1872.69 803.924 1858.69 825.08C1828.7 870.434 1802.18 905.438 1775.24 935.24C1725.28 990.501 1667.09 1031.93 1615.58 1048.9C1574.24 1062.53 1532.96 1064.1 1492.9 1053.56C1468.94 1047.27 1451.1 1038.28 1433.85 1029.59C1429.07 1027.18 1424.55 1024.9 1419.89 1022.67C1415.82 1020.73 1411.65 1018.83 1407.5 1017.02C1371.62 1001.38 1334.71 992.894 1284.08 988.64C1265.49 987.077 1242.89 985.792 1212.93 984.597L1207.49 984.378C1164.92 982.662 1111.95 980.528 1055.09 985.153C1026.44 987.397 1003.27 991.12 982.169 996.875C935.289 1009.56 899.999 1030.74 870.601 1049.59C862.951 1054.53 854.89 1059.93 845.959 1066.11C806.106 1093.68 773.726 1120.42 742.413 1146.28C730.767 1155.89 718.724 1165.84 706.543 1175.61C665.869 1208.27 613.216 1246.66 531.098 1283.88C488.728 1303.08 440.032 1320.46 388.476 1338.86C345.976 1354.04 302.029 1369.72 258.1 1387.67C161.607 1427.1 69.7029 1479.7 12.2579 1528.37L10.9648 1526.84C68.5618 1478.04 160.666 1425.32 257.345 1385.81C301.314 1367.85 345.282 1352.16 387.803 1336.98C439.319 1318.59 487.978 1301.22 530.272 1282.05C612.187 1244.93 664.714 1206.63 705.291 1174.05C717.461 1164.28 729.499 1154.35 741.14 1144.73C772.487 1118.85 804.9 1092.09 844.822 1064.47C853.77 1058.27 861.85 1052.86 869.52 1047.91C899.045 1028.97 934.492 1007.7 981.645 994.945C1002.87 989.157 1026.16 985.413 1054.94 983.158C1111.91 978.524 1164.95 980.661 1207.57 982.378L1213.01 982.597C1243 983.795 1265.63 985.081 1284.25 986.646C1335.11 990.919 1372.21 999.453 1408.3 1015.18C1412.47 1017 1416.67 1018.91 1420.76 1020.87C1425.43 1023.1 1429.96 1025.39 1434.75 1027.8C1451.91 1036.45 1469.65 1045.38 1493.41 1051.63C1533.09 1062.06 1573.98 1060.51 1614.96 1047C1666.14 1030.13 1724.02 988.909 1773.75 933.898C1800.63 904.172 1827.09 869.243 1857.02 823.975C1871.01 802.839 1884.45 781.472 1896.89 761.53C2025.22 555.652 2130.52 366.828 2201.43 215.472Z" fill="url(#paint11_linear_877_1214)"/>
<path d="M2200.18 202.041L2201.93 203.009C2124.94 342.218 2016.65 520.567 1880.07 733.1C1867.27 752.991 1853.62 774.143 1839.67 794.853C1809.23 840.084 1782.81 874.925 1756.52 904.5C1707.54 959.584 1650.84 1002.39 1600.95 1021.95C1561.49 1037.43 1522.72 1042.43 1482.43 1037.24C1459.88 1034.34 1443.12 1029.1 1426.9 1024.04C1421.93 1022.49 1417.23 1021.02 1412.43 1019.64C1408.59 1018.53 1404.66 1017.48 1400.75 1016.5C1368.72 1008.5 1336.13 1005.94 1284.49 1007.38C1270.32 1007.77 1254.13 1008.39 1236.99 1009.04C1230.04 1009.3 1222.85 1009.58 1215.4 1009.85C1205.02 1010.23 1193.84 1010.54 1182.01 1010.85C1145.35 1011.84 1103.81 1012.96 1059.25 1017.07C1030.13 1019.66 1007.03 1023.25 986.539 1028.37C941.606 1039.49 906.125 1057.39 873.635 1074.77C866.06 1078.85 858.022 1083.31 848.338 1088.81C807.495 1112.01 773.978 1133.8 741.564 1154.87C729.34 1162.82 716.7 1171.04 703.934 1179.15C662.025 1205.79 607.952 1237.4 524.645 1269.81C490.764 1282.99 453.006 1295.42 413.031 1308.57C360.242 1325.95 305.655 1343.91 250.862 1366.42C155.785 1405.5 64.193 1461.69 11.83 1513.07L10.429 1511.64C62.963 1460.09 154.801 1403.74 250.102 1364.57C304.961 1342.04 359.583 1324.06 412.406 1306.67C452.355 1293.52 490.088 1281.11 523.92 1267.94C607.066 1235.6 661.034 1204.05 702.86 1177.46C715.618 1169.35 728.254 1161.14 740.474 1153.19C772.912 1132.11 806.455 1110.3 847.351 1087.08C857.047 1081.57 865.099 1077.1 872.689 1073.01C905.293 1055.57 940.902 1037.61 986.056 1026.43C1006.65 1021.28 1029.85 1017.67 1059.07 1015.07C1103.69 1010.96 1145.27 1009.84 1181.96 1008.85C1193.78 1008.54 1204.95 1008.23 1215.33 1007.85C1222.77 1007.58 1229.97 1007.3 1236.91 1007.04C1254.06 1006.39 1270.25 1005.77 1284.44 1005.38C1336.27 1003.94 1369.02 1006.51 1401.23 1014.56C1405.17 1015.54 1409.12 1016.6 1412.98 1017.71C1417.8 1019.1 1422.51 1020.57 1427.5 1022.13C1443.63 1027.17 1460.31 1032.38 1482.69 1035.25C1522.63 1040.4 1561.07 1035.44 1600.22 1020.09C1649.83 1000.64 1706.25 958.026 1755.02 903.169C1781.25 873.663 1807.63 838.889 1838.01 793.734C1851.95 773.041 1865.6 751.898 1878.38 732.017C2014.94 519.522 2123.21 341.211 2200.18 202.041Z" fill="url(#paint12_linear_877_1214)"/>
<path d="M2198.93 188.608L2200.61 189.695C2128.13 301.702 2037.34 438.561 1941.22 583.456C1915.1 622.831 1888.47 662.969 1861.54 703.613L1860.37 705.381C1847.49 724.811 1834.17 744.901 1820.65 764.627C1789.28 810.445 1763.72 844.103 1737.79 873.761C1689.8 928.656 1634.59 972.848 1586.31 995.004C1537.52 1017.4 1497.69 1020.51 1471.97 1020.9C1451.81 1021.21 1435.97 1019.59 1422 1018.16C1416.13 1017.55 1410.59 1016.99 1405.01 1016.58C1401.37 1016.31 1397.68 1016.1 1394.04 1015.97C1363.42 1014.79 1330.95 1019.22 1284.91 1026.1C1269.54 1028.4 1245.88 1031.83 1217.87 1035.1C1196.56 1037.59 1171.39 1039.62 1144.73 1041.78C1118.78 1043.87 1091.95 1046.04 1063.41 1048.98C1043.02 1051.01 1016.35 1054.08 990.906 1059.86C945.634 1070.03 908.835 1085.99 879.266 1098.81L876.66 1099.94C867.305 1104.03 858.102 1108.18 850.706 1111.51C809.5 1130.07 775.318 1146.73 742.261 1162.83C728.953 1169.31 715.194 1176.02 701.308 1182.68C658.432 1203.26 603.145 1228.03 518.19 1255.74C493.1 1263.92 466.049 1271.89 437.409 1280.32C377.367 1298 309.315 1318.03 243.623 1345.18C148.337 1384.57 59.3528 1443.03 11.3978 1497.76L9.89282 1496.44C58.0388 1441.5 147.306 1382.83 242.86 1343.33C308.65 1316.15 376.756 1296.09 436.845 1278.4C465.47 1269.97 492.508 1262.01 517.57 1253.84C602.414 1226.16 657.625 1201.42 700.444 1180.88C714.324 1174.22 728.081 1167.52 741.386 1161.03C774.456 1144.92 808.652 1128.26 849.886 1109.69C857.286 1106.36 866.494 1102.21 875.861 1098.11L878.47 1096.98C908.117 1084.12 945.014 1068.12 990.466 1057.91C1016.02 1052.11 1042.76 1049.03 1063.21 1046.99C1091.77 1044.05 1118.61 1041.88 1144.57 1039.78C1171.21 1037.63 1196.37 1035.6 1217.64 1033.12C1245.62 1029.85 1269.26 1026.42 1284.61 1024.12C1330.76 1017.22 1363.32 1012.79 1394.12 1013.97C1397.78 1014.11 1401.5 1014.31 1405.16 1014.58C1410.77 1014.99 1416.33 1015.56 1422.21 1016.17C1436.12 1017.59 1451.9 1019.21 1471.95 1018.9C1497.48 1018.51 1537.03 1015.42 1585.48 993.187C1633.51 971.144 1688.48 927.135 1736.29 872.444C1762.16 842.849 1787.67 809.247 1819 763.497C1832.51 743.784 1845.83 723.699 1858.71 704.276L1859.88 702.508C1886.81 661.864 1913.44 621.726 1939.56 582.351C2035.67 437.461 2126.46 300.607 2198.93 188.608Z" fill="url(#paint13_linear_877_1214)"/>
<path d="M2197.69 175.18L2199.29 176.382C2085 328.303 1958.47 505.071 1843.02 674.123L1835.29 685.448C1824.33 701.493 1813.01 718.084 1801.63 734.4C1780.09 765.311 1751.24 805.592 1719.07 843.021C1671.37 898.521 1619.03 942.924 1571.67 968.051C1528.32 991.057 1491.67 999.404 1461.53 1004.53C1446.26 1007.14 1433.66 1008.69 1422.54 1010.05C1413.83 1011.12 1405.6 1012.12 1397.63 1013.47C1394.21 1014.04 1390.76 1014.69 1387.37 1015.38C1370.95 1018.74 1354.74 1023.77 1334.22 1030.15C1320.3 1034.48 1304.51 1039.38 1285.32 1044.81C1264.99 1050.55 1243.12 1055.78 1220.34 1060.34C1183.11 1067.79 1133.84 1073.38 1081.67 1079.29L1067.56 1080.89C1045.37 1083.34 1019.65 1086.38 995.272 1091.35C954.699 1099.53 921.465 1110.87 892.142 1120.88C887.886 1122.33 883.733 1123.75 879.68 1125.11C875.489 1126.54 871.381 1127.94 867.355 1129.32C862.475 1130.99 857.715 1132.62 853.068 1134.2C794.896 1153.93 750.163 1168.99 698.671 1186.2C658.452 1199.63 600.858 1218.08 511.731 1241.66C495.971 1245.83 479.592 1249.97 462.251 1254.35C392.426 1271.98 313.285 1291.97 236.381 1323.93C142.222 1363.08 53.7389 1425.3 10.9609 1482.44L9.35986 1481.24C52.3369 1423.84 141.147 1361.36 235.614 1322.08C312.652 1290.07 391.869 1270.06 461.761 1252.41C479.096 1248.03 495.47 1243.89 511.219 1239.73C600.292 1216.16 657.846 1197.73 698.036 1184.3C749.526 1167.1 794.256 1152.03 852.426 1132.31C857.071 1130.73 861.828 1129.1 866.707 1127.43C870.733 1126.05 874.842 1124.64 879.038 1123.22C883.092 1121.85 887.241 1120.43 891.496 1118.98C920.876 1108.96 954.175 1097.59 994.874 1089.38C1019.34 1084.4 1045.11 1081.36 1067.34 1078.9L1081.45 1077.3C1133.57 1071.39 1182.8 1065.81 1219.94 1058.38C1242.68 1053.83 1264.49 1048.61 1284.78 1042.88C1303.94 1037.47 1319.71 1032.56 1333.63 1028.24C1354.2 1021.84 1370.45 1016.79 1386.97 1013.42C1390.38 1012.72 1393.86 1012.07 1397.29 1011.5C1405.31 1010.15 1413.56 1009.14 1422.29 1008.06C1433.39 1006.7 1445.98 1005.16 1461.19 1002.56C1491.17 997.457 1527.64 989.156 1570.73 966.283C1617.87 941.27 1670.02 897.031 1717.55 841.716C1749.66 804.354 1778.47 764.127 1799.99 733.255C1811.36 716.945 1822.68 700.359 1833.63 684.319L1841.37 672.994C1956.84 503.919 2083.38 327.124 2197.69 175.18Z" fill="url(#paint14_linear_877_1214)"/>
<path d="M2196.46 161.752L2197.97 163.065C2081.97 296.273 1949.34 467.297 1824.5 644.634C1819.3 652.012 1814.1 659.427 1808.88 666.863C1800.31 679.087 1791.44 691.728 1782.61 704.173C1759.16 737.24 1731.04 775.943 1700.35 812.281C1653.65 867.563 1602.75 913.309 1557.03 941.094C1515.11 966.572 1479.79 978.474 1454 987.164L1444.05 990.523C1421.71 998.06 1405.58 1003.51 1390.24 1010.3C1387.05 1011.71 1383.84 1013.21 1380.69 1014.73C1371.46 1019.22 1362.26 1024.38 1352.51 1029.86C1334.81 1039.8 1314.74 1051.06 1285.74 1063.5C1266.96 1071.55 1245.78 1078.98 1222.8 1085.58C1187.61 1095.69 1139.6 1104.33 1071.72 1112.8L1066.53 1113.43C1044.37 1116.11 1021.45 1118.89 999.637 1122.83C965.352 1128.95 935.657 1136.66 909.458 1143.45C900.07 1145.89 891.202 1148.19 882.698 1150.27C873.908 1152.45 864.518 1154.76 855.427 1156.88C807.695 1168.02 767.927 1175.73 729.468 1183.18C718.411 1185.32 707.331 1187.47 696.025 1189.7C682.441 1192.38 668.452 1195.12 653.747 1198.01C612.206 1206.14 565.122 1215.37 505.271 1227.58C499.722 1228.72 494.077 1229.86 488.345 1231.02C412.43 1246.41 317.952 1265.56 229.141 1302.69C134.592 1342.23 48.78 1406.78 10.521 1467.12L8.83203 1466.05C47.295 1405.38 133.468 1340.53 228.369 1300.84C317.362 1263.64 411.947 1244.47 487.947 1229.06C493.678 1227.9 499.322 1226.76 504.871 1225.62C564.73 1213.41 611.817 1204.18 653.362 1196.04C668.066 1193.16 682.054 1190.42 695.637 1187.74C706.945 1185.51 718.028 1183.36 729.087 1181.21C767.527 1173.77 807.277 1166.06 854.972 1154.93C864.051 1152.81 873.434 1150.51 882.219 1148.33C890.713 1146.25 899.574 1143.95 908.956 1141.52C935.191 1134.71 964.926 1127 999.284 1120.86C1021.16 1116.91 1044.1 1114.13 1066.29 1111.44L1071.47 1110.81C1139.25 1102.36 1187.16 1093.73 1222.25 1083.66C1245.15 1077.08 1266.25 1069.68 1284.95 1061.66C1313.85 1049.27 1333.87 1038.03 1351.53 1028.11C1361.31 1022.62 1370.54 1017.44 1379.82 1012.93C1382.98 1011.4 1386.22 1009.9 1389.43 1008.47C1404.85 1001.64 1421.02 996.182 1443.41 988.628L1453.36 985.269C1479.06 976.608 1514.27 964.748 1555.99 939.385C1601.54 911.709 1652.26 866.11 1698.82 810.99C1729.47 774.708 1757.55 736.048 1780.98 703.016C1789.81 690.575 1798.67 677.936 1807.24 665.714C1812.46 658.277 1817.67 650.861 1822.86 643.481C1947.74 466.091 2080.42 295.009 2196.46 161.752Z" fill="url(#paint15_linear_877_1214)"/>
<path d="M2195.23 148.327L2196.64 149.745C2073.84 271.905 1935.1 437.188 1805.98 615.146C1797.58 626.708 1789.03 638.592 1780.77 650.084C1775.06 658.025 1769.34 665.986 1763.59 673.947C1738.13 709.211 1710.59 746.652 1681.62 781.542C1635.93 836.588 1586.49 883.677 1542.39 914.136C1508.37 937.641 1479.19 952.295 1455.74 964.07C1450.39 966.757 1445.33 969.296 1440.62 971.74C1415.37 984.855 1398.63 995.096 1382.82 1007.09C1379.84 1009.34 1376.87 1011.69 1373.98 1014.04C1367.69 1019.17 1361.6 1024.58 1355.16 1030.31C1337.67 1045.85 1317.86 1063.47 1286.15 1082.17C1268.8 1092.41 1247.75 1102.31 1225.27 1110.81C1187.94 1124.92 1137.68 1136.33 1075.87 1144.71C1068.21 1145.73 1060.43 1146.71 1052.9 1147.66C1036.74 1149.69 1020.04 1151.8 1004 1154.32C978.604 1158.27 955.137 1162.73 934.431 1166.67C917.096 1169.97 900.719 1173.08 885.715 1175.43C875.135 1177.12 865.997 1178.47 857.783 1179.56C809.617 1185.95 769.14 1188.44 729.995 1190.85C718.079 1191.58 705.757 1192.34 693.38 1193.19C643.06 1196.68 582.376 1201.41 498.813 1213.51C413.689 1225.83 315.082 1242.26 221.902 1281.44C126.914 1321.41 43.7678 1388.28 10.0758 1451.8L8.30981 1450.87C24.8398 1419.7 53.7308 1387.01 91.8588 1356.33C129.954 1325.69 174.655 1299.15 221.127 1279.6C314.524 1240.32 413.281 1223.87 498.526 1211.53C582.158 1199.42 642.885 1194.68 693.242 1191.2C705.627 1190.34 717.952 1189.58 729.871 1188.85C768.982 1186.45 809.424 1183.96 857.52 1177.58C865.716 1176.49 874.837 1175.14 885.403 1173.45C900.383 1171.11 916.74 1168 934.058 1164.71C954.78 1160.77 978.257 1156.3 1003.7 1152.35C1019.76 1149.82 1036.48 1147.71 1052.65 1145.67C1060.17 1144.73 1067.95 1143.75 1075.61 1142.73C1137.27 1134.37 1187.38 1123 1224.56 1108.94C1246.94 1100.48 1267.88 1090.63 1285.14 1080.45C1316.67 1061.85 1336.41 1044.3 1353.83 1028.82C1360.29 1023.08 1366.39 1017.65 1372.72 1012.5C1375.62 1010.12 1378.62 1007.77 1381.61 1005.49C1397.51 993.431 1414.34 983.138 1439.7 969.967C1444.42 967.516 1449.48 964.975 1454.84 962.285C1478.23 950.538 1507.34 935.918 1541.25 912.493C1585.2 882.135 1634.51 835.176 1680.09 780.267C1709.01 745.423 1736.53 708.014 1761.96 672.779C1767.71 664.818 1773.44 656.859 1779.15 648.918C1787.41 637.424 1795.96 625.538 1804.36 613.973C1933.54 435.929 2072.35 270.561 2195.23 148.327Z" fill="url(#paint16_linear_877_1214)"/>
<path d="M2194 134.907L2195.31 136.421C2064.63 249.163 1919.78 408.705 1787.45 585.656C1775.12 602.141 1762.6 619.177 1750.49 635.653L1744.56 643.722C1717.42 680.662 1690.76 716.649 1662.9 750.803C1618.22 805.589 1570.22 854.019 1527.74 887.174C1501.35 907.781 1478.39 922.962 1458.14 936.355C1448 943.058 1438.43 949.388 1430.14 955.319C1407.67 971.415 1391.28 985.932 1375.34 1003.86C1372.58 1006.97 1369.84 1010.16 1367.21 1013.34C1362.26 1019.32 1357.56 1025.42 1352.58 1031.88C1336.47 1052.8 1318.2 1076.51 1286.55 1100.84C1270.23 1113.38 1249.89 1125.55 1227.73 1136.03C1189.8 1153.97 1138.74 1168.01 1080.03 1176.62C1066.15 1178.62 1052.1 1180.34 1038.52 1182C1028.58 1183.22 1018.31 1184.48 1008.37 1185.81C996.551 1187.37 985.227 1188.93 974.275 1190.44C941.907 1194.9 913.953 1198.76 888.733 1200.57C878.328 1201.35 868.975 1201.89 860.142 1202.22C810.903 1204.04 769.237 1201.43 728.943 1198.91C716.508 1198.13 703.649 1197.33 690.739 1196.66C636.479 1193.87 574.89 1192.27 492.353 1199.42C413.895 1206.22 311.427 1219.27 214.664 1260.2C120.669 1299.97 38.2709 1370.82 9.62792 1436.48L7.79492 1435.68C36.6299 1369.58 119.451 1298.32 213.885 1258.36C310.908 1217.31 413.576 1204.24 492.181 1197.43C574.84 1190.27 636.511 1191.87 690.843 1194.67C703.764 1195.33 716.628 1196.14 729.069 1196.91C769.314 1199.43 810.93 1202.04 860.069 1200.22C868.876 1199.89 878.204 1199.36 888.587 1198.58C913.746 1196.77 941.67 1192.92 974.003 1188.46C984.958 1186.95 996.285 1185.39 1008.11 1183.83C1018.06 1182.49 1028.34 1181.23 1038.27 1180.02C1051.85 1178.35 1065.89 1176.63 1079.74 1174.64C1138.24 1166.06 1189.13 1152.08 1226.88 1134.23C1248.91 1123.8 1269.13 1111.71 1285.33 1099.25C1316.78 1075.08 1334.96 1051.48 1351 1030.66C1355.98 1024.18 1360.69 1018.07 1365.67 1012.06C1368.31 1008.87 1371.07 1005.66 1373.85 1002.53C1389.89 984.485 1406.38 969.881 1428.98 953.693C1437.3 947.741 1446.89 941.401 1457.04 934.688C1477.26 921.314 1500.18 906.157 1526.51 885.597C1568.88 852.532 1616.77 804.213 1661.35 749.538C1689.18 715.421 1715.83 679.457 1742.95 642.538L1748.88 634.468C1760.99 617.989 1773.51 600.95 1785.85 584.458C1918.26 407.395 2063.22 247.741 2194 134.907Z" fill="url(#paint17_linear_877_1214)"/>
<path d="M2192.77 121.491L2193.97 123.093C2055.02 227.035 1904.07 380.837 1768.93 556.169C1753.7 575.911 1738.55 596.112 1725.54 613.497L1718.93 622.335C1694.75 654.696 1669.74 688.16 1644.18 720.063C1600.53 774.546 1553.98 824.318 1513.09 860.21C1494.24 876.77 1476.89 890.901 1461.58 903.368C1445.4 916.542 1431.43 927.92 1419.64 938.889C1398.77 958.313 1382.79 977.357 1367.81 1000.64C1365.27 1004.59 1362.77 1008.63 1360.38 1012.65C1356.14 1019.78 1352.19 1026.95 1348 1034.54C1332.94 1061.82 1317.38 1090.02 1286.93 1119.5C1271.58 1134.35 1251.96 1148.79 1230.19 1161.25C1191.94 1183.14 1141.49 1199.52 1084.18 1208.54C1063.72 1211.71 1043.09 1213.97 1023.13 1216.16C1019.65 1216.54 1016.19 1216.92 1012.73 1217.3C964.478 1222.56 925.438 1226 891.749 1225.71C881.48 1225.65 871.638 1225.37 862.5 1224.87C812.027 1222.13 769.045 1214.43 727.477 1206.99C714.658 1204.69 701.401 1202.32 688.104 1200.12C632.751 1190.98 569.942 1182.85 485.89 1185.33C375.65 1188.59 284.565 1206.13 207.421 1238.95C112.932 1279.18 33.2598 1352.4 9.16779 1421.16L7.27979 1420.5C31.5468 1351.24 111.663 1277.54 206.637 1237.11C284.015 1204.19 375.341 1186.6 485.83 1183.34C570.053 1180.85 632.977 1188.99 688.43 1198.15C701.741 1200.35 715.004 1202.72 727.83 1205.02C769.338 1212.45 812.258 1220.14 862.609 1222.88C871.714 1223.37 881.523 1223.65 891.763 1223.72C925.357 1224 964.331 1220.57 1012.51 1215.31C1015.97 1214.93 1019.44 1214.55 1022.92 1214.17C1042.85 1211.98 1063.46 1209.72 1083.87 1206.56C1084.34 1206.49 1084.81 1206.41 1085.27 1206.34C1141.73 1197.29 1191.47 1181.11 1229.19 1159.52C1250.83 1147.14 1270.31 1132.8 1285.54 1118.06C1315.77 1088.8 1331.26 1060.72 1346.24 1033.57C1350.44 1025.97 1354.41 1018.78 1358.66 1011.63C1361.06 1007.59 1363.57 1003.53 1366.13 999.555C1381.2 976.13 1397.28 956.968 1418.28 937.425C1430.12 926.411 1444.11 915.014 1460.32 901.817C1475.61 889.361 1492.94 875.243 1511.77 858.707C1552.58 822.889 1599.04 773.207 1642.62 718.812C1668.15 686.935 1693.15 653.485 1717.33 621.137L1723.94 612.299C1736.95 594.908 1752.11 574.7 1767.34 554.947C1902.59 379.476 2053.68 225.538 2192.77 121.491Z" fill="url(#paint18_linear_877_1214)"/>
<path d="M2191.55 108.081L2192.64 109.76C2045.21 205.199 1888.16 353.263 1750.4 526.679C1737.6 542.784 1723.66 560.766 1706.52 583.269C1699.05 593.084 1691.59 602.937 1684.13 612.795C1665.02 638.038 1645.27 664.14 1625.45 689.322C1582.89 743.433 1537.78 794.545 1498.44 833.242C1487.22 844.284 1476.76 854.337 1466.64 864.058C1444.01 885.805 1424.46 904.585 1409.12 922.46C1389.15 945.734 1374.08 968.857 1360.25 997.435C1357.93 1002.23 1355.67 1007.12 1353.53 1011.97C1349.74 1020.55 1346.28 1029.11 1342.62 1038.17C1329.55 1070.49 1316.04 1103.91 1287.29 1138.16C1272.89 1155.32 1253.99 1172.03 1232.64 1186.47C1194.5 1212.26 1144.6 1230.93 1088.34 1240.45C1063.73 1244.55 1038.66 1246.9 1017.1 1248.79C967.812 1253.01 927.8 1253.69 894.772 1250.85C884.405 1249.98 874.344 1248.86 864.867 1247.52C813.087 1240.19 768.72 1227.38 725.814 1215C712.678 1211.21 699.095 1207.28 685.482 1203.57C628.803 1188.12 564.612 1173.5 479.429 1171.24C372.768 1168.41 278.815 1184.05 200.181 1217.71C106.664 1257.75 27.9259 1335.11 8.70393 1405.83L6.77393 1405.31C16.4229 1369.81 40.1819 1332.79 75.4839 1298.27C110.402 1264.12 153.249 1235.63 199.394 1215.87C278.296 1182.09 372.531 1166.41 479.483 1169.24C564.877 1171.51 629.209 1186.15 686.008 1201.64C699.636 1205.36 713.227 1209.28 726.37 1213.08C769.209 1225.44 813.507 1238.23 865.147 1245.54C874.586 1246.88 884.61 1247.99 894.941 1248.85C927.856 1251.68 967.757 1251.01 1016.93 1246.79C1038.45 1244.91 1063.46 1242.56 1088.01 1238.47C1143.99 1229 1193.62 1210.45 1231.52 1184.81C1252.72 1170.47 1271.47 1153.9 1285.76 1136.87C1314.3 1102.87 1327.75 1069.6 1340.76 1037.42C1344.43 1028.35 1347.9 1019.77 1351.7 1011.17C1353.85 1006.29 1356.12 1001.38 1358.45 996.563C1372.36 967.825 1387.52 944.568 1407.6 921.157C1423.01 903.209 1442.59 884.397 1465.26 862.615C1475.37 852.897 1485.83 842.849 1497.04 831.816C1536.32 793.176 1581.37 742.131 1623.88 688.083C1643.68 662.916 1663.43 636.822 1682.53 611.586C1690 601.727 1697.45 591.873 1704.93 582.056C1722.08 559.542 1736.03 541.549 1748.84 525.433C1886.73 351.854 2043.95 203.635 2191.55 108.081Z" fill="url(#paint19_linear_877_1214)"/>
<path d="M2190.33 94.675L2191.3 96.422C2035.3 183.536 1872.14 325.866 1731.88 497.191C1718.31 513.755 1703.79 532.025 1687.5 553.044C1673.29 571.381 1658.96 590.204 1645.11 608.408C1632.55 624.904 1619.57 641.961 1606.73 658.582C1564.76 712.921 1522.25 763.993 1483.79 806.276C1480.56 809.83 1477.38 813.32 1474.26 816.749C1443.89 850.089 1417.66 878.882 1398.58 906.035C1379.61 933.045 1365.02 961.076 1352.67 994.252C1350.57 999.894 1348.54 1005.64 1346.65 1011.32C1343.22 1021.62 1340.17 1031.84 1336.95 1042.66C1325.89 1079.75 1314.46 1118.1 1287.65 1156.82C1274.16 1176.3 1255.98 1195.27 1235.08 1211.68C1197.3 1241.36 1147.99 1262.34 1092.49 1272.36C1072.05 1275.99 1050.15 1278.43 1021.46 1280.28C975.226 1283.16 933.62 1281.71 897.797 1275.98C887.324 1274.32 877.043 1272.37 867.238 1270.16C814.12 1258.22 768.33 1240.27 724.049 1222.91C710.633 1217.65 696.761 1212.22 682.873 1207.02C624.771 1185.27 559.128 1164.17 472.971 1157.15C400.575 1151.25 293.224 1153.28 192.94 1196.46C98.9049 1236.97 22.9509 1316.77 8.23592 1390.51L6.27393 1390.12C21.1109 1315.77 97.5439 1235.38 192.149 1194.63C292.811 1151.28 400.511 1149.24 473.133 1155.16C559.533 1162.2 625.334 1183.35 683.572 1205.14C697.474 1210.35 711.354 1215.79 724.777 1221.05C768.989 1238.38 814.706 1256.3 867.675 1268.21C877.437 1270.41 887.677 1272.35 898.109 1274C933.789 1279.72 975.247 1281.15 1021.33 1278.28C1049.94 1276.44 1071.78 1274.01 1092.14 1270.39C1147.32 1260.43 1196.32 1239.59 1233.85 1210.11C1254.59 1193.82 1272.62 1175 1286 1155.68C1312.63 1117.23 1324.02 1079.03 1335.03 1042.09C1338.12 1031.73 1341.31 1021.02 1344.75 1010.69C1346.65 1004.98 1348.68 999.219 1350.79 993.554C1363.2 960.213 1377.87 932.039 1396.94 904.885C1416.1 877.628 1442.36 848.792 1472.78 815.402C1475.9 811.973 1479.08 808.483 1482.31 804.93C1520.73 762.685 1563.21 711.656 1605.15 657.36C1617.98 640.745 1630.96 623.69 1643.51 607.197C1657.37 588.989 1671.7 570.162 1685.91 551.818C1702.22 530.784 1716.75 512.5 1730.33 495.923C1870.75 324.408 2034.11 181.908 2190.33 94.675Z" fill="url(#paint20_linear_877_1214)"/>
<path d="M2189.1 81.2742L2189.97 83.0782C2025.34 161.972 1856.07 298.566 1713.36 467.701C1699.1 484.587 1684.42 502.616 1668.47 522.817C1645.36 552.11 1622.4 582.433 1600.2 611.757C1596.13 617.124 1592.07 622.487 1588.01 627.841C1547.87 680.789 1506.76 733.166 1469.14 779.307C1438.23 817.215 1408.78 854.177 1388.02 889.617C1369.71 920.91 1356.06 953.152 1345.07 991.083C1343.19 997.567 1341.4 1004.16 1339.76 1010.68C1336.67 1022.94 1333.91 1035.62 1331.23 1047.88C1322.16 1089.51 1312.78 1132.55 1287.98 1175.48C1275.4 1197.27 1257.95 1218.51 1237.52 1236.89C1200.25 1270.44 1151.54 1293.74 1096.65 1304.27C1075.49 1308.27 1052.98 1310.66 1025.83 1311.76C981.016 1313.51 938.962 1309.92 900.828 1301.1C890.22 1298.67 879.719 1295.87 869.618 1292.8C815.137 1276.21 767.891 1253.08 722.2 1230.71C708.535 1224.02 694.405 1217.1 680.276 1210.45C620.697 1182.42 553.566 1154.85 466.515 1143.05C365.049 1129.3 265.323 1140.72 185.701 1175.22C91.1368 1216.2 17.9648 1298.43 7.76279 1375.19L5.77979 1374.93C10.8758 1336.59 31.2058 1296.7 64.5728 1259.57C96.8768 1223.62 139.612 1193.01 184.906 1173.38C228.176 1154.64 276.535 1142.67 328.635 1137.81C373.451 1133.62 419.931 1134.72 466.782 1141.07C554.102 1152.91 621.405 1180.54 681.127 1208.65C695.27 1215.3 709.407 1222.22 723.078 1228.91C768.698 1251.25 815.872 1274.34 870.201 1290.88C880.257 1293.95 890.713 1296.73 901.278 1299.15C939.24 1307.94 981.116 1311.5 1025.75 1309.76C1052.8 1308.66 1075.21 1306.29 1096.28 1302.3C1150.8 1291.84 1199.18 1268.71 1236.19 1235.41C1256.46 1217.16 1273.77 1196.09 1286.25 1174.48C1310.89 1131.82 1320.24 1088.93 1329.28 1047.46C1331.95 1035.18 1334.72 1022.48 1337.82 1010.19C1339.47 1003.65 1341.26 997.035 1343.15 990.528C1354.19 952.434 1367.9 920.048 1386.3 888.608C1407.12 853.046 1436.63 816.017 1467.59 778.045C1505.2 731.92 1546.29 679.564 1586.42 626.634C1590.48 621.28 1594.54 615.918 1598.6 610.551C1620.81 581.219 1643.78 550.888 1666.9 521.578C1682.86 501.359 1697.56 483.314 1711.83 466.411C1854.72 297.064 2024.22 160.287 2189.1 81.2742Z" fill="url(#paint21_linear_877_1214)"/>
<path d="M2187.88 67.8782L2188.63 69.7292C2015.33 140.477 1839.96 271.341 1694.83 438.212C1680.03 455.229 1665.18 473.016 1649.45 492.591C1620.8 528.262 1592.85 565.439 1569.29 597.101C1535.46 642.57 1491.83 701.306 1454.48 752.338C1417.15 803.351 1394.11 839.499 1377.46 873.207C1360.02 908.519 1346.94 946.045 1337.46 987.93C1335.8 995.261 1334.26 1002.71 1332.86 1010.06C1330.14 1024.42 1327.83 1039.23 1325.6 1053.55C1318.43 1099.54 1311.02 1147.1 1288.32 1194.15C1276.51 1218.37 1259.79 1241.87 1239.96 1262.11C1203.31 1299.51 1155.19 1325.12 1100.81 1336.18C1079.37 1340.49 1056.27 1342.8 1030.19 1343.24C986.336 1343.93 943.835 1338.2 903.867 1326.22C893.099 1323.01 882.379 1319.38 872.007 1315.43C816.145 1294.16 767.417 1265.81 720.293 1238.39C706.401 1230.31 692.036 1221.95 677.69 1213.89C616.33 1179.42 547.497 1145.27 460.062 1128.96C401.801 1117.85 287.752 1106.34 178.462 1153.97C84.872 1194.77 12.883 1281.37 7.28602 1359.88L5.29102 1359.73C8.12402 1319.99 26.738 1278.66 59.119 1240.22C90.362 1203.12 132.462 1171.84 177.663 1152.14C287.443 1104.29 401.947 1115.84 460.433 1126.99C548.149 1143.35 617.16 1177.59 678.669 1212.15C693.028 1220.22 707.399 1228.58 721.298 1236.66C768.353 1264.04 817.009 1292.35 872.718 1313.56C883.045 1317.49 893.717 1321.11 904.44 1324.3C944.212 1336.23 986.509 1341.92 1030.16 1341.24C1056.12 1340.8 1079.09 1338.5 1100.41 1334.21C1154.4 1323.24 1202.16 1297.82 1238.53 1260.7C1258.21 1240.62 1274.81 1217.3 1286.52 1193.28C1309.09 1146.5 1316.48 1099.09 1323.62 1053.25C1325.86 1038.91 1328.17 1024.08 1330.9 1009.68C1332.3 1002.31 1333.85 994.841 1335.51 987.487C1345.02 945.446 1358.16 907.775 1375.67 872.32C1392.38 838.504 1415.46 802.267 1452.87 751.156C1490.23 700.118 1533.85 641.378 1567.69 595.906C1591.26 564.229 1619.22 527.035 1647.9 491.338C1663.64 471.743 1678.5 453.935 1693.33 436.898C1838.65 269.796 2014.29 138.742 2187.88 67.8782Z" fill="url(#paint22_linear_877_1214)"/>
<path d="M2186.65 54.4851L2187.3 56.3761C2005.29 119.031 1823.82 244.164 1676.31 408.722C1661.24 425.523 1645.8 443.571 1630.43 462.364C1605.75 492.532 1579.63 526.55 1550.56 566.361C1509.73 622.296 1471.44 677.28 1439.82 725.37C1406.4 776.21 1383.22 817.974 1366.89 856.805C1350.08 896.769 1337.96 938.633 1329.85 984.786C1328.41 992.958 1327.1 1001.25 1325.96 1009.44C1323.62 1026.18 1321.81 1043.39 1320.06 1060.04C1314.79 1110.15 1309.34 1161.98 1288.64 1212.83C1277.75 1239.33 1261.76 1265.09 1242.39 1287.32C1206.43 1328.57 1158.91 1356.5 1104.96 1368.09C1083.17 1372.73 1060.14 1374.9 1034.56 1374.73C991.386 1374.39 948.44 1366.52 906.911 1351.34C895.992 1347.36 885.054 1342.9 874.402 1338.06C817.142 1312.08 766.907 1278.46 718.324 1245.95C704.228 1236.52 689.653 1226.76 675.114 1217.33C612.292 1176.59 541.978 1135.98 453.608 1114.86C395.484 1100.77 281.506 1084.37 171.221 1132.73C77.0969 1174.01 7.94896 1263.1 6.80396 1344.56L4.80396 1344.54C5.37496 1303.98 22.727 1260.06 53.665 1220.87C83.844 1182.63 125.307 1150.68 170.417 1130.89C213.746 1111.89 262.085 1101.13 314.09 1098.88C359.686 1096.92 408.092 1101.77 454.076 1112.91C542.736 1134.1 613.231 1174.81 676.201 1215.65C690.751 1225.09 705.333 1234.85 719.436 1244.29C767.95 1276.75 818.117 1310.33 875.226 1336.24C885.833 1341.05 896.723 1345.5 907.595 1349.46C948.909 1364.56 991.629 1372.39 1034.57 1372.73C1060.01 1372.9 1082.9 1370.74 1104.54 1366.13C1158.06 1354.64 1205.2 1326.93 1240.88 1286.01C1260.11 1263.94 1275.99 1238.37 1286.79 1212.07C1307.38 1161.48 1312.81 1109.8 1318.07 1059.83C1319.82 1043.17 1321.63 1025.94 1323.98 1009.17C1325.13 1000.95 1326.44 992.634 1327.88 984.439C1336.02 938.137 1348.17 896.133 1365.04 856.028C1381.43 817.083 1404.66 775.216 1438.15 724.271C1469.78 676.154 1508.1 621.143 1548.95 565.182C1578.03 525.341 1604.18 491.296 1628.88 461.098C1644.28 442.282 1659.73 424.211 1674.82 407.387C1822.55 242.579 2004.32 117.25 2186.65 54.4851Z" fill="url(#paint23_linear_877_1214)"/>
<path d="M2185.42 41.0981L2185.97 43.0211C1995.25 97.6211 1807.66 217.023 1657.78 379.233C1642.3 395.98 1626.7 413.78 1611.41 432.139C1585.21 463.587 1559.19 497.437 1531.84 535.62C1491.88 591.43 1455.98 646.196 1425.15 698.401C1394.66 750.032 1372.14 796.482 1356.3 840.406C1340.15 885.224 1329 931.424 1322.23 981.65C1321.02 990.673 1319.95 999.82 1319.05 1008.84C1317.14 1028.11 1315.89 1047.88 1314.68 1067.01C1311.25 1121.08 1307.71 1177 1288.95 1231.51C1278.98 1260.3 1263.72 1288.31 1244.81 1312.53C1220.26 1343.98 1176.78 1384.68 1109.12 1400C1087.41 1404.88 1063.79 1406.97 1038.92 1406.21C996.269 1404.88 952.881 1394.86 909.959 1376.46C899.106 1371.82 887.949 1366.51 876.804 1360.69C817.457 1329.49 765.068 1290.09 714.404 1251.99C700.738 1241.71 686.607 1231.08 672.546 1220.77C607.902 1173.67 535.854 1126.52 447.159 1100.75C348.316 1071.78 245.102 1075.7 163.982 1111.48C69.3208 1153.25 3.01282 1244.84 6.31882 1329.26L4.31982 1329.34C2.67782 1287.41 18.2658 1242.02 48.2128 1201.52C77.3258 1162.14 118.152 1129.52 163.174 1109.65C206.456 1090.56 254.783 1080.4 306.813 1079.46C352.919 1078.63 401.643 1085.33 447.719 1098.83C536.707 1124.69 608.932 1171.94 673.725 1219.16C687.798 1229.48 701.934 1240.11 715.605 1250.39C766.206 1288.44 818.529 1327.79 877.73 1358.92C888.829 1364.71 899.937 1370 910.746 1374.62C953.437 1392.93 996.582 1402.89 1038.98 1404.22C1063.68 1404.97 1087.13 1402.89 1108.68 1398.05C1175.77 1382.86 1218.88 1342.49 1243.23 1311.3C1262.01 1287.25 1277.16 1259.44 1287.06 1230.86C1305.73 1176.61 1309.26 1120.83 1312.68 1066.88C1313.89 1047.74 1315.14 1027.95 1317.06 1008.64C1317.96 999.6 1319.03 990.429 1320.25 981.383C1327.04 931.017 1338.22 884.681 1354.42 839.73C1370.3 795.686 1392.87 749.125 1423.43 697.385C1454.29 645.131 1490.22 590.313 1530.22 534.458C1557.59 496.234 1583.64 462.347 1609.87 430.86C1625.19 412.475 1640.81 394.65 1656.31 377.878C1806.44 215.401 1994.35 95.7981 2185.42 41.0981Z" fill="url(#paint24_linear_877_1214)"/>
<path d="M2184.19 27.7141L2184.64 29.6621C1985.19 76.2401 1791.5 189.914 1639.26 349.745C1623.41 366.381 1607.64 383.934 1592.38 401.914C1565.57 433.529 1538.9 468.171 1513.12 504.881C1474.3 560.174 1439.76 616.211 1410.48 671.435C1382.23 724.731 1361.04 774.641 1345.72 824.018C1330.46 873.197 1320 925.179 1314.62 978.521C1313.62 988.384 1312.79 998.383 1312.14 1008.24C1310.7 1030.19 1310.07 1052.67 1309.45 1074.41C1307.81 1132.3 1306.12 1192.17 1289.26 1250.2C1280.15 1281.43 1265.61 1311.71 1247.22 1337.75C1223.33 1371.85 1180.69 1415.86 1113.27 1431.91C1091.42 1437.09 1067.88 1439.04 1043.28 1437.7C1001.04 1435.38 957.213 1423.23 913.013 1401.58C901.91 1396.15 890.536 1390 879.21 1383.32C818.678 1347.47 764.952 1302.83 712.996 1259.66C698.949 1247.99 684.425 1235.93 669.985 1224.21C603.967 1170.87 530.498 1117.29 440.712 1086.65C341.805 1052.73 238.301 1054.03 156.742 1090.24C63.0758 1131.82 -1.80121 1227.99 5.83279 1313.96L3.84079 1314.13C-0.00220603 1270.85 13.8198 1223.98 42.7618 1182.17C70.8058 1141.65 110.997 1108.36 155.931 1088.41C199.149 1069.23 247.464 1059.68 299.536 1060.04C346.103 1060.36 395.144 1068.91 441.359 1084.76C531.44 1115.5 605.082 1169.2 671.244 1222.66C685.694 1234.38 700.223 1246.45 714.274 1258.13C766.172 1301.24 819.835 1345.83 880.228 1381.6C891.508 1388.26 902.835 1394.37 913.892 1399.78C957.85 1421.31 1001.42 1433.4 1043.39 1435.7C1067.8 1437.03 1091.15 1435.1 1112.81 1429.96C1179.62 1414.06 1221.89 1370.42 1245.59 1336.6C1263.85 1310.73 1278.29 1280.66 1287.34 1249.64C1304.13 1191.85 1305.82 1132.12 1307.45 1074.35C1308.07 1052.6 1308.71 1030.1 1310.15 1008.11C1310.79 998.229 1311.63 988.207 1312.62 978.32C1318.02 924.847 1328.51 872.732 1343.81 823.426C1359.17 773.929 1380.4 723.906 1408.72 670.498C1438.03 615.201 1472.61 559.092 1511.48 503.731C1537.29 466.973 1564 432.281 1590.86 400.62C1606.14 382.611 1621.93 365.029 1637.81 348.365C1790.32 188.256 1984.36 74.3791 2184.19 27.7141Z" fill="url(#paint25_linear_877_1214)"/>
<path d="M2182.95 14.332L2183.32 16.299C1975.12 54.878 1775.33 162.826 1620.73 320.255C1604.54 336.742 1588.6 354.047 1573.36 371.688C1545.81 403.571 1519.25 438.041 1494.4 474.141C1456.62 529.017 1423.46 586.323 1395.81 644.469C1370 698.766 1349.58 753.662 1335.13 807.632C1320.58 861.984 1311.11 918.428 1307 975.396C1306.22 986.1 1305.63 996.95 1305.23 1007.65C1304.32 1032.4 1304.35 1057.72 1304.39 1082.2C1304.49 1143.77 1304.59 1207.45 1289.57 1268.89C1281.37 1302.32 1267.57 1334.86 1249.64 1362.97C1226.26 1399.75 1184.35 1447.1 1117.43 1463.82C1095.5 1469.28 1072.02 1471.09 1047.65 1469.18C1005.74 1465.89 961.47 1451.59 916.071 1426.69C904.719 1420.47 893.128 1413.49 881.621 1405.95C819.869 1365.42 764.778 1315.52 711.502 1267.27C697.105 1254.23 682.217 1240.75 667.431 1227.66C600.017 1168.09 525.11 1108.07 434.266 1072.54C335.189 1033.71 231.399 1032.42 149.501 1068.99C55.3018 1111.06 -6.67216 1209.79 5.34284 1298.65L3.35984 1298.92C-2.67616 1254.28 9.38083 1205.94 37.3088 1162.82C64.2838 1121.16 103.838 1087.19 148.685 1067.17C231.068 1030.38 335.423 1031.66 434.994 1070.68C526.127 1106.32 601.202 1166.47 668.754 1226.16C683.551 1239.26 698.442 1252.74 712.843 1265.79C766.063 1313.99 821.095 1363.84 882.717 1404.28C894.179 1411.79 905.725 1418.74 917.031 1424.94C962.181 1449.7 1006.18 1463.92 1047.8 1467.19C1071.96 1469.08 1095.22 1467.29 1116.94 1461.88C1183.23 1445.33 1224.77 1398.37 1247.95 1361.89C1265.76 1333.96 1279.48 1301.64 1287.62 1268.42C1302.59 1207.21 1302.49 1143.66 1302.39 1082.2C1302.35 1057.7 1302.31 1032.37 1303.23 1007.57C1303.63 996.853 1304.23 985.979 1305 975.253C1309.12 918.159 1318.61 861.589 1333.2 807.116C1347.68 753.028 1368.14 698.017 1394 643.61C1421.69 585.37 1454.92 527.971 1492.75 473.008C1517.64 436.849 1544.25 402.32 1571.85 370.381C1587.12 352.709 1603.08 335.373 1619.3 318.855C1774.18 161.134 1974.36 52.986 2182.95 14.332Z" fill="url(#paint26_linear_877_1214)"/>
<path d="M2162.91 3.78812C2169.17 2.78412 2175.43 1.84013 2181.72 0.953125L2182 2.93411C1942.74 36.6661 1713.97 160.074 1554.34 341.462C1394.71 522.85 1301.39 765.449 1298.32 1007.06C1297.97 1034.73 1298.74 1062.99 1299.49 1090.32C1301.27 1155.46 1303.11 1222.83 1289.87 1287.59C1280.1 1335.39 1259.86 1381.42 1232.86 1417.21C1202.48 1457.48 1164.01 1484.63 1121.58 1495.73C1083.62 1505.66 1041.95 1503.33 997.735 1488.8C961.247 1476.81 922.994 1456.55 884.039 1428.59C821.042 1383.36 764.567 1328.18 709.951 1274.82C695.224 1260.43 679.996 1245.55 664.881 1231.1C596.055 1165.31 519.7 1098.86 427.824 1058.44C355.54 1026.63 280.723 1015.91 213.688 1026.65C188.608 1030.67 164.629 1037.7 142.261 1047.75C47.5299 1090.31 -11.5431 1191.6 4.85291 1283.36L2.88391 1283.71C-5.33409 1237.72 4.95691 1187.91 31.8619 1143.47C57.7649 1100.68 96.6819 1066.03 141.443 1045.92C163.961 1035.8 188.125 1028.73 213.367 1024.68C280.79 1013.87 355.982 1024.64 428.631 1056.61C520.789 1097.16 597.305 1163.74 666.264 1229.66C681.386 1244.11 696.619 1258.99 711.35 1273.39C765.913 1326.7 822.333 1381.83 885.206 1426.96C945.072 1469.93 1034.58 1516.42 1121.08 1493.79C1218.25 1468.38 1271.68 1366.61 1287.91 1287.19C1301.1 1222.65 1299.27 1155.4 1297.49 1090.37C1296.74 1063.02 1295.97 1034.75 1296.32 1007.03C1297.86 885.987 1321.13 766.152 1365.48 650.852C1409.83 535.551 1472.86 431.012 1552.84 340.139C1632.81 249.266 1728.49 173.456 1837.22 114.813C1940.25 59.2441 2049.73 21.9331 2162.91 3.78812Z" fill="url(#paint27_linear_877_1214)"/>
<defs>
<linearGradient id="paint0_linear_877_1214" x1="16.8049" y1="1029.65" x2="2224.47" y2="1029.65" gradientUnits="userSpaceOnUse">
<stop stop-color="#43E29B"/>
<stop offset="1" stop-color="#289062"/>
</linearGradient>
<linearGradient id="paint1_linear_877_1214" x1="16.2839" y1="1015.35" x2="2219.11" y2="1015.35" gradientUnits="userSpaceOnUse">
<stop stop-color="#43E29B"/>
<stop offset="1" stop-color="#289062"/>
</linearGradient>
<linearGradient id="paint2_linear_877_1214" x1="15.7649" y1="1001.05" x2="2215.41" y2="1001.05" gradientUnits="userSpaceOnUse">
<stop stop-color="#43E29B"/>
<stop offset="1" stop-color="#289062"/>
</linearGradient>
<linearGradient id="paint3_linear_877_1214" x1="15.2419" y1="986.739" x2="2213.57" y2="986.739" gradientUnits="userSpaceOnUse">
<stop stop-color="#43E29B"/>
<stop offset="1" stop-color="#289062"/>
</linearGradient>
<linearGradient id="paint4_linear_877_1214" x1="14.7129" y1="972.399" x2="2212.29" y2="972.399" gradientUnits="userSpaceOnUse">
<stop stop-color="#43E29B"/>
<stop offset="1" stop-color="#289062"/>
</linearGradient>
<linearGradient id="paint5_linear_877_1214" x1="14.1858" y1="958.055" x2="2211" y2="958.055" gradientUnits="userSpaceOnUse">
<stop stop-color="#43E29B"/>
<stop offset="1" stop-color="#289062"/>
</linearGradient>
<linearGradient id="paint6_linear_877_1214" x1="13.6538" y1="943.708" x2="2209.72" y2="943.708" gradientUnits="userSpaceOnUse">
<stop stop-color="#43E29B"/>
<stop offset="1" stop-color="#289062"/>
</linearGradient>
<linearGradient id="paint7_linear_877_1214" x1="13.1208" y1="929.359" x2="2208.43" y2="929.359" gradientUnits="userSpaceOnUse">
<stop stop-color="#43E29B"/>
<stop offset="1" stop-color="#289062"/>
</linearGradient>
<linearGradient id="paint8_linear_877_1214" x1="12.583" y1="915.006" x2="2207.14" y2="915.006" gradientUnits="userSpaceOnUse">
<stop stop-color="#43E29B"/>
<stop offset="1" stop-color="#289062"/>
</linearGradient>
<linearGradient id="paint9_linear_877_1214" x1="12.0449" y1="900.647" x2="2205.84" y2="900.647" gradientUnits="userSpaceOnUse">
<stop stop-color="#43E29B"/>
<stop offset="1" stop-color="#289062"/>
</linearGradient>
<linearGradient id="paint10_linear_877_1214" x1="11.5068" y1="886.287" x2="2204.54" y2="886.287" gradientUnits="userSpaceOnUse">
<stop stop-color="#43E29B"/>
<stop offset="1" stop-color="#289062"/>
</linearGradient>
<linearGradient id="paint11_linear_877_1214" x1="10.9648" y1="871.921" x2="2203.24" y2="871.921" gradientUnits="userSpaceOnUse">
<stop stop-color="#43E29B"/>
<stop offset="1" stop-color="#289062"/>
</linearGradient>
<linearGradient id="paint12_linear_877_1214" x1="10.429" y1="857.554" x2="2201.93" y2="857.554" gradientUnits="userSpaceOnUse">
<stop stop-color="#43E29B"/>
<stop offset="1" stop-color="#289062"/>
</linearGradient>
<linearGradient id="paint13_linear_877_1214" x1="9.89282" y1="843.184" x2="2200.61" y2="843.184" gradientUnits="userSpaceOnUse">
<stop stop-color="#43E29B"/>
<stop offset="1" stop-color="#289062"/>
</linearGradient>
<linearGradient id="paint14_linear_877_1214" x1="9.35986" y1="828.811" x2="2199.29" y2="828.811" gradientUnits="userSpaceOnUse">
<stop stop-color="#43E29B"/>
<stop offset="1" stop-color="#289062"/>
</linearGradient>
<linearGradient id="paint15_linear_877_1214" x1="8.83203" y1="814.438" x2="2197.97" y2="814.438" gradientUnits="userSpaceOnUse">
<stop stop-color="#43E29B"/>
<stop offset="1" stop-color="#289062"/>
</linearGradient>
<linearGradient id="paint16_linear_877_1214" x1="8.30981" y1="800.066" x2="2196.64" y2="800.066" gradientUnits="userSpaceOnUse">
<stop stop-color="#43E29B"/>
<stop offset="1" stop-color="#289062"/>
</linearGradient>
<linearGradient id="paint17_linear_877_1214" x1="7.79492" y1="785.693" x2="2195.31" y2="785.693" gradientUnits="userSpaceOnUse">
<stop stop-color="#43E29B"/>
<stop offset="1" stop-color="#289062"/>
</linearGradient>
<linearGradient id="paint18_linear_877_1214" x1="7.27979" y1="771.324" x2="2193.97" y2="771.324" gradientUnits="userSpaceOnUse">
<stop stop-color="#43E29B"/>
<stop offset="1" stop-color="#289062"/>
</linearGradient>
<linearGradient id="paint19_linear_877_1214" x1="6.77393" y1="756.956" x2="2192.64" y2="756.956" gradientUnits="userSpaceOnUse">
<stop stop-color="#43E29B"/>
<stop offset="1" stop-color="#289062"/>
</linearGradient>
<linearGradient id="paint20_linear_877_1214" x1="6.27393" y1="742.594" x2="2191.3" y2="742.594" gradientUnits="userSpaceOnUse">
<stop stop-color="#43E29B"/>
<stop offset="1" stop-color="#289062"/>
</linearGradient>
<linearGradient id="paint21_linear_877_1214" x1="5.77979" y1="728.234" x2="2189.97" y2="728.234" gradientUnits="userSpaceOnUse">
<stop stop-color="#43E29B"/>
<stop offset="1" stop-color="#289062"/>
</linearGradient>
<linearGradient id="paint22_linear_877_1214" x1="5.29102" y1="713.877" x2="2188.63" y2="713.877" gradientUnits="userSpaceOnUse">
<stop stop-color="#43E29B"/>
<stop offset="1" stop-color="#289062"/>
</linearGradient>
<linearGradient id="paint23_linear_877_1214" x1="4.80396" y1="714.612" x2="2187.3" y2="714.612" gradientUnits="userSpaceOnUse">
<stop stop-color="#43E29B"/>
<stop offset="1" stop-color="#289062"/>
</linearGradient>
<linearGradient id="paint24_linear_877_1214" x1="4.20215" y1="723.732" x2="2185.97" y2="723.732" gradientUnits="userSpaceOnUse">
<stop stop-color="#43E29B"/>
<stop offset="1" stop-color="#289062"/>
</linearGradient>
<linearGradient id="paint25_linear_877_1214" x1="3.21045" y1="732.911" x2="2184.64" y2="732.911" gradientUnits="userSpaceOnUse">
<stop stop-color="#43E29B"/>
<stop offset="1" stop-color="#289062"/>
</linearGradient>
<linearGradient id="paint26_linear_877_1214" x1="1.83911" y1="742.125" x2="2183.32" y2="742.125" gradientUnits="userSpaceOnUse">
<stop stop-color="#43E29B"/>
<stop offset="1" stop-color="#289062"/>
</linearGradient>
<linearGradient id="paint27_linear_877_1214" x1="0.126221" y1="751.359" x2="2182" y2="751.359" gradientUnits="userSpaceOnUse">
<stop stop-color="#43E29B"/>
<stop offset="1" stop-color="#289062"/>
</linearGradient>
</defs>
</svg>
