<?xml version="1.0" standalone="no"?>
<!DOCTYPE svg PUBLIC "-//W3C//DTD SVG 1.1//EN" "http://www.w3.org/Graphics/SVG/1.1/DTD/svg11.dtd" >
<svg xmlns="http://www.w3.org/2000/svg" xmlns:xlink="http://www.w3.org/1999/xlink" version="1.1">
<metadata>
Created by FontForge 20201107 at Mon Sep 30 11:26:20 2024
 By 
Copyright 2019 The Sora Project Authors (https://github.com/sora-xor/sora-font)
</metadata>
<defs>
<font id="Sora-BoldItalic" horiz-adv-x="614" >
  <font-face 
    font-family="Sora Italic"
    font-weight="700"
    font-style="italic"
    font-stretch="normal"
    units-per-em="2048"
    panose-1="0 0 0 0 0 0 0 0 0 0"
    ascent="1638"
    descent="-410"
    x-height="1122"
    cap-height="1495"
    bbox="-412 -627 2578.42 2454"
    underline-thickness="102"
    underline-position="-255"
    unicode-range="U+000D-FB04"
  />
<missing-glyph horiz-adv-x="1775" 
d="M1454 -104h-1421l270 1712h1421zM420 1479l-232 -1454h1149l232 1454h-1149zM901 508h-201l48 301h126q73 0 119.5 42t55.5 107q11 67 -20 107.5t-93 40.5q-66 0 -112.5 -43.5t-55.5 -108.5h-213q23 147 135 245.5t281 98.5q157 0 237 -90t58 -231l-2 -19
q-20 -124 -109 -205.5t-229 -103.5zM860 205h-217l33 198h217z" />
    <glyph glyph-name="f_f" unicode="ff" horiz-adv-x="1513" 
d="M360 0h-305l138 860h-132l37 240h131l9 45q29 189 159.5 286t335.5 97h103l-39 -246h-117q-57 0 -91.5 -30.5t-43.5 -86.5l-10 -65h430l6 33q30 189 160.5 286t334.5 97h138l-39 -246h-152q-56 0 -91 -31t-42 -86l-8 -53h282l-36 -240h-285l-135 -860h-305l135 860h-432z
" />
    <glyph glyph-name="fi" unicode="fi" horiz-adv-x="1423" 
d="M1141 1233q-78 0 -122 47.5t-32 122.5q13 83 67.5 127.5t139.5 44.5q77 0 120.5 -48.5t31.5 -123.5q-12 -82 -65.5 -126t-139.5 -44zM358 0h-305l140 872h-130l37 240h129l7 33q30 189 160.5 286t336.5 97h111l-39 -246h-125q-57 0 -92 -30.5t-43 -86.5l-8 -53h235
l-39 -240h-235zM1145 0h-330l141 881h-133l39 241h461z" />
    <glyph glyph-name="fl" unicode="fl" horiz-adv-x="1400" 
d="M358 0h-305l135 852h-129l39 240h127l4 20q30 189 161.5 286t336.5 97h100l-39 -244h-114q-56 0 -91 -29.5t-44 -86.5l-7 -43h240l-39 -240h-239zM1130 0h-329l198 1253h-118l37 242h450z" />
    <glyph glyph-name="f_f_i" unicode="ffi" horiz-adv-x="2158" 
d="M1876 1233q-77 0 -120.5 47.5t-33.5 122.5q13 83 67.5 127.5t139.5 44.5q78 0 122 -48.5t32 -123.5q-13 -83 -67 -126.5t-140 -43.5zM358 0h-305l140 872h-132l39 240h131l7 41q30 190 160 287.5t335 97.5h103l-39 -248h-117q-117 0 -135 -116l-10 -62h432l4 29
q30 189 161.5 287t335.5 98h134l-41 -248h-148q-56 0 -91 -30t-44 -87l-8 -49h237l-37 -240h-237l-137 -872h-305l137 872h-430zM1880 0h-328l140 881h-131l38 241h461z" />
    <glyph glyph-name="f_f_l" unicode="ffl" horiz-adv-x="2140" 
d="M360 0h-305l138 860h-132l37 240h131l9 45q29 189 159.5 286t335.5 97h103l-39 -246h-117q-57 0 -91.5 -30.5t-43.5 -86.5l-10 -65h432l2 12q29 189 159 286t336 97h99l-39 -244h-113q-57 0 -91.5 -29.5t-41.5 -86.5l-6 -35h237l-39 -240h-235l-137 -860h-305l137 860
h-434zM1870 0h-328l197 1253h-123l39 242h450l-37 -242h-2z" />
    <glyph glyph-name="f_f_j" unicode="ffj" horiz-adv-x="2160" 
d="M1888 1237q-77 0 -120 47.5t-31 122.5q13 83 67.5 127.5t139.5 44.5q77 0 120 -48.5t31 -123.5q-12 -82 -66.5 -126t-140.5 -44zM358 0h-305l140 872h-130l37 240h131l7 41q30 190 160.5 287.5t334.5 97.5h103l-39 -248h-117q-56 0 -91 -29.5t-44 -86.5l-10 -62h432l4 29
q30 189 161.5 287t335.5 98h109l-41 -248h-123q-56 0 -91 -30t-42 -87l-8 -49h254l-39 -240h-252l-139 -872h-305l137 872h-430zM1343 -416h-57l45 279h70q75 0 120.5 39.5t57.5 113.5l137 865h-139l39 241h457l-175 -1095q-35 -217 -180.5 -330t-374.5 -113z" />
    <glyph glyph-name="f_j" unicode="fj" horiz-adv-x="1425" 
d="M1153 1237q-77 0 -120.5 47.5t-33.5 122.5q13 83 67.5 127.5t139.5 44.5q78 0 122 -48.5t32 -123.5q-13 -83 -67 -126.5t-140 -43.5zM358 0h-305l140 872h-130l37 240h129l7 33q30 189 160.5 286t336.5 97h109l-39 -246h-123q-57 0 -91.5 -30.5t-43.5 -86.5l-8 -53h251
l-36 -240h-254zM606 -416h-57l45 279h70q74 0 120 40t58 113l135 865h-135l39 241h452l-37 -241h-2l-135 -854q-33 -216 -178.5 -329.5t-374.5 -113.5z" />
    <glyph glyph-name=".notdef" horiz-adv-x="1775" 
d="M1454 -104h-1421l270 1712h1421zM420 1479l-232 -1454h1149l232 1454h-1149zM901 508h-201l48 301h126q73 0 119.5 42t55.5 107q11 67 -20 107.5t-93 40.5q-66 0 -112.5 -43.5t-55.5 -108.5h-213q23 147 135 245.5t281 98.5q157 0 237 -90t58 -231l-2 -19
q-20 -124 -109 -205.5t-229 -103.5zM860 205h-217l33 198h217z" />
    <glyph glyph-name=".null" horiz-adv-x="0" 
 />
    <glyph glyph-name="nonmarkingreturn" horiz-adv-x="682" 
 />
    <glyph glyph-name="NULL" horiz-adv-x="1228" 
 />
    <glyph glyph-name="NULL" horiz-adv-x="1228" 
 />
    <glyph glyph-name="CR" unicode="&#xd;" horiz-adv-x="1228" 
 />
    <glyph glyph-name="space" unicode=" " horiz-adv-x="430" 
 />
    <glyph glyph-name="exclam" unicode="!" horiz-adv-x="649" 
d="M455 506h-336l157 989h336zM399 0h-385l54 330h385z" />
    <glyph glyph-name="quotedbl" unicode="&#x22;" horiz-adv-x="1013" 
d="M442 862h-297l101 633h297zM905 862h-297l101 633h297z" />
    <glyph glyph-name="numbersign" unicode="#" horiz-adv-x="1478" 
d="M377 0h-260l119 379h-228l35 217h260l96 303h-227l35 217h260l119 379h258l-119 -379h260l119 379h260l-119 -379h225l-34 -217h-258l-97 -303h226l-35 -217h-258l-119 -379h-258l119 379h-260zM563 596h260l95 303h-261z" />
    <glyph glyph-name="dollar" unicode="$" horiz-adv-x="1333" 
d="M618 -264h-268l43 268q-201 33 -308 156t-77 309h301q-17 -103 60 -160t209 -57q66 0 115.5 8t94 27t72 55.5t35.5 89.5q7 44 -9 76.5t-51 53t-79 31.5t-101 17l-102 8q-208 19 -321.5 140t-84.5 309q30 187 154 291.5t320 128.5l32 207h269l-33 -213q174 -38 264.5 -159
t63.5 -296h-302q15 94 -44.5 151.5t-165.5 57.5q-229 0 -254 -168q-12 -74 37 -121t137 -55l102 -8q153 -14 265 -68.5t168.5 -153.5t35.5 -229q-59 -388 -537 -434z" />
    <glyph glyph-name="percent" unicode="%" horiz-adv-x="1824" 
d="M389 674q-161 0 -243.5 113.5t-55.5 287.5l8 53q30 189 138.5 294.5t287.5 105.5q162 0 244.5 -113.5t54.5 -286.5l-8 -53q-30 -190 -138.5 -295.5t-287.5 -105.5zM662 0h-277l780 1495h277zM424 893q38 0 65.5 15.5t45 45.5t28 64.5t17.5 81.5q8 58 5.5 105t-27 76.5
t-69.5 29.5q-38 0 -66 -16t-45 -47t-26.5 -64.5t-17.5 -81.5q-33 -209 90 -209zM1294 -35q-162 0 -244.5 113.5t-54.5 286.5l9 53q30 189 138.5 295t287.5 106q161 0 242.5 -114t53.5 -287l-8 -53q-30 -189 -138 -294.5t-286 -105.5zM1329 182q72 0 106 54.5t50 152.5
q33 211 -90 211q-73 0 -107.5 -54.5t-50.5 -154.5q-30 -209 92 -209z" />
    <glyph glyph-name="ampersand" unicode="&#x26;" horiz-adv-x="1497" 
d="M473 -43q-117 0 -213.5 35.5t-160 98.5t-91 154.5t-10.5 200.5l4 29q26 153 107 253.5t223 170.5q-29 97 -13 201q17 108 67.5 189t129.5 130t177.5 73t217.5 24q125 0 287 -25l-41 -270q-173 24 -311 24q-94 0 -154.5 -39.5t-73.5 -122.5q-12 -79 13.5 -140.5
t87.5 -141.5l242 -316q70 129 102 322h-191l37 240h584l-39 -240h-104q-61 -338 -220 -543l203 -264h-364l-54 70q-193 -113 -442 -113zM305 479q-19 -112 46.5 -182t183.5 -70q130 0 221 49l-260 340q-40 50 -68 93q-102 -83 -123 -230z" />
    <glyph glyph-name="quotesingle" unicode="'" horiz-adv-x="548" 
d="M442 862h-297l101 633h297z" />
    <glyph glyph-name="parenleft" unicode="(" horiz-adv-x="804" 
d="M606 -373h-373q-100 159 -146 318t-45 321.5t30 354.5q48 306 157 528t322 440h364q-153 -163 -249.5 -296.5t-167.5 -302t-103 -369.5q-30 -195 -26 -360.5t62 -323.5t175 -310z" />
    <glyph glyph-name="parenright" unicode=")" horiz-adv-x="804" 
d="M-172 -373q165 152 273 312t164 319.5t87 362.5q20 122 21 230.5t-12.5 200.5t-45.5 184.5t-73 174.5t-101 178h363q144 -217 183.5 -442.5t-9.5 -525.5q-49 -306 -153 -534t-324 -460h-373z" />
    <glyph glyph-name="asterisk" unicode="*" horiz-adv-x="1167" 
d="M541 1622l250 2l-103 -383l-219 -117l-328 156l162 215l186 -164l46 25zM1139 963l-158 -220l-274 228l36 233l349 228l86 -218l-265 -102l-8 -49zM174 678l-92 217l377 156l184 -117l-20 -383l-248 2l78 266l-39 25z" />
    <glyph glyph-name="plus" unicode="+" horiz-adv-x="1220" 
d="M688 190h-291l62 381h-363l41 267h363l61 383h291l-61 -383h364l-41 -267h-364z" />
    <glyph glyph-name="comma" unicode="," horiz-adv-x="559" 
d="M520 272l-340 -622l-235 98l315 627z" />
    <glyph glyph-name="hyphen" unicode="-" horiz-adv-x="1042" 
d="M965 434h-865l45 291h865z" />
    <glyph glyph-name="period" unicode="." horiz-adv-x="559" 
d="M430 0h-360l59 367h360z" />
    <glyph glyph-name="slash" unicode="/" horiz-adv-x="833" 
d="M225 -123h-334l697 1720h336z" />
    <glyph glyph-name="zero" unicode="0" horiz-adv-x="1562" 
d="M653 -39q-196 0 -333 95t-193 260.5t-23 373.5l19 117q55 346 254.5 539.5t525.5 193.5q196 0 333 -96.5t192.5 -263t21.5 -373.5l-18 -117q-54 -345 -253 -537t-526 -192zM702 270q92 0 163.5 35.5t118.5 102t76 148.5t46 189q18 99 9.5 187.5t-36 154.5t-85.5 105
t-140 39q-75 0 -136 -24.5t-104.5 -66t-76.5 -104t-53.5 -131.5t-34.5 -155q-18 -99 -9.5 -186.5t36.5 -152.5t86 -103t140 -38z" />
    <glyph glyph-name="one" unicode="1" horiz-adv-x="876" 
d="M575 0h-333l190 1204h-293l47 291h627z" />
    <glyph glyph-name="two" unicode="2" horiz-adv-x="1294" 
d="M1067 0h-1067l49 307q12 79 43.5 141.5t83.5 110t112.5 82.5t143.5 68l256 104q97 39 151 95t68 147q15 90 -37.5 147.5t-146.5 57.5q-105 0 -171 -57.5t-83 -162.5h-324q38 243 201.5 371.5t421.5 128.5q234 0 367 -130.5t100 -342.5l-4 -25q-15 -95 -53.5 -170
t-101.5 -131.5t-135 -98t-171 -81.5l-256 -104q-62 -25 -94 -53.5t-39 -79.5l-6 -35h737z" />
    <glyph glyph-name="three" unicode="3" horiz-adv-x="1294" 
d="M510 -39q-161 0 -279.5 60t-174.5 172t-33 258h323q-15 -94 44 -152.5t163 -58.5q114 0 186.5 57t89.5 164q15 99 -43 162t-161 63q-109 0 -197 -63l-111 256l500 295l-14 34h-598l45 287h1007l-49 -311l-458 -264q207 -22 321 -144t84 -311l-4 -25q-39 -239 -207.5 -359
t-433.5 -120z" />
    <glyph glyph-name="four" unicode="4" horiz-adv-x="1376" 
d="M1040 0h-311l45 287h-782l55 350l709 901l233 -170l-606 -772l20 -43h414l82 524h311l-82 -524h170l-43 -266h-170z" />
    <glyph glyph-name="five" unicode="5" horiz-adv-x="1318" 
d="M543 -39q-249 0 -389.5 141.5t-104.5 370.5h326q-17 -103 44 -168t171 -65q123 0 199.5 67.5t95.5 190.5q19 114 -40 188t-169 74q-79 0 -136.5 -25t-103.5 -84h-313l209 844h907l-45 -287h-653l-74 -293q125 89 303 89q225 0 350.5 -138.5t91.5 -355.5l-4 -27
q-41 -256 -215.5 -389t-449.5 -133z" />
    <glyph glyph-name="six" unicode="6" horiz-adv-x="1406" 
d="M608 -43q-186 0 -314 94t-178.5 256t-17.5 363l13 86q57 360 283 555.5t587 195.5q146 0 291 -16l-45 -281q-192 17 -301 17q-193 0 -318 -107.5t-174 -300.5q145 180 426 180q223 0 344 -141.5t86 -361.5q-42 -264 -221 -401.5t-461 -137.5zM645 236q133 0 217.5 64.5
t102.5 188.5q19 113 -47.5 183.5t-184.5 70.5q-139 0 -226.5 -64t-107.5 -190q-17 -113 52.5 -183t193.5 -70z" />
    <glyph glyph-name="seven" unicode="7" horiz-adv-x="1243" 
d="M530 0h-356l713 1190l-19 31h-454l-39 -242h-271l82 516h1133l-35 -213z" />
    <glyph glyph-name="eight" unicode="8" horiz-adv-x="1366" 
d="M553 -43q-168 0 -293.5 52.5t-189.5 158.5t-41 248q22 141 97.5 232t211.5 138l4 27q-194 83 -158 313q18 110 71.5 191t136.5 128.5t184.5 70t226.5 22.5q116 0 212 -27.5t163 -78.5t98 -130t16 -176q-19 -120 -80.5 -196t-175.5 -117l-4 -27q119 -45 167.5 -140.5
t27.5 -229.5q-19 -122 -77.5 -211.5t-148.5 -143t-201 -79t-247 -25.5zM707 922q229 0 256 172q12 79 -46 124.5t-157 45.5q-228 0 -256 -170q-12 -81 46 -126.5t157 -45.5zM598 233q128 0 209.5 54.5t99.5 167.5q17 99 -52 159t-187 60q-129 0 -210.5 -54t-99.5 -165
q-17 -102 52 -162t188 -60z" />
    <glyph glyph-name="nine" unicode="9" horiz-adv-x="1406" 
d="M793 1540q185 0 313.5 -94.5t179 -257t17.5 -363.5l-13 -86q-57 -360 -283 -555.5t-587 -195.5q-146 0 -291 16l45 283q192 -17 301 -17q194 0 319 106t173 298q-146 -178 -426 -178q-223 0 -344 141.5t-86 361.5q42 264 221.5 402.5t460.5 138.5zM756 1260
q-133 0 -217.5 -65t-102.5 -189q-19 -113 47.5 -183.5t184.5 -70.5q138 0 225.5 64t107.5 190q17 113 -52 183.5t-193 70.5z" />
    <glyph glyph-name="colon" unicode=":" horiz-adv-x="667" 
d="M539 682h-361l60 367h360zM430 0h-360l59 367h360z" />
    <glyph glyph-name="semicolon" unicode=";" horiz-adv-x="559" 
d="M551 682h-361l60 367h360zM522 272l-340 -622l-235 98l315 627z" />
    <glyph glyph-name="less" unicode="&#x3c;" horiz-adv-x="1220" 
d="M123 461l24 157l41 267l981 297l-43 -277l-733 -215l-4 -31l664 -213l-45 -282z" />
    <glyph glyph-name="equal" unicode="=" horiz-adv-x="1208" 
d="M1147 764h-1006l41 266h1006zM1077 322h-1005l41 266h1005z" />
    <glyph glyph-name="greater" unicode="&#x3e;" horiz-adv-x="1220" 
d="M1057 461l-981 -297l43 276l733 215l4 31l-663 213l45 283l886 -297l-24 -158z" />
    <glyph glyph-name="question" unicode="?" horiz-adv-x="1153" 
d="M647 502h-325l57 356h190q103 0 168 52t78 149q14 87 -32.5 142.5t-133.5 55.5q-97 0 -158.5 -52.5t-76.5 -149.5h-316q39 237 197.5 361t409.5 124q217 0 339.5 -127t90.5 -328l-5 -24q-58 -367 -460 -434zM590 0h-373l53 330h373z" />
    <glyph glyph-name="at" unicode="@" horiz-adv-x="2308" 
d="M958 -504q-227 0 -411 75.5t-302.5 208.5t-168.5 323t-15 411q78 493 399.5 757.5t831.5 264.5q218 0 396.5 -67t295.5 -187t168 -293t19 -377q-22 -139 -64.5 -248t-109.5 -192.5t-165.5 -128.5t-223.5 -45q-117 0 -193.5 61.5t-93.5 165.5q-131 -215 -387 -215
q-133 0 -226.5 63.5t-132 175t-16.5 251.5l4 32q36 225 169 351.5t349 126.5q127 0 214 -65t118 -177l33 205h233l-96 -606q-9 -57 12.5 -93t69.5 -36q52 0 92 20.5t64 50t43 82.5t28.5 97.5t20.5 115.5q24 152 -14 282t-126 219.5t-221.5 140t-296.5 50.5
q-389 0 -633.5 -202t-304.5 -580q-35 -224 40 -400.5t242.5 -274t397.5 -97.5q152 0 281 29l-39 -248q-138 -27 -281 -27zM1030 250q115 0 184.5 66t88.5 186l6 41q17 100 -38.5 164.5t-158.5 64.5q-114 0 -183.5 -68t-88.5 -188q-19 -116 33.5 -191t156.5 -75z" />
    <glyph glyph-name="A" unicode="A" horiz-adv-x="1601" 
d="M244 0h-336l731 1495h543l274 -1495h-348l-64 371h-624zM553 649h446l-96 572h-78z" />
    <glyph glyph-name="B" unicode="B" horiz-adv-x="1421" 
d="M672 -10h-621l240 1517h561q231 0 364.5 -113t102.5 -304l-4 -31q-33 -203 -199 -297q93 -49 136.5 -130t25.5 -190l-4 -28q-23 -145 -107 -242t-208 -139.5t-287 -42.5zM831 1245h-256l-57 -364h256q88 0 142.5 47t68.5 133q12 80 -31.5 132t-122.5 52zM788 627h-311
l-59 -375h311q91 0 147.5 48.5t71.5 139.5q12 82 -32.5 134.5t-127.5 52.5z" />
    <glyph glyph-name="C" unicode="C" horiz-adv-x="1640" 
d="M727 -39q-221 0 -380.5 98.5t-229.5 273.5t-35 396l6 45q59 366 286.5 566t592.5 200q292 0 463.5 -162.5t156.5 -437.5h-336q-1 137 -93 212t-243 75q-206 0 -330.5 -126.5t-160.5 -350.5q-20 -135 15.5 -243.5t123 -170.5t213.5 -62q345 0 438 285h338
q-82 -298 -293 -448t-532 -150z" />
    <glyph glyph-name="D" unicode="D" horiz-adv-x="1605" 
d="M604 -8h-555l240 1515h555q172 0 313.5 -53.5t234 -148.5t133 -232.5t15.5 -298.5l-8 -45q-56 -361 -299.5 -549t-628.5 -188zM813 1194h-238l-141 -889h238q218 0 354 116t170 331q31 193 -77 317.5t-306 124.5z" />
    <glyph glyph-name="E" unicode="E" horiz-adv-x="1216" 
d="M989 0h-940l238 1495h925l-43 -278h-600l-49 -318h563l-43 -278h-565l-53 -342h612z" />
    <glyph glyph-name="F" unicode="F" horiz-adv-x="1146" 
d="M385 0h-336l238 1495h897l-45 -278h-561l-54 -336h537l-45 -279h-535z" />
    <glyph glyph-name="G" unicode="G" horiz-adv-x="1705" 
d="M750 -39q-171 0 -308.5 57.5t-225.5 158t-124.5 244t-9.5 310.5l6 45q59 365 287 564.5t592 199.5q294 0 467 -158.5t155 -429.5h-336q0 133 -92 204t-243 71q-208 0 -333 -125.5t-161 -349.5q-33 -211 70.5 -348.5t302.5 -137.5q244 0 370 142l21 129h-391l39 241h823
l-39 -241h-123l-41 -254q-136 -175 -303.5 -248.5t-402.5 -73.5z" />
    <glyph glyph-name="H" unicode="H" horiz-adv-x="1638" 
d="M385 0h-336l238 1495h336l-95 -596h631l94 596h336l-237 -1495h-336l96 604h-631z" />
    <glyph glyph-name="I" unicode="I" horiz-adv-x="679" 
d="M389 0h-336l238 1495h336z" />
    <glyph glyph-name="J" unicode="J" horiz-adv-x="1316" 
d="M496 -39q-159 0 -273.5 71t-165 196.5t-26.5 283.5l12 76h332l-13 -94q-17 -95 35 -157.5t148 -62.5q105 0 170 57.5t84 162.5l110 708h-594l47 293h930l-47 -293l-108 -690q-41 -264 -207.5 -407.5t-433.5 -143.5z" />
    <glyph glyph-name="K" unicode="K" horiz-adv-x="1540" 
d="M385 0h-336l238 1495h336l-111 -700l662 700h385l-613 -647l492 -848h-406l-405 698h-131z" />
    <glyph glyph-name="L" unicode="L" horiz-adv-x="1142" 
d="M971 0h-922l238 1495h336l-191 -1200h586z" />
    <glyph glyph-name="M" unicode="M" horiz-adv-x="1988" 
d="M356 0h-307l238 1495h463l206 -840h39l473 840h471l-237 -1495h-332l180 1151l-479 -848h-321l-211 840z" />
    <glyph glyph-name="N" unicode="N" horiz-adv-x="1794" 
d="M360 0h-311l238 1495h551l368 -1223h31l193 1223h315l-238 -1495h-555l-368 1223h-29z" />
    <glyph glyph-name="O" unicode="O" horiz-adv-x="1769" 
d="M758 -39q-171 0 -310.5 57t-228.5 157.5t-126.5 243.5t-10.5 310l6 45q58 370 298 568t622 198q171 0 310 -57t228 -157t126.5 -243t10.5 -309l-6 -45q-58 -371 -297.5 -569.5t-621.5 -198.5zM807 274q222 0 359 125.5t173 350.5q34 207 -73 342t-308 135
q-223 0 -360.5 -125t-173.5 -352q-32 -207 74 -341.5t309 -134.5z" />
    <glyph glyph-name="P" unicode="P" horiz-adv-x="1368" 
d="M387 0h-336l238 1507h547q172 0 299.5 -64t188.5 -184.5t36 -275.5l-4 -33q-42 -259 -224 -390.5t-468 -131.5h-209zM807 1217h-227l-80 -498h227q122 0 197 64t94 184q17 109 -42.5 179.5t-168.5 70.5z" />
    <glyph glyph-name="Q" unicode="Q" horiz-adv-x="1769" 
d="M1194 -446h-209q-110 0 -186 17t-132 60t-75 122.5t0 197.5l4 24q-276 50 -418.5 255t-95.5 499l6 45q58 370 298 568t622 198q171 0 310 -57t228 -157t126.5 -243t10.5 -309l-6 -45q-52 -332 -251.5 -527.5t-516.5 -232.5l-6 -32q-9 -61 19.5 -92t89.5 -31h223zM807 274
q222 0 359 125.5t173 350.5q34 207 -73 342t-308 135q-223 0 -360.5 -125t-173.5 -352q-32 -207 74 -341.5t309 -134.5z" />
    <glyph glyph-name="R" unicode="R" horiz-adv-x="1497" 
d="M387 0h-336l238 1507h588q172 0 300.5 -60t191 -175t38.5 -266l-6 -33q-50 -325 -350 -438l297 -535h-390l-251 479h-244zM860 1223h-280l-76 -480h278q117 0 189.5 62t91.5 178q17 104 -40 172t-163 68z" />
    <glyph glyph-name="S" unicode="S" horiz-adv-x="1366" 
d="M561 -39q-131 0 -240 34.5t-184 97.5t-109 157.5t-16 208.5h328q-17 -102 59.5 -158.5t206.5 -56.5q286 0 318 194q6 42 -10 73.5t-50.5 50t-76.5 29t-97 15.5l-112 10q-215 18 -331.5 142t-84.5 317q36 231 200.5 348t423.5 117q158 0 276 -59.5t174.5 -171.5t33.5 -256
h-326q15 92 -43.5 148t-161.5 56q-104 0 -169.5 -45t-82.5 -137q-10 -71 37.5 -115.5t130.5 -50.5l113 -10q241 -21 377 -141.5t104 -319.5q-19 -125 -78 -217.5t-150.5 -149t-206 -83.5t-253.5 -27z" />
    <glyph glyph-name="T" unicode="T" horiz-adv-x="1265" 
d="M682 0h-336l191 1202h-420l47 293h1177l-47 -293h-422z" />
    <glyph glyph-name="U" unicode="U" horiz-adv-x="1505" 
d="M588 -39q-189 0 -325.5 82.5t-196.5 230.5t-31 334l139 887h336l-141 -899q-23 -141 52.5 -231.5t215.5 -90.5q155 0 250.5 84t118.5 238l143 899h336l-142 -887q-47 -312 -243.5 -479.5t-511.5 -167.5z" />
    <glyph glyph-name="V" unicode="V" horiz-adv-x="1515" 
d="M926 0h-547l-219 1495h348l156 -1223h69l518 1223h336z" />
    <glyph glyph-name="W" unicode="W" horiz-adv-x="2193" 
d="M803 0h-510l-131 1495h346l84 -1223h53l399 1168h347l63 -1168h51l437 1223h327l-565 -1495h-520l-54 901z" />
    <glyph glyph-name="X" unicode="X" horiz-adv-x="1478" 
d="M258 0h-358l624 782l-346 713h371l215 -467h49l358 467h359l-580 -725l391 -770h-370l-258 528h-47z" />
    <glyph glyph-name="Y" unicode="Y" horiz-adv-x="1345" 
d="M735 0h-329l90 567h-72l-291 928h344l197 -676h65l383 676h326l-549 -928h-76z" />
    <glyph glyph-name="Z" unicode="Z" horiz-adv-x="1325" 
d="M1135 0h-1176l41 252l915 942l-16 27h-719l43 274h1149l-41 -252l-915 -942l14 -25h748z" />
    <glyph glyph-name="bracketleft" unicode="[" horiz-adv-x="804" 
d="M535 -373h-543l309 1962h543l-43 -272h-228l-223 -1417h228z" />
    <glyph glyph-name="backslash" unicode="\" horiz-adv-x="833" 
d="M662 -123h-332l-176 1720h331z" />
    <glyph glyph-name="bracketright" unicode="]" horiz-adv-x="804" 
d="M-100 -373l43 273h227l227 1417h-227l43 272h541l-312 -1962h-542z" />
    <glyph glyph-name="asciicircum" unicode="^" horiz-adv-x="1222" 
d="M379 637h-283l471 874h398l192 -874h-276l-123 639h-51z" />
    <glyph glyph-name="underscore" unicode="_" horiz-adv-x="1208" 
d="M1159 -350h-1206l39 246h1206z" />
    <glyph glyph-name="grave" unicode="`" 
d="M592 1253h-295l-164 428h346z" />
    <glyph glyph-name="a" unicode="a" horiz-adv-x="1220" 
d="M373 -29q-174 0 -273 100t-73 261q57 356 563 356h203v4q12 75 -29.5 123.5t-118.5 48.5q-168 0 -414 -16l43 276q194 17 373 17q230 0 361 -125.5t98 -327.5l-111 -688h-260l33 211q-115 -240 -395 -240zM510 199q186 0 235 202l19 105h-207q-84 0 -137.5 -39.5
t-65.5 -116.5q-10 -68 34 -109.5t122 -41.5z" />
    <glyph glyph-name="b" unicode="b" horiz-adv-x="1441" 
d="M741 -37q-152 0 -253 80t-132 217l-41 -260h-260l238 1495h328l-84 -537q145 197 411 197q149 0 253 -74.5t145 -203.5t16 -291l-8 -45q-42 -272 -199 -425t-414 -153zM698 238q140 0 223 86t107 239q22 138 -40 229t-187 91q-137 0 -223 -76.5t-109 -214.5l-10 -76
q-20 -123 47 -200.5t192 -77.5z" />
    <glyph glyph-name="c" unicode="c" horiz-adv-x="1251" 
d="M555 -39q-167 0 -286.5 74t-170.5 206t-24 298l6 39q41 278 213.5 430.5t449.5 152.5q223 0 351.5 -126t107.5 -335h-321q4 83 -46 132t-135 49q-244 0 -297 -324q-21 -136 30.5 -225.5t166.5 -89.5q195 0 248 186h321q-50 -231 -208.5 -349t-405.5 -118z" />
    <glyph glyph-name="d" unicode="d" horiz-adv-x="1439" 
d="M514 -37q-156 0 -266 74t-155 203.5t-19 291.5l6 48q42 271 198.5 423t413.5 152q119 0 203.5 -54.5t128.5 -150.5l86 545h328l-238 -1495h-260l37 225q-70 -127 -187 -194.5t-276 -67.5zM639 238q135 0 218.5 76t107.5 214l12 76q19 121 -47.5 200t-188.5 79
q-142 0 -227 -86.5t-111 -239.5q-21 -139 44 -229t192 -90z" />
    <glyph glyph-name="e" unicode="e" horiz-adv-x="1277" 
d="M563 -39q-168 0 -289 74t-174.5 206.5t-27.5 299.5l6 41q44 277 216 428t447 151q162 0 278.5 -74t166 -205t24.5 -296l-18 -111h-819q5 -112 66 -180t167 -68q91 0 151 26.5t93 94.5h301q-142 -387 -588 -387zM698 895q-217 0 -295 -233h506q-3 105 -58 169t-153 64z
" />
    <glyph glyph-name="f" unicode="f" horiz-adv-x="782" 
d="M358 0h-305l137 860h-133l37 240h133l6 33q30 189 160.5 286t335.5 97h143l-38 -246h-158q-56 0 -91 -31t-42 -86l-8 -53h288l-37 -240h-290z" />
    <glyph glyph-name="g" unicode="g" horiz-adv-x="1413" 
d="M428 -446q-158 0 -319 22l43 277q180 -25 313 -25q176 0 287 68.5t135 216.5l14 88q-141 -209 -414 -209q-148 0 -251.5 73t-144.5 199.5t-17 284.5l8 47q42 265 198 412t412 147q143 0 236.5 -75.5t126.5 -205.5l39 248h260l-156 -989q-45 -289 -247.5 -434t-522.5 -145
zM635 268q132 0 212.5 74.5t102.5 210.5l11 59q19 119 -45.5 196t-182.5 77q-137 0 -220 -83t-107 -229q-21 -132 42.5 -218.5t186.5 -86.5z" />
    <glyph glyph-name="h" unicode="h" horiz-adv-x="1333" 
d="M385 0h-330l238 1495h330l-88 -553q120 215 364 215h14q122 0 199.5 -70.5t101.5 -186t0 -261.5l-100 -639h-330l105 659q14 89 -31.5 147t-132.5 58q-95 0 -156 -53t-80 -149l-4 -29z" />
    <glyph glyph-name="i" unicode="i" horiz-adv-x="684" 
d="M401 1233q-90 0 -128 46.5t-25 123.5q13 78 65.5 125t141.5 47t126.5 -46.5t24.5 -125.5q-11 -77 -63.5 -123.5t-141.5 -46.5zM406 0h-330l141 881h-149l38 241h478z" />
    <glyph glyph-name="j" unicode="j" horiz-adv-x="694" 
d="M422 1237q-78 0 -122 47.5t-32 122.5q13 83 67.5 127.5t139.5 44.5q78 0 121.5 -48.5t32.5 -123.5q-13 -83 -67 -126.5t-140 -43.5zM-125 -420h-59l45 277h71q74 0 120.5 40t58.5 113l137 871h-156l37 241h475l-174 -1102q-35 -215 -180.5 -327.5t-374.5 -112.5z" />
    <glyph glyph-name="k" unicode="k" horiz-adv-x="1335" 
d="M385 0h-330l238 1495h330l-144 -905l492 532h342l-445 -479l346 -643h-368l-271 524h-106z" />
    <glyph glyph-name="l" unicode="l" horiz-adv-x="645" 
d="M375 0h-330l199 1253h-133l39 242h462z" />
    <glyph glyph-name="m" unicode="m" horiz-adv-x="2013" 
d="M385 0h-328l176 1122h261l-45 -284q119 319 417 319h15q121 0 196.5 -68t102.5 -188q121 256 391 256h14q123 0 202 -70.5t104.5 -186t2.5 -261.5l-102 -639h-328l105 657q14 89 -28 148t-124 59q-94 0 -152 -57t-73 -156l-102 -651h-330l104 657q14 90 -26.5 148.5
t-122.5 58.5q-95 0 -153 -57t-73 -156z" />
    <glyph glyph-name="n" unicode="n" horiz-adv-x="1335" 
d="M385 0h-328l176 1122h261l-45 -291q118 326 432 326h14q124 0 206 -69.5t110.5 -185.5t5.5 -261l-103 -641h-328l105 659q14 88 -32 146.5t-132 58.5q-99 0 -161 -55.5t-77 -155.5z" />
    <glyph glyph-name="o" unicode="o" horiz-adv-x="1394" 
d="M600 -39q-177 0 -306 72t-188.5 203.5t-33.5 298.5l8 47q44 280 229.5 429.5t478.5 149.5q176 0 306 -73t189 -205.5t32 -300.5l-8 -47q-42 -279 -228 -426.5t-479 -147.5zM643 238q143 0 229 84t111 235q24 142 -42 235t-196 93q-144 0 -230 -87t-112 -241
q-22 -138 44.5 -228.5t195.5 -90.5z" />
    <glyph glyph-name="p" unicode="p" horiz-adv-x="1507" 
d="M385 -410h-330l244 1532h260l-45 -276q147 309 487 309q152 0 258.5 -74.5t149.5 -204t18 -290.5l-8 -47q-42 -271 -196.5 -423.5t-409.5 -152.5q-118 0 -204.5 50t-133.5 141zM764 238q140 0 223 86t107 239q22 138 -40.5 229t-187.5 91q-137 0 -223 -76.5t-108 -214.5
l-13 -76q-19 -123 49 -200.5t193 -77.5z" />
    <glyph glyph-name="q" unicode="q" horiz-adv-x="1519" 
d="M1137 -410h-328l86 545q-143 -172 -393 -172q-153 0 -259.5 75t-150 205t-18.5 292l8 47q42 270 202 421.5t421 151.5q150 0 246 -81.5t126 -221.5l43 270h260zM641 240q135 0 218.5 76t105.5 214l12 76q20 121 -46 200t-188 79q-142 0 -226.5 -86.5t-110.5 -239.5
q-22 -138 43 -228.5t192 -90.5z" />
    <glyph glyph-name="r" unicode="r" horiz-adv-x="860" 
d="M385 0h-328l176 1122h261l-62 -387q48 189 160.5 295.5t292.5 106.5h43l-43 -283h-82q-136 0 -221 -74t-107 -209z" />
    <glyph glyph-name="s" unicode="s" horiz-adv-x="1138" 
d="M477 -35q-220 0 -349.5 98.5t-107.5 276.5h291q-3 -72 55 -104.5t154 -32.5q47 0 80 4t64.5 15.5t50 35t24.5 59.5q4 26 -4 45.5t-23 31.5t-41 21.5t-50.5 14t-59.5 8.5l-86 8q-177 20 -275.5 110.5t-74.5 238.5q30 184 168 272t354 88q135 0 235.5 -42t154 -127
t40.5 -202h-293q3 65 -47 98t-131 33q-52 0 -88 -8t-63 -32.5t-33 -65.5q-7 -51 33 -74.5t116 -32.5l86 -8q191 -21 297.5 -114t81.5 -248q-16 -99 -64 -171t-123 -114t-167 -62t-205 -20z" />
    <glyph glyph-name="t" unicode="t" horiz-adv-x="888" 
d="M702 -14h-157q-208 0 -322 126.5t-82 325.5l70 445h-172l39 239h172l47 303h305l-47 -303h326l-39 -239h-326l-72 -457q-12 -71 27 -117.5t111 -46.5h163z" />
    <glyph glyph-name="u" unicode="u" horiz-adv-x="1329" 
d="M446 -35h-14q-124 0 -205.5 68t-110 181.5t-5.5 256.5l102 651h330l-107 -667q-14 -86 30 -141.5t128 -55.5q96 0 155 53.5t74 151.5l105 659h329l-178 -1122h-260l41 264q-118 -299 -414 -299z" />
    <glyph glyph-name="v" unicode="v" horiz-adv-x="1222" 
d="M799 0h-520l-160 1122h338l104 -850h49l340 850h316z" />
    <glyph glyph-name="w" unicode="w" horiz-adv-x="1888" 
d="M702 0h-456l-121 1122h319l78 -850h43l285 813h358l47 -813h43l326 850h299l-448 -1122h-457l-49 737z" />
    <glyph glyph-name="x" unicode="x" horiz-adv-x="1230" 
d="M268 0h-334l420 571l-229 551h356l142 -381h30l254 381h332l-383 -547l268 -575h-354l-178 408h-31z" />
    <glyph glyph-name="y" unicode="y" horiz-adv-x="1167" 
d="M178 -444h-201l46 278h233q148 0 207 141l20 50h-213l-172 1097h330l117 -841h41l336 841h313l-506 -1212q-148 -354 -551 -354z" />
    <glyph glyph-name="z" unicode="z" horiz-adv-x="1028" 
d="M889 0h-901l35 229l610 615l-17 26h-489l39 252h883l-37 -229l-609 -614l17 -27h508z" />
    <glyph glyph-name="braceleft" unicode="{" horiz-adv-x="804" 
d="M547 -373h-51q-209 0 -308.5 99t-66.5 303l49 313q18 125 -135 125l47 291q156 0 174 125l49 307q33 203 162.5 301t337.5 98h51l-43 -272h-51q-128 0 -146 -129l-51 -316q-20 -119 -80.5 -176.5t-169.5 -68.5l-4 -29q106 -9 148 -66.5t24 -177.5l-51 -325
q-22 -129 107 -129h51z" />
    <glyph glyph-name="bar" unicode="|" horiz-adv-x="770" 
d="M340 -408l-279 -2l304 1905l276 2z" />
    <glyph glyph-name="braceright" unicode="}" horiz-adv-x="804" 
d="M-113 -373l43 273h52q129 0 147 129l53 325q18 119 79 177t169 67l6 29q-107 11 -149.5 68.5t-22.5 176.5l49 316q9 65 -15.5 97t-90.5 32h-51l43 272h51q208 0 307 -98t68 -301l-50 -307q-10 -62 24.5 -93.5t111.5 -31.5l-45 -291q-156 0 -177 -125l-49 -313
q-33 -205 -163 -303.5t-338 -98.5h-52z" />
    <glyph glyph-name="asciitilde" unicode="~" horiz-adv-x="1112" 
d="M764 442q-54 0 -104 18t-86.5 44t-69.5 52t-66.5 44t-64.5 18q-89 0 -133 -133l-191 -2q37 189 144 290t225 101q54 0 104 -18.5t86.5 -44.5t69.5 -52t67.5 -44.5t65.5 -18.5q87 0 131 133h191q-36 -191 -142 -289t-227 -98z" />
    <glyph glyph-name="nbspace" unicode="&#xa0;" horiz-adv-x="430" 
 />
    <glyph glyph-name="exclamdown" unicode="&#xa1;" horiz-adv-x="649" 
d="M575 1122l-51 -329h-385l51 329h385zM471 616l-156 -989h-335l155 989h336z" />
    <glyph glyph-name="cent" unicode="&#xa2;" horiz-adv-x="1251" 
d="M670 0h-269l33 203q-191 37 -290.5 178.5t-67.5 343.5l6 41q36 227 172 363t352 167l29 185h268l-29 -189q161 -34 248 -146.5t74 -281.5h-311q1 80 -52 125t-141 45q-124 0 -198 -77t-97 -212q-19 -123 37 -202.5t168 -79.5q205 0 256 178h311q-42 -190 -162 -300
t-307 -140z" />
    <glyph glyph-name="sterling" unicode="&#xa3;" horiz-adv-x="1302" 
d="M1120 0h-1157l41 254h139l62 387h-127l35 219h127l20 135q41 256 217 389.5t453 133.5q150 0 334 -21l-41 -266q-179 20 -336 20q-136 0 -222 -69.5t-108 -200.5l-18 -121h483l-35 -219h-483l-62 -387h463l29 180h256z" />
    <glyph glyph-name="currency" unicode="&#xa4;" horiz-adv-x="1398" 
d="M635 276q-141 0 -244 56l-227 -199l-156 191l219 188q-39 91 -20 219l4 33q20 126 82 225l-152 180l217 189l158 -187q118 50 268 50q139 0 246 -58l225 195l156 -189l-217 -188q36 -92 18 -217l-4 -33q-21 -130 -84 -227l152 -180l-215 -191l-160 191q-121 -48 -266 -48
zM674 526q107 0 173 58t83 164q15 97 -37 160t-148 63q-106 0 -172.5 -58t-83.5 -165q-15 -97 37 -159.5t148 -62.5z" />
    <glyph glyph-name="yen" unicode="&#xa5;" horiz-adv-x="1363" 
d="M735 0h-307l47 299h-422l27 166h420l22 145h-420l27 166h270l-245 719h340l202 -637h54l374 637h324l-449 -719h273l-27 -166h-416l-22 -145h416l-27 -166h-414z" />
    <glyph glyph-name="brokenbar" unicode="&#xa6;" horiz-adv-x="770" 
d="M510 670h-277l132 825h276zM340 -410h-277l130 822h276z" />
    <glyph glyph-name="section" unicode="&#xa7;" horiz-adv-x="1224" 
d="M424 -201q-234 0 -354.5 105t-98.5 293h293q-5 -67 47.5 -112.5t153.5 -45.5q86 0 139 32.5t62 88.5q3 20 -3 37.5t-24 33t-35 26.5t-50.5 24.5t-56 21t-65.5 21.5q-167 54 -238 96q-168 100 -139 276q16 110 87 194.5t173 133.5q-124 96 -100 258q25 158 167.5 263.5
t338.5 105.5q216 0 325 -97t82 -274h-284q6 63 -34.5 99t-127.5 36q-74 0 -119 -34t-53 -87q-3 -16 0 -30t12.5 -26.5t19.5 -22.5t30 -20.5t35 -17.5t43 -17t45 -16t50 -16q77 -24 121.5 -40.5t109.5 -50.5t98 -71t53.5 -96t9.5 -131q-34 -210 -244 -323q87 -87 65 -228
q-29 -181 -170.5 -285t-363.5 -104zM608 557q33 -10 74 -27q137 64 156 179q3 21 -2.5 39t-15 32t-30.5 28.5t-37.5 24t-49 22.5t-52.5 20t-59 20q-23 7 -76 27q-67 -30 -108.5 -74t-49.5 -90q-4 -27 2 -50.5t24.5 -42.5t38 -33t55 -28.5t61 -23.5t69.5 -23z" />
    <glyph glyph-name="dieresis" unicode="&#xa8;" 
d="M248 1292q-87 0 -123 47t-23 123q13 78 63 125t138 47q87 0 123 -47t23 -125q-13 -77 -63 -123.5t-138 -46.5zM688 1292q-87 0 -122.5 47t-22.5 123q13 78 62.5 125t137.5 47q87 0 123 -47t23 -125q-13 -77 -63 -123.5t-138 -46.5z" />
    <glyph glyph-name="copyright" unicode="&#xa9;" horiz-adv-x="1460" 
d="M645 223q-185 0 -319.5 80.5t-193.5 225t-30 327.5l7 37q47 302 240 465.5t501 163.5q139 0 251 -47t183.5 -129.5t101.5 -199.5t9 -253l-6 -37q-49 -306 -242 -469.5t-502 -163.5zM662 334q253 0 409.5 140.5t196.5 397.5q24 153 -21.5 276t-153.5 193t-259 70
q-253 0 -410 -141.5t-197 -397.5q-37 -234 84.5 -386t350.5 -152zM692 485q-162 0 -250 103.5t-63 265.5l4 27q29 179 140 275.5t290 96.5q148 0 233 -82t72 -219h-219q1 52 -28.5 82.5t-82.5 30.5q-147 0 -178 -197q-14 -85 16.5 -139.5t100.5 -54.5q121 0 152 121h221
q-32 -154 -138.5 -232t-269.5 -78z" />
    <glyph glyph-name="ordfeminine" unicode="&#xaa;" horiz-adv-x="899" 
d="M324 692q-125 0 -191.5 67t-48.5 181q21 129 131.5 189.5t282.5 60.5h96q2 35 -14 52.5t-56 17.5q-109 0 -309 -11l39 244q148 12 285 12q186 0 272.5 -84t60.5 -243l-73 -465h-232l21 135q-76 -156 -264 -156zM453 889q45 0 71.5 24.5t38.5 85.5v-2l8 43h-94
q-40 0 -67 -21t-31 -56q-6 -33 13 -53.5t61 -20.5z" />
    <glyph glyph-name="guillemotleft" unicode="&#xab;" horiz-adv-x="1331" 
d="M621 80h-377l-207 401l16 99l346 409h365l-356 -420l-11 -67zM1210 80h-379l-204 401l14 99l346 409h367l-359 -420l-10 -67z" />
    <glyph glyph-name="logicalnot" unicode="&#xac;" horiz-adv-x="1282" 
d="M1145 147l-252 -2l61 381h-829l43 267h1079z" />
    <glyph glyph-name="softhyphen" unicode="&#xad;" horiz-adv-x="882" 
d="M815 434h-723l45 291h723z" />
    <glyph glyph-name="registered" unicode="&#xae;" horiz-adv-x="1388" 
d="M631 360q-168 0 -290 72.5t-176 202t-28 293.5l4 33q43 272 218.5 417.5t455.5 145.5q167 0 289 -71.5t176.5 -200t28.5 -291.5l-4 -33q-43 -273 -219 -420.5t-455 -147.5zM647 467q226 0 368 124t177 351q32 207 -78 341t-315 134q-226 0 -368 -124t-177 -351
q-32 -207 78 -341t315 -134zM596 633h-170l100 645h252q120 0 189.5 -63t52.5 -166q-20 -139 -139 -195l106 -221h-186l-82 186h-14h-80zM762 1135h-88l-27 -174h88q47 0 77.5 22.5t37.5 65.5q6 38 -19.5 62t-68.5 24z" />
    <glyph glyph-name="macron" unicode="&#xaf;" 
d="M782 1327h-694l35 229h696z" />
    <glyph glyph-name="degree" unicode="&#xb0;" horiz-adv-x="868" 
d="M430 729q-171 0 -264.5 108t-65.5 275q29 184 147 283.5t306 99.5q171 0 264.5 -107.5t67.5 -275.5q-29 -184 -147.5 -283.5t-307.5 -99.5zM467 954q74 0 120.5 42t57.5 116q11 68 -25.5 113t-103.5 45q-73 0 -119.5 -41.5t-58.5 -116.5q-11 -68 25.5 -113t103.5 -45z
" />
    <glyph glyph-name="plusminus" unicode="&#xb1;" horiz-adv-x="1249" 
d="M721 428h-272l53 342h-357l39 250h359l53 340h272l-53 -340h356l-38 -250h-359zM1020 57h-987l39 248h987z" />
    <glyph glyph-name="twosuperior" unicode="&#xb2;" horiz-adv-x="776" 
d="M674 860h-621l27 172q14 83 66.5 138t160.5 96l131 51q54 20 82 46t35 71q6 38 -17.5 63t-74.5 25q-48 0 -77.5 -25.5t-37.5 -69.5h-217q20 124 114.5 202.5t248.5 78.5q151 0 222.5 -75t53.5 -189l-2 -14q-14 -93 -75.5 -156.5t-196.5 -114.5l-131 -51q-39 -14 -56 -26
t-20 -35v-3h416z" />
    <glyph glyph-name="threesuperior" unicode="&#xb3;" horiz-adv-x="780" 
d="M354 838q-150 0 -227.5 77t-56.5 195h217q-8 -39 19 -62.5t79 -23.5q53 0 86.5 26.5t38.5 67.5q8 42 -17.5 70.5t-76.5 28.5q-55 0 -109 -37l-74 168l252 122l-8 21h-311l31 192h585l-30 -200l-232 -117q114 -15 170 -80t41 -166l-2 -14q-19 -118 -121 -193t-254 -75z
" />
    <glyph glyph-name="acute" unicode="&#xb4;" 
d="M352 1253h-286l249 428h338z" />
    <glyph glyph-name="micro" unicode="&#xb5;" horiz-adv-x="1392" 
d="M270 -410h-301l244 1532h328l-105 -667q-15 -90 28 -143.5t130 -53.5q88 0 151 56t78 149l105 659h327l-120 -770q-12 -69 59 -69h100l-43 -283h-127q-139 0 -210.5 47.5t-86.5 145.5q-61 -113 -151.5 -170.5t-200.5 -57.5h-12q-85 0 -150 47q7 -100 -6 -184z" />
    <glyph glyph-name="paragraph" unicode="&#xb6;" horiz-adv-x="1312" 
d="M668 0h-230l121 760h-143q-199 0 -283 95.5t-57 264.5l4 23q27 169 140 264.5t312 95.5h373zM1028 0h-225l237 1503h226z" />
    <glyph glyph-name="periodcentered" unicode="&#xb7;" horiz-adv-x="559" 
d="M494 397h-361l60 367h360z" />
    <glyph glyph-name="cedilla" unicode="&#xb8;" 
d="M156 -553q-93 0 -162 25l31 200q74 -24 147 -24q115 0 125 57q3 23 -15.5 35t-64.5 12h-106l43 275h198l-18 -121q98 -15 144.5 -67.5t33.5 -139.5q-18 -110 -112.5 -181t-243.5 -71z" />
    <glyph glyph-name="onesuperior" unicode="&#xb9;" horiz-adv-x="540" 
d="M410 860h-226l101 629h-156l31 194h381z" />
    <glyph glyph-name="ordmasculine" unicode="&#xba;" horiz-adv-x="987" 
d="M481 682q-196 0 -293.5 113t-70.5 284l6 37q27 174 163 288t328 114q191 0 291 -113.5t72 -288.5l-6 -37q-27 -171 -160 -284t-330 -113zM520 926q66 0 107 46.5t53 125.5t-15 127.5t-90 48.5t-106 -48t-55 -128t14 -126t92 -46z" />
    <glyph glyph-name="guillemotright" unicode="&#xbb;" horiz-adv-x="1331" 
d="M721 989h377l207 -401l-17 -99l-346 -409h-364l356 422l10 67zM131 989h379l205 -401l-17 -99l-344 -409h-366l356 422l12 67z" />
    <glyph glyph-name="onequarter" unicode="&#xbc;" horiz-adv-x="1748" 
d="M373 -45h-228l1059 1438h226zM410 522h-226l101 629h-156l31 195h381zM1507 0h-209l23 139h-442l34 232l400 506l155 -105l-333 -428l12 -27h201l45 281h206l-43 -281h93l-29 -178h-92z" />
    <glyph glyph-name="onehalf" unicode="&#xbd;" horiz-adv-x="1781" 
d="M373 -45h-228l1059 1438h226zM410 522h-226l101 629h-156l31 195h381zM1597 0h-622l29 172q14 83 66.5 138t160.5 96l131 51q54 20 82 45.5t35 70.5q6 38 -19 63.5t-74 25.5q-50 0 -79 -25.5t-35 -69.5h-217q20 124 114 202.5t248 78.5q151 0 223 -75t54 -189l-2 -15
q-15 -93 -76.5 -156t-196.5 -114l-131 -51q-38 -14 -56 -26.5t-22 -35.5v-2h418z" />
    <glyph glyph-name="threequarters" unicode="&#xbe;" horiz-adv-x="1951" 
d="M575 -45h-225l1057 1438h225zM354 500q-150 0 -227.5 77t-56.5 195h217q-8 -39 19 -62.5t79 -23.5q53 0 86.5 26.5t38.5 67.5q8 42 -17.5 70.5t-76.5 28.5q-55 0 -109 -37l-74 168l252 123l-8 20h-311l31 193h585l-30 -201l-232 -117q114 -15 170 -80t41 -166l-2 -14
q-19 -118 -121 -193t-254 -75zM1710 0h-209l23 139h-443l35 232l402 506l153 -105l-334 -428l15 -27h198l45 281h209l-45 -281h92l-28 -178h-90z" />
    <glyph glyph-name="questiondown" unicode="&#xbf;" horiz-adv-x="1153" 
d="M561 1122h373l-51 -329h-373zM506 621h325l-57 -357h-190q-103 0 -168 -52t-78 -149q-14 -87 32 -142.5t132 -55.5q98 0 159 53t78 150h314q-38 -236 -196.5 -361t-407.5 -125q-218 0 -340.5 127t-90.5 328l5 24q28 188 147.5 295.5t312.5 139.5z" />
    <glyph glyph-name="Agrave" unicode="&#xc0;" horiz-adv-x="1601" 
d="M1051 1608h-316l-205 366h357zM244 0h-336l731 1495h543l274 -1495h-348l-64 371h-624zM553 649h446l-96 572h-78z" />
    <glyph glyph-name="Aacute" unicode="&#xc1;" horiz-adv-x="1601" 
d="M1028 1608h-313l313 366h352zM244 0h-336l731 1495h543l274 -1495h-348l-64 371h-624zM553 649h446l-96 572h-78z" />
    <glyph glyph-name="Acircumflex" unicode="&#xc2;" horiz-adv-x="1601" 
d="M729 1608h-293l322 366h389l211 -366h-301l-115 211h-37zM244 0h-336l731 1495h543l274 -1495h-348l-64 371h-624zM553 649h446l-96 572h-78z" />
    <glyph glyph-name="Atilde" unicode="&#xc3;" horiz-adv-x="1601" 
d="M1073 1610q-58 0 -106.5 17t-76.5 37t-69.5 37t-87.5 17q-117 0 -203 -82l-12 222q98 102 256 102q58 0 106.5 -17t76.5 -37.5t69.5 -37.5t87.5 -17q123 0 203 84l16 -223q-102 -102 -260 -102zM244 0h-336l731 1495h543l274 -1495h-348l-64 371h-624zM553 649h446
l-96 572h-78z" />
    <glyph glyph-name="Adieresis" unicode="&#xc4;" horiz-adv-x="1601" 
d="M666 1630q-89 0 -127.5 45.5t-26.5 122.5q11 78 64 124t143 46q89 0 127 -46t26 -124q-13 -77 -65 -122.5t-141 -45.5zM1124 1630q-89 0 -127.5 45.5t-25.5 122.5q11 78 64 124t143 46q89 0 127 -46t26 -124q-13 -77 -65.5 -122.5t-141.5 -45.5zM244 0h-336l731 1495h543
l274 -1495h-348l-64 371h-624zM553 649h446l-96 572h-78z" />
    <glyph glyph-name="Aring" unicode="&#xc5;" horiz-adv-x="1601" 
d="M879 1561q-120 0 -183.5 64t-46.5 167q15 101 99 165t204 64t183.5 -64t46.5 -165q-15 -103 -98.5 -167t-204.5 -64zM903 1708q42 0 70 24t33 60q6 36 -14 59t-62 23t-71 -23t-34 -59q-6 -36 15 -60t63 -24zM244 0h-336l731 1495h543l274 -1495h-348l-64 371h-624z
M553 649h446l-96 572h-78z" />
    <glyph glyph-name="AE" unicode="&#xc6;" horiz-adv-x="2013" 
d="M211 0h-336l827 1495h1305l-43 -278h-598l-49 -318h565l-45 -278h-565l-53 -342h610l-43 -279h-934l63 401h-483zM588 682h370l86 539h-159z" />
    <glyph glyph-name="Ccedilla" unicode="&#xc7;" horiz-adv-x="1638" 
d="M752 -565q-112 0 -172 24l32 209q78 -24 158 -24q122 0 131 57q5 24 -16 35.5t-70 11.5h-108l32 213q-220 1 -378.5 100t-228 273.5t-34.5 394.5l6 45q59 366 286.5 566t592.5 200q192 0 336 -72t219.5 -209t65.5 -319h-336q-1 137 -93 212t-243 75q-207 0 -331.5 -126.5
t-160.5 -350.5q-20 -135 15.5 -243.5t123.5 -170.5t214 -62q345 0 438 285h338q-68 -247 -225 -392t-392 -187l-12 -76q98 -15 145.5 -68.5t34.5 -140.5q-18 -113 -116.5 -186.5t-251.5 -73.5z" />
    <glyph glyph-name="Egrave" unicode="&#xc8;" horiz-adv-x="1216" 
d="M1061 1608h-318l-202 366h356zM1108 0h-940l238 1495h925l-43 -278h-600l-49 -318h563l-43 -278h-565l-53 -342h612z" />
    <glyph glyph-name="Eacute" unicode="&#xc9;" horiz-adv-x="1216" 
d="M868 1608h-313l313 366h353zM1108 0h-940l238 1495h925l-43 -278h-600l-49 -318h563l-43 -278h-565l-53 -342h612z" />
    <glyph glyph-name="Ecircumflex" unicode="&#xca;" horiz-adv-x="1216" 
d="M723 1608h-293l322 366h389l211 -366h-301l-115 211h-37zM1108 0h-940l238 1495h925l-43 -278h-600l-49 -318h563l-43 -278h-565l-53 -342h612z" />
    <glyph glyph-name="Edieresis" unicode="&#xcb;" horiz-adv-x="1216" 
d="M659 1630q-89 0 -127.5 45.5t-25.5 122.5q12 78 65 124t142 46t127.5 -46t27.5 -124q-12 -76 -66 -122t-143 -46zM1118 1630q-89 0 -127.5 45.5t-25.5 122.5q13 78 65 124t141 46t128 -46t28 -124q-12 -76 -66 -122t-143 -46zM1108 0h-940l238 1495h925l-43 -278h-600
l-49 -318h563l-43 -278h-565l-53 -342h612z" />
    <glyph glyph-name="Igrave" unicode="&#xcc;" horiz-adv-x="679" 
d="M600 1608h-317l-203 366h356zM389 0h-336l238 1495h336z" />
    <glyph glyph-name="Iacute" unicode="&#xcd;" horiz-adv-x="679" 
d="M575 1608h-311l314 366h352zM389 0h-336l238 1495h336z" />
    <glyph glyph-name="Icircumflex" unicode="&#xce;" horiz-adv-x="679" 
d="M279 1608h-295l323 366h389l211 -366h-301l-114 211h-37zM389 0h-336l238 1495h336z" />
    <glyph glyph-name="Idieresis" unicode="&#xcf;" horiz-adv-x="679" 
d="M213 1630q-89 0 -127.5 45.5t-26.5 122.5q12 78 65 124t142 46t128 -46t28 -124q-12 -76 -66 -122t-143 -46zM672 1630q-89 0 -127.5 45.5t-26.5 122.5q12 78 65 124t142 46t128 -46t28 -124q-12 -76 -66 -122t-143 -46zM389 0h-336l238 1495h336z" />
    <glyph glyph-name="Eth" unicode="&#xd0;" horiz-adv-x="1599" 
d="M604 -8h-555l98 618h-92l45 275h90l99 622h555q172 0 313.5 -53.5t234 -148.5t133 -232.5t15.5 -298.5l-8 -45q-56 -361 -299.5 -549t-628.5 -188zM848 610h-365l-49 -305h238q218 0 354 116t170 331q31 193 -77 317.5t-306 124.5h-238l-49 -309h367z" />
    <glyph glyph-name="Ntilde" unicode="&#xd1;" horiz-adv-x="1794" 
d="M1204 1610q-58 0 -107 17t-77 37t-69.5 37t-86.5 17q-120 0 -202 -82l-13 222q95 102 256 102q58 0 106.5 -17t76.5 -37.5t69 -37.5t86 -17q125 0 205 84l14 -223q-102 -102 -258 -102zM360 0h-311l238 1495h551l368 -1223h31l193 1223h315l-238 -1495h-555l-368 1223
h-29z" />
    <glyph glyph-name="Ograve" unicode="&#xd2;" horiz-adv-x="1769" 
d="M1145 1608h-318l-202 366h356zM758 -39q-171 0 -310.5 57t-228.5 157.5t-126.5 243.5t-10.5 310l6 45q58 370 298 568t622 198q171 0 310 -57t228 -157t126.5 -243t10.5 -309l-6 -45q-58 -371 -297.5 -569.5t-621.5 -198.5zM807 274q222 0 359 125.5t173 350.5
q34 207 -73 342t-308 135q-223 0 -360.5 -125t-173.5 -352q-32 -207 74 -341.5t309 -134.5z" />
    <glyph glyph-name="Oacute" unicode="&#xd3;" horiz-adv-x="1769" 
d="M1120 1608h-311l313 366h353zM758 -39q-171 0 -310.5 57t-228.5 157.5t-126.5 243.5t-10.5 310l6 45q58 370 298 568t622 198q171 0 310 -57t228 -157t126.5 -243t10.5 -309l-6 -45q-58 -371 -297.5 -569.5t-621.5 -198.5zM807 274q222 0 359 125.5t173 350.5
q34 207 -73 342t-308 135q-223 0 -360.5 -125t-173.5 -352q-32 -207 74 -341.5t309 -134.5z" />
    <glyph glyph-name="Ocircumflex" unicode="&#xd4;" horiz-adv-x="1769" 
d="M821 1608h-293l324 366h387l213 -366h-301l-117 211h-35zM758 -39q-171 0 -310.5 57t-228.5 157.5t-126.5 243.5t-10.5 310l6 45q58 370 298 568t622 198q171 0 310 -57t228 -157t126.5 -243t10.5 -309l-6 -45q-58 -371 -297.5 -569.5t-621.5 -198.5zM807 274
q222 0 359 125.5t173 350.5q34 207 -73 342t-308 135q-223 0 -360.5 -125t-173.5 -352q-32 -207 74 -341.5t309 -134.5z" />
    <glyph glyph-name="Otilde" unicode="&#xd5;" horiz-adv-x="1769" 
d="M1165 1610q-58 0 -106.5 17t-76.5 37t-69 37t-86 17q-120 0 -202 -82l-15 222q98 102 256 102q58 0 107 -17t77 -37.5t69.5 -37.5t86.5 -17q125 0 205 84l14 -223q-102 -102 -260 -102zM758 -39q-171 0 -310.5 57t-228.5 157.5t-126.5 243.5t-10.5 310l6 45
q58 370 298 568t622 198q171 0 310 -57t228 -157t126.5 -243t10.5 -309l-6 -45q-58 -371 -297.5 -569.5t-621.5 -198.5zM807 274q222 0 359 125.5t173 350.5q34 207 -73 342t-308 135q-223 0 -360.5 -125t-173.5 -352q-32 -207 74 -341.5t309 -134.5z" />
    <glyph glyph-name="Odieresis" unicode="&#xd6;" horiz-adv-x="1769" 
d="M758 1630q-89 0 -127.5 45.5t-26.5 122.5q12 78 66 124t143 46t127 -46t27 -124q-12 -76 -66 -122t-143 -46zM1217 1630q-89 0 -127.5 45.5t-26.5 122.5q12 78 66 124t143 46t126.5 -45.5t26.5 -124.5q-13 -77 -66 -122.5t-142 -45.5zM758 -39q-171 0 -310.5 57
t-228.5 157.5t-126.5 243.5t-10.5 310l6 45q58 370 298 568t622 198q171 0 310 -57t228 -157t126.5 -243t10.5 -309l-6 -45q-58 -371 -297.5 -569.5t-621.5 -198.5zM807 274q222 0 359 125.5t173 350.5q34 207 -73 342t-308 135q-223 0 -360.5 -125t-173.5 -352
q-32 -207 74 -341.5t309 -134.5z" />
    <glyph glyph-name="multiply" unicode="&#xd7;" horiz-adv-x="1220" 
d="M55 373l383 329l-278 330l221 191l278 -330l383 330l154 -183l-383 -329l279 -330l-222 -191l-278 330l-383 -330z" />
    <glyph glyph-name="Oslash" unicode="&#xd8;" horiz-adv-x="1853" 
d="M330 -133h-258l229 276q-109 103 -154 254t-16 332l6 45q60 370 300 568t622 198q194 0 344 -72l117 142h258l-211 -254q108 -103 152.5 -253t15.5 -329l-6 -45q-58 -371 -299 -569.5t-623 -198.5q-190 0 -342 70zM473 750q-30 -192 62 -324l641 770q-76 31 -168 31
q-222 0 -360 -125t-175 -352zM858 274q222 0 359.5 125.5t173.5 350.5q30 190 -60 323l-639 -770q79 -29 166 -29z" />
    <glyph glyph-name="Ugrave" unicode="&#xd9;" horiz-adv-x="1589" 
d="M1055 1608h-318l-202 366h356zM588 -39q-189 0 -325.5 82.5t-196.5 230.5t-31 334l139 887h336l-141 -899q-23 -141 52.5 -231.5t215.5 -90.5q155 0 250.5 84t118.5 238l143 899h336l-142 -887q-47 -312 -243.5 -479.5t-511.5 -167.5z" />
    <glyph glyph-name="Uacute" unicode="&#xda;" horiz-adv-x="1589" 
d="M1030 1608h-311l313 366h352zM588 -39q-189 0 -325.5 82.5t-196.5 230.5t-31 334l139 887h336l-141 -899q-23 -141 52.5 -231.5t215.5 -90.5q155 0 250.5 84t118.5 238l143 899h336l-142 -887q-47 -312 -243.5 -479.5t-511.5 -167.5z" />
    <glyph glyph-name="Ucircumflex" unicode="&#xdb;" horiz-adv-x="1589" 
d="M731 1608h-293l324 366h387l213 -366h-301l-117 211h-35zM588 -39q-189 0 -325.5 82.5t-196.5 230.5t-31 334l139 887h336l-141 -899q-23 -141 52.5 -231.5t215.5 -90.5q155 0 250.5 84t118.5 238l143 899h336l-142 -887q-47 -312 -243.5 -479.5t-511.5 -167.5z" />
    <glyph glyph-name="Udieresis" unicode="&#xdc;" horiz-adv-x="1589" 
d="M668 1630q-89 0 -127.5 45.5t-26.5 122.5q12 78 66 124t143 46t127 -46t27 -124q-12 -76 -66 -122t-143 -46zM1126 1630q-89 0 -127.5 45.5t-25.5 122.5q12 78 66 124t143 46t126.5 -45.5t26.5 -124.5q-12 -76 -66 -122t-143 -46zM588 -39q-189 0 -325.5 82.5
t-196.5 230.5t-31 334l139 887h336l-141 -899q-23 -141 52.5 -231.5t215.5 -90.5q155 0 250.5 84t118.5 238l143 899h336l-142 -887q-47 -312 -243.5 -479.5t-511.5 -167.5z" />
    <glyph glyph-name="Yacute" unicode="&#xdd;" horiz-adv-x="1345" 
d="M913 1608h-311l313 366h353zM735 0h-329l90 567h-72l-291 928h344l197 -676h65l383 676h326l-549 -928h-76z" />
    <glyph glyph-name="Thorn" unicode="&#xde;" horiz-adv-x="1304" 
d="M385 0h-336l238 1495h336l-33 -207h194q256 0 402 -142t110 -370l-6 -33q-27 -170 -119 -286t-232 -171t-323 -55h-194zM754 999h-209l-76 -475h209q115 0 186 61t88 175q17 104 -38.5 171.5t-159.5 67.5z" />
    <glyph glyph-name="germandbls" unicode="&#xdf;" horiz-adv-x="1382" 
d="M676 -27q-119 0 -195 25l43 266q89 -24 164 -24q104 0 170.5 52t83.5 152q15 102 -48.5 166t-174.5 64h-88l39 241h63q77 0 126 44.5t61 123.5q12 78 -30 129.5t-120 51.5q-98 0 -156.5 -60.5t-76.5 -167.5l-164 -1036h-328l131 831h-123l39 242h125q49 221 202.5 339
t389.5 118h8q218 0 341 -117t93 -309q-34 -214 -217 -295q128 -49 191.5 -150.5t40.5 -240.5q-34 -221 -190 -333t-400 -112z" />
    <glyph glyph-name="agrave" unicode="&#xe0;" horiz-adv-x="1216" 
d="M813 1253h-293l-166 428h346zM373 -29q-174 0 -273 100t-73 261q57 356 563 356h203v4q12 75 -29.5 123.5t-118.5 48.5q-168 0 -414 -16l43 276q194 17 373 17q230 0 361 -125.5t98 -327.5l-111 -688h-260l33 211q-115 -240 -395 -240zM510 199q186 0 235 202l19 105
h-207q-84 0 -137.5 -39.5t-65.5 -116.5q-10 -68 34 -109.5t122 -41.5z" />
    <glyph glyph-name="aacute" unicode="&#xe1;" horiz-adv-x="1216" 
d="M784 1253h-284l250 428h335zM373 -29q-174 0 -273 100t-73 261q57 356 563 356h203v4q12 75 -29.5 123.5t-118.5 48.5q-168 0 -414 -16l43 276q194 17 373 17q230 0 361 -125.5t98 -327.5l-111 -688h-260l33 211q-115 -240 -395 -240zM510 199q186 0 235 202l19 105h-207
q-84 0 -137.5 -39.5t-65.5 -116.5q-10 -68 34 -109.5t122 -41.5z" />
    <glyph glyph-name="acircumflex" unicode="&#xe2;" horiz-adv-x="1216" 
d="M522 1253h-270l276 428h400l147 -428h-276l-84 275h-25zM373 -29q-174 0 -273 100t-73 261q57 356 563 356h203v4q12 75 -29.5 123.5t-118.5 48.5q-168 0 -414 -16l43 276q194 17 373 17q230 0 361 -125.5t98 -327.5l-111 -688h-260l33 211q-115 -240 -395 -240zM510 199
q186 0 235 202l19 105h-207q-84 0 -137.5 -39.5t-65.5 -116.5q-10 -68 34 -109.5t122 -41.5z" />
    <glyph glyph-name="atilde" unicode="&#xe3;" horiz-adv-x="1216" 
d="M829 1278q-45 0 -82 10.5t-62 26t-48.5 31t-53 26t-63.5 10.5q-98 0 -178 -73l-12 223q99 92 231 92q45 0 81.5 -10.5t61 -26t47.5 -31t52.5 -26t64.5 -10.5q97 0 181 73l12 -223q-100 -92 -232 -92zM373 -29q-174 0 -273 100t-73 261q57 356 563 356h203v4
q12 75 -29.5 123.5t-118.5 48.5q-168 0 -414 -16l43 276q194 17 373 17q230 0 361 -125.5t98 -327.5l-111 -688h-260l33 211q-115 -240 -395 -240zM510 199q186 0 235 202l19 105h-207q-84 0 -137.5 -39.5t-65.5 -116.5q-10 -68 34 -109.5t122 -41.5z" />
    <glyph glyph-name="adieresis" unicode="&#xe4;" horiz-adv-x="1216" 
d="M451 1292q-88 0 -123.5 46.5t-22.5 123.5q11 78 61.5 125t137.5 47t122.5 -47t24.5 -125q-13 -77 -63 -123.5t-137 -46.5zM891 1292q-88 0 -123.5 46.5t-22.5 123.5q11 78 61.5 125t137.5 47t123 -47t25 -125q-13 -76 -63.5 -123t-137.5 -47zM373 -29q-174 0 -273 100
t-73 261q57 356 563 356h203v4q12 75 -29.5 123.5t-118.5 48.5q-168 0 -414 -16l43 276q194 17 373 17q230 0 361 -125.5t98 -327.5l-111 -688h-260l33 211q-115 -240 -395 -240zM510 199q186 0 235 202l19 105h-207q-84 0 -137.5 -39.5t-65.5 -116.5q-10 -68 34 -109.5
t122 -41.5z" />
    <glyph glyph-name="aring" unicode="&#xe5;" horiz-adv-x="1216" 
d="M653 1231q-117 0 -178.5 70.5t-42.5 179.5q15 109 98.5 179.5t200.5 70.5q116 0 178 -70.5t45 -179.5q-17 -110 -101 -180t-200 -70zM678 1389q41 0 69.5 26t36.5 66q5 41 -15 66.5t-62 25.5q-41 0 -70.5 -26t-34.5 -66q-8 -40 13 -66t63 -26zM373 -29q-174 0 -273 100
t-73 261q57 356 563 356h203v4q12 75 -29.5 123.5t-118.5 48.5q-168 0 -414 -16l43 276q194 17 373 17q230 0 361 -125.5t98 -327.5l-111 -688h-260l33 211q-115 -240 -395 -240zM510 199q186 0 235 202l19 105h-207q-84 0 -137.5 -39.5t-65.5 -116.5q-10 -68 34 -109.5
t122 -41.5z" />
    <glyph glyph-name="ae" unicode="&#xe6;" horiz-adv-x="1961" 
d="M1253 -39q-150 0 -256.5 60t-160.5 176q-64 -114 -179.5 -171t-271.5 -57q-180 0 -282 99.5t-76 261.5q57 356 563 356h203v4q12 75 -29.5 123.5t-116.5 48.5q-170 0 -416 -16l45 276q191 17 367 17q120 0 213 -43t148 -121q159 182 430 182q243 0 371.5 -162.5
t88.5 -412.5l-16 -105h-819q3 -112 64 -180t169 -68q91 0 150 25.5t94 93.5h301q-143 -387 -584 -387zM1384 889q-216 0 -294 -232h503q-3 105 -57.5 168.5t-151.5 63.5zM510 197q99 0 160.5 59.5t79.5 165.5l14 84h-205q-85 0 -139 -40t-66 -116q-10 -69 34 -111t122 -42z
" />
    <glyph glyph-name="ccedilla" unicode="&#xe7;" horiz-adv-x="1251" 
d="M555 -553q-89 0 -162 25l31 200q78 -24 149 -24q113 0 123 57q3 23 -15.5 35t-62.5 12h-108l35 209q-241 9 -368 170.5t-89 407.5l6 39q43 278 215.5 430.5t450.5 152.5q223 0 351 -125.5t108 -335.5h-322q3 83 -46.5 132t-135.5 49q-242 0 -295 -324q-21 -136 30 -225.5
t164 -89.5q197 0 250 186h320q-81 -374 -439 -451l-12 -71q99 -15 145 -67.5t33 -139.5q-18 -110 -112 -181t-244 -71z" />
    <glyph glyph-name="egrave" unicode="&#xe8;" horiz-adv-x="1277" 
d="M870 1253h-295l-163 428h344zM580 -39q-256 0 -394.5 163t-97.5 417l6 41q43 277 215 428t449 151q162 0 278.5 -74t166 -205t24.5 -296l-21 -111h-817q5 -112 66 -180t168 -68q90 0 150 26.5t93 94.5h301q-144 -387 -587 -387zM715 895q-221 0 -295 -233h504
q-3 106 -57 169.5t-152 63.5z" />
    <glyph glyph-name="eacute" unicode="&#xe9;" horiz-adv-x="1277" 
d="M840 1253h-285l250 428h338zM580 -39q-256 0 -394.5 163t-97.5 417l6 41q43 277 215 428t449 151q162 0 278.5 -74t166 -205t24.5 -296l-21 -111h-817q5 -112 66 -180t168 -68q90 0 150 26.5t93 94.5h301q-144 -387 -587 -387zM715 895q-221 0 -295 -233h504
q-3 106 -57 169.5t-152 63.5z" />
    <glyph glyph-name="ecircumflex" unicode="&#xea;" horiz-adv-x="1277" 
d="M578 1253h-271l279 428h399l145 -428h-276l-84 275h-25zM580 -39q-256 0 -394.5 163t-97.5 417l6 41q43 277 215 428t449 151q162 0 278.5 -74t166 -205t24.5 -296l-21 -111h-817q5 -112 66 -180t168 -68q90 0 150 26.5t93 94.5h301q-144 -387 -587 -387zM715 895
q-221 0 -295 -233h504q-3 106 -57 169.5t-152 63.5z" />
    <glyph glyph-name="edieresis" unicode="&#xeb;" horiz-adv-x="1277" 
d="M506 1292q-87 0 -123 47t-23 123q11 78 61.5 125t137.5 47t123 -47t25 -125q-13 -76 -63.5 -123t-137.5 -47zM946 1292q-87 0 -122.5 47t-22.5 123q11 78 61 125t137 47t123 -47t25 -125q-13 -76 -63.5 -123t-137.5 -47zM580 -39q-256 0 -394.5 163t-97.5 417l6 41
q43 277 215 428t449 151q162 0 278.5 -74t166 -205t24.5 -296l-21 -111h-817q5 -112 66 -180t168 -68q90 0 150 26.5t93 94.5h301q-144 -387 -587 -387zM715 895q-221 0 -295 -233h504q-3 106 -57 169.5t-152 63.5z" />
    <glyph glyph-name="igrave" unicode="&#xec;" horiz-adv-x="684" 
d="M532 1253h-294l-164 428h346zM442 0h-329l139 881h-150l39 241h480z" />
    <glyph glyph-name="iacute" unicode="&#xed;" horiz-adv-x="684" 
d="M504 1253h-287l250 428h338zM442 0h-329l139 881h-150l39 241h480z" />
    <glyph glyph-name="icircumflex" unicode="&#xee;" horiz-adv-x="684" 
d="M240 1253h-271l279 428h399l148 -428h-277l-84 275h-26zM442 0h-329l139 881h-150l39 241h480z" />
    <glyph glyph-name="idieresis" unicode="&#xef;" horiz-adv-x="684" 
d="M168 1292q-87 0 -122.5 47t-22.5 123q11 78 61 125t137 47q88 0 123.5 -47t24.5 -125q-13 -76 -63.5 -123t-137.5 -47zM608 1292q-87 0 -122.5 47t-22.5 123q11 78 61.5 125t137.5 47q88 0 123 -47t24 -125q-13 -76 -63.5 -123t-137.5 -47zM442 0h-329l139 881h-150
l39 241h480z" />
    <glyph glyph-name="eth" unicode="&#xf0;" horiz-adv-x="1421" 
d="M598 -37q-142 0 -252.5 42.5t-175 116t-91 170t-9.5 206.5l6 34q24 150 112 266.5t219 180t283 63.5q144 0 246.5 -57.5t134.5 -157.5q20 243 -53 353l-158 -131l-96 118l119 101q-69 16 -154 16q-107 0 -268 -22l41 247q148 23 266 23q211 0 344 -74l193 160l96 -121
l-168 -139q159 -197 90 -643l-8 -53q-53 -330 -238 -514.5t-479 -184.5zM643 240q135 0 222.5 73t107.5 203q22 131 -44 206t-198 75q-131 0 -219.5 -75t-110.5 -206q-20 -131 43.5 -203.5t198.5 -72.5z" />
    <glyph glyph-name="ntilde" unicode="&#xf1;" horiz-adv-x="1335" 
d="M918 1278q-45 0 -82.5 10.5t-62.5 26t-48.5 31t-53 26t-63.5 10.5q-98 0 -178 -73l-12 223q99 92 231 92q45 0 81.5 -10.5t61 -26t47.5 -31t52.5 -26t64.5 -10.5q97 0 181 73l12 -223q-100 -92 -231 -92zM385 0h-328l176 1122h261l-45 -291q118 326 432 326h14
q124 0 206 -69.5t110.5 -185.5t5.5 -261l-103 -641h-328l105 659q14 88 -32 146.5t-132 58.5q-99 0 -161 -55.5t-77 -155.5z" />
    <glyph glyph-name="ograve" unicode="&#xf2;" horiz-adv-x="1394" 
d="M915 1253h-292l-166 428h346zM600 -39q-177 0 -306 72t-188.5 203.5t-33.5 298.5l8 47q44 280 229.5 429.5t478.5 149.5q176 0 306 -73t189 -205.5t32 -300.5l-8 -47q-42 -279 -228 -426.5t-479 -147.5zM643 238q143 0 229 84t111 235q24 142 -42 235t-196 93
q-144 0 -230 -87t-112 -241q-22 -138 44.5 -228.5t195.5 -90.5z" />
    <glyph glyph-name="oacute" unicode="&#xf3;" horiz-adv-x="1394" 
d="M887 1253h-285l250 428h336zM600 -39q-177 0 -306 72t-188.5 203.5t-33.5 298.5l8 47q44 280 229.5 429.5t478.5 149.5q176 0 306 -73t189 -205.5t32 -300.5l-8 -47q-42 -279 -228 -426.5t-479 -147.5zM643 238q143 0 229 84t111 235q24 142 -42 235t-196 93
q-144 0 -230 -87t-112 -241q-22 -138 44.5 -228.5t195.5 -90.5z" />
    <glyph glyph-name="ocircumflex" unicode="&#xf4;" horiz-adv-x="1394" 
d="M625 1253h-271l277 428h399l148 -428h-277l-84 275h-24zM600 -39q-177 0 -306 72t-188.5 203.5t-33.5 298.5l8 47q44 280 229.5 429.5t478.5 149.5q176 0 306 -73t189 -205.5t32 -300.5l-8 -47q-42 -279 -228 -426.5t-479 -147.5zM643 238q143 0 229 84t111 235
q24 142 -42 235t-196 93q-144 0 -230 -87t-112 -241q-22 -138 44.5 -228.5t195.5 -90.5z" />
    <glyph glyph-name="otilde" unicode="&#xf5;" horiz-adv-x="1394" 
d="M932 1278q-45 0 -82 10.5t-62 26t-48.5 31t-53 26t-63.5 10.5q-99 0 -179 -73l-12 223q99 92 232 92q45 0 81.5 -10.5t61 -26t47.5 -31t52.5 -26t64.5 -10.5q96 0 180 73l12 -223q-100 -92 -231 -92zM600 -39q-177 0 -306 72t-188.5 203.5t-33.5 298.5l8 47
q44 280 229.5 429.5t478.5 149.5q176 0 306 -73t189 -205.5t32 -300.5l-8 -47q-42 -279 -228 -426.5t-479 -147.5zM643 238q143 0 229 84t111 235q24 142 -42 235t-196 93q-144 0 -230 -87t-112 -241q-22 -138 44.5 -228.5t195.5 -90.5z" />
    <glyph glyph-name="odieresis" unicode="&#xf6;" horiz-adv-x="1394" 
d="M553 1292q-88 0 -123 46.5t-22 123.5q11 78 61 125t137 47t123 -47t25 -125q-13 -76 -63.5 -123t-137.5 -47zM993 1292q-88 0 -123 46.5t-22 123.5q11 78 61.5 125t137.5 47t122.5 -47t24.5 -125q-13 -76 -63.5 -123t-137.5 -47zM600 -39q-177 0 -306 72t-188.5 203.5
t-33.5 298.5l8 47q44 280 229.5 429.5t478.5 149.5q176 0 306 -73t189 -205.5t32 -300.5l-8 -47q-42 -279 -228 -426.5t-479 -147.5zM643 238q143 0 229 84t111 235q24 142 -42 235t-196 93q-144 0 -230 -87t-112 -241q-22 -138 44.5 -228.5t195.5 -90.5z" />
    <glyph glyph-name="divide" unicode="&#xf7;" horiz-adv-x="1220" 
d="M817 987h-305l47 301h305zM1108 571h-1018l43 267h1018zM680 123h-305l47 299h305z" />
    <glyph glyph-name="oslash" unicode="&#xf8;" horiz-adv-x="1456" 
d="M264 -127h-201l185 221q-86 78 -123 191.5t-16 249.5l8 47q45 281 230.5 430t479.5 149q146 0 263 -51l94 113h202l-165 -199q84 -79 119 -192.5t14 -249.5l-8 -47q-44 -279 -229.5 -426.5t-479.5 -147.5q-148 0 -258 49zM442 557q-18 -113 25 -197l420 504
q-47 21 -105 21q-143 0 -229.5 -87.5t-110.5 -240.5zM682 238q143 0 228.5 84.5t109.5 234.5q18 116 -21 199l-417 -500q46 -18 100 -18z" />
    <glyph glyph-name="ugrave" unicode="&#xf9;" horiz-adv-x="1320" 
d="M864 1253h-293l-165 428h346zM446 -35h-14q-124 0 -205.5 68t-110 181.5t-5.5 256.5l102 651h330l-107 -667q-14 -86 30 -141.5t128 -55.5q96 0 155 53.5t74 151.5l105 659h329l-178 -1122h-260l41 264q-118 -299 -414 -299z" />
    <glyph glyph-name="uacute" unicode="&#xfa;" horiz-adv-x="1320" 
d="M836 1253h-285l250 428h336zM446 -35h-14q-124 0 -205.5 68t-110 181.5t-5.5 256.5l102 651h330l-107 -667q-14 -86 30 -141.5t128 -55.5q96 0 155 53.5t74 151.5l105 659h329l-178 -1122h-260l41 264q-118 -299 -414 -299z" />
    <glyph glyph-name="ucircumflex" unicode="&#xfb;" horiz-adv-x="1320" 
d="M573 1253h-270l277 428h399l147 -428h-276l-84 275h-25zM446 -35h-14q-124 0 -205.5 68t-110 181.5t-5.5 256.5l102 651h330l-107 -667q-14 -86 30 -141.5t128 -55.5q96 0 155 53.5t74 151.5l105 659h329l-178 -1122h-260l41 264q-118 -299 -414 -299z" />
    <glyph glyph-name="udieresis" unicode="&#xfc;" horiz-adv-x="1320" 
d="M502 1292q-88 0 -123.5 46.5t-22.5 123.5q11 78 61.5 125t137.5 47t122.5 -47t24.5 -125q-13 -77 -63 -123.5t-137 -46.5zM942 1292q-88 0 -123 46.5t-22 123.5q11 78 61 125t137 47t123 -47t25 -125q-13 -76 -63.5 -123t-137.5 -47zM446 -35h-14q-124 0 -205.5 68
t-110 181.5t-5.5 256.5l102 651h330l-107 -667q-14 -86 30 -141.5t128 -55.5q96 0 155 53.5t74 151.5l105 659h329l-178 -1122h-260l41 264q-118 -299 -414 -299z" />
    <glyph glyph-name="yacute" unicode="&#xfd;" horiz-adv-x="1167" 
d="M778 1253h-286l249 428h338zM178 -444h-201l46 278h233q148 0 207 141l20 50h-213l-172 1097h330l117 -841h41l336 841h313l-506 -1212q-148 -354 -551 -354z" />
    <glyph glyph-name="thorn" unicode="&#xfe;" horiz-adv-x="1509" 
d="M385 -410h-328l301 1905h328l-90 -571q141 227 430 227q147 0 247.5 -75.5t139.5 -203.5t14 -288l-8 -47q-42 -270 -196 -421t-408 -151q-118 0 -205.5 50t-134.5 139zM764 238q140 0 223 85.5t107 237.5q22 136 -41 226t-187 90q-137 0 -223 -75t-108 -212l-13 -76
q-19 -121 49.5 -198.5t192.5 -77.5z" />
    <glyph glyph-name="ydieresis" unicode="&#xff;" horiz-adv-x="1167" 
d="M442 1292q-87 0 -122.5 47t-22.5 123q13 78 63 125t138 47q87 0 122.5 -47t22.5 -125q-13 -77 -63 -123.5t-138 -46.5zM883 1292q-87 0 -123 47t-23 123q13 78 63 125t138 47q87 0 122.5 -47t22.5 -125q-13 -77 -62.5 -123.5t-137.5 -46.5zM178 -444h-201l46 278h233
q148 0 207 141l20 50h-213l-172 1097h330l117 -841h41l336 841h313l-506 -1212q-148 -354 -551 -354z" />
    <glyph glyph-name="Amacron" unicode="&#x100;" horiz-adv-x="1601" 
d="M1307 1659h-801l35 229h800zM244 0h-336l731 1495h543l274 -1495h-348l-64 371h-624zM553 649h446l-96 572h-78z" />
    <glyph glyph-name="amacron" unicode="&#x101;" horiz-adv-x="1216" 
d="M1030 1327h-696l37 229h694zM373 -29q-174 0 -273 100t-73 261q57 356 563 356h203v4q12 75 -29.5 123.5t-118.5 48.5q-168 0 -414 -16l43 276q194 17 373 17q230 0 361 -125.5t98 -327.5l-111 -688h-260l33 211q-115 -240 -395 -240zM510 199q186 0 235 202l19 105h-207
q-84 0 -137.5 -39.5t-65.5 -116.5q-10 -68 34 -109.5t122 -41.5z" />
    <glyph glyph-name="Abreve" unicode="&#x102;" horiz-adv-x="1601" 
d="M887 1587q-186 0 -270 103.5t-62 283.5h236q-20 -168 131 -168q159 0 192 168h225q-36 -181 -151 -284t-301 -103zM244 0h-336l731 1495h543l274 -1495h-348l-64 371h-624zM553 649h446l-96 572h-78z" />
    <glyph glyph-name="abreve" unicode="&#x103;" horiz-adv-x="1216" 
d="M662 1241q-179 0 -257 109.5t-49 330.5h240q-13 -113 11.5 -162t88.5 -49q66 0 107.5 49t64.5 162h232q-81 -440 -438 -440zM373 -29q-174 0 -273 100t-73 261q57 356 563 356h203v4q12 75 -29.5 123.5t-118.5 48.5q-168 0 -414 -16l43 276q194 17 373 17
q230 0 361 -125.5t98 -327.5l-111 -688h-260l33 211q-115 -240 -395 -240zM510 199q186 0 235 202l19 105h-207q-84 0 -137.5 -39.5t-65.5 -116.5q-10 -68 34 -109.5t122 -41.5z" />
    <glyph glyph-name="Aogonek" unicode="&#x104;" horiz-adv-x="1601" 
d="M244 0h-336l731 1495h543l262 -1429l51 -66l-72 -55q-99 -75 -110 -148q-8 -39 14.5 -63.5t67.5 -24.5q48 0 96 19l-37 -238q-53 -16 -137 -16q-131 0 -203.5 78t-52.5 200q20 133 135 248h-88l-64 371h-624zM553 649h446l-96 572h-78z" />
    <glyph glyph-name="aogonek" unicode="&#x105;" horiz-adv-x="1216" 
d="M373 -29q-174 0 -273 100t-73 261q57 356 563 356h203v4q12 75 -29.5 123.5t-118.5 48.5q-168 0 -414 -16l43 276q194 17 373 17q230 0 361 -125.5t98 -327.5l-98 -606l65 -82l-76 -68q-83 -65 -94 -125q-4 -34 16 -52.5t60 -18.5q54 0 94 16l-39 -231q-49 -17 -131 -17
q-128 0 -194 68t-47 186q19 129 135 242h-62l33 211q-115 -240 -395 -240zM510 199q186 0 235 202l19 105h-207q-84 0 -137.5 -39.5t-65.5 -116.5q-10 -68 34 -109.5t122 -41.5z" />
    <glyph glyph-name="Cacute" unicode="&#x106;" horiz-adv-x="1638" 
d="M1081 1608h-311l313 366h353zM743 -39q-221 0 -380.5 98.5t-229.5 273.5t-35 396l6 45q59 366 286.5 566t592.5 200q192 0 336 -72t219.5 -209t65.5 -319h-336q-1 137 -93 212t-243 75q-207 0 -331.5 -126.5t-160.5 -350.5q-20 -135 15.5 -243.5t123.5 -170.5t214 -62
q345 0 438 285h338q-82 -298 -293.5 -448t-532.5 -150z" />
    <glyph glyph-name="cacute" unicode="&#x107;" horiz-adv-x="1251" 
d="M842 1253h-285l250 428h336zM571 -39q-167 0 -286.5 74t-171 206t-25.5 298l6 39q43 278 215.5 430.5t450.5 152.5q223 0 351 -125.5t108 -335.5h-322q3 83 -46.5 132t-135.5 49q-242 0 -295 -324q-21 -136 30 -225.5t164 -89.5q197 0 250 186h320q-50 -232 -208 -349.5
t-405 -117.5z" />
    <glyph glyph-name="Ccircumflex" unicode="&#x108;" horiz-adv-x="1638" 
d="M782 1608h-293l324 366h387l213 -366h-301l-117 211h-34zM743 -39q-221 0 -380.5 98.5t-229.5 273.5t-35 396l6 45q59 366 286.5 566t592.5 200q192 0 336 -72t219.5 -209t65.5 -319h-336q-1 137 -93 212t-243 75q-207 0 -331.5 -126.5t-160.5 -350.5
q-20 -135 15.5 -243.5t123.5 -170.5t214 -62q345 0 438 285h338q-82 -298 -293.5 -448t-532.5 -150z" />
    <glyph glyph-name="ccircumflex" unicode="&#x109;" horiz-adv-x="1251" 
d="M580 1253h-271l277 428h399l148 -428h-277l-84 275h-24zM571 -39q-167 0 -286.5 74t-171 206t-25.5 298l6 39q43 278 215.5 430.5t450.5 152.5q223 0 351 -125.5t108 -335.5h-322q3 83 -46.5 132t-135.5 49q-242 0 -295 -324q-21 -136 30 -225.5t164 -89.5q197 0 250 186
h320q-50 -232 -208 -349.5t-405 -117.5z" />
    <glyph glyph-name="Cdotaccent" unicode="&#x10a;" horiz-adv-x="1638" 
d="M948 1630q-89 0 -127.5 45.5t-25.5 122.5q12 78 66 124t143 46t126.5 -45.5t26.5 -124.5q-12 -76 -66 -122t-143 -46zM743 -39q-221 0 -380.5 98.5t-229.5 273.5t-35 396l6 45q59 366 286.5 566t592.5 200q192 0 336 -72t219.5 -209t65.5 -319h-336q-1 137 -93 212
t-243 75q-207 0 -331.5 -126.5t-160.5 -350.5q-20 -135 15.5 -243.5t123.5 -170.5t214 -62q345 0 438 285h338q-82 -298 -293.5 -448t-532.5 -150z" />
    <glyph glyph-name="cdotaccent" unicode="&#x10b;" horiz-adv-x="1251" 
d="M727 1292q-87 0 -122.5 47t-22.5 123q11 78 61 125t137 47q88 0 123.5 -47t24.5 -125q-13 -76 -63.5 -123t-137.5 -47zM571 -39q-167 0 -286.5 74t-171 206t-25.5 298l6 39q43 278 215.5 430.5t450.5 152.5q223 0 351 -125.5t108 -335.5h-322q3 83 -46.5 132t-135.5 49
q-242 0 -295 -324q-21 -136 30 -225.5t164 -89.5q197 0 250 186h320q-50 -232 -208 -349.5t-405 -117.5z" />
    <glyph glyph-name="Ccaron" unicode="&#x10c;" horiz-adv-x="1638" 
d="M1135 1608h-385l-213 366h301l114 -209h35l174 209h293zM743 -39q-221 0 -380.5 98.5t-229.5 273.5t-35 396l6 45q59 366 286.5 566t592.5 200q192 0 336 -72t219.5 -209t65.5 -319h-336q-1 137 -93 212t-243 75q-207 0 -331.5 -126.5t-160.5 -350.5
q-20 -135 15.5 -243.5t123.5 -170.5t214 -62q345 0 438 285h338q-82 -298 -293.5 -448t-532.5 -150z" />
    <glyph glyph-name="ccaron" unicode="&#x10d;" horiz-adv-x="1251" 
d="M909 1253h-403l-146 428h277l86 -274h25l155 274h268zM571 -39q-167 0 -286.5 74t-171 206t-25.5 298l6 39q43 278 215.5 430.5t450.5 152.5q223 0 351 -125.5t108 -335.5h-322q3 83 -46.5 132t-135.5 49q-242 0 -295 -324q-21 -136 30 -225.5t164 -89.5q197 0 250 186
h320q-50 -232 -208 -349.5t-405 -117.5z" />
    <glyph glyph-name="Dcaron" unicode="&#x10e;" horiz-adv-x="1599" 
d="M1067 1608h-387l-211 366h299l115 -209h37l172 209h294zM604 -8h-555l240 1515h555q172 0 313.5 -53.5t234 -148.5t133 -232.5t15.5 -298.5l-8 -45q-56 -361 -299.5 -549t-628.5 -188zM813 1194h-238l-141 -889h238q218 0 354 116t170 331q31 193 -77 317.5t-306 124.5z
" />
    <glyph glyph-name="dcaron" unicode="&#x10f;" horiz-adv-x="1439" 
d="M1681 1151h-245l84 528h278zM528 -37q-156 0 -266 74t-155 203.5t-19 291.5l6 48q44 272 200 423.5t413 151.5q118 0 202.5 -54t128.5 -151l86 545h328l-238 -1495h-260l37 225q-145 -262 -463 -262zM655 238q134 0 217 76t107 214l12 76q19 122 -46.5 200.5t-188.5 78.5
q-142 0 -227 -86.5t-111 -239.5q-21 -139 44 -229t193 -90z" />
    <glyph glyph-name="Dcroat" unicode="&#x110;" horiz-adv-x="1599" 
d="M604 -8h-555l98 618h-92l45 275h90l99 622h555q172 0 313.5 -53.5t234 -148.5t133 -232.5t15.5 -298.5l-8 -45q-56 -361 -299.5 -549t-628.5 -188zM848 610h-365l-49 -305h238q218 0 354 116t170 331q31 193 -77 317.5t-306 124.5h-238l-49 -309h367z" />
    <glyph glyph-name="dcroat" unicode="&#x111;" horiz-adv-x="1439" 
d="M528 -37q-156 0 -266 74t-155 203.5t-19 291.5l6 48q44 272 200 423.5t413 151.5q118 0 202.5 -54t128.5 -151l41 269h-274l29 178h274l16 98h328l-16 -98h147l-29 -178h-145l-195 -1219h-260l37 225q-145 -262 -463 -262zM655 238q134 0 217 76t107 214l12 76
q19 122 -46.5 200.5t-188.5 78.5q-142 0 -227 -86.5t-111 -239.5q-21 -139 44 -229t193 -90z" />
    <glyph glyph-name="Emacron" unicode="&#x112;" horiz-adv-x="1216" 
d="M705 1659l-23 229h459l24 -229h-460zM1108 0h-940l238 1495h925l-43 -278h-600l-49 -318h563l-43 -278h-565l-53 -342h612z" />
    <glyph glyph-name="emacron" unicode="&#x113;" horiz-adv-x="1277" 
d="M1085 1327h-696l37 229h696zM580 -39q-256 0 -394.5 163t-97.5 417l6 41q43 277 215 428t449 151q162 0 278.5 -74t166 -205t24.5 -296l-21 -111h-817q5 -112 66 -180t168 -68q90 0 150 26.5t93 94.5h301q-144 -387 -587 -387zM715 895q-221 0 -295 -233h504
q-3 106 -57 169.5t-152 63.5z" />
    <glyph glyph-name="Ebreve" unicode="&#x114;" horiz-adv-x="1216" 
d="M887 1587q-188 0 -272 103.5t-60 283.5h233q-20 -168 134 -168t192 168h225q-36 -180 -151.5 -283.5t-300.5 -103.5zM1108 0h-940l238 1495h925l-43 -278h-600l-49 -318h563l-43 -278h-565l-53 -342h612z" />
    <glyph glyph-name="ebreve" unicode="&#x115;" horiz-adv-x="1277" 
d="M717 1241q-360 0 -305 440h239q-13 -113 11.5 -162t89.5 -49q66 0 107.5 49t64.5 162h231q-79 -440 -438 -440zM580 -39q-256 0 -394.5 163t-97.5 417l6 41q43 277 215 428t449 151q162 0 278.5 -74t166 -205t24.5 -296l-21 -111h-817q5 -112 66 -180t168 -68
q90 0 150 26.5t93 94.5h301q-144 -387 -587 -387zM715 895q-221 0 -295 -233h504q-3 106 -57 169.5t-152 63.5z" />
    <glyph glyph-name="Edotaccent" unicode="&#x116;" horiz-adv-x="1216" 
d="M893 1630q-89 0 -127.5 45.5t-26.5 122.5q12 78 66 124t143 46t127 -46t27 -124q-12 -76 -66 -122t-143 -46zM1108 0h-940l238 1495h925l-43 -278h-600l-49 -318h563l-43 -278h-565l-53 -342h612z" />
    <glyph glyph-name="edotaccent" unicode="&#x117;" horiz-adv-x="1277" 
d="M725 1292q-87 0 -122.5 47t-22.5 123q13 78 62.5 125t137.5 47q87 0 123 -47t23 -125q-13 -77 -63 -123.5t-138 -46.5zM580 -39q-256 0 -394.5 163t-97.5 417l6 41q43 277 215 428t449 151q162 0 278.5 -74t166 -205t24.5 -296l-21 -111h-817q5 -112 66 -180t168 -68
q90 0 150 26.5t93 94.5h301q-144 -387 -587 -387zM715 895q-221 0 -295 -233h504q-3 106 -57 169.5t-152 63.5z" />
    <glyph glyph-name="Eogonek" unicode="&#x118;" horiz-adv-x="1216" 
d="M918 -526q-131 0 -203.5 78t-52.5 200q23 133 135 248h-629l238 1495h925l-43 -278h-600l-49 -318h563l-43 -278h-565l-53 -342h612l-45 -279h-10l-74 -55q-100 -76 -111 -148q-6 -39 16 -63.5t66 -24.5q49 0 97 19l-37 -238q-50 -16 -137 -16z" />
    <glyph glyph-name="eogonek" unicode="&#x119;" horiz-adv-x="1277" 
d="M580 -39q-256 0 -394.5 163t-97.5 417l6 41q43 277 215 428t449 151q162 0 278.5 -74t166 -205t24.5 -296l-21 -111h-817q5 -112 66 -180t168 -68q90 0 150 26.5t93 94.5h301q-47 -127 -123 -209l25 -30l-78 -68q-84 -65 -92 -125q-6 -33 15 -52.5t61 -19.5q49 0 92 17
l-37 -232q-50 -16 -131 -16q-130 0 -196 68t-46 186q8 49 31 100q-52 -6 -108 -6zM715 895q-221 0 -295 -233h504q-3 106 -57 169.5t-152 63.5z" />
    <glyph glyph-name="Ecaron" unicode="&#x11a;" horiz-adv-x="1216" 
d="M1079 1608h-385l-213 366h301l115 -209h35l174 209h293zM1108 0h-940l238 1495h925l-43 -278h-600l-49 -318h563l-43 -278h-565l-53 -342h612z" />
    <glyph glyph-name="ecaron" unicode="&#x11b;" horiz-adv-x="1277" 
d="M907 1253h-403l-146 428h277l86 -274h24l156 274h268zM580 -39q-256 0 -394.5 163t-97.5 417l6 41q43 277 215 428t449 151q162 0 278.5 -74t166 -205t24.5 -296l-21 -111h-817q5 -112 66 -180t168 -68q90 0 150 26.5t93 94.5h301q-144 -387 -587 -387zM715 895
q-221 0 -295 -233h504q-3 106 -57 169.5t-152 63.5z" />
    <glyph glyph-name="Gcircumflex" unicode="&#x11c;" horiz-adv-x="1705" 
d="M776 1608h-293l324 366h387l213 -366h-301l-117 211h-35zM764 -39q-171 0 -308.5 57.5t-225.5 158t-124.5 244t-9.5 310.5l6 45q59 365 287 564.5t592 199.5q294 0 467.5 -158.5t155.5 -429.5h-336q0 133 -92.5 204t-243.5 71q-208 0 -333 -125.5t-161 -349.5
q-33 -211 70.5 -348.5t302.5 -137.5q245 0 371 142l20 129h-391l39 241h823l-39 -241h-123l-41 -254q-136 -175 -303.5 -248.5t-402.5 -73.5z" />
    <glyph glyph-name="gcircumflex" unicode="&#x11d;" horiz-adv-x="1404" 
d="M600 1253h-270l278 428h400l145 -428h-276l-84 275h-25zM428 -446q-158 0 -319 22l43 277q180 -25 313 -25q176 0 287 68.5t135 216.5l14 88q-141 -209 -414 -209q-148 0 -251.5 73t-144.5 199.5t-17 284.5l8 47q42 265 198 412t412 147q143 0 236.5 -75.5t126.5 -205.5
l39 248h260l-156 -989q-45 -289 -247.5 -434t-522.5 -145zM635 268q132 0 212.5 74.5t102.5 210.5l11 59q19 119 -45.5 196t-182.5 77q-137 0 -220 -83t-107 -229q-21 -132 42.5 -218.5t186.5 -86.5z" />
    <glyph glyph-name="Gbreve" unicode="&#x11e;" horiz-adv-x="1705" 
d="M936 1587q-188 0 -272 103.5t-60 283.5h234q-20 -168 133 -168q154 0 192 168h226q-36 -180 -152 -283.5t-301 -103.5zM764 -39q-171 0 -308.5 57.5t-225.5 158t-124.5 244t-9.5 310.5l6 45q59 365 287 564.5t592 199.5q294 0 467.5 -158.5t155.5 -429.5h-336
q0 133 -92.5 204t-243.5 71q-208 0 -333 -125.5t-161 -349.5q-33 -211 70.5 -348.5t302.5 -137.5q245 0 371 142l20 129h-391l39 241h823l-39 -241h-123l-41 -254q-136 -175 -303.5 -248.5t-402.5 -73.5z" />
    <glyph glyph-name="gbreve" unicode="&#x11f;" horiz-adv-x="1404" 
d="M739 1241q-360 0 -305 440h240q-13 -113 11.5 -162t88.5 -49q66 0 107.5 49t64.5 162h232q-79 -440 -439 -440zM428 -446q-158 0 -319 22l43 277q180 -25 313 -25q176 0 287 68.5t135 216.5l14 88q-141 -209 -414 -209q-148 0 -251.5 73t-144.5 199.5t-17 284.5l8 47
q42 265 198 412t412 147q143 0 236.5 -75.5t126.5 -205.5l39 248h260l-156 -989q-45 -289 -247.5 -434t-522.5 -145zM635 268q132 0 212.5 74.5t102.5 210.5l11 59q19 119 -45.5 196t-182.5 77q-137 0 -220 -83t-107 -229q-21 -132 42.5 -218.5t186.5 -86.5z" />
    <glyph glyph-name="Gdotaccent" unicode="&#x120;" horiz-adv-x="1705" 
d="M942 1630q-89 0 -127.5 45.5t-26.5 122.5q12 78 66 124t143 46t127 -46t27 -124q-12 -76 -66 -122t-143 -46zM764 -39q-171 0 -308.5 57.5t-225.5 158t-124.5 244t-9.5 310.5l6 45q59 365 287 564.5t592 199.5q294 0 467.5 -158.5t155.5 -429.5h-336q0 133 -92.5 204
t-243.5 71q-208 0 -333 -125.5t-161 -349.5q-33 -211 70.5 -348.5t302.5 -137.5q245 0 371 142l20 129h-391l39 241h823l-39 -241h-123l-41 -254q-136 -175 -303.5 -248.5t-402.5 -73.5z" />
    <glyph glyph-name="gdotaccent" unicode="&#x121;" horiz-adv-x="1404" 
d="M748 1292q-87 0 -123 47t-23 123q13 78 63 125t138 47q87 0 122.5 -47t22.5 -125q-13 -77 -62.5 -123.5t-137.5 -46.5zM428 -446q-158 0 -319 22l43 277q180 -25 313 -25q176 0 287 68.5t135 216.5l14 88q-141 -209 -414 -209q-148 0 -251.5 73t-144.5 199.5t-17 284.5
l8 47q42 265 198 412t412 147q143 0 236.5 -75.5t126.5 -205.5l39 248h260l-156 -989q-45 -289 -247.5 -434t-522.5 -145zM635 268q132 0 212.5 74.5t102.5 210.5l11 59q19 119 -45.5 196t-182.5 77q-137 0 -220 -83t-107 -229q-21 -132 42.5 -218.5t186.5 -86.5z" />
    <glyph glyph-name="Gcommaaccent" unicode="&#x122;" horiz-adv-x="1705" 
d="M764 -39q-171 0 -308.5 57.5t-225.5 158t-124.5 244t-9.5 310.5l6 45q59 365 287 564.5t592 199.5q294 0 467.5 -158.5t155.5 -429.5h-336q0 133 -92.5 204t-243.5 71q-208 0 -333 -125.5t-161 -349.5q-33 -211 70.5 -348.5t302.5 -137.5q245 0 371 142l20 129h-391
l39 241h823l-39 -241h-123l-41 -254q-136 -175 -303.5 -248.5t-402.5 -73.5zM690 -627h-51l25 160h55q126 0 143 113q-34 -15 -65 -15q-57 0 -88 35t-21 96q10 72 64 109t125 37q93 0 135.5 -63t23.5 -175l-2 -12q-21 -138 -113 -211.5t-231 -73.5z" />
    <glyph glyph-name="gcommaaccent" unicode="&#x123;" horiz-adv-x="1404" 
d="M741 1221q-90 0 -131 62.5t-22 174.5l2 12q21 135 111 208t227 73h47l-27 -158h-51q-62 0 -95 -30t-40 -78v-2q24 12 57 12q56 0 86 -35t21 -96q-13 -71 -65 -107t-120 -36zM428 -446q-158 0 -319 22l43 277q180 -25 313 -25q176 0 287 68.5t135 216.5l14 88
q-141 -209 -414 -209q-148 0 -251.5 73t-144.5 199.5t-17 284.5l8 47q42 265 198 412t412 147q143 0 236.5 -75.5t126.5 -205.5l39 248h260l-156 -989q-45 -289 -247.5 -434t-522.5 -145zM635 268q132 0 212.5 74.5t102.5 210.5l11 59q19 119 -45.5 196t-182.5 77
q-137 0 -220 -83t-107 -229q-21 -132 42.5 -218.5t186.5 -86.5z" />
    <glyph glyph-name="Hbar" unicode="&#x126;" horiz-adv-x="1638" 
d="M385 0h-336l176 1104h-108l37 231h108l25 160h336l-25 -160h631l24 160h336l-24 -160h106l-37 -231h-106l-176 -1104h-336l96 604h-631zM528 899h631l33 205h-631z" />
    <glyph glyph-name="hbar" unicode="&#x127;" horiz-adv-x="1335" 
d="M475 0h-328l195 1219h-168l29 178h166l16 98h328l-17 -98h256l-28 -178h-254l-43 -279q121 217 362 217h15q122 0 200 -70.5t102.5 -186t0.5 -261.5l-103 -639h-327l104 659q14 88 -32 146.5t-132 58.5q-96 0 -156 -53t-79 -149l-4 -29z" />
    <glyph glyph-name="Itilde" unicode="&#x128;" horiz-adv-x="679" 
d="M621 1610q-58 0 -106.5 17t-76.5 37t-69.5 37t-87.5 17q-119 0 -201 -82l-14 222q98 102 256 102q58 0 106.5 -17t76.5 -37.5t69.5 -37.5t87.5 -17q120 0 204 84l15 -223q-102 -102 -260 -102zM389 0h-336l238 1495h336z" />
    <glyph glyph-name="itilde" unicode="&#x129;" horiz-adv-x="684" 
d="M547 1278q-45 0 -81.5 10.5t-61.5 26t-48.5 31t-53 26t-64.5 10.5q-97 0 -177 -73l-12 223q96 92 230 92q45 0 82 -10.5t61.5 -26t47.5 -31t52.5 -26t63.5 -10.5q98 0 182 73l12 -223q-103 -92 -233 -92zM442 0h-329l139 881h-150l39 241h480z" />
    <glyph glyph-name="Imacron" unicode="&#x12a;" horiz-adv-x="679" 
d="M854 1659h-799l35 229h799zM389 0h-336l238 1495h336z" />
    <glyph glyph-name="imacron" unicode="&#x12b;" horiz-adv-x="684" 
d="M748 1327h-695l35 229h696zM442 0h-329l139 881h-150l39 241h480z" />
    <glyph glyph-name="Ibreve" unicode="&#x12c;" horiz-adv-x="679" 
d="M436 1587q-187 0 -271.5 103.5t-62.5 283.5h236q-20 -168 133 -168q79 0 127 44.5t64 123.5h225q-35 -180 -150 -283.5t-301 -103.5zM389 0h-336l238 1495h336z" />
    <glyph glyph-name="ibreve" unicode="&#x12d;" horiz-adv-x="684" 
d="M379 1241q-360 0 -305 440h239q-13 -113 12 -162t91 -49q65 0 107 49.5t63 161.5h231q-79 -440 -438 -440zM442 0h-329l139 881h-150l39 241h480z" />
    <glyph glyph-name="Iogonek" unicode="&#x12e;" horiz-adv-x="679" 
d="M301 -526q-131 0 -203.5 78t-52.5 200q23 133 135 248h-127l238 1495h336l-221 -1397l75 -98l-73 -55q-100 -76 -111 -148q-6 -39 16 -63.5t66 -24.5q49 0 96 19l-37 -238q-50 -16 -137 -16z" />
    <glyph glyph-name="iogonek" unicode="&#x12f;" horiz-adv-x="684" 
d="M401 1233q-90 0 -128 46.5t-25 123.5q13 78 65.5 125t141.5 47t126.5 -46.5t24.5 -125.5q-11 -77 -63.5 -123.5t-141.5 -46.5zM289 -496q-130 0 -195.5 68t-46.5 186q19 129 135 242h-106l141 881h-149l38 241h478l-170 -1067l45 -55l-76 -68q-86 -67 -94 -125
q-6 -33 15 -52t61 -19q54 0 94 16l-39 -231q-49 -17 -131 -17z" />
    <glyph glyph-name="Idotaccent" unicode="&#x130;" horiz-adv-x="679" 
d="M442 1630q-89 0 -127.5 45.5t-25.5 122.5q12 78 65 124t142 46t127.5 -46t27.5 -124q-12 -76 -66 -122t-143 -46zM389 0h-336l238 1495h336z" />
    <glyph glyph-name="dotlessi" unicode="&#x131;" horiz-adv-x="684" 
d="M442 0h-329l139 881h-150l39 241h480z" />
    <glyph glyph-name="Jcircumflex" unicode="&#x134;" horiz-adv-x="1316" 
d="M645 1608h-293l324 366h387l211 -366h-299l-117 211h-35zM496 -39q-159 0 -273.5 71t-165 196.5t-26.5 283.5l12 76h332l-13 -94q-17 -95 35 -157.5t148 -62.5q105 0 170 57.5t84 162.5l110 708h-594l47 293h930l-47 -293l-108 -690q-41 -264 -207.5 -407.5
t-433.5 -143.5z" />
    <glyph glyph-name="jcircumflex" unicode="&#x135;" horiz-adv-x="694" 
d="M246 1253h-271l279 428h399l148 -428h-277l-84 275h-26zM-88 -420h-59l45 277h71q74 0 120 40t58 113l138 871h-156l37 241h475l-174 -1102q-39 -240 -168.5 -340t-386.5 -100z" />
    <glyph glyph-name="Kcommaaccent" unicode="&#x136;" horiz-adv-x="1540" 
d="M385 0h-336l238 1495h336l-111 -700l662 700h385l-613 -647l492 -848h-406l-405 698h-131zM625 -627h-52l27 160h55q125 0 142 113q-34 -15 -66 -15q-57 0 -87.5 35t-20.5 96q11 72 64.5 109t125.5 37q92 0 134.5 -63t25.5 -175l-2 -12q-23 -138 -115 -211.5t-231 -73.5z
" />
    <glyph glyph-name="kcommaaccent" unicode="&#x137;" horiz-adv-x="1308" 
d="M475 0h-328l238 1495h328l-144 -907l492 534h344l-444 -479l346 -643h-369l-270 524h-109zM836 -90q91 0 131.5 -62.5t23.5 -175.5l-2 -12q-23 -135 -112.5 -208t-227.5 -73h-45l25 160h51q62 0 95.5 30t39.5 79q-27 -10 -57 -10q-56 0 -85 34t-20 95q11 72 62.5 107.5
t120.5 35.5z" />
    <glyph glyph-name="Lacute" unicode="&#x139;" horiz-adv-x="1142" 
d="M571 1608h-311l313 366h353zM971 0h-922l238 1495h336l-191 -1200h586z" />
    <glyph glyph-name="lacute" unicode="&#x13a;" horiz-adv-x="645" 
d="M508 1608h-311l313 366h352zM375 0h-330l199 1253h-133l39 242h462z" />
    <glyph glyph-name="Lcommaaccent" unicode="&#x13b;" horiz-adv-x="1142" 
d="M971 0h-922l238 1495h336l-191 -1200h586zM436 -627h-51l27 160h55q124 0 141 113q-34 -15 -65 -15q-57 0 -87.5 34.5t-21.5 96.5q11 72 65 109t126 37q93 0 135.5 -63t23.5 -175l-2 -12q-23 -138 -115 -211.5t-231 -73.5z" />
    <glyph glyph-name="lcommaaccent" unicode="&#x13c;" horiz-adv-x="645" 
d="M375 0h-330l199 1253h-133l39 242h462zM180 -90q91 0 132 -63t24 -175l-2 -12q-23 -135 -112.5 -208t-227.5 -73h-45l24 160h52q62 0 95.5 30t39.5 79q-27 -10 -58 -10q-55 0 -84 33.5t-20 95.5q11 72 62 107.5t120 35.5z" />
    <glyph glyph-name="Lcaron" unicode="&#x13d;" horiz-adv-x="1142" 
d="M981 1165h-246l84 529h281zM971 0h-922l238 1495h336l-191 -1200h586z" />
    <glyph glyph-name="lcaron" unicode="&#x13e;" horiz-adv-x="645" 
d="M883 1151h-246l84 528h278zM375 0h-330l199 1253h-133l39 242h462z" />
    <glyph glyph-name="Lslash" unicode="&#x141;" horiz-adv-x="1142" 
d="M971 0h-922l78 485l-137 -71l43 266l135 74l119 741h336l-88 -557l327 174l-43 -266l-327 -174l-60 -377h586z" />
    <glyph glyph-name="lslash" unicode="&#x142;" horiz-adv-x="645" 
d="M375 0h-330l76 471l-154 -78l39 240l152 78l86 542h-133l39 242h462l-96 -608l146 71l-39 -239l-146 -72z" />
    <glyph glyph-name="Nacute" unicode="&#x143;" horiz-adv-x="1794" 
d="M1159 1608h-313l313 366h352zM360 0h-311l238 1495h551l368 -1223h31l193 1223h315l-238 -1495h-555l-368 1223h-29z" />
    <glyph glyph-name="nacute" unicode="&#x144;" horiz-adv-x="1335" 
d="M872 1253h-284l250 428h336zM385 0h-328l176 1122h261l-45 -291q118 326 432 326h14q124 0 206 -69.5t110.5 -185.5t5.5 -261l-103 -641h-328l105 659q14 88 -32 146.5t-132 58.5q-99 0 -161 -55.5t-77 -155.5z" />
    <glyph glyph-name="Ncommaaccent" unicode="&#x145;" horiz-adv-x="1794" 
d="M360 0h-311l238 1495h551l368 -1223h31l193 1223h315l-238 -1495h-555l-368 1223h-29zM692 -627h-51l27 160h55q124 0 141 113q-34 -15 -65 -15q-57 0 -88 35t-21 96q11 72 65 109t126 37q92 0 134 -63t25 -175l-2 -12q-23 -138 -115 -211.5t-231 -73.5z" />
    <glyph glyph-name="ncommaaccent" unicode="&#x146;" horiz-adv-x="1335" 
d="M385 0h-328l176 1122h261l-45 -291q118 326 432 326h14q124 0 206 -69.5t110.5 -185.5t5.5 -261l-103 -641h-328l105 659q14 88 -32 146.5t-132 58.5q-99 0 -161 -55.5t-77 -155.5zM766 -90q90 0 131.5 -63t22.5 -175l-2 -12q-21 -135 -111 -208t-227 -73h-48l27 160h49
q119 0 137 109v2q-24 -12 -57 -12q-56 0 -85.5 34t-20.5 95q11 72 62.5 107.5t121.5 35.5z" />
    <glyph glyph-name="Ncaron" unicode="&#x147;" horiz-adv-x="1794" 
d="M1210 1608h-385l-213 366h301l115 -209h35l174 209h293zM360 0h-311l238 1495h551l368 -1223h31l193 1223h315l-238 -1495h-555l-368 1223h-29z" />
    <glyph glyph-name="ncaron" unicode="&#x148;" horiz-adv-x="1335" 
d="M940 1253h-403l-146 428h277l86 -274h24l156 274h268zM385 0h-328l176 1122h261l-45 -291q118 326 432 326h14q124 0 206 -69.5t110.5 -185.5t5.5 -261l-103 -641h-328l105 659q14 88 -32 146.5t-132 58.5q-99 0 -161 -55.5t-77 -155.5z" />
    <glyph glyph-name="Eng" unicode="&#x14a;" horiz-adv-x="1794" 
d="M922 -492h-209l45 293h231q87 0 138.5 43.5t68.5 145.5l8 45h-260l-360 1188h-29l-195 -1223h-311l238 1495h551l360 -1192h43l189 1192h315l-236 -1491q-20 -121 -62 -211t-112 -155t-173 -97.5t-240 -32.5z" />
    <glyph glyph-name="eng" unicode="&#x14b;" horiz-adv-x="1335" 
d="M385 0h-328l176 1122h261l-45 -291q118 326 432 326h14q124 0 206 -69.5t110.5 -185.5t5.5 -261l-93 -580l-10 -69q-35 -214 -164.5 -311t-378.5 -97h-92l43 279h107q74 0 110 31t45 92l2 14l105 659q14 88 -32 146.5t-132 58.5q-99 0 -161 -55.5t-77 -155.5z" />
    <glyph glyph-name="Omacron" unicode="&#x14c;" horiz-adv-x="1769" 
d="M1399 1659h-799l35 229h799zM758 -39q-171 0 -310.5 57t-228.5 157.5t-126.5 243.5t-10.5 310l6 45q58 370 298 568t622 198q171 0 310 -57t228 -157t126.5 -243t10.5 -309l-6 -45q-58 -371 -297.5 -569.5t-621.5 -198.5zM807 274q222 0 359 125.5t173 350.5
q34 207 -73 342t-308 135q-223 0 -360.5 -125t-173.5 -352q-32 -207 74 -341.5t309 -134.5z" />
    <glyph glyph-name="omacron" unicode="&#x14d;" horiz-adv-x="1394" 
d="M1133 1327h-697l37 229h694zM600 -39q-177 0 -306 72t-188.5 203.5t-33.5 298.5l8 47q44 280 229.5 429.5t478.5 149.5q176 0 306 -73t189 -205.5t32 -300.5l-8 -47q-42 -279 -228 -426.5t-479 -147.5zM643 238q143 0 229 84t111 235q24 142 -42 235t-196 93
q-144 0 -230 -87t-112 -241q-22 -138 44.5 -228.5t195.5 -90.5z" />
    <glyph glyph-name="Obreve" unicode="&#x14e;" horiz-adv-x="1769" 
d="M981 1587q-188 0 -272 103.5t-60 283.5h234q-20 -168 133 -168q154 0 192 168h226q-36 -180 -152 -283.5t-301 -103.5zM758 -39q-171 0 -310.5 57t-228.5 157.5t-126.5 243.5t-10.5 310l6 45q58 370 298 568t622 198q171 0 310 -57t228 -157t126.5 -243t10.5 -309l-6 -45
q-58 -371 -297.5 -569.5t-621.5 -198.5zM807 274q222 0 359 125.5t173 350.5q34 207 -73 342t-308 135q-223 0 -360.5 -125t-173.5 -352q-32 -207 74 -341.5t309 -134.5z" />
    <glyph glyph-name="obreve" unicode="&#x14f;" horiz-adv-x="1394" 
d="M764 1241q-363 0 -305 440h239q-13 -113 11.5 -162t89.5 -49q66 0 107.5 49t64.5 162h231q-81 -440 -438 -440zM600 -39q-177 0 -306 72t-188.5 203.5t-33.5 298.5l8 47q44 280 229.5 429.5t478.5 149.5q176 0 306 -73t189 -205.5t32 -300.5l-8 -47q-42 -279 -228 -426.5
t-479 -147.5zM643 238q143 0 229 84t111 235q24 142 -42 235t-196 93q-144 0 -230 -87t-112 -241q-22 -138 44.5 -228.5t195.5 -90.5z" />
    <glyph glyph-name="Ohungarumlaut" unicode="&#x150;" horiz-adv-x="1769" 
d="M1276 1608h-246l240 366h272zM905 1608h-246l242 366h273zM758 -39q-171 0 -310.5 57t-228.5 157.5t-126.5 243.5t-10.5 310l6 45q58 370 298 568t622 198q171 0 310 -57t228 -157t126.5 -243t10.5 -309l-6 -45q-58 -371 -297.5 -569.5t-621.5 -198.5zM807 274
q222 0 359 125.5t173 350.5q34 207 -73 342t-308 135q-223 0 -360.5 -125t-173.5 -352q-32 -207 74 -341.5t309 -134.5z" />
    <glyph glyph-name="ohungarumlaut" unicode="&#x151;" horiz-adv-x="1394" 
d="M1061 1253h-238l232 428h258zM688 1253h-237l231 428h260zM600 -39q-177 0 -306 72t-188.5 203.5t-33.5 298.5l8 47q44 280 229.5 429.5t478.5 149.5q176 0 306 -73t189 -205.5t32 -300.5l-8 -47q-42 -279 -228 -426.5t-479 -147.5zM643 238q143 0 229 84t111 235
q24 142 -42 235t-196 93q-144 0 -230 -87t-112 -241q-22 -138 44.5 -228.5t195.5 -90.5z" />
    <glyph glyph-name="OE" unicode="&#x152;" horiz-adv-x="2138" 
d="M760 -43q-101 0 -190 19.5t-157 54t-125 82t-95 103.5t-67 119.5t-40 129.5t-14.5 132.5t8.5 129.5l8 45q17 114 65.5 223.5t130 208t186.5 173.5t245 119t297 44q151 0 268 -45h852l-43 -278h-600l-49 -318h567l-45 -278h-567l-54 -342h613l-45 -279h-867
q-118 -43 -282 -43zM809 268q111 0 209 37l141 887q-84 35 -198 35q-211 0 -357 -133.5t-180 -345.5q-32 -205 72.5 -342.5t312.5 -137.5z" />
    <glyph glyph-name="oe" unicode="&#x153;" horiz-adv-x="2185" 
d="M590 -37q-144 0 -253.5 47t-172 126.5t-86.5 182.5t-6 218l8 45q18 118 76.5 223t147.5 184.5t212 125.5t262 46q306 0 424 -211q173 211 455 211q130 0 228.5 -47t153.5 -127t75 -183t2 -218l-17 -109h-821q-2 -118 55 -183t178 -65q89 0 153.5 32t92.5 87h301
q-66 -177 -219 -282t-360 -105q-150 0 -249 57t-149 156q-184 -211 -491 -211zM1606 893q-106 0 -182 -60.5t-113 -173.5h506q2 113 -52 173.5t-159 60.5zM643 242q137 0 226.5 88t111.5 229q24 143 -40 234.5t-198 91.5q-133 0 -224.5 -91.5t-115.5 -234.5
q-22 -141 40.5 -229t199.5 -88z" />
    <glyph glyph-name="Racute" unicode="&#x154;" horiz-adv-x="1495" 
d="M946 1608h-311l313 366h352zM387 0h-336l238 1507h588q172 0 300.5 -60t191 -175t38.5 -266l-6 -33q-50 -325 -350 -438l297 -535h-390l-251 479h-244zM860 1223h-280l-76 -480h278q117 0 189.5 62t91.5 178q17 104 -40 172t-163 68z" />
    <glyph glyph-name="racute" unicode="&#x155;" horiz-adv-x="862" 
d="M674 1253h-287l250 428h338zM385 0h-328l176 1122h261l-62 -387q48 189 160.5 295.5t292.5 106.5h43l-43 -283h-82q-136 0 -221 -74t-107 -209z" />
    <glyph glyph-name="Rcommaaccent" unicode="&#x156;" horiz-adv-x="1495" 
d="M387 0h-336l238 1507h588q172 0 300.5 -60t191 -175t38.5 -266l-6 -33q-50 -325 -350 -438l297 -535h-390l-251 479h-244zM860 1223h-280l-76 -480h278q117 0 189.5 62t91.5 178q17 104 -40 172t-163 68zM582 -627h-52l27 160h55q125 0 142 113q-34 -15 -66 -15
q-57 0 -87 34.5t-21 96.5q11 72 64.5 109t125.5 37q93 0 136 -63t24 -175l-2 -12q-23 -138 -115 -211.5t-231 -73.5z" />
    <glyph glyph-name="rcommaaccent" unicode="&#x157;" horiz-adv-x="862" 
d="M385 0h-328l176 1122h261l-62 -387q48 189 160.5 295.5t292.5 106.5h43l-43 -283h-82q-136 0 -221 -74t-107 -209zM453 -90q90 0 131 -63t22 -175l-2 -12q-21 -135 -111 -208t-227 -73h-47l27 160h49q119 0 137 109v2q-24 -12 -57 -12q-56 0 -86 34t-21 95
q11 72 63 107.5t122 35.5z" />
    <glyph glyph-name="Rcaron" unicode="&#x158;" horiz-adv-x="1495" 
d="M999 1608h-387l-211 366h301l113 -209h37l174 209h293zM387 0h-336l238 1507h588q172 0 300.5 -60t191 -175t38.5 -266l-6 -33q-50 -325 -350 -438l297 -535h-390l-251 479h-244zM860 1223h-280l-76 -480h278q117 0 189.5 62t91.5 178q17 104 -40 172t-163 68z" />
    <glyph glyph-name="rcaron" unicode="&#x159;" horiz-adv-x="862" 
d="M741 1253h-405l-146 428h279l84 -274h27l153 274h271zM385 0h-328l176 1122h261l-62 -387q48 189 160.5 295.5t292.5 106.5h43l-43 -283h-82q-136 0 -221 -74t-107 -209z" />
    <glyph glyph-name="Sacute" unicode="&#x15a;" horiz-adv-x="1366" 
d="M899 1608h-313l313 366h352zM561 -39q-131 0 -240 34.5t-184 97.5t-109 157.5t-16 208.5h328q-17 -102 59.5 -158.5t206.5 -56.5q286 0 318 194q6 42 -10 73.5t-50.5 50t-76.5 29t-97 15.5l-112 10q-215 18 -331.5 142t-84.5 317q36 231 200.5 348t423.5 117
q158 0 276 -59.5t174.5 -171.5t33.5 -256h-326q15 92 -43.5 148t-161.5 56q-104 0 -169.5 -45t-82.5 -137q-10 -71 37.5 -115.5t130.5 -50.5l113 -10q241 -21 377 -141.5t104 -319.5q-19 -125 -78 -217.5t-150.5 -149t-206 -83.5t-253.5 -27z" />
    <glyph glyph-name="sacute" unicode="&#x15b;" horiz-adv-x="1138" 
d="M748 1253h-287l250 428h338zM477 -35q-220 0 -349.5 98.5t-107.5 276.5h291q-3 -72 55 -104.5t154 -32.5q47 0 80 4t64.5 15.5t50 35t24.5 59.5q4 26 -4 45.5t-23 31.5t-41 21.5t-50.5 14t-59.5 8.5l-86 8q-177 20 -275.5 110.5t-74.5 238.5q30 184 168 272t354 88
q135 0 235.5 -42t154 -127t40.5 -202h-293q3 65 -47 98t-131 33q-52 0 -88 -8t-63 -32.5t-33 -65.5q-7 -51 33 -74.5t116 -32.5l86 -8q191 -21 297.5 -114t81.5 -248q-16 -99 -64 -171t-123 -114t-167 -62t-205 -20z" />
    <glyph glyph-name="Scircumflex" unicode="&#x15c;" horiz-adv-x="1366" 
d="M600 1608h-293l322 366h389l211 -366h-301l-115 211h-37zM561 -39q-131 0 -240 34.5t-184 97.5t-109 157.5t-16 208.5h328q-17 -102 59.5 -158.5t206.5 -56.5q286 0 318 194q6 42 -10 73.5t-50.5 50t-76.5 29t-97 15.5l-112 10q-215 18 -331.5 142t-84.5 317
q36 231 200.5 348t423.5 117q158 0 276 -59.5t174.5 -171.5t33.5 -256h-326q15 92 -43.5 148t-161.5 56q-104 0 -169.5 -45t-82.5 -137q-10 -71 37.5 -115.5t130.5 -50.5l113 -10q241 -21 377 -141.5t104 -319.5q-19 -125 -78 -217.5t-150.5 -149t-206 -83.5t-253.5 -27z
" />
    <glyph glyph-name="scircumflex" unicode="&#x15d;" horiz-adv-x="1138" 
d="M483 1253h-270l279 428h399l147 -428h-276l-84 275h-27zM477 -35q-220 0 -349.5 98.5t-107.5 276.5h291q-3 -72 55 -104.5t154 -32.5q47 0 80 4t64.5 15.5t50 35t24.5 59.5q4 26 -4 45.5t-23 31.5t-41 21.5t-50.5 14t-59.5 8.5l-86 8q-177 20 -275.5 110.5t-74.5 238.5
q30 184 168 272t354 88q135 0 235.5 -42t154 -127t40.5 -202h-293q3 65 -47 98t-131 33q-52 0 -88 -8t-63 -32.5t-33 -65.5q-7 -51 33 -74.5t116 -32.5l86 -8q191 -21 297.5 -114t81.5 -248q-16 -99 -64 -171t-123 -114t-167 -62t-205 -20z" />
    <glyph glyph-name="Scedilla" unicode="&#x15e;" horiz-adv-x="1366" 
d="M561 -39q-131 0 -240 34.5t-184 97.5t-109 157.5t-16 208.5h328q-17 -102 59.5 -158.5t206.5 -56.5q286 0 318 194q6 42 -10 73.5t-50.5 50t-76.5 29t-97 15.5l-112 10q-215 18 -331.5 142t-84.5 317q36 231 200.5 348t423.5 117q158 0 276 -59.5t174.5 -171.5t33.5 -256
h-326q15 92 -43.5 148t-161.5 56q-104 0 -169.5 -45t-82.5 -137q-10 -71 37.5 -115.5t130.5 -50.5l113 -10q241 -21 377 -141.5t104 -319.5q-30 -193 -150.5 -305.5t-314.5 -150.5l-12 -78q98 -15 145.5 -68.5t34.5 -140.5q-18 -113 -116.5 -186.5t-251.5 -73.5
q-112 0 -172 24l32 209q78 -24 158 -24q122 0 131 57q5 24 -16 35.5t-70 11.5h-108l32 213h-10z" />
    <glyph glyph-name="scedilla" unicode="&#x15f;" horiz-adv-x="1138" 
d="M414 -553q-89 0 -162 25l31 200q78 -24 149 -24q113 0 123 57q3 23 -15.5 35t-62.5 12h-108l34 215q-190 18 -297 115t-86 258h291q-3 -72 55 -104.5t154 -32.5q47 0 80 4t64.5 15.5t50 35t24.5 59.5q4 26 -4 45.5t-23 31.5t-41 21.5t-50.5 14t-59.5 8.5l-86 8
q-177 20 -275.5 110.5t-74.5 238.5q30 184 168 272t354 88q135 0 235.5 -42t154 -127t40.5 -202h-293q3 65 -47 98t-131 33q-52 0 -88 -8t-63 -32.5t-33 -65.5q-7 -51 33 -74.5t116 -32.5l86 -8q191 -21 297.5 -114t81.5 -248q-51 -316 -432 -361l-12 -65q99 -15 145 -67.5
t33 -139.5q-18 -110 -112 -181t-244 -71z" />
    <glyph glyph-name="Scaron" unicode="&#x160;" horiz-adv-x="1366" 
d="M952 1608h-387l-211 366h299l115 -209h37l172 209h295zM561 -39q-131 0 -240 34.5t-184 97.5t-109 157.5t-16 208.5h328q-17 -102 59.5 -158.5t206.5 -56.5q286 0 318 194q6 42 -10 73.5t-50.5 50t-76.5 29t-97 15.5l-112 10q-215 18 -331.5 142t-84.5 317
q36 231 200.5 348t423.5 117q158 0 276 -59.5t174.5 -171.5t33.5 -256h-326q15 92 -43.5 148t-161.5 56q-104 0 -169.5 -45t-82.5 -137q-10 -71 37.5 -115.5t130.5 -50.5l113 -10q241 -21 377 -141.5t104 -319.5q-19 -125 -78 -217.5t-150.5 -149t-206 -83.5t-253.5 -27z
" />
    <glyph glyph-name="scaron" unicode="&#x161;" horiz-adv-x="1138" 
d="M815 1253h-405l-144 428h277l84 -274h26l156 274h268zM477 -35q-220 0 -349.5 98.5t-107.5 276.5h291q-3 -72 55 -104.5t154 -32.5q47 0 80 4t64.5 15.5t50 35t24.5 59.5q4 26 -4 45.5t-23 31.5t-41 21.5t-50.5 14t-59.5 8.5l-86 8q-177 20 -275.5 110.5t-74.5 238.5
q30 184 168 272t354 88q135 0 235.5 -42t154 -127t40.5 -202h-293q3 65 -47 98t-131 33q-52 0 -88 -8t-63 -32.5t-33 -65.5q-7 -51 33 -74.5t116 -32.5l86 -8q191 -21 297.5 -114t81.5 -248q-16 -99 -64 -171t-123 -114t-167 -62t-205 -20z" />
    <glyph glyph-name="Tcedilla" unicode="&#x162;" horiz-adv-x="1265" 
d="M500 -565q-110 0 -170 24l32 209q78 -24 158 -24q122 0 131 57q3 23 -18 35t-68 12h-110l41 252h-150l191 1202h-420l47 293h1177l-47 -293h-422l-186 -1175h25l-21 -123q98 -15 145.5 -68.5t34.5 -140.5q-20 -113 -118.5 -186.5t-251.5 -73.5z" />
    <glyph glyph-name="tcedilla" unicode="&#x163;" horiz-adv-x="888" 
d="M406 -553q-93 0 -162 25l30 200q74 -24 148 -24q115 0 125 57q3 23 -15.5 35t-64.5 12h-107l39 252q-143 42 -213.5 158.5t-44.5 275.5l70 445h-172l39 239h172l47 303h305l-47 -303h326l-39 -239h-326l-72 -457q-12 -71 27 -117.5t111 -46.5h163l-43 -276h-106l-14 -80
q100 -15 146.5 -67.5t31.5 -139.5q-16 -110 -110.5 -181t-243.5 -71z" />
    <glyph glyph-name="Tcaron" unicode="&#x164;" horiz-adv-x="1265" 
d="M922 1608h-387l-211 366h301l112 -209h37l174 209h293zM682 0h-336l191 1202h-420l47 293h1177l-47 -293h-422z" />
    <glyph glyph-name="tcaron" unicode="&#x165;" horiz-adv-x="888" 
d="M905 1237h-246l84 528h281zM702 -14h-157q-208 0 -322 126.5t-82 325.5l70 445h-172l39 239h172l47 303h305l-47 -303h326l-39 -239h-326l-72 -457q-12 -71 27 -117.5t111 -46.5h163z" />
    <glyph glyph-name="Tbar" unicode="&#x166;" horiz-adv-x="1265" 
d="M682 0h-336l96 604h-295l37 232h295l58 366h-420l47 293h1177l-47 -293h-422l-57 -366h295l-37 -232h-295z" />
    <glyph glyph-name="tbar" unicode="&#x167;" horiz-adv-x="888" 
d="M702 -14h-157q-208 0 -322 126.5t-82 325.5l11 68h-86l26 176h88l31 201h-172l39 239h172l47 303h305l-47 -303h326l-39 -239h-326l-31 -201h357l-27 -176h-358l-13 -80q-12 -71 27 -117.5t111 -46.5h163z" />
    <glyph glyph-name="Utilde" unicode="&#x168;" horiz-adv-x="1589" 
d="M1075 1610q-58 0 -106.5 17t-76.5 37t-69 37t-86 17q-120 0 -202 -82l-15 222q98 102 256 102q58 0 107 -17t77 -37.5t69.5 -37.5t86.5 -17q125 0 205 84l14 -223q-102 -102 -260 -102zM588 -39q-189 0 -325.5 82.5t-196.5 230.5t-31 334l139 887h336l-141 -899
q-23 -141 52.5 -231.5t215.5 -90.5q155 0 250.5 84t118.5 238l143 899h336l-142 -887q-47 -312 -243.5 -479.5t-511.5 -167.5z" />
    <glyph glyph-name="utilde" unicode="&#x169;" horiz-adv-x="1320" 
d="M881 1278q-45 0 -82.5 10.5t-62.5 26t-48.5 31t-53 26t-63.5 10.5q-98 0 -178 -73l-12 223q99 92 231 92q45 0 81.5 -10.5t61 -26t48 -31t53 -26t64.5 -10.5q96 0 180 73l12 -223q-100 -92 -231 -92zM446 -35h-14q-124 0 -205.5 68t-110 181.5t-5.5 256.5l102 651h330
l-107 -667q-14 -86 30 -141.5t128 -55.5q96 0 155 53.5t74 151.5l105 659h329l-178 -1122h-260l41 264q-118 -299 -414 -299z" />
    <glyph glyph-name="Umacron" unicode="&#x16a;" horiz-adv-x="1589" 
d="M1309 1659h-799l35 229h798zM588 -39q-189 0 -325.5 82.5t-196.5 230.5t-31 334l139 887h336l-141 -899q-23 -141 52.5 -231.5t215.5 -90.5q155 0 250.5 84t118.5 238l143 899h336l-142 -887q-47 -312 -243.5 -479.5t-511.5 -167.5z" />
    <glyph glyph-name="umacron" unicode="&#x16b;" horiz-adv-x="1320" 
d="M1081 1327h-696l37 229h694zM446 -35h-14q-124 0 -205.5 68t-110 181.5t-5.5 256.5l102 651h330l-107 -667q-14 -86 30 -141.5t128 -55.5q96 0 155 53.5t74 151.5l105 659h329l-178 -1122h-260l41 264q-118 -299 -414 -299z" />
    <glyph glyph-name="Ubreve" unicode="&#x16c;" horiz-adv-x="1589" 
d="M891 1587q-188 0 -272 103.5t-60 283.5h234q-20 -168 133 -168q154 0 192 168h225q-36 -180 -151.5 -283.5t-300.5 -103.5zM588 -39q-189 0 -325.5 82.5t-196.5 230.5t-31 334l139 887h336l-141 -899q-23 -141 52.5 -231.5t215.5 -90.5q155 0 250.5 84t118.5 238l143 899
h336l-142 -887q-47 -312 -243.5 -479.5t-511.5 -167.5z" />
    <glyph glyph-name="ubreve" unicode="&#x16d;" horiz-adv-x="1320" 
d="M713 1241q-363 0 -305 440h239q-13 -113 11.5 -162t89.5 -49q66 0 107.5 49t64.5 162h231q-81 -440 -438 -440zM446 -35h-14q-124 0 -205.5 68t-110 181.5t-5.5 256.5l102 651h330l-107 -667q-14 -86 30 -141.5t128 -55.5q96 0 155 53.5t74 151.5l105 659h329l-178 -1122
h-260l41 264q-118 -299 -414 -299z" />
    <glyph glyph-name="Uring" unicode="&#x16e;" horiz-adv-x="1589" 
d="M883 1561q-120 0 -183.5 64t-48.5 167q17 102 100.5 165.5t202.5 63.5q121 0 184 -63.5t48 -165.5q-17 -103 -100.5 -167t-202.5 -64zM907 1708q41 0 69 23.5t34 60.5q5 36 -15.5 59t-62.5 23t-70.5 -23t-34.5 -59q-5 -36 16.5 -60t63.5 -24zM588 -39q-189 0 -325.5 82.5
t-196.5 230.5t-31 334l139 887h336l-141 -899q-23 -141 52.5 -231.5t215.5 -90.5q155 0 250.5 84t118.5 238l143 899h336l-142 -887q-47 -312 -243.5 -479.5t-511.5 -167.5z" />
    <glyph glyph-name="uring" unicode="&#x16f;" horiz-adv-x="1320" 
d="M705 1231q-117 0 -179 70.5t-43 179.5q15 109 98.5 179.5t200.5 70.5q116 0 178.5 -70.5t45.5 -179.5q-17 -110 -101 -180t-200 -70zM729 1389q41 0 70 26t37 66q5 41 -15.5 66.5t-62.5 25.5q-41 0 -70.5 -26t-34.5 -66q-8 -40 13 -66t63 -26zM446 -35h-14
q-124 0 -205.5 68t-110 181.5t-5.5 256.5l102 651h330l-107 -667q-14 -86 30 -141.5t128 -55.5q96 0 155 53.5t74 151.5l105 659h329l-178 -1122h-260l41 264q-118 -299 -414 -299z" />
    <glyph glyph-name="Uhungarumlaut" unicode="&#x170;" horiz-adv-x="1589" 
d="M1186 1608h-246l240 366h272zM815 1608h-246l242 366h272zM588 -39q-189 0 -325.5 82.5t-196.5 230.5t-31 334l139 887h336l-141 -899q-23 -141 52.5 -231.5t215.5 -90.5q155 0 250.5 84t118.5 238l143 899h336l-142 -887q-47 -312 -243.5 -479.5t-511.5 -167.5z" />
    <glyph glyph-name="uhungarumlaut" unicode="&#x171;" horiz-adv-x="1320" 
d="M1010 1253h-238l232 428h258zM637 1253h-238l232 428h260zM446 -35h-14q-124 0 -205.5 68t-110 181.5t-5.5 256.5l102 651h330l-107 -667q-14 -86 30 -141.5t128 -55.5q96 0 155 53.5t74 151.5l105 659h329l-178 -1122h-260l41 264q-118 -299 -414 -299z" />
    <glyph glyph-name="Uogonek" unicode="&#x172;" horiz-adv-x="1589" 
d="M588 -39q-189 0 -325.5 82.5t-196.5 230.5t-31 334l139 887h336l-141 -899q-23 -141 52.5 -231.5t215.5 -90.5q155 0 250.5 84t118.5 238l143 899h336l-142 -887q-59 -386 -342 -549l39 -49l-73 -55q-100 -76 -111 -145q-6 -40 16 -65.5t66 -25.5q48 0 96 19l-37 -238
q-62 -16 -137 -16q-131 0 -203.5 78t-52.5 200q17 106 94 205q-52 -6 -110 -6z" />
    <glyph glyph-name="uogonek" unicode="&#x173;" horiz-adv-x="1320" 
d="M446 -35h-14q-124 0 -205.5 68t-110 181.5t-5.5 256.5l102 651h330l-107 -667q-14 -86 30 -141.5t128 -55.5q96 0 155 53.5t74 151.5l105 659h329l-165 -1044l61 -78l-76 -68q-83 -65 -94 -125q-4 -34 16.5 -52.5t61.5 -18.5q52 0 92 16l-37 -231q-53 -17 -133 -17
q-129 0 -195 68t-47 186q19 125 136 242h-58l41 264q-118 -299 -414 -299z" />
    <glyph glyph-name="Wcircumflex" unicode="&#x174;" horiz-adv-x="2193" 
d="M1036 1608h-295l324 366h389l211 -366h-301l-115 211h-37zM803 0h-510l-131 1495h346l84 -1223h53l399 1168h347l63 -1168h51l437 1223h327l-565 -1495h-520l-54 901z" />
    <glyph glyph-name="wcircumflex" unicode="&#x175;" horiz-adv-x="1888" 
d="M872 1253h-270l277 428h399l147 -428h-276l-84 275h-25zM702 0h-456l-121 1122h319l78 -850h43l285 813h358l47 -813h43l326 850h299l-448 -1122h-457l-49 737z" />
    <glyph glyph-name="Ycircumflex" unicode="&#x176;" horiz-adv-x="1345" 
d="M614 1608h-292l323 366h387l213 -366h-301l-117 211h-34zM735 0h-329l90 567h-72l-291 928h344l197 -676h65l383 676h326l-549 -928h-76z" />
    <glyph glyph-name="ycircumflex" unicode="&#x177;" horiz-adv-x="1167" 
d="M514 1253h-270l278 428h400l147 -428h-276l-84 275h-27zM178 -444h-201l46 278h233q148 0 207 141l20 50h-213l-172 1097h330l117 -841h41l336 841h313l-506 -1212q-148 -354 -551 -354z" />
    <glyph glyph-name="Ydieresis" unicode="&#x178;" horiz-adv-x="1345" 
d="M551 1630q-89 0 -127.5 45.5t-26.5 122.5q12 78 66 124t143 46t127 -46t27 -124q-12 -76 -66 -122t-143 -46zM1010 1630q-89 0 -127.5 45.5t-26.5 122.5q12 78 66 124t143 46t127 -46t27 -124q-12 -76 -66 -122t-143 -46zM735 0h-329l90 567h-72l-291 928h344l197 -676
h65l383 676h326l-549 -928h-76z" />
    <glyph glyph-name="Zacute" unicode="&#x179;" horiz-adv-x="1325" 
d="M909 1608h-313l313 366h353zM1135 0h-1176l41 252l915 942l-16 27h-719l43 274h1149l-41 -252l-915 -942l14 -25h748z" />
    <glyph glyph-name="zacute" unicode="&#x17a;" horiz-adv-x="1028" 
d="M702 1253h-284l250 428h338zM889 0h-901l35 229l610 615l-17 26h-489l39 252h883l-37 -229l-609 -614l17 -27h508z" />
    <glyph glyph-name="Zdotaccent" unicode="&#x17b;" horiz-adv-x="1325" 
d="M776 1630q-89 0 -127.5 45.5t-25.5 122.5q11 78 64 124t142 46t127.5 -46t26.5 -124q-13 -77 -65.5 -122.5t-141.5 -45.5zM1135 0h-1176l41 252l915 942l-16 27h-719l43 274h1149l-41 -252l-915 -942l14 -25h748z" />
    <glyph glyph-name="zdotaccent" unicode="&#x17c;" horiz-adv-x="1028" 
d="M588 1292q-87 0 -123 47t-23 123q13 78 63 125t138 47q87 0 122.5 -47t22.5 -125q-13 -77 -62.5 -123.5t-137.5 -46.5zM889 0h-901l35 229l610 615l-17 26h-489l39 252h883l-37 -229l-609 -614l17 -27h508z" />
    <glyph glyph-name="Zcaron" unicode="&#x17d;" horiz-adv-x="1325" 
d="M963 1608h-388l-210 366h299l114 -209h37l172 209h295zM1135 0h-1176l41 252l915 942l-16 27h-719l43 274h1149l-41 -252l-915 -942l14 -25h748z" />
    <glyph glyph-name="zcaron" unicode="&#x17e;" horiz-adv-x="1028" 
d="M770 1253h-403l-146 428h277l86 -274h24l156 274h268zM889 0h-901l35 229l610 615l-17 26h-489l39 252h883l-37 -229l-609 -614l17 -27h508z" />
    <glyph glyph-name="Aringacute" unicode="&#x1fa;" horiz-adv-x="1601" 
d="M1104 2087h-313l313 367h352zM879 1561q-120 0 -183.5 64t-46.5 167q15 101 99 165t204 64t183.5 -64t46.5 -165q-15 -103 -98.5 -167t-204.5 -64zM903 1708q42 0 70 24t33 60q6 36 -14 59t-62 23t-71 -23t-34 -59q-6 -36 15 -60t63 -24zM244 0h-336l731 1495h543
l274 -1495h-348l-64 371h-624zM553 649h446l-96 572h-78z" />
    <glyph glyph-name="Scommaaccent" unicode="&#x218;" horiz-adv-x="1366" 
d="M561 -39q-131 0 -240 34.5t-184 97.5t-109 157.5t-16 208.5h328q-17 -102 59.5 -158.5t206.5 -56.5q286 0 318 194q6 42 -10 73.5t-50.5 50t-76.5 29t-97 15.5l-112 10q-215 18 -331.5 142t-84.5 317q36 231 200.5 348t423.5 117q158 0 276 -59.5t174.5 -171.5t33.5 -256
h-326q15 92 -43.5 148t-161.5 56q-104 0 -169.5 -45t-82.5 -137q-10 -71 37.5 -115.5t130.5 -50.5l113 -10q241 -21 377 -141.5t104 -319.5q-19 -125 -78 -217.5t-150.5 -149t-206 -83.5t-253.5 -27zM401 -627h-51l27 160h55q124 0 141 113q-34 -15 -65 -15q-57 0 -88 35
t-21 96q11 72 65 109t126 37q92 0 134.5 -63t25.5 -175l-2 -12q-23 -138 -115.5 -211.5t-231.5 -73.5z" />
    <glyph glyph-name="scommaaccent" unicode="&#x219;" horiz-adv-x="1138" 
d="M477 -35q-220 0 -349.5 98.5t-107.5 276.5h291q-3 -72 55 -104.5t154 -32.5q47 0 80 4t64.5 15.5t50 35t24.5 59.5q4 26 -4 45.5t-23 31.5t-41 21.5t-50.5 14t-59.5 8.5l-86 8q-177 20 -275.5 110.5t-74.5 238.5q30 184 168 272t354 88q135 0 235.5 -42t154 -127
t40.5 -202h-293q3 65 -47 98t-131 33q-52 0 -88 -8t-63 -32.5t-33 -65.5q-7 -51 33 -74.5t116 -32.5l86 -8q191 -21 297.5 -114t81.5 -248q-16 -99 -64 -171t-123 -114t-167 -62t-205 -20zM528 -90q91 0 132 -63t24 -175l-2 -12q-23 -135 -112.5 -208t-227.5 -73h-45l25 160
h51q62 0 95.5 30t39.5 79q-27 -10 -57 -10q-56 0 -85 34t-20 95q11 72 62 107.5t120 35.5z" />
    <glyph glyph-name="Tcommaaccent" unicode="&#x21a;" horiz-adv-x="1265" 
d="M682 0h-336l191 1202h-420l47 293h1177l-47 -293h-422zM412 -627h-52l25 160h55q129 0 142 113q-34 -15 -64 -15q-57 0 -87.5 35t-20.5 96q10 72 63 109t125 37q93 0 136 -63t24 -175l-2 -12q-21 -138 -113 -211.5t-231 -73.5z" />
    <glyph glyph-name="tcommaaccent" unicode="&#x21b;" horiz-adv-x="888" 
d="M702 -14h-157q-208 0 -322 126.5t-82 325.5l70 445h-172l39 239h172l47 303h305l-47 -303h326l-39 -239h-326l-72 -457q-12 -71 27 -117.5t111 -46.5h163zM586 -90q91 0 131.5 -62.5t23.5 -175.5l-2 -12q-23 -135 -112.5 -208t-227.5 -73h-45l25 160h51q62 0 95.5 30
t39.5 79q-27 -10 -57 -10q-56 0 -85 34t-20 95q11 72 62.5 107.5t120.5 35.5z" />
    <glyph glyph-name="dotlessj" unicode="&#x237;" horiz-adv-x="694" 
d="M-88 -420h-59l45 277h71q74 0 120 40t58 113l138 871h-156l37 241h475l-174 -1102q-39 -240 -168.5 -340t-386.5 -100z" />
    <glyph glyph-name="circumflex" unicode="&#x2c6;" 
d="M336 1253h-270l278 428h399l148 -428h-277l-84 275h-26z" />
    <glyph glyph-name="ring" unicode="&#x2da;" 
d="M319 1231q-116 0 -177 70t-44 180t100 180t199 70t178.5 -70t47.5 -180q-19 -110 -103.5 -180t-200.5 -70zM344 1389q42 0 71.5 26t35.5 66t-14.5 66t-61.5 26q-42 0 -71.5 -26t-35.5 -66t14.5 -66t61.5 -26z" />
    <glyph glyph-name="tilde" unicode="&#x2dc;" 
d="M612 1278q-45 0 -81.5 10.5t-61.5 26t-48 31t-52.5 26t-63.5 10.5q-98 0 -178 -73l-12 223q96 92 231 92q45 0 81.5 -10.5t61 -26t47.5 -31t52.5 -26t64.5 -10.5q97 0 181 73l12 -223q-100 -92 -234 -92z" />
    <glyph glyph-name="gravecomb" unicode="&#x300;" 
d="M592 1253h-295l-164 428h346z" />
    <glyph glyph-name="acutecomb" unicode="&#x301;" 
d="M352 1253h-286l249 428h338z" />
    <glyph glyph-name="circumflexcomb" unicode="&#x302;" 
d="M336 1253h-270l278 428h399l148 -428h-277l-84 275h-26z" />
    <glyph glyph-name="tildecomb" unicode="&#x303;" 
d="M612 1278q-45 0 -81.5 10.5t-61.5 26t-48 31t-52.5 26t-63.5 10.5q-98 0 -178 -73l-12 223q96 92 231 92q45 0 81.5 -10.5t61 -26t47.5 -31t52.5 -26t64.5 -10.5q97 0 181 73l12 -223q-100 -92 -234 -92z" />
    <glyph glyph-name="macroncomb" unicode="&#x304;" 
d="M782 1327h-694l35 229h696z" />
    <glyph glyph-name="brevecomb" unicode="&#x306;" 
d="M440 1241q-360 0 -305 440h240q-13 -113 11.5 -162t90.5 -49q65 0 107 49.5t63 161.5h232q-79 -440 -439 -440z" />
    <glyph glyph-name="dotaccentcomb" unicode="&#x307;" 
d="M248 1292q-87 0 -123 47t-23 123q13 78 63 125t138 47q87 0 123 -47t23 -125q-13 -77 -63 -123.5t-138 -46.5z" />
    <glyph glyph-name="dieresiscomb" unicode="&#x308;" 
d="M248 1292q-87 0 -123 47t-23 123q13 78 63 125t138 47q87 0 123 -47t23 -125q-13 -77 -63 -123.5t-138 -46.5zM688 1292q-87 0 -122.5 47t-22.5 123q13 78 62.5 125t137.5 47q87 0 123 -47t23 -125q-13 -77 -63 -123.5t-138 -46.5z" />
    <glyph glyph-name="ringcomb" unicode="&#x30a;" 
d="M319 1231q-116 0 -177 70t-44 180t100 180t199 70t178.5 -70t47.5 -180q-19 -110 -103.5 -180t-200.5 -70zM344 1389q42 0 71.5 26t35.5 66t-14.5 66t-61.5 26q-42 0 -71.5 -26t-35.5 -66t14.5 -66t61.5 -26z" />
    <glyph glyph-name="hungarumlautcomb" unicode="&#x30b;" 
d="M676 1253h-238l232 428h258zM303 1253h-237l233 428h258z" />
    <glyph glyph-name="caroncomb" unicode="&#x30c;" 
d="M682 1253h-403l-146 428h277l86 -274h24l156 274h268z" />
    <glyph glyph-name="commaturnedabovecomb" unicode="&#x312;" 
d="M248 1221q-91 0 -132 62.5t-24 174.5l2 12q23 135 112.5 208t227.5 73h45l-24 -158h-52q-62 0 -95 -30t-40 -78v-2q24 12 58 12q55 0 84 -34.5t20 -96.5q-11 -71 -62.5 -107t-119.5 -36z" />
    <glyph glyph-name="commaaccentcomb" unicode="&#x326;" 
d="M299 -90q91 0 133 -63t23 -175l-2 -12q-21 -135 -111 -208t-227 -73h-47l24 160h51q122 0 136 109q-27 -10 -56 -10q-56 0 -85.5 34t-20.5 95q11 72 62 107.5t120 35.5z" />
    <glyph glyph-name="cedillacomb" unicode="&#x327;" 
d="M156 -553q-93 0 -162 25l31 200q74 -24 147 -24q115 0 125 57q3 23 -15.5 35t-64.5 12h-106l43 275h198l-18 -121q98 -15 144.5 -67.5t33.5 -139.5q-18 -110 -112.5 -181t-243.5 -71z" />
    <glyph glyph-name="ogonekcomb" unicode="&#x328;" 
d="M303 -496q-129 0 -195 68t-47 186q14 89 66.5 161t157.5 161l75 63l113 -143l-76 -68q-83 -65 -94 -125q-4 -34 16.5 -52.5t61.5 -18.5q52 0 92 16l-37 -231q-53 -17 -133 -17z" />
    <glyph glyph-name="strokeshortcomb" unicode="&#x335;" 
d="M705 459h-750l29 176h749z" />
    <glyph glyph-name="strokelongcomb" unicode="&#x336;" 
d="M729 600h-792l45 274h792z" />
    <glyph glyph-name="riel-khmer" unicode="&#x17db;" horiz-adv-x="1103" 
d="M678 -14h-266q-184 0 -291.5 83t-83.5 230q49 315 485 315l13 80h-285l33 197h284l2 8q6 37 -26 59q-29 19 -81.5 50t-82.5 51q-54 36 -74.5 87t-10.5 108t46 120q51 89 131 122.5t201 33.5q146 0 327 -27l-34 -227q-205 29 -342 29q-49 0 -64 -27q-17 -31 6 -49
q26 -16 80.5 -48t87.5 -55q112 -72 90 -227l-2 -8h223l-30 -197h-223zM438 186h13l38 230q-79 -2 -127.5 -27t-58.5 -86q-7 -54 31 -85.5t104 -31.5z" />
    <glyph glyph-name="Wgrave" unicode="&#x1e80;" horiz-adv-x="2193" 
d="M1358 1608h-316l-204 366h356zM803 0h-510l-131 1495h346l84 -1223h53l399 1168h347l63 -1168h51l437 1223h327l-565 -1495h-520l-54 901z" />
    <glyph glyph-name="wgrave" unicode="&#x1e81;" horiz-adv-x="1888" 
d="M1163 1253h-293l-165 428h346zM702 0h-456l-121 1122h319l78 -850h43l285 813h358l47 -813h43l326 850h299l-448 -1122h-457l-49 737z" />
    <glyph glyph-name="Wacute" unicode="&#x1e82;" horiz-adv-x="2193" 
d="M1335 1608h-313l313 366h353zM803 0h-510l-131 1495h346l84 -1223h53l399 1168h347l63 -1168h51l437 1223h327l-565 -1495h-520l-54 901z" />
    <glyph glyph-name="wacute" unicode="&#x1e83;" horiz-adv-x="1888" 
d="M1135 1253h-285l250 428h336zM702 0h-456l-121 1122h319l78 -850h43l285 813h358l47 -813h43l326 850h299l-448 -1122h-457l-49 737z" />
    <glyph glyph-name="Wdieresis" unicode="&#x1e84;" horiz-adv-x="2193" 
d="M971 1630q-89 0 -127 45.5t-25 122.5q11 78 64 124t143 46q89 0 127.5 -46t26.5 -124q-12 -76 -66 -122t-143 -46zM1430 1630q-89 0 -127 45.5t-25 122.5q11 78 64 124t143 46q89 0 127 -46t26 -124q-13 -77 -66 -122.5t-142 -45.5zM803 0h-510l-131 1495h346l84 -1223
h53l399 1168h347l63 -1168h51l437 1223h327l-565 -1495h-520l-54 901z" />
    <glyph glyph-name="wdieresis" unicode="&#x1e85;" horiz-adv-x="1888" 
d="M801 1292q-88 0 -123.5 46.5t-22.5 123.5q11 78 61.5 125t137.5 47t122.5 -47t24.5 -125q-13 -77 -63 -123.5t-137 -46.5zM1241 1292q-88 0 -123 46.5t-22 123.5q11 78 61 125t137 47t123 -47t25 -125q-13 -76 -63.5 -123t-137.5 -47zM702 0h-456l-121 1122h319l78 -850
h43l285 813h358l47 -813h43l326 850h299l-448 -1122h-457l-49 737z" />
    <glyph glyph-name="Germandbls" unicode="&#x1e9e;" horiz-adv-x="2666" 
d="M549 -41q-173 0 -303 59.5t-194 174.5t-40 266h326q-17 -101 56.5 -159t199.5 -58q276 0 309 196q23 146 -227 168l-107 10q-211 18 -325 140.5t-84 314.5q36 230 197.5 347.5t414.5 117.5q157 0 274 -59t172.5 -170t32.5 -254h-325q13 90 -43 145t-156 55t-163.5 -45.5
t-76.5 -136.5q-12 -69 33.5 -112.5t126.5 -49.5l109 -10q115 -10 208.5 -45t158.5 -92.5t93.5 -140.5t12.5 -183q-19 -124 -77.5 -217t-148.5 -149.5t-203.5 -84.5t-250.5 -28zM1872 -41q-173 0 -302 59.5t-193 174.5t-40 266h326q-17 -101 56 -159t198 -58q274 0 305 196
q9 55 -21 92t-80.5 53t-123.5 23l-111 10q-211 18 -325 140.5t-82 314.5q36 230 197.5 347.5t414.5 117.5q241 0 377.5 -133t103.5 -350h-327q15 89 -41.5 144.5t-155.5 55.5q-101 0 -165 -45.5t-79 -136.5q-10 -69 35 -112.5t125 -49.5l111 -10q239 -21 372.5 -142
t102.5 -319q-19 -124 -77 -217t-148 -149.5t-203 -84.5t-250 -28z" />
    <glyph glyph-name="Etilde" unicode="&#x1ebc;" horiz-adv-x="1216" 
d="M1071 1610q-58 0 -106.5 17t-76.5 37t-69 37t-86 17q-121 0 -203 -82l-14 222q98 102 256 102q58 0 107 -17t77 -37.5t69.5 -37.5t86.5 -17q125 0 205 84l14 -223q-102 -102 -260 -102zM1108 0h-940l238 1495h925l-43 -278h-600l-49 -318h563l-43 -278h-565l-53 -342h612
z" />
    <glyph glyph-name="etilde" unicode="&#x1ebd;" horiz-adv-x="1277" 
d="M885 1278q-55 0 -99.5 16t-69.5 36t-62 36t-79 16q-96 0 -176 -73l-12 223q96 92 229 92q45 0 82 -10.5t62 -26t48 -31t52.5 -26t63.5 -10.5q98 0 182 73l10 -223q-100 -92 -231 -92zM580 -39q-256 0 -394.5 163t-97.5 417l6 41q43 277 215 428t449 151q162 0 278.5 -74
t166 -205t24.5 -296l-21 -111h-817q5 -112 66 -180t168 -68q90 0 150 26.5t93 94.5h301q-144 -387 -587 -387zM715 895q-221 0 -295 -233h504q-3 106 -57 169.5t-152 63.5z" />
    <glyph glyph-name="Ygrave" unicode="&#x1ef2;" horiz-adv-x="1345" 
d="M938 1608h-317l-203 366h356zM735 0h-329l90 567h-72l-291 928h344l197 -676h65l383 676h326l-549 -928h-76z" />
    <glyph glyph-name="ygrave" unicode="&#x1ef3;" horiz-adv-x="1167" 
d="M807 1253h-293l-166 428h346zM178 -444h-201l46 278h233q148 0 207 141l20 50h-213l-172 1097h330l117 -841h41l336 841h313l-506 -1212q-148 -354 -551 -354z" />
    <glyph glyph-name="endash" unicode="&#x2013;" horiz-adv-x="1077" 
d="M1055 453h-1002l39 252h1004z" />
    <glyph glyph-name="emdash" unicode="&#x2014;" horiz-adv-x="1871" 
d="M1849 453h-1796l39 252h1798z" />
    <glyph glyph-name="quoteleft" unicode="&#x2018;" horiz-adv-x="552" 
d="M547 1518h45l-29 -187h-61q-87 0 -128.5 -40t-58.5 -150q24 4 39 4q74 0 114.5 -45t27.5 -123q-11 -78 -67 -129t-142 -51q-96 0 -144 67.5t-24 220.5l6 31q34 211 139 306.5t283 95.5z" />
    <glyph glyph-name="quoteright" unicode="&#x2019;" horiz-adv-x="552" 
d="M131 797h-45l29 186h63q85 0 126 40t58 148q-6 0 -18 -1t-18 -1q-75 0 -115.5 45t-28.5 123q13 78 69 129.5t142 51.5q44 0 78.5 -14.5t60 -48.5t32 -89.5t-4.5 -136.5l-6 -31q-33 -211 -138 -306t-284 -95z" />
    <glyph glyph-name="quotesinglbase" unicode="&#x201a;" horiz-adv-x="552" 
d="M-59 -406h-45l28 187h64q85 0 126 40t58 148q-6 0 -18.5 -1t-18.5 -1q-75 0 -115 45t-28 123q13 78 69 129t142 51q45 0 78.5 -14t60 -47.5t32.5 -89t-5 -137.5l-7 -31q-33 -211 -138 -306.5t-283 -95.5z" />
    <glyph glyph-name="quotedblleft" unicode="&#x201c;" horiz-adv-x="1032" 
d="M1028 1518h45l-29 -187h-63q-85 0 -126 -40t-58 -148q6 0 18.5 1t18.5 1q75 0 115 -45t28 -123q-13 -78 -69 -129t-142 -51q-45 0 -78.5 14t-60 47.5t-32.5 89t5 137.5l6 31q33 211 138 306.5t284 95.5zM547 1518h45l-29 -187h-61q-87 0 -128.5 -40t-58.5 -150q24 4 39 4
q74 0 114.5 -45t27.5 -123q-11 -78 -67 -129t-142 -51q-96 0 -144 67.5t-24 220.5l6 31q34 211 139 306.5t283 95.5z" />
    <glyph glyph-name="quotedblright" unicode="&#x201d;" horiz-adv-x="1032" 
d="M131 797h-45l29 186h63q85 0 126 40t58 148q-6 0 -18 -1t-18 -1q-75 0 -115.5 45t-28.5 123q13 78 69 129.5t142 51.5q44 0 78.5 -14.5t60 -48.5t32 -89.5t-4.5 -136.5l-6 -31q-33 -211 -138 -306t-284 -95zM612 797h-45l29 186h61q87 0 128.5 40.5t58.5 150.5
q-30 -5 -39 -5q-74 0 -114 45t-27 123q11 78 66.5 129.5t141.5 51.5q95 0 144 -68.5t24 -220.5l-6 -31q-34 -211 -139 -306t-283 -95z" />
    <glyph glyph-name="quotedblbase" unicode="&#x201e;" horiz-adv-x="1032" 
d="M-59 -406h-45l28 187h64q85 0 126 40t58 148q-6 0 -18.5 -1t-18.5 -1q-75 0 -115 45t-28 123q13 78 69 129t142 51q45 0 78.5 -14t60 -47.5t32.5 -89t-5 -137.5l-7 -31q-33 -211 -138 -306.5t-283 -95.5zM422 -406h-45l29 187h61q87 0 128 40t58 150q-24 -4 -39 -4
q-74 0 -114 45t-27 123q11 78 67 129t142 51q96 0 144 -67.5t24 -220.5l-6 -31q-34 -211 -139 -306.5t-283 -95.5z" />
    <glyph glyph-name="dagger" unicode="&#x2020;" horiz-adv-x="1204" 
d="M1143 862h-1045l39 250h369l61 383h305l-61 -383h371zM571 -410h-305l180 1137h306z" />
    <glyph glyph-name="daggerdbl" unicode="&#x2021;" horiz-adv-x="1204" 
d="M1143 862h-1045l39 250h369l61 383h305l-61 -383h371zM692 356h-305l59 373h306zM571 -410h-305l62 383h-371l41 252h1044l-41 -252h-368z" />
    <glyph glyph-name="bullet" unicode="&#x2022;" horiz-adv-x="890" 
d="M700 305h-553l91 574h553z" />
    <glyph glyph-name="ellipsis" unicode="&#x2026;" horiz-adv-x="1753" 
d="M449 0h-361l59 367h361zM1026 0h-360l59 367h360zM1606 0h-361l60 367h360z" />
    <glyph glyph-name="perthousand" unicode="&#x2030;" horiz-adv-x="2625" 
d="M389 674q-161 0 -243.5 113.5t-55.5 287.5l8 53q30 189 138.5 294.5t287.5 105.5q162 0 244.5 -113.5t54.5 -286.5l-8 -53q-30 -190 -138.5 -295.5t-287.5 -105.5zM662 0h-277l780 1495h277zM424 893q38 0 65.5 15.5t45 45.5t28 64.5t17.5 81.5q8 58 5.5 105t-27 76.5
t-69.5 29.5q-38 0 -66 -16t-45 -47t-26.5 -64.5t-17.5 -81.5q-33 -209 90 -209zM1294 -35q-162 0 -244.5 113.5t-54.5 286.5l9 53q30 189 138.5 295t287.5 106q161 0 242.5 -114t53.5 -287l-8 -53q-30 -189 -138 -294.5t-286 -105.5zM2095 -35q-161 0 -243 113.5t-54 286.5
l8 53q30 189 138 295t286 106q162 0 244.5 -114t54.5 -287l-8 -53q-30 -189 -138.5 -294.5t-287.5 -105.5zM1329 182q72 0 106 54.5t50 152.5q33 211 -90 211q-73 0 -107.5 -54.5t-50.5 -154.5q-30 -209 92 -209zM2130 182q73 0 107.5 54.5t50.5 152.5q29 211 -90 211
q-73 0 -107.5 -54.5t-50.5 -154.5q-8 -58 -5 -104.5t27 -75.5t68 -29z" />
    <glyph glyph-name="minute" unicode="&#x2032;" horiz-adv-x="548" 
d="M383 862h-297l217 633h297z" />
    <glyph glyph-name="second" unicode="&#x2033;" horiz-adv-x="1013" 
d="M383 862h-297l217 633h297zM848 862h-297l217 633h297z" />
    <glyph glyph-name="guilsinglleft" unicode="&#x2039;" horiz-adv-x="743" 
d="M621 80h-377l-207 401l16 99l346 409h365l-356 -420l-11 -67z" />
    <glyph glyph-name="guilsinglright" unicode="&#x203a;" horiz-adv-x="743" 
d="M135 989h377l207 -401l-17 -99l-346 -409h-364l356 422l10 67z" />
    <glyph glyph-name="fraction" unicode="&#x2044;" horiz-adv-x="446" 
d="M-186 -45h-226l1057 1438h227z" />
    <glyph glyph-name="four.superior" unicode="&#x2074;" horiz-adv-x="831" 
d="M672 860h-209l22 139h-442l35 232l401 506l154 -105l-334 -428l14 -26h199l45 280h209l-45 -280h92l-29 -179h-90z" />
    <glyph glyph-name="Euro" unicode="&#x20ac;" horiz-adv-x="1458" 
d="M692 -35q-234 0 -372.5 144.5t-157.5 384.5h-180l26 165h156q2 13 5 37.5t5 36.5l4 29q4 30 8 43h-118l26 166h131q83 265 258.5 412t444.5 147q246 0 386 -138t113 -366h-288q9 111 -61 174.5t-191 63.5q-262 0 -365 -293h461l-27 -166h-477q-7 -33 -10 -57
q-8 -64 -10 -89h438l-27 -165h-407q20 -123 86.5 -193t183.5 -70q273 0 330 238h289q-50 -249 -221.5 -376.5t-438.5 -127.5z" />
    <glyph glyph-name="trademark" unicode="&#x2122;" horiz-adv-x="1855" 
d="M991 674h-196l131 821h280l113 -506h10l273 506h280l-131 -821h-207l90 569l-235 -434h-217l-101 446zM465 674h-217l98 637h-229l28 184h680l-28 -184h-234z" />
    <glyph glyph-name="minus" unicode="&#x2212;" horiz-adv-x="1220" 
d="M1143 571h-1018l43 267h1018z" />
    <glyph glyph-name="divisionslash" unicode="&#x2215;" horiz-adv-x="950" 
d="M113 -135h-293l1001 1818h293z" />
    <glyph glyph-name="lessequal" unicode="&#x2264;" horiz-adv-x="1208" 
d="M1083 686l-43 -268l-893 252l23 139h-2l39 233l973 254l-41 -264l-703 -162l-4 -24zM983 51h-934l41 256h934z" />
    <glyph glyph-name="greaterequal" unicode="&#x2265;" horiz-adv-x="1220" 
d="M1081 672l-975 -254l44 264l700 162l4 24l-651 160l43 268l895 -252l-23 -139zM983 51h-934l41 256h934z" />
    <glyph glyph-name="sora" unicode="&#xe000;" horiz-adv-x="1716" 
d="M829 563l-444 -563h-365l717 909h-571l33 199h569l31 188h-572l33 199h1436l-31 -199h-571l-31 -188h571l-30 -199h-572l426 -909h-364z" />
    <glyph glyph-name="I.salt" horiz-adv-x="935" 
d="M684 0h-668l39 256h166l158 985h-166l41 254h668l-41 -254h-166l-158 -985h166z" />
    <glyph glyph-name="Iacute.salt" horiz-adv-x="935" 
d="M705 1608h-312l314 366h352zM684 0h-668l39 256h166l158 985h-166l41 254h668l-41 -254h-166l-158 -985h166z" />
    <glyph glyph-name="Ibreve.salt" horiz-adv-x="935" 
d="M565 1587q-188 0 -272 103.5t-60 283.5h234q-20 -168 133 -168q155 0 193 168h225q-36 -180 -152 -283.5t-301 -103.5zM684 0h-668l39 256h166l158 985h-166l41 254h668l-41 -254h-166l-158 -985h166z" />
    <glyph glyph-name="Icircumflex.salt" horiz-adv-x="935" 
d="M406 1608h-293l323 366h387l213 -366h-301l-117 211h-34zM684 0h-668l39 256h166l158 985h-166l41 254h668l-41 -254h-166l-158 -985h166z" />
    <glyph glyph-name="Idieresis.salt" horiz-adv-x="935" 
d="M342 1630q-89 0 -127.5 45.5t-26.5 122.5q12 78 66 124t143 46t127 -46t27 -124q-12 -76 -66 -122t-143 -46zM801 1630q-89 0 -127.5 45.5t-26.5 122.5q12 78 66 124t143 46t127 -46t27 -124q-12 -76 -66 -122t-143 -46zM684 0h-668l39 256h166l158 985h-166l41 254h668
l-41 -254h-166l-158 -985h166z" />
    <glyph glyph-name="Idotaccent.salt" horiz-adv-x="935" 
d="M571 1630q-89 0 -127.5 45.5t-25.5 122.5q12 78 66 124t143 46t126.5 -45.5t26.5 -124.5q-12 -76 -66 -122t-143 -46zM684 0h-668l39 256h166l158 985h-166l41 254h668l-41 -254h-166l-158 -985h166z" />
    <glyph glyph-name="Igrave.salt" horiz-adv-x="935" 
d="M729 1608h-317l-203 366h356zM684 0h-668l39 256h166l158 985h-166l41 254h668l-41 -254h-166l-158 -985h166z" />
    <glyph glyph-name="Imacron.salt" horiz-adv-x="935" 
d="M983 1659h-799l35 229h799zM684 0h-668l39 256h166l158 985h-166l41 254h668l-41 -254h-166l-158 -985h166z" />
    <glyph glyph-name="Iogonek.salt" horiz-adv-x="935" 
d="M428 -526q-131 0 -204 78t-54 200q23 133 135 248h-289l39 256h166l158 985h-166l41 254h668l-41 -254h-166l-158 -985h166l-39 -256h-78l-71 -55q-99 -75 -113 -148q-6 -39 16.5 -63.5t67.5 -24.5q48 0 96 19l-39 -238q-50 -16 -135 -16z" />
    <glyph glyph-name="Itilde.salt" horiz-adv-x="935" 
d="M750 1610q-58 0 -106.5 17t-76.5 37t-69 37t-86 17q-121 0 -203 -82l-14 222q98 102 256 102q58 0 107 -17t77 -37.5t69.5 -37.5t86.5 -17q124 0 204 84l15 -223q-102 -102 -260 -102zM684 0h-668l39 256h166l158 985h-166l41 254h668l-41 -254h-166l-158 -985h166z" />
    <glyph glyph-name="J.salt" horiz-adv-x="1241" 
d="M453 -43q-225 0 -344 148.5t-84 379.5l30 195h336l-37 -234q-12 -78 29.5 -127t118.5 -49q85 0 138 45.5t65 130.5l167 1049h336l-161 -1010q-39 -251 -192.5 -389.5t-401.5 -138.5z" />
    <glyph glyph-name="Jcircumflex.salt" horiz-adv-x="1241" 
d="M858 1608h-295l324 366h389l211 -366h-301l-115 211h-37zM453 -43q-225 0 -344 148.5t-84 379.5l30 195h336l-37 -234q-12 -78 29.5 -127t118.5 -49q85 0 138 45.5t65 130.5l167 1049h336l-161 -1010q-39 -251 -192.5 -389.5t-401.5 -138.5z" />
    <glyph glyph-name="P.salt" horiz-adv-x="1427" 
d="M387 0h-336l238 1507h657q158 0 275.5 -57t175 -166t35.5 -250l-7 -33q-37 -236 -203.5 -353.5t-430.5 -117.5h-320zM920 1217h-340l-64 -396h340q97 0 156.5 51t74.5 146q14 88 -32.5 143.5t-134.5 55.5z" />
    <glyph glyph-name="Q.salt" horiz-adv-x="1769" 
d="M758 -39q-171 0 -310.5 57t-228.5 157.5t-126.5 243.5t-10.5 310l6 45q58 370 298 568t622 198q171 0 310 -57t228 -157t126.5 -243t10.5 -309l-6 -45q-68 -428 -372 -625l151 -266h-319l-88 158q-137 -35 -291 -35zM807 274q12 0 80 5l-191 335h320l131 -231
q154 124 192 367q34 207 -73 342t-308 135q-223 0 -360.5 -125t-173.5 -352q-32 -207 74 -341.5t309 -134.5z" />
    <glyph glyph-name="R.salt" horiz-adv-x="1515" 
d="M387 0h-336l238 1507h665q158 0 275.5 -55.5t175 -162t35.5 -245.5l-4 -32q-48 -295 -308 -406l189 -606h-375l-164 549h-305zM928 1217h-348l-64 -404h346q98 0 159 53t75 150q14 88 -33 144.5t-135 56.5z" />
    <glyph glyph-name="Racute.salt" horiz-adv-x="1515" 
d="M965 1608h-312l314 366h352zM387 0h-336l238 1507h665q158 0 275.5 -55.5t175 -162t35.5 -245.5l-4 -32q-48 -295 -308 -406l189 -606h-375l-164 549h-305zM928 1217h-348l-64 -404h346q98 0 159 53t75 150q14 88 -33 144.5t-135 56.5z" />
    <glyph glyph-name="Rcaron.salt" horiz-adv-x="1513" 
d="M1022 1608h-387l-211 366h299l115 -209h36l173 209h294zM387 0h-336l238 1507h665q158 0 275.5 -55.5t175 -162t35.5 -245.5l-4 -32q-48 -295 -308 -406l189 -606h-375l-164 549h-305zM928 1217h-348l-64 -404h346q98 0 159 53t75 150q14 88 -33 144.5t-135 56.5z" />
    <glyph glyph-name="Rcommaaccent.salt" horiz-adv-x="1513" 
d="M387 0h-336l238 1507h665q158 0 275.5 -55.5t175 -162t35.5 -245.5l-4 -32q-48 -295 -308 -406l189 -606h-375l-164 549h-305zM928 1217h-348l-64 -404h346q98 0 159 53t75 150q14 88 -33 144.5t-135 56.5zM586 -627h-51l26 160h55q125 0 142 113q-34 -15 -66 -15
q-57 0 -87 34.5t-21 96.5q11 72 64.5 109t125.5 37q93 0 136 -63t24 -175l-2 -12q-23 -138 -115 -211.5t-231 -73.5z" />
    <glyph glyph-name="idotaccent" horiz-adv-x="684" 
d="M389 1292q-88 0 -123 46.5t-22 123.5q11 78 61 125t137 47t123 -47t25 -125q-13 -76 -63.5 -123t-137.5 -47zM442 0h-329l139 881h-150l39 241h480z" />
    <glyph glyph-name="f.salt" horiz-adv-x="808" 
d="M354 0h-305l135 858h-129l37 240h131l19 119q26 156 131 238.5t270 82.5q151 0 235.5 -85.5t61.5 -221.5h-260q6 31 -9 52.5t-44 21.5q-65 0 -78 -74l-21 -133h297l-39 -240h-297z" />
    <glyph glyph-name="l.salt" horiz-adv-x="673" 
d="M500 -12h-127q-164 0 -254 99t-64 255l183 1153h329l-184 -1155q-5 -31 11.5 -50.5t47.5 -19.5h103z" />
    <glyph glyph-name="lacute.salt" horiz-adv-x="673" 
d="M518 1608h-311l313 366h352zM500 -12h-127q-164 0 -254 99t-64 255l183 1153h329l-184 -1155q-5 -31 11.5 -50.5t47.5 -19.5h103z" />
    <glyph glyph-name="lcaron.salt" horiz-adv-x="673" 
d="M838 1151h-246l84 528h278zM500 -12h-127q-164 0 -254 99t-64 255l183 1153h329l-184 -1155q-5 -31 11.5 -50.5t47.5 -19.5h103z" />
    <glyph glyph-name="lcommaaccent.salt" horiz-adv-x="673" 
d="M500 -12h-127q-164 0 -254 99t-64 255l183 1153h329l-184 -1155q-5 -31 11.5 -50.5t47.5 -19.5h103zM434 -90q91 0 133 -63t23 -175l-2 -12q-21 -135 -111 -208t-227 -73h-47l24 160h52q121 0 135 109q-27 -10 -56 -10q-56 0 -85.5 34t-20.5 95q11 72 62 107.5t120 35.5z
" />
    <glyph glyph-name="lslash.salt" horiz-adv-x="673" 
d="M500 -12h-127q-164 0 -254 99t-64 255l19 111l-113 -58l39 240l111 57l127 803h329l-100 -625l172 86l-37 -239l-172 -86l-47 -291q-5 -31 11.5 -50.5t47.5 -19.5h103z" />
    <glyph glyph-name="r.salt" horiz-adv-x="899" 
d="M385 0h-328l176 1122h250l-57 -358q91 373 383 373h166l-45 -283h-228q-89 0 -142.5 -47t-67.5 -135z" />
    <glyph glyph-name="racute.salt" horiz-adv-x="901" 
d="M721 1253h-285l250 428h336zM385 0h-328l176 1122h250l-57 -358q91 373 383 373h166l-45 -283h-228q-89 0 -142.5 -47t-67.5 -135z" />
    <glyph glyph-name="rcaron.salt" horiz-adv-x="901" 
d="M788 1253h-403l-145 428h276l86 -274h25l155 274h269zM385 0h-328l176 1122h250l-57 -358q91 373 383 373h166l-45 -283h-228q-89 0 -142.5 -47t-67.5 -135z" />
    <glyph glyph-name="rcommaaccent.salt" horiz-adv-x="901" 
d="M385 0h-328l176 1122h250l-57 -358q91 373 383 373h166l-45 -283h-228q-89 0 -142.5 -47t-67.5 -135zM426 -90q90 0 131.5 -63t22.5 -175l-2 -12q-21 -135 -111 -208t-227 -73h-47l26 160h51q63 0 96.5 30t39.5 79v2q-24 -12 -58 -12q-56 0 -85.5 34t-20.5 95
q13 72 64 107.5t120 35.5z" />
    <glyph glyph-name="t.salt" horiz-adv-x="950" 
d="M444 -29q-169 0 -259 108t-64 277l82 527h-166l39 239h166l51 316h305l-51 -316h401l-39 -239h-401l-84 -535q-8 -50 15 -82.5t69 -32.5q50 0 78.5 30.5t36.5 84.5h237q-28 -179 -135.5 -278t-280.5 -99z" />
    <glyph glyph-name="tbar.salt" horiz-adv-x="950" 
d="M444 -29q-169 0 -259 108t-64 277l24 152h-61l29 178h59l31 197h-166l39 239h166l51 316h305l-51 -316h401l-39 -239h-401l-31 -197h385l-28 -178h-385l-25 -160q-8 -50 15 -82.5t69 -32.5q50 0 78.5 30.5t36.5 84.5h237q-28 -179 -135.5 -278t-280.5 -99z" />
    <glyph glyph-name="tcaron.salt" horiz-adv-x="950" 
d="M915 1237h-245l84 528h278zM444 -29q-169 0 -259 108t-64 277l82 527h-166l39 239h166l51 316h305l-51 -316h401l-39 -239h-401l-84 -535q-8 -50 15 -82.5t69 -32.5q50 0 78.5 30.5t36.5 84.5h237q-28 -179 -135.5 -278t-280.5 -99z" />
    <glyph glyph-name="tcedilla.salt" horiz-adv-x="950" 
d="M381 -553q-89 0 -162 25l31 200q78 -24 149 -24q113 0 123 57q3 23 -15.5 35t-62.5 12h-108l37 225q-136 23 -205.5 126t-46.5 253l82 527h-166l39 239h166l51 316h305l-51 -316h401l-39 -239h-401l-84 -535q-8 -50 15 -82.5t69 -32.5q50 0 78.5 30.5t36.5 84.5h237
q-22 -142 -95.5 -235t-191.5 -125l-14 -82q99 -15 145 -67.5t33 -139.5q-18 -110 -112 -181t-244 -71z" />
    <glyph glyph-name="tcommaaccent.salt" horiz-adv-x="950" 
d="M444 -29q-169 0 -259 108t-64 277l82 527h-166l39 239h166l51 316h305l-51 -316h401l-39 -239h-401l-84 -535q-8 -50 15 -82.5t69 -32.5q50 0 78.5 30.5t36.5 84.5h237q-28 -179 -135.5 -278t-280.5 -99zM457 -90q90 0 131 -63t22 -175l-2 -12q-21 -135 -111 -208
t-227 -73h-47l27 160h49q119 0 137 109v2q-24 -12 -57 -12q-56 0 -86 34t-21 95q11 72 63 107.5t122 35.5z" />
    <glyph glyph-name="u.salt" horiz-adv-x="1280" 
d="M545 -39q-229 0 -354.5 142t-90.5 366l105 653h327l-106 -671q-14 -85 32.5 -141t133.5 -56q94 0 153 51.5t74 145.5l107 671h327l-102 -653q-40 -245 -197.5 -376.5t-408.5 -131.5z" />
    <glyph glyph-name="uacute.salt" horiz-adv-x="1280" 
d="M825 1227h-286l249 426h338zM545 -39q-229 0 -354.5 142t-90.5 366l105 653h327l-106 -671q-14 -85 32.5 -141t133.5 -56q94 0 153 51.5t74 145.5l107 671h327l-102 -653q-40 -245 -197.5 -376.5t-408.5 -131.5z" />
    <glyph glyph-name="ubreve.salt" horiz-adv-x="1280" 
d="M700 1214q-360 0 -305 439h240q-13 -112 11.5 -160.5t90.5 -48.5q65 0 107 49t63 160h232q-79 -439 -439 -439zM545 -39q-229 0 -354.5 142t-90.5 366l105 653h327l-106 -671q-14 -85 32.5 -141t133.5 -56q94 0 153 51.5t74 145.5l107 671h327l-102 -653
q-40 -245 -197.5 -376.5t-408.5 -131.5z" />
    <glyph glyph-name="ucircumflex.salt" horiz-adv-x="1280" 
d="M561 1227h-270l278 426h400l147 -426h-276l-84 272h-27zM545 -39q-229 0 -354.5 142t-90.5 366l105 653h327l-106 -671q-14 -85 32.5 -141t133.5 -56q94 0 153 51.5t74 145.5l107 671h327l-102 -653q-40 -245 -197.5 -376.5t-408.5 -131.5z" />
    <glyph glyph-name="udieresis.salt" horiz-adv-x="1280" 
d="M489 1264q-87 0 -122.5 47t-22.5 125q13 77 63 124.5t138 47.5q87 0 122.5 -47.5t22.5 -124.5q-13 -78 -63 -125t-138 -47zM930 1264q-87 0 -123 47t-23 125q13 77 63 124.5t138 47.5q87 0 122.5 -47.5t22.5 -124.5q-13 -78 -62.5 -125t-137.5 -47zM545 -39
q-229 0 -354.5 142t-90.5 366l105 653h327l-106 -671q-14 -85 32.5 -141t133.5 -56q94 0 153 51.5t74 145.5l107 671h327l-102 -653q-40 -245 -197.5 -376.5t-408.5 -131.5z" />
    <glyph glyph-name="ugrave.salt" horiz-adv-x="1280" 
d="M854 1227h-293l-166 426h346zM545 -39q-229 0 -354.5 142t-90.5 366l105 653h327l-106 -671q-14 -85 32.5 -141t133.5 -56q94 0 153 51.5t74 145.5l107 671h327l-102 -653q-40 -245 -197.5 -376.5t-408.5 -131.5z" />
    <glyph glyph-name="uhungarumlaut.salt" horiz-adv-x="1280" 
d="M997 1227h-237l233 426h258zM627 1227h-238l232 426h258zM545 -39q-229 0 -354.5 142t-90.5 366l105 653h327l-106 -671q-14 -85 32.5 -141t133.5 -56q94 0 153 51.5t74 145.5l107 671h327l-102 -653q-40 -245 -197.5 -376.5t-408.5 -131.5z" />
    <glyph glyph-name="umacron.salt" horiz-adv-x="1280" 
d="M1069 1300h-694l37 228h694zM545 -39q-229 0 -354.5 142t-90.5 366l105 653h327l-106 -671q-14 -85 32.5 -141t133.5 -56q94 0 153 51.5t74 145.5l107 671h327l-102 -653q-40 -245 -197.5 -376.5t-408.5 -131.5z" />
    <glyph glyph-name="uogonek.salt" horiz-adv-x="1280" 
d="M686 -496q-129 0 -195 68t-47 186q16 104 99 203q-228 0 -353 142.5t-90 365.5l105 653h327l-106 -671q-14 -85 32.5 -141t133.5 -56q94 0 153 51.5t74 145.5l107 671h327l-102 -653q-53 -329 -311 -449l16 -20l-76 -68q-83 -65 -94 -125q-4 -34 16.5 -52.5t61.5 -18.5
q52 0 92 16l-37 -231q-53 -17 -133 -17z" />
    <glyph glyph-name="uring.salt" horiz-adv-x="1280" 
d="M694 1204q-116 0 -178 70.5t-45 179.5q17 108 101 178t200 70t178 -70t45 -178q-19 -110 -102 -180t-199 -70zM717 1362q42 0 71 25.5t37 66.5q5 41 -16 66.5t-61 25.5q-42 0 -71 -26t-34 -66q-8 -40 12.5 -66t61.5 -26zM545 -39q-229 0 -354.5 142t-90.5 366l105 653
h327l-106 -671q-14 -85 32.5 -141t133.5 -56q94 0 153 51.5t74 145.5l107 671h327l-102 -653q-40 -245 -197.5 -376.5t-408.5 -131.5z" />
    <glyph glyph-name="utilde.salt" horiz-adv-x="1280" 
d="M868 1249q-45 0 -81.5 11t-61.5 26.5t-48 31.5t-52.5 27t-63.5 11q-93 0 -178 -74l-12 223q100 92 231 92q54 0 98 -16.5t68.5 -36.5t61.5 -36.5t79 -16.5q96 0 181 74l12 -224q-100 -92 -234 -92zM545 -39q-229 0 -354.5 142t-90.5 366l105 653h327l-106 -671
q-14 -85 32.5 -141t133.5 -56q94 0 153 51.5t74 145.5l107 671h327l-102 -653q-40 -245 -197.5 -376.5t-408.5 -131.5z" />
    <glyph glyph-name="f_f.salt" horiz-adv-x="1568" 
d="M354 0h-305l135 858h-129l39 240h129l17 106q25 156 127 239t264 83q144 0 224 -86t58 -221h-243q3 32 -10.5 52.5t-41.5 20.5q-30 0 -48 -20t-21 -53l-19 -121h453l18 119q26 157 132 239t272 82q150 0 234.5 -85.5t62.5 -221.5h-260q5 31 -11.5 52.5t-46.5 21.5
q-63 0 -73 -74l-21 -133h295l-37 -240h-297l-137 -858h-305l135 858h-452z" />
    <glyph glyph-name="f_f_i.salt" horiz-adv-x="2197" 
d="M1917 1239q-77 0 -119.5 47.5t-30.5 120.5q13 81 66 124.5t137 43.5q77 0 119.5 -47.5t32.5 -120.5q-13 -81 -67 -124.5t-138 -43.5zM352 0h-305l137 864h-129l39 240h129l17 100q25 156 127 239t264 83q143 0 222.5 -85.5t59.5 -219.5h-245q5 30 -9.5 50.5t-42.5 20.5
q-59 0 -69 -71l-19 -117h455l18 113q24 156 126 238.5t264 82.5q146 0 227 -84.5t61 -220.5h-245q5 31 -9 51.5t-43 20.5q-63 0 -73 -72l-21 -129h244l-39 -240h-242l-137 -864h-305l137 864h-457zM1898 0h-327l139 881h-119l39 241h449z" />
    <glyph glyph-name="f_f_j.salt" horiz-adv-x="2199" 
d="M1929 1243q-77 0 -119 47.5t-30 120.5q13 81 65.5 124.5t136.5 43.5q77 0 119.5 -47.5t32.5 -120.5q-13 -81 -67 -124.5t-138 -43.5zM354 0h-305l137 864h-131l39 240h129l17 102q25 155 126.5 237.5t264.5 82.5q143 0 222.5 -84.5t59.5 -218.5h-245q5 30 -9 49.5
t-41 19.5q-30 0 -48 -18.5t-23 -50.5l-19 -119h455l18 113q25 155 127 238t263 83q146 0 227 -84.5t61 -220.5h-245q5 31 -9 51.5t-43 20.5q-61 0 -71 -72l-21 -129h254l-39 -240h-254l-137 -864h-305l137 864h-457zM1362 -416h-57l45 279h69q75 0 120.5 39.5t57.5 113.5
l138 865h-131l38 241h449l-174 -1095q-35 -217 -180.5 -330t-374.5 -113z" />
    <glyph glyph-name="f_f_l.salt" horiz-adv-x="2222" 
d="M354 0h-305l135 858h-129l39 240h129l17 106q25 156 127 239t264 83q144 0 224 -86t58 -221h-243q3 32 -10.5 52.5t-41.5 20.5q-30 0 -48 -20t-21 -53l-19 -121h453l18 119q25 155 128 238t264 83q143 0 223.5 -85.5t60.5 -221.5h-245q5 32 -9 53t-43 21q-30 0 -48 -20
t-21 -54l-21 -133h277l-37 -240h-279l-137 -858h-305l135 858h-452zM2048 -12h-127q-162 0 -252 99t-65 255l182 1153h330l-185 -1155q-4 -31 12.5 -50.5t47.5 -19.5h102z" />
    <glyph glyph-name="f_j.salt" horiz-adv-x="1437" 
d="M1167 1243q-77 0 -119 47.5t-30 120.5q13 81 66 124.5t137 43.5q77 0 119 -47.5t32 -120.5q-13 -81 -67 -124.5t-138 -43.5zM354 0h-305l137 864h-131l39 240h129l19 113q25 155 126.5 238t262.5 83q146 0 227.5 -85t59.5 -220h-244q5 31 -9.5 51.5t-43.5 20.5
q-30 0 -48.5 -19.5t-23.5 -52.5l-21 -129h256l-39 -240h-253zM600 -416h-57l45 279h69q75 0 121 39.5t58 113.5l137 865h-129l39 241h446l-174 -1095q-35 -217 -180.5 -330t-374.5 -113z" />
    <glyph glyph-name="fi.salt" horiz-adv-x="1437" 
d="M1157 1239q-77 0 -119 47.5t-30 120.5q12 81 65 124.5t137 43.5q77 0 119.5 -47.5t32.5 -120.5q-15 -81 -68 -124.5t-137 -43.5zM352 0h-305l137 864h-129l39 240h129l19 113q25 155 126.5 238t262.5 83q146 0 227.5 -85t61.5 -222h-246q5 32 -9 53t-44 21t-48.5 -20
t-23.5 -54l-21 -127h244l-39 -240h-244zM1139 0h-330l141 881h-119l39 241h447z" />
    <glyph glyph-name="fl.salt" horiz-adv-x="1462" 
d="M354 0h-305l135 858h-129l39 240h129l19 119q25 156 127 238.5t264 82.5q144 0 224.5 -85.5t60.5 -221.5h-246q5 32 -9 53t-42 21q-30 0 -48.5 -20t-21.5 -54l-21 -133h277l-37 -240h-278zM1286 -12h-127q-162 0 -251 99t-66 255l184 1153h328l-183 -1155
q-6 -30 11.5 -50t48.5 -20h100z" />
    <glyph glyph-name="seven.salt" horiz-adv-x="1193" 
d="M565 0h-334l48 289q50 314 192.5 523t415.5 353l-8 43h-770l45 287h1103l-67 -422q-258 -134 -397 -319.5t-183 -464.5z" />
    <glyph glyph-name="zero.tnum" horiz-adv-x="1384" 
d="M563 -43q-120 0 -212 35t-149.5 99.5t-90 156t-34.5 204.5t17 246l17 95q55 351 236 549t468 198q286 0 404.5 -198.5t62.5 -548.5l-14 -95q-27 -168 -83 -302t-141.5 -233t-207.5 -152.5t-273 -53.5zM612 264q139 0 215 108.5t117 370.5q32 182 19.5 290.5t-59 153
t-138.5 44.5q-93 0 -155 -44.5t-106.5 -150.5t-72.5 -288q-42 -267 -0.5 -375.5t180.5 -108.5z" />
    <glyph glyph-name="one.tnum" horiz-adv-x="1384" 
d="M1128 0h-1062l47 291h393l145 913h-360l47 291h692l-190 -1204h336z" />
    <glyph glyph-name="two.tnum" horiz-adv-x="1384" 
d="M1120 2h-1081l47 309q13 80 46 143.5t86.5 110.5t115.5 81.5t147 66.5l264 100q95 37 149 94.5t67 149.5q15 90 -40 146.5t-153 56.5q-107 0 -175 -57t-85 -163h-326q39 244 204.5 372t426.5 128q237 0 372.5 -129.5t102.5 -341.5l-4 -27q-16 -97 -55.5 -173t-103 -133
t-138.5 -99t-176 -80l-266 -102q-59 -23 -90.5 -51t-38.5 -76l-6 -39h755z" />
    <glyph glyph-name="three.tnum" horiz-adv-x="1384" 
d="M553 -39q-162 0 -282 59.5t-177.5 172t-34.5 258.5h326q-15 -95 46 -153t167 -58q116 0 190.5 56.5t92.5 164.5q15 99 -45 162t-166 63q-108 0 -199 -68l-115 252l508 304l-12 34h-610l47 287h1018l-50 -311l-456 -266q207 -22 320 -143t83 -310l-4 -25
q-37 -240 -207.5 -359.5t-439.5 -119.5z" />
    <glyph glyph-name="four.tnum" horiz-adv-x="1384" 
d="M1047 0h-310l45 287h-780l55 350l703 901l233 -170l-600 -772l21 -43h411l82 524h310l-82 -524h168l-41 -266h-170z" />
    <glyph glyph-name="five.tnum" horiz-adv-x="1384" 
d="M582 -39q-252 0 -394 141.5t-106 370.5h324q-17 -105 46 -169t177 -64q126 0 204.5 67.5t98.5 190.5q17 115 -43.5 188.5t-173.5 73.5q-83 0 -142.5 -25t-103.5 -84h-317l210 844h924l-45 -287h-670l-75 -299q130 95 313 95q228 0 355 -138.5t93 -355.5l-4 -27
q-40 -257 -216.5 -389.5t-454.5 -132.5z" />
    <glyph glyph-name="six.tnum" horiz-adv-x="1384" 
d="M598 -43q-111 0 -202.5 36t-153 100.5t-101.5 154t-48 197t9 229.5l13 88q57 355 278 550t574 195q144 0 280 -16l-45 -283q-150 17 -289 17q-191 0 -310.5 -108t-166.5 -302q143 182 412 182q219 0 335 -142t81 -361q-41 -261 -216 -399t-450 -138zM633 236
q128 0 207.5 64.5t99.5 188.5q19 110 -44 182t-177 72q-130 0 -213 -65.5t-103 -188.5q-17 -112 47.5 -182.5t182.5 -70.5z" />
    <glyph glyph-name="seven.tnum" horiz-adv-x="1384" 
d="M592 0h-356l733 1190l-19 31h-485l-41 -260h-270l84 534h1161l-33 -213z" />
    <glyph glyph-name="eight.tnum" horiz-adv-x="1384" 
d="M563 -43q-169 0 -294.5 52.5t-189.5 158t-42 248.5q23 143 99 233t212 137l4 27q-193 83 -157 313q17 110 70.5 191t136.5 128.5t184.5 70t226.5 22.5q157 0 274 -46.5t177 -141.5t39 -224q-19 -119 -81 -194.5t-175 -118.5l-5 -27q118 -47 166.5 -142t26.5 -228
q-19 -122 -76.5 -211.5t-147.5 -143t-201 -79t-247 -25.5zM717 922q232 0 256 172q13 79 -45.5 124.5t-157.5 45.5q-106 0 -174.5 -41t-81.5 -129q-13 -82 44.5 -127t158.5 -45zM608 233q127 0 209.5 54.5t100.5 167.5q15 99 -53.5 159t-186.5 60q-128 0 -209.5 -54
t-99.5 -165q-17 -102 51 -162t188 -60z" />
    <glyph glyph-name="nine.tnum" horiz-adv-x="1384" 
d="M782 1540q111 0 202.5 -36t153 -101t101.5 -155t48 -197.5t-9 -229.5l-12 -88q-57 -355 -278 -550t-574 -195q-145 0 -281 16l45 283q180 -17 289 -17q191 0 310.5 108t166.5 304q-143 -182 -412 -182q-219 0 -334.5 141t-80.5 360q41 261 215.5 400t449.5 139zM748 1260
q-128 0 -208 -65t-100 -189q-19 -110 44.5 -182t177.5 -72q130 0 212.5 65.5t102.5 188.5q17 113 -47 183.5t-182 70.5z" />
    <glyph glyph-name="seven.tnum.salt" horiz-adv-x="1384" 
d="M662 0h-332l45 289q50 315 196 525t422 351l-8 43h-786l45 287h1120l-68 -426q-260 -131 -401.5 -316t-185.5 -464z" />
    <glyph glyph-name="zero.dnom" horiz-adv-x="933" 
d="M358 -23q-83 0 -147 22t-101.5 59.5t-61 88.5t-25.5 108.5t6 119.5l10 74q13 82 48.5 152.5t90.5 126.5t137 88t181 32q78 0 139.5 -21t100 -58t62.5 -87.5t27 -109t-6 -123.5l-10 -74q-13 -79 -45.5 -148t-86 -126.5t-136 -90.5t-183.5 -33zM389 184q84 0 133 55.5
t66 170.5q20 122 -11 175.5t-114 53.5q-86 0 -134.5 -52.5t-68.5 -172.5q-19 -118 12.5 -174t116.5 -56z" />
    <glyph glyph-name="one.dnom" horiz-adv-x="540" 
d="M328 0h-226l101 629h-156l31 194h381z" />
    <glyph glyph-name="two.dnom" horiz-adv-x="776" 
d="M592 0h-621l27 172q14 83 66.5 138t160.5 96l131 51q54 20 82 45.5t35 70.5q6 39 -17.5 64t-74.5 25q-48 0 -77.5 -25.5t-37.5 -69.5h-217q20 124 114.5 202.5t248.5 78.5q151 0 222.5 -75t53.5 -189l-2 -15q-14 -93 -75.5 -156t-196.5 -114l-131 -51
q-38 -14 -55.5 -26.5t-20.5 -35.5v-2h416z" />
    <glyph glyph-name="three.dnom" horiz-adv-x="780" 
d="M272 -23q-150 0 -227.5 77.5t-56.5 195.5h217q-8 -39 19 -62.5t79 -23.5q53 0 86.5 26.5t38.5 67.5q8 42 -17.5 70t-76.5 28q-55 0 -109 -37l-73 168l251 123l-8 21h-311l31 192h585l-30 -200l-232 -117q114 -15 170 -80t41 -166l-2 -14q-19 -118 -121 -193.5t-254 -75.5
z" />
    <glyph glyph-name="four.dnom" horiz-adv-x="833" 
d="M592 0h-209l23 139h-443l35 232l399 506l156 -105l-334 -428l12 -27h201l45 281h207l-43 -281h92l-28 -178h-93z" />
    <glyph glyph-name="five.dnom" horiz-adv-x="794" 
d="M293 -23q-152 0 -231 82t-60 205h217q-6 -46 24 -73t81 -27q57 0 97.5 33t49.5 86q8 52 -21 86t-85 34q-38 0 -71 -16t-48 -41h-213l119 477h544l-30 -192h-375l-29 -113q70 47 168 47q134 0 203.5 -78.5t50.5 -197.5l-2 -15q-20 -123 -126.5 -210t-262.5 -87z" />
    <glyph glyph-name="six.dnom" horiz-adv-x="845" 
d="M330 -25q-78 0 -137 21.5t-94 58.5t-56.5 87t-23 108t5.5 121l8 51q32 201 160 304t342 103q95 0 174 -8l-31 -188q-56 8 -180 8q-115 0 -170.5 -44t-77.5 -130q84 90 231 90q134 0 201 -76t47 -205q-22 -138 -132 -219.5t-267 -81.5zM354 162q67 0 110 28.5t50 81.5
q9 52 -24 82.5t-95 30.5t-109 -28t-57 -85q-8 -53 24 -81.5t101 -28.5z" />
    <glyph glyph-name="seven.dnom" horiz-adv-x="757" 
d="M311 0h-239l383 621l-13 18h-215l-20 -127h-182l49 311h671l-22 -133z" />
    <glyph glyph-name="eight.dnom" horiz-adv-x="827" 
d="M301 -25q-161 0 -245 65.5t-66 190.5q25 148 166 199l2 16q-100 44 -82 170q18 113 118.5 172.5t243.5 59.5q145 0 227 -59t64 -173q-18 -123 -135 -170l-2 -16q124 -52 100 -199q-18 -125 -124 -190.5t-267 -65.5zM387 520q110 0 119 72q6 36 -20.5 54t-75.5 18
q-52 0 -83.5 -18.5t-37.5 -53.5q-5 -35 20.5 -53.5t77.5 -18.5zM330 160q136 0 153 98q9 49 -24.5 72.5t-98.5 23.5q-137 0 -151 -96q-9 -50 24 -74t97 -24z" />
    <glyph glyph-name="nine.dnom" horiz-adv-x="845" 
d="M430 850q78 0 138 -21.5t95.5 -59t57 -88t23 -108.5t-6.5 -120l-8 -52q-32 -202 -160 -305.5t-342 -103.5q-92 0 -174 10l31 188q106 -8 180 -8q115 0 169.5 43t76.5 131q-81 -90 -229 -90q-134 0 -201 75.5t-45 205.5q22 138 131 220.5t264 82.5zM408 662
q-68 0 -110.5 -29.5t-49.5 -81.5q-9 -52 23.5 -83.5t95.5 -31.5q62 0 109.5 29t55.5 86q8 53 -24 82t-100 29z" />
    <glyph glyph-name="zero.numr" horiz-adv-x="933" 
d="M440 500q-83 0 -147 22t-101.5 59.5t-61 88t-25.5 108t6 119.5l10 74q13 82 48.5 152.5t90.5 126.5t137 88t181 32q78 0 139.5 -21t100 -58t62.5 -87.5t27 -109t-6 -123.5l-10 -74q-13 -79 -45.5 -148t-86 -126t-136 -90t-183.5 -33zM471 707q84 0 133 55t66 170
q20 122 -11 175.5t-114 53.5q-86 0 -134.5 -52.5t-68.5 -172.5q-19 -118 12.5 -173.5t116.5 -55.5z" />
    <glyph glyph-name="one.numr" horiz-adv-x="540" 
d="M410 522h-226l101 629h-156l31 195h381z" />
    <glyph glyph-name="two.numr" horiz-adv-x="776" 
d="M674 522h-621l27 172q14 83 66.5 138t160.5 96l131 51q54 20 82 46t35 71q6 38 -17.5 63t-74.5 25q-48 0 -77.5 -25t-37.5 -69h-217q20 124 114.5 202t248.5 78q151 0 222.5 -75t53.5 -189l-2 -14q-14 -93 -75.5 -156.5t-196.5 -114.5l-131 -51q-39 -14 -56 -26t-20 -35
v-2h416z" />
    <glyph glyph-name="three.numr" horiz-adv-x="780" 
d="M354 500q-150 0 -227.5 77t-56.5 195h217q-8 -39 19 -62.5t79 -23.5q53 0 86.5 26.5t38.5 67.5q8 42 -17.5 70.5t-76.5 28.5q-55 0 -109 -37l-74 168l252 123l-8 20h-311l31 193h585l-30 -201l-232 -117q114 -15 170 -80t41 -166l-2 -14q-19 -118 -121 -193t-254 -75z
" />
    <glyph glyph-name="four.numr" horiz-adv-x="833" 
d="M674 522h-209l22 140h-442l35 231l399 506l156 -105l-334 -428l12 -26h201l45 280h207l-43 -280h92l-29 -178h-92z" />
    <glyph glyph-name="five.numr" horiz-adv-x="794" 
d="M375 500q-152 0 -231 81.5t-60 204.5h217q-6 -46 24 -73t81 -27q57 0 97.5 33t49.5 86q8 52 -21.5 86.5t-85.5 34.5q-38 0 -70.5 -16.5t-47.5 -41.5h-213l118 478h545l-30 -193h-375l-29 -113q70 47 168 47q134 0 203.5 -78.5t50.5 -197.5l-2 -14q-20 -123 -126.5 -210
t-262.5 -87z" />
    <glyph glyph-name="six.numr" horiz-adv-x="845" 
d="M412 498q-78 0 -137 21t-94.5 58t-57 87.5t-23 108t5.5 120.5l9 51q32 202 160 305t341 103q86 0 175 -9l-31 -188q-56 8 -180 8q-115 0 -170.5 -44t-77.5 -130q84 90 231 90q134 0 201 -75.5t47 -204.5q-22 -138 -132 -219.5t-267 -81.5zM436 684q67 0 110 29t50 82
q9 52 -24 82t-95 30t-109 -27.5t-57 -84.5q-8 -53 24.5 -82t100.5 -29z" />
    <glyph glyph-name="seven.numr" horiz-adv-x="757" 
d="M393 522h-239l383 621l-13 18h-215l-20 -127h-183l50 312h671l-22 -134z" />
    <glyph glyph-name="eight.numr" horiz-adv-x="827" 
d="M383 498q-161 0 -245 65.5t-66 190.5q25 147 166 198l2 17q-100 44 -82 170q18 113 118.5 172t243.5 59q146 0 227.5 -58.5t63.5 -172.5q-18 -123 -135 -170l-2 -17q124 -52 100 -198q-18 -125 -124 -190.5t-267 -65.5zM469 1042q110 0 119 72q6 36 -20.5 54t-75.5 18
q-52 0 -83.5 -18.5t-37.5 -53.5q-5 -35 20.5 -53.5t77.5 -18.5zM412 682q136 0 153 98q9 49 -24.5 73t-98.5 24q-63 0 -103.5 -24t-47.5 -73q-9 -50 24 -74t97 -24z" />
    <glyph glyph-name="nine.numr" horiz-adv-x="845" 
d="M512 1372q78 0 138 -21.5t95.5 -59t57 -88t23 -108.5t-6.5 -120l-8 -51q-32 -202 -160 -306t-342 -104q-92 0 -174 10l31 189q106 -8 180 -8q115 0 169.5 43t76.5 131q-82 -91 -230 -91q-134 0 -200.5 75.5t-44.5 205.5q22 138 131 220.5t264 82.5zM489 1184
q-68 0 -110 -29.5t-49 -81.5q-9 -52 23.5 -83.5t95.5 -31.5q62 0 109.5 29t55.5 86q8 53 -24.5 82t-100.5 29z" />
    <glyph glyph-name="exclamdown.case" horiz-adv-x="649" 
d="M637 1495l-53 -330h-385l53 330h385zM532 991l-157 -991h-336l158 991h335z" />
    <glyph glyph-name="questiondown.case" horiz-adv-x="1153" 
d="M561 1495h373l-51 -330h-373zM506 993h325l-57 -356h-190q-103 0 -168 -52t-78 -149q-14 -86 32 -141t132 -55q98 0 159 52t78 150h314q-38 -236 -196.5 -360.5t-407.5 -124.5q-219 0 -341 126t-90 327l5 24q30 188 148.5 295t311.5 139z" />
    <glyph glyph-name="periodcentered.case" horiz-adv-x="559" 
d="M520 571h-360l59 367h361z" />
    <glyph glyph-name="asterisk.part" horiz-adv-x="434" 
d="M463 838l-158 -220l-274 228l37 233l346 228l88 -217l-266 -103l-7 -49z" />
    <glyph glyph-name="parenleft.case" horiz-adv-x="804" 
d="M614 -242h-372q-59 97 -97.5 195t-61 214.5t-21.5 253.5t26 294q48 304 162.5 522.5t300.5 413.5h364q-99 -109 -175 -208.5t-144.5 -216t-114.5 -245t-67 -266.5q-46 -287 1 -517t199 -440z" />
    <glyph glyph-name="parenright.case" horiz-adv-x="804" 
d="M-147 -242q218 210 337 440t164 517q15 93 17.5 182t-8 170.5t-28.5 156.5t-47 149.5t-61.5 140.5t-74.5 137h362q48 -75 82.5 -147.5t61.5 -160.5t38 -181.5t8 -207t-24 -239.5q-49 -306 -161.5 -532.5t-293.5 -424.5h-372z" />
    <glyph glyph-name="braceleft.case" horiz-adv-x="804" 
d="M561 -242h-51q-208 0 -307 98.5t-66 301.5l43 280q18 125 -135 125l47 291q156 0 174 125l43 272q33 204 163 302t339 98h51l-43 -273h-51q-129 0 -147 -127l-46 -282q-20 -120 -80 -177.5t-169 -68.5l-4 -29q107 -9 149.5 -66.5t22.5 -176.5l-48 -293q-19 -127 109 -127
h51z" />
    <glyph glyph-name="braceright.case" horiz-adv-x="804" 
d="M-96 -242l41 273h53q125 0 147 127l45 293q18 119 79 176.5t171 66.5l4 29q-105 11 -147.5 69t-22.5 177l43 282q11 64 -14.5 95.5t-91.5 31.5h-51l43 273h53q207 0 306.5 -98t68.5 -302l-45 -272q-10 -63 24 -94t111 -31l-45 -291q-155 0 -176 -125l-45 -280
q-31 -203 -161 -301.5t-337 -98.5h-53z" />
    <glyph glyph-name="bracketleft.case" horiz-adv-x="804" 
d="M549 -242h-543l301 1893h543l-43 -273h-227l-215 -1347h229z" />
    <glyph glyph-name="bracketright.case" horiz-adv-x="804" 
d="M-82 -242l41 273h229l213 1347h-229l45 273h541l-299 -1893h-541z" />
    <glyph glyph-name="hyphen.case" horiz-adv-x="1042" 
d="M977 614h-862l47 293h862z" />
    <glyph glyph-name="endash.case" horiz-adv-x="1077" 
d="M1069 614h-1003l38 250h1004z" />
    <glyph glyph-name="emdash.case" horiz-adv-x="1871" 
d="M1864 614h-1798l38 250h1799z" />
    <glyph glyph-name="guillemotleft.case" horiz-adv-x="1267" 
d="M643 289h-379l-213 407l15 99l356 415h366l-368 -426l-10 -69zM1231 289h-379l-213 407l16 99l355 415h366l-366 -426l-11 -69z" />
    <glyph glyph-name="guillemotright.case" horiz-adv-x="1331" 
d="M735 1210h379l213 -405l-16 -100l-355 -416h-366l366 426l11 69zM145 1210h379l213 -405l-16 -100l-354 -416h-367l367 426l12 69z" />
    <glyph glyph-name="guilsinglleft.case" horiz-adv-x="743" 
d="M643 289h-379l-213 407l15 99l356 415h366l-368 -426l-10 -69z" />
    <glyph glyph-name="guilsinglright.case" horiz-adv-x="743" 
d="M145 1210h379l213 -405l-16 -100l-354 -416h-367l367 426l12 69z" />
    <glyph glyph-name="cent.tnum" horiz-adv-x="1384" 
d="M735 0h-268l33 203q-193 37 -292 178.5t-67 343.5l6 41q37 227 172.5 363t352.5 167l28 185h269l-29 -189q161 -34 248 -146.5t74 -281.5h-312q1 80 -51.5 125t-140.5 45q-124 0 -198 -77t-97 -212q-19 -123 37 -202.5t168 -79.5q202 0 256 178h311q-42 -190 -162 -300
t-307 -140z" />
    <glyph glyph-name="currency.tnum" horiz-adv-x="1384" 
d="M629 276q-126 0 -223 54l-228 -197l-158 191l222 190q-39 103 -21 217l6 33q18 112 88 215l-159 190l217 189l162 -193q121 54 243 54q126 0 226 -54l225 193l155 -189l-219 -190q39 -102 21 -215l-6 -33q-18 -116 -90 -217l159 -190l-215 -191l-164 197
q-118 -54 -241 -54zM668 526q98 0 157.5 60.5t75.5 161.5q18 103 -24.5 162t-139.5 59q-96 0 -155.5 -58.5t-77.5 -162.5q-16 -101 25 -161.5t139 -60.5z" />
    <glyph glyph-name="dollar.tnum" horiz-adv-x="1384" 
d="M657 -264h-268l41 264q-214 30 -306 152.5t-61 316.5h302q-15 -96 45.5 -157.5t203.5 -61.5q129 0 209 50t92 132q11 73 -42.5 119.5t-178.5 58.5l-102 8q-216 21 -318.5 134t-70.5 313q28 180 145 286.5t309 131.5l33 211h268l-32 -215q183 -31 262.5 -147.5
t48.5 -305.5h-301q14 89 -36.5 147t-158.5 58q-99 0 -162 -45.5t-75 -120.5q-10 -69 28 -117.5t132 -56.5l102 -8q243 -22 364 -137t89 -314q-29 -186 -163.5 -298.5t-357.5 -137.5z" />
    <glyph glyph-name="Euro.tnum" horiz-adv-x="1384" 
d="M676 -35q-230 0 -362.5 145t-147.5 384h-184l26 165h160q2 23 10 74l4 29q4 30 8 43h-122l26 166h135q80 265 248 412t432 147q236 0 369.5 -139t107.5 -365h-290q9 107 -55 172.5t-173 65.5q-135 0 -217.5 -76.5t-126.5 -216.5h439l-27 -166h-453q-7 -33 -10 -57
q-8 -64 -10 -89h414l-27 -165h-387q16 -123 78 -193t176 -70q123 0 202 60.5t105 177.5h291q-51 -247 -216.5 -375.5t-422.5 -128.5z" />
    <glyph glyph-name="riel-khmer.tnum" horiz-adv-x="1384" 
d="M827 -14h-270q-126 0 -220 34t-143.5 106t-33.5 173q14 88 58 150.5t114 97.5t152 50.5t186 16.5l12 80h-313l32 197h312l2 8q6 38 -29 59q-30 20 -83.5 51t-84.5 50q-82 52 -90 138.5t49 178.5q52 89 133 121.5t205 32.5q154 0 342 -27l-35 -227q-190 29 -356 29
q-53 0 -70 -27q-8 -13 -5.5 -27.5t14.5 -21.5q168 -99 174 -103q116 -71 94 -227l-2 -8h233l-30 -197h-234zM582 186h14l39 230q-45 -1 -76.5 -5.5t-62 -15.5t-48.5 -34t-24 -58q-9 -57 36 -87t122 -30z" />
    <glyph glyph-name="sterling.tnum" horiz-adv-x="1384" 
d="M1157 0h-1139l39 254h140l61 387h-127l35 219h127l20 135q41 250 214 386.5t438 136.5q139 0 333 -21l-41 -266q-195 20 -335 20q-144 0 -217 -66t-95 -204l-18 -121h479l-35 -219h-479l-61 -387h444l29 180h256z" />
    <glyph glyph-name="yen.tnum" horiz-adv-x="1384" 
d="M745 0h-307l47 299h-413l26 166h412l22 145h-411l26 166h267l-236 719h340l191 -625h53l360 625h322l-436 -719h266l-27 -166h-407l-23 -145h408l-27 -166h-405z" />
    <glyph glyph-name="plus.tnum" horiz-adv-x="1384" 
d="M762 156h-291l68 415h-389l43 267h387l67 417h291l-68 -417h390l-43 -267h-388z" />
    <glyph glyph-name="minus.tnum" horiz-adv-x="1384" 
d="M1251 571h-1069l43 267h1067z" />
    <glyph glyph-name="multiply.tnum" horiz-adv-x="1384" 
d="M113 352l405 348l-295 351l221 190l295 -350l406 350l153 -182l-405 -348l295 -351l-221 -190l-295 350l-406 -350z" />
    <glyph glyph-name="divide.tnum" horiz-adv-x="1384" 
d="M899 987h-305l47 301h305zM1214 571h-1067l41 267h1069zM762 123h-305l47 299h305z" />
    <glyph glyph-name="equal.tnum" horiz-adv-x="1384" 
d="M1266 764h-1069l43 266h1069zM1196 322h-1069l43 266h1067z" />
    <glyph glyph-name="caroncomb.alt" 
d="M418 1178h-246l84 528h281z" />
    <glyph glyph-name="dieresiscomb.case" 
d="M283 1630q-89 0 -127.5 45.5t-26.5 122.5q12 78 66 124t143 46t127 -46t27 -124q-12 -76 -66 -122t-143 -46zM741 1630q-89 0 -127.5 45.5t-25.5 122.5q12 78 66 124t143 46t126.5 -45.5t26.5 -124.5q-12 -76 -66 -122t-143 -46z" />
    <glyph glyph-name="dotaccentcomb.case" 
d="M283 1630q-89 0 -127.5 45.5t-26.5 122.5q12 78 66 124t143 46t127 -46t27 -124q-12 -76 -66 -122t-143 -46z" />
    <glyph glyph-name="gravecomb.case" 
d="M678 1608h-318l-202 366h356z" />
    <glyph glyph-name="acutecomb.case" 
d="M412 1608h-314l314 366h352z" />
    <glyph glyph-name="hungarumlautcomb.case" 
d="M715 1608h-246l242 366h272zM344 1608h-246l242 366h272z" />
    <glyph glyph-name="circumflexcomb.case" 
d="M393 1608h-295l324 366h389l211 -366h-301l-115 211h-37z" />
    <glyph glyph-name="caroncomb.case" 
d="M756 1608h-387l-211 366h299l114 -209h37l172 209h295z" />
    <glyph glyph-name="brevecomb.case" 
d="M489 1587q-187 0 -271 103.5t-60 283.5h233q-20 -168 133 -168q155 0 193 168h225q-36 -180 -152 -283.5t-301 -103.5z" />
    <glyph glyph-name="ringcomb.case" 
d="M354 1561q-119 0 -182.5 64t-48.5 167q17 102 100.5 165.5t202.5 63.5q120 0 183 -63.5t48 -165.5q-17 -103 -100.5 -167t-202.5 -64zM379 1708q41 0 68.5 23.5t33.5 60.5q5 36 -15.5 59t-62.5 23t-70 -23t-34 -59q-5 -36 16.5 -60t63.5 -24z" />
    <glyph glyph-name="tildecomb.case" 
d="M694 1610q-58 0 -106.5 17t-76.5 37t-69 37t-86 17q-120 0 -202 -82l-15 222q98 102 256 102q58 0 107 -17t77 -37.5t69.5 -37.5t86.5 -17q125 0 205 84l14 -223q-102 -102 -260 -102z" />
    <glyph glyph-name="macroncomb.case" 
d="M913 1659h-798l35 229h798z" />
    <glyph glyph-name="commaturnedabovecomb.case" 
d="M281 1550q-93 0 -136 62t-26 172l2 12q21 131 114 197.5t232 66.5h45l-27 -159h-49q-63 0 -99 -25.5t-42 -69.5q34 15 65 15q59 0 89 -34t20 -95q-10 -71 -63 -106.5t-125 -35.5z" />
    <glyph glyph-name="commaaccentcomb.case" 
d="M-27 -627h-51l27 160h55q124 0 141 113q-34 -15 -65 -15q-57 0 -88 35t-21 96q11 72 65 109t126 37q92 0 134.5 -63t25.5 -175l-3 -12q-23 -138 -115 -211.5t-231 -73.5z" />
    <glyph glyph-name="cedillacomb.case" 
d="M84 -565q-110 0 -170 24l33 209q78 -24 157 -24q123 0 132 57q3 23 -18 35t-68 12h-111l45 279h211l-21 -123q98 -15 146 -69t35 -140q-19 -113 -118.5 -186.5t-252.5 -73.5z" />
    <glyph glyph-name="ogonekcomb.case" 
d="M297 -526q-132 0 -204.5 77.5t-53.5 200.5q32 185 248 344l71 54l117 -150l-72 -55q-100 -74 -112 -148q-6 -39 16.5 -63.5t67.5 -24.5t96 19l-39 -238q-50 -16 -135 -16z" />
    <glyph glyph-name="sora.tnum" horiz-adv-x="1384" 
d="M676 639l-428 -639h-348l647 909h-502l33 199h514l31 188h-517l33 199h1344l-31 -199h-516l-31 -188h516l-30 -199h-502l356 -909h-348z" />
  </font>
</defs>
</svg>
