<?xml version="1.0" standalone="no"?>
<!DOCTYPE svg PUBLIC "-//W3C//DTD SVG 1.1//EN" "http://www.w3.org/Graphics/SVG/1.1/DTD/svg11.dtd" >
<svg xmlns="http://www.w3.org/2000/svg" xmlns:xlink="http://www.w3.org/1999/xlink" version="1.1">
<metadata>
Created by FontForge 20201107 at Mon Sep 30 11:26:23 2024
 By 
Copyright 2019 The Sora Project Authors (https://github.com/sora-xor/sora-font)
</metadata>
<defs>
<font id="Sora-MediumItalic" horiz-adv-x="614" >
  <font-face 
    font-family="Sora Medium Italic"
    font-weight="500"
    font-style="italic"
    font-stretch="normal"
    units-per-em="2048"
    panose-1="0 0 0 0 0 0 0 0 0 0"
    ascent="1638"
    descent="-410"
    x-height="1104"
    cap-height="1495"
    bbox="-373 -596 2586.28 2429"
    underline-thickness="102"
    underline-position="-255"
    unicode-range="U+000D-FB04"
  />
<missing-glyph horiz-adv-x="1765" 
d="M1442 -92h-1401l266 1687h1401zM412 1479l-232 -1454h1157l232 1454h-1157zM879 492h-152l45 286h98q84 0 139.5 49.5t67.5 128.5t-25.5 129t-113.5 50q-77 0 -133 -52.5t-70 -134.5h-164q24 146 132 241t264 95q148 0 223.5 -88t54.5 -223l-4 -17
q-19 -122 -107.5 -203.5t-228.5 -99.5zM844 205h-176l28 170h176z" />
    <glyph glyph-name="f_f" unicode="ff" horiz-adv-x="1490" 
d="M311 0h-227l145 909h-145l29 178h145l10 68q27 178 147 271.5t308 93.5h108l-30 -191h-135q-69 0 -112 -38t-54 -107l-15 -97h486l8 56q29 179 148.5 271.5t308.5 92.5h135l-31 -190h-162q-70 0 -113.5 -38.5t-52.5 -107.5l-14 -84h326l-29 -178h-324l-145 -909h-227
l143 909h-485z" />
    <glyph glyph-name="fi" unicode="fi" horiz-adv-x="1380" 
d="M1118 1257q-63 0 -98.5 39.5t-26.5 100.5q10 67 54 103t114 36q63 0 98 -39.5t25 -99.5q-10 -67 -53.5 -103.5t-112.5 -36.5zM309 0h-227l147 922h-143l27 178h145l8 55q27 179 147.5 272t309.5 93h119l-31 -191h-145q-70 0 -113.5 -38t-54.5 -107l-15 -84h275l-27 -178
h-274zM1077 0h-239l147 920h-151l28 184h391l-28 -184z" />
    <glyph glyph-name="fl" unicode="fl" horiz-adv-x="1361" 
d="M311 0h-227l143 907h-145l31 178h143l6 45q29 179 148.5 272t308.5 93h98l-31 -190h-124q-69 0 -112.5 -37.5t-53.5 -106.5l-13 -76h279l-31 -178h-276zM1067 0h-240l209 1311h-137l29 184h377l-29 -184z" />
    <glyph glyph-name="f_f_i" unicode="ffi" horiz-adv-x="2091" 
d="M1829 1257q-62 0 -97 39.5t-26 100.5q10 67 54 103t114 36q63 0 98.5 -39.5t26.5 -99.5q-12 -67 -56.5 -103.5t-113.5 -36.5zM309 0h-227l147 922h-145l29 178h145l10 67q27 178 146.5 271.5t308.5 93.5h106l-30 -193h-133q-69 0 -112.5 -37t-55.5 -106l-15 -96h488l8 55
q29 178 148.5 271.5t306.5 93.5h127l-31 -193h-154q-69 0 -112.5 -37t-53.5 -106l-12 -84h275l-29 -178h-275l-145 -922h-227l145 922h-487zM1792 0h-242l148 920h-152l31 184h391z" />
    <glyph glyph-name="f_f_l" unicode="ffl" horiz-adv-x="2080" 
d="M311 0h-227l145 909h-145l29 178h145l10 68q27 178 147 271.5t308 93.5h108l-30 -191h-135q-69 0 -112 -38t-54 -107l-15 -97h488l6 43q26 178 146 271.5t309 93.5h98l-31 -190h-125q-69 0 -112.5 -37.5t-53.5 -106.5l-12 -74h277l-27 -178h-279l-143 -909h-227l145 909
h-487zM1784 0h-240l207 1311h-139l28 184h381l-28 -184z" />
    <glyph glyph-name="f_f_j" unicode="ffj" horiz-adv-x="2097" 
d="M1841 1270q-63 0 -98 39t-25 100q10 67 53.5 103t112.5 36q63 0 98.5 -39.5t26.5 -99.5q-10 -67 -54 -103t-114 -36zM311 0h-227l145 922h-143l27 178h145l10 67q27 177 147 271t308 94h108l-30 -193h-135q-68 0 -112 -37.5t-54 -105.5l-15 -96h488l8 55
q27 178 146.5 271.5t308.5 93.5h108l-31 -193h-135q-69 0 -112.5 -37t-53.5 -106l-14 -84h289l-27 -178h-289l-147 -922h-227l147 922h-487zM1321 -412h-78l33 211h102q77 0 125 41t60 117l153 963h-153l28 184h385l-178 -1124q-31 -189 -156 -290.5t-321 -101.5z" />
    <glyph glyph-name="f_j" unicode="fj" horiz-adv-x="1382" 
d="M1126 1270q-62 0 -96.5 39t-25.5 100q10 67 54 103t113 36q63 0 98.5 -39.5t26.5 -99.5q-12 -67 -56.5 -103t-113.5 -36zM311 0h-227l145 922h-143l27 178h145l8 55q27 179 147.5 272t309.5 93h108l-30 -191h-135q-69 0 -112.5 -38t-55.5 -107l-13 -84h289l-29 -178h-288
zM608 -412h-80l35 211h103q76 0 123 41t59 117l153 963h-153l31 184h383l-29 -184l-150 -940q-31 -189 -155 -290.5t-320 -101.5z" />
    <glyph glyph-name=".notdef" horiz-adv-x="1765" 
d="M1442 -92h-1401l266 1687h1401zM412 1479l-232 -1454h1157l232 1454h-1157zM879 492h-152l45 286h98q84 0 139.5 49.5t67.5 128.5t-25.5 129t-113.5 50q-77 0 -133 -52.5t-70 -134.5h-164q24 146 132 241t264 95q148 0 223.5 -88t54.5 -223l-4 -17
q-19 -122 -107.5 -203.5t-228.5 -99.5zM844 205h-176l28 170h176z" />
    <glyph glyph-name=".null" horiz-adv-x="0" 
 />
    <glyph glyph-name="nonmarkingreturn" horiz-adv-x="682" 
 />
    <glyph glyph-name="NULL" horiz-adv-x="1228" 
 />
    <glyph glyph-name="NULL" horiz-adv-x="1228" 
 />
    <glyph glyph-name="CR" unicode="&#xd;" horiz-adv-x="1228" 
 />
    <glyph glyph-name="space" unicode=" " horiz-adv-x="454" 
 />
    <glyph glyph-name="exclam" unicode="!" horiz-adv-x="620" 
d="M389 467h-246l164 1028h246zM336 0h-287l45 276h287z" />
    <glyph glyph-name="quotedbl" unicode="&#x22;" horiz-adv-x="925" 
d="M403 915h-210l92 580h211zM786 915h-211l93 580h211z" />
    <glyph glyph-name="numbersign" unicode="#" horiz-adv-x="1437" 
d="M342 0h-205l129 412h-248l27 168h274l105 335h-250l27 168h276l129 412h203l-129 -412h289l129 412h205l-129 -412h245l-26 -168h-273l-104 -335h248l-27 -168h-274l-129 -412h-203l129 412h-289zM522 580h289l107 335h-289z" />
    <glyph glyph-name="dollar" unicode="$" horiz-adv-x="1335" 
d="M592 -264h-207l43 268q-201 28 -309 154t-78 317h223q-21 -127 65 -202.5t236 -75.5q338 0 373 229q16 100 -56.5 155t-203.5 68l-123 10q-196 19 -302 131.5t-77 288.5q28 187 153 289t324 123l33 203h207l-33 -207q178 -30 271.5 -153t64.5 -302h-223q20 117 -51 190.5
t-197 73.5q-290 0 -324 -217q-13 -90 45 -146t162 -65l123 -12q219 -20 341.5 -133t92.5 -297q-31 -199 -170 -302.5t-362 -121.5z" />
    <glyph glyph-name="percent" unicode="%" horiz-adv-x="1769" 
d="M391 686q-153 0 -229 111t-49 280l8 53q30 183 131.5 286.5t271.5 103.5q153 0 229.5 -111.5t49.5 -278.5l-8 -53q-30 -184 -132 -287.5t-272 -103.5zM586 0h-195l795 1495h196zM418 850q92 0 139 66.5t66 185.5q19 113 -11 184.5t-114 71.5q-92 0 -138.5 -67t-66.5 -187
q-18 -112 12 -183t113 -71zM1241 -25q-154 0 -229.5 110.5t-48.5 279.5l8 53q29 184 130.5 287.5t270.5 103.5q154 0 230 -111t49 -280l-9 -53q-29 -184 -130.5 -287t-270.5 -103zM1266 137q93 0 140.5 67t66.5 185q16 113 -13 184.5t-112 71.5q-48 0 -84.5 -19t-60.5 -55.5
t-38.5 -79.5t-23.5 -100q-16 -113 13 -183.5t112 -70.5z" />
    <glyph glyph-name="ampersand" unicode="&#x26;" horiz-adv-x="1437" 
d="M469 -39q-151 0 -263.5 56.5t-166.5 162.5t-33 244l6 29q24 150 102.5 248.5t217.5 172.5q-46 112 -27 236q33 205 182 304t383 99q124 0 295 -22l-32 -205q-199 23 -328 23q-113 0 -185.5 -52.5t-89.5 -154.5q-14 -89 15 -160.5t98 -159.5l291 -372q88 154 131 405h-221
l28 184h551l-28 -184h-117q-63 -362 -219 -569l192 -246h-274l-72 92q-182 -131 -436 -131zM236 444q-20 -125 57 -202.5t213 -77.5q166 0 280 82l-309 397q-57 77 -59 80q-77 -50 -121 -116.5t-61 -162.5z" />
    <glyph glyph-name="quotesingle" unicode="'" horiz-adv-x="540" 
d="M403 915h-210l92 580h211z" />
    <glyph glyph-name="parenleft" unicode="(" horiz-adv-x="782" 
d="M571 -373h-274q-109 157 -162 313.5t-57.5 320.5t24.5 357q50 309 165.5 532t340.5 439h273q-159 -153 -262.5 -291t-175 -306.5t-103.5 -373.5q-47 -297 4.5 -529t226.5 -462z" />
    <glyph glyph-name="parenright" unicode=")" horiz-adv-x="782" 
d="M-160 -373q248 231 374 463.5t171 527.5q22 160 21.5 286t-33.5 246t-85 222.5t-134 216.5h270q158 -216 203.5 -440t-4.5 -531q-33 -202 -88 -359.5t-158 -316.5t-262 -315h-275z" />
    <glyph glyph-name="asterisk" unicode="*" horiz-adv-x="1163" 
d="M569 1618h207l-96 -383l-199 -105l-325 162l133 176l200 -170l70 37zM1120 940l-133 -180l-276 223l32 209l351 223l71 -178l-278 -113l-13 -73zM170 705l-76 180l375 159l166 -104l-25 -385l-207 2l80 283l-59 37z" />
    <glyph glyph-name="plus" unicode="+" horiz-adv-x="1212" 
d="M649 209h-209l64 399h-379l31 193h376l64 401h209l-64 -401h379l-30 -193h-377z" />
    <glyph glyph-name="comma" unicode="," horiz-adv-x="544" 
d="M453 227l-299 -559l-179 74l287 561z" />
    <glyph glyph-name="hyphen" unicode="-" horiz-adv-x="1036" 
d="M936 469h-795l33 209h795z" />
    <glyph glyph-name="period" unicode="." horiz-adv-x="544" 
d="M387 0h-278l47 289h278z" />
    <glyph glyph-name="slash" unicode="/" horiz-adv-x="747" 
d="M135 -123h-235l694 1720h233z" />
    <glyph glyph-name="zero" unicode="0" horiz-adv-x="1536" 
d="M641 -37q-189 0 -319 96t-180 261t-17 372l18 113q27 168 86 301.5t151 230.5t221.5 149t289.5 52q188 0 317 -97t178.5 -263t16.5 -373l-17 -113q-27 -168 -86.5 -301t-150.5 -229t-220 -147.5t-288 -51.5zM676 186q88 0 159 28t122 77t89.5 121t62.5 152.5t40 180.5
q21 117 11.5 220.5t-41.5 181t-100.5 123t-164.5 45.5q-109 0 -192.5 -42.5t-138.5 -121.5t-89 -177t-53 -224q-13 -94 -13.5 -177.5t20 -154.5t56.5 -122.5t95.5 -80.5t136.5 -29z" />
    <glyph glyph-name="one" unicode="1" horiz-adv-x="866" 
d="M522 0h-241l204 1286h-319l33 209h561z" />
    <glyph glyph-name="two" unicode="2" horiz-adv-x="1275" 
d="M1044 0h-1021l43 266q22 143 109.5 229t246.5 152l287 121q112 47 174.5 115t79.5 176q19 119 -47 194.5t-187 75.5q-133 0 -216 -71.5t-103 -202.5h-238q36 234 191 358.5t399 124.5q223 0 347.5 -129.5t92.5 -335.5l-4 -29q-14 -90 -50 -161.5t-94.5 -126t-126 -95
t-161.5 -79.5l-287 -121q-77 -33 -119 -72t-53 -106l-12 -74h782z" />
    <glyph glyph-name="three" unicode="3" horiz-adv-x="1269" 
d="M496 -37q-233 0 -363.5 132.5t-97.5 346.5h235q-19 -120 54.5 -196t203.5 -76q142 0 232.5 70.5t111.5 205.5q20 124 -52 203.5t-202 79.5q-111 0 -198 -57l-84 202l592 377l-15 37h-684l33 207h944l-47 -285l-481 -301q219 -8 340.5 -131.5t91.5 -320.5l-4 -27
q-37 -231 -197.5 -349t-412.5 -118z" />
    <glyph glyph-name="four" unicode="4" horiz-adv-x="1335" 
d="M975 0h-227l53 332h-783l45 278l750 924l158 -129l-682 -842l14 -39h528l87 541h225l-86 -541h190l-30 -192h-189z" />
    <glyph glyph-name="five" unicode="5" horiz-adv-x="1290" 
d="M530 -37q-238 0 -370 140t-97 364h236q-20 -131 54 -214t210 -83q150 0 244 79t117 226q22 135 -52 223t-210 88q-88 0 -152.5 -22.5t-122.5 -79.5h-225l205 811h825l-35 -207h-635l-100 -393q124 82 295 82q149 0 258.5 -61.5t159.5 -174t28 -254.5l-4 -26
q-39 -245 -204 -371.5t-425 -126.5z" />
    <glyph glyph-name="six" unicode="6" horiz-adv-x="1368" 
d="M596 -41q-178 0 -297.5 95.5t-163.5 256t-12 361.5l14 94q56 352 268.5 546.5t557.5 194.5q106 0 266 -16l-33 -205q-173 17 -276 17q-236 0 -378 -145.5t-182 -397.5q145 215 449 215q218 0 336 -140.5t84 -359.5q-41 -251 -206 -383.5t-427 -132.5zM627 166
q153 0 248 79t120 228q22 134 -51.5 220.5t-208.5 86.5q-162 0 -264 -79t-125 -230q-22 -134 58 -219.5t223 -85.5z" />
    <glyph glyph-name="seven" unicode="7" horiz-adv-x="1198" 
d="M430 0h-254l797 1270l-12 22h-588l-37 -239h-199l37 239l33 203h1046l-36 -229z" />
    <glyph glyph-name="eight" unicode="8" horiz-adv-x="1325" 
d="M535 -39q-159 0 -278.5 54t-178.5 159t-37 244q23 142 101.5 231t219.5 139l5 23q-99 44 -141 125t-25 190q17 106 66.5 185.5t127 127.5t174 71.5t213.5 23.5q146 0 255.5 -48t164 -141.5t35.5 -218.5q-20 -119 -85 -194.5t-181 -120.5l-4 -23q122 -49 174.5 -144
t32.5 -226q-19 -118 -73.5 -206.5t-139 -143t-191 -81t-235.5 -26.5zM682 891q131 0 214 53.5t101 167.5q17 100 -53.5 159.5t-191.5 59.5q-133 0 -216.5 -53.5t-101.5 -165.5q-15 -102 55.5 -161.5t192.5 -59.5zM565 166q155 0 253.5 67t121.5 203q20 122 -63 195.5
t-226 73.5q-153 0 -251 -67t-119 -202q-20 -123 61 -196.5t223 -73.5z" />
    <glyph glyph-name="nine" unicode="9" horiz-adv-x="1368" 
d="M766 1538q179 0 299 -96t163.5 -257.5t10.5 -361.5l-12 -94q-58 -352 -270.5 -546.5t-555.5 -194.5q-109 0 -266 16l33 207q160 -16 274 -16q237 0 379 144.5t183 397.5q-147 -217 -449 -217q-219 0 -337.5 140.5t-84.5 359.5q41 251 206.5 384.5t426.5 133.5zM737 1329
q-153 0 -249 -79.5t-119 -227.5q-22 -134 51.5 -220.5t208.5 -86.5q161 0 262.5 79t124.5 230q22 134 -57.5 219.5t-221.5 85.5z" />
    <glyph glyph-name="colon" unicode=":" horiz-adv-x="661" 
d="M504 733h-279l47 289h279zM387 0h-278l47 289h278z" />
    <glyph glyph-name="semicolon" unicode=";" horiz-adv-x="544" 
d="M516 733h-278l47 289h278zM459 227l-299 -559l-178 74l286 561z" />
    <glyph glyph-name="less" unicode="&#x3c;" horiz-adv-x="1212" 
d="M145 518l19 117h-2l31 194l958 299l-33 -200l-772 -236l-6 -37l698 -235l-32 -201z" />
    <glyph glyph-name="equal" unicode="=" horiz-adv-x="1208" 
d="M1130 774h-960l31 193h960zM1069 385h-960l30 193h961z" />
    <glyph glyph-name="greater" unicode="&#x3e;" horiz-adv-x="1212" 
d="M1055 518l-959 -299l33 201l772 235l6 37l-698 236l33 200l860 -299l-19 -116h2z" />
    <glyph glyph-name="question" unicode="?" horiz-adv-x="1138" 
d="M590 465h-240l60 373h157q126 0 204 62.5t97 182.5q17 107 -41.5 176.5t-167.5 69.5q-127 0 -207 -67.5t-102 -192.5h-229q36 228 186 348.5t387 120.5q136 0 236 -55t146 -155t26 -228l-4 -25q-30 -189 -154 -294t-321 -128zM539 0h-283l43 276h283z" />
    <glyph glyph-name="at" unicode="@" horiz-adv-x="2301" 
d="M956 -500q-222 0 -402 75.5t-295 208t-162.5 321t-12.5 407.5q78 492 392 758t814 266q171 0 318.5 -41.5t259 -121t185 -189t100 -251.5t1.5 -302q-100 -623 -542 -623q-114 0 -186.5 61t-86.5 164q-129 -210 -387 -210q-196 0 -297.5 135.5t-68.5 343.5l4 33
q36 221 169.5 343.5t350.5 122.5q115 0 196.5 -51.5t120.5 -142.5l27 164h184l-100 -623q-9 -67 19.5 -110t87.5 -43q62 0 110 23t78.5 59.5t54.5 95.5t36.5 115t25.5 135q34 212 -44.5 378t-247 256.5t-396.5 90.5q-405 0 -658.5 -218t-316.5 -618q-28 -177 10 -329.5
t130 -259.5t236.5 -167.5t323.5 -60.5q141 0 262 29l-30 -197q-144 -27 -263 -27zM1024 207q136 0 219 78.5t105 218.5l8 49q19 117 -47.5 191.5t-186.5 74.5q-135 0 -217 -80t-104 -221q-22 -135 39 -223t184 -88z" />
    <glyph glyph-name="A" unicode="A" horiz-adv-x="1566" 
d="M174 0h-246l762 1495h408l303 -1495h-254l-84 422h-676zM494 635h528l-127 649h-76z" />
    <glyph glyph-name="B" unicode="B" horiz-adv-x="1402" 
d="M655 -8h-573l240 1513h512q142 0 248 -48.5t158 -142t32 -216.5l-4 -29q-36 -217 -224 -307q103 -46 153 -129.5t32 -198.5l-4 -28q-33 -208 -183.5 -311t-386.5 -103zM831 1300h-299l-71 -448h301q107 0 175 58t85 165q15 99 -38.5 162t-152.5 63zM786 655h-356
l-72 -458h355q112 0 181.5 59.5t86.5 169.5q15 100 -39.5 164.5t-155.5 64.5z" />
    <glyph glyph-name="C" unicode="C" horiz-adv-x="1634" 
d="M737 -37q-219 0 -376.5 98.5t-226.5 273t-34 394.5l6 45q59 364 283.5 564t583.5 200q280 0 445 -154.5t153 -418.5h-248q1 163 -104.5 254.5t-280.5 91.5q-246 0 -394.5 -149.5t-189.5 -411.5q-25 -159 17.5 -286t147 -200.5t253.5 -73.5q398 0 508 345h250
q-82 -285 -284.5 -428.5t-508.5 -143.5z" />
    <glyph glyph-name="D" unicode="D" horiz-adv-x="1617" 
d="M608 -8h-526l240 1513h526q171 0 310.5 -53.5t231.5 -148.5t131.5 -232.5t14.5 -298.5l-8 -45q-37 -239 -160.5 -405t-316 -248t-443.5 -82zM831 1278h-301l-165 -1059h299q256 0 417 138.5t201 392.5q37 231 -90 379.5t-361 148.5z" />
    <glyph glyph-name="E" unicode="E" horiz-adv-x="1224" 
d="M985 0h-903l237 1495h885l-33 -213h-643l-65 -416h602l-35 -213h-600l-70 -440h660z" />
    <glyph glyph-name="F" unicode="F" horiz-adv-x="1146" 
d="M328 0h-246l237 1495h857l-35 -213h-611l-65 -424h577l-32 -213h-580z" />
    <glyph glyph-name="G" unicode="G" horiz-adv-x="1703" 
d="M756 -37q-226 0 -388 99t-233 275.5t-35 399.5l6 45q59 360 283 558t582 198q185 0 323.5 -68t210.5 -198t60 -303h-248q4 160 -101.5 251t-279.5 91q-245 0 -393.5 -146.5t-190.5 -406.5q-25 -163 20.5 -293.5t154.5 -205.5t264 -75q136 0 240 35t188 115l32 217h-452
l30 192h807l-30 -192h-125l-47 -295q-136 -160 -296 -226.5t-382 -66.5z" />
    <glyph glyph-name="H" unicode="H" horiz-adv-x="1644" 
d="M328 0h-246l237 1495h246l-102 -639h751l103 639h246l-238 -1495h-246l101 637h-752z" />
    <glyph glyph-name="I" unicode="I" horiz-adv-x="655" 
d="M332 0h-246l238 1495h245z" />
    <glyph glyph-name="J" unicode="J" horiz-adv-x="1312" 
d="M481 -37q-233 0 -357 154.5t-87 392.5l8 59h246l-12 -90q-22 -126 45.5 -207.5t193.5 -81.5q137 0 223 75t109 214l125 799h-627l35 217h872l-34 -217l-123 -768q-40 -261 -199.5 -404t-417.5 -143z" />
    <glyph glyph-name="K" unicode="K" horiz-adv-x="1439" 
d="M328 0h-246l237 1495h246l-110 -698l700 698h281l-660 -655l563 -840h-301l-467 698h-133z" />
    <glyph glyph-name="L" unicode="L" horiz-adv-x="1124" 
d="M952 0h-870l237 1495h246l-203 -1276h625z" />
    <glyph glyph-name="M" unicode="M" horiz-adv-x="1918" 
d="M307 0h-225l237 1495h332l258 -944h35l557 944h336l-238 -1495h-243l190 1208l-530 -901h-273l-243 899z" />
    <glyph glyph-name="N" unicode="N" horiz-adv-x="1757" 
d="M311 0h-229l237 1495h402l491 -1284h27l203 1284h233l-237 -1495h-406l-491 1284h-25z" />
    <glyph glyph-name="O" unicode="O" horiz-adv-x="1771" 
d="M760 -37q-168 0 -304.5 57t-223.5 157.5t-123 243t-9 308.5l6 45q58 367 293 565.5t609 198.5q168 0 304.5 -57t223 -157.5t122.5 -242.5t9 -307l-6 -45q-57 -368 -292 -567t-609 -199zM795 190q259 0 418 147.5t202 412.5q24 160 -22 287.5t-155.5 200.5t-264.5 73
q-259 0 -419 -147.5t-202 -413.5q-25 -160 21.5 -287.5t156.5 -200t265 -72.5z" />
    <glyph glyph-name="P" unicode="P" horiz-adv-x="1331" 
d="M330 0h-246l238 1505h487q163 0 284 -59.5t179 -172.5t35 -259l-7 -33q-39 -245 -210.5 -368.5t-442.5 -123.5h-239zM805 1290h-273l-92 -585h271q143 0 231.5 75.5t110.5 216.5q22 127 -48.5 210t-199.5 83z" />
    <glyph glyph-name="Q" unicode="Q" horiz-adv-x="1771" 
d="M1192 -436h-215q-76 0 -132.5 10.5t-103.5 36t-71 67.5t-34.5 105t5.5 149l6 37q-292 37 -444 245.5t-103 514.5l6 45q58 367 293 565.5t609 198.5q168 0 304.5 -57t223 -157.5t122.5 -242.5t9 -307l-6 -45q-52 -338 -256.5 -534.5t-530.5 -227.5l-10 -61
q-10 -64 21.5 -100.5t95.5 -36.5h244zM795 190q259 0 418 147.5t202 412.5q24 160 -22 287.5t-155.5 200.5t-264.5 73q-259 0 -419 -147.5t-202 -413.5q-25 -160 21.5 -287.5t156.5 -200t265 -72.5z" />
    <glyph glyph-name="R" unicode="R" horiz-adv-x="1456" 
d="M330 0h-246l238 1505h522q246 0 385 -131t106 -346l-6 -33q-51 -335 -362 -436l327 -559h-293l-294 520h-19h-276zM846 1292h-311l-91 -565h310q136 0 220.5 73.5t106.5 209.5q20 123 -45.5 202.5t-189.5 79.5z" />
    <glyph glyph-name="S" unicode="S" horiz-adv-x="1396" 
d="M571 -37q-170 0 -296.5 57t-189 168t-38.5 258h242q-20 -125 70 -195.5t245 -70.5q353 0 395 254q16 95 -57 145t-205 62l-145 14q-199 15 -307.5 129.5t-79.5 292.5q36 228 196.5 344.5t411.5 116.5q232 0 364 -131t99 -342h-244q18 115 -54 185.5t-200 70.5
q-136 0 -223.5 -61t-108.5 -183q-13 -86 43.5 -140t157.5 -63l148 -12q109 -9 197 -41.5t150 -85.5t89 -130t12 -171q-19 -123 -77 -214.5t-147 -147t-200.5 -82.5t-247.5 -27z" />
    <glyph glyph-name="T" unicode="T" horiz-adv-x="1232" 
d="M621 0h-246l203 1278h-443l35 217h1133l-35 -217h-445z" />
    <glyph glyph-name="U" unicode="U" horiz-adv-x="1523" 
d="M598 -37q-183 0 -314.5 81.5t-188.5 226t-29 327.5l143 897h246l-146 -917q-28 -169 64 -278.5t262 -109.5q185 0 300.5 101.5t143.5 286.5l146 917h245l-141 -897q-47 -304 -236.5 -469.5t-494.5 -165.5z" />
    <glyph glyph-name="V" unicode="V" horiz-adv-x="1472" 
d="M834 0h-412l-260 1495h254l211 -1284h73l588 1284h246z" />
    <glyph glyph-name="W" unicode="W" horiz-adv-x="2154" 
d="M727 0h-399l-154 1495h254l113 -1284h61l449 1225h284l95 -1225h59l487 1284h242l-590 -1495h-403l-88 1083z" />
    <glyph glyph-name="X" unicode="X" horiz-adv-x="1443" 
d="M174 0h-264l653 782l-370 713h276l270 -539h39l445 539h264l-610 -725l417 -770h-276l-316 596h-38z" />
    <glyph glyph-name="Y" unicode="Y" horiz-adv-x="1339" 
d="M684 0h-240l93 578h-74l-318 917h254l244 -731h94l451 731h239l-577 -917h-74z" />
    <glyph glyph-name="Z" unicode="Z" horiz-adv-x="1335" 
d="M1128 0h-1136l39 248l1020 1018l-17 26h-815l31 203h1100l-41 -248l-1018 -1016l16 -26h854z" />
    <glyph glyph-name="bracketleft" unicode="[" horiz-adv-x="782" 
d="M496 -373h-471l309 1962h471l-31 -194h-239l-248 -1573h239z" />
    <glyph glyph-name="backslash" unicode="\" horiz-adv-x="747" 
d="M571 -123h-233l-180 1720h231z" />
    <glyph glyph-name="bracketright" unicode="]" horiz-adv-x="782" 
d="M-84 -373l31 195h239l252 1573h-239l30 194h469l-311 -1962h-471z" />
    <glyph glyph-name="asciicircum" unicode="^" horiz-adv-x="1171" 
d="M326 635h-201l473 854h283l198 -854h-198l-142 680h-51z" />
    <glyph glyph-name="underscore" unicode="_" horiz-adv-x="1189" 
d="M1151 -297h-1188l27 180h1190z" />
    <glyph glyph-name="grave" unicode="`" 
d="M504 1253h-209l-164 414h260z" />
    <glyph glyph-name="a" unicode="a" horiz-adv-x="1198" 
d="M391 -29q-174 0 -271 99.5t-71 259.5q19 124 92.5 204.5t180 114t249.5 33.5h250l4 20q14 91 -36 150t-142 59q-186 0 -383 -14l33 207q169 14 326 14q216 0 339 -118t93 -310l-111 -690h-190l34 217q-112 -246 -397 -246zM479 152q117 0 192 60.5t103 172.5l23 139h-258
q-105 0 -172 -47t-80 -141q-13 -83 41 -133.5t151 -50.5z" />
    <glyph glyph-name="b" unicode="b" horiz-adv-x="1423" 
d="M694 -37q-148 0 -247.5 75.5t-133.5 205.5l-39 -244h-190l238 1495h239l-90 -567q149 211 426 211q152 0 258.5 -73.5t149.5 -202t18 -288.5l-6 -40q-42 -270 -202.5 -421t-420.5 -151zM684 170q167 0 266.5 102t128.5 283q27 164 -48.5 271.5t-225.5 107.5
q-165 0 -267 -90t-128 -254l-15 -88q-23 -146 58 -239t231 -93z" />
    <glyph glyph-name="c" unicode="c" horiz-adv-x="1245" 
d="M559 -37q-162 0 -277.5 72.5t-165.5 202.5t-24 294l6 37q42 272 209.5 422t435.5 150q213 0 336 -116.5t105 -313.5h-232q1 103 -64.5 161t-176.5 58q-160 0 -254 -101.5t-121 -277.5q-27 -162 42.5 -269.5t215.5 -107.5q256 0 319 225h234q-46 -217 -199 -326.5
t-389 -109.5z" />
    <glyph glyph-name="d" unicode="d" horiz-adv-x="1421" 
d="M537 -37q-236 0 -360.5 160.5t-84.5 406.5l6 39q42 270 200.5 420t418.5 150q125 0 213 -56.5t133 -158.5l90 571h240l-238 -1495h-190l34 219q-149 -256 -462 -256zM616 170q161 0 262.5 91t127.5 255l14 88q22 145 -58.5 237.5t-226.5 92.5q-169 0 -270 -101.5
t-131 -281.5q-25 -165 52 -273t230 -108z" />
    <glyph glyph-name="e" unicode="e" horiz-adv-x="1263" 
d="M561 -37q-245 0 -376 160.5t-93 408.5l6 39q43 270 208 420t429 150q236 0 361.5 -154.5t87.5 -392.5l-15 -96h-852q-8 -146 66.5 -239t210.5 -93q115 0 192 38t113 130h223q-132 -371 -561 -371zM702 938q-135 0 -223 -73t-131 -206h613q-2 125 -71 202t-188 77z" />
    <glyph glyph-name="f" unicode="f" horiz-adv-x="778" 
d="M311 0h-227l143 909h-145l29 178h145l8 56q29 179 148.5 271.5t308.5 92.5h137l-31 -190h-163q-69 0 -113 -38.5t-55 -107.5l-13 -84h328l-29 -178h-327z" />
    <glyph glyph-name="g" unicode="g" horiz-adv-x="1386" 
d="M438 -432q-150 0 -303 22l31 203q170 -24 307 -24q188 0 307 88.5t146 261.5l14 86q-142 -213 -422 -213q-152 0 -258 73t-149 200t-19 286l8 39q42 261 200 405t413 144q142 0 237 -71t133 -196l37 232h191l-156 -973q-42 -277 -230.5 -420t-486.5 -143zM610 205
q159 0 256.5 87.5t122.5 246.5l15 84q23 139 -55.5 228t-221.5 89q-163 0 -263 -98t-128 -271q-25 -160 50 -263t224 -103z" />
    <glyph glyph-name="h" unicode="h" horiz-adv-x="1318" 
d="M326 0h-242l238 1495h241l-92 -580q123 222 377 222h10q122 0 201.5 -68.5t106 -182.5t3.5 -257l-98 -629h-242l107 664q17 111 -40 183.5t-165 72.5q-128 0 -206 -75t-99 -208z" />
    <glyph glyph-name="i" unicode="i" horiz-adv-x="649" 
d="M387 1257q-72 0 -103 38t-22 102q9 63 52.5 101t115.5 38t103 -38t20 -101q-9 -64 -52 -102t-114 -38zM346 0h-240l148 920h-164l31 184h401l-28 -184z" />
    <glyph glyph-name="j" unicode="j" horiz-adv-x="663" 
d="M408 1270q-63 0 -97.5 39t-25.5 100q10 67 54 103t114 36q63 0 97.5 -39t24.5 -100q-10 -67 -54 -103t-113 -36zM-113 -418h-75l32 209h101q76 0 124 41.5t60 118.5l154 969h-168l30 184h398l-29 -184l-149 -947q-30 -190 -155 -290.5t-323 -100.5z" />
    <glyph glyph-name="k" unicode="k" horiz-adv-x="1247" 
d="M326 0h-242l238 1495h241l-147 -932l532 541h252l-467 -471l391 -633h-274l-309 514h-133z" />
    <glyph glyph-name="l" unicode="l" horiz-adv-x="606" 
d="M311 0h-241l209 1311h-146l29 184h387z" />
    <glyph glyph-name="m" unicode="m" horiz-adv-x="1992" 
d="M326 0h-240l174 1104h191l-41 -262q118 295 405 295h10q127 0 203.5 -73.5t99.5 -201.5q121 275 400 275h10q121 0 199 -68.5t104 -182t4 -257.5l-100 -629h-240l105 664q18 110 -34 183t-153 73q-119 0 -191 -70.5t-93 -196.5l-103 -653h-241l104 664q19 110 -32 183
t-152 73q-119 0 -192.5 -71t-92.5 -196z" />
    <glyph glyph-name="n" unicode="n" horiz-adv-x="1318" 
d="M326 0h-242l176 1104h191l-43 -270q125 303 430 303h10q124 0 206 -68t111 -181.5t6 -256.5l-100 -631h-242l107 664q17 111 -39.5 183.5t-163.5 72.5q-126 0 -204.5 -70t-98.5 -197z" />
    <glyph glyph-name="o" unicode="o" horiz-adv-x="1388" 
d="M598 -37q-260 0 -403 158.5t-105 408.5l8 41q44 275 223 422.5t463 147.5q171 0 295.5 -72.5t180.5 -202.5t30 -295l-6 -41q-42 -275 -221.5 -421t-464.5 -146zM631 172q174 0 281 99.5t135 279.5q27 166 -55 273.5t-240 107.5q-174 0 -281 -100.5t-135 -280.5
q-26 -164 56 -271.5t239 -107.5z" />
    <glyph glyph-name="p" unicode="p" horiz-adv-x="1488" 
d="M326 -410h-240l240 1514h190l-41 -264q146 299 481 299q154 0 262 -74.5t152 -203.5t19 -290l-7 -39q-42 -269 -199.5 -419t-414.5 -150q-123 0 -213 55t-137 152zM750 170q166 0 266 101.5t129 281.5q27 164 -49 272.5t-226 108.5q-165 0 -267 -90t-128 -254l-14 -88
q-23 -146 58 -239t231 -93z" />
    <glyph glyph-name="q" unicode="q" horiz-adv-x="1447" 
d="M1092 -410h-242l90 566q-147 -193 -412 -193q-155 0 -263.5 75t-153 205.5t-19.5 293.5l6 38q42 267 204 415.5t423 148.5q145 0 243 -74t134 -203l39 242h190zM616 176q163 0 264 91t126 255l14 88q23 144 -56.5 237t-226.5 93q-168 0 -270.5 -102t-130.5 -281
q-27 -165 50.5 -273t229.5 -108z" />
    <glyph glyph-name="r" unicode="r" horiz-adv-x="845" 
d="M326 0h-242l176 1104h191l-58 -356q51 175 168 271.5t297 96.5h39l-35 -211h-74q-153 0 -249 -83t-121 -236z" />
    <glyph glyph-name="s" unicode="s" horiz-adv-x="1112" 
d="M461 -33q-98 0 -179.5 23.5t-138.5 67.5t-84 112t-16 152h219q-7 -83 57.5 -123.5t174.5 -40.5q56 0 99 7t81 23.5t61.5 48.5t30.5 78q10 67 -42 101.5t-146 44.5l-107 10q-162 18 -251 102t-68 220q28 176 157 260t332 84q187 0 296 -91t89 -251h-219q6 73 -49.5 111
t-149.5 38q-212 0 -233 -145q-10 -58 32.5 -90.5t120.5 -42.5l107 -11q178 -20 277 -105t75 -228q-15 -94 -60.5 -163.5t-116 -111t-157 -61t-192.5 -19.5z" />
    <glyph glyph-name="t" unicode="t" horiz-adv-x="878" 
d="M680 -12h-166q-185 0 -286 114t-72 293l84 531h-183l27 178h184l51 321h228l-51 -321h358l-27 -178h-360l-86 -551q-12 -77 29.5 -127.5t119.5 -50.5h183z" />
    <glyph glyph-name="u" unicode="u" horiz-adv-x="1298" 
d="M471 -33h-10q-123 0 -205 66.5t-112 179t-7 252.5l101 639h241l-106 -672q-17 -107 37 -177.5t157 -70.5q123 0 198.5 69.5t96.5 195.5l103 655h241l-174 -1104h-190l41 262q-118 -295 -412 -295z" />
    <glyph glyph-name="v" unicode="v" horiz-adv-x="1171" 
d="M709 0h-394l-184 1104h248l143 -909h47l394 909h233z" />
    <glyph glyph-name="w" unicode="w" horiz-adv-x="1787" 
d="M623 0h-357l-131 1104h232l100 -909h41l315 872h297l68 -872h41l356 909h219l-442 -1104h-356l-70 856z" />
    <glyph glyph-name="x" unicode="x" horiz-adv-x="1175" 
d="M205 0h-246l447 557l-256 547h264l178 -402h31l295 402h245l-403 -531l297 -573h-264l-218 432h-28z" />
    <glyph glyph-name="y" unicode="y" horiz-adv-x="1136" 
d="M131 -432h-164l33 211h182q181 0 256 170l33 76h-149l-207 1079h243l154 -885h45l385 885h234l-539 -1213q-145 -323 -506 -323z" />
    <glyph glyph-name="z" unicode="z" horiz-adv-x="1009" 
d="M854 0h-836l35 223l664 670l-10 22h-549l28 189h813l-34 -223l-668 -672l10 -21h576z" />
    <glyph glyph-name="braceleft" unicode="{" horiz-adv-x="782" 
d="M510 -373h-47q-184 0 -275 100.5t-61 290.5l57 355q9 62 -24.5 95.5t-100.5 33.5l35 221q67 0 111 33.5t53 95.5l57 348q30 189 151.5 289t305.5 100h47l-31 -194h-47q-165 0 -196 -191l-56 -342q-17 -111 -75.5 -169t-159.5 -70l-4 -21q98 -11 138.5 -68.5t23.5 -168.5
l-56 -353q-30 -190 138 -190h47z" />
    <glyph glyph-name="bar" unicode="|" horiz-adv-x="768" 
d="M305 -410h-211l303 1905h209z" />
    <glyph glyph-name="braceright" unicode="}" horiz-adv-x="782" 
d="M-98 -373l30 195h48q168 0 198 190l55 353q36 216 238 237l2 21q-196 25 -160 239l54 342q28 191 -138 191h-47l31 194h47q184 0 274.5 -100.5t61.5 -288.5l-55 -348q-10 -62 23 -95.5t100 -33.5l-35 -221q-67 0 -110.5 -33.5t-53.5 -95.5l-55 -355q-30 -189 -153.5 -290
t-307.5 -101h-47z" />
    <glyph glyph-name="asciitilde" unicode="~" horiz-adv-x="1046" 
d="M733 473q-54 0 -102 19t-82 46t-64.5 54t-64 46t-66.5 19q-95 0 -143 -137l-154 -2q33 151 129.5 238.5t200.5 87.5q54 0 102 -19.5t82 -47t65 -54.5t65 -46.5t67 -19.5q95 0 143 138h154q-33 -151 -129.5 -236.5t-202.5 -85.5z" />
    <glyph glyph-name="nbspace" unicode="&#xa0;" horiz-adv-x="454" 
 />
    <glyph glyph-name="exclamdown" unicode="&#xa1;" horiz-adv-x="620" 
d="M510 1104l-43 -277h-287l43 277h287zM416 637l-162 -1028h-246l162 1028h246z" />
    <glyph glyph-name="cent" unicode="&#xa2;" horiz-adv-x="1253" 
d="M639 0h-207l35 213q-198 31 -301.5 172t-71.5 346l8 41q35 230 174 363.5t361 158.5l33 197h207l-33 -199q163 -25 256 -129t86 -266h-230q1 98 -67 149.5t-180 51.5q-157 0 -253.5 -91t-121.5 -255q-25 -149 49 -246.5t215 -97.5q267 0 326 208h229
q-45 -183 -167.5 -283.5t-311.5 -121.5z" />
    <glyph glyph-name="sterling" unicode="&#xa3;" horiz-adv-x="1286" 
d="M1096 0h-1129l31 188h156l71 457h-143l27 164h143l31 197q39 246 203 376.5t423 130.5q179 0 330 -20l-33 -201q-181 21 -332 21q-156 0 -253.5 -84t-122.5 -238l-29 -182h508l-27 -164h-508l-71 -457h561l31 189h194z" />
    <glyph glyph-name="currency" unicode="&#xa4;" horiz-adv-x="1376" 
d="M629 291q-154 0 -264 71l-224 -190l-118 141l223 193q-45 103 -25 229l4 33q20 136 90 238l-153 182l164 143l153 -182q124 65 295 65q157 0 266 -73l220 190l118 -143l-221 -191q45 -103 25 -229l-4 -33q-20 -135 -93 -237l156 -185l-164 -141l-155 182
q-120 -63 -293 -63zM659 483q129 0 209.5 70t100.5 199q19 117 -44.5 193.5t-181.5 76.5q-129 0 -209 -70.5t-100 -199.5q-19 -117 44 -193t181 -76z" />
    <glyph glyph-name="yen" unicode="&#xa5;" horiz-adv-x="1306" 
d="M664 0h-226l49 313h-436l25 146h434l27 166h-437l25 145h291l-258 725h252l237 -698h68l432 698h239l-464 -725h297l-25 -145h-432l-27 -166h434l-24 -146h-432z" />
    <glyph glyph-name="brokenbar" unicode="&#xa6;" horiz-adv-x="768" 
d="M481 700h-211l127 795h209zM305 -410h-209l123 779h209z" />
    <glyph glyph-name="section" unicode="&#xa7;" horiz-adv-x="1206" 
d="M428 -182q-221 0 -330.5 95.5t-87.5 268.5h221q-7 -76 48.5 -125t179.5 -49q101 0 165 42t76 114q4 29 -8.5 54t-31 41.5t-58.5 35.5t-68 29t-83 28q-73 23 -115 38.5t-102.5 47.5t-91 66.5t-49 88.5t-7.5 120q17 109 89 190.5t179 126.5q-132 91 -108 258
q25 148 154.5 244t308.5 96q193 0 293.5 -88.5t80.5 -245.5h-217q6 67 -40 105.5t-144 38.5q-94 0 -148.5 -41t-64.5 -105q-4 -24 2 -45.5t15 -37t32 -31t39.5 -25t52 -22.5t54.5 -18.5t61 -18.5q76 -23 116.5 -37t102.5 -46t91.5 -66.5t48.5 -91t8 -126.5
q-34 -206 -252 -311q105 -85 84 -223q-28 -171 -160 -273t-336 -102zM580 530q13 -4 39.5 -13t39.5 -13q92 33 144 86.5t63 120.5q4 28 -1.5 52t-25 43.5t-37.5 33t-55.5 29t-61 24t-70.5 24.5l-9 3q-12 4 -38 12t-38 12q-85 -25 -147 -79t-72 -117q-4 -30 2.5 -55.5
t27 -46.5t41 -36t59 -30.5t65.5 -25t74 -24.5z" />
    <glyph glyph-name="dieresis" unicode="&#xa8;" 
d="M225 1311q-71 0 -100.5 37t-20.5 100q9 62 51 99.5t113 37.5q69 0 99.5 -38t21.5 -99q-9 -63 -51 -100t-113 -37zM645 1311q-71 0 -100.5 37t-20.5 100q9 62 51 99.5t113 37.5q69 0 99.5 -38t21.5 -99q-9 -63 -51 -100t-113 -37z" />
    <glyph glyph-name="copyright" unicode="&#xa9;" horiz-adv-x="1472" 
d="M651 233q-184 0 -316.5 80.5t-191 225t-30.5 327.5l6 37q47 301 239.5 465t499.5 164q184 0 317 -80.5t191.5 -224t30.5 -324.5l-6 -37q-47 -304 -239.5 -468.5t-500.5 -164.5zM670 344q251 0 405.5 141.5t194.5 397.5q37 233 -83 385.5t-347 152.5q-250 0 -405 -141.5
t-197 -396.5q-24 -154 21.5 -277t153 -192.5t257.5 -69.5zM705 504q-154 0 -235 102t-56 260l4 27q26 172 131 267t274 95q135 0 213 -75t66 -201h-158q1 62 -37.5 97.5t-103.5 35.5q-180 0 -219 -231q-16 -100 22.5 -167t122.5 -67q153 0 191 141h157q-29 -140 -125.5 -212
t-246.5 -72z" />
    <glyph glyph-name="ordfeminine" unicode="&#xaa;" horiz-adv-x="856" 
d="M326 702q-119 0 -182.5 65.5t-45.5 178.5q18 120 118 181t255 61h137v4q19 121 -98 121q-83 0 -274 -13l28 185q117 10 248 10q182 0 255 -78.5t50 -224.5l-74 -469h-174l23 139q-78 -160 -266 -160zM418 854q130 0 157 135l13 78h-135q-58 0 -94 -29.5t-44 -79.5
q-8 -48 19.5 -76t83.5 -28z" />
    <glyph glyph-name="guillemotleft" unicode="&#xab;" horiz-adv-x="1183" 
d="M526 80h-256l-204 403l14 90l346 416h244l-351 -430l-6 -47zM1024 80h-258l-203 403l15 90l344 416h245l-350 -430l-8 -47z" />
    <glyph glyph-name="logicalnot" unicode="&#xac;" horiz-adv-x="1261" 
d="M1112 178l-190 -2l61 377h-825l30 192h1014z" />
    <glyph glyph-name="softhyphen" unicode="&#xad;" horiz-adv-x="884" 
d="M797 469h-668l33 209h667z" />
    <glyph glyph-name="registered" unicode="&#xae;" horiz-adv-x="1388" 
d="M631 369q-167 0 -289 72t-176.5 201.5t-28.5 293.5l6 33q43 272 217.5 417.5t454.5 145.5q255 0 394.5 -158t101.5 -405l-6 -33q-43 -273 -218.5 -420t-455.5 -147zM649 475q226 0 367 124t176 351q34 207 -77 341t-316 134q-226 0 -367 -124t-178 -351
q-32 -208 78.5 -341.5t316.5 -133.5zM578 645h-134l101 635h225q113 0 179.5 -60t49.5 -157q-23 -151 -161 -197l135 -221h-152l-119 201h-94zM764 1163h-105l-32 -202h106q116 0 131 102q7 44 -21 72t-79 28z" />
    <glyph glyph-name="macron" unicode="&#xaf;" 
d="M705 1352h-611l27 170h610z" />
    <glyph glyph-name="degree" unicode="&#xb0;" horiz-adv-x="794" 
d="M410 821q-151 0 -233.5 94.5t-59.5 243.5q26 161 130.5 248.5t268.5 87.5q151 0 233.5 -94.5t57.5 -241.5q-26 -163 -129.5 -250.5t-267.5 -87.5zM434 983q83 0 134 46t65 130q12 75 -28.5 124.5t-115.5 49.5q-82 0 -133 -45.5t-63 -128.5q-12 -77 27 -126.5t114 -49.5z
" />
    <glyph glyph-name="plusminus" unicode="&#xb1;" horiz-adv-x="1249" 
d="M684 418l-197 -2l58 364h-379l29 187h378l58 360l198 2l-57 -362h377l-29 -187h-379zM1014 109h-955l29 186h954z" />
    <glyph glyph-name="twosuperior" unicode="&#xb2;" horiz-adv-x="778" 
d="M674 860h-611l27 162q11 77 61 128.5t156 92.5l150 60q57 21 88.5 52t40.5 81q8 51 -22.5 83.5t-92.5 32.5q-59 0 -98.5 -33t-48.5 -89h-181q19 124 113.5 200t239.5 76t216 -72.5t52 -187.5l-2 -14q-14 -92 -74.5 -155t-185.5 -112l-148 -57q-41 -14 -61 -30.5
t-23 -41.5l-4 -18h434z" />
    <glyph glyph-name="threesuperior" unicode="&#xb3;" horiz-adv-x="778" 
d="M354 840q-146 0 -222 75t-56 193h180q-9 -52 23.5 -83.5t99.5 -31.5q65 0 109.5 35t52.5 88q8 55 -24.5 89t-98.5 34q-59 0 -113 -37l-65 139l288 164l-8 17h-344l27 161h579l-24 -159l-273 -156q127 -9 191 -76.5t47 -175.5l-2 -12q-19 -117 -118.5 -190.5t-248.5 -73.5
z" />
    <glyph glyph-name="acute" unicode="&#xb4;" 
d="M268 1253h-200l245 414h250z" />
    <glyph glyph-name="micro" unicode="&#xb5;" horiz-adv-x="1376" 
d="M229 -410h-231l240 1514h241l-106 -672q-19 -115 33.5 -181.5t160.5 -66.5q113 0 194 72t101 193l103 655h241l-131 -819q-12 -78 66 -78h110l-32 -207h-111q-242 0 -256 195q-125 -228 -371 -228h-10q-119 0 -195 70q4 -120 -8 -199z" />
    <glyph glyph-name="paragraph" unicode="&#xb6;" horiz-adv-x="1302" 
d="M625 0h-213l127 801h-119q-192 0 -277.5 90.5t-60.5 249.5l2 22q25 159 139.5 249.5t306.5 90.5h332zM985 0h-209l238 1503h209z" />
    <glyph glyph-name="periodcentered" unicode="&#xb7;" horiz-adv-x="544" 
d="M455 422h-279l47 289h279z" />
    <glyph glyph-name="cedilla" unicode="&#xb8;" 
d="M162 -514q-84 0 -146 20l25 154q78 -20 141 -20q60 0 94 18.5t39 50.5q5 30 -17.5 47t-74.5 17h-88l41 250h146l-19 -121q97 -11 144 -60.5t34 -132.5q-15 -97 -101.5 -160t-217.5 -63z" />
    <glyph glyph-name="onesuperior" unicode="&#xb9;" horiz-adv-x="538" 
d="M389 860h-186l104 660h-168l27 163h354z" />
    <glyph glyph-name="ordmasculine" unicode="&#xba;" horiz-adv-x="948" 
d="M465 694q-123 0 -207 54.5t-116.5 142.5t-14.5 194l4 31q25 166 154.5 280.5t308.5 114.5q180 0 272.5 -114t65.5 -281l-4 -31q-26 -164 -152.5 -277.5t-310.5 -113.5zM494 879q88 0 145.5 62.5t71.5 158.5q15 100 -23 162.5t-123 62.5q-86 0 -145 -63t-74 -162
q-16 -98 22 -159.5t126 -61.5z" />
    <glyph glyph-name="guillemotright" unicode="&#xbb;" horiz-adv-x="1183" 
d="M670 989h256l204 -403l-16 -90l-344 -416h-244l348 432l9 47zM172 989h258l203 -403l-15 -90l-344 -416h-245l350 432l8 47z" />
    <glyph glyph-name="onequarter" unicode="&#xbc;" horiz-adv-x="1705" 
d="M358 -45h-186l1014 1438h186zM389 522h-186l104 660h-168l27 164h354zM1456 0h-174l25 156h-451l29 188l413 508l132 -90l-355 -434l12 -23h242l45 287h174l-45 -287h99l-25 -149h-96z" />
    <glyph glyph-name="onehalf" unicode="&#xbd;" horiz-adv-x="1765" 
d="M358 -45h-186l1014 1438h186zM389 522h-186l104 660h-168l27 164h354zM1579 0h-610l26 162q12 77 62 128.5t155 92.5l150 59q57 21 88.5 52t40.5 81q8 51 -23 84t-92 33q-59 0 -98.5 -33.5t-48.5 -89.5h-180q19 124 114 200.5t240 76.5q143 0 214.5 -72.5t53.5 -187.5
l-2 -15q-15 -92 -75.5 -154.5t-186.5 -111.5l-147 -57q-41 -14 -61 -30.5t-23 -41.5l-5 -18h435z" />
    <glyph glyph-name="threequarters" unicode="&#xbe;" horiz-adv-x="1912" 
d="M567 -45h-186l1012 1438h188zM354 502q-146 0 -222 75t-56 193h180q-9 -52 23.5 -83.5t99.5 -31.5q65 0 109.5 35t52.5 88q8 55 -24.5 89t-98.5 34q-59 0 -113 -37l-65 140l288 163l-8 17h-344l27 162h579l-24 -160l-273 -156q127 -9 191 -76.5t47 -175.5l-2 -12
q-19 -117 -118.5 -190.5t-248.5 -73.5zM1663 0h-172l25 156h-453l31 188l413 508l129 -90l-354 -434l14 -23h242l45 287h174l-45 -287h98l-24 -149h-98z" />
    <glyph glyph-name="questiondown" unicode="&#xbf;" horiz-adv-x="1138" 
d="M600 1104h283l-43 -277h-283zM549 639h239l-61 -373h-158q-124 0 -203 -63.5t-96 -182.5q-17 -107 41.5 -176t167.5 -69q127 0 207 67.5t100 192.5h232q-36 -228 -186.5 -348.5t-389.5 -120.5q-206 0 -321.5 122t-83.5 314l4 25q30 191 153.5 296.5t321.5 127.5z" />
    <glyph glyph-name="Agrave" unicode="&#xc0;" horiz-adv-x="1566" 
d="M991 1612h-229l-234 346h275zM174 0h-246l762 1495h408l303 -1495h-254l-84 422h-676zM494 635h528l-127 649h-76z" />
    <glyph glyph-name="Aacute" unicode="&#xc1;" horiz-adv-x="1566" 
d="M961 1612h-224l314 346h270zM174 0h-246l762 1495h408l303 -1495h-254l-84 422h-676zM494 635h528l-127 649h-76z" />
    <glyph glyph-name="Acircumflex" unicode="&#xc2;" horiz-adv-x="1566" 
d="M686 1612h-215l317 346h287l213 -346h-221l-139 229h-33zM174 0h-246l762 1495h408l303 -1495h-254l-84 422h-676zM494 635h528l-127 649h-76z" />
    <glyph glyph-name="Atilde" unicode="&#xc3;" horiz-adv-x="1566" 
d="M1059 1645q-53 0 -97.5 15.5t-70.5 34.5t-64.5 34.5t-81.5 15.5q-109 0 -188 -82l-16 158q93 100 235 100q53 0 98 -15.5t71 -34.5t65 -34.5t82 -15.5q53 0 103.5 22.5t86.5 61.5l16 -160q-43 -44 -105 -72t-134 -28zM174 0h-246l762 1495h408l303 -1495h-254l-84 422
h-676zM494 635h528l-127 649h-76z" />
    <glyph glyph-name="Adieresis" unicode="&#xc4;" horiz-adv-x="1566" 
d="M664 1653q-72 0 -105 38t-24 101q11 63 55.5 101t116.5 38t104 -38t23 -101t-53.5 -101t-116.5 -38zM1106 1653q-72 0 -105 38t-24 101q11 63 55.5 101t116.5 38t104 -38t23 -101t-53.5 -101t-116.5 -38zM174 0h-246l762 1495h408l303 -1495h-254l-84 422h-676zM494 635
h528l-127 649h-76z" />
    <glyph glyph-name="Aring" unicode="&#xc5;" horiz-adv-x="1566" 
d="M864 1569q-113 0 -172.5 64t-44.5 161q15 96 95 159.5t192 63.5q113 0 172 -63.5t45 -159.5q-15 -97 -94.5 -161t-192.5 -64zM883 1690q54 0 89.5 29t43.5 75q6 45 -20.5 73.5t-80.5 28.5t-89.5 -28.5t-43.5 -73.5q-6 -46 20.5 -75t80.5 -29zM174 0h-246l762 1495h408
l303 -1495h-254l-84 422h-676zM494 635h528l-127 649h-76z" />
    <glyph glyph-name="AE" unicode="&#xc6;" horiz-adv-x="1998" 
d="M141 0h-245l829 1495h1251l-32 -213h-641l-66 -416h602l-33 -213h-602l-69 -440h657l-33 -213h-901l74 471h-531zM520 686h447l94 598h-211z" />
    <glyph glyph-name="Ccedilla" unicode="&#xc7;" horiz-adv-x="1632" 
d="M754 -37q-219 0 -376.5 98.5t-226.5 273t-34 394.5l6 45q59 364 283 564t583 200q280 0 445 -154.5t153 -418.5h-248q1 163 -104.5 254.5t-280.5 91.5q-246 0 -394 -149t-189 -412q-25 -159 17.5 -286t146.5 -200.5t253 -73.5q398 0 508 345h250q-70 -242 -227 -382.5
t-391 -177.5l-10 -73q97 -12 146 -63t36 -134q-15 -99 -106.5 -165t-227.5 -66q-92 0 -154 20l25 164q75 -23 149 -23q64 0 102 19t44 51q5 28 -22 45t-81 17h-92l31 196h-14z" />
    <glyph glyph-name="Egrave" unicode="&#xc8;" horiz-adv-x="1224" 
d="M924 1612h-228l-235 346h274zM1104 0h-903l237 1495h885l-33 -213h-643l-65 -416h602l-35 -213h-600l-70 -440h660z" />
    <glyph glyph-name="Eacute" unicode="&#xc9;" horiz-adv-x="1224" 
d="M838 1612h-224l314 346h270zM1104 0h-903l237 1495h885l-33 -213h-643l-65 -416h602l-35 -213h-600l-70 -440h660z" />
    <glyph glyph-name="Ecircumflex" unicode="&#xca;" horiz-adv-x="1224" 
d="M696 1612h-215l318 346h286l213 -346h-221l-139 229h-33zM1104 0h-903l237 1495h885l-33 -213h-643l-65 -416h602l-35 -213h-600l-70 -440h660z" />
    <glyph glyph-name="Edieresis" unicode="&#xcb;" horiz-adv-x="1224" 
d="M674 1653q-72 0 -104 38t-23 101q11 63 55.5 101t116.5 38t104 -38t23 -101t-54.5 -101t-117.5 -38zM1116 1653q-72 0 -104 38t-23 101q11 63 55.5 101t116.5 38t104 -38t23 -101t-54.5 -101t-117.5 -38zM1104 0h-903l237 1495h885l-33 -213h-643l-65 -416h602l-35 -213
h-600l-70 -440h660z" />
    <glyph glyph-name="Igrave" unicode="&#xcc;" horiz-adv-x="655" 
d="M545 1612h-230l-233 346h274zM332 0h-246l238 1495h245z" />
    <glyph glyph-name="Iacute" unicode="&#xcd;" horiz-adv-x="655" 
d="M514 1612h-223l313 346h270zM332 0h-246l238 1495h245z" />
    <glyph glyph-name="Icircumflex" unicode="&#xce;" horiz-adv-x="655" 
d="M242 1612h-217l317 346h289l211 -346h-221l-138 229h-34zM332 0h-246l238 1495h245z" />
    <glyph glyph-name="Idieresis" unicode="&#xcf;" horiz-adv-x="655" 
d="M215 1653q-72 0 -104 38t-23 101q11 63 55.5 101t116.5 38t104 -38t23 -101t-54.5 -101t-117.5 -38zM657 1653q-72 0 -104 38t-23 101q11 63 55.5 101t116.5 38t104 -38t23 -101t-54.5 -101t-117.5 -38zM332 0h-246l238 1495h245z" />
    <glyph glyph-name="Eth" unicode="&#xd0;" horiz-adv-x="1613" 
d="M608 -8h-526l104 655h-110l33 201h108l105 657h526q171 0 310.5 -53.5t231.5 -148.5t131.5 -232.5t14.5 -298.5l-8 -45q-37 -239 -160.5 -405t-316 -248t-443.5 -82zM840 647h-408l-67 -428h299q256 0 417 138.5t201 392.5q37 231 -90 379.5t-361 148.5h-301l-67 -430
h409z" />
    <glyph glyph-name="Ntilde" unicode="&#xd1;" horiz-adv-x="1757" 
d="M1198 1645q-53 0 -97.5 15.5t-71 34.5t-65 34.5t-81.5 15.5q-110 0 -189 -82l-14 158q40 44 100.5 72t134.5 28q53 0 97.5 -15.5t70.5 -34.5t64.5 -34.5t81.5 -15.5q113 0 190 84l17 -160q-43 -44 -105 -72t-133 -28zM311 0h-229l237 1495h402l491 -1284h27l203 1284h233
l-237 -1495h-406l-491 1284h-25z" />
    <glyph glyph-name="Ograve" unicode="&#xd2;" horiz-adv-x="1771" 
d="M1102 1612h-228l-235 346h274zM760 -37q-168 0 -304.5 57t-223.5 157.5t-123 243t-9 308.5l6 45q58 367 293 565.5t609 198.5q168 0 304.5 -57t223 -157.5t122.5 -242.5t9 -307l-6 -45q-57 -368 -292 -567t-609 -199zM795 190q259 0 418 147.5t202 412.5
q24 160 -22 287.5t-155.5 200.5t-264.5 73q-259 0 -419 -147.5t-202 -413.5q-25 -160 21.5 -287.5t156.5 -200t265 -72.5z" />
    <glyph glyph-name="Oacute" unicode="&#xd3;" horiz-adv-x="1771" 
d="M1073 1612h-225l313 346h271zM760 -37q-168 0 -304.5 57t-223.5 157.5t-123 243t-9 308.5l6 45q58 367 293 565.5t609 198.5q168 0 304.5 -57t223 -157.5t122.5 -242.5t9 -307l-6 -45q-57 -368 -292 -567t-609 -199zM795 190q259 0 418 147.5t202 412.5q24 160 -22 287.5
t-155.5 200.5t-264.5 73q-259 0 -419 -147.5t-202 -413.5q-25 -160 21.5 -287.5t156.5 -200t265 -72.5z" />
    <glyph glyph-name="Ocircumflex" unicode="&#xd4;" horiz-adv-x="1771" 
d="M799 1612h-217l317 346h289l213 -346h-223l-138 229h-34zM760 -37q-168 0 -304.5 57t-223.5 157.5t-123 243t-9 308.5l6 45q58 367 293 565.5t609 198.5q168 0 304.5 -57t223 -157.5t122.5 -242.5t9 -307l-6 -45q-57 -368 -292 -567t-609 -199zM795 190q259 0 418 147.5
t202 412.5q24 160 -22 287.5t-155.5 200.5t-264.5 73q-259 0 -419 -147.5t-202 -413.5q-25 -160 21.5 -287.5t156.5 -200t265 -72.5z" />
    <glyph glyph-name="Otilde" unicode="&#xd5;" horiz-adv-x="1771" 
d="M1171 1645q-53 0 -97.5 15.5t-70.5 34.5t-64.5 34.5t-80.5 15.5q-111 0 -190 -82l-15 158q39 44 101 72t135 28q53 0 97.5 -15.5t70.5 -34.5t64.5 -34.5t80.5 -15.5q55 0 106 22.5t85 61.5l16 -160q-43 -44 -105 -72t-133 -28zM760 -37q-168 0 -304.5 57t-223.5 157.5
t-123 243t-9 308.5l6 45q58 367 293 565.5t609 198.5q168 0 304.5 -57t223 -157.5t122.5 -242.5t9 -307l-6 -45q-57 -368 -292 -567t-609 -199zM795 190q259 0 418 147.5t202 412.5q24 160 -22 287.5t-155.5 200.5t-264.5 73q-259 0 -419 -147.5t-202 -413.5
q-25 -160 21.5 -287.5t156.5 -200t265 -72.5z" />
    <glyph glyph-name="Odieresis" unicode="&#xd6;" horiz-adv-x="1771" 
d="M774 1653q-72 0 -104 38t-23 101t54.5 101t117.5 38t104 -38t21 -101q-9 -63 -53.5 -101t-116.5 -38zM1217 1653q-72 0 -104 38t-23 101t54.5 101t117.5 38t103.5 -38t20.5 -101q-9 -63 -53 -101t-116 -38zM760 -37q-168 0 -304.5 57t-223.5 157.5t-123 243t-9 308.5
l6 45q58 367 293 565.5t609 198.5q168 0 304.5 -57t223 -157.5t122.5 -242.5t9 -307l-6 -45q-57 -368 -292 -567t-609 -199zM795 190q259 0 418 147.5t202 412.5q24 160 -22 287.5t-155.5 200.5t-264.5 73q-259 0 -419 -147.5t-202 -413.5q-25 -160 21.5 -287.5t156.5 -200
t265 -72.5z" />
    <glyph glyph-name="multiply" unicode="&#xd7;" horiz-adv-x="1212" 
d="M86 358l399 344l-290 345l163 141l291 -344l400 344l112 -133l-399 -344l291 -344l-164 -142l-291 344l-399 -344z" />
    <glyph glyph-name="Oslash" unicode="&#xd8;" horiz-adv-x="1843" 
d="M307 -115h-217l219 258q-106 104 -149.5 254.5t-16.5 331.5l7 45q58 366 293.5 565t609.5 199q205 0 364 -86l117 139h217l-201 -237q105 -103 148 -252.5t14 -327.5l-6 -45q-58 -369 -293 -567.5t-610 -198.5q-206 0 -361 82zM397 750q-20 -120 2.5 -223.5t81.5 -178.5
l768 907q-106 56 -233 56q-259 0 -419 -147.5t-200 -413.5zM840 190q258 0 417 147.5t201 412.5q38 241 -82 399l-766 -907q99 -52 230 -52z" />
    <glyph glyph-name="Ugrave" unicode="&#xd9;" horiz-adv-x="1607" 
d="M1020 1612h-227l-236 346h274zM598 -37q-183 0 -314.5 81.5t-188.5 226t-29 327.5l143 897h246l-146 -917q-28 -169 64 -278.5t262 -109.5q185 0 300.5 101.5t143.5 286.5l146 917h245l-141 -897q-47 -304 -236.5 -469.5t-494.5 -165.5z" />
    <glyph glyph-name="Uacute" unicode="&#xda;" horiz-adv-x="1607" 
d="M991 1612h-225l313 346h271zM598 -37q-183 0 -314.5 81.5t-188.5 226t-29 327.5l143 897h246l-146 -917q-28 -169 64 -278.5t262 -109.5q185 0 300.5 101.5t143.5 286.5l146 917h245l-141 -897q-47 -304 -236.5 -469.5t-494.5 -165.5z" />
    <glyph glyph-name="Ucircumflex" unicode="&#xdb;" horiz-adv-x="1607" 
d="M717 1612h-217l317 346h289l213 -346h-223l-138 229h-34zM598 -37q-183 0 -314.5 81.5t-188.5 226t-29 327.5l143 897h246l-146 -917q-28 -169 64 -278.5t262 -109.5q185 0 300.5 101.5t143.5 286.5l146 917h245l-141 -897q-47 -304 -236.5 -469.5t-494.5 -165.5z" />
    <glyph glyph-name="Udieresis" unicode="&#xdc;" horiz-adv-x="1607" 
d="M692 1653q-72 0 -104 38t-23 101t54.5 101t117.5 38t104 -38t21 -101q-9 -63 -53.5 -101t-116.5 -38zM1135 1653q-72 0 -104 38t-23 101t54.5 101t117.5 38t104 -38t21 -101q-9 -63 -53.5 -101t-116.5 -38zM598 -37q-183 0 -314.5 81.5t-188.5 226t-29 327.5l143 897h246
l-146 -917q-28 -169 64 -278.5t262 -109.5q185 0 300.5 101.5t143.5 286.5l146 917h245l-141 -897q-47 -304 -236.5 -469.5t-494.5 -165.5z" />
    <glyph glyph-name="Yacute" unicode="&#xdd;" horiz-adv-x="1339" 
d="M854 1612h-225l313 346h270zM684 0h-240l93 578h-74l-318 917h254l244 -731h94l451 731h239l-577 -917h-74z" />
    <glyph glyph-name="Thorn" unicode="&#xde;" horiz-adv-x="1257" 
d="M328 0h-246l237 1495h246l-39 -244h230q156 0 272 -58.5t171.5 -167.5t33.5 -251l-6 -29q-37 -237 -202.5 -357t-424.5 -120h-229zM745 1038h-251l-88 -553h251q134 0 218 71.5t104 203.5q20 121 -46 199.5t-188 78.5z" />
    <glyph glyph-name="germandbls" unicode="&#xdf;" horiz-adv-x="1310" 
d="M616 -25q-98 0 -190 21l33 201q99 -21 178 -21q126 0 205 63t98 183q20 128 -54 208.5t-208 80.5h-84l31 184h51q98 0 158 56t75 157q15 94 -32.5 155.5t-137.5 61.5q-115 0 -181 -74t-87 -204l-164 -1047h-241l141 889h-123l29 184h125q45 214 179.5 333.5t348.5 119.5
h8q126 0 218.5 -50.5t135.5 -143t25 -210.5q-36 -227 -235 -311q142 -46 213.5 -150.5t48.5 -252.5q-35 -214 -183 -323.5t-381 -109.5z" />
    <glyph glyph-name="agrave" unicode="&#xe0;" horiz-adv-x="1189" 
d="M770 1253h-211l-162 414h258zM391 -29q-174 0 -271 99.5t-71 259.5q19 124 92.5 204.5t180 114t249.5 33.5h250l4 20q14 91 -36 150t-142 59q-186 0 -383 -14l33 207q169 14 326 14q216 0 339 -118t93 -310l-111 -690h-190l34 217q-112 -246 -397 -246zM479 152
q117 0 192 60.5t103 172.5l23 139h-258q-105 0 -172 -47t-80 -141q-13 -83 41 -133.5t151 -50.5z" />
    <glyph glyph-name="aacute" unicode="&#xe1;" horiz-adv-x="1189" 
d="M727 1253h-201l246 414h250zM391 -29q-174 0 -271 99.5t-71 259.5q19 124 92.5 204.5t180 114t249.5 33.5h250l4 20q14 91 -36 150t-142 59q-186 0 -383 -14l33 207q169 14 326 14q216 0 339 -118t93 -310l-111 -690h-190l34 217q-112 -246 -397 -246zM479 152
q117 0 192 60.5t103 172.5l23 139h-258q-105 0 -172 -47t-80 -141q-13 -83 41 -133.5t151 -50.5z" />
    <glyph glyph-name="acircumflex" unicode="&#xe2;" horiz-adv-x="1189" 
d="M483 1253h-196l284 414h281l154 -414h-199l-105 297h-18zM391 -29q-174 0 -271 99.5t-71 259.5q19 124 92.5 204.5t180 114t249.5 33.5h250l4 20q14 91 -36 150t-142 59q-186 0 -383 -14l33 207q169 14 326 14q216 0 339 -118t93 -310l-111 -690h-190l34 217
q-112 -246 -397 -246zM479 152q117 0 192 60.5t103 172.5l23 139h-258q-105 0 -172 -47t-80 -141q-13 -83 41 -133.5t151 -50.5z" />
    <glyph glyph-name="atilde" unicode="&#xe3;" horiz-adv-x="1189" 
d="M807 1300q-49 0 -90 16.5t-64.5 36t-58.5 36t-72 16.5q-84 0 -162 -78l-12 162q92 92 207 92q49 0 90 -16.5t64.5 -35.5t57.5 -35.5t71 -16.5q88 0 168 77l10 -161q-97 -93 -209 -93zM391 -29q-174 0 -271 99.5t-71 259.5q19 124 92.5 204.5t180 114t249.5 33.5h250l4 20
q14 91 -36 150t-142 59q-186 0 -383 -14l33 207q169 14 326 14q216 0 339 -118t93 -310l-111 -690h-190l34 217q-112 -246 -397 -246zM479 152q117 0 192 60.5t103 172.5l23 139h-258q-105 0 -172 -47t-80 -141q-13 -83 41 -133.5t151 -50.5z" />
    <glyph glyph-name="adieresis" unicode="&#xe4;" horiz-adv-x="1189" 
d="M453 1311q-71 0 -100.5 37t-20.5 100q8 61 50 99t112 38t100 -37.5t22 -99.5q-9 -62 -51 -99.5t-112 -37.5zM872 1311q-71 0 -100 37t-20 100q8 61 50 99t111 38q70 0 100.5 -37.5t22.5 -99.5q-9 -62 -51.5 -99.5t-112.5 -37.5zM391 -29q-174 0 -271 99.5t-71 259.5
q19 124 92.5 204.5t180 114t249.5 33.5h250l4 20q14 91 -36 150t-142 59q-186 0 -383 -14l33 207q169 14 326 14q216 0 339 -118t93 -310l-111 -690h-190l34 217q-112 -246 -397 -246zM479 152q117 0 192 60.5t103 172.5l23 139h-258q-105 0 -172 -47t-80 -141
q-13 -83 41 -133.5t151 -50.5z" />
    <glyph glyph-name="aring" unicode="&#xe5;" horiz-adv-x="1189" 
d="M639 1233q-106 0 -162 66.5t-39 168.5q15 102 92 169t183 67t163 -67t42 -169t-93.5 -168.5t-185.5 -66.5zM659 1356q49 0 84 31t43 81t-17 81.5t-75 31.5q-49 0 -84 -31.5t-43 -81.5t17 -81t75 -31zM391 -29q-174 0 -271 99.5t-71 259.5q19 124 92.5 204.5t180 114
t249.5 33.5h250l4 20q14 91 -36 150t-142 59q-186 0 -383 -14l33 207q169 14 326 14q216 0 339 -118t93 -310l-111 -690h-190l34 217q-112 -246 -397 -246zM479 152q117 0 192 60.5t103 172.5l23 139h-258q-105 0 -172 -47t-80 -141q-13 -83 41 -133.5t151 -50.5z" />
    <glyph glyph-name="ae" unicode="&#xe6;" horiz-adv-x="1959" 
d="M1262 -37q-157 0 -266 65.5t-156 190.5q-121 -248 -445 -248q-174 0 -273 99t-75 258q20 124 94 205t181 115t249 34h252l2 18q14 93 -35 151t-141 58q-171 0 -385 -12l33 207q143 12 324 12q127 0 222 -47.5t142 -134.5q161 203 451 203q233 0 357 -153.5t87 -391.5
l-14 -92h-850q-8 -146 66.5 -238t209.5 -92q56 0 100.5 7.5t84.5 25.5t70.5 50.5t49.5 78.5h224q-135 -369 -559 -369zM1401 930q-134 0 -222.5 -72t-129.5 -201h608q-3 123 -70.5 198t-185.5 75zM479 150q123 0 199.5 68t101.5 194l19 112h-260q-105 0 -172 -47t-82 -141
q-12 -85 43 -135.5t151 -50.5z" />
    <glyph glyph-name="ccedilla" unicode="&#xe7;" horiz-adv-x="1245" 
d="M559 -514q-83 0 -145 20l24 154q78 -20 142 -20q60 0 94 18.5t39 50.5q5 30 -17.5 47t-74.5 17h-89l31 190q-241 3 -369 163t-88 406l7 37q42 272 209.5 422t435.5 150q212 0 335.5 -116.5t106.5 -313.5h-233q1 103 -65 161t-177 58q-158 0 -252 -101t-123 -278
q-25 -162 44.5 -269.5t213.5 -107.5q257 0 320 225h233q-39 -183 -155.5 -290.5t-294.5 -135.5l-13 -71q98 -11 146 -60.5t33 -132.5q-14 -97 -100 -160t-218 -63z" />
    <glyph glyph-name="egrave" unicode="&#xe8;" horiz-adv-x="1261" 
d="M836 1253h-211l-162 414h258zM575 -37q-245 0 -376 160.5t-93 408.5l7 39q43 270 208 420t431 150q154 0 265 -70.5t159 -195t24 -281.5l-16 -96h-852q-8 -146 66 -239t210 -93q115 0 192 38t113 130h224q-132 -371 -562 -371zM717 938q-135 0 -223.5 -73t-131.5 -206
h613q-2 126 -70 202.5t-188 76.5z" />
    <glyph glyph-name="eacute" unicode="&#xe9;" horiz-adv-x="1261" 
d="M793 1253h-203l246 414h251zM575 -37q-245 0 -376 160.5t-93 408.5l7 39q43 270 208 420t431 150q154 0 265 -70.5t159 -195t24 -281.5l-16 -96h-852q-8 -146 66 -239t210 -93q115 0 192 38t113 130h224q-132 -371 -562 -371zM717 938q-135 0 -223.5 -73t-131.5 -206h613
q-2 126 -70 202.5t-188 76.5z" />
    <glyph glyph-name="ecircumflex" unicode="&#xea;" horiz-adv-x="1261" 
d="M547 1253h-197l287 414h281l153 -414h-199l-104 297h-20zM575 -37q-245 0 -376 160.5t-93 408.5l7 39q43 270 208 420t431 150q154 0 265 -70.5t159 -195t24 -281.5l-16 -96h-852q-8 -146 66 -239t210 -93q115 0 192 38t113 130h224q-132 -371 -562 -371zM717 938
q-135 0 -223.5 -73t-131.5 -206h613q-2 126 -70 202.5t-188 76.5z" />
    <glyph glyph-name="edieresis" unicode="&#xeb;" horiz-adv-x="1261" 
d="M516 1311q-70 0 -100 37.5t-21 99.5t51 99.5t113 37.5t100.5 -37.5t20.5 -99.5q-9 -63 -51 -100t-113 -37zM936 1311q-70 0 -100 37.5t-21 99.5t51 99.5t113 37.5t100.5 -37.5t20.5 -99.5q-9 -63 -51 -100t-113 -37zM575 -37q-245 0 -376 160.5t-93 408.5l7 39
q43 270 208 420t431 150q154 0 265 -70.5t159 -195t24 -281.5l-16 -96h-852q-8 -146 66 -239t210 -93q115 0 192 38t113 130h224q-132 -371 -562 -371zM717 938q-135 0 -223.5 -73t-131.5 -206h613q-2 126 -70 202.5t-188 76.5z" />
    <glyph glyph-name="igrave" unicode="&#xec;" horiz-adv-x="649" 
d="M477 1253h-209l-164 414h261zM383 0h-242l146 920h-162l29 184h403z" />
    <glyph glyph-name="iacute" unicode="&#xed;" horiz-adv-x="649" 
d="M436 1253h-203l246 414h250zM383 0h-242l146 920h-162l29 184h403z" />
    <glyph glyph-name="icircumflex" unicode="&#xee;" horiz-adv-x="649" 
d="M190 1253h-196l285 414h280l156 -414h-199l-104 297h-21zM383 0h-242l146 920h-162l29 184h403z" />
    <glyph glyph-name="idieresis" unicode="&#xef;" horiz-adv-x="649" 
d="M160 1311q-71 0 -100.5 37t-20.5 100q9 62 51 99.5t113 37.5t100.5 -37.5t20.5 -99.5q-9 -63 -51 -100t-113 -37zM580 1311q-71 0 -100.5 37t-20.5 100q9 62 51 99.5t113 37.5q70 0 100 -37.5t20 -99.5q-9 -63 -50.5 -100t-112.5 -37zM383 0h-242l146 920h-162l29 184
h403z" />
    <glyph glyph-name="eth" unicode="&#xf0;" horiz-adv-x="1386" 
d="M584 -39q-143 0 -249.5 45t-163 121.5t-77.5 170t-4 196.5l6 38q17 107 68.5 201t129.5 165.5t187 113t232 41.5q150 0 246.5 -62.5t123.5 -169.5q30 292 -55 404l-188 -146l-70 97l158 120q-73 31 -191 31q-99 0 -243 -18l30 186q144 18 242 18q214 0 338 -81l203 155
l67 -96l-182 -141q149 -193 74 -672l-9 -53q-23 -149 -75.5 -268.5t-134.5 -209t-199.5 -138t-263.5 -48.5zM616 170q163 0 265 92t127 252q26 159 -49.5 251.5t-235.5 92.5q-159 0 -260.5 -92t-128.5 -252q-25 -160 47 -252t235 -92z" />
    <glyph glyph-name="ntilde" unicode="&#xf1;" horiz-adv-x="1318" 
d="M903 1300q-49 0 -90 16.5t-64.5 36t-58.5 36t-72 16.5q-83 0 -161 -78l-13 162q92 92 207 92q49 0 90 -16.5t64.5 -35.5t57.5 -35.5t71 -16.5q88 0 168 77l10 -161q-97 -93 -209 -93zM326 0h-242l176 1104h191l-43 -270q125 303 430 303h10q124 0 206 -68t111 -181.5
t6 -256.5l-100 -631h-242l107 664q17 111 -39.5 183.5t-163.5 72.5q-126 0 -204.5 -70t-98.5 -197z" />
    <glyph glyph-name="ograve" unicode="&#xf2;" horiz-adv-x="1388" 
d="M885 1253h-211l-162 414h258zM598 -37q-260 0 -403 158.5t-105 408.5l8 41q44 275 223 422.5t463 147.5q171 0 295.5 -72.5t180.5 -202.5t30 -295l-6 -41q-42 -275 -221.5 -421t-464.5 -146zM631 172q174 0 281 99.5t135 279.5q27 166 -55 273.5t-240 107.5
q-174 0 -281 -100.5t-135 -280.5q-26 -164 56 -271.5t239 -107.5z" />
    <glyph glyph-name="oacute" unicode="&#xf3;" horiz-adv-x="1388" 
d="M842 1253h-201l246 414h250zM598 -37q-260 0 -403 158.5t-105 408.5l8 41q44 275 223 422.5t463 147.5q171 0 295.5 -72.5t180.5 -202.5t30 -295l-6 -41q-42 -275 -221.5 -421t-464.5 -146zM631 172q174 0 281 99.5t135 279.5q27 166 -55 273.5t-240 107.5
q-174 0 -281 -100.5t-135 -280.5q-26 -164 56 -271.5t239 -107.5z" />
    <glyph glyph-name="ocircumflex" unicode="&#xf4;" horiz-adv-x="1388" 
d="M598 1253h-197l285 414h281l153 -414h-198l-105 297h-18zM598 -37q-260 0 -403 158.5t-105 408.5l8 41q44 275 223 422.5t463 147.5q171 0 295.5 -72.5t180.5 -202.5t30 -295l-6 -41q-42 -275 -221.5 -421t-464.5 -146zM631 172q174 0 281 99.5t135 279.5
q27 166 -55 273.5t-240 107.5q-174 0 -281 -100.5t-135 -280.5q-26 -164 56 -271.5t239 -107.5z" />
    <glyph glyph-name="otilde" unicode="&#xf5;" horiz-adv-x="1388" 
d="M922 1300q-49 0 -90 16.5t-64.5 36t-58.5 36t-72 16.5q-84 0 -162 -78l-12 162q92 92 207 92q49 0 89.5 -16.5t64 -35.5t57.5 -35.5t71 -16.5q88 0 168 77l10 -161q-97 -93 -208 -93zM598 -37q-260 0 -403 158.5t-105 408.5l8 41q44 275 223 422.5t463 147.5
q171 0 295.5 -72.5t180.5 -202.5t30 -295l-6 -41q-42 -275 -221.5 -421t-464.5 -146zM631 172q174 0 281 99.5t135 279.5q27 166 -55 273.5t-240 107.5q-174 0 -281 -100.5t-135 -280.5q-26 -164 56 -271.5t239 -107.5z" />
    <glyph glyph-name="odieresis" unicode="&#xf6;" horiz-adv-x="1388" 
d="M567 1311q-71 0 -100.5 37t-20.5 100q8 61 50 99t112 38t100.5 -37.5t22.5 -99.5q-9 -62 -51.5 -99.5t-112.5 -37.5zM987 1311q-71 0 -100.5 37t-20.5 100q8 61 50 99t112 38t100.5 -37.5t22.5 -99.5q-9 -62 -51.5 -99.5t-112.5 -37.5zM598 -37q-260 0 -403 158.5
t-105 408.5l8 41q44 275 223 422.5t463 147.5q171 0 295.5 -72.5t180.5 -202.5t30 -295l-6 -41q-42 -275 -221.5 -421t-464.5 -146zM631 172q174 0 281 99.5t135 279.5q27 166 -55 273.5t-240 107.5q-174 0 -281 -100.5t-135 -280.5q-26 -164 56 -271.5t239 -107.5z" />
    <glyph glyph-name="divide" unicode="&#xf7;" horiz-adv-x="1212" 
d="M786 995h-243l41 254h243zM1085 608h-964l31 193h964zM655 162h-243l39 252h243z" />
    <glyph glyph-name="oslash" unicode="&#xf8;" horiz-adv-x="1470" 
d="M262 -113h-180l182 215q-79 76 -112 186t-13 242l6 41q44 275 224 422.5t465 147.5q144 0 262 -56l104 123h180l-170 -200q81 -78 115.5 -190.5t13.5 -246.5l-8 -41q-42 -275 -221.5 -421t-464.5 -146q-151 0 -268 60zM383 551q-21 -152 45 -254l514 606q-66 29 -143 29
q-172 0 -279 -100.5t-137 -280.5zM680 172q174 0 280 99.5t136 279.5q24 158 -49 264l-517 -610q71 -33 150 -33z" />
    <glyph glyph-name="ugrave" unicode="&#xf9;" horiz-adv-x="1298" 
d="M825 1253h-211l-161 414h258zM471 -33h-10q-123 0 -205 66.5t-112 179t-7 252.5l101 639h241l-106 -672q-17 -107 37 -177.5t157 -70.5q123 0 198.5 69.5t96.5 195.5l103 655h241l-174 -1104h-190l41 262q-118 -295 -412 -295z" />
    <glyph glyph-name="uacute" unicode="&#xfa;" horiz-adv-x="1298" 
d="M782 1253h-200l245 414h250zM471 -33h-10q-123 0 -205 66.5t-112 179t-7 252.5l101 639h241l-106 -672q-17 -107 37 -177.5t157 -70.5q123 0 198.5 69.5t96.5 195.5l103 655h241l-174 -1104h-190l41 262q-118 -295 -412 -295z" />
    <glyph glyph-name="ucircumflex" unicode="&#xfb;" horiz-adv-x="1298" 
d="M539 1253h-197l285 414h280l154 -414h-199l-104 297h-19zM471 -33h-10q-123 0 -205 66.5t-112 179t-7 252.5l101 639h241l-106 -672q-17 -107 37 -177.5t157 -70.5q123 0 198.5 69.5t96.5 195.5l103 655h241l-174 -1104h-190l41 262q-118 -295 -412 -295z" />
    <glyph glyph-name="udieresis" unicode="&#xfc;" horiz-adv-x="1298" 
d="M508 1311q-71 0 -100.5 37t-20.5 100q8 61 50 99t112 38t100.5 -37.5t22.5 -99.5q-9 -62 -51.5 -99.5t-112.5 -37.5zM928 1311q-71 0 -100.5 37t-20.5 100q8 61 50 99t112 38t100.5 -37.5t22.5 -99.5q-9 -62 -51.5 -99.5t-112.5 -37.5zM471 -33h-10q-123 0 -205 66.5
t-112 179t-7 252.5l101 639h241l-106 -672q-17 -107 37 -177.5t157 -70.5q123 0 198.5 69.5t96.5 195.5l103 655h241l-174 -1104h-190l41 262q-118 -295 -412 -295z" />
    <glyph glyph-name="yacute" unicode="&#xfd;" horiz-adv-x="1136" 
d="M715 1253h-201l246 414h250zM131 -432h-164l33 211h182q181 0 256 170l33 76h-149l-207 1079h243l154 -885h45l385 885h234l-539 -1213q-145 -323 -506 -323z" />
    <glyph glyph-name="thorn" unicode="&#xfe;" horiz-adv-x="1488" 
d="M326 -410h-240l301 1905h240l-92 -577q149 223 438 223q150 0 254.5 -75t145.5 -203.5t16 -289.5l-7 -43q-42 -267 -198.5 -415t-413.5 -148q-123 0 -213.5 53.5t-138.5 149.5zM750 172q167 0 267 102t130 283q25 164 -51 270.5t-226 106.5q-164 0 -266.5 -89.5
t-128.5 -252.5l-12 -88q-23 -146 57.5 -239t229.5 -93z" />
    <glyph glyph-name="ydieresis" unicode="&#xff;" horiz-adv-x="1136" 
d="M440 1311q-71 0 -100.5 37t-20.5 100q9 62 51 99.5t113 37.5q69 0 99.5 -38t21.5 -99q-9 -63 -51 -100t-113 -37zM860 1311q-71 0 -100.5 37t-20.5 100q9 62 51 99.5t113 37.5q69 0 99.5 -38t21.5 -99q-9 -63 -51 -100t-113 -37zM131 -432h-164l33 211h182q181 0 256 170
l33 76h-149l-207 1079h243l154 -885h45l385 885h234l-539 -1213q-145 -323 -506 -323z" />
    <glyph glyph-name="Amacron" unicode="&#x100;" horiz-adv-x="1566" 
d="M1255 1692h-718l26 170h719zM174 0h-246l762 1495h408l303 -1495h-254l-84 422h-676zM494 635h528l-127 649h-76z" />
    <glyph glyph-name="amacron" unicode="&#x101;" horiz-adv-x="1189" 
d="M979 1352h-612l26 170h613zM391 -29q-174 0 -271 99.5t-71 259.5q19 124 92.5 204.5t180 114t249.5 33.5h250l4 20q14 91 -36 150t-142 59q-186 0 -383 -14l33 207q169 14 326 14q216 0 339 -118t93 -310l-111 -690h-190l34 217q-112 -246 -397 -246zM479 152
q117 0 192 60.5t103 172.5l23 139h-258q-105 0 -172 -47t-80 -141q-13 -83 41 -133.5t151 -50.5z" />
    <glyph glyph-name="Abreve" unicode="&#x102;" horiz-adv-x="1566" 
d="M872 1597q-173 0 -246 98t-55 263h172q-21 -201 156 -201q94 0 151.5 55.5t75.5 145.5h160q-33 -164 -137.5 -262.5t-276.5 -98.5zM174 0h-246l762 1495h408l303 -1495h-254l-84 422h-676zM494 635h528l-127 649h-76z" />
    <glyph glyph-name="abreve" unicode="&#x103;" horiz-adv-x="1189" 
d="M647 1241q-160 0 -227 108.5t-41 317.5h170q-27 -262 123 -262q155 0 211 262h161q-79 -426 -397 -426zM391 -29q-174 0 -271 99.5t-71 259.5q19 124 92.5 204.5t180 114t249.5 33.5h250l4 20q14 91 -36 150t-142 59q-186 0 -383 -14l33 207q169 14 326 14
q216 0 339 -118t93 -310l-111 -690h-190l34 217q-112 -246 -397 -246zM479 152q117 0 192 60.5t103 172.5l23 139h-258q-105 0 -172 -47t-80 -141q-13 -83 41 -133.5t151 -50.5z" />
    <glyph glyph-name="Aogonek" unicode="&#x104;" horiz-adv-x="1566" 
d="M174 0h-246l762 1495h408l282 -1399l25 15l72 -111l-74 -49q-65 -43 -104.5 -92.5t-45.5 -96.5q-8 -47 17 -78.5t80 -31.5q58 0 104 18l-27 -174q-59 -18 -127 -18q-119 0 -183.5 72.5t-45.5 183.5q23 142 172 266h-96l-84 422h-676zM494 635h528l-127 649h-76z" />
    <glyph glyph-name="aogonek" unicode="&#x105;" horiz-adv-x="1189" 
d="M391 -29q-174 0 -271 99.5t-71 259.5q19 124 92.5 204.5t180 114t249.5 33.5h250l4 20q14 91 -36 150t-142 59q-186 0 -383 -14l33 207q169 14 326 14q216 0 339 -118t93 -310l-97 -598l66 -92l-70 -53q-130 -96 -145 -183q-6 -43 16.5 -66.5t69.5 -23.5q54 0 106 19
l-26 -170q-63 -19 -125 -19q-116 0 -175 61.5t-42 170.5q11 74 56.5 135t129.5 129h-65l34 217q-112 -246 -397 -246zM479 152q117 0 192 60.5t103 172.5l23 139h-258q-105 0 -172 -47t-80 -141q-13 -83 41 -133.5t151 -50.5z" />
    <glyph glyph-name="Cacute" unicode="&#x106;" horiz-adv-x="1632" 
d="M1038 1612h-225l313 346h271zM754 -37q-219 0 -376.5 98.5t-226.5 273t-34 394.5l6 45q59 364 283 564t583 200q280 0 445 -154.5t153 -418.5h-248q1 163 -104.5 254.5t-280.5 91.5q-246 0 -394 -149t-189 -412q-25 -159 17.5 -286t146.5 -200.5t253 -73.5q398 0 508 345
h250q-82 -286 -284 -429t-508 -143z" />
    <glyph glyph-name="cacute" unicode="&#x107;" horiz-adv-x="1245" 
d="M801 1253h-201l246 414h250zM573 -37q-162 0 -277.5 72.5t-165.5 202.5t-24 294l7 37q42 272 209.5 422t435.5 150q212 0 335.5 -116.5t106.5 -313.5h-233q1 103 -65 161t-177 58q-158 0 -252 -101t-123 -278q-25 -162 44.5 -269.5t213.5 -107.5q257 0 320 225h233
q-46 -217 -199 -326.5t-389 -109.5z" />
    <glyph glyph-name="Ccircumflex" unicode="&#x108;" horiz-adv-x="1632" 
d="M764 1612h-217l317 346h289l213 -346h-223l-137 229h-35zM754 -37q-219 0 -376.5 98.5t-226.5 273t-34 394.5l6 45q59 364 283 564t583 200q280 0 445 -154.5t153 -418.5h-248q1 163 -104.5 254.5t-280.5 91.5q-246 0 -394 -149t-189 -412q-25 -159 17.5 -286
t146.5 -200.5t253 -73.5q398 0 508 345h250q-82 -286 -284 -429t-508 -143z" />
    <glyph glyph-name="ccircumflex" unicode="&#x109;" horiz-adv-x="1245" 
d="M557 1253h-197l285 414h281l153 -414h-198l-105 297h-18zM573 -37q-162 0 -277.5 72.5t-165.5 202.5t-24 294l7 37q42 272 209.5 422t435.5 150q212 0 335.5 -116.5t106.5 -313.5h-233q1 103 -65 161t-177 58q-158 0 -252 -101t-123 -278q-25 -162 44.5 -269.5
t213.5 -107.5q257 0 320 225h233q-46 -217 -199 -326.5t-389 -109.5z" />
    <glyph glyph-name="Cdotaccent" unicode="&#x10a;" horiz-adv-x="1632" 
d="M961 1653q-72 0 -104 38t-23 101t54.5 101t117.5 38t103.5 -38t20.5 -101q-9 -63 -53 -101t-116 -38zM754 -37q-219 0 -376.5 98.5t-226.5 273t-34 394.5l6 45q59 364 283 564t583 200q280 0 445 -154.5t153 -418.5h-248q1 163 -104.5 254.5t-280.5 91.5
q-246 0 -394 -149t-189 -412q-25 -159 17.5 -286t146.5 -200.5t253 -73.5q398 0 508 345h250q-82 -286 -284 -429t-508 -143z" />
    <glyph glyph-name="cdotaccent" unicode="&#x10b;" horiz-adv-x="1245" 
d="M735 1311q-71 0 -100.5 37t-20.5 100q9 62 51 99.5t113 37.5t100.5 -37.5t20.5 -99.5q-9 -63 -51 -100t-113 -37zM573 -37q-162 0 -277.5 72.5t-165.5 202.5t-24 294l7 37q42 272 209.5 422t435.5 150q212 0 335.5 -116.5t106.5 -313.5h-233q1 103 -65 161t-177 58
q-158 0 -252 -101t-123 -278q-25 -162 44.5 -269.5t213.5 -107.5q257 0 320 225h233q-46 -217 -199 -326.5t-389 -109.5z" />
    <glyph glyph-name="Ccaron" unicode="&#x10c;" horiz-adv-x="1632" 
d="M1090 1612h-281l-215 346h221l139 -227h33l193 227h217zM754 -37q-219 0 -376.5 98.5t-226.5 273t-34 394.5l6 45q59 364 283 564t583 200q280 0 445 -154.5t153 -418.5h-248q1 163 -104.5 254.5t-280.5 91.5q-246 0 -394 -149t-189 -412q-25 -159 17.5 -286
t146.5 -200.5t253 -73.5q398 0 508 345h250q-82 -286 -284 -429t-508 -143z" />
    <glyph glyph-name="ccaron" unicode="&#x10d;" horiz-adv-x="1245" 
d="M856 1253h-278l-158 414h201l108 -297h19l178 297h192zM573 -37q-162 0 -277.5 72.5t-165.5 202.5t-24 294l7 37q42 272 209.5 422t435.5 150q212 0 335.5 -116.5t106.5 -313.5h-233q1 103 -65 161t-177 58q-158 0 -252 -101t-123 -278q-25 -162 44.5 -269.5
t213.5 -107.5q257 0 320 225h233q-46 -217 -199 -326.5t-389 -109.5z" />
    <glyph glyph-name="Dcaron" unicode="&#x10e;" horiz-adv-x="1613" 
d="M1012 1612h-283l-213 346h221l137 -227h35l193 227h217zM608 -8h-526l240 1513h526q171 0 310.5 -53.5t231.5 -148.5t131.5 -232.5t14.5 -298.5l-8 -45q-37 -239 -160.5 -405t-316 -248t-443.5 -82zM831 1278h-301l-165 -1059h299q256 0 417 138.5t201 392.5
q37 231 -90 379.5t-361 148.5z" />
    <glyph glyph-name="dcaron" unicode="&#x10f;" horiz-adv-x="1421" 
d="M1610 1165h-172l80 504h200zM549 -37q-157 0 -268 73.5t-157.5 202.5t-21.5 291l7 39q44 270 202 420t418 150q123 0 211 -56t133 -155l90 567h242l-238 -1495h-190l35 219q-149 -256 -463 -256zM629 170q161 0 262 91t127 255l12 88q23 145 -57 237.5t-228 92.5
q-168 0 -269 -101.5t-130 -281.5q-27 -165 51.5 -273t231.5 -108z" />
    <glyph glyph-name="Dcroat" unicode="&#x110;" horiz-adv-x="1613" 
d="M608 -8h-526l104 655h-110l33 201h108l105 657h526q171 0 310.5 -53.5t231.5 -148.5t131.5 -232.5t14.5 -298.5l-8 -45q-37 -239 -160.5 -405t-316 -248t-443.5 -82zM840 647h-408l-67 -428h299q256 0 417 138.5t201 392.5q37 231 -90 379.5t-361 148.5h-301l-67 -430
h409z" />
    <glyph glyph-name="dcroat" unicode="&#x111;" horiz-adv-x="1421" 
d="M549 -37q-157 0 -268 73.5t-157.5 202.5t-21.5 291l7 39q44 270 202 420t418 150q123 0 211 -56t133 -155l49 313h-317l22 145h320l16 109h242l-16 -109h163l-22 -145h-166l-197 -1241h-190l35 219q-149 -256 -463 -256zM629 170q161 0 262 91t127 255l12 88
q23 145 -57 237.5t-228 92.5q-168 0 -269 -101.5t-130 -281.5q-27 -165 51.5 -273t231.5 -108z" />
    <glyph glyph-name="Emacron" unicode="&#x112;" horiz-adv-x="1224" 
d="M1081 1692h-299l6 170h302zM1104 0h-903l237 1495h885l-33 -213h-643l-65 -416h602l-35 -213h-600l-70 -440h660z" />
    <glyph glyph-name="emacron" unicode="&#x113;" horiz-adv-x="1261" 
d="M1042 1352h-610l27 170h612zM575 -37q-245 0 -376 160.5t-93 408.5l7 39q43 270 208 420t431 150q154 0 265 -70.5t159 -195t24 -281.5l-16 -96h-852q-8 -146 66 -239t210 -93q115 0 192 38t113 130h224q-132 -371 -562 -371zM717 938q-135 0 -223.5 -73t-131.5 -206h613
q-2 126 -70 202.5t-188 76.5z" />
    <glyph glyph-name="Ebreve" unicode="&#x114;" horiz-adv-x="1224" 
d="M897 1597q-172 0 -244.5 98t-54.5 263h170q-10 -92 26.5 -146.5t129.5 -54.5q95 0 152 55t77 146h160q-34 -165 -138.5 -263t-277.5 -98zM1104 0h-903l237 1495h885l-33 -213h-643l-65 -416h602l-35 -213h-600l-70 -440h660z" />
    <glyph glyph-name="ebreve" unicode="&#x115;" horiz-adv-x="1261" 
d="M711 1241q-160 0 -227 108.5t-42 317.5h170q-27 -262 125 -262q156 0 209 262h162q-37 -209 -137 -317.5t-260 -108.5zM575 -37q-245 0 -376 160.5t-93 408.5l7 39q43 270 208 420t431 150q154 0 265 -70.5t159 -195t24 -281.5l-16 -96h-852q-8 -146 66 -239t210 -93
q115 0 192 38t113 130h224q-132 -371 -562 -371zM717 938q-135 0 -223.5 -73t-131.5 -206h613q-2 126 -70 202.5t-188 76.5z" />
    <glyph glyph-name="Edotaccent" unicode="&#x116;" horiz-adv-x="1224" 
d="M909 1653q-72 0 -104 38t-23 101t54.5 101t117.5 38t104 -38t21 -101q-9 -63 -53.5 -101t-116.5 -38zM1104 0h-903l237 1495h885l-33 -213h-643l-65 -416h602l-35 -213h-600l-70 -440h660z" />
    <glyph glyph-name="edotaccent" unicode="&#x117;" horiz-adv-x="1261" 
d="M727 1311q-71 0 -100.5 37t-20.5 100q9 62 51 99.5t113 37.5q69 0 99.5 -38t21.5 -99q-9 -63 -51 -100t-113 -37zM575 -37q-245 0 -376 160.5t-93 408.5l7 39q43 270 208 420t431 150q154 0 265 -70.5t159 -195t24 -281.5l-16 -96h-852q-8 -146 66 -239t210 -93
q115 0 192 38t113 130h224q-132 -371 -562 -371zM717 938q-135 0 -223.5 -73t-131.5 -206h613q-2 126 -70 202.5t-188 76.5z" />
    <glyph glyph-name="Eogonek" unicode="&#x118;" horiz-adv-x="1224" 
d="M920 -522q-119 0 -184 72.5t-48 183.5q26 142 172 266h-659l237 1495h885l-33 -213h-643l-65 -416h602l-35 -213h-600l-70 -440h660l-35 -213h-8l-74 -49q-65 -43 -105 -92.5t-47 -96.5q-6 -47 19.5 -78.5t79.5 -31.5q57 0 104 18l-29 -174q-56 -18 -124 -18z" />
    <glyph glyph-name="eogonek" unicode="&#x119;" horiz-adv-x="1261" 
d="M575 -37q-245 0 -376 160.5t-93 408.5l7 39q43 270 208 420t431 150q154 0 265 -70.5t159 -195t24 -281.5l-16 -96h-852q-8 -146 66 -239t210 -93q115 0 192 38t113 130h224q-49 -134 -136 -221l25 -33l-70 -53q-134 -99 -145 -183q-7 -42 15.5 -66t68.5 -24q57 0 109 19
l-29 -170q-59 -19 -123 -19q-117 0 -175.5 61.5t-41.5 170.5q14 85 74 157q-72 -10 -134 -10zM717 938q-135 0 -223.5 -73t-131.5 -206h613q-2 126 -70 202.5t-188 76.5z" />
    <glyph glyph-name="Ecaron" unicode="&#x11a;" horiz-adv-x="1224" 
d="M1038 1612h-280l-215 346h221l139 -227h33l192 227h218zM1104 0h-903l237 1495h885l-33 -213h-643l-65 -416h602l-35 -213h-600l-70 -440h660z" />
    <glyph glyph-name="ecaron" unicode="&#x11b;" horiz-adv-x="1261" 
d="M848 1253h-281l-155 414h200l107 -297h20l179 297h192zM575 -37q-245 0 -376 160.5t-93 408.5l7 39q43 270 208 420t431 150q154 0 265 -70.5t159 -195t24 -281.5l-16 -96h-852q-8 -146 66 -239t210 -93q115 0 192 38t113 130h224q-132 -371 -562 -371zM717 938
q-135 0 -223.5 -73t-131.5 -206h613q-2 126 -70 202.5t-188 76.5z" />
    <glyph glyph-name="Gcircumflex" unicode="&#x11c;" horiz-adv-x="1703" 
d="M758 1612h-217l317 346h289l213 -346h-223l-138 229h-34zM770 -37q-169 0 -305 58t-221.5 159.5t-120.5 245.5t-8 311l6 45q59 360 282.5 558t581.5 198q185 0 323.5 -68t210.5 -198t60 -303h-248q4 160 -101.5 251t-279.5 91q-245 0 -393 -146.5t-190 -406.5
q-25 -163 20 -293.5t154 -205.5t264 -75q136 0 240 35t188 115l33 217h-453l31 192h807l-31 -192h-125l-47 -295q-136 -160 -296 -226.5t-382 -66.5z" />
    <glyph glyph-name="gcircumflex" unicode="&#x11d;" horiz-adv-x="1390" 
d="M590 1253h-197l287 414h281l153 -414h-199l-104 297h-20zM438 -432q-150 0 -303 22l31 203q170 -24 307 -24q188 0 307 88.5t146 261.5l14 86q-142 -213 -422 -213q-152 0 -258 73t-149 200t-19 286l8 39q42 261 200 405t413 144q142 0 237 -71t133 -196l37 232h191
l-156 -973q-42 -277 -230.5 -420t-486.5 -143zM610 205q159 0 256.5 87.5t122.5 246.5l15 84q23 139 -55.5 228t-221.5 89q-163 0 -263 -98t-128 -271q-25 -160 50 -263t224 -103z" />
    <glyph glyph-name="Gbreve" unicode="&#x11e;" horiz-adv-x="1703" 
d="M942 1597q-172 0 -244.5 98t-54.5 263h170q-10 -92 26.5 -146.5t129.5 -54.5q95 0 152 55t77 146h160q-34 -165 -138.5 -263t-277.5 -98zM770 -37q-169 0 -305 58t-221.5 159.5t-120.5 245.5t-8 311l6 45q59 360 282.5 558t581.5 198q185 0 323.5 -68t210.5 -198t60 -303
h-248q4 160 -101.5 251t-279.5 91q-245 0 -393 -146.5t-190 -406.5q-25 -163 20 -293.5t154 -205.5t264 -75q136 0 240 35t188 115l33 217h-453l31 192h807l-31 -192h-125l-47 -295q-136 -160 -296 -226.5t-382 -66.5z" />
    <glyph glyph-name="gbreve" unicode="&#x11f;" horiz-adv-x="1390" 
d="M754 1241q-160 0 -227 108.5t-42 317.5h170q-27 -262 125 -262q156 0 209 262h162q-37 -209 -137 -317.5t-260 -108.5zM438 -432q-150 0 -303 22l31 203q170 -24 307 -24q188 0 307 88.5t146 261.5l14 86q-142 -213 -422 -213q-152 0 -258 73t-149 200t-19 286l8 39
q42 261 200 405t413 144q142 0 237 -71t133 -196l37 232h191l-156 -973q-42 -277 -230.5 -420t-486.5 -143zM610 205q159 0 256.5 87.5t122.5 246.5l15 84q23 139 -55.5 228t-221.5 89q-163 0 -263 -98t-128 -271q-25 -160 50 -263t224 -103z" />
    <glyph glyph-name="Gdotaccent" unicode="&#x120;" horiz-adv-x="1703" 
d="M954 1653q-72 0 -104 38t-23 101t54.5 101t117.5 38t104 -38t21 -101q-9 -63 -53.5 -101t-116.5 -38zM770 -37q-169 0 -305 58t-221.5 159.5t-120.5 245.5t-8 311l6 45q59 360 282.5 558t581.5 198q185 0 323.5 -68t210.5 -198t60 -303h-248q4 160 -101.5 251t-279.5 91
q-245 0 -393 -146.5t-190 -406.5q-25 -163 20 -293.5t154 -205.5t264 -75q136 0 240 35t188 115l33 217h-453l31 192h807l-31 -192h-125l-47 -295q-136 -160 -296 -226.5t-382 -66.5z" />
    <glyph glyph-name="gdotaccent" unicode="&#x121;" horiz-adv-x="1390" 
d="M770 1311q-71 0 -100.5 37t-20.5 100q9 62 51 99.5t113 37.5q69 0 99.5 -38t21.5 -99q-9 -63 -51 -100t-113 -37zM438 -432q-150 0 -303 22l31 203q170 -24 307 -24q188 0 307 88.5t146 261.5l14 86q-142 -213 -422 -213q-152 0 -258 73t-149 200t-19 286l8 39
q42 261 200 405t413 144q142 0 237 -71t133 -196l37 232h191l-156 -973q-42 -277 -230.5 -420t-486.5 -143zM610 205q159 0 256.5 87.5t122.5 246.5l15 84q23 139 -55.5 228t-221.5 89q-163 0 -263 -98t-128 -271q-25 -160 50 -263t224 -103z" />
    <glyph glyph-name="Gcommaaccent" unicode="&#x122;" horiz-adv-x="1703" 
d="M770 -37q-169 0 -305 58t-221.5 159.5t-120.5 245.5t-8 311l6 45q59 360 282.5 558t581.5 198q185 0 323.5 -68t210.5 -198t60 -303h-248q4 160 -101.5 251t-279.5 91q-245 0 -393 -146.5t-190 -406.5q-25 -163 20 -293.5t154 -205.5t264 -75q136 0 240 35t188 115
l33 217h-453l31 192h807l-31 -192h-125l-47 -295q-136 -160 -296 -226.5t-382 -66.5zM684 -596h-27l21 119h31q67 0 109.5 39.5t53.5 105.5q-27 -10 -57 -10q-52 0 -80.5 30.5t-19.5 86.5q10 61 54.5 94t100.5 33q76 0 114.5 -56t21.5 -159l-2 -13q-21 -129 -107 -199.5
t-213 -70.5z" />
    <glyph glyph-name="gcommaaccent" unicode="&#x123;" horiz-adv-x="1390" 
d="M762 1229q-74 0 -109.5 56t-17.5 159l2 12q19 126 98.5 192t206.5 66h27l-21 -115h-28q-69 0 -107.5 -35.5t-46.5 -93.5l-2 -18q21 12 53 12q48 0 75.5 -29.5t18.5 -84.5q-10 -60 -51.5 -90.5t-97.5 -30.5zM438 -432q-150 0 -303 22l31 203q170 -24 307 -24
q188 0 307 88.5t146 261.5l14 86q-142 -213 -422 -213q-152 0 -258 73t-149 200t-19 286l8 39q42 261 200 405t413 144q142 0 237 -71t133 -196l37 232h191l-156 -973q-42 -277 -230.5 -420t-486.5 -143zM610 205q159 0 256.5 87.5t122.5 246.5l15 84q23 139 -55.5 228
t-221.5 89q-163 0 -263 -98t-128 -271q-25 -160 50 -263t224 -103z" />
    <glyph glyph-name="Hbar" unicode="&#x126;" horiz-adv-x="1644" 
d="M328 0h-246l178 1126h-123l31 187h123l28 182h246l-28 -182h751l29 182h246l-29 -182h123l-31 -187h-123l-178 -1126h-246l101 637h-752zM463 856h751l43 270h-751z" />
    <glyph glyph-name="hbar" unicode="&#x127;" horiz-adv-x="1318" 
d="M416 0h-242l197 1239h-183l25 147h182l17 109h241l-16 -109h301l-25 -147h-301l-51 -326q128 224 377 224h10q123 0 202.5 -68.5t106.5 -182.5t3 -257l-99 -629h-241l106 664q17 111 -40 183.5t-165 72.5q-118 0 -193.5 -64t-103.5 -180l-10 -64h-2z" />
    <glyph glyph-name="Itilde" unicode="&#x128;" horiz-adv-x="655" 
d="M612 1645q-53 0 -97.5 15.5t-70.5 34.5t-64.5 34.5t-80.5 15.5q-54 0 -103.5 -22t-84.5 -60l-17 158q39 44 101 72t135 28q53 0 97.5 -15.5t70.5 -34.5t64.5 -34.5t80.5 -15.5q55 0 106 22.5t87 61.5l14 -160q-96 -100 -238 -100zM332 0h-246l238 1495h245z" />
    <glyph glyph-name="itilde" unicode="&#x129;" horiz-adv-x="649" 
d="M514 1300q-48 0 -89 16.5t-65 36t-58 36t-71 16.5q-85 0 -163 -78l-13 162q92 92 209 92q48 0 88.5 -16.5t64.5 -35.5t58.5 -35.5t71.5 -16.5q86 0 166 77l12 -161q-97 -93 -211 -93zM383 0h-242l146 920h-162l29 184h403z" />
    <glyph glyph-name="Imacron" unicode="&#x12a;" horiz-adv-x="655" 
d="M809 1692h-719l27 170h719zM332 0h-246l238 1495h245z" />
    <glyph glyph-name="imacron" unicode="&#x12b;" horiz-adv-x="649" 
d="M686 1352h-610l26 170h611zM383 0h-242l146 920h-162l29 184h403z" />
    <glyph glyph-name="Ibreve" unicode="&#x12c;" horiz-adv-x="655" 
d="M426 1597q-173 0 -246 98t-55 263h170q-10 -92 27 -146.5t131 -54.5q93 0 150 55t77 146h160q-33 -164 -137.5 -262.5t-276.5 -98.5zM332 0h-246l238 1495h245z" />
    <glyph glyph-name="ibreve" unicode="&#x12d;" horiz-adv-x="649" 
d="M354 1241q-160 0 -227 108.5t-41 317.5h170q-27 -262 125 -262q156 0 209 262h162q-39 -209 -138.5 -317.5t-259.5 -108.5zM383 0h-242l146 920h-162l29 184h403z" />
    <glyph glyph-name="Iogonek" unicode="&#x12e;" horiz-adv-x="655" 
d="M258 -522q-119 0 -183.5 72.5t-47.5 183.5q26 142 172 266h-113l238 1495h245l-221 -1393l14 9l72 -111l-74 -49q-135 -90 -151 -189q-6 -47 19 -78.5t79 -31.5q59 0 105 18l-29 -174q-56 -18 -125 -18z" />
    <glyph glyph-name="iogonek" unicode="&#x12f;" horiz-adv-x="649" 
d="M387 1257q-72 0 -103 38t-22 102q9 63 52.5 101t115.5 38t103 -38t20 -101q-9 -64 -52 -102t-114 -38zM184 -496q-115 0 -173.5 61.5t-43.5 170.5q11 74 57 135t130 129h-48l148 920h-164l31 184h401l-28 -184l-146 -906l10 -14l-67 -53q-134 -99 -148 -183
q-6 -43 16.5 -66.5t69.5 -23.5q57 0 109 19l-29 -170q-59 -19 -125 -19z" />
    <glyph glyph-name="Idotaccent" unicode="&#x130;" horiz-adv-x="655" 
d="M436 1653q-72 0 -104 38t-23 101q11 63 55.5 101t116.5 38t104 -38t23 -101t-54.5 -101t-117.5 -38zM332 0h-246l238 1495h245z" />
    <glyph glyph-name="dotlessi" unicode="&#x131;" horiz-adv-x="649" 
d="M383 0h-242l146 920h-162l29 184h403z" />
    <glyph glyph-name="Jcircumflex" unicode="&#x134;" horiz-adv-x="1312" 
d="M612 1612h-217l320 346h286l213 -346h-221l-139 229h-33zM481 -37q-233 0 -357 154.5t-87 392.5l8 59h246l-12 -90q-22 -126 45.5 -207.5t193.5 -81.5q137 0 223 75t109 214l125 799h-627l35 217h872l-34 -217l-123 -768q-40 -261 -199.5 -404t-417.5 -143z" />
    <glyph glyph-name="jcircumflex" unicode="&#x135;" horiz-adv-x="663" 
d="M201 1253h-197l285 414h280l156 -414h-199l-104 297h-21zM-78 -418h-76l33 209h101q77 0 125.5 42t60.5 118l151 969h-165l28 184h398l-29 -184l-150 -947q-33 -216 -142.5 -303.5t-334.5 -87.5z" />
    <glyph glyph-name="Kcommaaccent" unicode="&#x136;" horiz-adv-x="1439" 
d="M328 0h-246l237 1495h246l-110 -698l700 698h281l-660 -655l563 -840h-301l-467 698h-133zM588 -596h-27l21 119h30q68 0 110.5 39.5t51.5 105.5q-27 -10 -55 -10q-52 0 -81 30.5t-20 86.5q10 61 54 94t102 33q76 0 114 -56t21 -159l-2 -13q-21 -129 -107 -199.5
t-212 -70.5z" />
    <glyph glyph-name="kcommaaccent" unicode="&#x137;" horiz-adv-x="1218" 
d="M416 0h-242l238 1495h241l-147 -934l532 543h252l-467 -471l391 -633h-274l-309 514h-133zM807 -98q75 0 110.5 -55.5t18.5 -159.5l-2 -13q-20 -127 -99.5 -192.5t-207.5 -65.5h-25l19 117h28q69 0 107.5 35t46.5 94l2 19q-23 -13 -53 -13q-48 0 -75 29t-18 84
q8 61 49.5 91t98.5 30z" />
    <glyph glyph-name="Lacute" unicode="&#x139;" horiz-adv-x="1124" 
d="M510 1612h-223l313 346h270zM952 0h-870l237 1495h246l-203 -1276h625z" />
    <glyph glyph-name="lacute" unicode="&#x13a;" horiz-adv-x="606" 
d="M440 1612h-225l313 346h271zM311 0h-241l209 1311h-146l29 184h387z" />
    <glyph glyph-name="Lcommaaccent" unicode="&#x13b;" horiz-adv-x="1124" 
d="M952 0h-870l237 1495h246l-203 -1276h625zM434 -596h-26l18 119h31q69 0 112 39.5t52 105.5q-27 -10 -56 -10q-52 0 -80.5 30.5t-19.5 86.5q9 61 52.5 94t100.5 33q77 0 115.5 -56.5t20.5 -158.5l-2 -13q-20 -128 -105.5 -199t-212.5 -71z" />
    <glyph glyph-name="lcommaaccent" unicode="&#x13c;" horiz-adv-x="606" 
d="M311 0h-241l209 1311h-146l29 184h387zM156 -98q75 0 110.5 -55.5t18.5 -159.5l-2 -13q-20 -126 -99.5 -192t-208.5 -66h-24l18 117h29q69 0 107.5 35t46.5 94l2 19q-23 -13 -54 -13q-47 0 -74 28.5t-18 84.5q8 61 49.5 91t98.5 30z" />
    <glyph glyph-name="Lcaron" unicode="&#x13d;" horiz-adv-x="1124" 
d="M932 1180h-172l80 503h200zM952 0h-870l237 1495h246l-203 -1276h625z" />
    <glyph glyph-name="lcaron" unicode="&#x13e;" horiz-adv-x="606" 
d="M795 1165h-172l79 504h199zM311 0h-241l209 1311h-146l29 184h387z" />
    <glyph glyph-name="Lslash" unicode="&#x141;" horiz-adv-x="1124" 
d="M952 0h-870l84 524l-160 -84l33 205l160 84l120 766h246l-100 -633l371 197l-33 -203l-371 -197l-70 -440h625z" />
    <glyph glyph-name="lslash" unicode="&#x142;" horiz-adv-x="606" 
d="M311 0h-241l84 524l-168 -88l26 178l170 88l97 609h-146l29 184h387l-105 -664l166 87l-30 -179l-164 -86z" />
    <glyph glyph-name="Nacute" unicode="&#x143;" horiz-adv-x="1757" 
d="M1100 1612h-226l314 346h270zM311 0h-229l237 1495h402l491 -1284h27l203 1284h233l-237 -1495h-406l-491 1284h-25z" />
    <glyph glyph-name="nacute" unicode="&#x144;" horiz-adv-x="1318" 
d="M823 1253h-200l245 414h250zM326 0h-242l176 1104h191l-43 -270q125 303 430 303h10q124 0 206 -68t111 -181.5t6 -256.5l-100 -631h-242l107 664q17 111 -39.5 183.5t-163.5 72.5q-126 0 -204.5 -70t-98.5 -197z" />
    <glyph glyph-name="Ncommaaccent" unicode="&#x145;" horiz-adv-x="1757" 
d="M311 0h-229l237 1495h402l491 -1284h27l203 1284h233l-237 -1495h-406l-491 1284h-25zM655 -596h-26l20 119h31q68 0 110.5 39.5t51.5 105.5q-27 -10 -56 -10q-52 0 -80.5 30.5t-19.5 86.5q10 61 54 94t102 33q76 0 114 -56t21 -159l-2 -13q-21 -129 -107 -199.5
t-213 -70.5z" />
    <glyph glyph-name="ncommaaccent" unicode="&#x146;" horiz-adv-x="1318" 
d="M326 0h-242l176 1104h191l-43 -270q125 303 430 303h10q124 0 206 -68t111 -181.5t6 -256.5l-100 -631h-242l107 664q17 111 -39.5 183.5t-163.5 72.5q-126 0 -204.5 -70t-98.5 -197zM649 -98q74 0 109 -56t18 -159l-2 -13q-20 -127 -99.5 -192.5t-207.5 -65.5h-25
l21 117h29q68 0 106.5 35.5t46.5 93.5l2 19q-26 -13 -55 -13q-47 0 -74 28.5t-18 84.5q10 61 51 91t98 30z" />
    <glyph glyph-name="Ncaron" unicode="&#x147;" horiz-adv-x="1757" 
d="M1151 1612h-283l-213 346h222l137 -227h35l192 227h217zM311 0h-229l237 1495h402l491 -1284h27l203 1284h233l-237 -1495h-406l-491 1284h-25z" />
    <glyph glyph-name="ncaron" unicode="&#x148;" horiz-adv-x="1318" 
d="M879 1253h-279l-158 414h201l109 -297h18l178 297h193zM326 0h-242l176 1104h191l-43 -270q125 303 430 303h10q124 0 206 -68t111 -181.5t6 -256.5l-100 -631h-242l107 664q17 111 -39.5 183.5t-163.5 72.5q-126 0 -204.5 -70t-98.5 -197z" />
    <glyph glyph-name="Eng" unicode="&#x14a;" horiz-adv-x="1757" 
d="M899 -469h-203l35 215h230q204 0 241 221l8 58h-186l-483 1259h-27l-203 -1284h-229l237 1495h402l489 -1274h29l203 1274h233l-237 -1501q-75 -463 -539 -463z" />
    <glyph glyph-name="eng" unicode="&#x14b;" horiz-adv-x="1318" 
d="M326 0h-242l176 1104h191l-43 -270q125 303 430 303h10q124 0 206 -68t111 -181.5t6 -256.5l-92 -584l-6 -41l-2 -6l-4 -23q-32 -204 -149 -296.5t-336 -92.5h-109l33 211h131q80 0 127 40.5t59 115.5l8 45h-2l107 664q17 111 -39.5 183.5t-163.5 72.5q-126 0 -204.5 -70
t-98.5 -197z" />
    <glyph glyph-name="Omacron" unicode="&#x14c;" horiz-adv-x="1771" 
d="M1368 1692h-721l27 170h721zM760 -37q-168 0 -304.5 57t-223.5 157.5t-123 243t-9 308.5l6 45q58 367 293 565.5t609 198.5q168 0 304.5 -57t223 -157.5t122.5 -242.5t9 -307l-6 -45q-57 -368 -292 -567t-609 -199zM795 190q259 0 418 147.5t202 412.5q24 160 -22 287.5
t-155.5 200.5t-264.5 73q-259 0 -419 -147.5t-202 -413.5q-25 -160 21.5 -287.5t156.5 -200t265 -72.5z" />
    <glyph glyph-name="omacron" unicode="&#x14d;" horiz-adv-x="1388" 
d="M1094 1352h-613l27 170h612zM598 -37q-260 0 -403 158.5t-105 408.5l8 41q44 275 223 422.5t463 147.5q171 0 295.5 -72.5t180.5 -202.5t30 -295l-6 -41q-42 -275 -221.5 -421t-464.5 -146zM631 172q174 0 281 99.5t135 279.5q27 166 -55 273.5t-240 107.5
q-174 0 -281 -100.5t-135 -280.5q-26 -164 56 -271.5t239 -107.5z" />
    <glyph glyph-name="Obreve" unicode="&#x14e;" horiz-adv-x="1771" 
d="M983 1597q-172 0 -244.5 98t-54.5 263h170q-10 -92 26.5 -146.5t129.5 -54.5q95 0 152 55t77 146h160q-34 -165 -138.5 -263t-277.5 -98zM760 -37q-168 0 -304.5 57t-223.5 157.5t-123 243t-9 308.5l6 45q58 367 293 565.5t609 198.5q168 0 304.5 -57t223 -157.5
t122.5 -242.5t9 -307l-6 -45q-57 -368 -292 -567t-609 -199zM795 190q259 0 418 147.5t202 412.5q24 160 -22 287.5t-155.5 200.5t-264.5 73q-259 0 -419 -147.5t-202 -413.5q-25 -160 21.5 -287.5t156.5 -200t265 -72.5z" />
    <glyph glyph-name="obreve" unicode="&#x14f;" horiz-adv-x="1388" 
d="M762 1241q-160 0 -227 108.5t-41 317.5h170q-27 -262 122 -262q155 0 211 262h162q-79 -426 -397 -426zM598 -37q-260 0 -403 158.5t-105 408.5l8 41q44 275 223 422.5t463 147.5q171 0 295.5 -72.5t180.5 -202.5t30 -295l-6 -41q-42 -275 -221.5 -421t-464.5 -146z
M631 172q174 0 281 99.5t135 279.5q27 166 -55 273.5t-240 107.5q-174 0 -281 -100.5t-135 -280.5q-26 -164 56 -271.5t239 -107.5z" />
    <glyph glyph-name="Ohungarumlaut" unicode="&#x150;" horiz-adv-x="1771" 
d="M1229 1612h-180l231 346h227zM872 1612h-180l232 346h227zM760 -37q-168 0 -304.5 57t-223.5 157.5t-123 243t-9 308.5l6 45q58 367 293 565.5t609 198.5q168 0 304.5 -57t223 -157.5t122.5 -242.5t9 -307l-6 -45q-57 -368 -292 -567t-609 -199zM795 190q259 0 418 147.5
t202 412.5q24 160 -22 287.5t-155.5 200.5t-264.5 73q-259 0 -419 -147.5t-202 -413.5q-25 -160 21.5 -287.5t156.5 -200t265 -72.5z" />
    <glyph glyph-name="ohungarumlaut" unicode="&#x151;" horiz-adv-x="1388" 
d="M1018 1253h-180l215 414h211zM672 1253h-180l217 414h211zM598 -37q-260 0 -403 158.5t-105 408.5l8 41q44 275 223 422.5t463 147.5q171 0 295.5 -72.5t180.5 -202.5t30 -295l-6 -41q-42 -275 -221.5 -421t-464.5 -146zM631 172q174 0 281 99.5t135 279.5
q27 166 -55 273.5t-240 107.5q-174 0 -281 -100.5t-135 -280.5q-26 -164 56 -271.5t239 -107.5z" />
    <glyph glyph-name="OE" unicode="&#x152;" horiz-adv-x="2154" 
d="M768 -41q-90 0 -170.5 15.5t-144 43.5t-117 67t-93 85.5t-69.5 100.5t-48.5 110.5t-27.5 115.5t-9 116.5t9 113.5l8 45q17 112 64 220.5t127 207.5t183 174t242.5 119.5t295.5 44.5q162 0 270 -43h844l-33 -213h-643l-65 -416h604l-33 -213h-604l-70 -440h660l-33 -213
h-862q-118 -41 -285 -41zM805 182q130 0 242 37l167 1057q-101 37 -231 37q-123 0 -232.5 -44t-189.5 -120.5t-134 -179.5t-73 -221q-18 -113 4 -215.5t77.5 -180.5t151 -124t218.5 -46z" />
    <glyph glyph-name="oe" unicode="&#x153;" horiz-adv-x="2207" 
d="M594 -37q-94 0 -174.5 22t-138 61t-101.5 92.5t-65.5 116.5t-30 133t5.5 142l8 41q17 111 73.5 213.5t142.5 182t207.5 127t258.5 47.5q166 0 274 -65.5t158 -178.5q77 112 195.5 178t275.5 66q86 0 159 -20.5t124 -58t89 -88.5t56 -111.5t24 -129t-7 -139.5l-14 -94
h-852q-13 -153 55 -241.5t221 -88.5q114 0 195.5 44.5t111.5 115.5h223q-63 -172 -211.5 -269.5t-347.5 -97.5q-165 0 -264.5 66.5t-140.5 179.5q-182 -246 -510 -246zM1649 934q-130 0 -221.5 -73.5t-133.5 -203.5h613q3 131 -62.5 204t-195.5 73zM629 174q164 0 276 106
t137 271q27 166 -52 273.5t-240 107.5q-162 0 -275 -106t-141 -275q-25 -167 52.5 -272t242.5 -105z" />
    <glyph glyph-name="Racute" unicode="&#x154;" horiz-adv-x="1454" 
d="M885 1612h-223l313 346h270zM330 0h-246l238 1505h522q246 0 385 -131t106 -346l-6 -33q-51 -335 -362 -436l327 -559h-293l-294 520h-19h-276zM846 1292h-311l-91 -565h310q136 0 220.5 73.5t106.5 209.5q20 123 -45.5 202.5t-189.5 79.5z" />
    <glyph glyph-name="racute" unicode="&#x155;" horiz-adv-x="847" 
d="M623 1253h-203l246 414h249zM326 0h-242l176 1104h191l-58 -356q51 175 168 271.5t297 96.5h39l-35 -211h-74q-153 0 -249 -83t-121 -236z" />
    <glyph glyph-name="Rcommaaccent" unicode="&#x156;" horiz-adv-x="1454" 
d="M330 0h-246l238 1505h522q246 0 385 -131t106 -346l-6 -33q-51 -335 -362 -436l327 -559h-293l-294 520h-19h-276zM846 1292h-311l-91 -565h310q136 0 220.5 73.5t106.5 209.5q20 123 -45.5 202.5t-189.5 79.5zM567 -596h-26l18 119h31q69 0 112 39.5t52 105.5
q-27 -10 -56 -10q-52 0 -80.5 30.5t-19.5 86.5q9 61 53 94t101 33q76 0 114.5 -56.5t20.5 -158.5l-2 -13q-20 -128 -105.5 -199t-212.5 -71z" />
    <glyph glyph-name="rcommaaccent" unicode="&#x157;" horiz-adv-x="847" 
d="M326 0h-242l176 1104h191l-58 -356q51 175 168 271.5t297 96.5h39l-35 -211h-74q-153 0 -249 -83t-121 -236zM430 -98q74 0 109 -56t18 -159l-2 -13q-20 -127 -99.5 -192.5t-207.5 -65.5h-25l21 117h28q68 0 107 35.5t47 93.5l2 19q-26 -13 -55 -13q-47 0 -74 28.5
t-18 84.5q10 61 51 91t98 30z" />
    <glyph glyph-name="Rcaron" unicode="&#x158;" horiz-adv-x="1454" 
d="M936 1612h-281l-215 346h224l137 -227h33l194 227h215zM330 0h-246l238 1505h522q246 0 385 -131t106 -346l-6 -33q-51 -335 -362 -436l327 -559h-293l-294 520h-19h-276zM846 1292h-311l-91 -565h310q136 0 220.5 73.5t106.5 209.5q20 123 -45.5 202.5t-189.5 79.5z" />
    <glyph glyph-name="rcaron" unicode="&#x159;" horiz-adv-x="847" 
d="M678 1253h-281l-155 414h200l107 -297h20l179 297h192zM326 0h-242l176 1104h191l-58 -356q51 175 168 271.5t297 96.5h39l-35 -211h-74q-153 0 -249 -83t-121 -236z" />
    <glyph glyph-name="Sacute" unicode="&#x15a;" horiz-adv-x="1396" 
d="M877 1612h-224l314 346h270zM571 -37q-170 0 -296.5 57t-189 168t-38.5 258h242q-20 -125 70 -195.5t245 -70.5q353 0 395 254q16 95 -57 145t-205 62l-145 14q-199 15 -307.5 129.5t-79.5 292.5q36 228 196.5 344.5t411.5 116.5q232 0 364 -131t99 -342h-244
q18 115 -54 185.5t-200 70.5q-136 0 -223.5 -61t-108.5 -183q-13 -86 43.5 -140t157.5 -63l148 -12q109 -9 197 -41.5t150 -85.5t89 -130t12 -171q-19 -123 -77 -214.5t-147 -147t-200.5 -82.5t-247.5 -27z" />
    <glyph glyph-name="sacute" unicode="&#x15b;" horiz-adv-x="1112" 
d="M696 1253h-200l245 414h250zM461 -33q-98 0 -179.5 23.5t-138.5 67.5t-84 112t-16 152h219q-7 -83 57.5 -123.5t174.5 -40.5q56 0 99 7t81 23.5t61.5 48.5t30.5 78q10 67 -42 101.5t-146 44.5l-107 10q-162 18 -251 102t-68 220q28 176 157 260t332 84q187 0 296 -91
t89 -251h-219q6 73 -49.5 111t-149.5 38q-212 0 -233 -145q-10 -58 32.5 -90.5t120.5 -42.5l107 -11q178 -20 277 -105t75 -228q-15 -94 -60.5 -163.5t-116 -111t-157 -61t-192.5 -19.5z" />
    <glyph glyph-name="Scircumflex" unicode="&#x15c;" horiz-adv-x="1396" 
d="M602 1612h-215l318 346h286l213 -346h-221l-139 229h-33zM571 -37q-170 0 -296.5 57t-189 168t-38.5 258h242q-20 -125 70 -195.5t245 -70.5q353 0 395 254q16 95 -57 145t-205 62l-145 14q-199 15 -307.5 129.5t-79.5 292.5q36 228 196.5 344.5t411.5 116.5
q232 0 364 -131t99 -342h-244q18 115 -54 185.5t-200 70.5q-136 0 -223.5 -61t-108.5 -183q-13 -86 43.5 -140t157.5 -63l148 -12q109 -9 197 -41.5t150 -85.5t89 -130t12 -171q-19 -123 -77 -214.5t-147 -147t-200.5 -82.5t-247.5 -27z" />
    <glyph glyph-name="scircumflex" unicode="&#x15d;" horiz-adv-x="1112" 
d="M453 1253h-197l285 414h280l154 -414h-199l-104 297h-19zM461 -33q-98 0 -179.5 23.5t-138.5 67.5t-84 112t-16 152h219q-7 -83 57.5 -123.5t174.5 -40.5q56 0 99 7t81 23.5t61.5 48.5t30.5 78q10 67 -42 101.5t-146 44.5l-107 10q-162 18 -251 102t-68 220
q28 176 157 260t332 84q187 0 296 -91t89 -251h-219q6 73 -49.5 111t-149.5 38q-212 0 -233 -145q-10 -58 32.5 -90.5t120.5 -42.5l107 -11q178 -20 277 -105t75 -228q-15 -94 -60.5 -163.5t-116 -111t-157 -61t-192.5 -19.5z" />
    <glyph glyph-name="Scedilla" unicode="&#x15e;" horiz-adv-x="1396" 
d="M571 -37q-170 0 -296.5 57t-189 168t-38.5 258h242q-20 -125 70 -195.5t245 -70.5q353 0 395 254q16 95 -57 145t-205 62l-145 14q-199 15 -307.5 129.5t-79.5 292.5q36 228 196.5 344.5t411.5 116.5q232 0 364 -131t99 -342h-244q18 115 -54 185.5t-200 70.5
q-136 0 -223.5 -61t-108.5 -183q-13 -86 43.5 -140t157.5 -63l148 -12q109 -9 197 -41.5t150 -85.5t89 -130t12 -171q-31 -195 -154 -307t-319 -147l-12 -78q97 -12 146 -63t36 -134q-15 -99 -106.5 -165t-227.5 -66q-91 0 -153 20l24 164q75 -23 150 -23q64 0 101.5 19
t43.5 51q5 28 -21.5 45t-80.5 17h-92l30 196h-37z" />
    <glyph glyph-name="scedilla" unicode="&#x15f;" horiz-adv-x="1112" 
d="M446 -514q-83 0 -145 20l25 154q78 -20 141 -20q60 0 94 18.5t39 50.5q5 30 -17.5 47t-74.5 17h-88l33 194q-130 1 -227 41.5t-147.5 122t-35.5 191.5h219q-7 -83 57.5 -123.5t174.5 -40.5q56 0 99 7t81 23.5t61.5 48.5t30.5 78q10 67 -42 101.5t-146 44.5l-107 10
q-162 18 -251 102t-68 220q28 176 157 260t332 84q187 0 296 -91t89 -251h-219q6 73 -49.5 111t-149.5 38q-212 0 -233 -145q-10 -58 32.5 -90.5t120.5 -42.5l107 -11q178 -20 277 -105t75 -228q-46 -297 -389 -345l-12 -75q97 -11 145 -60.5t33 -132.5q-14 -97 -100 -160
t-218 -63z" />
    <glyph glyph-name="Scaron" unicode="&#x160;" horiz-adv-x="1396" 
d="M930 1612h-283l-213 346h221l138 -227h34l193 227h217zM571 -37q-170 0 -296.5 57t-189 168t-38.5 258h242q-20 -125 70 -195.5t245 -70.5q353 0 395 254q16 95 -57 145t-205 62l-145 14q-199 15 -307.5 129.5t-79.5 292.5q36 228 196.5 344.5t411.5 116.5
q232 0 364 -131t99 -342h-244q18 115 -54 185.5t-200 70.5q-136 0 -223.5 -61t-108.5 -183q-13 -86 43.5 -140t157.5 -63l148 -12q109 -9 197 -41.5t150 -85.5t89 -130t12 -171q-19 -123 -77 -214.5t-147 -147t-200.5 -82.5t-247.5 -27z" />
    <glyph glyph-name="scaron" unicode="&#x161;" horiz-adv-x="1112" 
d="M752 1253h-279l-156 414h199l109 -297h18l180 297h191zM461 -33q-98 0 -179.5 23.5t-138.5 67.5t-84 112t-16 152h219q-7 -83 57.5 -123.5t174.5 -40.5q56 0 99 7t81 23.5t61.5 48.5t30.5 78q10 67 -42 101.5t-146 44.5l-107 10q-162 18 -251 102t-68 220q28 176 157 260
t332 84q187 0 296 -91t89 -251h-219q6 73 -49.5 111t-149.5 38q-212 0 -233 -145q-10 -58 32.5 -90.5t120.5 -42.5l107 -11q178 -20 277 -105t75 -228q-15 -94 -60.5 -163.5t-116 -111t-157 -61t-192.5 -19.5z" />
    <glyph glyph-name="Tcedilla" unicode="&#x162;" horiz-adv-x="1232" 
d="M621 0h-19l-16 -98q98 -12 147 -63t37 -134q-15 -100 -107 -165.5t-229 -65.5q-93 0 -151 20l24 164q75 -23 150 -23q64 0 101 19t42 51q5 28 -21.5 45t-80.5 17h-90l36 233h-69l203 1278h-443l35 217h1133l-35 -217h-445z" />
    <glyph glyph-name="tcedilla" unicode="&#x163;" horiz-adv-x="878" 
d="M403 -514q-87 0 -145 20l23 154q78 -20 141 -20q61 0 95.5 18.5t39.5 50.5q3 31 -19 47.5t-75 16.5h-88l37 225q-140 31 -210 138t-46 259l84 531h-183l27 178h184l51 321h228l-51 -321h358l-27 -178h-360l-86 -551q-12 -77 29.5 -127.5t119.5 -50.5h183l-33 -209h-125
l-12 -86q97 -11 144 -60.5t34 -132.5q-15 -97 -101.5 -160t-216.5 -63z" />
    <glyph glyph-name="Tcaron" unicode="&#x164;" horiz-adv-x="1232" 
d="M854 1612h-281l-215 346h224l137 -227h33l194 227h215zM621 0h-246l203 1278h-443l35 217h1133l-35 -217h-445z" />
    <glyph glyph-name="tcaron" unicode="&#x165;" horiz-adv-x="878" 
d="M817 1251h-172l80 504h199zM680 -12h-166q-185 0 -286 114t-72 293l84 531h-183l27 178h184l51 321h228l-51 -321h358l-27 -178h-360l-86 -551q-12 -77 29.5 -127.5t119.5 -50.5h183z" />
    <glyph glyph-name="Tbar" unicode="&#x166;" horiz-adv-x="1232" 
d="M621 0h-246l100 639h-309l29 186h311l72 453h-443l35 217h1133l-35 -217h-445l-71 -453h311l-29 -186h-313z" />
    <glyph glyph-name="tbar" unicode="&#x167;" horiz-adv-x="878" 
d="M680 -12h-166q-185 0 -286 114t-72 293l20 125h-96l22 148h97l41 258h-183l27 178h184l51 321h228l-51 -321h358l-27 -178h-360l-39 -258h399l-22 -148h-402l-22 -145q-12 -77 29.5 -127.5t119.5 -50.5h183z" />
    <glyph glyph-name="Utilde" unicode="&#x168;" horiz-adv-x="1607" 
d="M1090 1645q-53 0 -98 15.5t-71 34.5t-64.5 34.5t-80.5 15.5q-111 0 -190 -82l-15 158q39 44 101 72t135 28q53 0 97.5 -15.5t70.5 -34.5t64.5 -34.5t80.5 -15.5q55 0 106 22.5t85 61.5l16 -160q-43 -44 -104.5 -72t-132.5 -28zM598 -37q-183 0 -314.5 81.5t-188.5 226
t-29 327.5l143 897h246l-146 -917q-28 -169 64 -278.5t262 -109.5q185 0 300.5 101.5t143.5 286.5l146 917h245l-141 -897q-47 -304 -236.5 -469.5t-494.5 -165.5z" />
    <glyph glyph-name="utilde" unicode="&#x169;" horiz-adv-x="1298" 
d="M862 1300q-49 0 -89.5 16.5t-64.5 36t-58.5 36t-71.5 16.5q-84 0 -162 -78l-13 162q92 92 207 92q49 0 90 -16.5t64.5 -35.5t57.5 -35.5t71 -16.5q88 0 168 77l10 -161q-97 -93 -209 -93zM471 -33h-10q-123 0 -205 66.5t-112 179t-7 252.5l101 639h241l-106 -672
q-17 -107 37 -177.5t157 -70.5q123 0 198.5 69.5t96.5 195.5l103 655h241l-174 -1104h-190l41 262q-118 -295 -412 -295z" />
    <glyph glyph-name="Umacron" unicode="&#x16a;" horiz-adv-x="1607" 
d="M1286 1692h-721l27 170h721zM598 -37q-183 0 -314.5 81.5t-188.5 226t-29 327.5l143 897h246l-146 -917q-28 -169 64 -278.5t262 -109.5q185 0 300.5 101.5t143.5 286.5l146 917h245l-141 -897q-47 -304 -236.5 -469.5t-494.5 -165.5z" />
    <glyph glyph-name="umacron" unicode="&#x16b;" horiz-adv-x="1298" 
d="M1034 1352h-612l27 170h612zM471 -33h-10q-123 0 -205 66.5t-112 179t-7 252.5l101 639h241l-106 -672q-17 -107 37 -177.5t157 -70.5q123 0 198.5 69.5t96.5 195.5l103 655h241l-174 -1104h-190l41 262q-118 -295 -412 -295z" />
    <glyph glyph-name="Ubreve" unicode="&#x16c;" horiz-adv-x="1607" 
d="M901 1597q-172 0 -244.5 98t-54.5 263h170q-10 -92 26.5 -146.5t129.5 -54.5q95 0 152 55t77 146h160q-34 -165 -138.5 -263t-277.5 -98zM598 -37q-183 0 -314.5 81.5t-188.5 226t-29 327.5l143 897h246l-146 -917q-28 -169 64 -278.5t262 -109.5q185 0 300.5 101.5
t143.5 286.5l146 917h245l-141 -897q-47 -304 -236.5 -469.5t-494.5 -165.5z" />
    <glyph glyph-name="ubreve" unicode="&#x16d;" horiz-adv-x="1298" 
d="M702 1241q-160 0 -227 108.5t-41 317.5h170q-27 -262 123 -262q155 0 211 262h162q-39 -209 -138.5 -317.5t-259.5 -108.5zM471 -33h-10q-123 0 -205 66.5t-112 179t-7 252.5l101 639h241l-106 -672q-17 -107 37 -177.5t157 -70.5q123 0 198.5 69.5t96.5 195.5l103 655
h241l-174 -1104h-190l41 262q-118 -295 -412 -295z" />
    <glyph glyph-name="Uring" unicode="&#x16e;" horiz-adv-x="1607" 
d="M893 1569q-112 0 -171 64t-44 161q14 95 93.5 159t193.5 64q113 0 171.5 -63.5t43.5 -159.5q-15 -97 -94.5 -161t-192.5 -64zM913 1690q54 0 89.5 29t41.5 75q8 45 -18 73.5t-80 28.5q-55 0 -91 -28.5t-42 -73.5q-8 -45 19 -74.5t81 -29.5zM598 -37q-183 0 -314.5 81.5
t-188.5 226t-29 327.5l143 897h246l-146 -917q-28 -169 64 -278.5t262 -109.5q185 0 300.5 101.5t143.5 286.5l146 917h245l-141 -897q-47 -304 -236.5 -469.5t-494.5 -165.5z" />
    <glyph glyph-name="uring" unicode="&#x16f;" horiz-adv-x="1298" 
d="M694 1233q-106 0 -161.5 66.5t-38.5 168.5q15 102 91.5 169t182.5 67t163 -67t42 -169t-93.5 -168.5t-185.5 -66.5zM715 1356q49 0 84 31t43 81t-17 81.5t-75 31.5q-49 0 -84 -31.5t-43 -81.5t17 -81t75 -31zM471 -33h-10q-123 0 -205 66.5t-112 179t-7 252.5l101 639
h241l-106 -672q-17 -107 37 -177.5t157 -70.5q123 0 198.5 69.5t96.5 195.5l103 655h241l-174 -1104h-190l41 262q-118 -295 -412 -295z" />
    <glyph glyph-name="Uhungarumlaut" unicode="&#x170;" horiz-adv-x="1607" 
d="M1147 1612h-180l231 346h227zM791 1612h-181l232 346h227zM598 -37q-183 0 -314.5 81.5t-188.5 226t-29 327.5l143 897h246l-146 -917q-28 -169 64 -278.5t262 -109.5q185 0 300.5 101.5t143.5 286.5l146 917h245l-141 -897q-47 -304 -236.5 -469.5t-494.5 -165.5z" />
    <glyph glyph-name="uhungarumlaut" unicode="&#x171;" horiz-adv-x="1298" 
d="M958 1253h-180l215 414h211zM612 1253h-180l217 414h211zM471 -33h-10q-123 0 -205 66.5t-112 179t-7 252.5l101 639h241l-106 -672q-17 -107 37 -177.5t157 -70.5q123 0 198.5 69.5t96.5 195.5l103 655h241l-174 -1104h-190l41 262q-118 -295 -412 -295z" />
    <glyph glyph-name="Uogonek" unicode="&#x172;" horiz-adv-x="1607" 
d="M598 -37q-183 0 -314.5 81.5t-188.5 226t-29 327.5l143 897h246l-146 -917q-28 -169 64 -278.5t262 -109.5q185 0 300.5 101.5t143.5 286.5l146 917h245l-141 -897q-34 -216 -142 -364.5t-280 -217.5l8 -12l-73 -51q-65 -41 -105 -90t-47 -96q-6 -48 18.5 -79.5
t79.5 -31.5q58 0 105 18l-29 -176q-62 -16 -125 -16q-119 0 -183.5 71.5t-47.5 182.5q20 120 127 227h-37z" />
    <glyph glyph-name="uogonek" unicode="&#x173;" horiz-adv-x="1298" 
d="M471 -33h-10q-123 0 -205 66.5t-112 179t-7 252.5l101 639h241l-106 -672q-17 -107 37 -177.5t157 -70.5q123 0 198.5 69.5t96.5 195.5l103 655h241l-159 -1014l63 -90l-70 -53q-134 -99 -145 -183q-7 -43 15.5 -66.5t70.5 -23.5q54 0 106 19l-26 -170q-63 -19 -125 -19
q-117 0 -175.5 61.5t-41.5 170.5q11 74 56.5 135t129.5 129h-63l41 262q-118 -295 -412 -295z" />
    <glyph glyph-name="Wcircumflex" unicode="&#x174;" horiz-adv-x="2154" 
d="M993 1612h-217l318 346h288l211 -346h-221l-137 229h-35zM727 0h-399l-154 1495h254l113 -1284h61l449 1225h284l95 -1225h59l487 1284h242l-590 -1495h-403l-88 1083z" />
    <glyph glyph-name="wcircumflex" unicode="&#x175;" horiz-adv-x="1787" 
d="M797 1253h-197l285 414h280l154 -414h-199l-104 297h-19zM623 0h-357l-131 1104h232l100 -909h41l315 872h297l68 -872h41l356 909h219l-442 -1104h-356l-70 856z" />
    <glyph glyph-name="Ycircumflex" unicode="&#x176;" horiz-adv-x="1339" 
d="M580 1612h-218l318 346h289l213 -346h-224l-137 229h-35zM684 0h-240l93 578h-74l-318 917h254l244 -731h94l451 731h239l-577 -917h-74z" />
    <glyph glyph-name="ycircumflex" unicode="&#x177;" horiz-adv-x="1136" 
d="M471 1253h-197l285 414h281l153 -414h-198l-105 297h-18zM131 -432h-164l33 211h182q181 0 256 170l33 76h-149l-207 1079h243l154 -885h45l385 885h234l-539 -1213q-145 -323 -506 -323z" />
    <glyph glyph-name="Ydieresis" unicode="&#x178;" horiz-adv-x="1339" 
d="M555 1653q-72 0 -104 38t-23 101t54.5 101t117.5 38t104 -38t21 -101q-9 -63 -53.5 -101t-116.5 -38zM997 1653q-72 0 -104 38t-23 101t54.5 101t117.5 38t104 -38t21 -101q-9 -63 -53.5 -101t-116.5 -38zM684 0h-240l93 578h-74l-318 917h254l244 -731h94l451 731h239
l-577 -917h-74z" />
    <glyph glyph-name="Zacute" unicode="&#x179;" horiz-adv-x="1335" 
d="M854 1612h-223l313 346h270zM1128 0h-1136l39 248l1020 1018l-17 26h-815l31 203h1100l-41 -248l-1018 -1016l16 -26h854z" />
    <glyph glyph-name="zacute" unicode="&#x17a;" horiz-adv-x="1009" 
d="M647 1253h-203l246 414h252zM854 0h-836l35 223l664 670l-10 22h-549l28 189h813l-34 -223l-668 -672l10 -21h576z" />
    <glyph glyph-name="Zdotaccent" unicode="&#x17b;" horiz-adv-x="1335" 
d="M778 1653q-72 0 -105 38t-24 101q11 63 55.5 101t116.5 38t104 -38t23 -101t-53.5 -101t-116.5 -38zM1128 0h-1136l39 248l1020 1018l-17 26h-815l31 203h1100l-41 -248l-1018 -1016l16 -26h854z" />
    <glyph glyph-name="zdotaccent" unicode="&#x17c;" horiz-adv-x="1009" 
d="M582 1311q-71 0 -100.5 37t-20.5 100q9 62 51 99.5t113 37.5q69 0 99 -38t21 -99q-9 -63 -50.5 -100t-112.5 -37zM854 0h-836l35 223l664 670l-10 22h-549l28 189h813l-34 -223l-668 -672l10 -21h576z" />
    <glyph glyph-name="Zcaron" unicode="&#x17d;" horiz-adv-x="1335" 
d="M907 1612h-282l-213 346h221l137 -227h35l192 227h217zM1128 0h-1136l39 248l1020 1018l-17 26h-815l31 203h1100l-41 -248l-1018 -1016l16 -26h854z" />
    <glyph glyph-name="zcaron" unicode="&#x17e;" horiz-adv-x="1009" 
d="M702 1253h-280l-156 414h201l106 -297h21l178 297h193zM854 0h-836l35 223l664 670l-10 22h-549l28 189h813l-34 -223l-668 -672l10 -21h576z" />
    <glyph glyph-name="Aringacute" unicode="&#x1fa;" horiz-adv-x="1566" 
d="M1036 2083h-225l313 346h271zM864 1569q-113 0 -172.5 64t-44.5 161q15 96 95 159.5t192 63.5q113 0 172 -63.5t45 -159.5q-15 -97 -94.5 -161t-192.5 -64zM883 1690q54 0 89.5 29t43.5 75q6 45 -20.5 73.5t-80.5 28.5t-89.5 -28.5t-43.5 -73.5q-6 -46 20.5 -75t80.5 -29
zM174 0h-246l762 1495h408l303 -1495h-254l-84 422h-676zM494 635h528l-127 649h-76z" />
    <glyph glyph-name="Scommaaccent" unicode="&#x218;" horiz-adv-x="1396" 
d="M571 -37q-170 0 -296.5 57t-189 168t-38.5 258h242q-20 -125 70 -195.5t245 -70.5q353 0 395 254q16 95 -57 145t-205 62l-145 14q-199 15 -307.5 129.5t-79.5 292.5q36 228 196.5 344.5t411.5 116.5q232 0 364 -131t99 -342h-244q18 115 -54 185.5t-200 70.5
q-136 0 -223.5 -61t-108.5 -183q-13 -86 43.5 -140t157.5 -63l148 -12q109 -9 197 -41.5t150 -85.5t89 -130t12 -171q-19 -123 -77 -214.5t-147 -147t-200.5 -82.5t-247.5 -27zM463 -596h-27l21 119h30q68 0 110.5 39.5t51.5 105.5q-27 -10 -55 -10q-52 0 -80.5 30.5
t-19.5 86.5q10 61 53.5 94t101.5 33q76 0 114 -56t21 -159l-2 -13q-21 -129 -107 -199.5t-212 -70.5z" />
    <glyph glyph-name="scommaaccent" unicode="&#x219;" horiz-adv-x="1112" 
d="M461 -33q-98 0 -179.5 23.5t-138.5 67.5t-84 112t-16 152h219q-7 -83 57.5 -123.5t174.5 -40.5q56 0 99 7t81 23.5t61.5 48.5t30.5 78q10 67 -42 101.5t-146 44.5l-107 10q-162 18 -251 102t-68 220q28 176 157 260t332 84q187 0 296 -91t89 -251h-219q6 73 -49.5 111
t-149.5 38q-212 0 -233 -145q-10 -58 32.5 -90.5t120.5 -42.5l107 -11q178 -20 277 -105t75 -228q-15 -94 -60.5 -163.5t-116 -111t-157 -61t-192.5 -19.5zM631 -98q75 0 110.5 -55.5t18.5 -159.5l-2 -13q-20 -127 -99.5 -192.5t-207.5 -65.5h-25l18 117h29q69 0 107.5 35
t46.5 94l2 19q-23 -13 -54 -13q-47 0 -74 28.5t-18 84.5q8 61 49.5 91t98.5 30z" />
    <glyph glyph-name="Tcommaaccent" unicode="&#x21a;" horiz-adv-x="1232" 
d="M621 0h-246l203 1278h-443l35 217h1133l-35 -217h-445zM324 -596h-27l18 119h31q69 0 112 39.5t52 105.5q-27 -10 -55 -10q-52 0 -81.5 30.5t-19.5 86.5q9 61 53 94t101 33q76 0 114 -56t21 -159l-2 -13q-20 -129 -105 -199.5t-212 -70.5z" />
    <glyph glyph-name="tcommaaccent" unicode="&#x21b;" horiz-adv-x="878" 
d="M680 -12h-166q-185 0 -286 114t-72 293l84 531h-183l27 178h184l51 321h228l-51 -321h358l-27 -178h-360l-86 -551q-12 -77 29.5 -127.5t119.5 -50.5h183zM459 -98q75 0 110.5 -55.5t18.5 -159.5l-2 -13q-20 -127 -99.5 -192.5t-207.5 -65.5h-25l18 117h29q69 0 107.5 35
t46.5 94l2 19q-23 -13 -54 -13q-47 0 -74 28.5t-18 84.5q8 61 49.5 91t98.5 30z" />
    <glyph glyph-name="dotlessj" unicode="&#x237;" horiz-adv-x="663" 
d="M-78 -418h-76l33 209h101q77 0 125.5 42t60.5 118l151 969h-165l28 184h398l-29 -184l-150 -947q-33 -216 -142.5 -303.5t-334.5 -87.5z" />
    <glyph glyph-name="circumflex" unicode="&#x2c6;" 
d="M264 1253h-196l284 414h281l153 -414h-198l-105 297h-18z" />
    <glyph glyph-name="ring" unicode="&#x2da;" 
d="M301 1233q-106 0 -162 66.5t-41 168.5t93 169t184 67t163 -67t42 -169q-17 -102 -95 -168.5t-184 -66.5zM319 1356q50 0 85.5 31t44.5 81q6 50 -19 81.5t-74 31.5q-51 0 -86 -31.5t-41 -81.5q-9 -50 16 -81t74 -31z" />
    <glyph glyph-name="tilde" unicode="&#x2dc;" 
d="M569 1300q-49 0 -89.5 16.5t-64 36t-57.5 36t-71 16.5q-86 0 -164 -78l-12 162q92 92 208 92q48 0 88.5 -16.5t64.5 -35.5t58.5 -35.5t71.5 -16.5q86 0 166 77l10 -161q-93 -93 -209 -93z" />
    <glyph glyph-name="gravecomb" unicode="&#x300;" 
d="M504 1253h-209l-164 414h260z" />
    <glyph glyph-name="acutecomb" unicode="&#x301;" 
d="M268 1253h-200l245 414h250z" />
    <glyph glyph-name="circumflexcomb" unicode="&#x302;" 
d="M264 1253h-196l284 414h281l153 -414h-198l-105 297h-18z" />
    <glyph glyph-name="tildecomb" unicode="&#x303;" 
d="M569 1300q-49 0 -89.5 16.5t-64 36t-57.5 36t-71 16.5q-86 0 -164 -78l-12 162q92 92 208 92q48 0 88.5 -16.5t64.5 -35.5t58.5 -35.5t71.5 -16.5q86 0 166 77l10 -161q-93 -93 -209 -93z" />
    <glyph glyph-name="macroncomb" unicode="&#x304;" 
d="M705 1352h-611l27 170h610z" />
    <glyph glyph-name="brevecomb" unicode="&#x306;" 
d="M401 1241q-160 0 -227 108.5t-41 317.5h170q-27 -262 123 -262q155 0 211 262h162q-39 -209 -138.5 -317.5t-259.5 -108.5z" />
    <glyph glyph-name="dotaccentcomb" unicode="&#x307;" 
d="M225 1311q-71 0 -100.5 37t-20.5 100q9 62 51 99.5t113 37.5q69 0 99.5 -38t21.5 -99q-9 -63 -51 -100t-113 -37z" />
    <glyph glyph-name="dieresiscomb" unicode="&#x308;" 
d="M225 1311q-71 0 -100.5 37t-20.5 100q9 62 51 99.5t113 37.5q69 0 99.5 -38t21.5 -99q-9 -63 -51 -100t-113 -37zM645 1311q-71 0 -100.5 37t-20.5 100q9 62 51 99.5t113 37.5q69 0 99.5 -38t21.5 -99q-9 -63 -51 -100t-113 -37z" />
    <glyph glyph-name="ringcomb" unicode="&#x30a;" 
d="M301 1233q-106 0 -162 66.5t-41 168.5t93 169t184 67t163 -67t42 -169q-17 -102 -95 -168.5t-184 -66.5zM319 1356q50 0 85.5 31t44.5 81q6 50 -19 81.5t-74 31.5q-51 0 -86 -31.5t-41 -81.5q-9 -50 16 -81t74 -31z" />
    <glyph glyph-name="hungarumlautcomb" unicode="&#x30b;" 
d="M592 1253h-180l217 414h211zM248 1253h-180l217 414h209z" />
    <glyph glyph-name="caroncomb" unicode="&#x30c;" 
d="M567 1253h-278l-158 414h201l108 -297h19l178 297h192z" />
    <glyph glyph-name="commaturnedabovecomb" unicode="&#x312;" 
d="M221 1229q-74 0 -109 56t-18 159l2 12q20 127 99.5 192.5t207.5 65.5h25l-20 -115h-29q-67 0 -106.5 -36t-47.5 -93l-2 -18q24 12 56 12q47 0 74 -29t18 -85q-10 -60 -52 -90.5t-98 -30.5z" />
    <glyph glyph-name="commaaccentcomb" unicode="&#x326;" 
d="M268 -98q74 0 109.5 -56t17.5 -159l-2 -13q-19 -126 -98.5 -192t-206.5 -66h-27l21 117h29q69 0 107 35t46 94l2 19q-23 -13 -53 -13q-48 0 -75.5 29t-18.5 84q10 61 51 91t98 30z" />
    <glyph glyph-name="cedillacomb" unicode="&#x327;" 
d="M162 -514q-84 0 -146 20l25 154q78 -20 141 -20q60 0 94 18.5t39 50.5q5 30 -17.5 47t-74.5 17h-88l41 250h146l-19 -121q97 -11 144 -60.5t34 -132.5q-15 -97 -101.5 -160t-217.5 -63z" />
    <glyph glyph-name="ogonekcomb" unicode="&#x328;" 
d="M289 -496q-117 0 -175.5 61.5t-41.5 170.5q14 88 73.5 157t176.5 156l69 53l72 -102l-70 -53q-134 -99 -145 -183q-7 -43 15.5 -66.5t70.5 -23.5q54 0 106 19l-26 -170q-63 -19 -125 -19z" />
    <glyph glyph-name="strokeshortcomb" unicode="&#x335;" 
d="M696 473h-725l23 148h725z" />
    <glyph glyph-name="strokelongcomb" unicode="&#x336;" 
d="M723 637h-764l33 201h764z" />
    <glyph glyph-name="riel-khmer" unicode="&#x17db;" horiz-adv-x="1073" 
d="M621 -12h-220q-171 0 -271 82.5t-77 224.5q49 294 467 297l19 121h-285l27 155h282l4 25q9 59 -39 92q-29 22 -79.5 54t-77.5 51q-71 52 -76.5 131.5t47.5 162.5q46 79 119.5 106.5t187.5 27.5q144 0 309 -23l-28 -182q-197 26 -328 26q-69 0 -90 -41q-24 -50 8 -73
q32 -24 88.5 -57.5t79.5 -49.5q55 -38 71 -92.5t5 -132.5l-4 -25h244l-25 -155h-244zM422 158h27l43 270q-51 -1 -86 -5.5t-69.5 -17.5t-55.5 -39.5t-27 -66.5q-10 -65 38.5 -103t129.5 -38z" />
    <glyph glyph-name="Wgrave" unicode="&#x1e80;" horiz-adv-x="2154" 
d="M1296 1612h-227l-235 346h274zM727 0h-399l-154 1495h254l113 -1284h61l449 1225h284l95 -1225h59l487 1284h242l-590 -1495h-403l-88 1083z" />
    <glyph glyph-name="wgrave" unicode="&#x1e81;" horiz-adv-x="1787" 
d="M1083 1253h-211l-161 414h258zM623 0h-357l-131 1104h232l100 -909h41l315 872h297l68 -872h41l356 909h219l-442 -1104h-356l-70 856z" />
    <glyph glyph-name="Wacute" unicode="&#x1e82;" horiz-adv-x="2154" 
d="M1268 1612h-226l314 346h270zM727 0h-399l-154 1495h254l113 -1284h61l449 1225h284l95 -1225h59l487 1284h242l-590 -1495h-403l-88 1083z" />
    <glyph glyph-name="wacute" unicode="&#x1e83;" horiz-adv-x="1787" 
d="M1040 1253h-200l245 414h250zM623 0h-357l-131 1104h232l100 -909h41l315 872h297l68 -872h41l356 909h219l-442 -1104h-356l-70 856z" />
    <glyph glyph-name="Wdieresis" unicode="&#x1e84;" horiz-adv-x="2154" 
d="M969 1653q-72 0 -104 38t-23 101t53.5 101t116.5 38t105 -38t22 -101q-9 -63 -53.5 -101t-116.5 -38zM1411 1653q-72 0 -104 38t-23 101t53.5 101t116.5 38t105 -38t22 -101q-9 -63 -53.5 -101t-116.5 -38zM727 0h-399l-154 1495h254l113 -1284h61l449 1225h284l95 -1225
h59l487 1284h242l-590 -1495h-403l-88 1083z" />
    <glyph glyph-name="wdieresis" unicode="&#x1e85;" horiz-adv-x="1787" 
d="M766 1311q-71 0 -100.5 37t-20.5 100q8 61 50 99t112 38t100.5 -37.5t22.5 -99.5q-9 -62 -51.5 -99.5t-112.5 -37.5zM1186 1311q-71 0 -100.5 37t-20.5 100q8 61 50 99t112 38t100.5 -37.5t22.5 -99.5q-9 -62 -51.5 -99.5t-112.5 -37.5zM623 0h-357l-131 1104h232
l100 -909h41l315 872h297l68 -872h41l356 909h219l-442 -1104h-356l-70 856z" />
    <glyph glyph-name="Germandbls" unicode="&#x1e9e;" horiz-adv-x="2701" 
d="M561 -35q-255 0 -401.5 131t-112.5 350h240q-20 -123 68.5 -193.5t240.5 -70.5q345 0 385 254q11 64 -22.5 109t-92.5 67t-143 29l-137 14q-196 18 -303 130t-80 288q36 225 193.5 341t402.5 116q231 0 361 -128.5t97 -336.5h-241q18 112 -53 180t-197 68
q-133 0 -217.5 -60t-102.5 -180q-13 -85 41.5 -137.5t153.5 -61.5l139 -12q146 -14 251 -65t159 -144.5t35 -216.5q-26 -162 -118.5 -269t-229 -154.5t-316.5 -47.5zM1892 -35q-165 0 -288 57.5t-183 168t-37 255.5h240q-20 -122 66.5 -193t234.5 -71q158 0 258 61t121 193
q14 94 -57.5 144t-200.5 61l-145 14q-196 15 -303 128t-78 290q36 226 194 341.5t406 115.5q230 0 361 -128.5t99 -336.5h-241q18 112 -54.5 180t-199.5 68q-133 0 -218.5 -60t-105.5 -180q-13 -85 42.5 -137.5t154.5 -61.5l145 -12q108 -9 195.5 -41.5t148.5 -85
t87.5 -129.5t11.5 -170q-15 -97 -54.5 -175.5t-98 -133t-136.5 -91.5t-169 -54t-196 -17z" />
    <glyph glyph-name="Etilde" unicode="&#x1ebc;" horiz-adv-x="1224" 
d="M1085 1645q-53 0 -97.5 15.5t-70.5 34.5t-64.5 34.5t-80.5 15.5q-111 0 -190 -82l-15 158q39 44 101 72t135 28q53 0 97.5 -15.5t70.5 -34.5t64.5 -34.5t80.5 -15.5q55 0 106 22.5t85 61.5l16 -160q-43 -44 -105 -72t-133 -28zM1104 0h-903l237 1495h885l-33 -213h-643
l-65 -416h602l-35 -213h-600l-70 -440h660z" />
    <glyph glyph-name="etilde" unicode="&#x1ebd;" horiz-adv-x="1261" 
d="M870 1300q-48 0 -88.5 16.5t-64 36t-58 36t-71.5 16.5q-84 0 -162 -78l-12 162q88 92 207 92q49 0 89.5 -16.5t64 -35.5t57.5 -35.5t71 -16.5q88 0 168 77l10 -161q-97 -93 -211 -93zM575 -37q-245 0 -376 160.5t-93 408.5l7 39q43 270 208 420t431 150q154 0 265 -70.5
t159 -195t24 -281.5l-16 -96h-852q-8 -146 66 -239t210 -93q115 0 192 38t113 130h224q-132 -371 -562 -371zM717 938q-135 0 -223.5 -73t-131.5 -206h613q-2 126 -70 202.5t-188 76.5z" />
    <glyph glyph-name="Ygrave" unicode="&#x1ef2;" horiz-adv-x="1339" 
d="M883 1612h-228l-235 346h274zM684 0h-240l93 578h-74l-318 917h254l244 -731h94l451 731h239l-577 -917h-74z" />
    <glyph glyph-name="ygrave" unicode="&#x1ef3;" horiz-adv-x="1136" 
d="M758 1253h-209l-164 414h258zM131 -432h-164l33 211h182q181 0 256 170l33 76h-149l-207 1079h243l154 -885h45l385 885h234l-539 -1213q-145 -323 -506 -323z" />
    <glyph glyph-name="endash" unicode="&#x2013;" horiz-adv-x="1058" 
d="M1042 475h-983l31 195h983z" />
    <glyph glyph-name="emdash" unicode="&#x2014;" horiz-adv-x="1853" 
d="M1837 475h-1778l31 195h1778z" />
    <glyph glyph-name="quoteleft" unicode="&#x2018;" horiz-adv-x="518" 
d="M520 1513h25l-21 -133h-32q-93 0 -139.5 -47.5t-65.5 -158.5l-6 -31q7 0 19.5 1t18.5 1q63 0 97 -40t24 -106q-11 -66 -57 -108.5t-115 -42.5q-77 0 -116.5 56t-18.5 186l6 38q34 211 128 298t253 87z" />
    <glyph glyph-name="quoteright" unicode="&#x2019;" horiz-adv-x="518" 
d="M131 848h-25l21 133h33q93 0 139.5 47t65.5 160l4 31q-6 0 -18.5 -1t-18.5 -1q-63 0 -97 39t-24 106q11 66 57 108.5t115 42.5q77 0 116.5 -55.5t18.5 -185.5l-6 -39q-17 -109 -50.5 -185t-83.5 -119.5t-109.5 -62t-137.5 -18.5z" />
    <glyph glyph-name="quotesinglbase" unicode="&#x201a;" horiz-adv-x="518" 
d="M-63 -383h-25l20 133h33q93 0 139.5 48t65.5 159l4 31q-6 0 -18.5 -1t-18.5 -1q-63 0 -97 39.5t-24 107.5q11 65 57.5 108.5t114.5 43.5q77 0 117 -56t19 -188l-7 -39q-17 -109 -50.5 -184.5t-83 -119t-109 -62.5t-137.5 -19z" />
    <glyph glyph-name="quotedblleft" unicode="&#x201c;" horiz-adv-x="942" 
d="M944 1513h25l-21 -133h-33q-93 0 -139 -47.5t-63 -158.5l-4 -31q10 2 34 2q64 0 98.5 -40t22.5 -106q-9 -66 -56 -108.5t-116 -42.5q-77 0 -116.5 56t-18.5 186l6 38q34 211 128 298t253 87zM520 1513h25l-21 -133h-32q-93 0 -139.5 -47.5t-65.5 -158.5l-6 -31
q7 0 19.5 1t18.5 1q63 0 97 -40t24 -106q-11 -66 -57 -108.5t-115 -42.5q-77 0 -116.5 56t-18.5 186l6 38q34 211 128 298t253 87z" />
    <glyph glyph-name="quotedblright" unicode="&#x201d;" horiz-adv-x="942" 
d="M131 848h-25l21 133h33q93 0 139.5 47t65.5 160l4 31q-6 0 -18.5 -1t-18.5 -1q-63 0 -97 39t-24 106q11 66 57 108.5t115 42.5q77 0 116.5 -55.5t18.5 -185.5l-6 -39q-17 -109 -50.5 -185t-83.5 -119.5t-109.5 -62t-137.5 -18.5zM557 848h-25l21 133h33q93 0 139 47
t63 160l5 31q-10 -2 -35 -2q-65 0 -99 39t-22 106q9 66 56 108.5t116 42.5q77 0 116.5 -55.5t18.5 -185.5l-6 -39q-17 -109 -50.5 -185t-83.5 -119.5t-109.5 -62t-137.5 -18.5z" />
    <glyph glyph-name="quotedblbase" unicode="&#x201e;" horiz-adv-x="942" 
d="M-63 -383h-25l20 133h33q93 0 139.5 48t65.5 159l4 31q-6 0 -18.5 -1t-18.5 -1q-63 0 -97 39.5t-24 107.5q11 65 57.5 108.5t114.5 43.5q77 0 117 -56t19 -188l-7 -39q-17 -109 -50.5 -184.5t-83 -119t-109 -62.5t-137.5 -19zM362 -383h-24l20 133h33q93 0 139.5 48
t63.5 159l4 31q-10 -2 -35 -2q-64 0 -98.5 39.5t-22.5 107.5q9 65 56 108.5t116 43.5q77 0 117 -56t19 -188l-7 -39q-34 -211 -128 -298t-253 -87z" />
    <glyph glyph-name="dagger" unicode="&#x2020;" horiz-adv-x="1146" 
d="M1081 913h-962l28 187h371l64 395h219l-64 -395h373zM500 -410h-219l184 1164h219z" />
    <glyph glyph-name="daggerdbl" unicode="&#x2021;" horiz-adv-x="1146" 
d="M1081 913h-962l28 187h371l64 395h219l-64 -395h373zM616 324h-219l70 438h219zM500 -410h-219l63 396h-373l31 188h963l-31 -188h-371z" />
    <glyph glyph-name="bullet" unicode="&#x2022;" horiz-adv-x="886" 
d="M682 324h-512l86 534h512z" />
    <glyph glyph-name="ellipsis" unicode="&#x2026;" horiz-adv-x="1685" 
d="M410 0h-279l47 289h279zM958 0h-278l47 289h279zM1507 0h-278l47 289h278z" />
    <glyph glyph-name="perthousand" unicode="&#x2030;" horiz-adv-x="2562" 
d="M391 686q-153 0 -229 111t-49 280l8 53q30 183 131.5 286.5t271.5 103.5q153 0 229.5 -111.5t49.5 -278.5l-8 -53q-30 -184 -132 -287.5t-272 -103.5zM586 0h-195l795 1495h196zM418 850q92 0 139 66.5t66 185.5q19 113 -11 184.5t-114 71.5q-92 0 -138.5 -67t-66.5 -187
q-18 -112 12 -183t113 -71zM1241 -25q-154 0 -229.5 110.5t-48.5 279.5l8 53q29 184 130.5 287.5t270.5 103.5q154 0 230 -111t49 -280l-9 -53q-29 -184 -130.5 -287t-270.5 -103zM2034 -25q-153 0 -229.5 110.5t-49.5 279.5l8 53q29 184 131 287.5t271 103.5
q154 0 230.5 -111t49.5 -280l-10 -53q-29 -184 -130.5 -287t-270.5 -103zM1266 137q93 0 140.5 67t66.5 185q16 113 -13 184.5t-112 71.5q-48 0 -84.5 -19t-60.5 -55.5t-38.5 -79.5t-23.5 -100q-16 -113 13 -183.5t112 -70.5zM2060 137q91 0 138.5 67t66.5 185
q19 112 -11.5 184t-113.5 72q-48 0 -84.5 -19t-60.5 -55.5t-38.5 -79.5t-23.5 -100q-16 -113 14 -183.5t113 -70.5z" />
    <glyph glyph-name="minute" unicode="&#x2032;" horiz-adv-x="540" 
d="M342 915h-211l213 580h211z" />
    <glyph glyph-name="second" unicode="&#x2033;" horiz-adv-x="925" 
d="M342 915h-211l213 580h211zM727 915h-211l213 580h211z" />
    <glyph glyph-name="guilsinglleft" unicode="&#x2039;" horiz-adv-x="688" 
d="M526 80h-256l-204 403l14 90l346 416h244l-351 -430l-6 -47z" />
    <glyph glyph-name="guilsinglright" unicode="&#x203a;" horiz-adv-x="688" 
d="M174 989h256l205 -403l-17 -90l-344 -416h-243l348 432l8 47z" />
    <glyph glyph-name="fraction" unicode="&#x2044;" horiz-adv-x="444" 
d="M-184 -45h-189l1014 1438h188z" />
    <glyph glyph-name="four.superior" unicode="&#x2074;" horiz-adv-x="821" 
d="M653 860h-172l25 156h-453l31 188l414 508l129 -90l-355 -434l15 -23h241l45 287h175l-46 -287h99l-25 -149h-98z" />
    <glyph glyph-name="Euro" unicode="&#x20ac;" horiz-adv-x="1441" 
d="M700 -31q-230 0 -364.5 146t-149.5 387h-194l22 145h174q1 13 11 86l6 29q1 8 4 25.5t4 25.5h-135l22 145h148q80 269 250 418.5t436 149.5q229 0 362 -127t109 -338h-213q10 122 -71.5 193t-219.5 71q-170 0 -274 -95.5t-160 -271.5h537l-23 -145h-551q-5 -27 -12 -65
q-9 -53 -12 -101h512l-23 -145h-485q18 -154 98 -243t223 -89q149 0 246 65.5t127 198.5h215q-46 -230 -207.5 -347.5t-411.5 -117.5z" />
    <glyph glyph-name="trademark" unicode="&#x2122;" horiz-adv-x="1789" 
d="M934 686h-146l130 809h204l142 -541h14l313 541h205l-129 -809h-154l97 608l-271 -467h-184l-125 473zM434 686h-160l107 674h-242l21 135h645l-23 -135h-241z" />
    <glyph glyph-name="minus" unicode="&#x2212;" horiz-adv-x="1212" 
d="M1122 608h-964l28 193h965z" />
    <glyph glyph-name="divisionslash" unicode="&#x2215;" horiz-adv-x="899" 
d="M45 -127h-207l996 1796h206z" />
    <glyph glyph-name="lessequal" unicode="&#x2264;" horiz-adv-x="1208" 
d="M1061 586l-31 -193l-870 250l24 148l21 139l950 250l-31 -193l-757 -186l-5 -29zM977 66h-909l30 190h910z" />
    <glyph glyph-name="greaterequal" unicode="&#x2265;" horiz-adv-x="1212" 
d="M1069 645l-948 -252l31 193l755 188l4 29l-696 186l31 191l868 -250l-16 -109l-4 -22l-7 -43zM977 66h-909l30 190h910z" />
    <glyph glyph-name="sora" unicode="&#xe000;" horiz-adv-x="1697" 
d="M844 713l-576 -713h-254l762 948h-608l25 160h610l37 227h-611l25 160h1427l-26 -160h-608l-37 -227h610l-27 -160h-608l459 -948h-254z" />
    <glyph glyph-name="I.salt" horiz-adv-x="923" 
d="M641 0h-594l31 201h174l174 1095h-174l33 199h594l-33 -199h-174l-174 -1095h174z" />
    <glyph glyph-name="Iacute.salt" horiz-adv-x="923" 
d="M649 1612h-225l313 346h271zM641 0h-594l31 201h174l174 1095h-174l33 199h594l-33 -199h-174l-174 -1095h174z" />
    <glyph glyph-name="Ibreve.salt" horiz-adv-x="923" 
d="M559 1597q-172 0 -244.5 98t-54.5 263h170q-10 -92 26.5 -146.5t129.5 -54.5q95 0 152 55t77 146h160q-34 -165 -138.5 -263t-277.5 -98zM641 0h-594l31 201h174l174 1095h-174l33 199h594l-33 -199h-174l-174 -1095h174z" />
    <glyph glyph-name="Icircumflex.salt" horiz-adv-x="923" 
d="M375 1612h-217l317 346h289l213 -346h-223l-138 229h-34zM641 0h-594l31 201h174l174 1095h-174l33 199h594l-33 -199h-174l-174 -1095h174z" />
    <glyph glyph-name="Idieresis.salt" horiz-adv-x="923" 
d="M350 1653q-72 0 -104 38t-23 101t54.5 101t117.5 38t104 -38t21 -101q-9 -63 -53.5 -101t-116.5 -38zM793 1653q-72 0 -104 38t-23 101t54.5 101t117.5 38t104 -38t21 -101q-9 -63 -53.5 -101t-116.5 -38zM641 0h-594l31 201h174l174 1095h-174l33 199h594l-33 -199h-174
l-174 -1095h174z" />
    <glyph glyph-name="Idotaccent.salt" horiz-adv-x="923" 
d="M571 1653q-72 0 -104 38t-23 101t54.5 101t117.5 38t104 -38t21 -101q-9 -63 -53.5 -101t-116.5 -38zM641 0h-594l31 201h174l174 1095h-174l33 199h594l-33 -199h-174l-174 -1095h174z" />
    <glyph glyph-name="Igrave.salt" horiz-adv-x="923" 
d="M678 1612h-227l-236 346h274zM641 0h-594l31 201h174l174 1095h-174l33 199h594l-33 -199h-174l-174 -1095h174z" />
    <glyph glyph-name="Imacron.salt" horiz-adv-x="923" 
d="M944 1692h-721l27 170h721zM641 0h-594l31 201h174l174 1095h-174l33 199h594l-33 -199h-174l-174 -1095h174z" />
    <glyph glyph-name="Iogonek.salt" horiz-adv-x="923" 
d="M641 0h-59l-74 -49q-134 -91 -150 -189q-8 -47 17 -78.5t80 -31.5q61 0 104 18l-27 -174q-59 -18 -126 -18q-118 0 -183.5 73t-46.5 183q23 142 172 266h-301l31 201h174l174 1095h-174l33 199h594l-33 -199h-174l-174 -1095h174z" />
    <glyph glyph-name="Itilde.salt" horiz-adv-x="923" 
d="M748 1645q-53 0 -98 15.5t-71 34.5t-64.5 34.5t-80.5 15.5q-111 0 -190 -82l-15 158q39 44 101 72t135 28q53 0 97.5 -15.5t70.5 -34.5t64.5 -34.5t80.5 -15.5q55 0 106 22.5t85 61.5l16 -160q-43 -44 -104.5 -72t-132.5 -28zM641 0h-594l31 201h174l174 1095h-174
l33 199h594l-33 -199h-174l-174 -1095h174z" />
    <glyph glyph-name="J.salt" horiz-adv-x="1214" 
d="M438 -41q-206 0 -314.5 136.5t-76.5 348.5l35 218h246l-41 -254q-15 -97 37 -159.5t149 -62.5q107 0 173 58t83 164l174 1087h246l-168 -1051q-36 -231 -176 -358t-367 -127z" />
    <glyph glyph-name="Jcircumflex.salt" horiz-adv-x="1214" 
d="M819 1612h-217l318 346h288l211 -346h-221l-137 229h-35zM438 -41q-206 0 -314.5 136.5t-76.5 348.5l35 218h246l-41 -254q-15 -97 37 -159.5t149 -62.5q107 0 173 58t83 164l174 1087h246l-168 -1051q-36 -231 -176 -358t-367 -127z" />
    <glyph glyph-name="P.salt" horiz-adv-x="1368" 
d="M330 0h-246l238 1505h602q147 0 256 -52.5t162 -151.5t32 -228l-4 -33q-36 -217 -191 -324.5t-399 -107.5h-354zM920 1290h-388l-73 -467h387q116 0 186.5 60t89.5 174q15 103 -41.5 168t-160.5 65z" />
    <glyph glyph-name="Q.salt" horiz-adv-x="1771" 
d="M760 -37q-168 0 -304.5 57t-223.5 157.5t-123 243t-9 308.5l6 45q58 367 293 565.5t609 198.5q168 0 304.5 -57t223 -157.5t122.5 -242.5t9 -307l-6 -45q-65 -425 -367 -623l148 -256h-238l-96 166q-154 -53 -348 -53zM795 190q110 0 198 27l-223 389h238l170 -297
q186 143 237 441q24 160 -22 287.5t-155.5 200.5t-264.5 73q-259 0 -419 -147.5t-202 -413.5q-25 -160 21.5 -287.5t156.5 -200t265 -72.5z" />
    <glyph glyph-name="R.salt" horiz-adv-x="1476" 
d="M330 0h-246l238 1505h610q147 0 256 -51.5t162 -150.5t32 -228l-4 -33q-48 -293 -313 -389l197 -653h-273l-176 610h-22h-365zM932 1290h-400l-73 -473h397q114 0 185.5 62t88.5 176q15 103 -40.5 169t-157.5 66z" />
    <glyph glyph-name="Racute.salt" horiz-adv-x="1476" 
d="M893 1612h-225l313 346h270zM330 0h-246l238 1505h610q147 0 256 -51.5t162 -150.5t32 -228l-4 -33q-48 -293 -313 -389l197 -653h-273l-176 610h-22h-365zM932 1290h-400l-73 -473h397q114 0 185.5 62t88.5 176q15 103 -40.5 169t-157.5 66z" />
    <glyph glyph-name="Rcaron.salt" horiz-adv-x="1474" 
d="M946 1612h-282l-213 346h221l137 -227h35l192 227h217zM330 0h-246l238 1505h610q147 0 256 -51.5t162 -150.5t32 -228l-4 -33q-48 -293 -313 -389l197 -653h-273l-176 610h-22h-365zM932 1290h-400l-73 -473h397q114 0 185.5 62t88.5 176q15 103 -40.5 169t-157.5 66z
" />
    <glyph glyph-name="Rcommaaccent.salt" horiz-adv-x="1474" 
d="M330 0h-246l238 1505h610q147 0 256 -51.5t162 -150.5t32 -228l-4 -33q-48 -293 -313 -389l197 -653h-273l-176 610h-22h-365zM932 1290h-400l-73 -473h397q114 0 185.5 62t88.5 176q15 103 -40.5 169t-157.5 66zM571 -596h-26l18 119h31q69 0 112 39.5t52 105.5
q-27 -10 -56 -10q-52 0 -80.5 30.5t-19.5 86.5q9 61 53 94t101 33q76 0 114.5 -56.5t20.5 -158.5l-2 -13q-20 -128 -105.5 -199t-212.5 -71z" />
    <glyph glyph-name="idotaccent" horiz-adv-x="649" 
d="M371 1311q-71 0 -100.5 37t-20.5 100q8 61 50 99t112 38t100.5 -37.5t22.5 -99.5q-9 -62 -51.5 -99.5t-112.5 -37.5zM383 0h-242l146 920h-162l29 184h403z" />
    <glyph glyph-name="f.salt" horiz-adv-x="780" 
d="M307 0h-227l143 903h-143l26 178h146l27 166q22 138 114 211.5t238 73.5q130 0 202 -78.5t52 -200.5h-191q8 43 -14.5 71t-65.5 28q-45 0 -72.5 -26t-35.5 -73l-27 -172h318l-29 -178h-317z" />
    <glyph glyph-name="l.salt" horiz-adv-x="643" 
d="M453 -12h-111q-139 0 -216.5 81t-55.5 210l192 1216h242l-195 -1223q-6 -33 13 -55t53 -22h110z" />
    <glyph glyph-name="lacute.salt" horiz-adv-x="643" 
d="M451 1612h-226l314 346h270zM453 -12h-111q-139 0 -216.5 81t-55.5 210l192 1216h242l-195 -1223q-6 -33 13 -55t53 -22h110z" />
    <glyph glyph-name="lcaron.salt" horiz-adv-x="643" 
d="M750 1165h-172l79 504h199zM453 -12h-111q-139 0 -216.5 81t-55.5 210l192 1216h242l-195 -1223q-6 -33 13 -55t53 -22h110z" />
    <glyph glyph-name="lcommaaccent.salt" horiz-adv-x="643" 
d="M453 -12h-111q-139 0 -216.5 81t-55.5 210l192 1216h242l-195 -1223q-6 -33 13 -55t53 -22h110zM289 -98q74 0 109.5 -56t17.5 -159l-2 -13q-19 -126 -98.5 -192t-206.5 -66h-27l20 117h29q69 0 107.5 35t46.5 94l2 19q-23 -13 -54 -13q-48 0 -75.5 29t-18.5 84
q10 61 51.5 91t98.5 30z" />
    <glyph glyph-name="lslash.salt" horiz-adv-x="643" 
d="M453 -12h-111q-139 0 -216.5 81t-55.5 210l36 233l-124 -66l28 179l125 65l127 805h242l-109 -676l189 96l-29 -178l-186 -96l-60 -369q-6 -33 13 -55t53 -22h110z" />
    <glyph glyph-name="r.salt" horiz-adv-x="882" 
d="M326 0h-242l176 1104h184l-47 -297q38 145 129.5 227t235.5 82h182l-33 -211h-239q-98 0 -158.5 -52.5t-77.5 -150.5z" />
    <glyph glyph-name="racute.salt" horiz-adv-x="884" 
d="M668 1253h-201l246 414h250zM326 0h-242l176 1104h184l-47 -297q38 145 129.5 227t235.5 82h182l-33 -211h-239q-98 0 -158.5 -52.5t-77.5 -150.5z" />
    <glyph glyph-name="rcaron.salt" horiz-adv-x="884" 
d="M723 1253h-279l-157 414h200l109 -297h18l179 297h192zM326 0h-242l176 1104h184l-47 -297q38 145 129.5 227t235.5 82h182l-33 -211h-239q-98 0 -158.5 -52.5t-77.5 -150.5z" />
    <glyph glyph-name="rcommaaccent.salt" horiz-adv-x="884" 
d="M326 0h-242l176 1104h184l-47 -297q38 145 129.5 227t235.5 82h182l-33 -211h-239q-98 0 -158.5 -52.5t-77.5 -150.5zM420 -98q75 0 110.5 -55.5t18.5 -159.5l-2 -13q-20 -127 -99.5 -192.5t-207.5 -65.5h-25l18 117h31q68 0 107 35.5t45 93.5l2 19q-23 -13 -53 -13
q-48 0 -75 29t-18 84q10 61 51.5 91t96.5 30z" />
    <glyph glyph-name="t.salt" horiz-adv-x="950" 
d="M438 -29q-153 0 -235.5 100.5t-57.5 256.5l95 598h-181l27 178h182l51 326h228l-51 -326h413l-26 -178h-416l-96 -607q-9 -67 21.5 -110t92.5 -43q68 0 109.5 40.5t52.5 112.5h187q-26 -167 -128.5 -257.5t-267.5 -90.5z" />
    <glyph glyph-name="tbar.salt" horiz-adv-x="950" 
d="M438 -29q-153 0 -235.5 100.5t-57.5 256.5l31 194h-88l23 146h88l41 258h-181l27 178h182l51 326h228l-51 -326h413l-26 -178h-416l-41 -258h410l-23 -146h-410l-32 -203q-9 -67 21.5 -110t92.5 -43q68 0 109.5 40.5t52.5 112.5h187q-26 -167 -128.5 -257.5t-267.5 -90.5
z" />
    <glyph glyph-name="tcaron.salt" horiz-adv-x="950" 
d="M840 1251h-172l80 504h198zM438 -29q-153 0 -235.5 100.5t-57.5 256.5l95 598h-181l27 178h182l51 326h228l-51 -326h413l-26 -178h-416l-96 -607q-9 -67 21.5 -110t92.5 -43q68 0 109.5 40.5t52.5 112.5h187q-26 -167 -128.5 -257.5t-267.5 -90.5z" />
    <glyph glyph-name="tcedilla.salt" horiz-adv-x="950" 
d="M426 -514q-83 0 -145 20l24 154q78 -20 141 -20q60 0 94.5 18.5t39.5 50.5q5 30 -18 47t-75 17h-88l33 198q-151 3 -231.5 103t-55.5 254l95 598h-181l27 178h182l51 326h228l-51 -326h413l-26 -178h-416l-96 -607q-9 -67 21.5 -110t92.5 -43q68 0 109.5 40.5t52.5 112.5
h187q-20 -127 -84.5 -210t-167.5 -117l-17 -90q97 -11 145 -60.5t33 -132.5q-14 -97 -100 -160t-217 -63z" />
    <glyph glyph-name="tcommaaccent.salt" horiz-adv-x="950" 
d="M438 -29q-153 0 -235.5 100.5t-57.5 256.5l95 598h-181l27 178h182l51 326h228l-51 -326h413l-26 -178h-416l-96 -607q-9 -67 21.5 -110t92.5 -43q68 0 109.5 40.5t52.5 112.5h187q-26 -167 -128.5 -257.5t-267.5 -90.5zM598 -98q74 0 109 -56t18 -159l-2 -13
q-20 -127 -99.5 -192.5t-207.5 -65.5h-25l21 117h28q68 0 107 35.5t47 93.5l2 19q-26 -13 -55 -13q-47 0 -74 28.5t-18 84.5q10 61 51 91t98 30z" />
    <glyph glyph-name="u.salt" horiz-adv-x="1273" 
d="M543 -37q-216 0 -330 140.5t-80 359.5l103 641h239l-106 -672q-17 -109 42 -180.5t167 -71.5q121 0 195 65.5t93 186.5l107 672h239l-100 -641q-39 -238 -186 -369t-383 -131z" />
    <glyph glyph-name="uacute.salt" horiz-adv-x="1273" 
d="M782 1245h-200l245 412h250zM543 -37q-216 0 -330 140.5t-80 359.5l103 641h239l-106 -672q-17 -109 42 -180.5t167 -71.5q121 0 195 65.5t93 186.5l107 672h239l-100 -641q-39 -238 -186 -369t-383 -131z" />
    <glyph glyph-name="ubreve.salt" horiz-adv-x="1273" 
d="M702 1233q-160 0 -227 108t-41 316h170q-27 -260 123 -260q156 0 211 260h162q-39 -209 -138.5 -316.5t-259.5 -107.5zM543 -37q-216 0 -330 140.5t-80 359.5l103 641h239l-106 -672q-17 -109 42 -180.5t167 -71.5q121 0 195 65.5t93 186.5l107 672h239l-100 -641
q-39 -238 -186 -369t-383 -131z" />
    <glyph glyph-name="ucircumflex.salt" horiz-adv-x="1273" 
d="M539 1245h-197l285 412h280l154 -412h-199l-104 295h-19zM543 -37q-216 0 -330 140.5t-80 359.5l103 641h239l-106 -672q-17 -109 42 -180.5t167 -71.5q121 0 195 65.5t93 186.5l107 672h239l-100 -641q-39 -238 -186 -369t-383 -131z" />
    <glyph glyph-name="udieresis.salt" horiz-adv-x="1273" 
d="M508 1300q-70 0 -100.5 38t-20.5 100q9 63 51 101t113 38q69 0 99.5 -38t21.5 -101q-9 -62 -51.5 -100t-112.5 -38zM928 1300q-70 0 -100.5 38t-20.5 100q9 63 51 101t113 38q69 0 99.5 -38t21.5 -101q-9 -62 -51.5 -100t-112.5 -38zM543 -37q-216 0 -330 140.5
t-80 359.5l103 641h239l-106 -672q-17 -109 42 -180.5t167 -71.5q121 0 195 65.5t93 186.5l107 672h239l-100 -641q-39 -238 -186 -369t-383 -131z" />
    <glyph glyph-name="ugrave.salt" horiz-adv-x="1273" 
d="M825 1245h-209l-163 412h258zM543 -37q-216 0 -330 140.5t-80 359.5l103 641h239l-106 -672q-17 -109 42 -180.5t167 -71.5q121 0 195 65.5t93 186.5l107 672h239l-100 -641q-39 -238 -186 -369t-383 -131z" />
    <glyph glyph-name="uhungarumlaut.salt" horiz-adv-x="1273" 
d="M958 1245h-180l217 412h209zM612 1245h-180l217 412h211zM543 -37q-216 0 -330 140.5t-80 359.5l103 641h239l-106 -672q-17 -109 42 -180.5t167 -71.5q121 0 195 65.5t93 186.5l107 672h239l-100 -641q-39 -238 -186 -369t-383 -131z" />
    <glyph glyph-name="umacron.salt" horiz-adv-x="1273" 
d="M1034 1343h-612l29 170h610zM543 -37q-216 0 -330 140.5t-80 359.5l103 641h239l-106 -672q-17 -109 42 -180.5t167 -71.5q121 0 195 65.5t93 186.5l107 672h239l-100 -641q-39 -238 -186 -369t-383 -131z" />
    <glyph glyph-name="uogonek.salt" horiz-adv-x="1273" 
d="M543 -37q-216 0 -330 140.5t-80 359.5l103 641h239l-106 -672q-17 -109 42 -180.5t167 -71.5q121 0 195 65.5t93 186.5l107 672h239l-100 -641q-54 -320 -287 -438l17 -25l-70 -53q-134 -99 -145 -183q-7 -43 15.5 -66.5t70.5 -23.5q54 0 106 19l-26 -170
q-63 -19 -125 -19q-117 0 -175.5 61.5t-41.5 170.5q10 64 45 117.5t98 111.5q-16 -2 -51 -2z" />
    <glyph glyph-name="uring.salt" horiz-adv-x="1273" 
d="M696 1223q-107 0 -163 67t-39 170q15 102 92.5 169t183.5 67q107 0 163.5 -67t39.5 -169q-15 -103 -92.5 -170t-184.5 -67zM715 1348q49 0 84.5 31t44.5 81q6 50 -19 81.5t-75 31.5q-49 0 -84 -31.5t-41 -81.5q-9 -50 15.5 -81t74.5 -31zM543 -37q-216 0 -330 140.5
t-80 359.5l103 641h239l-106 -672q-17 -109 42 -180.5t167 -71.5q121 0 195 65.5t93 186.5l107 672h239l-100 -641q-39 -238 -186 -369t-383 -131z" />
    <glyph glyph-name="utilde.salt" horiz-adv-x="1273" 
d="M862 1292q-49 0 -89.5 16t-64 35.5t-57.5 35.5t-71 16q-86 0 -164 -78l-13 162q92 92 209 92q48 0 88.5 -16t64.5 -35.5t58.5 -35.5t71.5 -16q88 0 166 78l10 -162q-88 -92 -209 -92zM543 -37q-216 0 -330 140.5t-80 359.5l103 641h239l-106 -672q-17 -109 42 -180.5
t167 -71.5q121 0 195 65.5t93 186.5l107 672h239l-100 -641q-39 -238 -186 -369t-383 -131z" />
    <glyph glyph-name="f_f.salt" horiz-adv-x="1511" 
d="M307 0h-227l143 903h-143l29 178h143l24 154q22 137 113.5 211t233.5 74q125 0 193 -79t48 -200h-184q5 44 -15.5 71t-60.5 27q-42 0 -67.5 -26.5t-30.5 -71.5l-25 -160h502l27 166q21 139 115 212t241 73q128 0 199.5 -78.5t52.5 -200.5h-191q6 43 -16.5 71t-64.5 28
q-45 0 -72 -26t-35 -73l-27 -172h316l-27 -178h-317l-146 -903h-227l143 903h-501z" />
    <glyph glyph-name="f_f_i.salt" horiz-adv-x="2115" 
d="M1853 1260q-62 0 -96 38.5t-24 98.5q10 67 53 103t112 36q62 0 97 -39t26 -100q-10 -66 -54.5 -101.5t-113.5 -35.5zM305 0h-227l145 920h-145l31 178h143l22 141q22 137 112.5 209t234.5 72q124 0 192 -77.5t49 -199.5h-186q6 42 -14.5 69t-59.5 27q-42 0 -68 -25.5
t-32 -70.5l-23 -145h504l25 153q21 138 113 209.5t239 71.5q127 0 197.5 -77.5t50.5 -199.5h-185q6 43 -16.5 70t-63.5 27q-45 0 -72.5 -26t-33.5 -71l-25 -157h271l-29 -178h-270l-146 -920h-227l145 920h-505zM1806 0h-241l147 920h-153l30 184h393z" />
    <glyph glyph-name="f_f_j.salt" horiz-adv-x="2117" 
d="M1862 1272q-62 0 -96.5 38.5t-24.5 98.5q10 67 53.5 103t112.5 36q62 0 97 -39t26 -100q-10 -66 -54.5 -101.5t-113.5 -35.5zM307 0h-227l143 920h-143l29 178h143l22 147q23 133 114.5 204t232.5 71q125 0 193 -76t48 -195h-184q6 40 -15 65t-59 25q-84 0 -100 -90
l-25 -151h506l25 153q21 136 113.5 208.5t236.5 72.5q126 0 196.5 -78t51.5 -199h-187q6 43 -15.5 70t-62.5 27q-43 0 -69.5 -26t-34.5 -71l-25 -157h287l-26 -178h-289l-148 -920h-227l145 920h-503zM1335 -412h-78l33 211h103q77 0 124.5 41t59.5 117l154 963h-152l29 184
h383l-179 -1124q-31 -189 -156 -290.5t-321 -101.5z" />
    <glyph glyph-name="f_f_l.salt" horiz-adv-x="2134" 
d="M307 0h-227l143 903h-143l29 178h143l24 154q22 137 113.5 211t233.5 74q125 0 193 -79t48 -200h-184q5 44 -15.5 71t-60.5 27q-42 0 -67.5 -26.5t-30.5 -71.5l-25 -160h504l27 166q22 138 112.5 211.5t233.5 73.5q126 0 195 -79t49 -200h-185q5 43 -16 71t-60 28
q-43 0 -69.5 -26t-32.5 -73l-27 -172h304l-29 -178h-303l-144 -903h-227l143 903h-503zM1944 -12h-111q-138 0 -215.5 81t-56.5 210l192 1216h242l-197 -1223q-5 -34 14 -55.5t54 -21.5h110z" />
    <glyph glyph-name="f_j.salt" horiz-adv-x="1384" 
d="M1128 1272q-62 0 -96 38.5t-24 98.5q10 67 53.5 103t112.5 36q62 0 96.5 -39t25.5 -100q-10 -66 -54.5 -101.5t-113.5 -35.5zM307 0h-227l145 920h-145l29 178h143l24 153q21 136 113.5 208.5t237.5 72.5q126 0 196 -78t51 -199h-186q7 43 -15 70t-63 27q-43 0 -69.5 -26
t-34.5 -71l-25 -157h289l-29 -178h-288zM602 -412h-78l33 211h102q77 0 125 41t60 117l153 963h-151l31 184h380l-178 -1124q-31 -189 -156 -290.5t-321 -101.5z" />
    <glyph glyph-name="fi.salt" horiz-adv-x="1382" 
d="M1122 1260q-63 0 -98 38.5t-25 98.5q10 67 53.5 103t112.5 36q63 0 98 -38.5t27 -100.5q-12 -66 -56 -101.5t-112 -35.5zM305 0h-227l147 920h-147l31 178h143l24 149q21 138 114 211.5t237 73.5q128 0 198.5 -78t51.5 -201h-187q6 43 -16 71t-64 28q-90 0 -106 -99
l-25 -155h271l-29 -178h-270zM1071 0h-240l148 920h-154l31 184h391z" />
    <glyph glyph-name="fl.salt" horiz-adv-x="1400" 
d="M307 0h-227l143 903h-143l29 178h143l27 166q22 138 113 211.5t235 73.5q125 0 193.5 -79t49.5 -200h-186q6 43 -15 71t-61 28q-44 0 -69.5 -26.5t-30.5 -72.5l-27 -172h301l-26 -178h-303zM1210 -12h-110q-138 0 -215.5 81t-57.5 210l193 1216h242l-195 -1223
q-6 -34 12.5 -55.5t53.5 -21.5h110z" />
    <glyph glyph-name="seven.salt" horiz-adv-x="1146" 
d="M498 0h-236l43 279q55 338 202 568t429 402l-4 39h-807l33 207h1048l-49 -313q-274 -167 -419.5 -379.5t-194.5 -523.5z" />
    <glyph glyph-name="zero.tnum" horiz-adv-x="1384" 
d="M563 -41q-143 0 -242 54t-148 151.5t-62 233.5t16 300l14 95q55 351 227 548t445 197q138 0 236 -52t150 -149t66.5 -235t-14.5 -309l-16 -95q-27 -168 -80.5 -301t-135 -232t-197 -152.5t-259.5 -53.5zM598 178q165 0 259.5 133t141.5 432q49 309 -3.5 441.5
t-217.5 132.5q-163 0 -257.5 -132t-141.5 -437q-47 -301 4 -435.5t215 -134.5z" />
    <glyph glyph-name="one.tnum" horiz-adv-x="1384" 
d="M1075 0h-944l33 209h368l173 1077h-347l33 209h588l-203 -1286h332z" />
    <glyph glyph-name="two.tnum" horiz-adv-x="1384" 
d="M1106 0h-1034l41 268q12 75 42.5 134t81 103.5t107 77.5t135.5 66l287 119q114 49 178 117t80 178q20 117 -49 191.5t-193 74.5q-134 0 -218.5 -71t-106.5 -203h-236q36 234 192 358.5t402 124.5q111 0 201.5 -33.5t150.5 -93t86.5 -146.5t10.5 -190l-4 -26
q-14 -91 -51 -164t-97 -128.5t-130 -96.5t-165 -80l-285 -119q-80 -34 -123 -72t-53 -104l-12 -76h795z" />
    <glyph glyph-name="three.tnum" horiz-adv-x="1384" 
d="M555 -37q-235 0 -367.5 132.5t-99.5 346.5h238q-20 -121 55 -196.5t207 -75.5q145 0 237 70t113 206q20 124 -53.5 203.5t-206.5 79.5q-113 0 -197 -57l-92 192l600 387l-14 37h-692l32 207h953l-45 -285l-480 -303q143 -7 248 -62.5t155.5 -156.5t29.5 -231l-5 -27
q-36 -232 -198.5 -349.5t-417.5 -117.5z" />
    <glyph glyph-name="four.tnum" horiz-adv-x="1384" 
d="M999 0h-225l53 332h-786l45 278l743 924l158 -129l-676 -842l15 -39h530l86 541h227l-86 -541h187l-31 -192h-186z" />
    <glyph glyph-name="five.tnum" horiz-adv-x="1384" 
d="M586 -37q-239 0 -373.5 140.5t-99.5 363.5h233q-20 -131 58 -214t217 -83q153 0 249 78.5t119 226.5q22 136 -54 223.5t-216 87.5q-92 0 -158 -22t-125 -80h-227l205 811h841l-34 -207h-650l-102 -393q122 82 303 82q151 0 262 -61.5t162 -173.5t29 -255l-4 -26
q-39 -245 -205.5 -371.5t-429.5 -126.5z" />
    <glyph glyph-name="six.tnum" horiz-adv-x="1384" 
d="M608 -41q-107 0 -194.5 36.5t-145 101.5t-94 155t-42.5 198t11 230l15 96q55 346 265.5 537.5t549.5 191.5q135 0 260 -16l-33 -205q-131 16 -268 16q-235 0 -374.5 -145t-180.5 -399q143 219 436 219q219 0 336.5 -140.5t83.5 -359.5q-41 -250 -204 -383t-421 -133z
M639 166q149 0 242 79.5t118 227.5q22 133 -51 220t-207 87q-155 0 -253 -79t-123 -228q-20 -135 56.5 -221t217.5 -86z" />
    <glyph glyph-name="seven.tnum" horiz-adv-x="1384" 
d="M524 0h-254l805 1270l-12 22h-614l-41 -254h-199l72 457h1075l-35 -227z" />
    <glyph glyph-name="eight.tnum" horiz-adv-x="1384" 
d="M565 -39q-160 0 -280 54t-179.5 159t-37.5 244q23 142 102.5 230t222.5 140l4 23q-101 44 -144 125t-24 190q17 107 67 186.5t127.5 127.5t174.5 71t215 23q147 0 257 -48t165 -141.5t35 -218.5q-18 -119 -84.5 -194.5t-184.5 -120.5l-4 -23q123 -49 176 -144t31 -226
q-24 -157 -113 -261t-220.5 -150t-305.5 -46zM713 891q282 0 317 221q17 100 -54.5 159.5t-193.5 59.5q-133 0 -217 -53.5t-102 -165.5q-17 -103 54.5 -162t195.5 -59zM596 166q156 0 255 67t120 203q20 122 -63 195.5t-226 73.5q-155 0 -253.5 -67t-121.5 -202
q-20 -123 63 -196.5t226 -73.5z" />
    <glyph glyph-name="nine.tnum" horiz-adv-x="1384" 
d="M770 1538q178 0 296 -97.5t159.5 -260t9.5 -365.5l-12 -96q-56 -347 -266 -538t-549 -191q-135 0 -263 16l33 205q160 -16 271 -16q235 0 372.5 144.5t177.5 397.5q-141 -215 -432 -215q-220 0 -337.5 140t-82.5 358q39 250 202 384t421 134zM741 1329q-151 0 -244 -79.5
t-116 -227.5q-22 -134 50.5 -220.5t207.5 -86.5q155 0 252.5 79t122.5 228q22 136 -55.5 221.5t-217.5 85.5z" />
    <glyph glyph-name="seven.tnum.salt" horiz-adv-x="1384" 
d="M614 0h-237l45 279q53 339 203 569t438 401l-4 39h-823l32 207h1065l-49 -315q-278 -166 -427.5 -377.5t-199.5 -523.5z" />
    <glyph glyph-name="zero.dnom" horiz-adv-x="929" 
d="M356 -20q-97 0 -166.5 31.5t-104.5 85.5t-48.5 127t2.5 157l10 61q29 180 144.5 292t300.5 112q182 0 261 -112t50 -292l-10 -61q-28 -178 -140 -289.5t-299 -111.5zM383 152q191 0 231 258q21 136 -16.5 200t-132.5 64q-192 0 -234 -262q-40 -260 152 -260z" />
    <glyph glyph-name="one.dnom" horiz-adv-x="538" 
d="M307 0h-186l104 659h-168l27 164h354z" />
    <glyph glyph-name="two.dnom" horiz-adv-x="778" 
d="M592 0h-610l26 162q11 77 61 128.5t156 92.5l150 59q57 21 88.5 52t40.5 81q8 51 -23 84t-92 33q-59 0 -98.5 -33.5t-48.5 -89.5h-181q19 124 113.5 200.5t239.5 76.5t216 -72.5t52 -187.5l-2 -15q-14 -92 -74.5 -154.5t-185.5 -111.5l-148 -57q-41 -14 -61 -30.5
t-23 -41.5l-4 -18h434z" />
    <glyph glyph-name="three.dnom" horiz-adv-x="778" 
d="M272 -20q-146 0 -222 75t-56 193h180q-9 -52 23.5 -83.5t99.5 -31.5q65 0 109.5 35t52.5 88q8 55 -24.5 89t-98.5 34q-59 0 -113 -37l-65 139l288 164l-8 17h-344l27 161h579l-24 -159l-273 -156q127 -9 191 -76.5t47 -175.5l-2 -12q-19 -117 -118.5 -190.5t-248.5 -73.5
z" />
    <glyph glyph-name="four.dnom" horiz-adv-x="823" 
d="M573 0h-174l25 156h-451l29 188l414 508l131 -90l-354 -434l12 -23h241l46 287h174l-45 -287h98l-25 -149h-96z" />
    <glyph glyph-name="five.dnom" horiz-adv-x="792" 
d="M291 -20q-149 0 -225.5 78.5t-57.5 199.5h180q-9 -57 26 -91t103 -34q73 0 119.5 39.5t55.5 103.5q9 63 -23.5 102.5t-103.5 39.5q-90 0 -138 -64h-178l119 469h516l-25 -161h-376l-43 -166q78 55 180 55q135 0 204 -75t50 -193l-2 -15q-20 -123 -122 -205.5t-259 -82.5z
" />
    <glyph glyph-name="six.dnom" horiz-adv-x="845" 
d="M328 -23q-174 0 -247 105t-46 285l6 41q67 419 500 419q93 0 166 -8l-27 -157q-88 10 -172 10q-131 0 -196.5 -56t-90.5 -165q87 104 250 104q134 0 202.5 -75.5t49.5 -200.5q-22 -135 -131 -218.5t-264 -83.5zM348 131q77 0 129.5 39.5t63.5 103.5q9 62 -30 101t-116 39
q-74 0 -128 -38t-66 -104q-9 -62 29.5 -101.5t117.5 -39.5z" />
    <glyph glyph-name="seven.dnom" horiz-adv-x="747" 
d="M283 0h-199l397 651l-12 19h-260l-21 -140h-153l47 293h649l-16 -98z" />
    <glyph glyph-name="eight.dnom" horiz-adv-x="821" 
d="M299 -23q-160 0 -241 65t-62 183q12 79 61.5 133.5t120.5 73.5l2 17q-115 44 -96 174q17 109 112.5 166t239.5 57q143 0 220.5 -57t60.5 -166q-19 -128 -150 -174l-2 -17q64 -19 96.5 -73.5t20.5 -133.5q-18 -118 -121 -183t-262 -65zM381 508q64 0 103.5 25t47.5 69
q6 43 -25.5 67.5t-94.5 24.5q-64 0 -104 -25t-46 -67q-7 -44 25 -69t94 -25zM322 129q75 0 124 32t58 89q10 58 -29 89.5t-115 31.5q-75 0 -124 -31.5t-58 -89.5q-9 -56 30.5 -88.5t113.5 -32.5z" />
    <glyph glyph-name="nine.dnom" horiz-adv-x="845" 
d="M432 848q176 0 250 -106.5t45 -286.5l-6 -41q-67 -420 -500 -420q-84 0 -166 10l25 156q118 -8 172 -8q68 0 117.5 15t83 44.5t53.5 68.5t33 93q-88 -105 -248 -105q-136 0 -203 76t-47 201q22 135 130 219t261 84zM414 692q-80 0 -131 -40t-62 -103q-9 -63 29.5 -101
t116.5 -38q75 0 129 37t63 102q11 63 -27 103t-118 40z" />
    <glyph glyph-name="zero.numr" horiz-adv-x="929" 
d="M438 502q-97 0 -166.5 31.5t-104.5 85.5t-48.5 127t2.5 157l10 62q29 180 144 291.5t300 111.5q182 0 261.5 -112t50.5 -291l-10 -62q-28 -178 -140 -289.5t-299 -111.5zM465 674q191 0 231 258q21 136 -16.5 200t-132.5 64q-192 0 -234 -262q-40 -260 152 -260z" />
    <glyph glyph-name="one.numr" horiz-adv-x="538" 
d="M389 522h-186l104 660h-168l27 164h354z" />
    <glyph glyph-name="two.numr" horiz-adv-x="778" 
d="M674 522h-611l27 162q11 77 61 128.5t156 92.5l150 60q57 21 88.5 52t40.5 81q8 51 -22.5 83.5t-92.5 32.5q-59 0 -98.5 -33t-48.5 -89h-181q19 124 113.5 200t239.5 76t216 -72.5t52 -187.5l-2 -14q-14 -92 -74.5 -155t-185.5 -112l-148 -57q-41 -14 -61 -30.5
t-23 -41.5l-4 -18h434z" />
    <glyph glyph-name="three.numr" horiz-adv-x="778" 
d="M354 502q-146 0 -222 75t-56 193h180q-9 -52 23.5 -83.5t99.5 -31.5q65 0 109.5 35t52.5 88q8 55 -24.5 89t-98.5 34q-59 0 -113 -37l-65 140l288 163l-8 17h-344l27 162h579l-24 -160l-273 -156q127 -9 191 -76.5t47 -175.5l-2 -12q-19 -117 -118.5 -190.5t-248.5 -73.5
z" />
    <glyph glyph-name="four.numr" horiz-adv-x="823" 
d="M655 522h-174l25 156h-451l29 188l414 508l131 -90l-355 -434l13 -23h241l45 287h175l-46 -287h99l-25 -149h-96z" />
    <glyph glyph-name="five.numr" horiz-adv-x="792" 
d="M373 502q-149 0 -225.5 78.5t-57.5 199.5h180q-9 -57 26 -91t103 -34q73 0 119 40t55 104q9 62 -23.5 101.5t-103.5 39.5q-90 0 -137 -63h-178l119 469h516l-25 -162h-376l-43 -166q78 55 180 55q135 0 204 -75t50 -193l-2 -14q-20 -123 -122 -206t-259 -83z" />
    <glyph glyph-name="six.numr" horiz-adv-x="845" 
d="M410 500q-174 0 -247 104.5t-46 284.5l6 41q67 420 500 420q83 0 165 -9l-26 -157q-87 10 -172 10q-131 0 -196.5 -56t-90.5 -165q87 104 250 104q134 0 202.5 -75.5t49.5 -200.5q-22 -135 -131 -218t-264 -83zM430 653q77 0 129.5 40t63.5 104q9 62 -30 100.5t-116 38.5
q-74 0 -128 -37.5t-66 -103.5q-9 -62 29.5 -102t117.5 -40z" />
    <glyph glyph-name="seven.numr" horiz-adv-x="747" 
d="M365 522h-199l397 652l-12 18h-260l-21 -139h-153l47 293h649l-16 -99z" />
    <glyph glyph-name="eight.numr" horiz-adv-x="821" 
d="M381 500q-160 0 -241 65t-62 183q12 79 61 133t121 73l2 17q-115 44 -96 174q17 109 112.5 166t239.5 57q143 0 220.5 -57t60.5 -166q-19 -128 -150 -174l-2 -17q64 -19 96.5 -73t20.5 -133q-18 -118 -121 -183t-262 -65zM463 1030q64 0 103.5 25t47.5 69q6 43 -25.5 68
t-94.5 25q-64 0 -104 -25.5t-46 -67.5q-7 -44 25 -69t94 -25zM403 651q76 0 125 32t58 89q10 58 -29 89.5t-115 31.5q-75 0 -124 -31.5t-58 -89.5q-9 -56 30 -88.5t113 -32.5z" />
    <glyph glyph-name="nine.numr" horiz-adv-x="845" 
d="M514 1370q176 0 250 -106.5t45 -286.5l-6 -41q-67 -420 -500 -420q-84 0 -166 10l25 156q118 -8 172 -8q68 0 117.5 15t83 44.5t53.5 68.5t33 93q-87 -104 -248 -104q-136 0 -203 75.5t-47 200.5q22 135 130 219t261 84zM496 1214q-80 0 -131 -40t-62 -103
q-9 -63 29.5 -101t116.5 -38q75 0 129 37t63 102q11 63 -27 103t-118 40z" />
    <glyph glyph-name="exclamdown.case" horiz-adv-x="620" 
d="M573 1495l-43 -276h-286l43 276h286zM479 1030l-164 -1030h-245l163 1030h246z" />
    <glyph glyph-name="questiondown.case" horiz-adv-x="1138" 
d="M600 1495h283l-43 -276h-283zM549 1030h239l-61 -373h-158q-125 0 -203.5 -62.5t-95.5 -182.5q-17 -107 41.5 -175.5t167.5 -68.5q127 0 207 67.5t100 192.5h232q-36 -228 -186.5 -348.5t-389.5 -120.5q-206 0 -321.5 121.5t-83.5 314.5l4 25q30 190 153.5 295.5
t321.5 126.5z" />
    <glyph glyph-name="periodcentered.case" horiz-adv-x="544" 
d="M485 618h-278l47 289h278z" />
    <glyph glyph-name="asterisk.part" horiz-adv-x="415" 
d="M442 815l-131 -180l-278 223l33 209l350 223l71 -178l-278 -113l-10 -73z" />
    <glyph glyph-name="parenleft.case" horiz-adv-x="782" 
d="M584 -242h-275q-136 194 -187.5 421.5t-2.5 531.5q48 302 171.5 524.5t321.5 415.5h273q-224 -218 -355 -439.5t-176 -500.5q-45 -286 12 -512.5t218 -440.5z" />
    <glyph glyph-name="parenright.case" horiz-adv-x="782" 
d="M-139 -242q227 215 355 441.5t173 511.5q43 279 -16.5 500t-212.5 440h270q53 -74 92 -147.5t69.5 -162t44.5 -183t12.5 -208t-21.5 -239.5q-48 -303 -171.5 -530.5t-320.5 -422.5h-274z" />
    <glyph glyph-name="braceleft.case" horiz-adv-x="782" 
d="M524 -242h-49q-183 0 -272.5 99.5t-59.5 287.5l52 324q9 62 -24.5 95.5t-100.5 33.5l34 221q67 0 111 33.5t53 95.5l51 316q30 189 152 288t305 99h49l-30 -195h-50q-166 0 -196 -184l-49 -314q-33 -215 -236 -239l-4 -21q98 -11 138.5 -68.5t23.5 -168.5l-51 -324
q-15 -91 20 -137.5t117 -46.5h49z" />
    <glyph glyph-name="braceright.case" horiz-adv-x="782" 
d="M-82 -242l29 195h51q80 0 131 47t64 137l51 324q19 111 77.5 168.5t159.5 68.5l2 21q-194 24 -161 239l51 314q27 184 -137 184h-50l31 195h51q182 0 272.5 -99t61.5 -288l-51 -316q-10 -62 23 -95.5t100 -33.5l-35 -221q-67 0 -111.5 -33.5t-54.5 -95.5l-49 -324
q-30 -188 -152 -287.5t-303 -99.5h-51z" />
    <glyph glyph-name="bracketleft.case" horiz-adv-x="782" 
d="M510 -242h-471l301 1893h471l-31 -195h-239l-240 -1503h242z" />
    <glyph glyph-name="bracketright.case" horiz-adv-x="782" 
d="M-66 -242l29 195h242l237 1503h-241l32 195h469l-299 -1893h-469z" />
    <glyph glyph-name="hyphen.case" horiz-adv-x="1036" 
d="M950 653h-794l32 211h795z" />
    <glyph glyph-name="endash.case" horiz-adv-x="1058" 
d="M1057 653h-983l30 195h983z" />
    <glyph glyph-name="emdash.case" horiz-adv-x="1853" 
d="M1851 653h-1777l30 195h1778z" />
    <glyph glyph-name="guillemotleft.case" horiz-adv-x="1163" 
d="M551 289h-260l-209 409l14 93l353 419h247l-360 -436l-8 -49zM1047 289h-261l-208 409l14 93l352 419h248l-361 -436l-6 -49z" />
    <glyph glyph-name="guillemotright.case" horiz-adv-x="1183" 
d="M680 1210h260l209 -407l-16 -94l-351 -420h-247l358 436l8 49zM182 1210h260l209 -407l-14 -94l-352 -420h-248l360 436l9 49z" />
    <glyph glyph-name="guilsinglleft.case" horiz-adv-x="688" 
d="M551 289h-260l-209 409l14 93l353 419h247l-360 -436l-8 -49z" />
    <glyph glyph-name="guilsinglright.case" horiz-adv-x="688" 
d="M182 1210h260l209 -407l-14 -94l-352 -420h-248l360 436l9 49z" />
    <glyph glyph-name="cent.tnum" horiz-adv-x="1384" 
d="M705 0h-207l32 213q-197 31 -299.5 172t-70.5 346l6 41q35 229 174.5 363t361.5 159l31 197h207l-31 -199q163 -25 256 -129t86 -266h-229q0 98 -69 149.5t-181 51.5q-157 0 -253.5 -91t-121.5 -255q-24 -149 50 -246.5t217 -97.5q264 0 323 208h230
q-45 -183 -168 -283.5t-312 -121.5z" />
    <glyph glyph-name="currency.tnum" horiz-adv-x="1384" 
d="M633 293q-143 0 -238 69l-221 -190l-119 141l224 195q-46 104 -27 227l6 33q18 122 96 229l-161 191l163 143l160 -190q119 69 262 69q145 0 240 -69l219 190l119 -143l-221 -191q43 -103 24 -229l-6 -33q-19 -121 -96 -227l162 -195l-164 -141l-162 190
q-119 -69 -260 -69zM664 485q114 0 188.5 74t93.5 193q19 122 -33 194t-165 72t-187.5 -72t-93.5 -194q-19 -119 32 -193t165 -74z" />
    <glyph glyph-name="dollar.tnum" horiz-adv-x="1384" 
d="M635 -264h-207l43 268q-214 24 -310 148t-65 323h223q-8 -53 2.5 -100t41 -88.5t93.5 -65.5t152 -24q156 0 251.5 65.5t109.5 163.5q14 91 -49.5 150.5t-198.5 72.5l-123 10q-202 19 -298.5 125t-66.5 295q28 173 150.5 279.5t314.5 128.5l33 207h207l-33 -209
q184 -26 268.5 -144t53.5 -309h-223q8 52 -1.5 97.5t-35.5 83t-77.5 59.5t-121.5 22q-128 0 -210.5 -60.5t-98.5 -154.5q-13 -85 34.5 -143.5t157.5 -67.5l125 -12q223 -21 336 -131.5t84 -298.5q-29 -177 -165.5 -289t-352.5 -135z" />
    <glyph glyph-name="Euro.tnum" horiz-adv-x="1384" 
d="M690 -31q-151 0 -260.5 69t-166.5 187.5t-66 276.5h-199l22 145h181q2 27 10 86l4 29q1 8 4 25.5t4 25.5h-139l22 145h152q50 175 134.5 299t219.5 196.5t310 72.5q146 0 253 -57t159 -163.5t36 -244.5h-213q10 120 -64.5 192t-203.5 72q-162 0 -261.5 -96.5
t-152.5 -270.5h514l-22 -145h-527q-5 -27 -12 -65q-9 -53 -12 -101h487l-22 -145h-465q14 -154 90.5 -243t216.5 -89t230.5 66.5t119.5 197.5h215q-47 -228 -202 -346.5t-396 -118.5z" />
    <glyph glyph-name="riel-khmer.tnum" horiz-adv-x="1384" 
d="M780 -12h-221q-119 0 -208 34t-135 105t-30 168q13 84 56 143t110.5 91.5t146.5 47t179 15.5l18 121h-311l27 155h311l4 25q9 58 -43 94q-28 19 -80 50.5t-82 52.5q-72 52 -78 131.5t48 162.5q49 80 123.5 107t191.5 27q148 0 319 -23l-28 -182q-181 26 -338 26
q-38 0 -61 -8t-37 -33q-24 -50 10 -73q35 -26 94 -60.5t80 -48.5q57 -36 74 -91t4 -132l-4 -25h262l-25 -155h-262zM580 158h28l43 270q-39 0 -65 -1t-58 -5.5t-53 -13t-40.5 -22.5t-31.5 -36t-16 -51q-11 -70 43.5 -105.5t149.5 -35.5z" />
    <glyph glyph-name="sterling.tnum" horiz-adv-x="1384" 
d="M1137 0h-1098l31 188h155l72 457h-143l26 164h144l30 197q38 241 197.5 374t404.5 133q176 0 324 -20l-33 -201q-160 21 -325 21q-303 0 -353 -322l-28 -182h495l-26 -164h-496l-72 -457h531l28 189h195z" />
    <glyph glyph-name="yen.tnum" horiz-adv-x="1384" 
d="M702 0h-225l49 313h-428l25 146h426l26 166h-428l25 145h285l-244 725h254l221 -694h66l415 694h240l-451 -725h291l-24 -145h-424l-27 -166h426l-24 -146h-424z" />
    <glyph glyph-name="plus.tnum" horiz-adv-x="1384" 
d="M725 170h-209l70 438h-400l31 193h399l70 440h209l-70 -440h400l-31 -193h-399z" />
    <glyph glyph-name="minus.tnum" horiz-adv-x="1384" 
d="M1229 608h-1008l31 193h1008z" />
    <glyph glyph-name="multiply.tnum" horiz-adv-x="1384" 
d="M154 342l417 360l-303 359l164 141l303 -358l416 358l113 -133l-418 -360l303 -359l-164 -141l-303 358l-416 -358z" />
    <glyph glyph-name="divide.tnum" horiz-adv-x="1384" 
d="M872 995h-243l41 254h243zM1194 608h-1008l29 193h1010zM741 162h-243l39 252h243z" />
    <glyph glyph-name="equal.tnum" horiz-adv-x="1384" 
d="M1243 774h-1010l31 193h1010zM1182 385h-1010l31 193h1007z" />
    <glyph glyph-name="caroncomb.alt" 
d="M375 1174h-172l80 503h198z" />
    <glyph glyph-name="dieresiscomb.case" 
d="M258 1653q-72 0 -104 38t-23 101t54.5 101t117.5 38t104 -38t21 -101q-9 -63 -53.5 -101t-116.5 -38zM700 1653q-72 0 -104 38t-23 101t54.5 101t117.5 38t104 -38t21 -101q-9 -63 -53.5 -101t-116.5 -38z" />
    <glyph glyph-name="dotaccentcomb.case" 
d="M258 1653q-72 0 -104 38t-23 101t54.5 101t117.5 38t104 -38t21 -101q-9 -63 -53.5 -101t-116.5 -38z" />
    <glyph glyph-name="gravecomb.case" 
d="M618 1612h-229l-233 346h274z" />
    <glyph glyph-name="acutecomb.case" 
d="M324 1612h-224l314 346h270z" />
    <glyph glyph-name="hungarumlautcomb.case" 
d="M635 1612h-180l233 346h227zM281 1612h-181l232 346h227z" />
    <glyph glyph-name="circumflexcomb.case" 
d="M317 1612h-217l318 346h289l211 -346h-222l-137 229h-35z" />
    <glyph glyph-name="caroncomb.case" 
d="M651 1612h-282l-213 346h221l137 -227h35l192 227h217z" />
    <glyph glyph-name="brevecomb.case" 
d="M455 1597q-172 0 -244.5 98t-54.5 263h170q-21 -201 155 -201q95 0 152.5 55t77.5 146h159q-34 -165 -138 -263t-277 -98z" />
    <glyph glyph-name="ringcomb.case" 
d="M340 1569q-112 0 -171 64t-44 161q14 95 93.5 159t193.5 64q113 0 171.5 -63.5t43.5 -159.5q-15 -97 -94.5 -161t-192.5 -64zM360 1690q54 0 90 29.5t42 74.5q8 45 -18.5 73.5t-80.5 28.5q-55 0 -91 -28.5t-42 -73.5q-8 -45 19 -74.5t81 -29.5z" />
    <glyph glyph-name="tildecomb.case" 
d="M655 1645q-53 0 -97.5 15.5t-70.5 34.5t-64.5 34.5t-80.5 15.5q-111 0 -190 -82l-15 158q39 44 101 72t135 28q53 0 97.5 -15.5t70.5 -34.5t64.5 -34.5t80.5 -15.5q55 0 106 22.5t85 61.5l16 -160q-43 -44 -105 -72t-133 -28z" />
    <glyph glyph-name="macroncomb.case" 
d="M842 1692h-721l26 170h721z" />
    <glyph glyph-name="commaturnedabovecomb.case" 
d="M254 1552q-78 0 -114 53.5t-21 153.5l2 13q20 117 101 177t210 60h25l-21 -117h-28q-71 0 -110.5 -29.5t-45.5 -82.5l-2 -11q29 11 55 11q54 0 82.5 -28t18.5 -83q-7 -59 -50 -88t-102 -29z" />
    <glyph glyph-name="commaaccentcomb.case" 
d="M-55 -596h-27l21 119h30q68 0 110.5 39.5t51.5 105.5q-27 -10 -55 -10q-52 0 -81 30.5t-20 86.5q10 61 54 94t102 33q76 0 114 -56t21 -159l-2 -13q-21 -129 -107 -199.5t-212 -70.5z" />
    <glyph glyph-name="cedillacomb.case" 
d="M72 -526q-94 0 -152 20l25 164q75 -23 149 -23q64 0 101.5 19t42.5 51q5 28 -22 45t-81 17h-90l41 256h158l-21 -121q98 -12 147.5 -63t37.5 -134q-15 -100 -107 -165.5t-229 -65.5z" />
    <glyph glyph-name="ogonekcomb.case" 
d="M287 -522q-119 0 -184 72.5t-48 183.5q28 182 262 332l72 45l72 -111l-72 -49q-135 -90 -151 -189q-8 -47 17 -78.5t81 -31.5q58 0 104 18l-28 -174q-59 -18 -125 -18z" />
    <glyph glyph-name="sora.tnum" horiz-adv-x="1384" 
d="M694 756l-551 -756h-249l708 948h-555l25 160h567l37 227h-567l24 160h1356l-27 -160h-565l-37 -227h567l-26 -160h-555l405 -948h-250z" />
    </font>
</defs>
</svg>
