<?xml version="1.0" standalone="no"?>
<!DOCTYPE svg PUBLIC "-//W3C//DTD SVG 1.1//EN" "http://www.w3.org/Graphics/SVG/1.1/DTD/svg11.dtd" >
<svg xmlns="http://www.w3.org/2000/svg" xmlns:xlink="http://www.w3.org/1999/xlink" version="1.1">
<metadata>
Created by FontForge 20201107 at Mon Sep 30 11:26:19 2024
 By 
Copyright 2019 The Sora Project Authors (https://github.com/sora-xor/sora-font)
</metadata>
<defs>
<font id="Sora-ExtraBold" horiz-adv-x="614" >
  <font-face 
    font-family="Sora ExtraBold"
    font-weight="800"
    font-stretch="normal"
    units-per-em="2048"
    panose-1="0 0 0 0 0 0 0 0 0 0"
    ascent="1638"
    descent="-410"
    x-height="1130"
    cap-height="1495"
    bbox="-315 -643 2628 2466"
    underline-thickness="102"
    underline-position="-255"
    unicode-range="U+000D-FB04"
  />
<missing-glyph horiz-adv-x="1779" 
d="M1606 -111h-1432v1725h1432v-1725zM317 1479v-1454h1145v1454h-1145zM958 516h-225v309h141q68 0 103 37.5t35 95.5q0 61 -33 97.5t-90 36.5q-59 0 -94 -39t-35 -97h-238q0 148 98.5 248.5t274.5 100.5q162 0 258 -91.5t96 -234.5v-18q0 -125 -75.5 -208t-212.5 -106z
M965 205h-238v213h238v-213z" />
    <glyph glyph-name="f_f" unicode="ff" horiz-adv-x="1519" 
d="M500 0h-344v836h-123v270h123v33q0 393 454 393h101v-275h-109q-50 0 -76 -26.5t-26 -75.5v-49h403v20q0 394 455 394h137v-275h-145q-50 0 -76.5 -26.5t-26.5 -75.5v-37h264v-270h-264v-836h-344v836h-403v-836z" />
    <glyph glyph-name="fi" unicode="fi" horiz-adv-x="1433" 
d="M1073 1221q-98 0 -147 50.5t-49 135.5t49 135.5t147 50.5t147.5 -50.5t49.5 -135.5t-49.5 -135.5t-147.5 -50.5zM500 0h-344v848h-123v270h123v21q0 393 454 393h107v-275h-115q-50 0 -76 -26.5t-26 -75.5v-37h217v-270h-217v-848zM1294 0h-372v860h-123v270h495v-1130z
" />
    <glyph glyph-name="fl" unicode="fl" horiz-adv-x="1417" 
d="M500 0h-344v823h-123v271h123v8q0 393 454 393h101v-270h-109q-49 0 -75.5 -26.5t-26.5 -76.5v-28h219v-271h-219v-823zM1278 0h-373v1225h-112v270h485v-1495z" />
    <glyph glyph-name="f_f_i" unicode="ffi" horiz-adv-x="2181" 
d="M1821 1221q-98 0 -147.5 50.5t-49.5 135.5t49.5 135.5t147.5 50.5t147 -50.5t49 -135.5t-49 -135.5t-147 -50.5zM500 0h-344v848h-123v270h123v29q0 393 454 393h101v-274h-109q-49 0 -75.5 -26.5t-26.5 -76.5v-45h403v17q0 393 455 393h137v-275h-145q-50 0 -76.5 -26.5
t-26.5 -75.5v-33h217v-270h-217v-848h-344v848h-403v-848zM2042 0h-373v860h-123v270h496v-1130z" />
    <glyph glyph-name="f_f_l" unicode="ffl" horiz-adv-x="2166" 
d="M500 0h-344v836h-123v270h123v33q0 393 454 393h101v-275h-109q-50 0 -76 -26.5t-26 -75.5v-49h403q3 389 455 389h100v-270h-108q-50 0 -76.5 -26.5t-26.5 -76.5v-16h219v-270h-219v-836h-344v836h-403v-836zM2028 0h-373v1225h-115v270h488v-1495z" />
    <glyph glyph-name="f_f_j" unicode="ffj" horiz-adv-x="2183" 
d="M1835 1221q-98 0 -147.5 50.5t-49.5 135.5t49.5 135.5t147.5 50.5t147.5 -50.5t49.5 -135.5t-49.5 -135.5t-147.5 -50.5zM500 0h-344v848h-123v270h123v29q0 393 454 393h101v-274h-109q-49 0 -75.5 -26.5t-26.5 -76.5v-45h403v17q0 393 455 393h108v-275h-116
q-50 0 -76.5 -26.5t-26.5 -75.5v-33h236v-270h-236v-848h-344v848h-403v-848zM1536 -418h-45v312h53q74 0 113 39t39 112v815h-131v270h491v-1081q0 -252 -123 -359.5t-397 -107.5z" />
    <glyph glyph-name="f_j" unicode="fj" horiz-adv-x="1433" 
d="M1087 1221q-98 0 -147 50.5t-49 135.5t49 135.5t147 50.5t147.5 -50.5t49.5 -135.5t-49.5 -135.5t-147.5 -50.5zM500 0h-344v848h-123v270h123v21q0 393 454 393h109v-275h-117q-50 0 -76 -26.5t-26 -75.5v-37h235v-270h-235v-848zM786 -418h-45v312h54q73 0 112 39
t39 112v815h-129v270h490v-1081q0 -252 -123.5 -359.5t-397.5 -107.5z" />
    <glyph glyph-name=".notdef" horiz-adv-x="1779" 
d="M1606 -111h-1432v1725h1432v-1725zM317 1479v-1454h1145v1454h-1145zM958 516h-225v309h141q68 0 103 37.5t35 95.5q0 61 -33 97.5t-90 36.5q-59 0 -94 -39t-35 -97h-238q0 148 98.5 248.5t274.5 100.5q162 0 258 -91.5t96 -234.5v-18q0 -125 -75.5 -208t-212.5 -106z
M965 205h-238v213h238v-213z" />
    <glyph glyph-name=".null" horiz-adv-x="0" 
 />
    <glyph glyph-name="nonmarkingreturn" horiz-adv-x="682" 
 />
    <glyph glyph-name="NULL" horiz-adv-x="1228" 
 />
    <glyph glyph-name="NULL" horiz-adv-x="1228" 
 />
    <glyph glyph-name="CR" unicode="&#xd;" horiz-adv-x="1228" 
 />
    <glyph glyph-name="space" unicode=" " horiz-adv-x="417" 
 />
    <glyph glyph-name="exclam" unicode="!" horiz-adv-x="663" 
d="M522 524h-381v971h381v-971zM549 0h-434v356h434v-356z" />
    <glyph glyph-name="quotedbl" unicode="&#x22;" horiz-adv-x="1056" 
d="M446 836h-340v659h340v-659zM950 836h-340v659h340v-659z" />
    <glyph glyph-name="numbersign" unicode="#" horiz-adv-x="1499" 
d="M512 0h-287l56 362h-215v242h253l43 287h-215v242h254l56 362h286l-55 -362h246l55 362h287l-55 -362h213v-242h-252l-43 -287h213v-242h-252l-56 -362h-286l55 362h-246zM606 604h246l43 287h-246z" />
    <glyph glyph-name="dollar" unicode="$" horiz-adv-x="1331" 
d="M809 -264h-299v262q-227 32 -342 153t-115 316h340q0 -87 71.5 -137.5t209.5 -50.5q124 0 194 40.5t70 114.5q0 134 -252 156l-94 8q-231 21 -361.5 139t-130.5 324q0 185 103.5 291.5t298.5 134.5v207h299v-211q195 -35 296 -152.5t101 -306.5h-340q0 80 -59 130
t-160 50q-95 0 -147 -37.5t-52 -105.5q0 -61 45.5 -105.5t139.5 -52.5l94 -8q262 -22 410.5 -138.5t148.5 -322.5q0 -191 -120 -302.5t-349 -137.5v-258z" />
    <glyph glyph-name="percent" unicode="%" horiz-adv-x="1851" 
d="M403 668q-179 0 -275.5 113.5t-96.5 291.5v53q0 184 98 295t274 111q177 0 275 -111t98 -295v-53q0 -178 -97 -291.5t-276 -113.5zM819 0h-315l536 1495h316zM403 913q54 0 78.5 41t24.5 144q0 109 -24.5 148.5t-78.5 39.5t-78 -39t-24 -147q0 -104 24 -145.5t78 -41.5z
M1448 -41q-179 0 -276 114t-97 292v53q0 184 98 294.5t275 110.5t275 -110.5t98 -294.5v-53q0 -178 -97 -292t-276 -114zM1448 205q54 0 78 40.5t24 143.5q0 109 -24 149t-78 40t-78 -39.5t-24 -147.5q0 -104 24 -145t78 -41z" />
    <glyph glyph-name="ampersand" unicode="&#x26;" horiz-adv-x="1525" 
d="M602 -45q-165 0 -293.5 66.5t-198 181t-69.5 256.5v26q0 136 71.5 248t194.5 176q-35 80 -35 187q0 194 133.5 307t405.5 113q126 0 289 -25v-303q-164 24 -305 24q-106 0 -144.5 -34t-38.5 -103q0 -64 31.5 -124.5t104.5 -141.5l256 -279q47 112 53 273h-178v266h598
v-266h-97q-11 -300 -153 -514l266 -289h-408l-71 78q-184 -123 -412 -123zM381 498q0 -107 60.5 -173.5t185.5 -66.5q103 0 182 43l-279 301q-13 15 -42 47t-44 49q-63 -80 -63 -200z" />
    <glyph glyph-name="quotesingle" unicode="'" horiz-adv-x="552" 
d="M446 836h-340v659h340v-659z" />
    <glyph glyph-name="parenleft" unicode="(" horiz-adv-x="815" 
d="M807 -373h-422q-149 198 -226 435t-77 559q0 319 81 546.5t234 421.5h410q-79 -108 -138.5 -210t-111.5 -223t-79 -256t-27 -279q0 -305 83.5 -547t272.5 -447z" />
    <glyph glyph-name="parenright" unicode=")" horiz-adv-x="815" 
d="M8 -373q190 205 273.5 447t83.5 547q0 144 -27.5 279t-79 256.5t-111 222.5t-139.5 210h410q153 -194 234 -421.5t81 -546.5q0 -322 -77 -559t-226 -435h-422z" />
    <glyph glyph-name="asterisk" unicode="*" horiz-adv-x="1169" 
d="M408 1604l272 4l-43 -383l-213 -123l-352 153l137 234l207 -162l30 19zM1098 973l-133 -238l-310 230v245l310 230l133 -238l-244 -96v-37zM211 686l-139 234l352 153l213 -123l43 -383l-270 4l36 258l-30 19z" />
    <glyph glyph-name="plus" unicode="+" horiz-adv-x="1224" 
d="M778 180h-332v373h-356v303h356v373h332v-373h357v-303h-357v-373z" />
    <glyph glyph-name="comma" unicode="," horiz-adv-x="565" 
d="M541 295l-256 -655l-285 110l225 660z" />
    <glyph glyph-name="hyphen" unicode="-" horiz-adv-x="1044" 
d="M971 416h-897v332h897v-332z" />
    <glyph glyph-name="period" unicode="." horiz-adv-x="565" 
d="M483 0h-401v406h401v-406z" />
    <glyph glyph-name="slash" unicode="/" horiz-adv-x="876" 
d="M418 -123h-385l426 1720h385z" />
    <glyph glyph-name="zero" unicode="0" horiz-adv-x="1574" 
d="M788 -41q-142 0 -257 38.5t-193 105.5t-131 160.5t-77 199.5t-24 225v119q0 124 26 233t80.5 201t134 158.5t192.5 103.5t249 37t248 -37t191.5 -103.5t134 -158.5t80.5 -201t26 -233v-119q0 -119 -24 -225t-77 -199.5t-131 -160.5t-192.5 -105.5t-255.5 -38.5zM788 311
q151 0 225 106.5t74 327.5q0 231 -74 337t-225 106q-152 0 -226.5 -105t-74.5 -333q0 -224 74 -331.5t227 -107.5z" />
    <glyph glyph-name="one" unicode="1" horiz-adv-x="880" 
d="M721 0h-381v1163h-279v332h660v-1495z" />
    <glyph glyph-name="two" unicode="2" horiz-adv-x="1302" 
d="M1200 0h-1089v328q0 147 76.5 242t252.5 169l228 97q88 37 128 88t40 129q0 75 -50 123.5t-139 48.5q-92 0 -140 -51.5t-48 -141.5h-369q0 227 145.5 367.5t411.5 140.5q261 0 409 -133.5t148 -341.5v-25q0 -173 -93 -286t-304 -203l-227 -96q-51 -21 -74 -46.5
t-23 -64.5v-16h717v-328z" />
    <glyph glyph-name="three" unicode="3" horiz-adv-x="1306" 
d="M641 -41q-262 0 -421 139t-159 357h369q0 -81 56.5 -131t154.5 -50q99 0 155 54t56 141q0 86 -56 140.5t-155 54.5q-107 0 -184 -66l-170 283l413 254l-18 32h-557v328h1040v-326l-405 -245q215 -26 338 -146t123 -309v-25q0 -215 -158 -350t-422 -135z" />
    <glyph glyph-name="four" unicode="4" horiz-adv-x="1396" 
d="M1194 0h-352v264h-785v387l549 889l301 -190l-452 -738l30 -45h357v516h352v-516h162v-303h-162v-264z" />
    <glyph glyph-name="five" unicode="5" horiz-adv-x="1333" 
d="M674 -41q-132 0 -243 40t-186.5 109t-117 163.5t-41.5 203.5h369q0 -92 62 -146.5t161 -54.5q106 0 165.5 65t59.5 171q0 103 -58.5 169t-162.5 66q-70 0 -123.5 -30.5t-79.5 -79.5h-358l76 860h948v-328h-662l-22 -241q115 90 293 90q235 0 376.5 -139t141.5 -357v-24
q0 -109 -40 -205.5t-114 -170.5t-189 -117.5t-255 -43.5z" />
    <glyph glyph-name="six" unicode="6" horiz-adv-x="1425" 
d="M741 -45q-162 0 -287 55t-201.5 153t-115.5 226t-39 281v82q0 755 772 755q159 0 306 -16v-320q-191 17 -318 17q-204 0 -294.5 -82t-108.5 -264q126 170 389 170q236 0 376 -137t140 -369q0 -250 -171.5 -400.5t-447.5 -150.5zM729 270q122 0 192 62t70 166
q0 103 -69 165t-187 62q-115 0 -191.5 -58.5t-76.5 -168.5q0 -103 69 -165.5t193 -62.5z" />
    <glyph glyph-name="seven" unicode="7" horiz-adv-x="1265" 
d="M698 0h-405l487 1149l-26 35h-389v-242h-308v553h1176v-205z" />
    <glyph glyph-name="eight" unicode="8" horiz-adv-x="1386" 
d="M692 -45q-285 0 -449.5 118.5t-164.5 340.5q0 140 64.5 234.5t179.5 135.5v29q-201 81 -201 313q0 203 156.5 308.5t414.5 105.5q170 0 296.5 -44t201 -138.5t74.5 -231.5q0 -234 -201 -313v-29q116 -41 181 -135.5t65 -234.5q0 -222 -165 -340.5t-452 -118.5zM692 936
q97 0 150 38.5t53 108.5t-53.5 108t-149.5 38q-97 0 -150 -38.5t-53 -107.5q0 -70 53.5 -108.5t149.5 -38.5zM692 266q113 0 180.5 50t67.5 147q0 95 -67 144.5t-181 49.5q-113 0 -179.5 -49.5t-66.5 -144.5q0 -97 66.5 -147t179.5 -50z" />
    <glyph glyph-name="nine" unicode="9" horiz-adv-x="1425" 
d="M684 1540q162 0 287 -55t201.5 -153t115.5 -226t39 -281v-82q0 -755 -772 -755q-158 0 -305 16v320q191 -17 317 -17q204 0 295 82t109 264q-126 -170 -389 -170q-236 0 -376 137t-140 369q0 250 171 400.5t447 150.5zM696 1225q-122 0 -192 -62t-70 -166q0 -103 69 -165
t187 -62q115 0 191.5 58.5t76.5 168.5q0 103 -69 165.5t-193 62.5z" />
    <glyph glyph-name="colon" unicode=":" horiz-adv-x="565" 
d="M483 655h-401v406h401v-406zM483 0h-401v406h401v-406z" />
    <glyph glyph-name="semicolon" unicode=";" horiz-adv-x="565" 
d="M496 655h-402v406h402v-406zM541 295l-256 -655l-285 110l225 660z" />
    <glyph glyph-name="less" unicode="&#x3c;" horiz-adv-x="1224" 
d="M139 432v479l946 297v-315l-679 -203v-28l679 -203v-324z" />
    <glyph glyph-name="equal" unicode="=" horiz-adv-x="1208" 
d="M1118 758h-1028v303h1028v-303zM1118 291h-1028v303h1028v-303z" />
    <glyph glyph-name="greater" unicode="&#x3e;" horiz-adv-x="1224" 
d="M1085 432l-946 -297v316l680 202v29l-680 203v323l946 -297v-479z" />
    <glyph glyph-name="question" unicode="?" horiz-adv-x="1159" 
d="M715 520h-369v348h207q94 0 143 50t49 129q0 77 -45.5 125.5t-126.5 48.5q-80 0 -126 -49.5t-46 -124.5h-356q0 216 145 354.5t396 138.5q236 0 376 -127t140 -336v-24q0 -170 -100 -283.5t-285 -153.5zM739 0h-417v356h417v-356z" />
    <glyph glyph-name="at" unicode="@" horiz-adv-x="2312" 
d="M1161 -506q-229 0 -426 71.5t-340 201.5t-224 322.5t-81 424.5t76 422.5t215 322.5t341.5 204.5t448.5 72.5q170 0 324 -38.5t283.5 -116t224.5 -188t148 -261.5t53 -328q0 -180 -53.5 -316.5t-162 -216t-259.5 -79.5q-127 0 -214.5 59.5t-119.5 167.5
q-50 -104 -140 -159.5t-211 -55.5q-197 0 -326.5 136t-129.5 358v32q0 222 123 353t317 131q138 0 237 -70t144 -194v223h258v-598q0 -117 88 -117q83 0 124.5 88t41.5 250q0 138 -39.5 251t-108.5 191t-164 130.5t-204 77t-231 24.5q-377 0 -589 -199.5t-212 -556.5
q0 -231 101 -402t278.5 -259.5t408.5 -88.5q135 0 287 29v-272q-138 -27 -287 -27zM1112 270q93 0 152 62t59 168v37q0 96 -59 153.5t-152 57.5q-98 0 -155.5 -65t-57.5 -169q0 -106 56.5 -175t156.5 -69z" />
    <glyph glyph-name="A" unicode="A" horiz-adv-x="1617" 
d="M397 0h-381l480 1495h610l496 -1495h-394l-108 346h-596zM598 657h403l-165 531h-76z" />
    <glyph glyph-name="B" unicode="B" horiz-adv-x="1425" 
d="M797 -12h-645v1519h585q262 0 405.5 -110t143.5 -312v-30q0 -188 -135 -283q197 -98 197 -326v-28q0 -205 -143 -317.5t-408 -112.5zM754 1217h-234v-322h234q159 0 159 160q0 162 -159 162zM809 612h-289v-333h289q166 0 166 167q0 166 -166 166z" />
    <glyph glyph-name="C" unicode="C" horiz-adv-x="1642" 
d="M850 -41q-156 0 -286.5 47.5t-218.5 125.5t-149.5 179.5t-89.5 207t-28 210.5v45q0 114 29 223.5t91 208t150 173t215 118t277 43.5q306 0 505.5 -168.5t225.5 -443.5h-381q-22 116 -116 186t-234 70q-177 0 -277 -116.5t-100 -317.5q0 -202 102.5 -318.5t284.5 -116.5
q143 0 242.5 70t119.5 186h381q-14 -127 -71.5 -238t-151 -194.5t-228 -131.5t-292.5 -48z" />
    <glyph glyph-name="D" unicode="D" horiz-adv-x="1593" 
d="M721 -8h-569v1515h569q158 0 291.5 -38t229 -105t162.5 -159.5t99.5 -201t32.5 -229.5v-45q0 -112 -32.5 -218.5t-100 -200.5t-162.5 -165t-229 -112t-291 -41zM737 1151h-205v-803h205q193 0 303.5 108t110.5 296q0 194 -109 296.5t-305 102.5z" />
    <glyph glyph-name="E" unicode="E" horiz-adv-x="1212" 
d="M1110 0h-958v1495h946v-311h-578v-269h547v-311h-547v-293h590v-311z" />
    <glyph glyph-name="F" unicode="F" horiz-adv-x="1146" 
d="M532 0h-380v1495h917v-311h-537v-293h515v-311h-515v-580z" />
    <glyph glyph-name="G" unicode="G" horiz-adv-x="1705" 
d="M874 -41q-163 0 -298.5 47t-225.5 124t-153 178.5t-91 207.5t-28 213v45q0 114 29.5 223t92.5 207.5t151.5 173t215 118.5t275.5 44q306 0 506 -165.5t227 -430.5h-381q-19 104 -115 172t-237 68q-180 0 -279.5 -120t-99.5 -314q0 -197 107.5 -320t303.5 -123
q106 0 190 38.5t130 105.5v77h-360v267h831v-267h-123v-233q-94 -161 -267.5 -248.5t-400.5 -87.5z" />
    <glyph glyph-name="H" unicode="H" horiz-adv-x="1634" 
d="M532 0h-380v1495h380v-575h570v575h381v-1495h-381v588h-570v-588z" />
    <glyph glyph-name="I" unicode="I" horiz-adv-x="692" 
d="M537 0h-381v1495h381v-1495z" />
    <glyph glyph-name="J" unicode="J" horiz-adv-x="1318" 
d="M629 -41q-267 0 -415 145.5t-148 409.5v82h376v-94q0 -85 49.5 -136t135.5 -51t135 51t49 136v661h-578v332h959v-981q0 -264 -147.5 -409.5t-415.5 -145.5z" />
    <glyph glyph-name="K" unicode="K" horiz-adv-x="1591" 
d="M532 0h-380v1495h380v-700l531 700h438l-487 -643l592 -852h-459l-485 698h-130v-698z" />
    <glyph glyph-name="L" unicode="L" horiz-adv-x="1150" 
d="M1098 0h-946v1495h380v-1163h566v-332z" />
    <glyph glyph-name="M" unicode="M" horiz-adv-x="2023" 
d="M500 0h-348v1495h528l307 -788h41l305 788h539v-1495h-377v1122l-326 -821h-346l-323 811v-1112z" />
    <glyph glyph-name="N" unicode="N" horiz-adv-x="1812" 
d="M504 0h-352v1495h624l498 -1192h31v1192h356v-1495h-629l-497 1192h-31v-1192z" />
    <glyph glyph-name="O" unicode="O" horiz-adv-x="1769" 
d="M885 -41q-157 0 -292 47.5t-228 125.5t-159 179t-97 207.5t-31 210.5v45q0 114 32.5 223.5t100 208t161.5 173t226.5 118t286.5 43.5q152 0 284.5 -43.5t226.5 -118t162 -172.5t101 -208t33 -224v-45q0 -104 -31 -210.5t-97.5 -207.5t-159.5 -179t-227.5 -125.5
t-291.5 -47.5zM885 315q191 0 306.5 123.5t115.5 311.5q0 196 -114.5 315t-307.5 119q-194 0 -308 -119t-114 -315q0 -189 115 -312t307 -123z" />
    <glyph glyph-name="P" unicode="P" horiz-adv-x="1384" 
d="M532 0h-380v1507h575q290 0 457.5 -143.5t167.5 -394.5v-33q0 -250 -168 -394.5t-457 -144.5h-195v-397zM737 1180h-205v-455h205q105 0 167.5 61t62.5 166q0 106 -62.5 167t-167.5 61z" />
    <glyph glyph-name="Q" unicode="Q" horiz-adv-x="1769" 
d="M1386 -451h-204q-94 0 -164.5 10t-133.5 37.5t-102.5 73t-62.5 118t-23 171.5v18q-121 25 -224 82.5t-174.5 133.5t-122 167t-74 184.5t-23.5 184.5v45q0 114 32.5 223.5t100 208t161.5 173t226.5 118t286.5 43.5q152 0 284.5 -43.5t226.5 -118t162 -172.5t101 -208
t33 -224v-45q0 -93 -24.5 -187.5t-77 -187t-126.5 -169t-180 -133t-231 -79.5v-22q0 -115 121 -115h212v-287zM885 315q191 0 306.5 123.5t115.5 311.5q0 196 -114.5 315t-307.5 119q-194 0 -308 -119t-114 -315q0 -189 115 -312t307 -123z" />
    <glyph glyph-name="R" unicode="R" horiz-adv-x="1515" 
d="M532 0h-380v1507h620q296 0 462.5 -132t166.5 -380v-32q0 -318 -277 -441l367 -522h-438l-303 459h-218v-459zM795 1188h-263v-436h263q100 0 160.5 59t60.5 158q0 100 -60.5 159.5t-160.5 59.5z" />
    <glyph glyph-name="S" unicode="S" horiz-adv-x="1349" 
d="M684 -41q-307 0 -473 139t-166 367h369q0 -86 68.5 -138.5t201.5 -52.5q118 0 185 44.5t67 121.5q0 66 -57 102t-185 46l-96 8q-234 20 -370 146t-136 331q0 218 150 342.5t407 124.5q271 0 423.5 -134t152.5 -359h-369q0 76 -56 127t-151 51q-91 0 -139.5 -42.5
t-48.5 -109.5q0 -134 174 -147l96 -8q170 -15 297.5 -72t202 -161t74.5 -245q0 -221 -166 -351t-455 -130z" />
    <glyph glyph-name="T" unicode="T" horiz-adv-x="1282" 
d="M831 0h-380v1163h-410v332h1200v-332h-410v-1163z" />
    <glyph glyph-name="U" unicode="U" horiz-adv-x="1579" 
d="M791 -41q-319 0 -493.5 174.5t-174.5 478.5v883h381v-891q0 -135 75 -212t212 -77q136 0 210 76.5t74 212.5v891h381v-883q0 -305 -173 -479t-492 -174z" />
    <glyph glyph-name="V" unicode="V" horiz-adv-x="1536" 
d="M1090 0h-615l-434 1495h393l316 -1192h69l295 1192h381z" />
    <glyph glyph-name="W" unicode="W" horiz-adv-x="2211" 
d="M961 0h-568l-356 1495h393l258 -1192h49l195 1139h375l227 -1139h49l223 1192h369l-313 -1495h-580l-166 797z" />
    <glyph glyph-name="X" unicode="X" horiz-adv-x="1495" 
d="M418 0h-406l488 782l-447 713h418l256 -432h53l248 432h406l-449 -725l498 -770h-418l-305 494h-53z" />
    <glyph glyph-name="Y" unicode="Y" horiz-adv-x="1347" 
d="M879 0h-373v561h-74l-424 934h389l277 -647h51l246 647h368l-387 -934h-73v-561z" />
    <glyph glyph-name="Z" unicode="Z" horiz-adv-x="1320" 
d="M1255 0h-1194v254l719 905l-18 25h-672v311h1174v-254l-721 -905l18 -25h694v-311z" />
    <glyph glyph-name="bracketleft" unicode="[" horiz-adv-x="815" 
d="M737 -373h-577v1962h577v-311h-221v-1339h221v-312z" />
    <glyph glyph-name="backslash" unicode="\" horiz-adv-x="876" 
d="M852 -123h-381l-446 1720h381z" />
    <glyph glyph-name="bracketright" unicode="]" horiz-adv-x="815" 
d="M78 -373v312h221v1339h-221v311h577v-1962h-577z" />
    <glyph glyph-name="asciicircum" unicode="^" horiz-adv-x="1294" 
d="M414 637h-324l330 885h454l330 -885h-315l-211 618h-51z" />
    <glyph glyph-name="underscore" unicode="_" horiz-adv-x="1216" 
d="M1217 -377h-1217v279h1217v-279z" />
    <glyph glyph-name="grave" unicode="`" 
d="M569 1253h-336l-233 435h389z" />
    <glyph glyph-name="a" unicode="a" horiz-adv-x="1228" 
d="M461 -29q-183 0 -295.5 96.5t-112.5 264.5q0 182 142 270t385 88h178q-2 77 -38.5 113.5t-115.5 36.5q-137 0 -428 -17v312q196 16 391 16q265 0 406 -116.5t141 -348.5v-686h-295v209q-79 -238 -358 -238zM580 221q168 0 178 197v80h-178q-74 0 -116 -38t-42 -102
q0 -63 41.5 -100t116.5 -37z" />
    <glyph glyph-name="b" unicode="b" horiz-adv-x="1449" 
d="M864 -37q-160 0 -272.5 76.5t-161.5 220.5v-260h-295v1495h373v-537q59 100 155 152.5t220 52.5q226 0 361.5 -159.5t135.5 -411.5v-49q0 -166 -61 -297t-179.5 -207t-275.5 -76zM758 270q110 0 180 83t70 214q0 130 -68.5 209.5t-181.5 79.5q-107 0 -182.5 -71.5
t-75.5 -192.5v-70q0 -114 78.5 -183t179.5 -69z" />
    <glyph glyph-name="c" unicode="c" horiz-adv-x="1255" 
d="M651 -41q-142 0 -255 48.5t-183 131t-106.5 185.5t-36.5 217v41q0 119 38.5 225t110 187.5t183.5 129t249 47.5q230 0 380.5 -133.5t162.5 -343.5h-365q-6 71 -52 116.5t-126 45.5q-104 0 -156.5 -78.5t-52.5 -216.5q0 -287 209 -287q84 0 131 44t56 124h364
q-12 -215 -165.5 -349t-385.5 -134z" />
    <glyph glyph-name="d" unicode="d" horiz-adv-x="1449" 
d="M600 -37q-155 0 -276.5 74t-187.5 204t-66 294v49q0 165 62.5 296t181.5 207t274 76q240 0 354 -180v512h373v-1495h-295v240q-52 -132 -160 -204.5t-260 -72.5zM700 270q106 0 178 71t72 194v69q0 116 -73.5 184t-176.5 68q-113 0 -185.5 -83t-72.5 -214t72 -210
t186 -79z" />
    <glyph glyph-name="e" unicode="e" horiz-adv-x="1286" 
d="M666 -41q-138 0 -253 50t-188.5 133t-114 187.5t-40.5 215.5v41q0 115 40 220t113 186.5t184.5 130t245.5 48.5q132 0 241.5 -48t181 -129.5t110.5 -187.5t39 -224v-119h-803q40 -205 244 -205q75 0 126 26t72 72h340q-38 -177 -182 -287t-356 -110zM653 872
q-93 0 -152 -52.5t-79 -155.5h452q-35 208 -221 208z" />
    <glyph glyph-name="f" unicode="f" horiz-adv-x="784" 
d="M504 0h-344v836h-127v270h127v20q0 394 454 394h146v-275h-154q-50 0 -76 -26.5t-26 -75.5v-37h272v-270h-272v-836z" />
    <glyph glyph-name="g" unicode="g" horiz-adv-x="1413" 
d="M588 -453q-180 0 -334 23v311q172 -22 321 -22q189 0 278 60.5t89 189.5v98q-52 -104 -147.5 -159.5t-227.5 -55.5q-227 0 -362 155t-135 402v49q0 245 144.5 405t375.5 160q148 0 252 -72t153 -208v247h295v-997q0 -309 -172.5 -447.5t-529.5 -138.5zM692 299
q104 0 173 69.5t69 190.5v49q0 114 -71 181t-171 67q-111 0 -180.5 -77.5t-69.5 -205.5q0 -127 69 -200.5t181 -73.5z" />
    <glyph glyph-name="h" unicode="h" horiz-adv-x="1343" 
d="M508 0h-373v1495h373v-547q86 219 326 219h16q185 0 282 -133.5t97 -390.5v-643h-373v657q0 79 -47.5 129t-124.5 50q-78 0 -127 -50.5t-49 -132.5v-653z" />
    <glyph glyph-name="i" unicode="i" horiz-adv-x="700" 
d="M340 1221q-98 0 -147.5 50.5t-49.5 135.5t49.5 135.5t147.5 50.5t147.5 -50.5t49.5 -135.5t-49.5 -135.5t-147.5 -50.5zM561 0h-373v860h-143v270h516v-1130z" />
    <glyph glyph-name="j" unicode="j" horiz-adv-x="708" 
d="M360 1221q-98 0 -147 50.5t-49 135.5t49 135.5t147 50.5t147.5 -50.5t49.5 -135.5t-49.5 -135.5t-147.5 -50.5zM61 -422h-49v311h58q73 0 112 39t39 113v819h-151v270h512v-1085q0 -252 -123.5 -359.5t-397.5 -107.5z" />
    <glyph glyph-name="k" unicode="k" horiz-adv-x="1353" 
d="M508 0h-373v1495h373v-891l387 526h389l-356 -483l426 -647h-416l-334 528h-96v-528z" />
    <glyph glyph-name="l" unicode="l" horiz-adv-x="663" 
d="M524 0h-372v1225h-127v270h499v-1495z" />
    <glyph glyph-name="m" unicode="m" horiz-adv-x="2023" 
d="M508 0h-373v1130h295v-294q64 331 369 331h16q257 0 342 -235q85 235 342 235h17q191 0 292 -132t101 -392v-643h-373v653q0 80 -43 131.5t-119 51.5q-77 0 -121.5 -52t-44.5 -135v-649h-372v653q0 80 -43 131.5t-119 51.5q-77 0 -121.5 -52t-44.5 -135v-649z" />
    <glyph glyph-name="n" unicode="n" horiz-adv-x="1343" 
d="M508 0h-373v1130h295v-296q64 333 379 333h16q195 0 299.5 -130t104.5 -390v-647h-373v657q0 79 -47 129t-125 50q-79 0 -127.5 -50.5t-48.5 -132.5v-653z" />
    <glyph glyph-name="o" unicode="o" horiz-adv-x="1396" 
d="M698 -41q-146 0 -266 46t-198.5 125t-121 183.5t-42.5 223.5v49q0 123 44.5 230.5t124.5 186t199 123.5t260 45t260 -45t199.5 -123.5t125 -186t44.5 -230.5v-49q0 -119 -43 -223.5t-121.5 -183.5t-198.5 -125t-266 -46zM698 270q124 0 190 79.5t66 211.5
q0 134 -68 216.5t-188 82.5t-188 -82.5t-68 -216.5q0 -132 66 -211.5t190 -79.5z" />
    <glyph glyph-name="p" unicode="p" horiz-adv-x="1449" 
d="M508 -410h-373v1540h295v-288q49 155 163.5 238t274.5 83q230 0 371 -160t141 -411v-49q0 -168 -57.5 -297.5t-174.5 -206t-278 -76.5q-242 0 -362 166v-539zM758 270q110 0 180 83t70 214q0 130 -68.5 209.5t-181.5 79.5q-107 0 -182.5 -71.5t-75.5 -192.5v-70
q0 -114 78.5 -183t179.5 -69z" />
    <glyph glyph-name="q" unicode="q" horiz-adv-x="1449" 
d="M1315 -410h-373v543q-119 -170 -356 -170q-233 0 -374.5 160.5t-141.5 411.5v49q0 250 147.5 414.5t382.5 164.5q156 0 264.5 -78t155.5 -225v270h295v-1540zM700 270q106 0 178 71t72 194v69q0 116 -73.5 184t-176.5 68q-113 0 -185.5 -83t-72.5 -214t72 -210t186 -79z
" />
    <glyph glyph-name="r" unicode="r" horiz-adv-x="868" 
d="M508 0h-373v1130h295v-399q19 198 116.5 307t264.5 109h45v-320h-86q-126 0 -194 -68t-68 -194v-565z" />
    <glyph glyph-name="s" unicode="s" horiz-adv-x="1150" 
d="M584 -37q-246 0 -388 101.5t-151 285.5h328q8 -54 65 -89.5t154 -35.5q77 0 126.5 22.5t49.5 69.5q0 45 -43 72t-147 37l-78 8q-212 23 -317 117t-105 244q0 180 130.5 274t348.5 94q230 0 367.5 -100.5t146.5 -284.5h-328q-8 54 -57 88.5t-133 34.5q-66 0 -104.5 -22.5
t-38.5 -63.5q0 -42 36.5 -63.5t122.5 -30.5l78 -8q217 -23 335 -120.5t118 -254.5q0 -175 -138 -275t-378 -100z" />
    <glyph glyph-name="t" unicode="t" horiz-adv-x="892" 
d="M827 -16h-153q-278 0 -390 105.5t-112 371.5v399h-164v270h166v295h344v-295h309v-270h-311v-409q0 -75 40.5 -115.5t115.5 -40.5h155v-311z" />
    <glyph glyph-name="u" unicode="u" horiz-adv-x="1331" 
d="M530 -37h-16q-195 0 -299 127.5t-104 384.5v655h372v-665q0 -77 45.5 -123.5t120.5 -46.5q76 0 123 47.5t47 126.5v661h373v-1130h-295v266q-69 -303 -367 -303z" />
    <glyph glyph-name="v" unicode="v" horiz-adv-x="1247" 
d="M932 0h-584l-323 1130h381l219 -819h43l186 819h356z" />
    <glyph glyph-name="w" unicode="w" horiz-adv-x="1937" 
d="M831 0h-505l-297 1130h364l199 -819h43l143 783h389l164 -783h41l180 819h340l-270 -1130h-508l-147 674z" />
    <glyph glyph-name="x" unicode="x" horiz-adv-x="1257" 
d="M389 0h-377l316 575l-305 555h401l182 -370h33l172 370h377l-285 -552l346 -578h-401l-221 395h-33z" />
    <glyph glyph-name="y" unicode="y" horiz-adv-x="1181" 
d="M362 -451h-219v312h260q72 0 109.5 28.5t54.5 100.5l8 35h-245l-330 1105h373l229 -819h37l182 819h353l-297 -1212q-51 -210 -162 -289.5t-353 -79.5z" />
    <glyph glyph-name="z" unicode="z" horiz-adv-x="1036" 
d="M995 0h-934v231l488 588l-23 29h-460v282h917v-231l-487 -588l22 -28h477v-283z" />
    <glyph glyph-name="braceleft" unicode="{" horiz-adv-x="815" 
d="M750 -373h-54q-458 0 -458 406v293q0 63 -39 93t-121 30v327q82 0 121 30t39 93v285q0 405 458 405h54v-311h-54q-58 0 -82 -24.5t-24 -73.5v-303q0 -123 -53 -181t-164 -67v-33q111 -9 164 -67t53 -181v-311q0 -49 24 -73.5t82 -24.5h54v-312z" />
    <glyph glyph-name="bar" unicode="|" horiz-adv-x="770" 
d="M541 -408l-312 -2v1905l312 2v-1905z" />
    <glyph glyph-name="braceright" unicode="}" horiz-adv-x="815" 
d="M66 -373v312h53q58 0 82 24.5t24 73.5v311q0 123 53 181t164 67v33q-111 9 -164 67t-53 181v303q0 49 -24 73.5t-82 24.5h-53v311h53q459 0 459 -405v-285q0 -63 38.5 -93t120.5 -30v-327q-82 0 -120.5 -30t-38.5 -93v-293q0 -406 -459 -406h-53z" />
    <glyph glyph-name="asciitilde" unicode="~" horiz-adv-x="1144" 
d="M782 426q-54 0 -108 18t-96 43.5t-80.5 51t-75 43.5t-66.5 18q-86 0 -106 -133l-209 -2q6 210 100 317t221 107q54 0 108 -18t96 -43.5t80.5 -51t75 -43.5t66.5 -18q87 0 107 133h209q-2 -111 -30.5 -195t-75.5 -132t-101.5 -71.5t-114.5 -23.5z" />
    <glyph glyph-name="nbspace" unicode="&#xa0;" horiz-adv-x="417" 
 />
    <glyph glyph-name="exclamdown" unicode="&#xa1;" horiz-adv-x="663" 
d="M549 1130v-356h-434v356h434zM522 606v-971h-381v971h381z" />
    <glyph glyph-name="cent" unicode="&#xa2;" horiz-adv-x="1249" 
d="M801 0h-299v197q-203 39 -317.5 183t-114.5 341v41q0 204 115 348.5t317 183.5v181h299v-183q170 -37 271.5 -154t111.5 -290h-353q-8 67 -58.5 110t-129.5 43q-98 0 -155.5 -69t-57.5 -191q0 -119 54.5 -185.5t158.5 -66.5q84 0 135 44t62 120h352q-10 -177 -113 -296.5
t-278 -157.5v-199z" />
    <glyph glyph-name="sterling" unicode="&#xa3;" horiz-adv-x="1310" 
d="M1024 639h-471v-352h414v176h286v-463h-1171v287h131v352h-119v246h119v104q0 257 162 394t444 137q135 0 340 -21v-299q-210 21 -340 21q-146 0 -206 -61.5t-60 -184.5v-90h471v-246z" />
    <glyph glyph-name="currency" unicode="&#xa4;" horiz-adv-x="1409" 
d="M705 268q-125 0 -236 49l-203 -202l-209 213l193 192q-57 97 -57 209v33q0 113 55 207l-191 190l209 213l201 -201q110 52 238 52q127 0 237 -52l201 201l209 -213l-191 -190q56 -95 56 -207v-33q0 -110 -58 -209l193 -192l-209 -213l-203 202q-111 -49 -235 -49z
M705 547q95 0 145.5 53.5t50.5 144.5q0 94 -51.5 146.5t-144.5 52.5q-94 0 -145.5 -52.5t-51.5 -146.5q0 -91 51 -144.5t146 -53.5z" />
    <glyph glyph-name="yen" unicode="&#xa5;" horiz-adv-x="1392" 
d="M889 0h-348v291h-414v176h414v135h-414v176h260l-354 717h385l282 -606h45l250 606h365l-326 -717h260v-176h-405v-135h405v-176h-405v-291z" />
    <glyph glyph-name="brokenbar" unicode="&#xa6;" horiz-adv-x="770" 
d="M541 653h-312v842h312v-842zM541 -410h-312v842h312v-842z" />
    <glyph glyph-name="section" unicode="&#xa7;" horiz-adv-x="1232" 
d="M588 -209q-243 0 -385.5 108.5t-151.5 303.5h328q8 -63 65.5 -106.5t147.5 -43.5q75 0 118.5 29t43.5 76q0 19 -8 34.5t-27.5 29.5t-36.5 24t-52.5 23t-57 19.5t-66.5 20.5q-44 14 -68 21.5t-67.5 23t-69 27.5t-62.5 31.5t-59 38t-47.5 45t-39 54.5t-23 63.5t-9.5 74.5
q0 108 57 195t148 137q-139 100 -139 260q0 163 131 273t336 110q227 0 357 -102t130 -289h-319q-3 63 -45.5 97t-124.5 34q-65 0 -100 -29.5t-35 -77.5q0 -21 14 -39.5t33 -32t56.5 -28.5t65.5 -24.5t79 -24.5q47 -15 72 -23t71 -25t72.5 -29.5t65.5 -33.5t62 -40.5
t50 -47.5t41.5 -57.5t24.5 -67t10 -78.5q0 -212 -191 -329q94 -91 94 -230q0 -185 -130 -290t-359 -105zM664 569q13 -5 37.5 -12t33.5 -10q107 61 107 160q0 17 -4.5 31.5t-18 28l-23.5 23.5t-34.5 21.5t-38 18.5t-47 19t-48 16.5t-53.5 17.5q-8 3 -23 7.5t-27.5 8.5
t-24.5 8q-55 -27 -81 -66t-26 -79q0 -31 16 -57t37 -43.5t62.5 -36t71 -29t84.5 -27.5z" />
    <glyph glyph-name="dieresis" unicode="&#xa8;" 
d="M188 1282q-95 0 -141.5 51.5t-46.5 136.5t46.5 137t141.5 52t142 -52t47 -137t-47 -136.5t-142 -51.5zM639 1282q-95 0 -141.5 51.5t-46.5 136.5t46.5 137t141.5 52t141.5 -52t46.5 -137t-46.5 -136.5t-141.5 -51.5z" />
    <glyph glyph-name="copyright" unicode="&#xa9;" horiz-adv-x="1454" 
d="M727 217q-130 0 -239.5 38.5t-183 101.5t-125 146t-74.5 170.5t-23 176.5v37q0 91 24 179.5t76 170t126.5 143.5t182.5 99t236 37t236 -37t182.5 -99t126.5 -143.5t76 -170t24 -179.5v-37q0 -89 -23 -176.5t-74.5 -170.5t-125 -146t-183 -101.5t-239.5 -38.5zM727 328
q118 0 217.5 43.5t165.5 117.5t102.5 171.5t36.5 205.5q0 149 -62 271t-182 195t-278 73t-278 -73t-182 -195t-62 -271q0 -108 36.5 -205.5t102.5 -171.5t165.5 -117.5t217.5 -43.5zM729 477q-180 0 -280.5 105.5t-100.5 265.5v26q0 165 101.5 271t279.5 106q159 0 260 -86
t109 -225h-250q-5 45 -33 73.5t-78 28.5q-131 0 -131 -180q0 -89 29.5 -132.5t101.5 -43.5q102 0 115 111h252q-8 -143 -111.5 -231.5t-263.5 -88.5z" />
    <glyph glyph-name="ordfeminine" unicode="&#xaa;" horiz-adv-x="919" 
d="M334 686q-128 0 -206.5 68t-78.5 184q0 90 53 147.5t138 81t202 23.5h74q-9 43 -61 43q-126 0 -324 -10v274q152 12 301 12q188 0 296 -87t108 -253v-462h-263v137q-55 -158 -239 -158zM446 905q37 0 53 20.5t19 71.5v31h-72q-32 0 -50.5 -17t-18.5 -46q0 -27 17 -43.5
t52 -16.5z" />
    <glyph glyph-name="guillemotleft" unicode="&#xab;" horiz-adv-x="1404" 
d="M733 80h-438l-270 399v103l282 407h426l-295 -416v-77zM1368 80h-438l-271 399v103l283 407h426l-295 -416v-77z" />
    <glyph glyph-name="logicalnot" unicode="&#xac;" horiz-adv-x="1294" 
d="M1204 815v-684h-282v381h-832v303h1114z" />
    <glyph glyph-name="softhyphen" unicode="&#xad;" horiz-adv-x="882" 
d="M817 416h-751v332h751v-332z" />
    <glyph glyph-name="registered" unicode="&#xae;" horiz-adv-x="1388" 
d="M694 356q-111 0 -207 33.5t-164 89.5t-116.5 129.5t-72 154t-23.5 161.5v32q0 105 39 205t111 180.5t184.5 129.5t248.5 49q109 0 204 -32t164 -87t118 -127t73.5 -153.5t24.5 -164.5v-32q0 -81 -23.5 -161.5t-72.5 -154t-116.5 -129.5t-164 -89.5t-207.5 -33.5zM694 463
q138 0 246 64t165.5 172t57.5 239q0 205 -130 340t-339 135t-339 -135t-130 -340q0 -131 57.5 -239t165.5 -172t246 -64zM625 627h-189v649h264q285 0 285 -236q0 -136 -98 -194l129 -219h-205l-96 178h-15h-75v-178zM705 1120h-80v-159h80q92 0 92 79q0 80 -92 80z" />
    <glyph glyph-name="macron" unicode="&#xaf;" 
d="M737 1315h-737v258h737v-258z" />
    <glyph glyph-name="degree" unicode="&#xb0;" horiz-adv-x="905" 
d="M453 682q-183 0 -299.5 118t-116.5 290q0 171 116.5 288t299.5 117t299 -117t116 -288q0 -172 -116 -290t-299 -118zM453 940q66 0 105.5 42t39.5 108q0 64 -39.5 105.5t-105.5 41.5t-106 -41.5t-40 -105.5q0 -66 40 -108t106 -42z" />
    <glyph glyph-name="plusminus" unicode="&#xb1;" horiz-adv-x="1249" 
d="M780 434h-311v330h-346v283h346v329h311v-329h346v-283h-346v-330zM1126 31h-1003v280h1003v-280z" />
    <glyph glyph-name="twosuperior" unicode="&#xb2;" horiz-adv-x="776" 
d="M700 860h-626v176q0 85 45 142t147 98l117 47q48 21 70 44.5t22 64.5q0 32 -24 52.5t-68 20.5q-86 0 -86 -80h-236q0 124 82 203.5t240 79.5q155 0 239.5 -76t84.5 -190v-15q0 -94 -52 -156.5t-182 -115.5l-117 -47q-34 -12 -48.5 -22t-14.5 -29h407v-197z" />
    <glyph glyph-name="threesuperior" unicode="&#xb3;" horiz-adv-x="780" 
d="M383 836q-151 0 -242.5 78.5t-91.5 195.5h236q0 -32 27 -52t71 -20q46 0 71 22.5t25 59.5q0 35 -26.5 59.5t-69.5 24.5q-53 0 -98 -35l-107 181l215 102l-12 23h-295v208h590v-221l-195 -96q111 -20 173.5 -84t62.5 -160v-14q0 -118 -90.5 -195t-243.5 -77z" />
    <glyph glyph-name="acute" unicode="&#xb4;" 
d="M328 1253h-328l184 435h381z" />
    <glyph glyph-name="micro" unicode="&#xb5;" horiz-adv-x="1400" 
d="M444 -410h-333v1540h372v-665q0 -77 45.5 -123.5t120.5 -46.5q76 0 123 47.5t47 126.5v661h373v-743q0 -68 68 -68h96v-319h-135q-148 0 -231 48t-116 145q-43 -115 -122.5 -172.5t-184.5 -57.5h-12q-71 0 -133 35q22 -101 22 -176v-232z" />
    <glyph glyph-name="paragraph" unicode="&#xb6;" horiz-adv-x="1316" 
d="M809 0h-240v739h-153q-204 0 -302 98.5t-98 272.5v23q0 174 98 272t302 98h393v-1503zM1169 0h-235v1503h235v-1503z" />
    <glyph glyph-name="periodcentered" unicode="&#xb7;" horiz-adv-x="565" 
d="M483 385h-401v406h401v-406z" />
    <glyph glyph-name="cedilla" unicode="&#xb8;" 
d="M244 -573q-98 0 -174 26v225q72 -26 155 -26q111 0 111 51q0 39 -78 39h-117v287h226v-123q211 -36 211 -213q0 -117 -87.5 -191.5t-246.5 -74.5z" />
    <glyph glyph-name="onesuperior" unicode="&#xb9;" horiz-adv-x="540" 
d="M444 860h-243v613h-152v210h395v-823z" />
    <glyph glyph-name="ordmasculine" unicode="&#xba;" horiz-adv-x="1005" 
d="M504 676q-203 0 -323 112.5t-120 286.5v41q0 180 122.5 293t320.5 113t319 -113t121 -293v-41q0 -174 -118.5 -286.5t-321.5 -112.5zM504 950q108 0 108 146q0 70 -27.5 110.5t-80.5 40.5t-82 -40.5t-29 -110.5q0 -146 111 -146z" />
    <glyph glyph-name="guillemotright" unicode="&#xbb;" horiz-adv-x="1404" 
d="M672 989h438l270 -399v-103l-282 -407h-426l295 416v77zM37 989h438l270 -399v-103l-282 -407h-426l295 416v77z" />
    <glyph glyph-name="onequarter" unicode="&#xbc;" horiz-adv-x="1769" 
d="M496 -45h-246l852 1438h246zM444 522h-243v613h-152v211h395v-824zM1642 0h-225v131h-438v252l311 506l185 -113l-256 -424l18 -28h180v276h225v-276h89v-193h-89v-131z" />
    <glyph glyph-name="onehalf" unicode="&#xbd;" horiz-adv-x="1789" 
d="M496 -45h-246l852 1438h246zM444 522h-243v613h-152v211h395v-824zM1714 0h-627v176q0 85 45.5 142t147.5 98l117 47q48 21 70 44t22 64q0 32 -24 53t-68 21q-86 0 -86 -80h-236q0 124 82 203.5t240 79.5q155 0 239 -76t84 -190v-15q0 -94 -51.5 -156.5t-181.5 -115.5
l-117 -47q-34 -12 -48.5 -22t-14.5 -29h407v-197z" />
    <glyph glyph-name="threequarters" unicode="&#xbe;" horiz-adv-x="1970" 
d="M696 -45h-245l852 1438h245zM383 498q-151 0 -242.5 78.5t-91.5 195.5h236q0 -32 27 -52t71 -20q46 0 71 22.5t25 59.5q0 35 -26.5 59.5t-69.5 24.5q-53 0 -98 -35l-107 181l215 102l-12 23h-295v209h590v-222l-195 -96q111 -20 173.5 -84t62.5 -160v-14
q0 -118 -90.5 -195t-243.5 -77zM1843 0h-225v131h-438v252l311 506l184 -113l-256 -424l19 -28h180v276h225v-276h88v-193h-88v-131z" />
    <glyph glyph-name="questiondown" unicode="&#xbf;" horiz-adv-x="1159" 
d="M420 1130h418v-356h-418v356zM444 610h369v-348h-207q-94 0 -143 -49.5t-49 -128.5q0 -77 45.5 -125.5t126.5 -48.5q80 0 126 49.5t46 124.5h356q0 -216 -145 -355t-396 -139q-236 0 -376 127t-140 336v25q0 170 100 283t285 153z" />
    <glyph glyph-name="Agrave" unicode="&#xc0;" horiz-adv-x="1617" 
d="M983 1606h-360l-248 376h397zM397 0h-381l480 1495h610l496 -1495h-394l-108 346h-596zM598 657h403l-165 531h-76z" />
    <glyph glyph-name="Aacute" unicode="&#xc1;" horiz-adv-x="1617" 
d="M963 1606h-357l254 376h393zM397 0h-381l480 1495h610l496 -1495h-394l-108 346h-596zM598 657h403l-165 531h-76z" />
    <glyph glyph-name="Acircumflex" unicode="&#xc2;" horiz-adv-x="1617" 
d="M651 1606h-332l267 376h438l270 -376h-340l-135 200h-37zM397 0h-381l480 1495h610l496 -1495h-394l-108 346h-596zM598 657h403l-165 531h-76z" />
    <glyph glyph-name="Atilde" unicode="&#xc3;" horiz-adv-x="1617" 
d="M985 1591q-61 0 -114.5 18t-86 39.5t-78 39.5t-92.5 18q-123 0 -196 -84l-53 254q89 104 249 104q61 0 114.5 -18t86 -39t78 -39t92.5 -18q126 0 199 84l53 -254q-90 -105 -252 -105zM397 0h-381l480 1495h610l496 -1495h-394l-108 346h-596zM598 657h403l-165 531h-76z
" />
    <glyph glyph-name="Adieresis" unicode="&#xc4;" horiz-adv-x="1617" 
d="M567 1618q-98 0 -147 49.5t-49 134.5t49 135t147 50t147.5 -50t49.5 -135t-49.5 -134.5t-147.5 -49.5zM1034 1618q-98 0 -147 49.5t-49 134.5t49 135t147 50t147.5 -50t49.5 -135t-49.5 -134.5t-147.5 -49.5zM397 0h-381l480 1495h610l496 -1495h-394l-108 346h-596z
M598 657h403l-165 531h-76z" />
    <glyph glyph-name="Aring" unicode="&#xc5;" horiz-adv-x="1617" 
d="M801 1556q-123 0 -199 64.5t-76 169.5t76 169t199 64t198.5 -64t75.5 -169q0 -106 -75.5 -170t-198.5 -64zM801 1718q36 0 57 20t21 52t-21 52t-57 20t-57 -20t-21 -52t21 -52t57 -20zM397 0h-381l480 1495h610l496 -1495h-394l-108 346h-596zM598 657h403l-165 531h-76z
" />
    <glyph glyph-name="AE" unicode="&#xc6;" horiz-adv-x="2019" 
d="M365 0h-381l589 1495h1332v-311h-576v-269h547v-311h-547v-293h588v-311h-950v367h-457zM633 680h334v508h-133z" />
    <glyph glyph-name="Ccedilla" unicode="&#xc7;" horiz-adv-x="1642" 
d="M838 -586q-114 0 -185 27v233q76 -26 166 -26q117 0 117 51q0 39 -84 39h-119v227q-132 16 -243 71t-185.5 132.5t-127 173t-76 193t-23.5 194.5v45q0 114 29 223.5t91 208t150 173t215 118t277 43.5q306 0 505.5 -168.5t225.5 -443.5h-381q-22 116 -116 186t-234 70
q-177 0 -277 -116.5t-100 -317.5q0 -202 102.5 -318.5t284.5 -116.5q143 0 242.5 70t119.5 186h381q-17 -154 -94.5 -281.5t-214 -214t-313.5 -108.5v-61q211 -40 211 -217q0 -120 -91 -197.5t-253 -77.5z" />
    <glyph glyph-name="Egrave" unicode="&#xc8;" horiz-adv-x="1212" 
d="M805 1606h-361l-247 376h397zM1110 0h-958v1495h946v-311h-578v-269h547v-311h-547v-293h590v-311z" />
    <glyph glyph-name="Eacute" unicode="&#xc9;" horiz-adv-x="1212" 
d="M784 1606h-356l254 376h393zM1110 0h-958v1495h946v-311h-578v-269h547v-311h-547v-293h590v-311z" />
    <glyph glyph-name="Ecircumflex" unicode="&#xca;" horiz-adv-x="1212" 
d="M473 1606h-332l267 376h438l270 -376h-340l-135 200h-37zM1110 0h-958v1495h946v-311h-578v-269h547v-311h-547v-293h590v-311z" />
    <glyph glyph-name="Edieresis" unicode="&#xcb;" horiz-adv-x="1212" 
d="M389 1618q-98 0 -147 49.5t-49 134.5t49 135t147 50t147.5 -50t49.5 -135t-49.5 -134.5t-147.5 -49.5zM856 1618q-98 0 -147.5 49.5t-49.5 134.5t49.5 135t147.5 50t147.5 -50t49.5 -135t-49.5 -134.5t-147.5 -49.5zM1110 0h-958v1495h946v-311h-578v-269h547v-311h-547
v-293h590v-311z" />
    <glyph glyph-name="Igrave" unicode="&#xcc;" horiz-adv-x="692" 
d="M528 1606h-360l-248 376h397zM537 0h-381v1495h381v-1495z" />
    <glyph glyph-name="Iacute" unicode="&#xcd;" horiz-adv-x="692" 
d="M508 1606h-356l254 376h393zM537 0h-381v1495h381v-1495z" />
    <glyph glyph-name="Icircumflex" unicode="&#xce;" horiz-adv-x="692" 
d="M197 1606h-332l266 376h438l271 -376h-340l-135 200h-37zM537 0h-381v1495h381v-1495z" />
    <glyph glyph-name="Idieresis" unicode="&#xcf;" horiz-adv-x="692" 
d="M113 1618q-98 0 -147.5 49.5t-49.5 134.5t49.5 135t147.5 50t147 -50t49 -135t-49 -134.5t-147 -49.5zM580 1618q-98 0 -147.5 49.5t-49.5 134.5t49.5 135t147.5 50t147 -50t49 -135t-49 -134.5t-147 -49.5zM537 0h-381v1495h381v-1495z" />
    <glyph glyph-name="Eth" unicode="&#xd0;" horiz-adv-x="1593" 
d="M721 -8h-569v600h-129v311h129v604h569q158 0 291.5 -38t229 -105t162.5 -159.5t99.5 -201t32.5 -229.5v-45q0 -112 -32.5 -218.5t-100 -200.5t-162.5 -165t-229 -112t-291 -41zM829 592h-297v-244h205q193 0 303.5 108t110.5 296q0 194 -109 296.5t-305 102.5h-205v-248
h297v-311z" />
    <glyph glyph-name="Ntilde" unicode="&#xd1;" horiz-adv-x="1812" 
d="M1112 1591q-61 0 -114.5 18t-86 39.5t-78 39.5t-92.5 18q-123 0 -196 -84l-53 254q89 104 249 104q61 0 114.5 -18t86 -39t78 -39t92.5 -18q126 0 199 84l53 -254q-90 -105 -252 -105zM504 0h-352v1495h624l498 -1192h31v1192h356v-1495h-629l-497 1192h-31v-1192z" />
    <glyph glyph-name="Ograve" unicode="&#xd2;" horiz-adv-x="1769" 
d="M1067 1606h-360l-248 376h397zM885 -41q-157 0 -292 47.5t-228 125.5t-159 179t-97 207.5t-31 210.5v45q0 114 32.5 223.5t100 208t161.5 173t226.5 118t286.5 43.5q152 0 284.5 -43.5t226.5 -118t162 -172.5t101 -208t33 -224v-45q0 -104 -31 -210.5t-97.5 -207.5
t-159.5 -179t-227.5 -125.5t-291.5 -47.5zM885 315q191 0 306.5 123.5t115.5 311.5q0 196 -114.5 315t-307.5 119q-194 0 -308 -119t-114 -315q0 -189 115 -312t307 -123z" />
    <glyph glyph-name="Oacute" unicode="&#xd3;" horiz-adv-x="1769" 
d="M1047 1606h-357l254 376h393zM885 -41q-157 0 -292 47.5t-228 125.5t-159 179t-97 207.5t-31 210.5v45q0 114 32.5 223.5t100 208t161.5 173t226.5 118t286.5 43.5q152 0 284.5 -43.5t226.5 -118t162 -172.5t101 -208t33 -224v-45q0 -104 -31 -210.5t-97.5 -207.5
t-159.5 -179t-227.5 -125.5t-291.5 -47.5zM885 315q191 0 306.5 123.5t115.5 311.5q0 196 -114.5 315t-307.5 119q-194 0 -308 -119t-114 -315q0 -189 115 -312t307 -123z" />
    <glyph glyph-name="Ocircumflex" unicode="&#xd4;" horiz-adv-x="1769" 
d="M735 1606h-332l267 376h438l270 -376h-340l-135 200h-37zM885 -41q-157 0 -292 47.5t-228 125.5t-159 179t-97 207.5t-31 210.5v45q0 114 32.5 223.5t100 208t161.5 173t226.5 118t286.5 43.5q152 0 284.5 -43.5t226.5 -118t162 -172.5t101 -208t33 -224v-45
q0 -104 -31 -210.5t-97.5 -207.5t-159.5 -179t-227.5 -125.5t-291.5 -47.5zM885 315q191 0 306.5 123.5t115.5 311.5q0 196 -114.5 315t-307.5 119q-194 0 -308 -119t-114 -315q0 -189 115 -312t307 -123z" />
    <glyph glyph-name="Otilde" unicode="&#xd5;" horiz-adv-x="1769" 
d="M1069 1591q-61 0 -114.5 18t-86 39.5t-78 39.5t-92.5 18q-123 0 -196 -84l-53 254q89 104 249 104q61 0 114.5 -18t86 -39t78 -39t92.5 -18q126 0 199 84l53 -254q-90 -105 -252 -105zM885 -41q-157 0 -292 47.5t-228 125.5t-159 179t-97 207.5t-31 210.5v45
q0 114 32.5 223.5t100 208t161.5 173t226.5 118t286.5 43.5q152 0 284.5 -43.5t226.5 -118t162 -172.5t101 -208t33 -224v-45q0 -104 -31 -210.5t-97.5 -207.5t-159.5 -179t-227.5 -125.5t-291.5 -47.5zM885 315q191 0 306.5 123.5t115.5 311.5q0 196 -114.5 315t-307.5 119
q-194 0 -308 -119t-114 -315q0 -189 115 -312t307 -123z" />
    <glyph glyph-name="Odieresis" unicode="&#xd6;" horiz-adv-x="1769" 
d="M651 1618q-98 0 -147 49.5t-49 134.5t49 135t147 50t147.5 -50t49.5 -135t-49.5 -134.5t-147.5 -49.5zM1118 1618q-98 0 -147 49.5t-49 134.5t49 135t147 50t147.5 -50t49.5 -135t-49.5 -134.5t-147.5 -49.5zM885 -41q-157 0 -292 47.5t-228 125.5t-159 179t-97 207.5
t-31 210.5v45q0 114 32.5 223.5t100 208t161.5 173t226.5 118t286.5 43.5q152 0 284.5 -43.5t226.5 -118t162 -172.5t101 -208t33 -224v-45q0 -104 -31 -210.5t-97.5 -207.5t-159.5 -179t-227.5 -125.5t-291.5 -47.5zM885 315q191 0 306.5 123.5t115.5 311.5
q0 196 -114.5 315t-307.5 119q-194 0 -308 -119t-114 -315q0 -189 115 -312t307 -123z" />
    <glyph glyph-name="multiply" unicode="&#xd7;" horiz-adv-x="1224" 
d="M78 379l323 323l-323 322l215 215l323 -324l324 324l207 -207l-324 -323l324 -322l-215 -215l-324 324l-323 -324z" />
    <glyph glyph-name="Oslash" unicode="&#xd8;" horiz-adv-x="1769" 
d="M438 -143h-278l190 286q-132 114 -202 272t-70 314v45q0 114 32.5 223.5t100 208t161.5 173t226.5 118t286.5 43.5q192 0 348 -67l96 145h279l-178 -268q126 -108 194 -261t68 -315v-45q0 -104 -31 -210.5t-97.5 -207.5t-159.5 -179t-227.5 -125.5t-291.5 -47.5
q-186 0 -336 64zM463 750q0 -171 96 -291l469 704q-67 21 -143 21q-194 0 -308 -119t-114 -315zM885 315q191 0 306.5 123.5t115.5 311.5q0 171 -88 282l-465 -700q70 -17 131 -17z" />
    <glyph glyph-name="Ugrave" unicode="&#xd9;" horiz-adv-x="1579" 
d="M973 1606h-361l-247 376h397zM791 -41q-319 0 -493.5 174.5t-174.5 478.5v883h381v-891q0 -135 75 -212t212 -77q136 0 210 76.5t74 212.5v891h381v-883q0 -305 -173 -479t-492 -174z" />
    <glyph glyph-name="Uacute" unicode="&#xda;" horiz-adv-x="1579" 
d="M952 1606h-356l254 376h393zM791 -41q-319 0 -493.5 174.5t-174.5 478.5v883h381v-891q0 -135 75 -212t212 -77q136 0 210 76.5t74 212.5v891h381v-883q0 -305 -173 -479t-492 -174z" />
    <glyph glyph-name="Ucircumflex" unicode="&#xdb;" horiz-adv-x="1579" 
d="M641 1606h-332l266 376h439l270 -376h-340l-135 200h-37zM791 -41q-319 0 -493.5 174.5t-174.5 478.5v883h381v-891q0 -135 75 -212t212 -77q136 0 210 76.5t74 212.5v891h381v-883q0 -305 -173 -479t-492 -174z" />
    <glyph glyph-name="Udieresis" unicode="&#xdc;" horiz-adv-x="1579" 
d="M557 1618q-98 0 -147.5 49.5t-49.5 134.5t49.5 135t147.5 50t147.5 -50t49.5 -135t-49.5 -134.5t-147.5 -49.5zM1024 1618q-98 0 -147.5 49.5t-49.5 134.5t49.5 135t147.5 50t147.5 -50t49.5 -135t-49.5 -134.5t-147.5 -49.5zM791 -41q-319 0 -493.5 174.5t-174.5 478.5
v883h381v-891q0 -135 75 -212t212 -77q136 0 210 76.5t74 212.5v891h381v-883q0 -305 -173 -479t-492 -174z" />
    <glyph glyph-name="Yacute" unicode="&#xdd;" horiz-adv-x="1347" 
d="M846 1606h-357l254 376h394zM879 0h-373v561h-74l-424 934h389l277 -647h51l246 647h368l-387 -934h-73v-561z" />
    <glyph glyph-name="Thorn" unicode="&#xde;" horiz-adv-x="1355" 
d="M532 0h-380v1495h380v-188h179q284 0 448 -142t164 -389v-33q0 -247 -163.5 -388.5t-448.5 -141.5h-179v-213zM721 979h-189v-436h189q100 0 158.5 57.5t58.5 159.5t-58.5 160.5t-158.5 58.5z" />
    <glyph glyph-name="germandbls" unicode="&#xdf;" horiz-adv-x="1419" 
d="M831 -29q-117 0 -200 27v299q95 -27 160 -27q91 0 145.5 47t54.5 138q0 87 -57.5 143.5t-175.5 56.5h-90v271h67q66 0 104 40.5t38 104.5q0 73 -45.5 117.5t-118.5 44.5q-79 0 -132 -52.5t-53 -150.5v-1030h-372v803h-123v270h125q17 219 163.5 339t387.5 120h8
q240 0 386 -121.5t146 -314.5q0 -200 -157 -285q133 -46 202.5 -146t69.5 -243q0 -114 -43.5 -202.5t-118.5 -141.5t-169 -80t-202 -27z" />
    <glyph glyph-name="agrave" unicode="&#xe0;" horiz-adv-x="1228" 
d="M770 1253h-336l-233 435h389zM461 -29q-183 0 -295.5 96.5t-112.5 264.5q0 182 142 270t385 88h178q-2 77 -38.5 113.5t-115.5 36.5q-137 0 -428 -17v312q196 16 391 16q265 0 406 -116.5t141 -348.5v-686h-295v209q-79 -238 -358 -238zM580 221q168 0 178 197v80h-178
q-74 0 -116 -38t-42 -102q0 -63 41.5 -100t116.5 -37z" />
    <glyph glyph-name="aacute" unicode="&#xe1;" horiz-adv-x="1228" 
d="M748 1253h-328l184 435h381zM461 -29q-183 0 -295.5 96.5t-112.5 264.5q0 182 142 270t385 88h178q-2 77 -38.5 113.5t-115.5 36.5q-137 0 -428 -17v312q196 16 391 16q265 0 406 -116.5t141 -348.5v-686h-295v209q-79 -238 -358 -238zM580 221q168 0 178 197v80h-178
q-74 0 -116 -38t-42 -102q0 -63 41.5 -100t116.5 -37z" />
    <glyph glyph-name="acircumflex" unicode="&#xe2;" horiz-adv-x="1228" 
d="M475 1253h-307l207 435h459l210 -435h-315l-115 263h-28zM461 -29q-183 0 -295.5 96.5t-112.5 264.5q0 182 142 270t385 88h178q-2 77 -38.5 113.5t-115.5 36.5q-137 0 -428 -17v312q196 16 391 16q265 0 406 -116.5t141 -348.5v-686h-295v209q-79 -238 -358 -238z
M580 221q168 0 178 197v80h-178q-74 0 -116 -38t-42 -102q0 -63 41.5 -100t116.5 -37z" />
    <glyph glyph-name="atilde" unicode="&#xe3;" horiz-adv-x="1228" 
d="M770 1266q-58 0 -106.5 16.5t-77 36.5t-69.5 36.5t-85 16.5q-98 0 -174 -72l-53 254q93 93 227 93q47 0 87.5 -11t68.5 -26.5t54.5 -31.5t59 -27t68.5 -11q100 0 176 72l53 -254q-92 -92 -229 -92zM461 -29q-183 0 -295.5 96.5t-112.5 264.5q0 182 142 270t385 88h178
q-2 77 -38.5 113.5t-115.5 36.5q-137 0 -428 -17v312q196 16 391 16q265 0 406 -116.5t141 -348.5v-686h-295v209q-79 -238 -358 -238zM580 221q168 0 178 197v80h-178q-74 0 -116 -38t-42 -102q0 -63 41.5 -100t116.5 -37z" />
    <glyph glyph-name="adieresis" unicode="&#xe4;" horiz-adv-x="1228" 
d="M377 1282q-95 0 -142 51.5t-47 136.5t47 137t142 52t141.5 -52t46.5 -137t-46.5 -136.5t-141.5 -51.5zM827 1282q-95 0 -141.5 51.5t-46.5 136.5t46.5 137t141.5 52t142 -52t47 -137t-47 -136.5t-142 -51.5zM461 -29q-183 0 -295.5 96.5t-112.5 264.5q0 182 142 270
t385 88h178q-2 77 -38.5 113.5t-115.5 36.5q-137 0 -428 -17v312q196 16 391 16q265 0 406 -116.5t141 -348.5v-686h-295v209q-79 -238 -358 -238zM580 221q168 0 178 197v80h-178q-74 0 -116 -38t-42 -102q0 -63 41.5 -100t116.5 -37z" />
    <glyph glyph-name="aring" unicode="&#xe5;" horiz-adv-x="1228" 
d="M602 1231q-121 0 -196.5 71.5t-75.5 184.5t75.5 184.5t196.5 71.5t196.5 -71.5t75.5 -184.5t-75.5 -184.5t-196.5 -71.5zM602 1405q38 0 60 23t22 59t-22 59t-60 23t-60 -23t-22 -59t22 -59t60 -23zM461 -29q-183 0 -295.5 96.5t-112.5 264.5q0 182 142 270t385 88h178
q-2 77 -38.5 113.5t-115.5 36.5q-137 0 -428 -17v312q196 16 391 16q265 0 406 -116.5t141 -348.5v-686h-295v209q-79 -238 -358 -238zM580 221q168 0 178 197v80h-178q-74 0 -116 -38t-42 -102q0 -63 41.5 -100t116.5 -37z" />
    <glyph glyph-name="ae" unicode="&#xe6;" horiz-adv-x="1961" 
d="M1346 -41q-157 0 -271 63.5t-182 170.5q-53 -107 -164 -165.5t-254 -58.5q-190 0 -306 96.5t-116 264.5q0 182 142 270t385 88h178q-2 77 -38.5 113.5t-115.5 36.5q-137 0 -428 -17v312q196 16 387 16q275 0 398 -145q136 163 376 163q130 0 238.5 -48t178.5 -130
t108.5 -188t38.5 -223v-113h-803q36 -207 243 -207q74 0 126.5 26t72.5 72h340q-37 -177 -181.5 -287t-352.5 -110zM1329 868q-93 0 -152.5 -54t-78.5 -157h452q-15 103 -71.5 157t-149.5 54zM580 219q80 0 129 49t49 158v70h-178q-74 0 -116 -38t-42 -102q0 -63 41.5 -100
t116.5 -37z" />
    <glyph glyph-name="ccedilla" unicode="&#xe7;" horiz-adv-x="1255" 
d="M645 -573q-98 0 -174 26v225q72 -26 156 -26q110 0 110 51q0 39 -78 39h-116v225q-115 17 -207 71t-149 132.5t-87 173t-30 197.5v41q0 119 38.5 225t110 187.5t183.5 129t249 47.5q230 0 380.5 -133.5t162.5 -343.5h-365q-6 71 -52 116.5t-126 45.5q-104 0 -156.5 -78.5
t-52.5 -216.5q0 -287 209 -287q84 0 131 44t56 124h364q-10 -186 -128.5 -313t-305.5 -160v-63q211 -36 211 -213q0 -117 -87.5 -191.5t-246.5 -74.5z" />
    <glyph glyph-name="egrave" unicode="&#xe8;" horiz-adv-x="1286" 
d="M821 1253h-336l-233 435h389zM666 -41q-138 0 -253 50t-188.5 133t-114 187.5t-40.5 215.5v41q0 115 40 220t113 186.5t184.5 130t245.5 48.5q132 0 241.5 -48t181 -129.5t110.5 -187.5t39 -224v-119h-803q40 -205 244 -205q75 0 126 26t72 72h340q-38 -177 -182 -287
t-356 -110zM653 872q-93 0 -152 -52.5t-79 -155.5h452q-35 208 -221 208z" />
    <glyph glyph-name="eacute" unicode="&#xe9;" horiz-adv-x="1286" 
d="M799 1253h-328l184 435h381zM666 -41q-138 0 -253 50t-188.5 133t-114 187.5t-40.5 215.5v41q0 115 40 220t113 186.5t184.5 130t245.5 48.5q132 0 241.5 -48t181 -129.5t110.5 -187.5t39 -224v-119h-803q40 -205 244 -205q75 0 126 26t72 72h340q-38 -177 -182 -287
t-356 -110zM653 872q-93 0 -152 -52.5t-79 -155.5h452q-35 208 -221 208z" />
    <glyph glyph-name="ecircumflex" unicode="&#xea;" horiz-adv-x="1286" 
d="M526 1253h-307l207 435h459l211 -435h-316l-114 263h-29zM666 -41q-138 0 -253 50t-188.5 133t-114 187.5t-40.5 215.5v41q0 115 40 220t113 186.5t184.5 130t245.5 48.5q132 0 241.5 -48t181 -129.5t110.5 -187.5t39 -224v-119h-803q40 -205 244 -205q75 0 126 26t72 72
h340q-38 -177 -182 -287t-356 -110zM653 872q-93 0 -152 -52.5t-79 -155.5h452q-35 208 -221 208z" />
    <glyph glyph-name="edieresis" unicode="&#xeb;" horiz-adv-x="1286" 
d="M428 1282q-95 0 -141.5 51.5t-46.5 136.5t46.5 137t141.5 52t141.5 -52t46.5 -137t-46.5 -136.5t-141.5 -51.5zM879 1282q-95 0 -142 51.5t-47 136.5t47 137t142 52t141.5 -52t46.5 -137t-46.5 -136.5t-141.5 -51.5zM666 -41q-138 0 -253 50t-188.5 133t-114 187.5
t-40.5 215.5v41q0 115 40 220t113 186.5t184.5 130t245.5 48.5q132 0 241.5 -48t181 -129.5t110.5 -187.5t39 -224v-119h-803q40 -205 244 -205q75 0 126 26t72 72h340q-38 -177 -182 -287t-356 -110zM653 872q-93 0 -152 -52.5t-79 -155.5h452q-35 208 -221 208z" />
    <glyph glyph-name="igrave" unicode="&#xec;" horiz-adv-x="700" 
d="M494 1253h-336l-234 435h389zM561 0h-373v860h-143v270h516v-1130z" />
    <glyph glyph-name="iacute" unicode="&#xed;" horiz-adv-x="700" 
d="M471 1253h-328l185 435h381zM561 0h-373v860h-143v270h516v-1130z" />
    <glyph glyph-name="icircumflex" unicode="&#xee;" horiz-adv-x="700" 
d="M199 1253h-308l207 435h459l211 -435h-315l-115 263h-29zM561 0h-373v860h-143v270h516v-1130z" />
    <glyph glyph-name="idieresis" unicode="&#xef;" horiz-adv-x="700" 
d="M100 1282q-95 0 -141.5 51.5t-46.5 136.5t46.5 137t141.5 52t142 -52t47 -137t-47 -136.5t-142 -51.5zM551 1282q-95 0 -142 51.5t-47 136.5t47 137t142 52t141.5 -52t46.5 -137t-46.5 -136.5t-141.5 -51.5zM561 0h-373v860h-143v270h516v-1130z" />
    <glyph glyph-name="eth" unicode="&#xf0;" horiz-adv-x="1396" 
d="M700 -37q-142 0 -261 41.5t-199.5 113.5t-125 170.5t-44.5 211.5v32q0 154 73 270t193.5 175t267.5 59q140 0 254.5 -55.5t165.5 -155.5q-20 223 -106 330l-123 -123l-129 131l86 86q-67 13 -138 13q-115 0 -276 -25v279q138 24 274 24q209 0 361 -70l162 162l129 -131
l-140 -139q199 -199 199 -629v-53q0 -342 -163 -529.5t-460 -187.5zM702 274q122 0 191.5 63t69.5 179q0 118 -71.5 184t-189.5 66t-189 -66t-71 -184q0 -116 69.5 -179t190.5 -63z" />
    <glyph glyph-name="ntilde" unicode="&#xf1;" horiz-adv-x="1343" 
d="M854 1266q-58 0 -106.5 16.5t-77 36.5t-69.5 36.5t-85 16.5q-98 0 -174 -72l-53 254q93 93 227 93q47 0 87.5 -11t68.5 -26.5t54.5 -31.5t59 -27t68.5 -11q100 0 176 72l53 -254q-92 -92 -229 -92zM508 0h-373v1130h295v-296q64 333 379 333h16q195 0 299.5 -130
t104.5 -390v-647h-373v657q0 79 -47 129t-125 50q-79 0 -127.5 -50.5t-48.5 -132.5v-653z" />
    <glyph glyph-name="ograve" unicode="&#xf2;" horiz-adv-x="1396" 
d="M866 1253h-336l-233 435h389zM698 -41q-146 0 -266 46t-198.5 125t-121 183.5t-42.5 223.5v49q0 123 44.5 230.5t124.5 186t199 123.5t260 45t260 -45t199.5 -123.5t125 -186t44.5 -230.5v-49q0 -119 -43 -223.5t-121.5 -183.5t-198.5 -125t-266 -46zM698 270
q124 0 190 79.5t66 211.5q0 134 -68 216.5t-188 82.5t-188 -82.5t-68 -216.5q0 -132 66 -211.5t190 -79.5z" />
    <glyph glyph-name="oacute" unicode="&#xf3;" horiz-adv-x="1396" 
d="M844 1253h-328l184 435h381zM698 -41q-146 0 -266 46t-198.5 125t-121 183.5t-42.5 223.5v49q0 123 44.5 230.5t124.5 186t199 123.5t260 45t260 -45t199.5 -123.5t125 -186t44.5 -230.5v-49q0 -119 -43 -223.5t-121.5 -183.5t-198.5 -125t-266 -46zM698 270
q124 0 190 79.5t66 211.5q0 134 -68 216.5t-188 82.5t-188 -82.5t-68 -216.5q0 -132 66 -211.5t190 -79.5z" />
    <glyph glyph-name="ocircumflex" unicode="&#xf4;" horiz-adv-x="1396" 
d="M571 1253h-307l207 435h459l211 -435h-316l-114 263h-29zM698 -41q-146 0 -266 46t-198.5 125t-121 183.5t-42.5 223.5v49q0 123 44.5 230.5t124.5 186t199 123.5t260 45t260 -45t199.5 -123.5t125 -186t44.5 -230.5v-49q0 -119 -43 -223.5t-121.5 -183.5t-198.5 -125
t-266 -46zM698 270q124 0 190 79.5t66 211.5q0 134 -68 216.5t-188 82.5t-188 -82.5t-68 -216.5q0 -132 66 -211.5t190 -79.5z" />
    <glyph glyph-name="otilde" unicode="&#xf5;" horiz-adv-x="1396" 
d="M866 1266q-58 0 -106.5 16.5t-77 36.5t-69.5 36.5t-85 16.5q-98 0 -174 -72l-53 254q93 93 227 93q47 0 87.5 -11t68.5 -26.5t54.5 -31.5t59 -27t68.5 -11q100 0 176 72l54 -254q-92 -92 -230 -92zM698 -41q-146 0 -266 46t-198.5 125t-121 183.5t-42.5 223.5v49
q0 123 44.5 230.5t124.5 186t199 123.5t260 45t260 -45t199.5 -123.5t125 -186t44.5 -230.5v-49q0 -119 -43 -223.5t-121.5 -183.5t-198.5 -125t-266 -46zM698 270q124 0 190 79.5t66 211.5q0 134 -68 216.5t-188 82.5t-188 -82.5t-68 -216.5q0 -132 66 -211.5t190 -79.5z
" />
    <glyph glyph-name="odieresis" unicode="&#xf6;" horiz-adv-x="1396" 
d="M473 1282q-95 0 -141.5 51.5t-46.5 136.5t46.5 137t141.5 52t142 -52t47 -137t-47 -136.5t-142 -51.5zM924 1282q-95 0 -142 51.5t-47 136.5t47 137t142 52t141.5 -52t46.5 -137t-46.5 -136.5t-141.5 -51.5zM698 -41q-146 0 -266 46t-198.5 125t-121 183.5t-42.5 223.5
v49q0 123 44.5 230.5t124.5 186t199 123.5t260 45t260 -45t199.5 -123.5t125 -186t44.5 -230.5v-49q0 -119 -43 -223.5t-121.5 -183.5t-198.5 -125t-266 -46zM698 270q124 0 190 79.5t66 211.5q0 134 -68 216.5t-188 82.5t-188 -82.5t-68 -216.5q0 -132 66 -211.5t190 -79.5
z" />
    <glyph glyph-name="divide" unicode="&#xf7;" horiz-adv-x="1224" 
d="M780 983h-336v324h336v-324zM1135 553h-1045v303h1045v-303zM780 102h-336v324h336v-324z" />
    <glyph glyph-name="oslash" unicode="&#xf8;" horiz-adv-x="1396" 
d="M352 -135h-213l146 221q-103 79 -159 197t-56 254v49q0 123 44.5 230.5t124.5 186t199 123.5t260 45q151 0 275 -51l71 109h213l-131 -199q97 -80 149 -194.5t52 -249.5v-49q0 -119 -43 -223.5t-121.5 -183.5t-198.5 -125t-266 -46q-141 0 -256 41zM442 561
q0 -105 41 -176l308 461q-51 14 -93 14q-120 0 -188 -82.5t-68 -216.5zM698 270q124 0 190 79.5t66 211.5q0 90 -32 162l-295 -444q35 -9 71 -9z" />
    <glyph glyph-name="ugrave" unicode="&#xf9;" horiz-adv-x="1331" 
d="M819 1253h-336l-233 435h389zM530 -37h-16q-195 0 -299 127.5t-104 384.5v655h372v-665q0 -77 45.5 -123.5t120.5 -46.5q76 0 123 47.5t47 126.5v661h373v-1130h-295v266q-69 -303 -367 -303z" />
    <glyph glyph-name="uacute" unicode="&#xfa;" horiz-adv-x="1331" 
d="M797 1253h-328l184 435h381zM530 -37h-16q-195 0 -299 127.5t-104 384.5v655h372v-665q0 -77 45.5 -123.5t120.5 -46.5q76 0 123 47.5t47 126.5v661h373v-1130h-295v266q-69 -303 -367 -303z" />
    <glyph glyph-name="ucircumflex" unicode="&#xfb;" horiz-adv-x="1331" 
d="M524 1253h-307l207 435h459l211 -435h-316l-114 263h-29zM530 -37h-16q-195 0 -299 127.5t-104 384.5v655h372v-665q0 -77 45.5 -123.5t120.5 -46.5q76 0 123 47.5t47 126.5v661h373v-1130h-295v266q-69 -303 -367 -303z" />
    <glyph glyph-name="udieresis" unicode="&#xfc;" horiz-adv-x="1331" 
d="M426 1282q-95 0 -141.5 51.5t-46.5 136.5t46.5 137t141.5 52t141.5 -52t46.5 -137t-46.5 -136.5t-141.5 -51.5zM877 1282q-95 0 -142 51.5t-47 136.5t47 137t142 52t141.5 -52t46.5 -137t-46.5 -136.5t-141.5 -51.5zM530 -37h-16q-195 0 -299 127.5t-104 384.5v655h372
v-665q0 -77 45.5 -123.5t120.5 -46.5q76 0 123 47.5t47 126.5v661h373v-1130h-295v266q-69 -303 -367 -303z" />
    <glyph glyph-name="yacute" unicode="&#xfd;" horiz-adv-x="1181" 
d="M743 1253h-327l184 435h381zM362 -451h-219v312h260q72 0 109.5 28.5t54.5 100.5l8 35h-245l-330 1105h373l229 -819h37l182 819h353l-297 -1212q-51 -210 -162 -289.5t-353 -79.5z" />
    <glyph glyph-name="thorn" unicode="&#xfe;" horiz-adv-x="1449" 
d="M508 -410h-373v1905h373v-577q52 113 151.5 175t239.5 62q224 0 352.5 -154.5t128.5 -412.5v-49q0 -168 -58 -296.5t-174.5 -204t-277.5 -75.5q-244 0 -362 164v-537zM758 270q111 0 180.5 81.5t69.5 211.5t-68.5 207.5t-181.5 77.5q-107 0 -182.5 -69.5t-75.5 -190.5
v-70q0 -113 78.5 -180.5t179.5 -67.5z" />
    <glyph glyph-name="ydieresis" unicode="&#xff;" horiz-adv-x="1181" 
d="M373 1282q-95 0 -142 51.5t-47 136.5t47 137t142 52t141.5 -52t46.5 -137t-46.5 -136.5t-141.5 -51.5zM823 1282q-95 0 -141.5 51.5t-46.5 136.5t46.5 137t141.5 52t142 -52t47 -137t-47 -136.5t-142 -51.5zM362 -451h-219v312h260q72 0 109.5 28.5t54.5 100.5l8 35h-245
l-330 1105h373l229 -819h37l182 819h353l-297 -1212q-51 -210 -162 -289.5t-353 -79.5z" />
    <glyph glyph-name="Amacron" unicode="&#x100;" horiz-adv-x="1617" 
d="M1221 1642h-840v259h840v-259zM397 0h-381l480 1495h610l496 -1495h-394l-108 346h-596zM598 657h403l-165 531h-76z" />
    <glyph glyph-name="amacron" unicode="&#x101;" horiz-adv-x="1228" 
d="M971 1315h-738v258h738v-258zM461 -29q-183 0 -295.5 96.5t-112.5 264.5q0 182 142 270t385 88h178q-2 77 -38.5 113.5t-115.5 36.5q-137 0 -428 -17v312q196 16 391 16q265 0 406 -116.5t141 -348.5v-686h-295v209q-79 -238 -358 -238zM580 221q168 0 178 197v80h-178
q-74 0 -116 -38t-42 -102q0 -63 41.5 -100t116.5 -37z" />
    <glyph glyph-name="Abreve" unicode="&#x102;" horiz-adv-x="1617" 
d="M801 1581q-194 0 -300 106t-112 295h266q6 -151 146 -151q143 0 149 151h258q-6 -189 -110 -295t-297 -106zM397 0h-381l480 1495h610l496 -1495h-394l-108 346h-596zM598 657h403l-165 531h-76z" />
    <glyph glyph-name="abreve" unicode="&#x103;" horiz-adv-x="1228" 
d="M604 1241q-381 0 -393 447h274q3 -102 31.5 -143.5t87.5 -41.5q60 0 90 41.5t33 143.5h266q-12 -447 -389 -447zM461 -29q-183 0 -295.5 96.5t-112.5 264.5q0 182 142 270t385 88h178q-2 77 -38.5 113.5t-115.5 36.5q-137 0 -428 -17v312q196 16 391 16q265 0 406 -116.5
t141 -348.5v-686h-295v209q-79 -238 -358 -238zM580 221q168 0 178 197v80h-178q-74 0 -116 -38t-42 -102q0 -63 41.5 -100t116.5 -37z" />
    <glyph glyph-name="Aogonek" unicode="&#x104;" horiz-adv-x="1617" 
d="M397 0h-381l480 1495h610l496 -1495h-84l-62 -59q-72 -68 -72 -125q0 -36 24.5 -57t64.5 -21q52 0 88 18v-270q-51 -14 -140 -14q-138 0 -226.5 80t-88.5 208q0 138 96 260l-102 326h-596zM598 657h403l-165 531h-76z" />
    <glyph glyph-name="aogonek" unicode="&#x105;" horiz-adv-x="1228" 
d="M461 -29q-183 0 -295.5 96.5t-112.5 264.5q0 182 142 270t385 88h178q-2 77 -38.5 113.5t-115.5 36.5q-137 0 -428 -17v312q196 16 391 16q265 0 406 -116.5t141 -348.5v-686h-4l-68 -74q-51 -54 -51 -98q0 -29 21.5 -45t58.5 -16q53 0 84 14v-262q-54 -15 -133 -15
q-135 0 -216 72t-81 195q0 130 94 252v186q-79 -238 -358 -238zM580 221q168 0 178 197v80h-178q-74 0 -116 -38t-42 -102q0 -63 41.5 -100t116.5 -37z" />
    <glyph glyph-name="Cacute" unicode="&#x106;" horiz-adv-x="1642" 
d="M1006 1606h-357l254 376h393zM850 -41q-156 0 -286.5 47.5t-218.5 125.5t-149.5 179.5t-89.5 207t-28 210.5v45q0 114 29 223.5t91 208t150 173t215 118t277 43.5q306 0 505.5 -168.5t225.5 -443.5h-381q-22 116 -116 186t-234 70q-177 0 -277 -116.5t-100 -317.5
q0 -202 102.5 -318.5t284.5 -116.5q143 0 242.5 70t119.5 186h381q-14 -127 -71.5 -238t-151 -194.5t-228 -131.5t-292.5 -48z" />
    <glyph glyph-name="cacute" unicode="&#x107;" horiz-adv-x="1255" 
d="M797 1253h-328l184 435h381zM651 -41q-142 0 -255 48.5t-183 131t-106.5 185.5t-36.5 217v41q0 119 38.5 225t110 187.5t183.5 129t249 47.5q230 0 380.5 -133.5t162.5 -343.5h-365q-6 71 -52 116.5t-126 45.5q-104 0 -156.5 -78.5t-52.5 -216.5q0 -287 209 -287
q84 0 131 44t56 124h364q-12 -215 -165.5 -349t-385.5 -134z" />
    <glyph glyph-name="Ccircumflex" unicode="&#x108;" horiz-adv-x="1642" 
d="M694 1606h-332l267 376h438l270 -376h-340l-135 200h-37zM850 -41q-156 0 -286.5 47.5t-218.5 125.5t-149.5 179.5t-89.5 207t-28 210.5v45q0 114 29 223.5t91 208t150 173t215 118t277 43.5q306 0 505.5 -168.5t225.5 -443.5h-381q-22 116 -116 186t-234 70
q-177 0 -277 -116.5t-100 -317.5q0 -202 102.5 -318.5t284.5 -116.5q143 0 242.5 70t119.5 186h381q-14 -127 -71.5 -238t-151 -194.5t-228 -131.5t-292.5 -48z" />
    <glyph glyph-name="ccircumflex" unicode="&#x109;" horiz-adv-x="1255" 
d="M524 1253h-307l207 435h459l211 -435h-316l-114 263h-29zM651 -41q-142 0 -255 48.5t-183 131t-106.5 185.5t-36.5 217v41q0 119 38.5 225t110 187.5t183.5 129t249 47.5q230 0 380.5 -133.5t162.5 -343.5h-365q-6 71 -52 116.5t-126 45.5q-104 0 -156.5 -78.5
t-52.5 -216.5q0 -287 209 -287q84 0 131 44t56 124h364q-12 -215 -165.5 -349t-385.5 -134z" />
    <glyph glyph-name="Cdotaccent" unicode="&#x10a;" horiz-adv-x="1642" 
d="M844 1618q-98 0 -147.5 49.5t-49.5 134.5t49.5 135t147.5 50t147 -50t49 -135t-49 -134.5t-147 -49.5zM850 -41q-156 0 -286.5 47.5t-218.5 125.5t-149.5 179.5t-89.5 207t-28 210.5v45q0 114 29 223.5t91 208t150 173t215 118t277 43.5q306 0 505.5 -168.5t225.5 -443.5
h-381q-22 116 -116 186t-234 70q-177 0 -277 -116.5t-100 -317.5q0 -202 102.5 -318.5t284.5 -116.5q143 0 242.5 70t119.5 186h381q-14 -127 -71.5 -238t-151 -194.5t-228 -131.5t-292.5 -48z" />
    <glyph glyph-name="cdotaccent" unicode="&#x10b;" horiz-adv-x="1255" 
d="M651 1282q-95 0 -141.5 51.5t-46.5 136.5t46.5 137t141.5 52t142 -52t47 -137t-47 -136.5t-142 -51.5zM651 -41q-142 0 -255 48.5t-183 131t-106.5 185.5t-36.5 217v41q0 119 38.5 225t110 187.5t183.5 129t249 47.5q230 0 380.5 -133.5t162.5 -343.5h-365
q-6 71 -52 116.5t-126 45.5q-104 0 -156.5 -78.5t-52.5 -216.5q0 -287 209 -287q84 0 131 44t56 124h364q-12 -215 -165.5 -349t-385.5 -134z" />
    <glyph glyph-name="Ccaron" unicode="&#x10c;" horiz-adv-x="1642" 
d="M1059 1606h-438l-271 376h340l135 -200h37l131 200h332zM850 -41q-156 0 -286.5 47.5t-218.5 125.5t-149.5 179.5t-89.5 207t-28 210.5v45q0 114 29 223.5t91 208t150 173t215 118t277 43.5q306 0 505.5 -168.5t225.5 -443.5h-381q-22 116 -116 186t-234 70
q-177 0 -277 -116.5t-100 -317.5q0 -202 102.5 -318.5t284.5 -116.5q143 0 242.5 70t119.5 186h381q-14 -127 -71.5 -238t-151 -194.5t-228 -131.5t-292.5 -48z" />
    <glyph glyph-name="ccaron" unicode="&#x10d;" horiz-adv-x="1255" 
d="M870 1253h-467l-206 435h315l115 -263h28l103 263h307zM651 -41q-142 0 -255 48.5t-183 131t-106.5 185.5t-36.5 217v41q0 119 38.5 225t110 187.5t183.5 129t249 47.5q230 0 380.5 -133.5t162.5 -343.5h-365q-6 71 -52 116.5t-126 45.5q-104 0 -156.5 -78.5
t-52.5 -216.5q0 -287 209 -287q84 0 131 44t56 124h364q-12 -215 -165.5 -349t-385.5 -134z" />
    <glyph glyph-name="Dcaron" unicode="&#x10e;" horiz-adv-x="1593" 
d="M995 1606h-438l-270 376h340l135 -200h37l131 200h332zM721 -8h-569v1515h569q158 0 291.5 -38t229 -105t162.5 -159.5t99.5 -201t32.5 -229.5v-45q0 -112 -32.5 -218.5t-100 -200.5t-162.5 -165t-229 -112t-291 -41zM737 1151h-205v-803h205q193 0 303.5 108t110.5 296
q0 194 -109 296.5t-305 102.5z" />
    <glyph glyph-name="dcaron" unicode="&#x10f;" horiz-adv-x="1449" 
d="M1671 1143h-282v540h319zM600 -37q-155 0 -276.5 74t-187.5 204t-66 294v49q0 165 62.5 296t181.5 207t274 76q240 0 354 -180v512h373v-1495h-295v240q-52 -132 -160 -204.5t-260 -72.5zM700 270q106 0 178 71t72 194v69q0 116 -73.5 184t-176.5 68q-113 0 -185.5 -83
t-72.5 -214t72 -210t186 -79z" />
    <glyph glyph-name="Dcroat" unicode="&#x110;" horiz-adv-x="1593" 
d="M721 -8h-569v600h-129v311h129v604h569q158 0 291.5 -38t229 -105t162.5 -159.5t99.5 -201t32.5 -229.5v-45q0 -112 -32.5 -218.5t-100 -200.5t-162.5 -165t-229 -112t-291 -41zM829 592h-297v-244h205q193 0 303.5 108t110.5 296q0 194 -109 296.5t-305 102.5h-205v-248
h297v-311z" />
    <glyph glyph-name="dcroat" unicode="&#x111;" horiz-adv-x="1449" 
d="M600 -37q-155 0 -276.5 74t-187.5 204t-66 294v49q0 165 62.5 296t181.5 207t274 76q240 0 354 -180v225h-278v193h278v94h373v-94h110v-193h-110v-1208h-295v240q-52 -132 -160 -204.5t-260 -72.5zM700 270q106 0 178 71t72 194v69q0 116 -73.5 184t-176.5 68
q-113 0 -185.5 -83t-72.5 -214t72 -210t186 -79z" />
    <glyph glyph-name="Emacron" unicode="&#x112;" horiz-adv-x="1212" 
d="M1042 1642h-839v259h839v-259zM1110 0h-958v1495h946v-311h-578v-269h547v-311h-547v-293h590v-311z" />
    <glyph glyph-name="emacron" unicode="&#x113;" horiz-adv-x="1286" 
d="M1022 1315h-737v258h737v-258zM666 -41q-138 0 -253 50t-188.5 133t-114 187.5t-40.5 215.5v41q0 115 40 220t113 186.5t184.5 130t245.5 48.5q132 0 241.5 -48t181 -129.5t110.5 -187.5t39 -224v-119h-803q40 -205 244 -205q75 0 126 26t72 72h340q-38 -177 -182 -287
t-356 -110zM653 872q-93 0 -152 -52.5t-79 -155.5h452q-35 208 -221 208z" />
    <glyph glyph-name="Ebreve" unicode="&#x114;" horiz-adv-x="1212" 
d="M623 1581q-194 0 -300 106t-112 295h266q6 -151 146 -151q143 0 149 151h258q-6 -189 -110 -295t-297 -106zM1110 0h-958v1495h946v-311h-578v-269h547v-311h-547v-293h590v-311z" />
    <glyph glyph-name="ebreve" unicode="&#x115;" horiz-adv-x="1286" 
d="M655 1241q-381 0 -393 447h275q3 -103 31 -144t87 -41q60 0 90 41.5t33 143.5h266q-12 -447 -389 -447zM666 -41q-138 0 -253 50t-188.5 133t-114 187.5t-40.5 215.5v41q0 115 40 220t113 186.5t184.5 130t245.5 48.5q132 0 241.5 -48t181 -129.5t110.5 -187.5t39 -224
v-119h-803q40 -205 244 -205q75 0 126 26t72 72h340q-38 -177 -182 -287t-356 -110zM653 872q-93 0 -152 -52.5t-79 -155.5h452q-35 208 -221 208z" />
    <glyph glyph-name="Edotaccent" unicode="&#x116;" horiz-adv-x="1212" 
d="M623 1618q-98 0 -147.5 49.5t-49.5 134.5t49.5 135t147.5 50t147 -50t49 -135t-49 -134.5t-147 -49.5zM1110 0h-958v1495h946v-311h-578v-269h547v-311h-547v-293h590v-311z" />
    <glyph glyph-name="edotaccent" unicode="&#x117;" horiz-adv-x="1286" 
d="M653 1282q-95 0 -141.5 51.5t-46.5 136.5t46.5 137t141.5 52t142 -52t47 -137t-47 -136.5t-142 -51.5zM666 -41q-138 0 -253 50t-188.5 133t-114 187.5t-40.5 215.5v41q0 115 40 220t113 186.5t184.5 130t245.5 48.5q132 0 241.5 -48t181 -129.5t110.5 -187.5t39 -224
v-119h-803q40 -205 244 -205q75 0 126 26t72 72h340q-38 -177 -182 -287t-356 -110zM653 872q-93 0 -152 -52.5t-79 -155.5h452q-35 208 -221 208z" />
    <glyph glyph-name="Eogonek" unicode="&#x118;" horiz-adv-x="1212" 
d="M1014 -528q-138 0 -227 80t-89 208t80 240h-626v1495h946v-311h-578v-269h547v-311h-547v-293h590v-311l-61 -59q-72 -68 -72 -125q0 -36 24 -57t64 -21q52 0 88 18v-270q-51 -14 -139 -14z" />
    <glyph glyph-name="eogonek" unicode="&#x119;" horiz-adv-x="1286" 
d="M666 -41q-138 0 -253 50t-188.5 133t-114 187.5t-40.5 215.5v41q0 115 40 220t113 186.5t184.5 130t245.5 48.5q132 0 241.5 -48t181 -129.5t110.5 -187.5t39 -224v-119h-803q40 -205 244 -205q75 0 126 26t72 72h340q-31 -150 -137 -250l-53 -57q-51 -54 -51 -98
q0 -29 21 -45.5t58 -16.5q50 0 84 15v-262q-54 -15 -133 -15q-135 0 -216 72t-81 195q0 35 6 65h-36zM653 872q-93 0 -152 -52.5t-79 -155.5h452q-35 208 -221 208z" />
    <glyph glyph-name="Ecaron" unicode="&#x11a;" horiz-adv-x="1212" 
d="M838 1606h-439l-270 376h340l135 -200h37l131 200h332zM1110 0h-958v1495h946v-311h-578v-269h547v-311h-547v-293h590v-311z" />
    <glyph glyph-name="ecaron" unicode="&#x11b;" horiz-adv-x="1286" 
d="M872 1253h-466l-207 435h315l115 -263h28l103 263h307zM666 -41q-138 0 -253 50t-188.5 133t-114 187.5t-40.5 215.5v41q0 115 40 220t113 186.5t184.5 130t245.5 48.5q132 0 241.5 -48t181 -129.5t110.5 -187.5t39 -224v-119h-803q40 -205 244 -205q75 0 126 26t72 72
h340q-38 -177 -182 -287t-356 -110zM653 872q-93 0 -152 -52.5t-79 -155.5h452q-35 208 -221 208z" />
    <glyph glyph-name="Gcircumflex" unicode="&#x11c;" horiz-adv-x="1705" 
d="M688 1606h-332l267 376h438l270 -376h-340l-135 200h-37zM874 -41q-163 0 -298.5 47t-225.5 124t-153 178.5t-91 207.5t-28 213v45q0 114 29.5 223t92.5 207.5t151.5 173t215 118.5t275.5 44q306 0 506 -165.5t227 -430.5h-381q-19 104 -115 172t-237 68
q-180 0 -279.5 -120t-99.5 -314q0 -197 107.5 -320t303.5 -123q106 0 190 38.5t130 105.5v77h-360v267h831v-267h-123v-233q-94 -161 -267.5 -248.5t-400.5 -87.5z" />
    <glyph glyph-name="gcircumflex" unicode="&#x11d;" horiz-adv-x="1413" 
d="M539 1253h-308l207 435h459l211 -435h-315l-115 263h-29zM588 -453q-180 0 -334 23v311q172 -22 321 -22q189 0 278 60.5t89 189.5v98q-52 -104 -147.5 -159.5t-227.5 -55.5q-227 0 -362 155t-135 402v49q0 245 144.5 405t375.5 160q148 0 252 -72t153 -208v247h295v-997
q0 -309 -172.5 -447.5t-529.5 -138.5zM692 299q104 0 173 69.5t69 190.5v49q0 114 -71 181t-171 67q-111 0 -180.5 -77.5t-69.5 -205.5q0 -127 69 -200.5t181 -73.5z" />
    <glyph glyph-name="Gbreve" unicode="&#x11e;" horiz-adv-x="1705" 
d="M838 1581q-194 0 -300 106t-112 295h266q6 -151 146 -151q143 0 149 151h258q-6 -189 -110 -295t-297 -106zM874 -41q-163 0 -298.5 47t-225.5 124t-153 178.5t-91 207.5t-28 213v45q0 114 29.5 223t92.5 207.5t151.5 173t215 118.5t275.5 44q306 0 506 -165.5
t227 -430.5h-381q-19 104 -115 172t-237 68q-180 0 -279.5 -120t-99.5 -314q0 -197 107.5 -320t303.5 -123q106 0 190 38.5t130 105.5v77h-360v267h831v-267h-123v-233q-94 -161 -267.5 -248.5t-400.5 -87.5z" />
    <glyph glyph-name="gbreve" unicode="&#x11f;" horiz-adv-x="1413" 
d="M668 1241q-382 0 -394 447h275q3 -102 31.5 -143.5t87.5 -41.5q60 0 90 41.5t33 143.5h266q-12 -447 -389 -447zM588 -453q-180 0 -334 23v311q172 -22 321 -22q189 0 278 60.5t89 189.5v98q-52 -104 -147.5 -159.5t-227.5 -55.5q-227 0 -362 155t-135 402v49
q0 245 144.5 405t375.5 160q148 0 252 -72t153 -208v247h295v-997q0 -309 -172.5 -447.5t-529.5 -138.5zM692 299q104 0 173 69.5t69 190.5v49q0 114 -71 181t-171 67q-111 0 -180.5 -77.5t-69.5 -205.5q0 -127 69 -200.5t181 -73.5z" />
    <glyph glyph-name="Gdotaccent" unicode="&#x120;" horiz-adv-x="1705" 
d="M838 1618q-98 0 -147.5 49.5t-49.5 134.5t49.5 135t147.5 50t147 -50t49 -135t-49 -134.5t-147 -49.5zM874 -41q-163 0 -298.5 47t-225.5 124t-153 178.5t-91 207.5t-28 213v45q0 114 29.5 223t92.5 207.5t151.5 173t215 118.5t275.5 44q306 0 506 -165.5t227 -430.5
h-381q-19 104 -115 172t-237 68q-180 0 -279.5 -120t-99.5 -314q0 -197 107.5 -320t303.5 -123q106 0 190 38.5t130 105.5v77h-360v267h831v-267h-123v-233q-94 -161 -267.5 -248.5t-400.5 -87.5z" />
    <glyph glyph-name="gdotaccent" unicode="&#x121;" horiz-adv-x="1413" 
d="M666 1282q-95 0 -142 51.5t-47 136.5t47 137t142 52t141.5 -52t46.5 -137t-46.5 -136.5t-141.5 -51.5zM588 -453q-180 0 -334 23v311q172 -22 321 -22q189 0 278 60.5t89 189.5v98q-52 -104 -147.5 -159.5t-227.5 -55.5q-227 0 -362 155t-135 402v49q0 245 144.5 405
t375.5 160q148 0 252 -72t153 -208v247h295v-997q0 -309 -172.5 -447.5t-529.5 -138.5zM692 299q104 0 173 69.5t69 190.5v49q0 114 -71 181t-171 67q-111 0 -180.5 -77.5t-69.5 -205.5q0 -127 69 -200.5t181 -73.5z" />
    <glyph glyph-name="Gcommaaccent" unicode="&#x122;" horiz-adv-x="1705" 
d="M874 -41q-163 0 -298.5 47t-225.5 124t-153 178.5t-91 207.5t-28 213v45q0 114 29.5 223t92.5 207.5t151.5 173t215 118.5t275.5 44q306 0 506 -165.5t227 -430.5h-381q-19 104 -115 172t-237 68q-180 0 -279.5 -120t-99.5 -314q0 -197 107.5 -320t303.5 -123
q106 0 190 38.5t130 105.5v77h-360v267h831v-267h-123v-233q-94 -161 -267.5 -248.5t-400.5 -87.5zM786 -643h-63v180h68q64 0 90 25t26 71q-29 -16 -67 -16q-60 0 -97.5 37t-37.5 102q0 78 51.5 116t130.5 38q101 0 157 -66t56 -182v-12q0 -143 -84 -218t-230 -75z" />
    <glyph glyph-name="gcommaaccent" unicode="&#x123;" horiz-adv-x="1413" 
d="M678 1217q-98 0 -152.5 65.5t-54.5 181.5v13q0 140 83.5 216t225.5 76h58v-180h-62q-112 0 -112 -92q24 12 57 12q60 0 96.5 -37t36.5 -102q0 -77 -50.5 -115t-125.5 -38zM588 -453q-180 0 -334 23v311q172 -22 321 -22q189 0 278 60.5t89 189.5v98
q-52 -104 -147.5 -159.5t-227.5 -55.5q-227 0 -362 155t-135 402v49q0 245 144.5 405t375.5 160q148 0 252 -72t153 -208v247h295v-997q0 -309 -172.5 -447.5t-529.5 -138.5zM692 299q104 0 173 69.5t69 190.5v49q0 114 -71 181t-171 67q-111 0 -180.5 -77.5t-69.5 -205.5
q0 -127 69 -200.5t181 -73.5z" />
    <glyph glyph-name="Hbar" unicode="&#x126;" horiz-adv-x="1634" 
d="M532 0h-380v1092h-101v254h101v149h380v-149h570v149h381v-149h100v-254h-100v-1092h-381v588h-570v-588zM532 920h570v172h-570v-172z" />
    <glyph glyph-name="hbar" unicode="&#x127;" horiz-adv-x="1343" 
d="M508 0h-373v1208h-110v193h110v94h373v-94h278v-193h-278v-260q86 219 326 219h16q185 0 282 -133.5t97 -390.5v-643h-373v657q0 79 -47.5 129t-124.5 50q-78 0 -127 -50.5t-49 -132.5v-653z" />
    <glyph glyph-name="Itilde" unicode="&#x128;" horiz-adv-x="692" 
d="M530 1591q-61 0 -114.5 18t-85.5 39.5t-77.5 39.5t-92.5 18q-124 0 -197 -84l-53 254q89 104 250 104q61 0 114.5 -18t85.5 -39t77.5 -39t92.5 -18q126 0 199 84l53 -254q-90 -105 -252 -105zM537 0h-381v1495h381v-1495z" />
    <glyph glyph-name="itilde" unicode="&#x129;" horiz-adv-x="700" 
d="M494 1266q-58 0 -106.5 16.5t-77 36.5t-69.5 36.5t-85 16.5q-98 0 -174 -72l-54 254q93 93 228 93q47 0 87.5 -11t68.5 -26.5t54.5 -31.5t59 -27t68.5 -11q100 0 176 72l53 -254q-92 -92 -229 -92zM561 0h-373v860h-143v270h516v-1130z" />
    <glyph glyph-name="Imacron" unicode="&#x12a;" horiz-adv-x="692" 
d="M766 1642h-840v259h840v-259zM537 0h-381v1495h381v-1495z" />
    <glyph glyph-name="imacron" unicode="&#x12b;" horiz-adv-x="700" 
d="M694 1315h-737v258h737v-258zM561 0h-373v860h-143v270h516v-1130z" />
    <glyph glyph-name="Ibreve" unicode="&#x12c;" horiz-adv-x="692" 
d="M346 1581q-194 0 -300 106t-112 295h267q6 -151 145 -151q144 0 150 151h258q-6 -189 -110.5 -295t-297.5 -106zM537 0h-381v1495h381v-1495z" />
    <glyph glyph-name="ibreve" unicode="&#x12d;" horiz-adv-x="700" 
d="M328 1241q-382 0 -394 447h275q3 -102 31.5 -143.5t87.5 -41.5q60 0 90 41.5t33 143.5h266q-12 -447 -389 -447zM561 0h-373v860h-143v270h516v-1130z" />
    <glyph glyph-name="Iogonek" unicode="&#x12e;" horiz-adv-x="692" 
d="M537 0h-21l-61 -59q-72 -68 -72 -125q0 -36 24 -57t64 -21q52 0 88 18v-270q-51 -14 -139 -14q-138 0 -227 80t-89 208t80 240h-28v1495h381v-1495z" />
    <glyph glyph-name="iogonek" unicode="&#x12f;" horiz-adv-x="700" 
d="M340 1221q-98 0 -147.5 50.5t-49.5 135.5t49.5 135.5t147.5 50.5t147.5 -50.5t49.5 -135.5t-49.5 -135.5t-147.5 -50.5zM561 0h-41l-67 -74q-52 -55 -52 -98q0 -29 21.5 -45t58.5 -16q53 0 84 14v-262q-54 -15 -133 -15q-135 0 -216 72t-81 195t78 229h-25v860h-143v270
h516v-1130z" />
    <glyph glyph-name="Idotaccent" unicode="&#x130;" horiz-adv-x="692" 
d="M346 1618q-98 0 -147 49.5t-49 134.5t49 135t147 50t147.5 -50t49.5 -135t-49.5 -134.5t-147.5 -49.5zM537 0h-381v1495h381v-1495z" />
    <glyph glyph-name="dotlessi" unicode="&#x131;" horiz-adv-x="700" 
d="M561 0h-373v860h-143v270h516v-1130z" />
    <glyph glyph-name="Jcircumflex" unicode="&#x134;" horiz-adv-x="1318" 
d="M563 1606h-332l267 376h438l270 -376h-340l-135 200h-37zM629 -41q-267 0 -415 145.5t-148 409.5v82h376v-94q0 -85 49.5 -136t135.5 -51t135 51t49 136v661h-578v332h959v-981q0 -264 -147.5 -409.5t-415.5 -145.5z" />
    <glyph glyph-name="jcircumflex" unicode="&#x135;" horiz-adv-x="708" 
d="M203 1253h-307l206 435h459l211 -435h-315l-115 263h-29zM61 -422h-49v311h58q73 0 112 39t39 113v819h-151v270h512v-1085q0 -252 -123.5 -359.5t-397.5 -107.5z" />
    <glyph glyph-name="Kcommaaccent" unicode="&#x136;" horiz-adv-x="1591" 
d="M532 0h-380v1495h380v-700l531 700h438l-487 -643l592 -852h-459l-485 698h-130v-698zM737 -643h-63v180h67q64 0 90.5 25t26.5 71q-29 -16 -67 -16q-60 0 -98 37t-38 102q0 78 52 116t131 38q101 0 157 -66t56 -182v-12q0 -143 -84 -218t-230 -75z" />
    <glyph glyph-name="kcommaaccent" unicode="&#x137;" horiz-adv-x="1353" 
d="M508 0h-373v1495h373v-891l387 526h389l-356 -483l426 -647h-416l-334 528h-96v-528zM711 -86q98 0 152.5 -66t54.5 -182v-12q0 -140 -84 -216.5t-226 -76.5h-57v180h61q113 0 113 92q-24 -12 -57 -12q-60 0 -96.5 37t-36.5 102q0 77 50.5 115.5t125.5 38.5z" />
    <glyph glyph-name="Lacute" unicode="&#x139;" horiz-adv-x="1150" 
d="M504 1606h-357l254 376h394zM1098 0h-946v1495h380v-1163h566v-332z" />
    <glyph glyph-name="lacute" unicode="&#x13a;" horiz-adv-x="663" 
d="M444 1606h-356l254 376h393zM524 0h-372v1225h-127v270h499v-1495z" />
    <glyph glyph-name="Lcommaaccent" unicode="&#x13b;" horiz-adv-x="1150" 
d="M1098 0h-946v1495h380v-1163h566v-332zM532 -643h-63v180h68q64 0 90 25t26 71q-29 -16 -67 -16q-60 0 -97.5 37t-37.5 102q0 78 51.5 116t130.5 38q101 0 157 -66t56 -182v-12q0 -143 -84 -218t-230 -75z" />
    <glyph glyph-name="lcommaaccent" unicode="&#x13c;" horiz-adv-x="663" 
d="M524 0h-372v1225h-127v270h499v-1495zM340 -86q98 0 152.5 -66t54.5 -182v-12q0 -140 -83.5 -216.5t-225.5 -76.5h-58v180h62q112 0 112 92q-24 -12 -57 -12q-60 0 -96.5 37t-36.5 102q0 77 50.5 115.5t125.5 38.5z" />
    <glyph glyph-name="Lcaron" unicode="&#x13d;" horiz-adv-x="1150" 
d="M958 1157h-282v541h319zM1098 0h-946v1495h380v-1163h566v-332z" />
    <glyph glyph-name="lcaron" unicode="&#x13e;" horiz-adv-x="663" 
d="M881 1143h-283v540h320zM524 0h-372v1225h-127v270h499v-1495z" />
    <glyph glyph-name="Lslash" unicode="&#x141;" horiz-adv-x="1150" 
d="M1098 0h-946v465l-115 -66v299l115 66v731h380v-518l281 162v-299l-281 -162v-346h566v-332z" />
    <glyph glyph-name="lslash" unicode="&#x142;" horiz-adv-x="663" 
d="M524 0h-372v444l-134 -73v270l134 74v510h-127v270h499v-584l125 68v-270l-125 -68v-641z" />
    <glyph glyph-name="Nacute" unicode="&#x143;" horiz-adv-x="1812" 
d="M1090 1606h-357l254 376h393zM504 0h-352v1495h624l498 -1192h31v1192h356v-1495h-629l-497 1192h-31v-1192z" />
    <glyph glyph-name="nacute" unicode="&#x144;" horiz-adv-x="1343" 
d="M831 1253h-327l184 435h381zM508 0h-373v1130h295v-296q64 333 379 333h16q195 0 299.5 -130t104.5 -390v-647h-373v657q0 79 -47 129t-125 50q-79 0 -127.5 -50.5t-48.5 -132.5v-653z" />
    <glyph glyph-name="Ncommaaccent" unicode="&#x145;" horiz-adv-x="1812" 
d="M504 0h-352v1495h624l498 -1192h31v1192h356v-1495h-629l-497 1192h-31v-1192zM805 -643h-64v180h68q64 0 90.5 25t26.5 71q-29 -16 -68 -16q-60 0 -97.5 37t-37.5 102q0 78 51.5 116t130.5 38q101 0 157 -66t56 -182v-12q0 -143 -83.5 -218t-229.5 -75z" />
    <glyph glyph-name="ncommaaccent" unicode="&#x146;" horiz-adv-x="1343" 
d="M508 0h-373v1130h295v-296q64 333 379 333h16q195 0 299.5 -130t104.5 -390v-647h-373v657q0 79 -47 129t-125 50q-79 0 -127.5 -50.5t-48.5 -132.5v-653zM684 -86q98 0 152.5 -66t54.5 -182v-12q0 -140 -83.5 -216.5t-225.5 -76.5h-58v180h62q112 0 112 92
q-24 -12 -57 -12q-60 0 -96.5 37t-36.5 102q0 77 50.5 115.5t125.5 38.5z" />
    <glyph glyph-name="Ncaron" unicode="&#x147;" horiz-adv-x="1812" 
d="M1143 1606h-438l-271 376h340l135 -200h37l131 200h332zM504 0h-352v1495h624l498 -1192h31v1192h356v-1495h-629l-497 1192h-31v-1192z" />
    <glyph glyph-name="ncaron" unicode="&#x148;" horiz-adv-x="1343" 
d="M905 1253h-467l-207 435h316l115 -263h28l103 263h307zM508 0h-373v1130h295v-296q64 333 379 333h16q195 0 299.5 -130t104.5 -390v-647h-373v657q0 79 -47 129t-125 50q-79 0 -127.5 -50.5t-48.5 -132.5v-653z" />
    <glyph glyph-name="Eng" unicode="&#x14a;" horiz-adv-x="1812" 
d="M1130 -502h-212v330h233q79 0 120.5 37.5t41.5 134.5v41h-297l-481 1151h-31v-1192h-352v1495h624l481 -1151h48v1151h356v-1485q0 -125 -28 -217.5t-89.5 -159.5t-165 -101t-248.5 -34z" />
    <glyph glyph-name="eng" unicode="&#x14b;" horiz-adv-x="1343" 
d="M508 0h-373v1130h295v-296q64 333 379 333h16q195 0 299.5 -130t104.5 -390v-647q0 -218 -120 -318t-384 -100h-86v312h94q70 0 96.5 26.5t26.5 79.5v657q0 79 -47 129t-125 50q-79 0 -127.5 -50.5t-48.5 -132.5v-653z" />
    <glyph glyph-name="Omacron" unicode="&#x14c;" horiz-adv-x="1769" 
d="M1305 1642h-840v259h840v-259zM885 -41q-157 0 -292 47.5t-228 125.5t-159 179t-97 207.5t-31 210.5v45q0 114 32.5 223.5t100 208t161.5 173t226.5 118t286.5 43.5q152 0 284.5 -43.5t226.5 -118t162 -172.5t101 -208t33 -224v-45q0 -104 -31 -210.5t-97.5 -207.5
t-159.5 -179t-227.5 -125.5t-291.5 -47.5zM885 315q191 0 306.5 123.5t115.5 311.5q0 196 -114.5 315t-307.5 119q-194 0 -308 -119t-114 -315q0 -189 115 -312t307 -123z" />
    <glyph glyph-name="omacron" unicode="&#x14d;" horiz-adv-x="1396" 
d="M1067 1315h-737v258h737v-258zM698 -41q-146 0 -266 46t-198.5 125t-121 183.5t-42.5 223.5v49q0 123 44.5 230.5t124.5 186t199 123.5t260 45t260 -45t199.5 -123.5t125 -186t44.5 -230.5v-49q0 -119 -43 -223.5t-121.5 -183.5t-198.5 -125t-266 -46zM698 270
q124 0 190 79.5t66 211.5q0 134 -68 216.5t-188 82.5t-188 -82.5t-68 -216.5q0 -132 66 -211.5t190 -79.5z" />
    <glyph glyph-name="Obreve" unicode="&#x14e;" horiz-adv-x="1769" 
d="M885 1581q-194 0 -300 106t-112 295h266q6 -151 146 -151q143 0 149 151h258q-6 -189 -110 -295t-297 -106zM885 -41q-157 0 -292 47.5t-228 125.5t-159 179t-97 207.5t-31 210.5v45q0 114 32.5 223.5t100 208t161.5 173t226.5 118t286.5 43.5q152 0 284.5 -43.5
t226.5 -118t162 -172.5t101 -208t33 -224v-45q0 -104 -31 -210.5t-97.5 -207.5t-159.5 -179t-227.5 -125.5t-291.5 -47.5zM885 315q191 0 306.5 123.5t115.5 311.5q0 196 -114.5 315t-307.5 119q-194 0 -308 -119t-114 -315q0 -189 115 -312t307 -123z" />
    <glyph glyph-name="obreve" unicode="&#x14f;" horiz-adv-x="1396" 
d="M700 1241q-381 0 -393 447h275q3 -103 31 -144t87 -41q60 0 90 41.5t33 143.5h267q-12 -447 -390 -447zM698 -41q-146 0 -266 46t-198.5 125t-121 183.5t-42.5 223.5v49q0 123 44.5 230.5t124.5 186t199 123.5t260 45t260 -45t199.5 -123.5t125 -186t44.5 -230.5v-49
q0 -119 -43 -223.5t-121.5 -183.5t-198.5 -125t-266 -46zM698 270q124 0 190 79.5t66 211.5q0 134 -68 216.5t-188 82.5t-188 -82.5t-68 -216.5q0 -132 66 -211.5t190 -79.5z" />
    <glyph glyph-name="Ohungarumlaut" unicode="&#x150;" horiz-adv-x="1769" 
d="M1200 1606h-278l186 376h295zM823 1606h-278l186 376h295zM885 -41q-157 0 -292 47.5t-228 125.5t-159 179t-97 207.5t-31 210.5v45q0 114 32.5 223.5t100 208t161.5 173t226.5 118t286.5 43.5q152 0 284.5 -43.5t226.5 -118t162 -172.5t101 -208t33 -224v-45
q0 -104 -31 -210.5t-97.5 -207.5t-159.5 -179t-227.5 -125.5t-291.5 -47.5zM885 315q191 0 306.5 123.5t115.5 311.5q0 196 -114.5 315t-307.5 119q-194 0 -308 -119t-114 -315q0 -189 115 -312t307 -123z" />
    <glyph glyph-name="ohungarumlaut" unicode="&#x151;" horiz-adv-x="1396" 
d="M1016 1253h-266l172 435h282zM631 1253h-266l172 435h282zM698 -41q-146 0 -266 46t-198.5 125t-121 183.5t-42.5 223.5v49q0 123 44.5 230.5t124.5 186t199 123.5t260 45t260 -45t199.5 -123.5t125 -186t44.5 -230.5v-49q0 -119 -43 -223.5t-121.5 -183.5t-198.5 -125
t-266 -46zM698 270q124 0 190 79.5t66 211.5q0 134 -68 216.5t-188 82.5t-188 -82.5t-68 -216.5q0 -132 66 -211.5t190 -79.5z" />
    <glyph glyph-name="OE" unicode="&#x152;" horiz-adv-x="2131" 
d="M885 -45q-160 0 -295.5 47.5t-228 126t-158 180t-95.5 207.5t-30 211v45q0 114 31.5 224t98.5 208.5t160.5 173t227 118.5t289.5 44q149 0 276 -45h856v-311h-577v-269h549v-311h-549v-293h590v-311h-869q-112 -45 -276 -45zM885 311q104 0 186 37v801q-89 35 -186 35
q-194 0 -308 -119.5t-114 -316.5q0 -190 115.5 -313.5t306.5 -123.5z" />
    <glyph glyph-name="oe" unicode="&#x153;" horiz-adv-x="2170" 
d="M686 -37q-145 0 -263.5 46t-194.5 125.5t-117 183t-41 221.5v49q0 122 42.5 228.5t120.5 185t195 124t258 45.5q298 0 451 -194q143 194 413 194q132 0 239.5 -48t176.5 -130t106 -187.5t37 -223.5v-115h-802q37 -209 243 -209q76 0 127 26t72 72h340
q-38 -179 -176.5 -288t-349.5 -109q-279 0 -424 201q-150 -197 -453 -197zM1538 872q-94 0 -153 -54t-78 -159h452q-31 213 -221 213zM698 274q123 0 189.5 80t66.5 209q0 131 -68 214t-188 83t-188 -83t-68 -214q0 -129 66.5 -209t189.5 -80z" />
    <glyph glyph-name="Racute" unicode="&#x154;" horiz-adv-x="1515" 
d="M879 1606h-357l254 376h393zM532 0h-380v1507h620q296 0 462.5 -132t166.5 -380v-32q0 -318 -277 -441l367 -522h-438l-303 459h-218v-459zM795 1188h-263v-436h263q100 0 160.5 59t60.5 158q0 100 -60.5 159.5t-160.5 59.5z" />
    <glyph glyph-name="racute" unicode="&#x155;" horiz-adv-x="868" 
d="M633 1253h-328l184 435h381zM508 0h-373v1130h295v-399q19 198 116.5 307t264.5 109h45v-320h-86q-126 0 -194 -68t-68 -194v-565z" />
    <glyph glyph-name="Rcommaaccent" unicode="&#x156;" horiz-adv-x="1515" 
d="M532 0h-380v1507h620q296 0 462.5 -132t166.5 -380v-32q0 -318 -277 -441l367 -522h-438l-303 459h-218v-459zM795 1188h-263v-436h263q100 0 160.5 59t60.5 158q0 100 -60.5 159.5t-160.5 59.5zM684 -643h-63v180h67q64 0 90.5 25t26.5 71q-29 -16 -68 -16
q-60 0 -97.5 37t-37.5 102q0 78 51.5 116t130.5 38q101 0 157 -66t56 -182v-12q0 -143 -83.5 -218t-229.5 -75z" />
    <glyph glyph-name="rcommaaccent" unicode="&#x157;" horiz-adv-x="868" 
d="M508 0h-373v1130h295v-399q19 198 116.5 307t264.5 109h45v-320h-86q-126 0 -194 -68t-68 -194v-565zM324 -86q98 0 152 -66t54 -182v-12q0 -140 -83.5 -216.5t-225.5 -76.5h-57v180h61q113 0 113 92q-24 -12 -57 -12q-60 0 -97 37t-37 102q0 77 51 115.5t126 38.5z" />
    <glyph glyph-name="Rcaron" unicode="&#x158;" horiz-adv-x="1515" 
d="M932 1606h-438l-271 376h340l135 -200h37l131 200h332zM532 0h-380v1507h620q296 0 462.5 -132t166.5 -380v-32q0 -318 -277 -441l367 -522h-438l-303 459h-218v-459zM795 1188h-263v-436h263q100 0 160.5 59t60.5 158q0 100 -60.5 159.5t-160.5 59.5z" />
    <glyph glyph-name="rcaron" unicode="&#x159;" horiz-adv-x="868" 
d="M707 1253h-467l-207 435h315l115 -263h29l102 263h307zM508 0h-373v1130h295v-399q19 198 116.5 307t264.5 109h45v-320h-86q-126 0 -194 -68t-68 -194v-565z" />
    <glyph glyph-name="Sacute" unicode="&#x15a;" horiz-adv-x="1349" 
d="M811 1606h-356l254 376h393zM684 -41q-307 0 -473 139t-166 367h369q0 -86 68.5 -138.5t201.5 -52.5q118 0 185 44.5t67 121.5q0 66 -57 102t-185 46l-96 8q-234 20 -370 146t-136 331q0 218 150 342.5t407 124.5q271 0 423.5 -134t152.5 -359h-369q0 76 -56 127t-151 51
q-91 0 -139.5 -42.5t-48.5 -109.5q0 -134 174 -147l96 -8q170 -15 297.5 -72t202 -161t74.5 -245q0 -221 -166 -351t-455 -130z" />
    <glyph glyph-name="sacute" unicode="&#x15b;" horiz-adv-x="1150" 
d="M707 1253h-328l184 435h381zM584 -37q-246 0 -388 101.5t-151 285.5h328q8 -54 65 -89.5t154 -35.5q77 0 126.5 22.5t49.5 69.5q0 45 -43 72t-147 37l-78 8q-212 23 -317 117t-105 244q0 180 130.5 274t348.5 94q230 0 367.5 -100.5t146.5 -284.5h-328q-8 54 -57 88.5
t-133 34.5q-66 0 -104.5 -22.5t-38.5 -63.5q0 -42 36.5 -63.5t122.5 -30.5l78 -8q217 -23 335 -120.5t118 -254.5q0 -175 -138 -275t-378 -100z" />
    <glyph glyph-name="Scircumflex" unicode="&#x15c;" horiz-adv-x="1349" 
d="M500 1606h-332l266 376h438l271 -376h-340l-135 200h-37zM684 -41q-307 0 -473 139t-166 367h369q0 -86 68.5 -138.5t201.5 -52.5q118 0 185 44.5t67 121.5q0 66 -57 102t-185 46l-96 8q-234 20 -370 146t-136 331q0 218 150 342.5t407 124.5q271 0 423.5 -134
t152.5 -359h-369q0 76 -56 127t-151 51q-91 0 -139.5 -42.5t-48.5 -109.5q0 -134 174 -147l96 -8q170 -15 297.5 -72t202 -161t74.5 -245q0 -221 -166 -351t-455 -130z" />
    <glyph glyph-name="scircumflex" unicode="&#x15d;" horiz-adv-x="1150" 
d="M434 1253h-307l207 435h459l211 -435h-316l-115 263h-28zM584 -37q-246 0 -388 101.5t-151 285.5h328q8 -54 65 -89.5t154 -35.5q77 0 126.5 22.5t49.5 69.5q0 45 -43 72t-147 37l-78 8q-212 23 -317 117t-105 244q0 180 130.5 274t348.5 94q230 0 367.5 -100.5
t146.5 -284.5h-328q-8 54 -57 88.5t-133 34.5q-66 0 -104.5 -22.5t-38.5 -63.5q0 -42 36.5 -63.5t122.5 -30.5l78 -8q217 -23 335 -120.5t118 -254.5q0 -175 -138 -275t-378 -100z" />
    <glyph glyph-name="Scedilla" unicode="&#x15e;" horiz-adv-x="1349" 
d="M666 -586q-114 0 -185 27v233q76 -26 166 -26q117 0 117 51q0 39 -84 39h-119v227q-249 29 -382.5 163t-133.5 337h369q0 -86 68.5 -138.5t201.5 -52.5q118 0 185 44.5t67 121.5q0 66 -57 102t-185 46l-96 8q-234 20 -370 146t-136 331q0 218 150 342.5t407 124.5
q271 0 423.5 -134t152.5 -359h-369q0 76 -56 127t-151 51q-91 0 -139.5 -42.5t-48.5 -109.5q0 -134 174 -147l96 -8q170 -15 297.5 -72t202 -161t74.5 -245q0 -197 -134 -323t-372 -152v-59q211 -40 211 -217q0 -120 -91 -197.5t-253 -77.5z" />
    <glyph glyph-name="scedilla" unicode="&#x15f;" horiz-adv-x="1150" 
d="M571 -573q-98 0 -174 26v225q72 -26 156 -26q111 0 111 51q0 39 -78 39h-117v227q-195 23 -306 122t-118 259h328q8 -54 65 -89.5t154 -35.5q77 0 126.5 22.5t49.5 69.5q0 45 -43 72t-147 37l-78 8q-212 23 -317 117t-105 244q0 180 130.5 274t348.5 94
q230 0 367.5 -100.5t146.5 -284.5h-328q-8 54 -57 88.5t-133 34.5q-66 0 -104.5 -22.5t-38.5 -63.5q0 -42 36.5 -63.5t122.5 -30.5l78 -8q217 -23 335 -120.5t118 -254.5q0 -153 -107.5 -250t-298.5 -119v-63q211 -36 211 -213q0 -117 -87.5 -191.5t-246.5 -74.5z" />
    <glyph glyph-name="Scaron" unicode="&#x160;" horiz-adv-x="1349" 
d="M864 1606h-438l-270 376h340l135 -200h37l131 200h331zM684 -41q-307 0 -473 139t-166 367h369q0 -86 68.5 -138.5t201.5 -52.5q118 0 185 44.5t67 121.5q0 66 -57 102t-185 46l-96 8q-234 20 -370 146t-136 331q0 218 150 342.5t407 124.5q271 0 423.5 -134t152.5 -359
h-369q0 76 -56 127t-151 51q-91 0 -139.5 -42.5t-48.5 -109.5q0 -134 174 -147l96 -8q170 -15 297.5 -72t202 -161t74.5 -245q0 -221 -166 -351t-455 -130z" />
    <glyph glyph-name="scaron" unicode="&#x161;" horiz-adv-x="1150" 
d="M780 1253h-467l-207 435h316l115 -263h28l103 263h307zM584 -37q-246 0 -388 101.5t-151 285.5h328q8 -54 65 -89.5t154 -35.5q77 0 126.5 22.5t49.5 69.5q0 45 -43 72t-147 37l-78 8q-212 23 -317 117t-105 244q0 180 130.5 274t348.5 94q230 0 367.5 -100.5
t146.5 -284.5h-328q-8 54 -57 88.5t-133 34.5q-66 0 -104.5 -22.5t-38.5 -63.5q0 -42 36.5 -63.5t122.5 -30.5l78 -8q217 -23 335 -120.5t118 -254.5q0 -175 -138 -275t-378 -100z" />
    <glyph glyph-name="Tcedilla" unicode="&#x162;" horiz-adv-x="1282" 
d="M831 0h-71v-94q211 -40 211 -217q0 -120 -91 -197.5t-253 -77.5q-114 0 -185 27v233q76 -26 166 -26q117 0 117 51q0 39 -84 39h-119v262h-71v1163h-410v332h1200v-332h-410v-1163z" />
    <glyph glyph-name="tcedilla" unicode="&#x163;" horiz-adv-x="892" 
d="M498 -573q-98 0 -174 26v225q72 -26 155 -26q111 0 111 51q0 39 -78 39h-117v281q-119 44 -171 148t-52 290v399h-164v270h166v295h344v-295h309v-270h-311v-409q0 -75 40.5 -115.5t115.5 -40.5h155v-311h-153h-53v-78q210 -36 210 -213q0 -117 -87 -191.5t-246 -74.5z
" />
    <glyph glyph-name="Tcaron" unicode="&#x164;" horiz-adv-x="1282" 
d="M856 1606h-438l-271 376h340l136 -200h36l132 200h331zM831 0h-380v1163h-410v332h1200v-332h-410v-1163z" />
    <glyph glyph-name="tcaron" unicode="&#x165;" horiz-adv-x="892" 
d="M891 1229h-283v540h320zM827 -16h-153q-278 0 -390 105.5t-112 371.5v399h-164v270h166v295h344v-295h309v-270h-311v-409q0 -75 40.5 -115.5t115.5 -40.5h155v-311z" />
    <glyph glyph-name="Tbar" unicode="&#x166;" horiz-adv-x="1282" 
d="M831 0h-380v586h-287v254h287v323h-410v332h1200v-332h-410v-323h287v-254h-287v-586z" />
    <glyph glyph-name="tbar" unicode="&#x167;" horiz-adv-x="892" 
d="M827 -16h-153q-278 0 -390 105.5t-112 371.5v37h-143v192h143v170h-164v270h166v295h344v-295h309v-270h-311v-170h275v-192h-275v-47q0 -75 40.5 -115.5t115.5 -40.5h155v-311z" />
    <glyph glyph-name="Utilde" unicode="&#x168;" horiz-adv-x="1579" 
d="M975 1591q-61 0 -114.5 18t-86 39.5t-78 39.5t-92.5 18q-123 0 -196 -84l-54 254q89 104 250 104q61 0 114.5 -18t86 -39t78 -39t92.5 -18q126 0 199 84l53 -254q-90 -105 -252 -105zM791 -41q-319 0 -493.5 174.5t-174.5 478.5v883h381v-891q0 -135 75 -212t212 -77
q136 0 210 76.5t74 212.5v891h381v-883q0 -305 -173 -479t-492 -174z" />
    <glyph glyph-name="utilde" unicode="&#x169;" horiz-adv-x="1331" 
d="M819 1266q-58 0 -106.5 16.5t-77 36.5t-69.5 36.5t-85 16.5q-98 0 -174 -72l-53 254q93 93 227 93q47 0 87.5 -11t68.5 -26.5t54.5 -31.5t59 -27t68.5 -11q100 0 176 72l54 -254q-92 -92 -230 -92zM530 -37h-16q-195 0 -299 127.5t-104 384.5v655h372v-665
q0 -77 45.5 -123.5t120.5 -46.5q76 0 123 47.5t47 126.5v661h373v-1130h-295v266q-69 -303 -367 -303z" />
    <glyph glyph-name="Umacron" unicode="&#x16a;" horiz-adv-x="1579" 
d="M1210 1642h-839v259h839v-259zM791 -41q-319 0 -493.5 174.5t-174.5 478.5v883h381v-891q0 -135 75 -212t212 -77q136 0 210 76.5t74 212.5v891h381v-883q0 -305 -173 -479t-492 -174z" />
    <glyph glyph-name="umacron" unicode="&#x16b;" horiz-adv-x="1331" 
d="M1020 1315h-737v258h737v-258zM530 -37h-16q-195 0 -299 127.5t-104 384.5v655h372v-665q0 -77 45.5 -123.5t120.5 -46.5q76 0 123 47.5t47 126.5v661h373v-1130h-295v266q-69 -303 -367 -303z" />
    <glyph glyph-name="Ubreve" unicode="&#x16c;" horiz-adv-x="1579" 
d="M791 1581q-194 0 -300 106t-112 295h266q6 -151 146 -151q143 0 149 151h258q-6 -189 -110 -295t-297 -106zM791 -41q-319 0 -493.5 174.5t-174.5 478.5v883h381v-891q0 -135 75 -212t212 -77q136 0 210 76.5t74 212.5v891h381v-883q0 -305 -173 -479t-492 -174z" />
    <glyph glyph-name="ubreve" unicode="&#x16d;" horiz-adv-x="1331" 
d="M653 1241q-381 0 -393 447h275q3 -103 31 -144t87 -41q60 0 90 41.5t33 143.5h266q-12 -447 -389 -447zM530 -37h-16q-195 0 -299 127.5t-104 384.5v655h372v-665q0 -77 45.5 -123.5t120.5 -46.5q76 0 123 47.5t47 126.5v661h373v-1130h-295v266q-69 -303 -367 -303z" />
    <glyph glyph-name="Uring" unicode="&#x16e;" horiz-adv-x="1579" 
d="M791 1556q-123 0 -199 64.5t-76 169.5t76 169t199 64t198.5 -64t75.5 -169q0 -106 -75.5 -170t-198.5 -64zM791 1718q36 0 56.5 20t20.5 52t-20.5 52t-56.5 20t-57 -20t-21 -52t21 -52t57 -20zM791 -41q-319 0 -493.5 174.5t-174.5 478.5v883h381v-891q0 -135 75 -212
t212 -77q136 0 210 76.5t74 212.5v891h381v-883q0 -305 -173 -479t-492 -174z" />
    <glyph glyph-name="uring" unicode="&#x16f;" horiz-adv-x="1331" 
d="M651 1231q-121 0 -196.5 71.5t-75.5 184.5t75.5 184.5t196.5 71.5t197 -71.5t76 -184.5t-76 -184.5t-197 -71.5zM651 1405q38 0 60 23t22 59t-22 59t-60 23t-60 -23t-22 -59t22 -59t60 -23zM530 -37h-16q-195 0 -299 127.5t-104 384.5v655h372v-665q0 -77 45.5 -123.5
t120.5 -46.5q76 0 123 47.5t47 126.5v661h373v-1130h-295v266q-69 -303 -367 -303z" />
    <glyph glyph-name="Uhungarumlaut" unicode="&#x170;" horiz-adv-x="1579" 
d="M1106 1606h-279l187 376h295zM729 1606h-278l186 376h295zM791 -41q-319 0 -493.5 174.5t-174.5 478.5v883h381v-891q0 -135 75 -212t212 -77q136 0 210 76.5t74 212.5v891h381v-883q0 -305 -173 -479t-492 -174z" />
    <glyph glyph-name="uhungarumlaut" unicode="&#x171;" horiz-adv-x="1331" 
d="M969 1253h-267l172 435h283zM584 1253h-267l172 435h283zM530 -37h-16q-195 0 -299 127.5t-104 384.5v655h372v-665q0 -77 45.5 -123.5t120.5 -46.5q76 0 123 47.5t47 126.5v661h373v-1130h-295v266q-69 -303 -367 -303z" />
    <glyph glyph-name="Uogonek" unicode="&#x172;" horiz-adv-x="1579" 
d="M1016 -514q-138 0 -227 80.5t-89 208.5q0 104 45 184q-298 13 -460 186.5t-162 466.5v883h381v-891q0 -135 75 -212t212 -77q136 0 210 76.5t74 212.5v891h381v-883q0 -216 -89 -369t-259 -225l4 -4l-61 -59q-72 -68 -72 -125q0 -36 24 -57t64 -21q50 0 88 19v-271
q-51 -14 -139 -14z" />
    <glyph glyph-name="uogonek" unicode="&#x173;" horiz-adv-x="1331" 
d="M530 -37h-16q-195 0 -299 127.5t-104 384.5v655h372v-665q0 -77 45.5 -123.5t120.5 -46.5q76 0 123 47.5t47 126.5v661h373v-1130h-4l-68 -74q-51 -54 -51 -98q0 -29 21.5 -45t58.5 -16q53 0 84 14v-262q-54 -15 -133 -15q-135 0 -216 72t-81 195q0 130 94 252v243
q-69 -303 -367 -303z" />
    <glyph glyph-name="Wcircumflex" unicode="&#x174;" horiz-adv-x="2211" 
d="M958 1606h-331l266 376h438l271 -376h-340l-136 200h-36zM961 0h-568l-356 1495h393l258 -1192h49l195 1139h375l227 -1139h49l223 1192h369l-313 -1495h-580l-166 797z" />
    <glyph glyph-name="wcircumflex" unicode="&#x175;" horiz-adv-x="1937" 
d="M844 1253h-307l206 435h459l211 -435h-315l-115 263h-29zM831 0h-505l-297 1130h364l199 -819h43l143 783h389l164 -783h41l180 819h340l-270 -1130h-508l-147 674z" />
    <glyph glyph-name="Ycircumflex" unicode="&#x176;" horiz-adv-x="1347" 
d="M535 1606h-332l266 376h438l271 -376h-340l-136 200h-36zM879 0h-373v561h-74l-424 934h389l277 -647h51l246 647h368l-387 -934h-73v-561z" />
    <glyph glyph-name="ycircumflex" unicode="&#x177;" horiz-adv-x="1181" 
d="M471 1253h-307l207 435h458l211 -435h-315l-115 263h-28zM362 -451h-219v312h260q72 0 109.5 28.5t54.5 100.5l8 35h-245l-330 1105h373l229 -819h37l182 819h353l-297 -1212q-51 -210 -162 -289.5t-353 -79.5z" />
    <glyph glyph-name="Ydieresis" unicode="&#x178;" horiz-adv-x="1347" 
d="M451 1618q-98 0 -147.5 49.5t-49.5 134.5t49.5 135t147.5 50t147 -50t49 -135t-49 -134.5t-147 -49.5zM918 1618q-98 0 -147.5 49.5t-49.5 134.5t49.5 135t147.5 50t147 -50t49 -135t-49 -134.5t-147 -49.5zM879 0h-373v561h-74l-424 934h389l277 -647h51l246 647h368
l-387 -934h-73v-561z" />
    <glyph glyph-name="Zacute" unicode="&#x179;" horiz-adv-x="1320" 
d="M838 1606h-357l254 376h393zM1255 0h-1194v254l719 905l-18 25h-672v311h1174v-254l-721 -905l18 -25h694v-311z" />
    <glyph glyph-name="zacute" unicode="&#x17a;" horiz-adv-x="1036" 
d="M666 1253h-328l184 435h381zM995 0h-934v231l488 588l-23 29h-460v282h917v-231l-487 -588l22 -28h477v-283z" />
    <glyph glyph-name="Zdotaccent" unicode="&#x17b;" horiz-adv-x="1320" 
d="M676 1618q-98 0 -147.5 49.5t-49.5 134.5t49.5 135t147.5 50t147 -50t49 -135t-49 -134.5t-147 -49.5zM1255 0h-1194v254l719 905l-18 25h-672v311h1174v-254l-721 -905l18 -25h694v-311z" />
    <glyph glyph-name="zdotaccent" unicode="&#x17c;" horiz-adv-x="1036" 
d="M520 1282q-95 0 -141.5 51.5t-46.5 136.5t46.5 137t141.5 52t142 -52t47 -137t-47 -136.5t-142 -51.5zM995 0h-934v231l488 588l-23 29h-460v282h917v-231l-487 -588l22 -28h477v-283z" />
    <glyph glyph-name="Zcaron" unicode="&#x17d;" horiz-adv-x="1320" 
d="M891 1606h-438l-271 376h340l135 -200h37l131 200h332zM1255 0h-1194v254l719 905l-18 25h-672v311h1174v-254l-721 -905l18 -25h694v-311z" />
    <glyph glyph-name="zcaron" unicode="&#x17e;" horiz-adv-x="1036" 
d="M739 1253h-467l-206 435h315l115 -263h28l103 263h307zM995 0h-934v231l488 588l-23 29h-460v282h917v-231l-487 -588l22 -28h477v-283z" />
    <glyph glyph-name="Aringacute" unicode="&#x1fa;" horiz-adv-x="1617" 
d="M963 2089h-357l254 377h393zM801 1556q-123 0 -199 64.5t-76 169.5t76 169t199 64t198.5 -64t75.5 -169q0 -106 -75.5 -170t-198.5 -64zM801 1718q36 0 57 20t21 52t-21 52t-57 20t-57 -20t-21 -52t21 -52t57 -20zM397 0h-381l480 1495h610l496 -1495h-394l-108 346h-596
zM598 657h403l-165 531h-76z" />
    <glyph glyph-name="Scommaaccent" unicode="&#x218;" horiz-adv-x="1349" 
d="M684 -41q-307 0 -473 139t-166 367h369q0 -86 68.5 -138.5t201.5 -52.5q118 0 185 44.5t67 121.5q0 66 -57 102t-185 46l-96 8q-234 20 -370 146t-136 331q0 218 150 342.5t407 124.5q271 0 423.5 -134t152.5 -359h-369q0 76 -56 127t-151 51q-91 0 -139.5 -42.5
t-48.5 -109.5q0 -134 174 -147l96 -8q170 -15 297.5 -72t202 -161t74.5 -245q0 -221 -166 -351t-455 -130zM588 -643h-64v180h68q64 0 90.5 25t26.5 71q-29 -16 -68 -16q-60 0 -97.5 37t-37.5 102q0 78 51.5 116t130.5 38q101 0 157 -66t56 -182v-12q0 -143 -83.5 -218
t-229.5 -75z" />
    <glyph glyph-name="scommaaccent" unicode="&#x219;" horiz-adv-x="1150" 
d="M584 -37q-246 0 -388 101.5t-151 285.5h328q8 -54 65 -89.5t154 -35.5q77 0 126.5 22.5t49.5 69.5q0 45 -43 72t-147 37l-78 8q-212 23 -317 117t-105 244q0 180 130.5 274t348.5 94q230 0 367.5 -100.5t146.5 -284.5h-328q-8 54 -57 88.5t-133 34.5q-66 0 -104.5 -22.5
t-38.5 -63.5q0 -42 36.5 -63.5t122.5 -30.5l78 -8q217 -23 335 -120.5t118 -254.5q0 -175 -138 -275t-378 -100zM584 -86q98 0 152.5 -66t54.5 -182v-12q0 -140 -84 -216.5t-226 -76.5h-57v180h61q113 0 113 92q-24 -12 -57 -12q-60 0 -96.5 37t-36.5 102q0 77 50.5 115.5
t125.5 38.5z" />
    <glyph glyph-name="Tcommaaccent" unicode="&#x21a;" horiz-adv-x="1282" 
d="M831 0h-380v1163h-410v332h1200v-332h-410v-1163zM549 -643h-64v180h68q64 0 90.5 25t26.5 71q-29 -16 -68 -16q-60 0 -97.5 37t-37.5 102q0 78 51.5 116t130.5 38q101 0 157 -66t56 -182v-12q0 -143 -83.5 -218t-229.5 -75z" />
    <glyph glyph-name="tcommaaccent" unicode="&#x21b;" horiz-adv-x="892" 
d="M827 -16h-153q-278 0 -390 105.5t-112 371.5v399h-164v270h166v295h344v-295h309v-270h-311v-409q0 -75 40.5 -115.5t115.5 -40.5h155v-311zM510 -86q98 0 152.5 -66t54.5 -182v-12q0 -140 -83.5 -216.5t-225.5 -76.5h-58v180h62q112 0 112 92q-24 -12 -57 -12
q-60 0 -96.5 37t-36.5 102q0 77 50.5 115.5t125.5 38.5z" />
    <glyph glyph-name="dotlessj" unicode="&#x237;" horiz-adv-x="708" 
d="M61 -422h-49v311h58q73 0 112 39t39 113v819h-151v270h512v-1085q0 -252 -123.5 -359.5t-397.5 -107.5z" />
    <glyph glyph-name="circumflex" unicode="&#x2c6;" 
d="M307 1253h-307l207 435h459l211 -435h-316l-115 263h-28z" />
    <glyph glyph-name="ring" unicode="&#x2da;" 
d="M272 1231q-121 0 -196.5 71.5t-75.5 184.5t75.5 184.5t196.5 71.5t197 -71.5t76 -184.5t-76 -184.5t-197 -71.5zM272 1405q38 0 60 23t22 59t-22 59t-60 23t-60 -23t-22 -59t22 -59t60 -23z" />
    <glyph glyph-name="tilde" unicode="&#x2dc;" 
d="M565 1266q-58 0 -106.5 16.5t-77 36.5t-69.5 36.5t-85 16.5q-98 0 -174 -72l-53 254q93 93 227 93q47 0 87.5 -11t68.5 -26.5t54.5 -31.5t59 -27t68.5 -11q100 0 176 72l54 -254q-92 -92 -230 -92z" />
    <glyph glyph-name="gravecomb" unicode="&#x300;" 
d="M569 1253h-336l-233 435h389z" />
    <glyph glyph-name="acutecomb" unicode="&#x301;" 
d="M328 1253h-328l184 435h381z" />
    <glyph glyph-name="circumflexcomb" unicode="&#x302;" 
d="M307 1253h-307l207 435h459l211 -435h-316l-115 263h-28z" />
    <glyph glyph-name="tildecomb" unicode="&#x303;" 
d="M565 1266q-58 0 -106.5 16.5t-77 36.5t-69.5 36.5t-85 16.5q-98 0 -174 -72l-53 254q93 93 227 93q47 0 87.5 -11t68.5 -26.5t54.5 -31.5t59 -27t68.5 -11q100 0 176 72l54 -254q-92 -92 -230 -92z" />
    <glyph glyph-name="macroncomb" unicode="&#x304;" 
d="M737 1315h-737v258h737v-258z" />
    <glyph glyph-name="brevecomb" unicode="&#x306;" 
d="M397 1241q-381 0 -393 447h275q3 -103 31 -144t87 -41q60 0 90 41.5t33 143.5h266q-12 -447 -389 -447z" />
    <glyph glyph-name="dotaccentcomb" unicode="&#x307;" 
d="M188 1282q-95 0 -141.5 51.5t-46.5 136.5t46.5 137t141.5 52t142 -52t47 -137t-47 -136.5t-142 -51.5z" />
    <glyph glyph-name="dieresiscomb" unicode="&#x308;" 
d="M188 1282q-95 0 -141.5 51.5t-46.5 136.5t46.5 137t141.5 52t142 -52t47 -137t-47 -136.5t-142 -51.5zM639 1282q-95 0 -141.5 51.5t-46.5 136.5t46.5 137t141.5 52t141.5 -52t46.5 -137t-46.5 -136.5t-141.5 -51.5z" />
    <glyph glyph-name="ringcomb" unicode="&#x30a;" 
d="M272 1231q-121 0 -196.5 71.5t-75.5 184.5t75.5 184.5t196.5 71.5t197 -71.5t76 -184.5t-76 -184.5t-197 -71.5zM272 1405q38 0 60 23t22 59t-22 59t-60 23t-60 -23t-22 -59t22 -59t60 -23z" />
    <glyph glyph-name="hungarumlautcomb" unicode="&#x30b;" 
d="M651 1253h-266l172 435h283zM266 1253h-266l172 435h283z" />
    <glyph glyph-name="caroncomb" unicode="&#x30c;" 
d="M674 1253h-467l-207 435h315l115 -263h29l102 263h307z" />
    <glyph glyph-name="commaturnedabovecomb" unicode="&#x312;" 
d="M207 1217q-98 0 -152.5 65.5t-54.5 181.5v13q0 140 83.5 216t225.5 76h58v-180h-62q-112 0 -112 -92q24 12 57 12q60 0 96.5 -37t36.5 -102q0 -77 -50.5 -115t-125.5 -38z" />
    <glyph glyph-name="commaaccentcomb" unicode="&#x326;" 
d="M176 -86q98 0 152.5 -66t54.5 -182v-12q0 -140 -83.5 -216.5t-225.5 -76.5h-58v180h62q112 0 112 92q-24 -12 -57 -12q-60 0 -96.5 37t-36.5 102q0 77 50.5 115.5t125.5 38.5z" />
    <glyph glyph-name="cedillacomb" unicode="&#x327;" 
d="M244 -573q-98 0 -174 26v225q72 -26 155 -26q111 0 111 51q0 39 -78 39h-117v287h226v-123q211 -36 211 -213q0 -117 -87.5 -191.5t-246.5 -74.5z" />
    <glyph glyph-name="ogonekcomb" unicode="&#x328;" 
d="M403 -496q-135 0 -216 72t-81 195q0 91 36.5 163t121.5 160l68 70l160 -164l-68 -74q-51 -54 -51 -98q0 -29 21.5 -45t58.5 -16q53 0 84 14v-262q-54 -15 -134 -15z" />
    <glyph glyph-name="strokeshortcomb" unicode="&#x335;" 
d="M688 451h-762v192h762v-192z" />
    <glyph glyph-name="strokelongcomb" unicode="&#x336;" 
d="M711 582h-807v311h807v-311z" />
    <glyph glyph-name="riel-khmer" unicode="&#x17db;" horiz-adv-x="1118" 
d="M831 -16h-290q-214 0 -326.5 82.5t-112.5 234.5q0 156 114 241t331 85l2 57h-287v217h287q0 27 -27 43q-26 16 -94.5 52.5t-87.5 47.5q-86 49 -111 138t15 188q39 98 107 132t210 34q137 0 342 -29v-250q-205 29 -352 29q-24 0 -33 -3.5t-14 -14.5q-9 -25 12 -37
q101 -52 182 -101q68 -40 100.5 -91t32.5 -138h213v-217h-213v-700zM537 201h4l4 209q-144 -6 -144 -105q0 -50 37 -77t99 -27z" />
    <glyph glyph-name="Wgrave" unicode="&#x1e80;" horiz-adv-x="2211" 
d="M1290 1606h-360l-248 376h397zM961 0h-568l-356 1495h393l258 -1192h49l195 1139h375l227 -1139h49l223 1192h369l-313 -1495h-580l-166 797z" />
    <glyph glyph-name="wgrave" unicode="&#x1e81;" horiz-adv-x="1937" 
d="M1139 1253h-336l-234 435h389zM831 0h-505l-297 1130h364l199 -819h43l143 783h389l164 -783h41l180 819h340l-270 -1130h-508l-147 674z" />
    <glyph glyph-name="Wacute" unicode="&#x1e82;" horiz-adv-x="2211" 
d="M1270 1606h-357l254 376h394zM961 0h-568l-356 1495h393l258 -1192h49l195 1139h375l227 -1139h49l223 1192h369l-313 -1495h-580l-166 797z" />
    <glyph glyph-name="wacute" unicode="&#x1e83;" horiz-adv-x="1937" 
d="M1116 1253h-328l185 435h381zM831 0h-505l-297 1130h364l199 -819h43l143 783h389l164 -783h41l180 819h340l-270 -1130h-508l-147 674z" />
    <glyph glyph-name="Wdieresis" unicode="&#x1e84;" horiz-adv-x="2211" 
d="M874 1618q-98 0 -147 49.5t-49 134.5t49 135t147 50t147.5 -50t49.5 -135t-49.5 -134.5t-147.5 -49.5zM1341 1618q-98 0 -147 49.5t-49 134.5t49 135t147 50t147.5 -50t49.5 -135t-49.5 -134.5t-147.5 -49.5zM961 0h-568l-356 1495h393l258 -1192h49l195 1139h375
l227 -1139h49l223 1192h369l-313 -1495h-580l-166 797z" />
    <glyph glyph-name="wdieresis" unicode="&#x1e85;" horiz-adv-x="1937" 
d="M745 1282q-95 0 -141.5 51.5t-46.5 136.5t46.5 137t141.5 52t142 -52t47 -137t-47 -136.5t-142 -51.5zM1196 1282q-95 0 -141.5 51.5t-46.5 136.5t46.5 137t141.5 52t141.5 -52t46.5 -137t-46.5 -136.5t-141.5 -51.5zM831 0h-505l-297 1130h364l199 -819h43l143 783h389
l164 -783h41l180 819h340l-270 -1130h-508l-147 674z" />
    <glyph glyph-name="Germandbls" unicode="&#x1e9e;" horiz-adv-x="2650" 
d="M674 -43q-301 0 -465 140t-164 368h369q0 -86 66.5 -139.5t193.5 -53.5q114 0 179 46t65 122q0 64 -54 101t-180 47l-94 8q-224 20 -361 142.5t-137 332.5q0 218 148 342.5t399 124.5q267 0 417 -133.5t150 -357.5h-368q0 77 -53.5 126.5t-145.5 49.5q-85 0 -131.5 -42.5
t-46.5 -109.5q0 -132 166 -145l94 -8q257 -22 411 -146t154 -332q0 -221 -164 -352t-448 -131zM1993 -43q-301 0 -465 140t-164 368h369q0 -86 66.5 -139.5t193.5 -53.5q114 0 178.5 46t64.5 122q0 65 -54.5 101.5t-178.5 46.5l-94 8q-224 20 -361 142.5t-137 332.5
q0 218 148 342.5t399 124.5q267 0 417 -133.5t150 -357.5h-368q0 77 -53.5 126.5t-145.5 49.5q-85 0 -131.5 -42.5t-46.5 -109.5q0 -132 166 -145l94 -8q258 -23 411.5 -146t153.5 -332q0 -221 -164 -352t-448 -131z" />
    <glyph glyph-name="Etilde" unicode="&#x1ebc;" horiz-adv-x="1212" 
d="M807 1591q-61 0 -114.5 18t-86 39.5t-78 39.5t-92.5 18q-123 0 -196 -84l-54 254q89 104 250 104q61 0 114.5 -18t86 -39t78 -39t92.5 -18q126 0 199 84l53 -254q-90 -105 -252 -105zM1110 0h-958v1495h946v-311h-578v-269h547v-311h-547v-293h590v-311z" />
    <glyph glyph-name="etilde" unicode="&#x1ebd;" horiz-adv-x="1286" 
d="M821 1266q-58 0 -106.5 16.5t-77 36.5t-69.5 36.5t-85 16.5q-98 0 -174 -72l-53 254q93 93 227 93q47 0 87.5 -11t68.5 -26.5t54.5 -31.5t59 -27t68.5 -11q100 0 176 72l54 -254q-92 -92 -230 -92zM666 -41q-138 0 -253 50t-188.5 133t-114 187.5t-40.5 215.5v41
q0 115 40 220t113 186.5t184.5 130t245.5 48.5q132 0 241.5 -48t181 -129.5t110.5 -187.5t39 -224v-119h-803q40 -205 244 -205q75 0 126 26t72 72h340q-38 -177 -182 -287t-356 -110zM653 872q-93 0 -152 -52.5t-79 -155.5h452q-35 208 -221 208z" />
    <glyph glyph-name="Ygrave" unicode="&#x1ef2;" horiz-adv-x="1347" 
d="M866 1606h-360l-248 376h397zM879 0h-373v561h-74l-424 934h389l277 -647h51l246 647h368l-387 -934h-73v-561z" />
    <glyph glyph-name="ygrave" unicode="&#x1ef3;" horiz-adv-x="1181" 
d="M766 1253h-336l-233 435h389zM362 -451h-219v312h260q72 0 109.5 28.5t54.5 100.5l8 35h-245l-330 1105h373l229 -819h37l182 819h353l-297 -1212q-51 -210 -162 -289.5t-353 -79.5z" />
    <glyph glyph-name="endash" unicode="&#x2013;" horiz-adv-x="1085" 
d="M1049 442h-1012v279h1012v-279z" />
    <glyph glyph-name="emdash" unicode="&#x2014;" horiz-adv-x="1880" 
d="M1843 442h-1806v279h1806v-279z" />
    <glyph glyph-name="quoteleft" unicode="&#x2018;" horiz-adv-x="569" 
d="M440 1520h56v-213h-78q-78 0 -111.5 -34t-36.5 -132q24 4 39 4q80 0 131.5 -48t51.5 -132t-52.5 -139.5t-146.5 -55.5q-103 0 -167.5 74.5t-64.5 238.5v27q0 211 95 310.5t284 99.5z" />
    <glyph glyph-name="quoteright" unicode="&#x2019;" horiz-adv-x="569" 
d="M129 770h-55v213h78q78 0 111 34t36 132q-24 -4 -39 -4q-80 0 -131 48t-51 132t52 139.5t146 55.5q103 0 167.5 -75t64.5 -239v-26q0 -211 -95 -310.5t-284 -99.5z" />
    <glyph glyph-name="quotesinglbase" unicode="&#x201a;" horiz-adv-x="569" 
d="M129 -418h-55v213h78q78 0 111 34t36 132q-24 -4 -39 -4q-80 0 -131 48t-51 132t52 139.5t146 55.5q103 0 167.5 -75t64.5 -239v-26q0 -211 -95 -310.5t-284 -99.5z" />
    <glyph glyph-name="quotedblleft" unicode="&#x201c;" horiz-adv-x="1077" 
d="M948 1520h56v-213h-78q-78 0 -111.5 -34t-36.5 -132q24 4 39 4q80 0 131 -48t51 -132t-52 -139.5t-146 -55.5q-103 0 -167.5 74.5t-64.5 238.5v27q0 211 95 310.5t284 99.5zM440 1520h56v-213h-78q-78 0 -111.5 -34t-36.5 -132q24 4 39 4q80 0 131.5 -48t51.5 -132
t-52.5 -139.5t-146.5 -55.5q-103 0 -167.5 74.5t-64.5 238.5v27q0 211 95 310.5t284 99.5z" />
    <glyph glyph-name="quotedblright" unicode="&#x201d;" horiz-adv-x="1077" 
d="M129 770h-55v213h78q78 0 111 34t36 132q-24 -4 -39 -4q-80 0 -131 48t-51 132t52 139.5t146 55.5q103 0 167.5 -75t64.5 -239v-26q0 -211 -95 -310.5t-284 -99.5zM637 770h-55v213h77q78 0 111.5 34t36.5 132q-24 -4 -39 -4q-80 0 -131 48t-51 132t52 139.5t146 55.5
q103 0 167.5 -75t64.5 -239v-26q0 -211 -95 -310.5t-284 -99.5z" />
    <glyph glyph-name="quotedblbase" unicode="&#x201e;" horiz-adv-x="1077" 
d="M129 -418h-55v213h78q78 0 111 34t36 132q-24 -4 -39 -4q-80 0 -131 48t-51 132t52 139.5t146 55.5q103 0 167.5 -75t64.5 -239v-26q0 -211 -95 -310.5t-284 -99.5zM637 -418h-55v213h77q78 0 111.5 34t36.5 132q-24 -4 -39 -4q-80 0 -131 48t-51 132t52 139.5t146 55.5
q103 0 167.5 -75t64.5 -239v-26q0 -211 -95 -310.5t-284 -99.5z" />
    <glyph glyph-name="dagger" unicode="&#x2020;" horiz-adv-x="1232" 
d="M1159 836h-1085v282h368v377h349v-377h368v-282zM791 -410h-349v1123h349v-1123z" />
    <glyph glyph-name="daggerdbl" unicode="&#x2021;" horiz-adv-x="1232" 
d="M1159 836h-1085v282h368v377h349v-377h368v-282zM791 373h-349v340h349v-340zM791 -410h-349v377h-368v283h1085v-283h-368v-377z" />
    <glyph glyph-name="bullet" unicode="&#x2022;" horiz-adv-x="892" 
d="M733 295h-573v594h573v-594z" />
    <glyph glyph-name="ellipsis" unicode="&#x2026;" horiz-adv-x="1785" 
d="M500 0h-402v406h402v-406zM1094 0h-402v406h402v-406zM1688 0h-402v406h402v-406z" />
    <glyph glyph-name="perthousand" unicode="&#x2030;" horiz-adv-x="2658" 
d="M403 668q-179 0 -275.5 113.5t-96.5 291.5v53q0 184 98 295t274 111q177 0 275 -111t98 -295v-53q0 -178 -97 -291.5t-276 -113.5zM819 0h-315l536 1495h316zM403 913q54 0 78.5 41t24.5 144q0 109 -24.5 148.5t-78.5 39.5t-78 -39t-24 -147q0 -104 24 -145.5t78 -41.5z
M1448 -41q-179 0 -276 114t-97 292v53q0 184 98 294.5t275 110.5t275 -110.5t98 -294.5v-53q0 -178 -97 -292t-276 -114zM2255 -41q-179 0 -276 114t-97 292v53q0 184 98 294.5t275 110.5t275 -110.5t98 -294.5v-53q0 -178 -97 -292t-276 -114zM1448 205q54 0 78 40.5
t24 143.5q0 109 -24 149t-78 40t-78 -39.5t-24 -147.5q0 -104 24 -145t78 -41zM2255 205q54 0 78 40.5t24 143.5q0 109 -24 149t-78 40t-78.5 -39.5t-24.5 -147.5q0 -104 24.5 -145t78.5 -41z" />
    <glyph glyph-name="minute" unicode="&#x2032;" horiz-adv-x="552" 
d="M389 836h-340l115 659h340z" />
    <glyph glyph-name="second" unicode="&#x2033;" horiz-adv-x="1056" 
d="M389 836h-340l115 659h340zM893 836h-340l115 659h340z" />
    <glyph glyph-name="guilsinglleft" unicode="&#x2039;" horiz-adv-x="770" 
d="M733 80h-438l-270 399v103l282 407h426l-295 -416v-77z" />
    <glyph glyph-name="guilsinglright" unicode="&#x203a;" horiz-adv-x="770" 
d="M37 989h438l270 -399v-103l-282 -407h-426l295 416v77z" />
    <glyph glyph-name="fraction" unicode="&#x2044;" horiz-adv-x="448" 
d="M-70 -45h-245l852 1438h245z" />
    <glyph glyph-name="four.superior" unicode="&#x2074;" horiz-adv-x="837" 
d="M711 860h-226v131h-438v252l311 506l185 -113l-256 -424l18 -28h180v276h226v-276h88v-193h-88v-131z" />
    <glyph glyph-name="Euro" unicode="&#x20ac;" horiz-adv-x="1466" 
d="M815 -37q-261 0 -420.5 132.5t-208.5 393.5h-166v177h148q-2 23 -2 67v29v39h-109v176h123q43 276 201 415.5t424 139.5q144 0 256.5 -38.5t185 -108.5t111 -164.5t43.5 -210.5h-328q-8 106 -74.5 164.5t-193.5 58.5q-124 0 -193.5 -60.5t-95.5 -195.5h424v-176h-442v-53
q0 -55 2 -82h403v-177h-379q30 -120 100.5 -173.5t190.5 -53.5q128 0 195 58.5t75 164.5h328q-5 -116 -43.5 -210.5t-111 -164.5t-185.5 -108.5t-258 -38.5z" />
    <glyph glyph-name="trademark" unicode="&#x2122;" horiz-adv-x="1888" 
d="M1032 668h-221v827h317l177 -487h8l176 487h317v-827h-233v546l-152 -415h-233l-156 428v-559zM492 668h-246v618h-226v209h697v-209h-225v-618z" />
    <glyph glyph-name="minus" unicode="&#x2212;" horiz-adv-x="1224" 
d="M1135 553h-1045v303h1045v-303z" />
    <glyph glyph-name="divisionslash" unicode="&#x2215;" horiz-adv-x="976" 
d="M301 -139h-336l717 1831h336z" />
    <glyph glyph-name="lessequal" unicode="&#x2264;" horiz-adv-x="1208" 
d="M1085 737v-307l-946 252v418l946 254v-299l-651 -150v-20zM1085 43h-946v291h946v-291z" />
    <glyph glyph-name="greaterequal" unicode="&#x2265;" horiz-adv-x="1224" 
d="M1085 684l-946 -254v299l652 150v20l-652 148v307l946 -252v-418zM1085 43h-946v291h946v-291z" />
    <glyph glyph-name="sora" unicode="&#xe000;" horiz-adv-x="1724" 
d="M864 489l-303 -489h-420l553 891h-551v217h551v170h-551v217h1442v-217h-551v-170h551v-217h-551l551 -891h-422z" />
    <glyph glyph-name="I.salt" horiz-adv-x="942" 
d="M823 0h-704v283h162v929h-162v283h704v-283h-161v-929h161v-283z" />
    <glyph glyph-name="Iacute.salt" horiz-adv-x="942" 
d="M635 1606h-356l253 376h394zM823 0h-704v283h162v929h-162v283h704v-283h-161v-929h161v-283z" />
    <glyph glyph-name="Ibreve.salt" horiz-adv-x="942" 
d="M473 1581q-194 0 -300 106t-112 295h267q6 -151 145 -151q144 0 150 151h258q-6 -189 -110.5 -295t-297.5 -106zM823 0h-704v283h162v929h-162v283h704v-283h-161v-929h161v-283z" />
    <glyph glyph-name="Icircumflex.salt" horiz-adv-x="942" 
d="M324 1606h-332l266 376h438l271 -376h-340l-135 200h-37zM823 0h-704v283h162v929h-162v283h704v-283h-161v-929h161v-283z" />
    <glyph glyph-name="Idieresis.salt" horiz-adv-x="942" 
d="M240 1618q-98 0 -147.5 49.5t-49.5 134.5t49.5 135t147.5 50t147 -50t49 -135t-49 -134.5t-147 -49.5zM707 1618q-98 0 -147.5 49.5t-49.5 134.5t49.5 135t147.5 50t147 -50t49 -135t-49 -134.5t-147 -49.5zM823 0h-704v283h162v929h-162v283h704v-283h-161v-929h161
v-283z" />
    <glyph glyph-name="Idotaccent.salt" horiz-adv-x="942" 
d="M473 1618q-98 0 -147.5 49.5t-49.5 134.5t49.5 135t147.5 50t147.5 -50t49.5 -135t-49.5 -134.5t-147.5 -49.5zM823 0h-704v283h162v929h-162v283h704v-283h-161v-929h161v-283z" />
    <glyph glyph-name="Igrave.salt" horiz-adv-x="942" 
d="M655 1606h-360l-248 376h397zM823 0h-704v283h162v929h-162v283h704v-283h-161v-929h161v-283z" />
    <glyph glyph-name="Imacron.salt" horiz-adv-x="942" 
d="M893 1642h-840v259h840v-259zM823 0h-704v283h162v929h-162v283h704v-283h-161v-929h161v-283z" />
    <glyph glyph-name="Iogonek.salt" horiz-adv-x="942" 
d="M535 -528q-138 0 -227 80t-89 208t80 240h-180v283h162v929h-162v283h704v-283h-161v-929h161v-283h-192l-62 -59q-71 -68 -71 -125q0 -36 24 -57t64 -21q52 0 88 18v-270q-51 -14 -139 -14z" />
    <glyph glyph-name="Itilde.salt" horiz-adv-x="942" 
d="M657 1591q-61 0 -114.5 18t-85.5 39.5t-77.5 39.5t-92.5 18q-124 0 -197 -84l-53 254q89 104 250 104q61 0 114.5 -18t85.5 -39t77.5 -39t92.5 -18q126 0 199 84l53 -254q-90 -105 -252 -105zM823 0h-704v283h162v929h-162v283h704v-283h-161v-929h161v-283z" />
    <glyph glyph-name="J.salt" horiz-adv-x="1253" 
d="M586 -45q-264 0 -399.5 144t-135.5 407v182h381v-223q0 -71 42 -112.5t112 -41.5t110.5 41.5t40.5 112.5v1030h381v-989q0 -263 -134.5 -407t-397.5 -144z" />
    <glyph glyph-name="Jcircumflex.salt" horiz-adv-x="1253" 
d="M778 1606h-332l267 376h438l270 -376h-340l-135 200h-37zM586 -45q-264 0 -399.5 144t-135.5 407v182h381v-223q0 -71 42 -112.5t112 -41.5t110.5 41.5t40.5 112.5v1030h381v-989q0 -263 -134.5 -407t-397.5 -144z" />
    <glyph glyph-name="P.salt" horiz-adv-x="1456" 
d="M532 0h-380v1507h684q126 0 231 -31t183 -90.5t121.5 -154t43.5 -215.5v-33q0 -161 -76 -273t-204.5 -165t-298.5 -53h-304v-492zM850 1180h-318v-361h318q89 0 134.5 46t45.5 134t-46 134.5t-134 46.5z" />
    <glyph glyph-name="Q.salt" horiz-adv-x="1769" 
d="M885 -41q-157 0 -292 47.5t-228 125.5t-159 179t-97 207.5t-31 210.5v45q0 114 32.5 223.5t100 208t161.5 173t226.5 118t286.5 43.5q152 0 284.5 -43.5t226.5 -118t162 -172.5t101 -208t33 -224v-45q0 -162 -75.5 -325t-217.5 -275l215 -297h-361l-116 162
q-116 -35 -252 -35zM463 750q0 -189 115 -312t307 -123h18l-219 303h360l138 -190q125 125 125 322q0 196 -114.5 315t-307.5 119q-194 0 -308 -119t-114 -315z" />
    <glyph glyph-name="R.salt" horiz-adv-x="1533" 
d="M532 0h-380v1507h692q127 0 231 -29t182.5 -86.5t122 -150t43.5 -213.5v-33q0 -290 -241 -409l278 -586h-424l-239 518h-265v-518zM856 1180h-324v-369h324q89 0 135.5 47.5t46.5 136.5t-47 137t-135 48z" />
    <glyph glyph-name="Racute.salt" horiz-adv-x="1533" 
d="M903 1606h-356l254 376h393zM532 0h-380v1507h692q127 0 231 -29t182.5 -86.5t122 -150t43.5 -213.5v-33q0 -290 -241 -409l278 -586h-424l-239 518h-265v-518zM856 1180h-324v-369h324q89 0 135.5 47.5t46.5 136.5t-47 137t-135 48z" />
    <glyph glyph-name="Rcaron.salt" horiz-adv-x="1533" 
d="M961 1606h-439l-270 376h340l135 -200h37l131 200h332zM532 0h-380v1507h692q127 0 231 -29t182.5 -86.5t122 -150t43.5 -213.5v-33q0 -290 -241 -409l278 -586h-424l-239 518h-265v-518zM856 1180h-324v-369h324q89 0 135.5 47.5t46.5 136.5t-47 137t-135 48z" />
    <glyph glyph-name="Rcommaaccent.salt" horiz-adv-x="1533" 
d="M532 0h-380v1507h692q127 0 231 -29t182.5 -86.5t122 -150t43.5 -213.5v-33q0 -290 -241 -409l278 -586h-424l-239 518h-265v-518zM856 1180h-324v-369h324q89 0 135.5 47.5t46.5 136.5t-47 137t-135 48zM688 -643h-63v180h67q64 0 90.5 25t26.5 71q-29 -16 -68 -16
q-60 0 -97.5 37t-37.5 102q0 78 51.5 116t130.5 38q101 0 157 -66t56 -182v-12q0 -143 -83.5 -218t-229.5 -75z" />
    <glyph glyph-name="idotaccent" horiz-adv-x="700" 
d="M326 1282q-95 0 -142 51.5t-47 136.5t47 137t142 52t141.5 -52t46.5 -137t-46.5 -136.5t-141.5 -51.5zM561 0h-373v860h-143v270h516v-1130z" />
    <glyph glyph-name="f.salt" horiz-adv-x="823" 
d="M500 0h-344v836h-123v270h123v94q0 159 99 249.5t273 90.5q167 0 268 -84.5t101 -234.5h-295q0 59 -51 59t-51 -59v-115h286v-270h-286v-836z" />
    <glyph glyph-name="l.salt" horiz-adv-x="688" 
d="M643 -12h-135q-117 0 -194 22t-123.5 71t-65.5 119t-19 175v1120h373v-1120q0 -68 68 -68h96v-319z" />
    <glyph glyph-name="lacute.salt" horiz-adv-x="688" 
d="M455 1606h-357l254 376h393zM643 -12h-135q-117 0 -194 22t-123.5 71t-65.5 119t-19 175v1120h373v-1120q0 -68 68 -68h96v-319z" />
    <glyph glyph-name="lcaron.salt" horiz-adv-x="688" 
d="M836 1143h-283v540h319zM643 -12h-135q-117 0 -194 22t-123.5 71t-65.5 119t-19 175v1120h373v-1120q0 -68 68 -68h96v-319z" />
    <glyph glyph-name="lcommaaccent.salt" horiz-adv-x="688" 
d="M643 -12h-135q-117 0 -194 22t-123.5 71t-65.5 119t-19 175v1120h373v-1120q0 -68 68 -68h96v-319zM369 -86q98 0 152 -66t54 -182v-12q0 -140 -83.5 -216.5t-225.5 -76.5h-57v180h61q113 0 113 92q-24 -12 -57 -12q-60 0 -96.5 37t-36.5 102q0 77 50.5 115.5t125.5 38.5
z" />
    <glyph glyph-name="lslash.salt" horiz-adv-x="688" 
d="M643 -12h-135q-117 0 -194 22t-123.5 71t-65.5 119t-19 175v49l-96 -53v270l96 53v801h373v-600l152 82v-270l-152 -82v-250q0 -68 68 -68h96v-319z" />
    <glyph glyph-name="r.salt" horiz-adv-x="909" 
d="M508 0h-373v1130h283v-382q9 112 37.5 192t73.5 124t97.5 63.5t118.5 19.5h156v-320h-223q-83 0 -126.5 -43.5t-43.5 -126.5v-657z" />
    <glyph glyph-name="racute.salt" horiz-adv-x="909" 
d="M682 1253h-328l185 435h381zM508 0h-373v1130h283v-382q9 112 37.5 192t73.5 124t97.5 63.5t118.5 19.5h156v-320h-223q-83 0 -126.5 -43.5t-43.5 -126.5v-657z" />
    <glyph glyph-name="rcaron.salt" horiz-adv-x="909" 
d="M756 1253h-467l-207 435h315l115 -263h29l102 263h307zM508 0h-373v1130h283v-382q9 112 37.5 192t73.5 124t97.5 63.5t118.5 19.5h156v-320h-223q-83 0 -126.5 -43.5t-43.5 -126.5v-657z" />
    <glyph glyph-name="rcommaaccent.salt" horiz-adv-x="909" 
d="M508 0h-373v1130h283v-382q9 112 37.5 192t73.5 124t97.5 63.5t118.5 19.5h156v-320h-223q-83 0 -126.5 -43.5t-43.5 -126.5v-657zM289 -86q98 0 152.5 -66t54.5 -182v-12q0 -140 -84 -216.5t-226 -76.5h-57v180h61q113 0 113 92q-24 -12 -57 -12q-60 0 -96.5 37
t-36.5 102q0 77 50.5 115.5t125.5 38.5z" />
    <glyph glyph-name="t.salt" horiz-adv-x="950" 
d="M565 -29q-191 0 -296 104t-105 296v489h-160v270h160v312h344v-312h393v-270h-393v-498q0 -45 21.5 -70.5t60.5 -25.5q78 0 78 96h262q0 -187 -89 -289t-276 -102z" />
    <glyph glyph-name="tbar.salt" horiz-adv-x="950" 
d="M565 -29q-191 0 -296 104t-105 296v131h-111v192h111v166h-160v270h160v312h344v-312h393v-270h-393v-166h307v-192h-307v-140q0 -45 21.5 -70.5t60.5 -25.5q78 0 78 96h262q0 -187 -89 -289t-276 -102z" />
    <glyph glyph-name="tcaron.salt" horiz-adv-x="950" 
d="M893 1229h-283v540h320zM565 -29q-191 0 -296 104t-105 296v489h-160v270h160v312h344v-312h393v-270h-393v-498q0 -45 21.5 -70.5t60.5 -25.5q78 0 78 96h262q0 -187 -89 -289t-276 -102z" />
    <glyph glyph-name="tcedilla.salt" horiz-adv-x="950" 
d="M520 -573q-98 0 -174 26v225q72 -26 156 -26q110 0 110 51q0 39 -77 39h-117v248q-122 35 -188 133t-66 248v489h-160v270h160v312h344v-312h393v-270h-393v-498q0 -45 21.5 -70.5t60.5 -25.5q78 0 78 96h262q0 -347 -287 -385v-71q211 -36 211 -213q0 -117 -87.5 -191.5
t-246.5 -74.5z" />
    <glyph glyph-name="tcommaaccent.salt" horiz-adv-x="950" 
d="M565 -29q-191 0 -296 104t-105 296v489h-160v270h160v312h344v-312h393v-270h-393v-498q0 -45 21.5 -70.5t60.5 -25.5q78 0 78 96h262q0 -187 -89 -289t-276 -102zM532 -86q98 0 152.5 -66t54.5 -182v-12q0 -140 -83.5 -216.5t-225.5 -76.5h-57v180h61q113 0 113 92
q-24 -12 -58 -12q-60 0 -96.5 37t-36.5 102q0 77 50.5 115.5t125.5 38.5z" />
    <glyph glyph-name="u.salt" horiz-adv-x="1282" 
d="M641 -41q-267 0 -405 130t-138 382v659h373v-669q0 -77 46.5 -123.5t123.5 -46.5t123.5 46.5t46.5 123.5v669h373v-659q0 -252 -138 -382t-405 -130z" />
    <glyph glyph-name="uacute.salt" horiz-adv-x="1282" 
d="M786 1217h-327l184 434h381zM641 -41q-267 0 -405 130t-138 382v659h373v-669q0 -77 46.5 -123.5t123.5 -46.5t123.5 46.5t46.5 123.5v669h373v-659q0 -252 -138 -382t-405 -130z" />
    <glyph glyph-name="ubreve.salt" horiz-adv-x="1282" 
d="M643 1204q-381 0 -393 447h274q3 -102 31.5 -143.5t87.5 -41.5q60 0 90 41.5t33 143.5h266q-12 -447 -389 -447zM641 -41q-267 0 -405 130t-138 382v659h373v-669q0 -77 46.5 -123.5t123.5 -46.5t123.5 46.5t46.5 123.5v669h373v-659q0 -252 -138 -382t-405 -130z" />
    <glyph glyph-name="ucircumflex.salt" horiz-adv-x="1282" 
d="M514 1217h-307l207 434h458l211 -434h-315l-115 262h-28zM641 -41q-267 0 -405 130t-138 382v659h373v-669q0 -77 46.5 -123.5t123.5 -46.5t123.5 46.5t46.5 123.5v669h373v-659q0 -252 -138 -382t-405 -130z" />
    <glyph glyph-name="udieresis.salt" horiz-adv-x="1282" 
d="M416 1245q-95 0 -142 52t-47 137t47 136.5t142 51.5t141.5 -51.5t46.5 -136.5t-46.5 -137t-141.5 -52zM866 1245q-95 0 -141.5 52t-46.5 137t46.5 136.5t141.5 51.5t142 -51.5t47 -136.5t-47 -137t-142 -52zM641 -41q-267 0 -405 130t-138 382v659h373v-669
q0 -77 46.5 -123.5t123.5 -46.5t123.5 46.5t46.5 123.5v669h373v-659q0 -252 -138 -382t-405 -130z" />
    <glyph glyph-name="ugrave.salt" horiz-adv-x="1282" 
d="M809 1217h-336l-233 434h389zM641 -41q-267 0 -405 130t-138 382v659h373v-669q0 -77 46.5 -123.5t123.5 -46.5t123.5 46.5t46.5 123.5v669h373v-659q0 -252 -138 -382t-405 -130z" />
    <glyph glyph-name="uhungarumlaut.salt" horiz-adv-x="1282" 
d="M958 1217h-266l172 434h283zM573 1217h-266l172 434h283zM641 -41q-267 0 -405 130t-138 382v659h373v-669q0 -77 46.5 -123.5t123.5 -46.5t123.5 46.5t46.5 123.5v669h373v-659q0 -252 -138 -382t-405 -130z" />
    <glyph glyph-name="umacron.salt" horiz-adv-x="1282" 
d="M1010 1278h-738v258h738v-258zM641 -41q-267 0 -405 130t-138 382v659h373v-669q0 -77 46.5 -123.5t123.5 -46.5t123.5 46.5t46.5 123.5v669h373v-659q0 -252 -138 -382t-405 -130z" />
    <glyph glyph-name="uogonek.salt" horiz-adv-x="1282" 
d="M788 -496q-135 0 -215.5 72t-80.5 195q0 107 53 192q-220 23 -333.5 152t-113.5 356v659h373v-669q0 -77 46.5 -123.5t123.5 -46.5t123.5 46.5t46.5 123.5v669h373v-659q0 -387 -318 -483l-57 -62q-51 -54 -51 -98q0 -29 21.5 -45t58.5 -16q52 0 84 14v-262
q-54 -15 -134 -15z" />
    <glyph glyph-name="uring.salt" horiz-adv-x="1282" 
d="M641 1194q-121 0 -196.5 71.5t-75.5 184.5t75.5 184.5t196.5 71.5t196.5 -71.5t75.5 -184.5t-75.5 -184.5t-196.5 -71.5zM641 1368q38 0 60 23t22 59t-22 59t-60 23t-60 -23t-22 -59t22 -59t60 -23zM641 -41q-267 0 -405 130t-138 382v659h373v-669q0 -77 46.5 -123.5
t123.5 -46.5t123.5 46.5t46.5 123.5v669h373v-659q0 -252 -138 -382t-405 -130z" />
    <glyph glyph-name="utilde.salt" horiz-adv-x="1282" 
d="M809 1229q-58 0 -106.5 16.5t-77 36.5t-69.5 36.5t-85 16.5q-99 0 -174 -71l-53 254q92 92 227 92q47 0 87.5 -11t68.5 -27t54.5 -31.5t59 -26.5t68.5 -11q100 0 176 72l53 -254q-92 -92 -229 -92zM641 -41q-267 0 -405 130t-138 382v659h373v-669q0 -77 46.5 -123.5
t123.5 -46.5t123.5 46.5t46.5 123.5v669h373v-659q0 -252 -138 -382t-405 -130z" />
    <glyph glyph-name="f_f.salt" horiz-adv-x="1597" 
d="M500 0h-344v836h-123v270h123v82q0 158 95 249t263 91q161 0 257.5 -86t96.5 -234h-274q0 60 -47 60t-47 -60v-102h430v94q0 159 99.5 249.5t273.5 90.5q167 0 267.5 -84.5t100.5 -234.5h-295q0 59 -51 59t-51 -59v-115h287v-270h-287v-836h-344v836h-430v-836z" />
    <glyph glyph-name="f_f_i.salt" horiz-adv-x="2207" 
d="M1876 1229q-96 0 -144.5 49.5t-48.5 132.5t48.5 132.5t144.5 49.5t144 -49.5t48 -132.5t-48 -132.5t-144 -49.5zM500 0h-344v836h-123v270h123v82q0 158 95 249t263 91q161 0 257.5 -86t96.5 -234h-274q0 60 -47 60t-47 -60v-102h430v94q0 158 93.5 249t262.5 91
q163 0 259.5 -85.5t96.5 -233.5h-274q0 59 -47 59t-47 -59v-115h229v-270h-229v-836h-344v836h-430v-836zM2068 0h-372v860h-103v270h475v-1130z" />
    <glyph glyph-name="f_f_j.salt" horiz-adv-x="2209" 
d="M1890 1229q-96 0 -144 49.5t-48 132.5t48 132.5t144 49.5t144.5 -49.5t48.5 -132.5t-48.5 -132.5t-144.5 -49.5zM500 0h-344v836h-123v270h123v82q0 158 95 249t263 91q161 0 257.5 -86t96.5 -234h-274q0 60 -47 60t-47 -60v-102h430v94q0 158 93.5 249t262.5 91
q163 0 259.5 -85.5t96.5 -233.5h-274q0 59 -47 59t-47 -59v-115h237v-270h-237v-836h-344v836h-430v-836zM1563 -418h-45v312h53q73 0 112 39t39 112v815h-120v270h481v-1081q0 -252 -123 -359.5t-397 -107.5z" />
    <glyph glyph-name="f_f_l.salt" horiz-adv-x="2269" 
d="M500 0h-344v836h-123v270h123v82q0 158 95 249t263 91q161 0 257.5 -86t96.5 -234h-274q0 60 -47 60t-47 -60v-102h430v94q0 158 93.5 249t262.5 91q163 0 259.5 -85.5t96.5 -233.5h-274q0 59 -47 59t-47 -59v-115h266v-270h-266v-836h-344v836h-430v-836zM2224 -12h-135
q-117 0 -194 22t-123 71t-65 119t-19 175v1120h372v-1120q0 -68 68 -68h96v-319z" />
    <glyph glyph-name="f_j.salt" horiz-adv-x="1433" 
d="M1114 1229q-96 0 -144 49.5t-48 132.5t48 132.5t144 49.5t144.5 -49.5t48.5 -132.5t-48.5 -132.5t-144.5 -49.5zM500 0h-344v836h-123v270h123v94q0 158 93.5 249t262.5 91q163 0 259.5 -85.5t96.5 -233.5h-274q0 59 -47 59t-47 -59v-115h237v-270h-237v-836zM786 -418
h-45v312h54q73 0 112 39t39 112v815h-119v270h480v-1081q0 -252 -123.5 -359.5t-397.5 -107.5z" />
    <glyph glyph-name="fi.salt" horiz-adv-x="1433" 
d="M1102 1229q-96 0 -144.5 49.5t-48.5 132.5t48.5 132.5t144.5 49.5t144 -49.5t48 -132.5t-48 -132.5t-144 -49.5zM500 0h-344v836h-123v270h123v94q0 158 93.5 249t262.5 91q163 0 259.5 -85.5t96.5 -233.5h-274q0 59 -47 59t-47 -59v-115h229v-270h-229v-836zM1294 0
h-372v860h-103v270h475v-1130z" />
    <glyph glyph-name="fl.salt" horiz-adv-x="1495" 
d="M500 0h-344v836h-123v270h123v94q0 158 93.5 249t262.5 91q163 0 259.5 -85.5t96.5 -233.5h-274q0 59 -47 59t-47 -59v-115h266v-270h-266v-836zM1450 -12h-135q-117 0 -194 22t-123.5 71t-65.5 119t-19 175v1120h373v-1120q0 -68 68 -68h96v-319z" />
    <glyph glyph-name="seven.salt" horiz-adv-x="1216" 
d="M717 0h-381v293q0 587 467 829l-17 45h-753v328h1130v-477q-170 -85 -268 -189t-138 -230.5t-40 -305.5v-293z" />
    <glyph glyph-name="zero.tnum" horiz-adv-x="1384" 
d="M692 -45q-154 0 -270 53.5t-188 152.5t-108 234t-36 303v95q0 352 154.5 549.5t447.5 197.5t447.5 -197.5t154.5 -549.5v-95q0 -168 -36 -303t-108 -234t-188 -152.5t-270 -53.5zM692 307q126 0 178 95.5t52 340.5q0 171 -24.5 268.5t-73 137t-132.5 39.5t-132.5 -39
t-72.5 -135t-24 -266q0 -248 51.5 -344.5t177.5 -96.5z" />
    <glyph glyph-name="one.tnum" horiz-adv-x="1384" 
d="M1274 0h-1122v332h405v831h-364v332h745v-1163h336v-332z" />
    <glyph glyph-name="two.tnum" horiz-adv-x="1384" 
d="M1249 2h-1106v330q0 146 80 243.5t262 167.5l240 93q86 33 123 85t37 132q0 74 -53 123t-144 49q-94 0 -145 -52t-51 -141h-369q0 227 148 367.5t417 140.5q133 0 240.5 -36.5t178 -101t108.5 -151t38 -186.5v-25q0 -176 -102 -296t-309 -199l-240 -92
q-51 -20 -70.5 -43.5t-19.5 -61.5v-18h737v-328z" />
    <glyph glyph-name="three.tnum" horiz-adv-x="1384" 
d="M678 -41q-266 0 -426 138.5t-160 357.5h369q0 -81 58.5 -131t158.5 -50t158.5 54.5t58.5 140.5q0 85 -59 140t-158 55q-110 0 -189 -72l-170 280l422 263l-18 32h-567v328h1052v-326l-405 -247q216 -26 338.5 -145t122.5 -308v-25q0 -215 -160.5 -350t-425.5 -135z" />
    <glyph glyph-name="four.tnum" horiz-adv-x="1384" 
d="M1192 0h-352v264h-779v387l543 889l301 -190l-446 -738l30 -45h351v516h352v-516h160v-303h-160v-264z" />
    <glyph glyph-name="five.tnum" horiz-adv-x="1384" 
d="M705 -41q-267 0 -431.5 147t-164.5 369h368q0 -92 65 -146.5t167 -54.5q108 0 169.5 66t61.5 170t-61 169.5t-166 65.5q-73 0 -130 -30.5t-81 -79.5h-361l76 860h967v-328h-680l-23 -249q116 98 303 98q237 0 381 -139t144 -357v-24q0 -108 -41 -205t-116 -171
t-191 -117.5t-256 -43.5z" />
    <glyph glyph-name="six.tnum" horiz-adv-x="1384" 
d="M719 -45q-127 0 -230.5 36t-176.5 100.5t-122.5 154.5t-72.5 196.5t-23 227.5v84q0 753 752 753q150 0 291 -16v-320q-183 17 -303 17q-102 0 -173 -22.5t-115.5 -69t-66.5 -111t-28 -156.5q58 87 155 133t219 46q224 0 359 -136.5t135 -367.5q0 -249 -167 -399
t-433 -150zM707 270q112 0 177.5 62.5t65.5 165.5t-65 165t-174 62q-104 0 -176 -59t-72 -168q0 -102 64 -165t180 -63z" />
    <glyph glyph-name="seven.tnum" horiz-adv-x="1384" 
d="M743 0h-405l514 1149l-27 35h-419v-262h-308v573h1205v-205z" />
    <glyph glyph-name="eight.tnum" horiz-adv-x="1384" 
d="M692 -45q-286 0 -450 118.5t-164 340.5q0 139 65 234.5t181 135.5v29q-203 80 -203 313q0 137 74 231.5t200.5 138.5t296.5 44t296.5 -44t201 -138.5t74.5 -231.5q0 -233 -203 -313v-29q116 -41 181 -135.5t65 -234.5q0 -222 -164 -340.5t-451 -118.5zM692 936
q96 0 149.5 38t53.5 109q0 70 -53 108t-150 38t-150 -38t-53 -108q0 -71 53.5 -109t149.5 -38zM692 266q112 0 179 49.5t67 147.5q0 96 -66.5 145t-179.5 49t-179.5 -49t-66.5 -145q0 -98 67 -147.5t179 -49.5z" />
    <glyph glyph-name="nine.tnum" horiz-adv-x="1384" 
d="M668 1540q158 0 279 -55t195.5 -153.5t112 -226t37.5 -280.5v-84q0 -753 -751 -753q-150 0 -291 16v320q183 -17 303 -17q102 0 173 22.5t115.5 69t66.5 111t28 156.5q-58 -87 -155.5 -133t-219.5 -46q-224 0 -358.5 136.5t-134.5 367.5q0 249 167 399t433 150zM680 1225
q-112 0 -178 -62.5t-66 -165.5t65.5 -165t174.5 -62q104 0 176 59t72 168q0 102 -64 165t-180 63z" />
    <glyph glyph-name="seven.tnum.salt" horiz-adv-x="1384" 
d="M805 0h-381v293q0 294 121.5 503t353.5 326l-16 45h-770v328h1147v-481q-253 -124 -354 -289t-101 -432v-293z" />
    <glyph glyph-name="zero.dnom" horiz-adv-x="935" 
d="M469 -25q-105 0 -184.5 34t-124.5 92.5t-66.5 126.5t-21.5 145v78q0 79 23.5 149t70 126t124.5 89t179 33q100 0 177.5 -33t124 -89t70 -126t23.5 -149v-78q0 -61 -13 -116.5t-42.5 -107.5t-74 -90t-113 -61t-152.5 -23zM469 201q77 0 113 50.5t36 158.5q0 115 -35.5 164
t-113.5 49q-79 0 -115.5 -48.5t-36.5 -160.5t36.5 -162.5t115.5 -50.5z" />
    <glyph glyph-name="one.dnom" horiz-adv-x="540" 
d="M444 0h-243v612h-152v211h395v-823z" />
    <glyph glyph-name="two.dnom" horiz-adv-x="776" 
d="M700 0h-626v176q0 85 45 142t147 98l117 47q48 21 70 44t22 64q0 32 -24 53t-68 21q-86 0 -86 -80h-236q0 124 82 203.5t240 79.5q155 0 239.5 -76t84.5 -190v-15q0 -94 -52 -156.5t-182 -115.5l-117 -47q-34 -12 -48.5 -22t-14.5 -29h407v-197z" />
    <glyph glyph-name="three.dnom" horiz-adv-x="780" 
d="M383 -25q-151 0 -242.5 79t-91.5 196h236q0 -32 27 -52t71 -20q46 0 71 22.5t25 59.5q0 35 -26.5 59.5t-69.5 24.5q-53 0 -98 -35l-107 180l215 103l-12 22h-295v209h590v-221l-195 -96q111 -20 173.5 -84t62.5 -160v-14q0 -119 -90.5 -196t-243.5 -77z" />
    <glyph glyph-name="four.dnom" horiz-adv-x="837" 
d="M711 0h-226v131h-438v252l311 506l185 -113l-256 -424l18 -28h180v276h226v-276h88v-193h-88v-131z" />
    <glyph glyph-name="five.dnom" horiz-adv-x="796" 
d="M403 -25q-152 0 -246 84t-94 207h236q0 -41 32 -64.5t75 -23.5q48 0 81 30t33 79q0 46 -32.5 77t-79.5 31q-36 0 -65 -15.5t-38 -37.5h-229l43 481h559v-209h-375l-8 -86q59 43 154 43q134 0 216.5 -79.5t82.5 -198.5v-17q0 -123 -94 -212t-251 -89z" />
    <glyph glyph-name="six.dnom" horiz-adv-x="845" 
d="M440 -27q-81 0 -145.5 23t-106 61.5t-69.5 91t-39.5 108t-11.5 116.5v55q0 198 112.5 299.5t325.5 101.5q97 0 178 -8v-203q-1 0 -13 1t-31 2t-42 2.5t-50 2.5t-50 1q-106 0 -150.5 -38.5t-52.5 -113.5q70 82 209 82q134 0 212.5 -75.5t78.5 -205.5q0 -140 -98 -221.5
t-257 -81.5zM434 176q131 0 131 96q0 46 -34 72.5t-89 26.5t-95 -23t-40 -76q0 -96 127 -96z" />
    <glyph glyph-name="seven.dnom" horiz-adv-x="761" 
d="M432 0h-260l279 606l-15 17h-194v-121h-197v321h682v-151z" />
    <glyph glyph-name="eight.dnom" horiz-adv-x="829" 
d="M414 -27q-162 0 -258.5 66t-96.5 194q0 140 123 197v16q-100 46 -100 166q0 79 46.5 133.5t119.5 78.5t166 24q146 0 238.5 -60t92.5 -176q0 -122 -102 -166v-16q127 -56 127 -197q0 -129 -97 -194.5t-259 -65.5zM414 526q94 0 94 62q0 59 -94 59q-97 0 -97 -59
q0 -62 97 -62zM414 174q125 0 125 88q0 84 -125 84t-125 -84q0 -88 125 -88z" />
    <glyph glyph-name="nine.dnom" horiz-adv-x="845" 
d="M403 850q101 0 176.5 -34.5t117 -93.5t61.5 -126.5t20 -144.5v-56q0 -198 -113 -300.5t-325 -102.5q-80 0 -178 8v205q98 -8 184 -8q106 0 150.5 37t52.5 112q-71 -80 -209 -80q-133 0 -211 75t-78 206q0 140 97 221.5t255 81.5zM412 647q-62 0 -96.5 -24.5t-34.5 -71.5
t33 -73.5t89 -26.5q55 0 95.5 23.5t40.5 76.5q0 96 -127 96z" />
    <glyph glyph-name="zero.numr" horiz-adv-x="935" 
d="M469 498q-105 0 -184.5 34t-124.5 92t-66.5 126t-21.5 145v78q0 79 23.5 149t70 126t124.5 89t179 33q100 0 177.5 -33t124 -89t70 -126t23.5 -149v-78q0 -61 -13 -116.5t-42.5 -107.5t-74 -90t-113 -60.5t-152.5 -22.5zM469 723q77 0 113 50.5t36 158.5q0 115 -35.5 164
t-113.5 49q-79 0 -115.5 -48.5t-36.5 -160.5t36.5 -162.5t115.5 -50.5z" />
    <glyph glyph-name="one.numr" horiz-adv-x="540" 
d="M444 522h-243v613h-152v211h395v-824z" />
    <glyph glyph-name="two.numr" horiz-adv-x="776" 
d="M700 522h-626v176q0 85 45 142t147 98l117 47q48 21 70 44.5t22 64.5q0 32 -24 52.5t-68 20.5q-86 0 -86 -80h-236q0 124 82 203.5t240 79.5q155 0 239.5 -76t84.5 -190v-14q0 -94 -52 -157t-182 -116l-117 -47q-34 -12 -48.5 -22t-14.5 -29h407v-197z" />
    <glyph glyph-name="three.numr" horiz-adv-x="780" 
d="M383 498q-151 0 -242.5 78.5t-91.5 195.5h236q0 -32 27 -52t71 -20q46 0 71 22.5t25 59.5q0 35 -26.5 59.5t-69.5 24.5q-53 0 -98 -35l-107 181l215 102l-12 23h-295v209h590v-222l-195 -96q111 -20 173.5 -84t62.5 -160v-14q0 -118 -90.5 -195t-243.5 -77z" />
    <glyph glyph-name="four.numr" horiz-adv-x="837" 
d="M711 522h-226v131h-438v252l311 506l185 -113l-256 -424l18 -28h180v276h226v-276h88v-193h-88v-131z" />
    <glyph glyph-name="five.numr" horiz-adv-x="796" 
d="M403 498q-152 0 -246 83.5t-94 206.5h236q0 -41 32 -64.5t75 -23.5q48 0 81 30t33 79q0 46 -32.5 77.5t-79.5 31.5q-36 0 -65 -16t-38 -38h-229l43 482h559v-209h-375l-8 -86q59 43 154 43q134 0 216.5 -80t82.5 -199v-16q0 -123 -94 -212t-251 -89z" />
    <glyph glyph-name="six.numr" horiz-adv-x="845" 
d="M440 496q-81 0 -145.5 23t-106 61t-69.5 90.5t-39.5 108t-11.5 116.5v55q0 198 113 300t325 102q86 0 178 -9v-202q-1 0 -13 1t-31 2t-42 2t-50 2t-50 1q-106 0 -150.5 -38.5t-52.5 -113.5q70 82 209 82q134 0 212.5 -75t78.5 -205q0 -140 -98 -221.5t-257 -81.5z
M434 698q62 0 96.5 24.5t34.5 72.5q0 46 -34 72t-89 26t-95 -22.5t-40 -75.5q0 -97 127 -97z" />
    <glyph glyph-name="seven.numr" horiz-adv-x="761" 
d="M432 522h-260l279 606l-15 17h-194v-121h-197v322h682v-152z" />
    <glyph glyph-name="eight.numr" horiz-adv-x="829" 
d="M414 496q-162 0 -258.5 66t-96.5 194q0 139 123 196v17q-100 46 -100 166q0 79 46.5 133t119 78t166.5 24q146 0 238.5 -59.5t92.5 -175.5q0 -122 -102 -166v-17q127 -56 127 -196q0 -129 -97 -194.5t-259 -65.5zM414 1049q94 0 94 61q0 59 -94 59q-97 0 -97 -59
q0 -61 97 -61zM414 696q125 0 125 88q0 84 -125 84t-125 -84q0 -88 125 -88z" />
    <glyph glyph-name="nine.numr" horiz-adv-x="845" 
d="M403 1372q101 0 176.5 -34.5t117 -93.5t61.5 -126.5t20 -144.5v-55q0 -198 -113 -301t-325 -103q-80 0 -178 8v205q98 -8 184 -8q106 0 150.5 37t52.5 112q-71 -80 -209 -80q-133 0 -211 75t-78 206q0 140 97 221.5t255 81.5zM412 1169q-62 0 -96.5 -24.5t-34.5 -71.5
t33 -73.5t89 -26.5q55 0 95.5 23.5t40.5 76.5q0 96 -127 96z" />
    <glyph glyph-name="exclamdown.case" horiz-adv-x="663" 
d="M549 1495v-356h-434v356h434zM522 971v-971h-381v971h381z" />
    <glyph glyph-name="questiondown.case" horiz-adv-x="1159" 
d="M420 1495h418v-356h-418v356zM444 975h369v-348h-207q-94 0 -143 -49.5t-49 -128.5q0 -77 45.5 -126t126.5 -49q80 0 126 50t46 125h356q0 -216 -145 -355t-396 -139q-236 0 -376 127t-140 336v24q0 170 100 283.5t285 153.5z" />
    <glyph glyph-name="periodcentered.case" horiz-adv-x="565" 
d="M483 549h-401v405h401v-405z" />
    <glyph glyph-name="asterisk.part" horiz-adv-x="442" 
d="M442 848l-133 -238l-309 230v245l309 230l133 -238l-243 -96v-37z" />
    <glyph glyph-name="parenleft.case" horiz-adv-x="815" 
d="M799 -242h-422q-143 199 -215 425t-72 534q0 208 39 382t101 299t159 253h410q-77 -113 -132 -210t-105.5 -215t-76.5 -246t-26 -263q0 -287 80 -518.5t260 -440.5z" />
    <glyph glyph-name="parenright.case" horiz-adv-x="815" 
d="M16 -242q180 209 260 440.5t80 518.5q0 135 -26 263t-76.5 246t-105.5 215t-132 210h410q97 -128 159 -253t101 -299t39 -382q0 -308 -72 -534t-215 -425h-422z" />
    <glyph glyph-name="braceleft.case" horiz-adv-x="815" 
d="M750 -242h-54q-458 0 -458 406v258q0 63 -39 93t-121 30v327q82 0 121 30t39 93v250q0 406 458 406h54v-312h-54q-58 0 -82 -24.5t-24 -73.5v-268q0 -123 -53 -181t-164 -67v-33q111 -9 164 -67t53 -181v-276q0 -49 24 -73.5t82 -24.5h54v-312z" />
    <glyph glyph-name="braceright.case" horiz-adv-x="815" 
d="M66 -242v312h53q58 0 82 24.5t24 73.5v276q0 123 53 181t164 67v33q-111 9 -164 67t-53 181v268q0 49 -24 73.5t-82 24.5h-53v312h53q459 0 459 -406v-250q0 -63 38.5 -93t120.5 -30v-327q-82 0 -120.5 -30t-38.5 -93v-258q0 -406 -459 -406h-53z" />
    <glyph glyph-name="bracketleft.case" horiz-adv-x="815" 
d="M737 -242h-577v1893h577v-312h-221v-1269h221v-312z" />
    <glyph glyph-name="bracketright.case" horiz-adv-x="815" 
d="M78 -242v312h221v1269h-221v312h577v-1893h-577z" />
    <glyph glyph-name="hyphen.case" horiz-adv-x="1044" 
d="M971 596h-897v332h897v-332z" />
    <glyph glyph-name="endash.case" horiz-adv-x="1085" 
d="M1049 594h-1012v278h1012v-278z" />
    <glyph glyph-name="emdash.case" horiz-adv-x="1880" 
d="M1843 594h-1806v278h1806v-278z" />
    <glyph glyph-name="guillemotleft.case" horiz-adv-x="1404" 
d="M737 289h-438l-279 405v103l291 413h426l-303 -422v-77zM1372 289h-438l-279 405v103l291 413h426l-303 -422v-77z" />
    <glyph glyph-name="guillemotright.case" horiz-adv-x="1404" 
d="M668 1210h438l278 -405v-103l-290 -413h-426l303 422v77zM33 1210h438l279 -405v-103l-291 -413h-426l303 422v77z" />
    <glyph glyph-name="guilsinglleft.case" horiz-adv-x="770" 
d="M737 289h-438l-279 405v103l291 413h426l-303 -422v-77z" />
    <glyph glyph-name="guilsinglright.case" horiz-adv-x="770" 
d="M33 1210h438l279 -405v-103l-291 -413h-426l303 422v77z" />
    <glyph glyph-name="cent.tnum" horiz-adv-x="1384" 
d="M866 0h-299v197q-203 39 -317.5 183t-114.5 341v41q0 204 115 348.5t317 183.5v181h299v-183q170 -37 271.5 -154t111.5 -290h-352q-8 67 -58.5 110t-129.5 43q-98 0 -155.5 -69t-57.5 -191q0 -119 54.5 -185.5t158.5 -66.5q83 0 134 44t62 120h352q-10 -177 -113 -296.5
t-278 -157.5v-199z" />
    <glyph glyph-name="currency.tnum" horiz-adv-x="1384" 
d="M692 268q-125 0 -221 47l-201 -200l-209 213l191 190q-53 95 -53 211v33q0 112 51 209l-189 188l209 213l197 -196q100 47 225 47q126 0 226 -47l196 196l209 -213l-188 -188q51 -97 51 -209v-33q0 -116 -53 -211l190 -190l-209 -213l-201 200q-96 -47 -221 -47zM692 547
q90 0 134 53t44 145q0 95 -44.5 147t-133.5 52t-133.5 -52t-44.5 -147q0 -92 44 -145t134 -53z" />
    <glyph glyph-name="dollar.tnum" horiz-adv-x="1384" 
d="M844 -264h-299v262q-219 32 -329 153.5t-110 315.5h340q0 -88 66.5 -139.5t196.5 -51.5q115 0 180 42t65 116q0 137 -233 156l-94 8q-225 21 -349 137t-124 322q0 183 97.5 289.5t285.5 132.5v215h299v-219q188 -34 283 -149t95 -302h-340q0 78 -53 126t-147 48
q-87 0 -133.5 -37t-46.5 -104q0 -61 39.5 -104t125.5 -50l95 -8q256 -22 398 -138.5t142 -322.5q0 -190 -114.5 -302.5t-335.5 -137.5v-258z" />
    <glyph glyph-name="Euro.tnum" horiz-adv-x="1384" 
d="M795 -37q-255 0 -409 132.5t-200 393.5h-170v177h152q-2 23 -2 67v29v39h-113v176h127q40 275 191.5 415t410.5 140q276 0 420.5 -142t153.5 -380h-328q-17 223 -246 223q-117 0 -181 -60.5t-87 -195.5h401v-176h-417v-53q0 -55 2 -82h379v-177h-357q28 -119 93.5 -173
t179.5 -54q232 0 249 223h328q-5 -116 -41.5 -210t-105.5 -164.5t-178.5 -109t-251.5 -38.5z" />
    <glyph glyph-name="riel-khmer.tnum" horiz-adv-x="1384" 
d="M975 -16h-295q-223 0 -341 82.5t-118 234.5q0 156 118.5 241t346.5 85l2 57h-313v217h313q0 28 -29 43q-28 15 -94.5 50t-93.5 50q-88 47 -113.5 137t17.5 191q39 96 109.5 130t213.5 34q164 0 359 -29v-250q-195 29 -369 29q-44 0 -53 -18q-11 -25 14 -37
q53 -25 189 -101q69 -38 103 -90t34 -139h221v-217h-221v-700zM674 201h6l4 209q-168 -3 -168 -105q0 -104 158 -104z" />
    <glyph glyph-name="sterling.tnum" horiz-adv-x="1384" 
d="M1069 639h-471v-352h401v176h287v-463h-1159v287h131v352h-119v246h119v104q0 255 157.5 393t432.5 138q139 0 344 -21v-299q-210 21 -344 21q-143 0 -196.5 -60t-53.5 -186v-90h471v-246z" />
    <glyph glyph-name="yen.tnum" horiz-adv-x="1384" 
d="M885 0h-348v291h-406v176h406v135h-406v176h256l-346 717h385l270 -590h45l238 590h364l-315 -717h254v-176h-397v-135h397v-176h-397v-291z" />
    <glyph glyph-name="plus.tnum" horiz-adv-x="1384" 
d="M858 147h-332v406h-383v303h383v406h332v-406h383v-303h-383v-406z" />
    <glyph glyph-name="minus.tnum" horiz-adv-x="1384" 
d="M1241 553h-1098v303h1098v-303z" />
    <glyph glyph-name="multiply.tnum" horiz-adv-x="1384" 
d="M135 356l346 346l-346 345l215 215l346 -347l346 347l207 -207l-346 -346l346 -344l-215 -215l-346 346l-346 -346z" />
    <glyph glyph-name="divide.tnum" horiz-adv-x="1384" 
d="M860 983h-336v324h336v-324zM1241 553h-1098v303h1098v-303zM860 102h-336v324h336v-324z" />
    <glyph glyph-name="equal.tnum" horiz-adv-x="1384" 
d="M1241 758h-1098v303h1098v-303zM1241 291h-1098v303h1098v-303z" />
    <glyph glyph-name="caroncomb.alt" 
d="M389 1180h-283v540h320z" />
    <glyph glyph-name="dieresiscomb.case" 
d="M197 1618q-98 0 -147.5 49.5t-49.5 134.5t49.5 135t147.5 50t147 -50t49 -135t-49 -134.5t-147 -49.5zM664 1618q-98 0 -147.5 49.5t-49.5 134.5t49.5 135t147.5 50t147 -50t49 -135t-49 -134.5t-147 -49.5z" />
    <glyph glyph-name="dotaccentcomb.case" 
d="M197 1618q-98 0 -147.5 49.5t-49.5 134.5t49.5 135t147.5 50t147 -50t49 -135t-49 -134.5t-147 -49.5z" />
    <glyph glyph-name="gravecomb.case" 
d="M608 1606h-360l-248 376h397z" />
    <glyph glyph-name="acutecomb.case" 
d="M356 1606h-356l254 376h393z" />
    <glyph glyph-name="hungarumlautcomb.case" 
d="M655 1606h-278l186 376h295zM279 1606h-279l186 376h295z" />
    <glyph glyph-name="circumflexcomb.case" 
d="M332 1606h-332l266 376h439l270 -376h-340l-135 200h-37z" />
    <glyph glyph-name="caroncomb.case" 
d="M709 1606h-439l-270 376h340l135 -200h37l131 200h332z" />
    <glyph glyph-name="brevecomb.case" 
d="M412 1581q-194 0 -300 106t-112 295h266q6 -151 146 -151q143 0 149 151h258q-6 -189 -110 -295t-297 -106z" />
    <glyph glyph-name="ringcomb.case" 
d="M274 1556q-123 0 -198.5 64t-75.5 170q0 105 75.5 169t198.5 64t199 -64t76 -169t-76 -169.5t-199 -64.5zM274 1718q36 0 57 20t21 52t-21 52t-57 20t-56.5 -20t-20.5 -52t20.5 -52t56.5 -20z" />
    <glyph glyph-name="tildecomb.case" 
d="M621 1591q-61 0 -114.5 18t-86 39.5t-78 39.5t-92.5 18q-124 0 -197 -84l-53 254q89 104 250 104q61 0 114.5 -18t86 -39t78 -39t92.5 -18q125 0 198 84l53 -254q-90 -105 -251 -105z" />
    <glyph glyph-name="macroncomb.case" 
d="M840 1642h-840v259h840v-259z" />
    <glyph glyph-name="commaturnedabovecomb.case" 
d="M215 1548q-101 0 -158 66t-57 182v12q0 137 87 207t230 70h56v-180h-60q-59 0 -89.5 -22.5t-30.5 -59.5q27 18 69 18q60 0 96.5 -37t36.5 -102q0 -77 -51 -115.5t-129 -38.5z" />
    <glyph glyph-name="commaaccentcomb.case" 
d="M82 -643h-64v180h68q64 0 90.5 25t26.5 71q-29 -16 -68 -16q-60 0 -97.5 37t-37.5 102q0 78 51.5 116t130.5 38q101 0 157 -66t56 -182v-12q0 -143 -83.5 -218t-229.5 -75z" />
    <glyph glyph-name="cedillacomb.case" 
d="M184 -586q-113 0 -184 27v233q76 -26 166 -26q117 0 117 51q0 39 -84 39h-119v291h237v-123q211 -40 211 -217q0 -120 -91 -197.5t-253 -77.5z" />
    <glyph glyph-name="ogonekcomb.case" 
d="M397 -528q-138 0 -226.5 80t-88.5 208q0 101 45 184.5t141 168.5l62 55l164 -168l-62 -59q-72 -68 -72 -125q0 -36 24.5 -57t64.5 -21q52 0 88 18v-270q-51 -14 -140 -14z" />
    <glyph glyph-name="sora.tnum" horiz-adv-x="1384" 
d="M692 580l-274 -580h-398l478 891h-475v217h489v170h-489v217h1339v-217h-490v-170h490v-217h-475l475 -891h-399z" />
    </font>
</defs>
</svg>
