<?xml version="1.0" standalone="no"?>
<!DOCTYPE svg PUBLIC "-//W3C//DTD SVG 1.1//EN" "http://www.w3.org/Graphics/SVG/1.1/DTD/svg11.dtd" >
<svg xmlns="http://www.w3.org/2000/svg" xmlns:xlink="http://www.w3.org/1999/xlink" version="1.1">
<metadata>
Created by FontForge 20201107 at Mon Sep 30 11:26:20 2024
 By 
Copyright 2019 The Sora Project Authors (https://github.com/sora-xor/sora-font)
</metadata>
<defs>
<font id="Sora-ExtraLightItalic" horiz-adv-x="614" >
  <font-face 
    font-family="Sora ExtraLight"
    font-weight="200"
    font-style="italic"
    font-stretch="normal"
    units-per-em="2048"
    panose-1="0 0 0 0 0 0 0 0 0 0"
    ascent="1638"
    descent="-410"
    x-height="1075"
    cap-height="1495"
    bbox="-332 -545 2611.65 2378"
    underline-thickness="102"
    underline-position="-255"
    slope="-6"
    unicode-range="U+000D-FB04"
  />
<missing-glyph horiz-adv-x="1665" 
d="M1346 -35h-1283l250 1573h1282zM373 1473l-230 -1442h1145l228 1442h-1143zM786 467h-75l39 248h65q105 0 174.5 64t87.5 167q15 104 -34 169t-148 65q-100 0 -173.5 -69t-92.5 -179h-82q24 142 123 233.5t239 91.5q135 0 205 -87.5t49 -213.5l-2 -14
q-20 -121 -111.5 -205.5t-234.5 -93.5zM758 205h-103l19 112h102z" />
    <glyph glyph-name="f_f" unicode="ff" horiz-adv-x="1445" 
d="M229 0h-106l156 981h-166l14 86h166l20 131q23 150 121 230.5t254 80.5h123l-14 -94h-148q-94 0 -153 -49t-72 -141l-25 -158h578l18 119q23 150 121 230.5t254 80.5h141l-14 -94h-166q-94 0 -153 -49.5t-72 -141.5l-23 -145h383l-14 -86h-383l-156 -981h-106l156 981
h-578z" />
    <glyph glyph-name="fi" unicode="fi" horiz-adv-x="1318" 
d="M229 0h-106l156 985h-166l14 86h164l20 127q25 150 122.5 230.5t252.5 80.5h127l-14 -94h-152q-93 0 -151.5 -49t-71.5 -141l-25 -154h355l-15 -86h-354zM1094 1300q-39 0 -60.5 24t-15.5 62q8 41 34.5 64t69.5 23q38 0 60 -25t16 -62q-16 -86 -104 -86zM987 0h-108
l155 981h-178l16 94h285l-14 -94z" />
    <glyph glyph-name="fl" unicode="fl" horiz-adv-x="1292" 
d="M229 0h-106l153 981h-163l14 86h164l18 117q25 150 123 230.5t254 80.5h121l-16 -96h-146q-93 0 -151.5 -48.5t-71.5 -140.5l-23 -143h351l-15 -86h-350zM963 0h-109l223 1403h-153l14 92h262l-14 -92z" />
    <glyph glyph-name="f_f_i" unicode="ffi" horiz-adv-x="2002" 
d="M229 0h-106l156 987h-166l14 88h166l20 127q23 150 120.5 230.5t252.5 80.5h123l-14 -94h-148q-93 0 -151.5 -49t-71.5 -141l-25 -154h578l18 115q23 150 121 230.5t254 80.5h125l-14 -94h-150q-94 0 -153 -49t-72 -141l-23 -142h355l-15 -88h-354l-156 -987h-106
l156 987h-578zM1778 1300q-39 0 -60 24t-14 62q6 41 32.5 64t69.5 23q38 0 60 -25t16 -62q-16 -86 -104 -86zM1671 0h-108l155 981h-178l16 94h285l-14 -94z" />
    <glyph glyph-name="f_f_l" unicode="ffl" horiz-adv-x="1978" 
d="M229 0h-106l156 981h-166l14 86h166l20 131q23 150 121 230.5t254 80.5h123l-14 -94h-148q-94 0 -153 -49t-72 -141l-25 -158h578l18 117q23 150 121 230.5t254 80.5h119l-14 -96h-144q-94 0 -153 -48.5t-72 -140.5l-23 -143h351l-15 -86h-350l-156 -981h-106l156 981
h-578zM1649 0h-111l223 1403h-153l14 92h262l-14 -92z" />
    <glyph glyph-name="f_f_j" unicode="ffj" horiz-adv-x="2017" 
d="M229 0h-106l156 987h-164l12 88h166l20 127q23 150 121 230.5t254 80.5h123l-14 -94h-148q-94 0 -153 -49t-72 -141l-25 -154h578l18 115q23 150 121 230.5t254 80.5h131l-14 -94h-156q-93 0 -151.5 -49t-73.5 -141l-23 -142h371l-14 -88h-371l-156 -987h-106l156 987
h-578zM1798 1319q-39 0 -60.5 24.5t-15.5 61.5q6 41 33 63.5t70 22.5q38 0 60 -24.5t16 -61.5q-6 -41 -33 -63.5t-70 -22.5zM1323 -412h-109l17 99h133q84 0 134.5 51t64.5 143l174 1100h-181l17 94h285l-15 -94l-170 -1071q-24 -152 -113.5 -237t-236.5 -85z" />
    <glyph glyph-name="f_j" unicode="fj" horiz-adv-x="1333" 
d="M229 0h-106l158 987h-166l12 88h166l20 123q23 150 120.5 230.5t252.5 80.5h113l-15 -94h-137q-93 0 -151.5 -49t-71.5 -141l-25 -150h351l-13 -88h-350zM1112 1319q-38 0 -60 24.5t-16 61.5q6 41 33 63.5t70 22.5q39 0 61 -24.5t17 -61.5q-16 -86 -105 -86zM639 -412
h-109l15 99h135q84 0 134 51t65 143l174 1100h-181l15 94h287l-185 -1165q-25 -152 -114.5 -237t-235.5 -85z" />
    <glyph glyph-name=".notdef" horiz-adv-x="1665" 
d="M1346 -35h-1283l250 1573h1282zM373 1473l-230 -1442h1145l228 1442h-1143zM786 467h-75l39 248h65q105 0 174.5 64t87.5 167q15 104 -34 169t-148 65q-100 0 -173.5 -69t-92.5 -179h-82q24 142 123 233.5t239 91.5q135 0 205 -87.5t49 -213.5l-2 -14
q-20 -121 -111.5 -205.5t-234.5 -93.5zM758 205h-103l19 112h102z" />
    <glyph glyph-name=".null" horiz-adv-x="0" 
 />
    <glyph glyph-name="nonmarkingreturn" horiz-adv-x="682" 
 />
    <glyph glyph-name="NULL" horiz-adv-x="1228" 
 />
    <glyph glyph-name="NULL" horiz-adv-x="1228" 
 />
    <glyph glyph-name="CR" unicode="&#xd;" horiz-adv-x="1228" 
 />
    <glyph glyph-name="space" unicode=" " horiz-adv-x="489" 
 />
    <glyph glyph-name="exclam" unicode="!" horiz-adv-x="550" 
d="M272 381h-110l178 1114h111zM229 0h-145l27 158h145z" />
    <glyph glyph-name="quotedbl" unicode="&#x22;" horiz-adv-x="806" 
d="M350 975h-96l82 520h96zM627 975h-99l84 520h97z" />
    <glyph glyph-name="numbersign" unicode="#" horiz-adv-x="1370" 
d="M262 0h-98l141 453h-272l14 86h287l129 417h-281l15 86h295l141 453h100l-143 -453h377l141 453h100l-143 -453h272l-12 -86h-287l-131 -417h281l-14 -86h-293l-144 -453h-98l141 453h-374zM432 539h377l129 417h-375z" />
    <glyph glyph-name="dollar" unicode="$" horiz-adv-x="1345" 
d="M549 -264h-100l43 268q-213 14 -331.5 137t-88.5 316h104q-26 -162 83.5 -259.5t299.5 -97.5q420 0 467 306q21 132 -66.5 213.5t-244.5 95.5l-135 12q-174 18 -269 118.5t-69 256.5q29 184 154.5 282t324.5 107l31 203h98l-31 -203q186 -15 287 -134t72 -300h-105
q24 150 -66.5 244t-252.5 94q-168 0 -275 -72.5t-131 -220.5q-20 -117 53.5 -190t206.5 -85l133 -12q200 -19 310 -127.5t82 -281.5q-31 -198 -173 -296t-368 -108z" />
    <glyph glyph-name="percent" unicode="%" horiz-adv-x="1683" 
d="M399 709q-143 0 -209.5 108.5t-39.5 274.5l4 34q29 179 121.5 281t250.5 102q144 0 211.5 -108.5t40.5 -274.5l-6 -34q-28 -178 -120.5 -280.5t-252.5 -102.5zM473 0h-90l827 1495h93zM414 788q225 0 276 320q21 140 -23 231t-153 91q-225 0 -276 -320
q-23 -139 22 -230.5t154 -91.5zM1153 -14q-143 0 -210 108.5t-40 274.5l4 34q29 179 122 281t251 102q144 0 211.5 -108.5t40.5 -274.5l-6 -34q-28 -178 -120.5 -280.5t-252.5 -102.5zM1167 66q226 0 277 319q21 140 -23 231t-153 91q-226 0 -277 -322q-12 -90 -1 -161
t57 -114.5t120 -43.5z" />
    <glyph glyph-name="ampersand" unicode="&#x26;" horiz-adv-x="1353" 
d="M444 -35q-210 0 -329.5 118.5t-89.5 309.5l4 23q24 149 102.5 247.5t218.5 174.5q-80 144 -57 295q30 187 165 279.5t347 92.5q147 0 311 -20l-14 -99q-184 21 -332 21q-153 0 -250.5 -69.5t-120.5 -207.5q-17 -106 18 -189.5t120 -190.5l358 -455q116 174 176 532h-270
l14 91h502l-14 -91h-132q-64 -400 -217 -608l172 -219h-131l-108 139q-171 -174 -443 -174zM133 403q-24 -152 69.5 -246t258.5 -94q223 0 368 148l-372 473q-9 12 -28.5 37.5t-29.5 38.5q-117 -60 -181.5 -144.5t-84.5 -212.5z" />
    <glyph glyph-name="quotesingle" unicode="'" horiz-adv-x="530" 
d="M350 975h-96l82 520h96z" />
    <glyph glyph-name="parenleft" unicode="(" horiz-adv-x="743" 
d="M506 -373h-123q-169 229 -218.5 460t-4.5 527q49 308 172.5 531t359.5 444h123q-243 -233 -371.5 -453t-175.5 -522q-45 -287 11 -517.5t227 -469.5z" />
    <glyph glyph-name="parenright" unicode=")" horiz-adv-x="743" 
d="M-133 -373q248 240 377.5 470.5t173.5 516.5q20 125 21.5 235t-14 204.5t-50.5 186.5t-82.5 174.5t-114.5 174.5h125q166 -221 219 -444t4 -531q-49 -297 -171 -527.5t-365 -459.5h-123z" />
    <glyph glyph-name="asterisk" unicode="*" horiz-adv-x="1157" 
d="M635 1614h108l-79 -385l-164 -86l-316 176l70 94l252 -176l88 47zM1079 887l-69 -94l-291 208l26 173l359 208l37 -94l-316 -153l-14 -95zM154 762l-39 94l370 176l136 -86l-43 -385h-109l66 330l-74 47z" />
    <glyph glyph-name="plus" unicode="+" horiz-adv-x="1200" 
d="M594 236h-100l67 426h-387l14 90h387l68 424h100l-67 -424h387l-14 -90h-387z" />
    <glyph glyph-name="comma" unicode="," horiz-adv-x="520" 
d="M360 150l-243 -457l-84 35l239 456z" />
    <glyph glyph-name="hyphen" unicode="-" horiz-adv-x="1021" 
d="M883 522h-676l16 94h674z" />
    <glyph glyph-name="period" unicode="." horiz-adv-x="520" 
d="M319 0h-143l25 158h143z" />
    <glyph glyph-name="slash" unicode="/" horiz-adv-x="620" 
d="M6 -123h-102l690 1720h102z" />
    <glyph glyph-name="zero" unicode="0" horiz-adv-x="1486" 
d="M616 -35q-178 0 -294 100t-154.5 266t-5.5 374l14 83q21 133 57.5 244.5t94.5 205.5t134 159t178.5 101t225.5 36q178 0 293.5 -101t154 -268t5.5 -377l-12 -83q-27 -167 -79.5 -298.5t-135.5 -232.5t-203.5 -155t-272.5 -54zM633 68q105 0 191 34.5t147 93.5t107.5 147
t75.5 186t48 219q16 113 16.5 215t-23.5 188t-67 148.5t-114 97.5t-164 35q-106 0 -192.5 -34.5t-147.5 -94t-107.5 -148t-74.5 -187.5t-47 -220q-16 -113 -16.5 -214t23.5 -186.5t67 -147.5t114 -97t164 -35z" />
    <glyph glyph-name="one" unicode="1" horiz-adv-x="843" 
d="M442 0h-110l221 1399h-348l16 96h457z" />
    <glyph glyph-name="two" unicode="2" horiz-adv-x="1249" 
d="M1012 0h-957l35 211q20 129 99.5 208t222.5 142l329 144q134 59 208 143.5t95 216.5q26 162 -59 266.5t-244 104.5q-176 0 -285 -97.5t-137 -273.5h-108q35 224 177 346.5t368 122.5q204 0 315.5 -128t79.5 -329l-4 -24q-17 -109 -69 -192.5t-127 -138.5t-187 -104
l-332 -145q-104 -46 -160.5 -102.5t-70.5 -149.5l-21 -125h848z" />
    <glyph glyph-name="three" unicode="3" horiz-adv-x="1239" 
d="M479 -35q-216 0 -335 132.5t-87 338.5h109q-26 -163 67 -268t261 -105q186 0 302 94t144 273q26 164 -65.5 269.5t-260.5 105.5q-118 0 -213 -57l-49 114l703 508l-11 29h-776l15 96h880l-26 -170l-600 -438q41 8 98 8q212 0 330 -126.5t86 -326.5l-4 -24
q-35 -221 -184.5 -337t-383.5 -116z" />
    <glyph glyph-name="four" unicode="4" horiz-adv-x="1271" 
d="M879 0h-105l62 391h-783l23 144l805 981l67 -62l-778 -946l12 -27h668l90 566h104l-90 -566h209l-14 -90h-209z" />
    <glyph glyph-name="five" unicode="5" horiz-adv-x="1249" 
d="M512 -35q-220 0 -341 136t-87 348h109q-28 -168 66.5 -277t266.5 -109q189 0 308.5 100t150.5 286q26 170 -68.5 279.5t-267.5 109.5q-99 0 -176 -28t-154 -91h-102l201 776h704l-16 -96h-617l-145 -568q71 54 148 77.5t176 23.5q143 0 248 -59t152.5 -166.5t25.5 -243.5
l-4 -27q-36 -228 -187.5 -349.5t-390.5 -121.5z" />
    <glyph glyph-name="six" unicode="6" horiz-adv-x="1329" 
d="M575 -35q-100 0 -180.5 35.5t-132 99t-83.5 151t-35.5 191.5t12.5 220l10 73q59 361 258 565.5t530 204.5q105 0 234 -18l-17 -96q-141 16 -239 16q-144 0 -260 -49t-197.5 -139.5t-134 -213t-76.5 -276.5l-8 -53q70 139 195 213t297 74q216 0 332 -139t81 -355
q-38 -242 -190 -373t-396 -131zM590 63q194 0 314 106.5t151 299.5q28 173 -65.5 285t-266.5 112q-197 0 -319.5 -104t-153.5 -297q-28 -175 67.5 -288.5t272.5 -113.5z" />
    <glyph glyph-name="seven" unicode="7" horiz-adv-x="1140" 
d="M319 0h-112l846 1376l-11 23h-723l-43 -266h-96l58 362h933l-22 -143z" />
    <glyph glyph-name="eight" unicode="8" horiz-adv-x="1273" 
d="M510 -35q-147 0 -257 53.5t-162.5 155t-31.5 232.5q49 317 365 385l4 20q-115 41 -166.5 127.5t-32.5 206.5q31 195 170.5 291t358.5 96q201 0 316.5 -105.5t88.5 -281.5q-21 -131 -96 -211.5t-207 -122.5l-4 -20q139 -34 203 -136t41 -249t-104 -247.5t-203.5 -147
t-282.5 -46.5zM649 846q168 0 275 73.5t131 223.5q21 132 -68.5 212.5t-245.5 80.5q-167 0 -274 -73t-131 -220q-21 -135 68 -216t245 -81zM524 63q194 0 317.5 86t151.5 259q24 157 -78 252.5t-280 95.5q-194 0 -317 -86.5t-150 -261.5q-26 -155 76.5 -250t279.5 -95z" />
    <glyph glyph-name="nine" unicode="9" horiz-adv-x="1329" 
d="M748 1530q100 0 180.5 -35.5t132.5 -98.5t83.5 -150.5t35 -191.5t-12.5 -220l-10 -74q-59 -361 -258 -565.5t-530 -204.5q-105 0 -234 18l17 96q141 -16 239 -16q144 0 260 49t197.5 139.5t134 213t76.5 276.5l8 53q-70 -139 -195 -213t-297 -74q-216 0 -332 139t-81 355
q38 242 190 373t396 131zM733 1432q-194 0 -314 -106.5t-151 -299.5q-28 -173 65.5 -285t266.5 -112q197 0 319.5 104t153.5 297q28 175 -67.5 288.5t-272.5 113.5z" />
    <glyph glyph-name="colon" unicode=":" horiz-adv-x="645" 
d="M444 784h-143l25 158h143zM319 0h-143l25 158h143z" />
    <glyph glyph-name="semicolon" unicode=";" horiz-adv-x="520" 
d="M455 784h-146l25 158h145zM369 150l-244 -457l-84 35l240 456z" />
    <glyph glyph-name="less" unicode="&#x3c;" horiz-adv-x="1193" 
d="M176 592l12 74h-2l15 92l911 309l-16 -98l-828 -277l-6 -37l742 -276l-17 -94zM215 672l2 4l-6 -2z" />
    <glyph glyph-name="equal" unicode="=" horiz-adv-x="1200" 
d="M1094 805h-875l14 90h875zM1040 469h-874l14 90h875z" />
    <glyph glyph-name="greater" unicode="&#x3e;" horiz-adv-x="1193" 
d="M1038 592l-911 -307l16 96l828 278l6 35l-741 279l16 94l811 -309l-12 -72h2zM1024 676z" />
    <glyph glyph-name="question" unicode="?" horiz-adv-x="1114" 
d="M489 381h-108l59 379h97q164 0 266.5 87.5t128.5 250.5q23 147 -55 242.5t-224 95.5q-170 0 -274 -96t-131 -269h-105q34 221 170 342t355 121q192 0 296.5 -120t73.5 -306l-2 -23q-30 -198 -162 -305.5t-339 -115.5zM449 0h-146l25 158h143z" />
    <glyph glyph-name="at" unicode="@" horiz-adv-x="2289" 
d="M956 -487q-288 0 -494 129t-295.5 358t-43.5 518q77 485 378.5 750.5t784.5 265.5q208 0 378.5 -66.5t281.5 -184.5t158.5 -287.5t15.5 -368.5q-17 -106 -41.5 -191.5t-64 -163.5t-92 -130t-126.5 -82.5t-166 -30.5q-108 0 -170 68.5t-65 183.5q-127 -242 -410 -242
q-191 0 -290 133t-66 336l4 24q34 215 164 335t340 120q124 0 210.5 -60t120.5 -165l33 205h88l-96 -615q-15 -100 24.5 -164.5t124.5 -64.5q74 0 132.5 27t97 70t68 110.5t46.5 136t31 158.5q28 178 -14 329.5t-140.5 257.5t-250.5 166t-338 60q-437 0 -708.5 -241.5
t-340.5 -680.5q-31 -194 8.5 -362.5t137 -288t252.5 -188t348 -68.5q117 0 229 24l-16 -98q-113 -22 -228 -22zM1012 133q169 0 272 98t131 275l6 35q25 154 -56.5 253t-234.5 99q-166 0 -267 -99t-128 -274q-27 -167 48.5 -277t228.5 -110z" />
    <glyph glyph-name="A" unicode="A" horiz-adv-x="1517" 
d="M68 0h-111l801 1495h221l344 -1495h-115l-116 504h-756zM389 604h680l-182 791h-76z" />
    <glyph glyph-name="B" unicode="B" horiz-adv-x="1368" 
d="M647 -6h-514l238 1507h456q190 0 296 -107t79 -278l-2 -20q-42 -251 -270 -332q121 -37 182 -130.5t41 -221.5l-4 -21q-30 -195 -162 -296t-340 -101zM831 1401h-366l-92 -594h364q147 0 238.5 76.5t114.5 220.5q20 130 -52.5 213.5t-206.5 83.5zM778 709h-422l-96 -615
h420q149 0 242 79.5t116 227.5q22 135 -51.5 221.5t-208.5 86.5z" />
    <glyph glyph-name="C" unicode="C" horiz-adv-x="1624" 
d="M748 -35q-215 0 -368.5 99.5t-219.5 275t-31 395.5l6 31q58 363 275.5 565.5t570.5 202.5q261 0 415.5 -143.5t145.5 -389.5h-112q7 201 -121 316t-344 115q-302 0 -486 -180.5t-235 -501.5q-31 -193 22 -348.5t183 -244.5t315 -89q477 0 616 430h111
q-83 -267 -270.5 -400t-472.5 -133z" />
    <glyph glyph-name="D" unicode="D" horiz-adv-x="1642" 
d="M633 -6h-500l238 1507h501q221 0 383 -92.5t235.5 -261t39.5 -381.5l-6 -33q-57 -357 -289.5 -548t-601.5 -191zM868 1399h-403l-205 -1303h402q313 0 508 170.5t245 483.5q29 186 -30 334.5t-194 231.5t-323 83z" />
    <glyph glyph-name="E" unicode="E" horiz-adv-x="1239" 
d="M977 0h-846l238 1495h821l-16 -100h-711l-92 -584h661l-16 -102h-662l-96 -609h735z" />
    <glyph glyph-name="F" unicode="F" horiz-adv-x="1146" 
d="M242 0h-111l238 1495h69l725 2l-16 -102h-684l-92 -580l643 2l-17 -100l-643 -4z" />
    <glyph glyph-name="G" unicode="G" horiz-adv-x="1701" 
d="M762 -35q-219 0 -375.5 99.5t-224.5 275.5t-33 397l6 33q58 362 274.5 563t567.5 201q261 0 414 -143.5t143 -389.5h-113q7 200 -119.5 315.5t-340.5 115.5q-301 0 -483.5 -179t-233.5 -499q-31 -195 24 -351t188.5 -245.5t321.5 -89.5q166 0 288 42t222 142l53 332h-536
l14 94h783l-15 -94h-139l-57 -365q-130 -139 -278 -196.5t-351 -57.5z" />
    <glyph glyph-name="H" unicode="H" horiz-adv-x="1654" 
d="M242 0h-111l238 1495h110l-112 -704h933l113 704h111l-238 -1495h-110l108 688h-934z" />
    <glyph glyph-name="I" unicode="I" horiz-adv-x="618" 
d="M246 0h-111l238 1495h110z" />
    <glyph glyph-name="J" unicode="J" horiz-adv-x="1302" 
d="M459 -35q-217 0 -333 142.5t-81 363.5l8 55h111l-10 -73q-28 -167 63 -276t258 -109q185 0 300.5 100.5t146.5 284.5l147 942h-678l17 100h788l-10 -63l-154 -961q-37 -241 -185 -373.5t-388 -132.5z" />
    <glyph glyph-name="K" unicode="K" horiz-adv-x="1304" 
d="M242 0h-111l238 1495h110l-119 -745l797 745h129l-733 -686l657 -809h-143l-580 713h-133z" />
    <glyph glyph-name="L" unicode="L" horiz-adv-x="1095" 
d="M924 0h-793l238 1495h110l-221 -1395h682z" />
    <glyph glyph-name="M" unicode="M" horiz-adv-x="1820" 
d="M233 0h-102l238 1495h137l330 -1071h41l669 1071h144l-236 -1495h-111l211 1339l-636 -1017h-160l-314 1009z" />
    <glyph glyph-name="N" unicode="N" horiz-adv-x="1701" 
d="M238 0h-107l238 1495h192l656 -1395h24l221 1395h109l-238 -1495h-194l-656 1395h-24z" />
    <glyph glyph-name="O" unicode="O" horiz-adv-x="1781" 
d="M766 -35q-220 0 -377.5 99t-226 274.5t-33.5 396.5l4 33q59 365 287.5 565.5t593.5 200.5q218 0 375.5 -98.5t226.5 -273.5t33 -394l-7 -33q-57 -367 -284 -568.5t-592 -201.5zM782 68q314 0 507 179t245 503q30 194 -26 349.5t-189.5 244t-321.5 88.5q-315 0 -508 -179
t-245 -503q-23 -145 4.5 -271t97 -216.5t182 -142.5t254.5 -52z" />
    <glyph glyph-name="P" unicode="P" horiz-adv-x="1269" 
d="M242 0h-111l238 1501h417q218 0 341.5 -126t91.5 -326l-5 -25q-35 -222 -186 -337.5t-389 -115.5h-307zM786 1401h-323l-115 -729h322q181 0 293.5 94t140.5 270q26 159 -64.5 262t-253.5 103z" />
    <glyph glyph-name="Q" unicode="Q" horiz-adv-x="1781" 
d="M1214 -422h-239q-156 0 -224 75t-42 236l12 78q-207 10 -354 111t-209.5 272.5t-28.5 384.5l4 33q59 365 287.5 565.5t593.5 200.5q218 0 375.5 -98.5t226.5 -273.5t33 -394l-7 -33q-56 -353 -267 -553t-552 -215l-14 -94q-14 -95 28.5 -145t137.5 -50h256zM782 68
q314 0 507 179t245 503q30 194 -26 349.5t-189.5 244t-321.5 88.5q-315 0 -508 -179t-245 -503q-23 -145 4.5 -271t97 -216.5t182 -142.5t254.5 -52z" />
    <glyph glyph-name="R" unicode="R" horiz-adv-x="1382" 
d="M242 0h-111l238 1501h446q212 0 331 -123t89 -319l-4 -25q-29 -183 -139 -292.5t-285 -139.5l393 -602h-135l-383 592h-346zM815 1401h-352l-113 -709h352q172 0 281 92.5t137 262.5q25 155 -61 254.5t-244 99.5z" />
    <glyph glyph-name="S" unicode="S" horiz-adv-x="1441" 
d="M594 -35q-161 0 -282 55.5t-179.5 162.5t-34.5 247h111q-27 -166 88 -264t313 -98q451 0 504 333q22 132 -66.5 213t-248.5 97l-176 14q-177 15 -273 120.5t-69 266.5q33 209 180 315.5t379 106.5q218 0 342 -125.5t92 -325.5h-111q24 155 -72.5 252t-267.5 97
q-178 0 -292.5 -80.5t-139.5 -239.5q-20 -120 53 -196.5t207 -88.5l174 -14q204 -19 316 -128t84 -284q-18 -114 -72 -199t-138 -136t-189 -76t-232 -25z" />
    <glyph glyph-name="T" unicode="T" horiz-adv-x="1191" 
d="M532 0h-110l221 1395h-479l16 100h1069l-16 -100h-479z" />
    <glyph glyph-name="U" unicode="U" horiz-adv-x="1560" 
d="M616 -35q-173 0 -297.5 78.5t-177.5 217t-26 312.5l145 922h111l-148 -936q-34 -214 81.5 -352.5t328.5 -138.5q235 0 382.5 128.5t182.5 362.5l150 936h110l-147 -922q-46 -290 -226 -449t-469 -159z" />
    <glyph glyph-name="V" unicode="V" horiz-adv-x="1411" 
d="M705 0h-220l-313 1495h113l288 -1395h74l701 1395h112z" />
    <glyph glyph-name="W" unicode="W" horiz-adv-x="2093" 
d="M608 0h-229l-184 1495h112l166 -1395h74l530 1327h156l139 -1327h76l577 1395h111l-627 -1495h-231l-141 1315z" />
    <glyph glyph-name="X" unicode="X" horiz-adv-x="1378" 
d="M47 0l-121 2l686 776l-391 717h123l350 -647h25l563 647h123l-637 -729l428 -766h-123l-389 696h-25z" />
    <glyph glyph-name="Y" unicode="Y" horiz-adv-x="1325" 
d="M606 0h-108l94 588h-78l-340 907h115l303 -815h137l543 815h110l-606 -907h-76z" />
    <glyph glyph-name="Z" unicode="Z" horiz-adv-x="1349" 
d="M1120 0h-1081l22 154l1137 1216l-6 29h-920l17 96h1036l-25 -154l-1136 -1216l10 -29h963z" />
    <glyph glyph-name="bracketleft" unicode="[" horiz-adv-x="743" 
d="M426 -373h-350l309 1962h350l-14 -90h-244l-280 -1782h243z" />
    <glyph glyph-name="backslash" unicode="\" horiz-adv-x="620" 
d="M438 -123h-102l-174 1720h102z" />
    <glyph glyph-name="bracketright" unicode="]" horiz-adv-x="743" 
d="M-53 -373l14 90h244l282 1782h-243l16 90h348l-311 -1962h-350z" />
    <glyph glyph-name="asciicircum" unicode="^" horiz-adv-x="1122" 
d="M268 674h-94l461 807h147l203 -807h-94l-174 725h-41z" />
    <glyph glyph-name="underscore" unicode="_" horiz-adv-x="1155" 
d="M1130 -227h-1155l15 88h1155z" />
    <glyph glyph-name="grave" unicode="`" 
d="M375 1253h-101l-145 387h119z" />
    <glyph glyph-name="a" unicode="a" horiz-adv-x="1163" 
d="M401 -29q-164 0 -256.5 94t-66.5 244q25 166 146.5 248t310.5 82h329l13 78q19 119 -51.5 194.5t-196.5 75.5q-168 0 -318 -18l15 98q131 18 274 18q190 0 298.5 -106.5t82.5 -278.5l-113 -700h-88l37 217q-117 -246 -416 -246zM434 61q154 0 253 80t134 230l29 180h-340
q-134 0 -220 -60.5t-106 -181.5q-18 -112 53 -180t197 -68z" />
    <glyph glyph-name="b" unicode="b" horiz-adv-x="1390" 
d="M655 -35q-158 0 -264 80.5t-139 218.5l-43 -264h-86l235 1495h109l-100 -639q149 252 475 252q152 0 258.5 -73t150 -200t19.5 -286l-4 -21q-42 -266 -199 -414.5t-412 -148.5zM659 63q210 0 337 126t163 350q31 204 -65 337.5t-285 133.5q-204 0 -331.5 -110
t-158.5 -312l-16 -105q-29 -185 70.5 -302.5t285.5 -117.5z" />
    <glyph glyph-name="c" unicode="c" horiz-adv-x="1232" 
d="M559 -35q-156 0 -266.5 73.5t-156 202t-19.5 289.5l4 21q40 264 199 410.5t417 146.5q192 0 307.5 -102t112.5 -281h-106q-1 134 -91 209.5t-237 75.5q-208 0 -334.5 -124.5t-161.5 -344.5q-33 -206 62.5 -340.5t285.5 -134.5q353 0 431 292h106q-53 -197 -195 -295
t-358 -98z" />
    <glyph glyph-name="d" unicode="d" horiz-adv-x="1390" 
d="M551 -35q-232 0 -352.5 158.5t-81.5 402.5l4 21q40 265 196 413t412 148q147 0 248.5 -71t140.5 -193l103 651h110l-237 -1495h-88l38 242q-73 -134 -197.5 -205.5t-295.5 -71.5zM578 63q203 0 330 111t159 313l16 107q29 183 -71.5 299.5t-286.5 116.5q-209 0 -336 -125
t-162 -348q-33 -204 64.5 -339t286.5 -135z" />
    <glyph glyph-name="e" unicode="e" horiz-adv-x="1241" 
d="M557 -35q-155 0 -264.5 73.5t-155 202t-20.5 289.5l4 21q40 263 195.5 410t408.5 147q221 0 339 -143t83 -365l-12 -74h-914q-30 -201 67 -332t285 -131q313 0 406 244h104q-126 -342 -526 -342zM711 1010q-187 0 -306.5 -103.5t-166.5 -290.5h804q15 173 -75 283.5
t-256 110.5z" />
    <glyph glyph-name="f" unicode="f" horiz-adv-x="761" 
d="M229 0h-106l156 981h-166l14 86h166l18 119q23 151 120.5 231t254.5 80h141l-16 -94h-164q-94 0 -153 -49.5t-72 -141.5l-23 -145h383l-14 -86h-383z" />
    <glyph glyph-name="g" unicode="g" horiz-adv-x="1353" 
d="M465 -420q-144 0 -295 25l16 96q167 -27 303 -27q209 0 339.5 113t162.5 319l19 115q-149 -246 -469 -246q-151 0 -257 73.5t-149 200.5t-18 286l2 20q42 262 196.5 407.5t407.5 145.5q156 0 260.5 -78.5t138.5 -212.5l41 258h88l-153 -969q-41 -255 -205.5 -390.5
t-427.5 -135.5zM571 76q202 0 327.5 110t156.5 310l18 104q28 182 -70.5 298t-281.5 116q-208 0 -333.5 -124t-160.5 -345q-21 -133 13 -239.5t120.5 -168t210.5 -61.5z" />
    <glyph glyph-name="h" unicode="h" horiz-adv-x="1290" 
d="M231 0h-110l237 1495h111l-98 -623q130 232 401 232h6q182 0 271.5 -133.5t58.5 -335.5l-102 -635h-109l104 659q24 150 -49.5 247.5t-216.5 97.5q-167 0 -270.5 -95t-130.5 -264z" />
    <glyph glyph-name="i" unicode="i" horiz-adv-x="591" 
d="M369 1300q-43 0 -62.5 23.5t-13.5 62.5t32.5 63t69.5 24t62.5 -24.5t13.5 -62.5q-5 -39 -32 -62.5t-70 -23.5zM262 0h-110l155 981h-178l14 94h289l-14 -94z" />
    <glyph glyph-name="j" unicode="j" horiz-adv-x="610" 
d="M389 1319q-40 0 -61 24t-15 62q6 41 33 63.5t70 22.5q39 0 60.5 -24t15.5 -62q-6 -41 -33.5 -63.5t-69.5 -22.5zM-86 -416h-107l15 101h133q84 0 134.5 51t64.5 141l174 1104h-183l15 94h289l-15 -94l-170 -1075q-25 -152 -114.5 -237t-235.5 -85z" />
    <glyph glyph-name="k" unicode="k" horiz-adv-x="1105" 
d="M231 0h-110l237 1495h111l-154 -967l590 547h123l-510 -471l455 -604h-131l-379 506h-152z" />
    <glyph glyph-name="l" unicode="l" horiz-adv-x="536" 
d="M207 0h-109l224 1403h-164l16 92h270l-14 -92z" />
    <glyph glyph-name="m" unicode="m" horiz-adv-x="1957" 
d="M231 0h-108l170 1075h88l-37 -235q117 264 397 264h7q131 0 210.5 -80t94.5 -213q114 293 411 293h4q175 0 257 -133.5t49 -335.5l-101 -635h-108l104 659q24 149 -41 247t-198 98q-157 0 -252.5 -94t-120.5 -261l-105 -649h-108l104 659q24 149 -41 247t-198 98
q-157 0 -252.5 -94t-120.5 -261z" />
    <glyph glyph-name="n" unicode="n" horiz-adv-x="1292" 
d="M231 0h-108l170 1075h88l-39 -244q60 131 167.5 202t260.5 71h6q121 0 205 -62t116 -168.5t11 -238.5l-100 -635h-109l102 659q25 149 -49 247t-215 98q-167 0 -271 -93t-130 -262z" />
    <glyph glyph-name="o" unicode="o" horiz-adv-x="1353" 
d="M584 -35q-244 0 -375.5 158t-93.5 403l4 21q43 268 210.5 414.5t434.5 146.5q246 0 376.5 -157.5t92.5 -403.5l-4 -21q-41 -268 -208.5 -414.5t-436.5 -146.5zM600 66q218 0 352 124t170 347q33 206 -70.5 339.5t-301.5 133.5q-217 0 -352 -124.5t-171 -348.5
q-33 -204 71 -337.5t302 -133.5z" />
    <glyph glyph-name="p" unicode="p" horiz-adv-x="1458" 
d="M231 -410h-108l235 1485h88l-40 -260q70 142 196.5 217.5t302.5 75.5q153 0 260 -73t151 -200.5t19 -287.5l-4 -21q-42 -265 -197.5 -413t-410.5 -148q-146 0 -247.5 70t-141.5 192zM725 63q210 0 337 125.5t163 348.5q31 206 -64 339.5t-284 133.5q-204 0 -332 -109.5
t-160 -312.5l-16 -105q-29 -184 71 -302t285 -118z" />
    <glyph glyph-name="q" unicode="q" horiz-adv-x="1390" 
d="M1028 -410h-110l98 617q-151 -242 -469 -242q-153 0 -260 73.5t-151 202t-19 289.5l2 21q42 264 199 410.5t413 146.5q158 0 264 -80t140 -219l41 266h88zM578 68q203 0 330 110.5t159 313.5l16 104q29 183 -71 300.5t-285 117.5q-210 0 -337.5 -125.5t-162.5 -347.5
q-33 -205 63.5 -339t287.5 -134z" />
    <glyph glyph-name="r" unicode="r" horiz-adv-x="811" 
d="M231 0h-108l170 1075h88l-47 -301q58 149 178 229t295 80h35l-15 -98h-57q-184 0 -299 -100t-143 -283z" />
    <glyph glyph-name="s" unicode="s" horiz-adv-x="1071" 
d="M440 -31q-178 0 -282.5 89t-81.5 239h104q-17 -109 62 -169t215 -60q311 0 348 231q14 88 -47.5 140t-173.5 63l-125 14q-134 15 -207 90.5t-55 192.5q24 156 136 232.5t288 76.5q162 0 255 -83t72 -222h-104q15 96 -53 151.5t-185 55.5q-270 0 -305 -213
q-12 -79 38.5 -127.5t141.5 -59.5l125 -14q154 -16 239.5 -93.5t65.5 -205.5q-28 -168 -152 -248t-319 -80z" />
    <glyph glyph-name="t" unicode="t" horiz-adv-x="854" 
d="M633 -10h-178q-146 0 -226 91t-57 232l107 674h-203l12 88h205l55 350h107l-56 -350h404l-12 -88h-406l-109 -692q-15 -91 33.5 -149t139.5 -58h200z" />
    <glyph glyph-name="u" unicode="u" horiz-adv-x="1243" 
d="M494 -31h-5q-179 0 -266.5 131t-56.5 332l102 643h109l-105 -667q-25 -144 45 -240t207 -96q161 0 260.5 91.5t126.5 256.5l103 655h110l-170 -1075h-88l39 240q-123 -271 -411 -271z" />
    <glyph glyph-name="v" unicode="v" horiz-adv-x="1097" 
d="M584 0h-211l-219 1075h112l199 -983h59l469 983h109z" />
    <glyph glyph-name="w" unicode="w" horiz-adv-x="1648" 
d="M506 0h-199l-149 1075h106l135 -983h47l371 946h164l104 -946h48l409 983h103l-453 -1075h-197l-106 967z" />
    <glyph glyph-name="x" unicode="x" horiz-adv-x="1095" 
d="M102 0h-112l487 553l-289 522h119l242 -440h26l365 440h115l-434 -514l329 -561h-121l-280 479h-25z" />
    <glyph glyph-name="y" unicode="y" horiz-adv-x="1067" 
d="M55 -418h-116l16 101h123q113 0 190 51.5t127 156.5l66 136h-99l-227 1048h113l198 -952h62l459 952h106l-590 -1218q-68 -139 -172.5 -207t-255.5 -68z" />
    <glyph glyph-name="z" unicode="z" horiz-adv-x="985" 
d="M817 0h-776l20 139l779 826l-11 20h-636l14 90h749l-22 -139l-776 -830l8 -16h665z" />
    <glyph glyph-name="braceleft" unicode="{" horiz-adv-x="743" 
d="M449 -373h-35q-156 0 -230.5 90.5t-44.5 272.5l66 409q10 71 -21.5 107.5t-87.5 36.5l23 133q56 0 98 37t53 108l64 406q30 182 131.5 272t257.5 90h35l-15 -90h-34q-111 0 -177.5 -63.5t-89.5 -200.5l-61 -391q-15 -98 -66 -155t-131 -71l-4 -16q156 -32 127 -227
l-63 -393q-21 -137 25.5 -201t158.5 -64h33z" />
    <glyph glyph-name="bar" unicode="|" horiz-adv-x="759" 
d="M246 -412l-99 2l302 1905l100 -2z" />
    <glyph glyph-name="braceright" unicode="}" horiz-adv-x="743" 
d="M-76 -373l17 90h32q112 0 179 64t90 201l61 393q15 98 66 155t131 72l4 16q-76 14 -109 71t-16 155l61 391q21 137 -25.5 200.5t-158.5 63.5h-33l15 90h34q156 0 228.5 -90t44.5 -272l-64 -406q-11 -71 20 -108t87 -37l-21 -133q-56 0 -99 -36.5t-54 -107.5l-64 -409
q-28 -182 -131.5 -272.5t-259.5 -90.5h-35z" />
    <glyph glyph-name="asciitilde" unicode="~" horiz-adv-x="940" 
d="M676 520q-49 0 -90.5 18.5t-70.5 45.5t-56.5 54t-60.5 45.5t-70 18.5q-109 0 -170 -139h-86q34 109 111 171.5t163 62.5q49 0 90.5 -19t70.5 -45.5t56.5 -53.5t60.5 -46t70 -19q111 0 170 140h86q-32 -108 -110 -171t-164 -63z" />
    <glyph glyph-name="nbspace" unicode="&#xa0;" horiz-adv-x="489" 
 />
    <glyph glyph-name="exclamdown" unicode="&#xa1;" horiz-adv-x="550" 
d="M399 1075l-24 -157h-144l23 157h145zM322 694l-177 -1114h-110l176 1114h111z" />
    <glyph glyph-name="cent" unicode="&#xa2;" horiz-adv-x="1259" 
d="M594 0h-100l34 221q-210 17 -320 159.5t-75 356.5l4 31q37 234 183 367t378 145l33 215h98l-34 -215q164 -12 262.5 -100.5t107.5 -243.5h-106q-10 123 -99 186.5t-231 63.5q-202 0 -328 -113.5t-159 -318.5q-30 -191 68 -315t284 -124q330 0 428 267h106
q-112 -342 -499 -361z" />
    <glyph glyph-name="sterling" unicode="&#xa3;" horiz-adv-x="1255" 
d="M1055 0h-1080l15 90h180l92 580h-168l15 82h165l41 258q39 238 185 368.5t381 130.5q150 0 311 -28l-14 -97q-158 27 -320 27q-184 0 -296.5 -106.5t-143.5 -298.5l-41 -254h530l-14 -82h-528l-93 -580h699l37 232h98z" />
    <glyph glyph-name="currency" unicode="&#xa4;" horiz-adv-x="1329" 
d="M612 315q-166 0 -274 97l-209 -179l-55 66l211 180q-67 112 -43 266l4 25q26 165 121 274l-150 173l78 65l145 -170q130 88 314 88q168 0 272 -96l211 178l55 -65l-211 -181q67 -112 43 -266l-4 -25q-26 -165 -121 -274l148 -172l-76 -66l-145 170q-130 -88 -314 -88z
M627 410q164 0 266.5 91t128.5 257q25 151 -55 249.5t-230 98.5q-164 0 -266.5 -91t-128.5 -257q-23 -151 56.5 -249.5t228.5 -98.5z" />
    <glyph glyph-name="yen" unicode="&#xa5;" horiz-adv-x="1206" 
d="M549 0h-103l54 344h-445l13 84h446l33 209h-447l15 82h360l-305 776h117l301 -776h53l524 776h111l-528 -776h360l-14 -82h-445l-33 -209h445l-14 -84h-445z" />
    <glyph glyph-name="brokenbar" unicode="&#xa6;" horiz-adv-x="759" 
d="M430 748h-100l119 747h100zM248 -410h-101l113 715h100z" />
    <glyph glyph-name="section" unicode="&#xa7;" horiz-adv-x="1196" 
d="M438 -139q-193 0 -287 82.5t-73 220.5h104q-13 -90 53 -147.5t218 -57.5q139 0 221 61t98 160q4 27 -2.5 50.5t-16.5 40.5t-35.5 35t-42.5 28t-56.5 24.5t-58.5 21t-66 21.5q-72 22 -111.5 35.5t-97.5 42.5t-86 59.5t-46 80t-8 110.5q18 113 99.5 190.5t197.5 114.5
q-78 41 -115.5 101t-21.5 153q21 130 130 214.5t270 84.5q166 0 254.5 -77t68.5 -212h-106q15 90 -45.5 141.5t-186.5 51.5q-122 0 -193.5 -57t-84.5 -142q-9 -54 8.5 -94.5t67 -69t89.5 -43.5t117 -38q69 -20 109 -33t94.5 -41t81.5 -58.5t43 -80.5t6 -113
q-15 -98 -88 -178.5t-190 -124.5q72 -39 107 -93.5t22 -136.5q-24 -145 -141 -236t-300 -91zM547 489q17 -4 48 -13.5t42 -12.5q119 30 196 98.5t89 149.5q9 57 -9 98.5t-68 70.5t-91 44.5t-119 38.5q-16 4 -45 13.5t-39 12.5q-116 -24 -199.5 -88.5t-99.5 -165.5
q-7 -43 6 -78t38 -58.5t66.5 -43.5t82 -34t94.5 -30q5 -1 8 -2z" />
    <glyph glyph-name="dieresis" unicode="&#xa8;" 
d="M182 1333q-44 0 -63 23t-13 63q5 38 33 62t72 24t64 -24t14 -62q-6 -39 -34 -62.5t-73 -23.5zM580 1333q-45 0 -64.5 23.5t-13.5 62.5t33 62.5t71 23.5t64 -24t14 -62q-5 -39 -32 -62.5t-72 -23.5z" />
    <glyph glyph-name="copyright" unicode="&#xa9;" horiz-adv-x="1492" 
d="M666 260q-181 0 -311.5 79.5t-188 222.5t-29.5 323l4 24q47 300 236 462.5t491 162.5q181 0 311.5 -79.5t188 -222.5t29.5 -323l-4 -24q-47 -300 -236 -462.5t-491 -162.5zM678 334q263 0 427.5 147.5t207.5 415.5q38 244 -89.5 402.5t-367.5 158.5q-265 0 -429 -147.5
t-206 -413.5q-38 -246 89.5 -404.5t367.5 -158.5zM719 530q-143 0 -216 102.5t-48 256.5l4 22q27 165 123 257t254 92q118 0 185 -68.5t60 -183.5h-82q3 79 -45.5 125.5t-130.5 46.5q-118 0 -187.5 -74.5t-90.5 -204.5q-21 -126 29.5 -208.5t158.5 -82.5q189 0 234 168h84
q-30 -123 -115.5 -185.5t-216.5 -62.5z" />
    <glyph glyph-name="ordfeminine" unicode="&#xaa;" horiz-adv-x="796" 
d="M332 713q-111 0 -172.5 62t-44.5 171q17 107 101.5 166t215.5 59h203l6 46q12 86 -23.5 130t-128.5 44q-105 0 -221 -17l13 88q117 17 196 17q86 0 143.5 -19.5t84.5 -54.5t35 -85t-3 -112l-75 -475h-80l24 152q-40 -83 -111.5 -127.5t-162.5 -44.5zM367 793q39 0 75 11
t69.5 34t58.5 65.5t36 100.5l2 -3l15 103h-207q-83 0 -136 -42.5t-65 -113.5q-10 -71 31.5 -113t120.5 -42z" />
    <glyph glyph-name="guillemotleft" unicode="&#xab;" horiz-adv-x="972" 
d="M416 80h-109l-192 416l10 69l328 424h104l-336 -438l-4 -35zM791 80h-109l-195 416l13 69l327 424h105l-336 -438l-4 -35z" />
    <glyph glyph-name="logicalnot" unicode="&#xac;" horiz-adv-x="1234" 
d="M1063 256l-92 -2l53 346h-817l14 90h912z" />
    <glyph glyph-name="softhyphen" unicode="&#xad;" horiz-adv-x="894" 
d="M766 522h-567l14 94h567z" />
    <glyph glyph-name="registered" unicode="&#xae;" horiz-adv-x="1388" 
d="M633 375q-168 0 -290 72t-176 201.5t-28 293.5l4 25q43 273 218 420t454 147q255 0 394.5 -159t101.5 -408l-4 -25q-44 -273 -219.5 -420t-454.5 -147zM643 449q244 0 396 131.5t190 373.5q35 220 -84 363t-340 143q-244 0 -396 -132t-190 -374q-35 -220 84 -362.5
t340 -142.5zM555 653h-80l98 621h203q98 0 153 -53.5t42 -141.5q-12 -78 -60 -125.5t-125 -62.5l160 -238h-94l-154 232h-106zM770 1202h-129l-37 -244h127q66 0 108.5 30.5t51.5 90.5q9 55 -25.5 89t-95.5 34z" />
    <glyph glyph-name="macron" unicode="&#xaf;" 
d="M602 1382h-500l15 86h497z" />
    <glyph glyph-name="degree" unicode="&#xb0;" horiz-adv-x="677" 
d="M373 952q-121 0 -186 76.5t-46 196.5q20 129 102.5 199.5t213.5 70.5q120 0 185 -76t46 -194q-20 -131 -102.5 -202t-212.5 -71zM385 1032q90 0 146 50.5t71 142.5q12 83 -32 136.5t-126 53.5q-90 0 -145.5 -50t-69.5 -140q-14 -84 29.5 -138.5t126.5 -54.5z" />
    <glyph glyph-name="plusminus" unicode="&#xb1;" horiz-adv-x="1214" 
d="M612 356l-94 -2l64 400h-392l15 90h389l63 399h95l-64 -399h391l-14 -90h-391zM965 117h-875l14 90h875z" />
    <glyph glyph-name="twosuperior" unicode="&#xb2;" horiz-adv-x="755" 
d="M651 860h-565l18 127q11 70 53.5 114t139.5 85l182 74q143 60 164 182q12 85 -32.5 134.5t-133.5 49.5q-87 0 -147.5 -49.5t-73.5 -134.5h-88q19 117 107.5 189.5t216.5 72.5q130 0 194 -70.5t45 -181.5l-2 -14q-23 -165 -229 -248l-183 -76q-62 -24 -88 -50.5t-32 -68.5
l-9 -57h476z" />
    <glyph glyph-name="threesuperior" unicode="&#xb3;" horiz-adv-x="751" 
d="M340 842q-135 0 -204 73t-50 187h88q-14 -84 34.5 -134t143.5 -50t160.5 51t77.5 133q12 84 -35 135t-141 51q-66 0 -123 -33l-37 80l377 254l-6 15h-426l12 79h530l-16 -104l-334 -223q10 2 35 2q132 0 201 -71t51 -179l-2 -14q-18 -108 -109.5 -180t-226.5 -72z" />
    <glyph glyph-name="acute" unicode="&#xb4;" 
d="M166 1253h-96l235 387h115z" />
    <glyph glyph-name="micro" unicode="&#xb5;" horiz-adv-x="1308" 
d="M141 -410h-108l235 1485h109l-105 -667q-25 -154 41 -245t213 -91q150 0 255.5 99.5t129.5 254.5l105 649h108l-139 -874q-8 -56 10.5 -80.5t69.5 -24.5h100l-14 -96h-98q-202 0 -166 203l4 16q-125 -250 -397 -250h-7q-95 0 -168 39.5t-106 112.5q-11 -143 -25 -232z
" />
    <glyph glyph-name="paragraph" unicode="&#xb6;" horiz-adv-x="1226" 
d="M584 0h-111l135 860h-178q-181 0 -269.5 83.5t-66.5 227.5l4 21q23 144 138 227.5t296 83.5h289zM858 0h-110l237 1503h111z" />
    <glyph glyph-name="periodcentered" unicode="&#xb7;" horiz-adv-x="520" 
d="M393 465h-143l24 156h144z" />
    <glyph glyph-name="cedilla" unicode="&#xb8;" 
d="M180 -469q-68 0 -135 18l14 82q70 -18 134 -18q140 0 155 96q5 44 -21.5 68t-90.5 24h-62l35 219h74l-23 -143q94 -4 140 -49.5t34 -116.5q-12 -82 -80 -131t-174 -49z" />
    <glyph glyph-name="onesuperior" unicode="&#xb9;" horiz-adv-x="520" 
d="M328 860h-88l118 744h-194l12 79h283z" />
    <glyph glyph-name="ordmasculine" unicode="&#xba;" horiz-adv-x="903" 
d="M444 711q-84 0 -149.5 32.5t-101.5 86.5t-50 122.5t-2 141.5l2 16q12 74 48.5 143t90.5 123t129.5 86.5t157.5 32.5q109 0 185.5 -55.5t106 -142.5t13.5 -187l-4 -16q-11 -73 -46.5 -141.5t-89.5 -122.5t-130 -86.5t-160 -32.5zM459 799q124 0 208.5 87.5t104.5 215.5
q21 129 -37.5 216t-179.5 87q-122 0 -207 -87t-106 -216q-20 -128 36.5 -215.5t180.5 -87.5z" />
    <glyph glyph-name="guillemotright" unicode="&#xbb;" horiz-adv-x="972" 
d="M569 989h109l194 -416l-12 -69l-328 -424h-104l336 438l4 35zM195 989h110l193 -416l-13 -69l-327 -424h-103l334 438l6 35z" />
    <glyph glyph-name="onequarter" unicode="&#xbc;" horiz-adv-x="1585" 
d="M272 -45h-92l1006 1438h92zM328 522h-88l118 744h-194l12 80h283zM1315 0h-86l31 201h-453l16 102l451 531l63 -46l-426 -499l9 -15h352l47 306h86l-47 -306h115l-13 -73h-114z" />
    <glyph glyph-name="onehalf" unicode="&#xbd;" horiz-adv-x="1671" 
d="M272 -45h-92l1006 1438h92zM328 522h-88l118 744h-194l12 80h283zM1485 0h-567l20 127q11 70 53 114t139 85l183 73q144 62 162 183q13 84 -31.5 134t-132.5 50q-87 0 -147.5 -49.5t-73.5 -134.5h-89q17 116 105.5 189t216.5 73q130 0 195 -70.5t47 -181.5l-2 -14
q-26 -166 -230 -248l-184 -76q-62 -24 -87.5 -50.5t-31.5 -68.5l-10 -57h477z" />
    <glyph glyph-name="threequarters" unicode="&#xbe;" horiz-adv-x="1802" 
d="M489 -45h-92l1004 1438h94zM340 504q-135 0 -204 73t-50 187h88q-14 -84 34.5 -134t143.5 -50t160.5 51t77.5 133q12 84 -35 135t-141 51q-68 0 -123 -32l-37 79l377 254l-6 15h-426l12 80h530l-16 -105l-334 -223q10 2 35 2q132 0 201 -71t51 -179l-2 -14
q-18 -108 -109.5 -180t-226.5 -72zM1532 0h-86l31 201h-453l14 102l453 531l61 -46l-424 -499l9 -15h352l47 306h86l-47 -306h115l-13 -73h-114z" />
    <glyph glyph-name="questiondown" unicode="&#xbf;" horiz-adv-x="1114" 
d="M666 1075h145l-25 -155h-143zM625 694h108l-59 -377h-96q-164 0 -267 -88t-129 -249q-23 -148 55 -243t224 -95q170 0 274 95t131 267h105q-34 -221 -170 -341t-355 -120q-192 0 -296.5 119t-73.5 305l2 23q30 198 162.5 306t339.5 116z" />
    <glyph glyph-name="Agrave" unicode="&#xc0;" horiz-adv-x="1517" 
d="M926 1632h-111l-211 301h129zM68 0h-111l801 1495h221l344 -1495h-115l-116 504h-756zM389 604h680l-182 791h-76z" />
    <glyph glyph-name="Aacute" unicode="&#xc1;" horiz-adv-x="1517" 
d="M889 1632h-107l285 301h127zM68 0h-111l801 1495h221l344 -1495h-115l-116 504h-756zM389 604h680l-182 791h-76z" />
    <glyph glyph-name="Acircumflex" unicode="&#xc2;" horiz-adv-x="1517" 
d="M647 1632h-104l284 301h150l192 -301h-106l-152 238h-39zM68 0h-111l801 1495h221l344 -1495h-115l-116 504h-756zM389 604h680l-182 791h-76z" />
    <glyph glyph-name="Atilde" unicode="&#xc3;" horiz-adv-x="1517" 
d="M1014 1688q-42 0 -79 15.5t-59 33.5t-55.5 33.5t-70.5 15.5q-44 0 -87.5 -22.5t-74.5 -65.5l-33 61q34 52 91 82.5t122 30.5q43 0 79 -15.5t58 -33.5t54.5 -33.5t68.5 -15.5q100 0 164 88l33 -62q-39 -52 -94 -82t-117 -30zM68 0h-111l801 1495h221l344 -1495h-115
l-116 504h-756zM389 604h680l-182 791h-76z" />
    <glyph glyph-name="Adieresis" unicode="&#xc4;" horiz-adv-x="1517" 
d="M655 1690q-43 0 -63.5 24.5t-13.5 65.5q6 41 34.5 65.5t71.5 24.5q44 0 65 -25t15 -65q-6 -41 -35.5 -65.5t-73.5 -24.5zM1081 1690q-43 0 -63.5 24.5t-13.5 65.5q6 41 34.5 65.5t71.5 24.5q44 0 65 -25t15 -65q-6 -41 -35.5 -65.5t-73.5 -24.5zM68 0h-111l801 1495h221
l344 -1495h-115l-116 504h-756zM389 604h680l-182 791h-76z" />
    <glyph glyph-name="Aring" unicode="&#xc5;" horiz-adv-x="1517" 
d="M842 1589q-102 0 -153.5 62t-37.5 149q13 87 83.5 148t174.5 61q103 0 154 -61t37 -148q-13 -87 -84 -149t-174 -62zM854 1661q71 0 116 39.5t54 99.5t-23.5 99.5t-103.5 39.5t-116 -39.5t-54 -99.5q-8 -60 24.5 -99.5t102.5 -39.5zM68 0h-111l801 1495h221l344 -1495
h-115l-116 504h-756zM389 604h680l-182 791h-76z" />
    <glyph glyph-name="AE" unicode="&#xc6;" horiz-adv-x="1976" 
d="M37 0h-111l838 1495h1163l-16 -100h-705l-92 -590h655l-16 -100h-655l-94 -605h727l-15 -100h-839l94 596h-602zM426 698h561l109 697h-281z" />
    <glyph glyph-name="Ccedilla" unicode="&#xc7;" horiz-adv-x="1624" 
d="M764 -35q-215 0 -368.5 99.5t-219.5 275t-31 395.5l7 31q58 363 275 565.5t570 202.5q261 0 416 -143.5t146 -389.5h-113q7 201 -121 316t-344 115q-302 0 -486 -180.5t-235 -501.5q-31 -193 22 -348.5t183 -244.5t315 -89q478 0 617 430h110q-143 -465 -608 -525
l-16 -102q94 -5 144 -51t38 -119q-14 -85 -86 -135.5t-184 -50.5q-86 0 -144 20l13 84q65 -20 145 -20q150 0 168 100q6 43 -26 68.5t-97 25.5h-61l26 174q-18 -2 -55 -2z" />
    <glyph glyph-name="Egrave" unicode="&#xc8;" horiz-adv-x="1239" 
d="M975 1632h-111l-211 301h131zM1096 0h-846l237 1495h822l-17 -100h-710l-93 -584h662l-16 -102h-662l-96 -609h735z" />
    <glyph glyph-name="Eacute" unicode="&#xc9;" horiz-adv-x="1239" 
d="M803 1632h-109l287 301h127zM1096 0h-846l237 1495h822l-17 -100h-710l-93 -584h662l-16 -102h-662l-96 -609h735z" />
    <glyph glyph-name="Ecircumflex" unicode="&#xca;" horiz-adv-x="1239" 
d="M696 1632h-104l285 301h149l195 -301h-109l-151 238h-39zM1096 0h-846l237 1495h822l-17 -100h-710l-93 -584h662l-16 -102h-662l-96 -609h735z" />
    <glyph glyph-name="Edieresis" unicode="&#xcb;" horiz-adv-x="1239" 
d="M707 1690q-44 0 -65 24t-15 66q6 40 35 65t73 25q42 0 64 -25t16 -65q-8 -42 -36 -66t-72 -24zM1133 1690q-44 0 -65 24t-15 66q6 40 35 65t73 25q42 0 64 -25t16 -65q-8 -42 -36 -66t-72 -24zM1096 0h-846l237 1495h822l-17 -100h-710l-93 -584h662l-16 -102h-662
l-96 -609h735z" />
    <glyph glyph-name="Igrave" unicode="&#xcc;" horiz-adv-x="618" 
d="M485 1632h-110l-211 301h129zM246 0h-111l238 1495h110z" />
    <glyph glyph-name="Iacute" unicode="&#xcd;" horiz-adv-x="618" 
d="M449 1632h-107l285 301h127zM246 0h-111l238 1495h110z" />
    <glyph glyph-name="Icircumflex" unicode="&#xce;" horiz-adv-x="618" 
d="M207 1632h-105l285 301h150l192 -301h-106l-152 238h-39zM246 0h-111l238 1495h110z" />
    <glyph glyph-name="Idieresis" unicode="&#xcf;" horiz-adv-x="618" 
d="M215 1690q-43 0 -64 24.5t-14 65.5q6 40 34.5 65t72.5 25t65 -25t15 -65q-6 -41 -35.5 -65.5t-73.5 -24.5zM641 1690q-43 0 -64 24.5t-14 65.5q6 40 34.5 65t72.5 25t65 -25t15 -65q-6 -41 -35.5 -65.5t-73.5 -24.5zM246 0h-111l238 1495h110z" />
    <glyph glyph-name="Eth" unicode="&#xd0;" horiz-adv-x="1638" 
d="M633 -6h-500l111 706h-135l14 95h137l111 706h501q221 0 383 -92.5t235.5 -261t39.5 -381.5l-6 -33q-57 -357 -289.5 -548t-601.5 -191zM834 700h-480l-94 -604h402q313 0 508 170.5t245 483.5q29 186 -30 334.5t-194 231.5t-323 83h-403l-94 -604h477z" />
    <glyph glyph-name="Ntilde" unicode="&#xd1;" horiz-adv-x="1701" 
d="M1151 1688q-43 0 -79.5 15.5t-58.5 33.5t-55.5 33.5t-70.5 15.5q-44 0 -87.5 -22.5t-74.5 -65.5l-33 61q34 52 91 82.5t122 30.5q43 0 79 -15.5t58 -33.5t54.5 -33.5t68.5 -15.5q100 0 164 88l33 -62q-39 -52 -94 -82t-117 -30zM238 0h-107l238 1495h192l656 -1395h24
l221 1395h109l-238 -1495h-194l-656 1395h-24z" />
    <glyph glyph-name="Ograve" unicode="&#xd2;" horiz-adv-x="1781" 
d="M1067 1632h-111l-208 301h129zM766 -35q-220 0 -377.5 99t-226 274.5t-33.5 396.5l4 33q59 365 287.5 565.5t593.5 200.5q218 0 375.5 -98.5t226.5 -273.5t33 -394l-7 -33q-57 -367 -284 -568.5t-592 -201.5zM782 68q314 0 507 179t245 503q30 194 -26 349.5t-189.5 244
t-321.5 88.5q-315 0 -508 -179t-245 -503q-23 -145 4.5 -271t97 -216.5t182 -142.5t254.5 -52z" />
    <glyph glyph-name="Oacute" unicode="&#xd3;" horiz-adv-x="1781" 
d="M1032 1632h-108l286 301h127zM766 -35q-220 0 -377.5 99t-226 274.5t-33.5 396.5l4 33q59 365 287.5 565.5t593.5 200.5q218 0 375.5 -98.5t226.5 -273.5t33 -394l-7 -33q-57 -367 -284 -568.5t-592 -201.5zM782 68q314 0 507 179t245 503q30 194 -26 349.5t-189.5 244
t-321.5 88.5q-315 0 -508 -179t-245 -503q-23 -145 4.5 -271t97 -216.5t182 -142.5t254.5 -52z" />
    <glyph glyph-name="Ocircumflex" unicode="&#xd4;" horiz-adv-x="1781" 
d="M788 1632h-104l287 301h147l195 -301h-107l-153 238h-37zM766 -35q-220 0 -377.5 99t-226 274.5t-33.5 396.5l4 33q59 365 287.5 565.5t593.5 200.5q218 0 375.5 -98.5t226.5 -273.5t33 -394l-7 -33q-57 -367 -284 -568.5t-592 -201.5zM782 68q314 0 507 179t245 503
q30 194 -26 349.5t-189.5 244t-321.5 88.5q-315 0 -508 -179t-245 -503q-23 -145 4.5 -271t97 -216.5t182 -142.5t254.5 -52z" />
    <glyph glyph-name="Otilde" unicode="&#xd5;" horiz-adv-x="1781" 
d="M1155 1688q-42 0 -78.5 15.5t-58.5 33.5t-55.5 33.5t-69.5 15.5q-100 0 -164 -88l-33 61q36 52 92.5 82.5t120.5 30.5q43 0 80 -15.5t58.5 -33.5t54.5 -33.5t69 -15.5q98 0 162 88l35 -62q-39 -52 -94.5 -82t-118.5 -30zM766 -35q-220 0 -377.5 99t-226 274.5
t-33.5 396.5l4 33q59 365 287.5 565.5t593.5 200.5q218 0 375.5 -98.5t226.5 -273.5t33 -394l-7 -33q-57 -367 -284 -568.5t-592 -201.5zM782 68q314 0 507 179t245 503q30 194 -26 349.5t-189.5 244t-321.5 88.5q-315 0 -508 -179t-245 -503q-23 -145 4.5 -271t97 -216.5
t182 -142.5t254.5 -52z" />
    <glyph glyph-name="Odieresis" unicode="&#xd6;" horiz-adv-x="1781" 
d="M799 1690q-44 0 -65 24t-15 66q6 40 35 65t73 25q42 0 64 -25t16 -65q-8 -42 -36 -66t-72 -24zM1225 1690q-44 0 -65 24t-15 66q6 40 35 65t73 25q42 0 64 -25t16 -65q-8 -42 -36 -66t-72 -24zM766 -35q-220 0 -377.5 99t-226 274.5t-33.5 396.5l4 33q59 365 287.5 565.5
t593.5 200.5q218 0 375.5 -98.5t226.5 -273.5t33 -394l-7 -33q-57 -367 -284 -568.5t-592 -201.5zM782 68q314 0 507 179t245 503q30 194 -26 349.5t-189.5 244t-321.5 88.5q-315 0 -508 -179t-245 -503q-23 -145 4.5 -271t97 -216.5t182 -142.5t254.5 -52z" />
    <glyph glyph-name="multiply" unicode="&#xd7;" horiz-adv-x="1200" 
d="M133 342l426 365l-309 364l74 66l309 -367l426 365l51 -62l-424 -364l309 -365l-75 -65l-310 366l-424 -364z" />
    <glyph glyph-name="Oslash" unicode="&#xd8;" horiz-adv-x="1804" 
d="M246 -80h-115l182 213q-109 104 -154 259.5t-16 342.5l4 33q59 366 286.5 566t592.5 200q231 0 397 -113l127 150h115l-174 -203q110 -104 155 -259t15 -341l-4 -33q-59 -368 -286 -569t-593 -201q-234 0 -397 113zM258 750q-26 -161 9 -297.5t124 -229.5l955 1110
q-138 99 -336 99q-314 0 -508 -179.5t-244 -502.5zM795 68q314 0 507 179t246 503q26 161 -10.5 297t-126.5 229l-952 -1110q137 -98 336 -98z" />
    <glyph glyph-name="Ugrave" unicode="&#xd9;" horiz-adv-x="1638" 
d="M995 1632h-110l-211 301h131zM616 -35q-173 0 -297.5 78.5t-177.5 217t-26 312.5l145 922h111l-148 -936q-34 -214 81.5 -352.5t328.5 -138.5q235 0 382.5 128.5t182.5 362.5l150 936h110l-147 -922q-46 -290 -226 -449t-469 -159z" />
    <glyph glyph-name="Uacute" unicode="&#xda;" horiz-adv-x="1638" 
d="M961 1632h-109l287 301h127zM616 -35q-173 0 -297.5 78.5t-177.5 217t-26 312.5l145 922h111l-148 -936q-34 -214 81.5 -352.5t328.5 -138.5q235 0 382.5 128.5t182.5 362.5l150 936h110l-147 -922q-46 -290 -226 -449t-469 -159z" />
    <glyph glyph-name="Ucircumflex" unicode="&#xdb;" horiz-adv-x="1638" 
d="M717 1632h-105l285 301h150l194 -301h-108l-152 238h-39zM616 -35q-173 0 -297.5 78.5t-177.5 217t-26 312.5l145 922h111l-148 -936q-34 -214 81.5 -352.5t328.5 -138.5q235 0 382.5 128.5t182.5 362.5l150 936h110l-147 -922q-46 -290 -226 -449t-469 -159z" />
    <glyph glyph-name="Udieresis" unicode="&#xdc;" horiz-adv-x="1638" 
d="M727 1690q-44 0 -65 24t-15 66q6 40 35.5 65t71.5 25q44 0 65 -25t15 -65q-6 -41 -35 -65.5t-72 -24.5zM1153 1690q-44 0 -65 24t-15 66q6 40 35.5 65t71.5 25q44 0 65 -25t15 -65q-6 -41 -35 -65.5t-72 -24.5zM616 -35q-173 0 -297.5 78.5t-177.5 217t-26 312.5l145 922
h111l-148 -936q-34 -214 81.5 -352.5t328.5 -138.5q235 0 382.5 128.5t182.5 362.5l150 936h110l-147 -922q-46 -290 -226 -449t-469 -159z" />
    <glyph glyph-name="Yacute" unicode="&#xdd;" horiz-adv-x="1325" 
d="M797 1632h-107l285 301h127zM606 0h-108l94 588h-78l-340 907h115l303 -815h137l543 815h110l-606 -907h-76z" />
    <glyph glyph-name="Thorn" unicode="&#xde;" horiz-adv-x="1189" 
d="M242 0h-111l238 1497h110l-45 -283h281q213 0 333.5 -123t88.5 -319l-4 -22q-33 -216 -181 -328.5t-381 -112.5h-280zM713 1114h-295l-111 -704h293q176 0 286 90.5t138 261.5q25 155 -63 253.5t-248 98.5z" />
    <glyph glyph-name="germandbls" unicode="&#xdf;" horiz-adv-x="1222" 
d="M539 -23q-103 0 -197 21l16 96q103 -20 197 -20q165 0 270 82.5t129 240.5q26 163 -71.5 267t-272.5 104h-82l15 94h69q129 0 209.5 74t100.5 207q20 121 -39.5 199.5t-175.5 78.5q-144 0 -226 -95t-108 -261l-168 -1065h-109l154 967h-125l16 92h123q35 215 148 337
t305 122h8q161 0 247 -105t60 -268q-41 -252 -258 -326q156 -41 235.5 -154t53.5 -274q-32 -202 -169.5 -308t-354.5 -106z" />
    <glyph glyph-name="agrave" unicode="&#xe0;" horiz-adv-x="1150" 
d="M698 1255h-100l-145 385h118zM401 -29q-164 0 -256.5 94t-66.5 244q25 166 146.5 248t310.5 82h329l13 78q19 119 -51.5 194.5t-196.5 75.5q-168 0 -318 -18l15 98q131 18 274 18q190 0 298.5 -106.5t82.5 -278.5l-113 -700h-88l37 217q-117 -246 -416 -246zM434 61
q154 0 253 80t134 230l29 180h-340q-134 0 -220 -60.5t-106 -181.5q-18 -112 53 -180t197 -68z" />
    <glyph glyph-name="aacute" unicode="&#xe1;" horiz-adv-x="1150" 
d="M662 1255h-97l236 385h114zM401 -29q-164 0 -256.5 94t-66.5 244q25 166 146.5 248t310.5 82h329l13 78q19 119 -51.5 194.5t-196.5 75.5q-168 0 -318 -18l15 98q131 18 274 18q190 0 298.5 -106.5t82.5 -278.5l-113 -700h-88l37 217q-117 -246 -416 -246zM434 61
q154 0 253 80t134 230l29 180h-340q-134 0 -220 -60.5t-106 -181.5q-18 -112 53 -180t197 -68z" />
    <glyph glyph-name="acircumflex" unicode="&#xe2;" horiz-adv-x="1150" 
d="M438 1255h-96l281 385h139l160 -385h-97l-133 324h-16zM401 -29q-164 0 -256.5 94t-66.5 244q25 166 146.5 248t310.5 82h329l13 78q19 119 -51.5 194.5t-196.5 75.5q-168 0 -318 -18l15 98q131 18 274 18q190 0 298.5 -106.5t82.5 -278.5l-113 -700h-88l37 217
q-117 -246 -416 -246zM434 61q154 0 253 80t134 230l29 180h-340q-134 0 -220 -60.5t-106 -181.5q-18 -112 53 -180t197 -68z" />
    <glyph glyph-name="atilde" unicode="&#xe3;" horiz-adv-x="1150" 
d="M784 1331q-34 0 -62.5 11t-48.5 26.5t-39 31.5t-43.5 27t-51.5 11q-75 0 -148 -88l-29 67q83 107 193 107q43 0 78.5 -16.5t56.5 -37t51 -37t62 -16.5q76 0 149 88l27 -67q-83 -107 -195 -107zM401 -29q-164 0 -256.5 94t-66.5 244q25 166 146.5 248t310.5 82h329l13 78
q19 119 -51.5 194.5t-196.5 75.5q-168 0 -318 -18l15 98q131 18 274 18q190 0 298.5 -106.5t82.5 -278.5l-113 -700h-88l37 217q-117 -246 -416 -246zM434 61q154 0 253 80t134 230l29 180h-340q-134 0 -220 -60.5t-106 -181.5q-18 -112 53 -180t197 -68z" />
    <glyph glyph-name="adieresis" unicode="&#xe4;" horiz-adv-x="1150" 
d="M457 1333q-44 0 -63.5 24t-14.5 64q6 39 33 62.5t71 23.5t64.5 -24t15.5 -62q-6 -40 -34 -64t-72 -24zM852 1333q-44 0 -63 24t-13 64q5 38 33 62t72 24t63.5 -24t13.5 -62q-6 -40 -34 -64t-72 -24zM401 -29q-164 0 -256.5 94t-66.5 244q25 166 146.5 248t310.5 82h329
l13 78q19 119 -51.5 194.5t-196.5 75.5q-168 0 -318 -18l15 98q131 18 274 18q190 0 298.5 -106.5t82.5 -278.5l-113 -700h-88l37 217q-117 -246 -416 -246zM434 61q154 0 253 80t134 230l29 180h-340q-134 0 -220 -60.5t-106 -181.5q-18 -112 53 -180t197 -68z" />
    <glyph glyph-name="aring" unicode="&#xe5;" horiz-adv-x="1150" 
d="M627 1235q-96 0 -147.5 61.5t-37.5 153.5q15 92 85.5 153.5t166.5 61.5q98 0 149.5 -61.5t37.5 -153.5q-15 -93 -85.5 -154t-168.5 -61zM639 1305q65 0 110 40.5t56 104.5q9 64 -23 104.5t-98 40.5q-65 0 -111 -40.5t-55 -104.5q-11 -64 22.5 -104.5t98.5 -40.5zM401 -29
q-164 0 -256.5 94t-66.5 244q25 166 146.5 248t310.5 82h329l13 78q19 119 -51.5 194.5t-196.5 75.5q-168 0 -318 -18l15 98q131 18 274 18q190 0 298.5 -106.5t82.5 -278.5l-113 -700h-88l37 217q-117 -246 -416 -246zM434 61q154 0 253 80t134 230l29 180h-340
q-134 0 -220 -60.5t-106 -181.5q-18 -112 53 -180t197 -68z" />
    <glyph glyph-name="ae" unicode="&#xe6;" horiz-adv-x="1955" 
d="M1276 -35q-164 0 -274.5 82.5t-145.5 231.5q-52 -151 -169.5 -229.5t-287.5 -78.5q-163 0 -254.5 93.5t-68.5 244.5q27 166 147 247t309 81h326l12 80q20 118 -47.5 194t-189.5 76q-169 0 -322 -18l15 98q129 18 272 18t240 -65.5t123 -179.5q157 268 483 268
q220 0 336.5 -144t81.5 -366l-11 -72h-907q-28 -200 67 -330t281 -130q312 0 402 241h106q-129 -342 -524 -342zM1430 1008q-185 0 -303.5 -103t-165.5 -289h798q15 171 -74.5 281.5t-254.5 110.5zM430 61q159 0 259.5 86t129.5 244l25 158h-336q-133 0 -218.5 -60
t-105.5 -180q-18 -111 52 -179.5t194 -68.5z" />
    <glyph glyph-name="ccedilla" unicode="&#xe7;" horiz-adv-x="1232" 
d="M571 -35q-156 0 -266 73.5t-155.5 202t-20.5 289.5l4 21q40 264 200.5 410.5t418.5 146.5q191 0 305.5 -102t111.5 -281h-106q-1 134 -91 209.5t-237 75.5q-207 0 -333 -124t-162 -345q-31 -206 64 -340.5t284 -134.5q352 0 432 292h106q-96 -345 -454 -387l-15 -94
q94 -4 140 -49.5t34 -116.5q-12 -83 -79.5 -131.5t-173.5 -48.5q-69 0 -136 18l13 82q70 -18 135 -18q138 0 153 96q6 43 -20.5 67.5t-91.5 24.5h-62l27 164h-25z" />
    <glyph glyph-name="egrave" unicode="&#xe8;" horiz-adv-x="1239" 
d="M772 1253h-100l-146 387h119zM569 -35q-155 0 -264 73.5t-154 202t-20 289.5l2 21q42 264 196.5 410.5t407.5 146.5q221 0 340 -143.5t82 -364.5l-10 -74h-916q-28 -201 68.5 -332t284.5 -131q153 0 254.5 57.5t150.5 186.5h105q-126 -342 -527 -342zM723 1010
q-187 0 -306.5 -103.5t-166.5 -290.5h807q15 173 -76 283.5t-258 110.5z" />
    <glyph glyph-name="eacute" unicode="&#xe9;" horiz-adv-x="1239" 
d="M735 1253h-96l235 387h115zM569 -35q-155 0 -264 73.5t-154 202t-20 289.5l2 21q42 264 196.5 410.5t407.5 146.5q221 0 340 -143.5t82 -364.5l-10 -74h-916q-28 -201 68.5 -332t284.5 -131q153 0 254.5 57.5t150.5 186.5h105q-126 -342 -527 -342zM723 1010
q-187 0 -306.5 -103.5t-166.5 -290.5h807q15 173 -76 283.5t-258 110.5z" />
    <glyph glyph-name="ecircumflex" unicode="&#xea;" horiz-adv-x="1239" 
d="M512 1253h-96l280 387h140l159 -387h-96l-133 324h-16zM569 -35q-155 0 -264 73.5t-154 202t-20 289.5l2 21q42 264 196.5 410.5t407.5 146.5q221 0 340 -143.5t82 -364.5l-10 -74h-916q-28 -201 68.5 -332t284.5 -131q153 0 254.5 57.5t150.5 186.5h105
q-126 -342 -527 -342zM723 1010q-187 0 -306.5 -103.5t-166.5 -290.5h807q15 173 -76 283.5t-258 110.5z" />
    <glyph glyph-name="edieresis" unicode="&#xeb;" horiz-adv-x="1239" 
d="M530 1333q-87 0 -77 86q6 39 33 62.5t71 23.5t64.5 -24t15.5 -62q-6 -39 -34 -62.5t-73 -23.5zM926 1333q-44 0 -63 23t-13 63q5 38 32.5 62t71.5 24t64 -24t14 -62q-6 -39 -33.5 -62.5t-72.5 -23.5zM569 -35q-155 0 -264 73.5t-154 202t-20 289.5l2 21
q42 264 196.5 410.5t407.5 146.5q221 0 340 -143.5t82 -364.5l-10 -74h-916q-28 -201 68.5 -332t284.5 -131q153 0 254.5 57.5t150.5 186.5h105q-126 -342 -527 -342zM723 1010q-187 0 -306.5 -103.5t-166.5 -290.5h807q15 173 -76 283.5t-258 110.5z" />
    <glyph glyph-name="igrave" unicode="&#xec;" horiz-adv-x="591" 
d="M381 1253h-100l-146 387h119zM293 0h-109l156 981h-180l14 94h289l-14 -94z" />
    <glyph glyph-name="iacute" unicode="&#xed;" horiz-adv-x="591" 
d="M344 1253h-96l235 387h115zM293 0h-109l156 981h-180l14 94h289l-14 -94z" />
    <glyph glyph-name="icircumflex" unicode="&#xee;" horiz-adv-x="591" 
d="M121 1253h-96l280 387h139l160 -387h-96l-133 324h-17zM293 0h-109l156 981h-180l14 94h289l-14 -94z" />
    <glyph glyph-name="idieresis" unicode="&#xef;" horiz-adv-x="591" 
d="M139 1333q-44 0 -63.5 23t-14.5 63q6 38 33.5 62t71.5 24t64.5 -24t15.5 -62q-6 -39 -34 -62.5t-73 -23.5zM535 1333q-44 0 -63 23t-13 63q5 38 32.5 62t71.5 24t64 -24t14 -62q-6 -39 -33.5 -62.5t-72.5 -23.5zM293 0h-109l156 981h-180l14 94h289l-14 -94z" />
    <glyph glyph-name="eth" unicode="&#xf0;" horiz-adv-x="1329" 
d="M557 -35q-86 0 -158.5 20.5t-122.5 56.5t-87.5 85.5t-55 107.5t-23.5 122.5t7 131.5l6 46q16 104 64.5 197.5t122.5 166t180.5 115.5t230.5 43q168 0 263 -73.5t118 -192.5q40 366 -66 495l-231 -166l-37 56l219 155q-85 60 -250 60q-91 0 -207 -17l15 94q107 17 207 17
q211 0 319 -92l195 139l37 -55l-185 -134q75 -98 89 -278.5t-31 -456.5l-7 -33q-44 -283 -201.5 -446.5t-410.5 -163.5zM571 63q204 0 329 123.5t157 325.5q32 203 -57 326t-287 123q-202 0 -327 -124t-157 -325q-32 -198 54.5 -323.5t287.5 -125.5z" />
    <glyph glyph-name="ntilde" unicode="&#xf1;" horiz-adv-x="1292" 
d="M885 1331q-42 0 -77 16.5t-55.5 36t-50.5 36t-63 16.5q-77 0 -147 -86l-31 65q83 107 194 107q42 0 77.5 -16.5t56.5 -36t50.5 -36t61.5 -16.5q77 0 150 86l28 -67q-82 -105 -194 -105zM231 0h-108l170 1075h88l-39 -244q60 131 167.5 202t260.5 71h6q121 0 205 -62
t116 -168.5t11 -238.5l-100 -635h-109l102 659q25 149 -49 247t-215 98q-167 0 -271 -93t-130 -262z" />
    <glyph glyph-name="ograve" unicode="&#xf2;" horiz-adv-x="1353" 
d="M813 1253h-100l-146 387h119zM584 -35q-244 0 -375.5 158t-93.5 403l4 21q43 268 210.5 414.5t434.5 146.5q246 0 376.5 -157.5t92.5 -403.5l-4 -21q-41 -268 -208.5 -414.5t-436.5 -146.5zM600 66q218 0 352 124t170 347q33 206 -70.5 339.5t-301.5 133.5
q-217 0 -352 -124.5t-171 -348.5q-33 -204 71 -337.5t302 -133.5z" />
    <glyph glyph-name="oacute" unicode="&#xf3;" horiz-adv-x="1353" 
d="M776 1253h-98l235 387h117zM584 -35q-244 0 -375.5 158t-93.5 403l4 21q43 268 210.5 414.5t434.5 146.5q246 0 376.5 -157.5t92.5 -403.5l-4 -21q-41 -268 -208.5 -414.5t-436.5 -146.5zM600 66q218 0 352 124t170 347q33 206 -70.5 339.5t-301.5 133.5
q-217 0 -352 -124.5t-171 -348.5q-33 -204 71 -337.5t302 -133.5z" />
    <glyph glyph-name="ocircumflex" unicode="&#xf4;" horiz-adv-x="1353" 
d="M553 1253h-98l280 387h142l159 -387h-96l-133 324h-16zM584 -35q-244 0 -375.5 158t-93.5 403l4 21q43 268 210.5 414.5t434.5 146.5q246 0 376.5 -157.5t92.5 -403.5l-4 -21q-41 -268 -208.5 -414.5t-436.5 -146.5zM600 66q218 0 352 124t170 347q33 206 -70.5 339.5
t-301.5 133.5q-217 0 -352 -124.5t-171 -348.5q-33 -204 71 -337.5t302 -133.5z" />
    <glyph glyph-name="otilde" unicode="&#xf5;" horiz-adv-x="1353" 
d="M899 1331q-42 0 -77 16.5t-55.5 36t-50.5 36t-63 16.5q-77 0 -147 -86l-31 65q83 107 195 107q42 0 77.5 -16.5t56.5 -36t51.5 -36t62.5 -16.5q74 0 147 86l29 -67q-82 -105 -195 -105zM584 -35q-244 0 -375.5 158t-93.5 403l4 21q43 268 210.5 414.5t434.5 146.5
q246 0 376.5 -157.5t92.5 -403.5l-4 -21q-41 -268 -208.5 -414.5t-436.5 -146.5zM600 66q218 0 352 124t170 347q33 206 -70.5 339.5t-301.5 133.5q-217 0 -352 -124.5t-171 -348.5q-33 -204 71 -337.5t302 -133.5z" />
    <glyph glyph-name="odieresis" unicode="&#xf6;" horiz-adv-x="1353" 
d="M571 1333q-44 0 -63.5 23t-13.5 63q6 39 33 62.5t71 23.5t64 -24t14 -62q-5 -39 -32.5 -62.5t-72.5 -23.5zM967 1333q-44 0 -63.5 23t-14.5 63q6 39 33 62.5t71 23.5t64.5 -24t15.5 -62q-6 -39 -33.5 -62.5t-72.5 -23.5zM584 -35q-244 0 -375.5 158t-93.5 403l4 21
q43 268 210.5 414.5t434.5 146.5q246 0 376.5 -157.5t92.5 -403.5l-4 -21q-41 -268 -208.5 -414.5t-436.5 -146.5zM600 66q218 0 352 124t170 347q33 206 -70.5 339.5t-301.5 133.5q-217 0 -352 -124.5t-171 -348.5q-33 -204 71 -337.5t302 -133.5z" />
    <glyph glyph-name="divide" unicode="&#xf7;" horiz-adv-x="1200" 
d="M739 1022h-141l25 156h141zM1049 662h-875l14 90h875zM614 233h-141l25 156h141z" />
    <glyph glyph-name="oslash" unicode="&#xf8;" horiz-adv-x="1415" 
d="M209 -84h-103l156 180q-78 76 -109 187t-10 243l2 21q43 268 211.5 414.5t436.5 146.5q158 0 278 -74l127 148h102l-167 -195q83 -76 116.5 -189t10.5 -251l-3 -21q-43 -268 -210.5 -414.5t-436.5 -146.5q-170 0 -288 82zM254 537q-17 -107 5 -198.5t79 -154.5l659 766
q-96 60 -221 60q-217 0 -351.5 -124.5t-170.5 -348.5zM627 66q218 0 352.5 124t171.5 347q17 112 -7.5 205.5t-86.5 156.5l-662 -766q95 -67 232 -67z" />
    <glyph glyph-name="ugrave" unicode="&#xf9;" horiz-adv-x="1253" 
d="M745 1253h-98l-145 387h116zM494 -31h-5q-179 0 -266.5 131t-56.5 332l102 643h109l-105 -667q-25 -144 45 -240t207 -96q161 0 260.5 91.5t126.5 256.5l103 655h110l-170 -1075h-88l39 240q-123 -271 -411 -271z" />
    <glyph glyph-name="uacute" unicode="&#xfa;" horiz-adv-x="1253" 
d="M709 1253h-97l236 387h115zM494 -31h-5q-179 0 -266.5 131t-56.5 332l102 643h109l-105 -667q-25 -144 45 -240t207 -96q161 0 260.5 91.5t126.5 256.5l103 655h110l-170 -1075h-88l39 240q-123 -271 -411 -271z" />
    <glyph glyph-name="ucircumflex" unicode="&#xfb;" horiz-adv-x="1253" 
d="M485 1253h-96l281 387h141l158 -387h-95l-135 324h-16zM494 -31h-5q-179 0 -266.5 131t-56.5 332l102 643h109l-105 -667q-25 -144 45 -240t207 -96q161 0 260.5 91.5t126.5 256.5l103 655h110l-170 -1075h-88l39 240q-123 -271 -411 -271z" />
    <glyph glyph-name="udieresis" unicode="&#xfc;" horiz-adv-x="1253" 
d="M504 1333q-44 0 -63 23t-13 63q5 38 32.5 62t71.5 24t64 -24t14 -62q-6 -39 -33.5 -62.5t-72.5 -23.5zM901 1333q-45 0 -64.5 23.5t-13.5 62.5q6 38 33.5 62t71.5 24t64 -24t14 -62q-5 -39 -32.5 -62.5t-72.5 -23.5zM494 -31h-5q-179 0 -266.5 131t-56.5 332l102 643h109
l-105 -667q-25 -144 45 -240t207 -96q161 0 260.5 91.5t126.5 256.5l103 655h110l-170 -1075h-88l39 240q-123 -271 -411 -271z" />
    <glyph glyph-name="yacute" unicode="&#xfd;" horiz-adv-x="1067" 
d="M621 1253h-97l236 387h114zM55 -418h-116l16 101h123q113 0 190 51.5t127 156.5l66 136h-99l-227 1048h113l198 -952h62l459 952h106l-590 -1218q-68 -139 -172.5 -207t-255.5 -68z" />
    <glyph glyph-name="thorn" unicode="&#xfe;" horiz-adv-x="1456" 
d="M231 -410h-108l301 1905h108l-98 -627q74 117 195 179.5t280 62.5q151 0 257.5 -73.5t149.5 -201t19 -286.5l-4 -23q-42 -264 -197 -411.5t-409 -147.5q-147 0 -248.5 69.5t-142.5 190.5zM725 66q210 0 337 125.5t163 349.5q31 204 -65.5 337.5t-285.5 133.5
q-203 0 -330 -110t-159 -312l-16 -107q-29 -183 71 -300t285 -117z" />
    <glyph glyph-name="ydieresis" unicode="&#xff;" horiz-adv-x="1067" 
d="M416 1333q-44 0 -63 23t-13 63q5 38 32.5 62t71.5 24t64 -24t14 -62q-6 -39 -33.5 -62.5t-72.5 -23.5zM813 1333q-45 0 -64.5 23.5t-13.5 62.5q6 38 33.5 62t71.5 24t64 -24t14 -62q-5 -39 -32.5 -62.5t-72.5 -23.5zM55 -418h-116l16 101h123q113 0 190 51.5t127 156.5
l66 136h-99l-227 1048h113l198 -952h62l459 952h106l-590 -1218q-68 -139 -172.5 -207t-255.5 -68z" />
    <glyph glyph-name="Amacron" unicode="&#x100;" horiz-adv-x="1517" 
d="M1178 1739h-592l12 84h592zM68 0h-111l801 1495h221l344 -1495h-115l-116 504h-756zM389 604h680l-182 791h-76z" />
    <glyph glyph-name="amacron" unicode="&#x101;" horiz-adv-x="1150" 
d="M915 1384h-497l12 86h498zM401 -29q-164 0 -256.5 94t-66.5 244q25 166 146.5 248t310.5 82h329l13 78q19 119 -51.5 194.5t-196.5 75.5q-168 0 -318 -18l15 98q131 18 274 18q190 0 298.5 -106.5t82.5 -278.5l-113 -700h-88l37 217q-117 -246 -416 -246zM434 61
q154 0 253 80t134 230l29 180h-340q-134 0 -220 -60.5t-106 -181.5q-18 -112 53 -180t197 -68z" />
    <glyph glyph-name="Abreve" unicode="&#x102;" horiz-adv-x="1517" 
d="M852 1618q-148 0 -208.5 85.5t-47.5 229.5h84q-17 -235 184 -235q208 0 262 235h82q-31 -144 -119 -229.5t-237 -85.5zM68 0h-111l801 1495h221l344 -1495h-115l-116 504h-756zM389 604h680l-182 791h-76z" />
    <glyph glyph-name="abreve" unicode="&#x103;" horiz-adv-x="1150" 
d="M631 1245q-267 0 -219 395h86q-14 -159 18 -237t127 -78q96 0 155.5 79t92.5 236h82q-36 -193 -121.5 -294t-220.5 -101zM401 -29q-164 0 -256.5 94t-66.5 244q25 166 146.5 248t310.5 82h329l13 78q19 119 -51.5 194.5t-196.5 75.5q-168 0 -318 -18l15 98q131 18 274 18
q190 0 298.5 -106.5t82.5 -278.5l-113 -700h-88l37 217q-117 -246 -416 -246zM434 61q154 0 253 80t134 230l29 180h-340q-134 0 -220 -60.5t-106 -181.5q-18 -112 53 -180t197 -68z" />
    <glyph glyph-name="Aogonek" unicode="&#x104;" horiz-adv-x="1517" 
d="M68 0h-111l801 1495h221l342 -1489l18 12l60 39l33 -57l-62 -41q-164 -117 -184 -246q-10 -64 20 -98.5t90 -34.5q48 0 103 19l-15 -86q-49 -19 -104 -19q-94 0 -145.5 57t-36.5 154q24 155 215 295h-105l-116 504h-756zM389 604h680l-182 791h-76z" />
    <glyph glyph-name="aogonek" unicode="&#x105;" horiz-adv-x="1150" 
d="M401 -29q-164 0 -256.5 94t-66.5 244q25 166 146.5 248t310.5 82h329l13 78q19 119 -51.5 194.5t-196.5 75.5q-168 0 -318 -18l15 98q131 18 274 18q190 0 298.5 -106.5t82.5 -278.5l-109 -680l46 35l32 -55l-57 -41q-160 -121 -180 -242q-17 -123 102 -123q45 0 100 19
l-14 -84q-47 -18 -100 -18q-92 0 -139.5 51.5t-34.5 146.5q27 154 217 291h-64l37 217q-117 -246 -416 -246zM434 61q154 0 253 80t134 230l29 180h-340q-134 0 -220 -60.5t-106 -181.5q-18 -112 53 -180t197 -68z" />
    <glyph glyph-name="Cacute" unicode="&#x106;" horiz-adv-x="1624" 
d="M999 1632h-108l287 301h127zM764 -35q-215 0 -368.5 99.5t-219.5 275t-31 395.5l7 31q58 363 275 565.5t570 202.5q261 0 416 -143.5t146 -389.5h-113q7 201 -121 316t-344 115q-302 0 -486 -180.5t-235 -501.5q-31 -193 22 -348.5t183 -244.5t315 -89q478 0 617 430h110
q-83 -267 -270.5 -400t-472.5 -133z" />
    <glyph glyph-name="cacute" unicode="&#x107;" horiz-adv-x="1232" 
d="M750 1253h-99l236 387h117zM571 -35q-156 0 -266 73.5t-155.5 202t-20.5 289.5l4 21q40 264 200.5 410.5t418.5 146.5q191 0 305.5 -102t111.5 -281h-106q-1 134 -91 209.5t-237 75.5q-207 0 -333 -124t-162 -345q-31 -206 64 -340.5t284 -134.5q352 0 432 292h106
q-55 -198 -197 -295.5t-358 -97.5z" />
    <glyph glyph-name="Ccircumflex" unicode="&#x108;" horiz-adv-x="1624" 
d="M756 1632h-105l287 301h147l195 -301h-106l-154 238h-37zM764 -35q-215 0 -368.5 99.5t-219.5 275t-31 395.5l7 31q58 363 275 565.5t570 202.5q261 0 416 -143.5t146 -389.5h-113q7 201 -121 316t-344 115q-302 0 -486 -180.5t-235 -501.5q-31 -193 22 -348.5
t183 -244.5t315 -89q478 0 617 430h110q-83 -267 -270.5 -400t-472.5 -133z" />
    <glyph glyph-name="ccircumflex" unicode="&#x109;" horiz-adv-x="1232" 
d="M526 1253h-98l281 387h141l160 -387h-97l-133 324h-16zM571 -35q-156 0 -266 73.5t-155.5 202t-20.5 289.5l4 21q40 264 200.5 410.5t418.5 146.5q191 0 305.5 -102t111.5 -281h-106q-1 134 -91 209.5t-237 75.5q-207 0 -333 -124t-162 -345q-31 -206 64 -340.5
t284 -134.5q352 0 432 292h106q-55 -198 -197 -295.5t-358 -97.5z" />
    <glyph glyph-name="Cdotaccent" unicode="&#x10a;" horiz-adv-x="1624" 
d="M979 1690q-44 0 -65 24t-15 66q6 40 35.5 65t73.5 25q42 0 63.5 -25t15.5 -65q-8 -42 -36 -66t-72 -24zM764 -35q-215 0 -368.5 99.5t-219.5 275t-31 395.5l7 31q58 363 275 565.5t570 202.5q261 0 416 -143.5t146 -389.5h-113q7 201 -121 316t-344 115
q-302 0 -486 -180.5t-235 -501.5q-31 -193 22 -348.5t183 -244.5t315 -89q478 0 617 430h110q-83 -267 -270.5 -400t-472.5 -133z" />
    <glyph glyph-name="cdotaccent" unicode="&#x10b;" horiz-adv-x="1232" 
d="M741 1333q-44 0 -62.5 23t-12.5 63q5 38 32.5 62t71.5 24t64 -24t14 -62q-6 -39 -34 -62.5t-73 -23.5zM571 -35q-156 0 -266 73.5t-155.5 202t-20.5 289.5l4 21q40 264 200.5 410.5t418.5 146.5q191 0 305.5 -102t111.5 -281h-106q-1 134 -91 209.5t-237 75.5
q-207 0 -333 -124t-162 -345q-31 -206 64 -340.5t284 -134.5q352 0 432 292h106q-55 -198 -197 -295.5t-358 -97.5z" />
    <glyph glyph-name="Ccaron" unicode="&#x10c;" horiz-adv-x="1624" 
d="M1036 1632h-145l-189 301h109l145 -237h37l213 237h105zM764 -35q-215 0 -368.5 99.5t-219.5 275t-31 395.5l7 31q58 363 275 565.5t570 202.5q261 0 416 -143.5t146 -389.5h-113q7 201 -121 316t-344 115q-302 0 -486 -180.5t-235 -501.5q-31 -193 22 -348.5t183 -244.5
t315 -89q478 0 617 430h110q-83 -267 -270.5 -400t-472.5 -133z" />
    <glyph glyph-name="ccaron" unicode="&#x10d;" horiz-adv-x="1232" 
d="M791 1253h-140l-155 387h98l129 -323h16l219 323h95zM571 -35q-156 0 -266 73.5t-155.5 202t-20.5 289.5l4 21q40 264 200.5 410.5t418.5 146.5q191 0 305.5 -102t111.5 -281h-106q-1 134 -91 209.5t-237 75.5q-207 0 -333 -124t-162 -345q-31 -206 64 -340.5t284 -134.5
q352 0 432 292h106q-55 -198 -197 -295.5t-358 -97.5z" />
    <glyph glyph-name="Dcaron" unicode="&#x10e;" horiz-adv-x="1638" 
d="M969 1632h-148l-186 301h106l146 -237h39l211 237h104zM633 -6h-500l238 1507h501q221 0 383 -92.5t235.5 -261t39.5 -381.5l-6 -33q-57 -357 -289.5 -548t-601.5 -191zM868 1399h-403l-205 -1303h402q313 0 508 170.5t245 483.5q29 186 -30 334.5t-194 231.5t-323 83z
" />
    <glyph glyph-name="dcaron" unicode="&#x10f;" horiz-adv-x="1390" 
d="M1507 1198h-86l74 467h98zM561 -35q-153 0 -260.5 73t-152 200.5t-19.5 287.5l2 21q42 266 198.5 413.5t411.5 147.5q146 0 247 -70t140 -192l105 649h108l-237 -1495h-86l39 244q-73 -135 -199 -207t-297 -72zM588 63q203 0 330 111t161 313l17 107q29 182 -72.5 299
t-286.5 117q-210 0 -336.5 -124.5t-162.5 -348.5q-31 -204 65 -339t285 -135z" />
    <glyph glyph-name="Dcroat" unicode="&#x110;" horiz-adv-x="1638" 
d="M633 -6h-500l111 706h-135l14 95h137l111 706h501q221 0 383 -92.5t235.5 -261t39.5 -381.5l-6 -33q-57 -357 -289.5 -548t-601.5 -191zM834 700h-480l-94 -604h402q313 0 508 170.5t245 483.5q29 186 -30 334.5t-194 231.5t-323 83h-403l-94 -604h477z" />
    <glyph glyph-name="dcroat" unicode="&#x111;" horiz-adv-x="1390" 
d="M561 -35q-153 0 -260.5 73t-152 200.5t-19.5 287.5l2 21q42 266 198.5 413.5t411.5 147.5q146 0 247 -70t140 -192l68 424h-375l13 82h376l23 143h108l-22 -143h178l-12 -82h-178l-203 -1270h-86l39 244q-73 -135 -199 -207t-297 -72zM588 63q203 0 330 111t161 313
l17 107q29 182 -72.5 299t-286.5 117q-210 0 -336.5 -124.5t-162.5 -348.5q-31 -204 65 -339t285 -135z" />
    <glyph glyph-name="Emacron" unicode="&#x112;" horiz-adv-x="1239" 
d="M1247 1739h-592l13 84h594zM1096 0h-846l237 1495h822l-17 -100h-710l-93 -584h662l-16 -102h-662l-96 -609h735z" />
    <glyph glyph-name="emacron" unicode="&#x113;" horiz-adv-x="1239" 
d="M989 1382h-497l12 86h497zM569 -35q-155 0 -264 73.5t-154 202t-20 289.5l2 21q42 264 196.5 410.5t407.5 146.5q221 0 340 -143.5t82 -364.5l-10 -74h-916q-28 -201 68.5 -332t284.5 -131q153 0 254.5 57.5t150.5 186.5h105q-126 -342 -527 -342zM723 1010
q-187 0 -306.5 -103.5t-166.5 -290.5h807q15 173 -76 283.5t-258 110.5z" />
    <glyph glyph-name="Ebreve" unicode="&#x114;" horiz-adv-x="1239" 
d="M909 1618q-148 0 -208.5 85.5t-47.5 229.5h84q-17 -235 185 -235q208 0 262 235h80q-32 -144 -119.5 -229.5t-235.5 -85.5zM1096 0h-846l237 1495h822l-17 -100h-710l-93 -584h662l-16 -102h-662l-96 -609h735z" />
    <glyph glyph-name="ebreve" unicode="&#x115;" horiz-adv-x="1239" 
d="M705 1243q-268 0 -220 397h86q-14 -161 18.5 -239t127.5 -78q96 0 155.5 79.5t92.5 237.5h82q-73 -397 -342 -397zM569 -35q-155 0 -264 73.5t-154 202t-20 289.5l2 21q42 264 196.5 410.5t407.5 146.5q221 0 340 -143.5t82 -364.5l-10 -74h-916q-28 -201 68.5 -332
t284.5 -131q153 0 254.5 57.5t150.5 186.5h105q-126 -342 -527 -342zM723 1010q-187 0 -306.5 -103.5t-166.5 -290.5h807q15 173 -76 283.5t-258 110.5z" />
    <glyph glyph-name="Edotaccent" unicode="&#x116;" horiz-adv-x="1239" 
d="M940 1690q-44 0 -65 24t-15 66q6 40 35.5 65t71.5 25q44 0 65 -25t15 -65q-6 -41 -35 -65.5t-72 -24.5zM1096 0h-846l237 1495h822l-17 -100h-710l-93 -584h662l-16 -102h-662l-96 -609h735z" />
    <glyph glyph-name="edotaccent" unicode="&#x117;" horiz-adv-x="1239" 
d="M729 1333q-45 0 -64.5 23.5t-13.5 62.5q6 38 33.5 62t71.5 24t64 -24t14 -62q-5 -39 -32.5 -62.5t-72.5 -23.5zM569 -35q-155 0 -264 73.5t-154 202t-20 289.5l2 21q42 264 196.5 410.5t407.5 146.5q221 0 340 -143.5t82 -364.5l-10 -74h-916q-28 -201 68.5 -332
t284.5 -131q153 0 254.5 57.5t150.5 186.5h105q-126 -342 -527 -342zM723 1010q-187 0 -306.5 -103.5t-166.5 -290.5h807q15 173 -76 283.5t-258 110.5z" />
    <glyph glyph-name="Eogonek" unicode="&#x118;" horiz-adv-x="1239" 
d="M940 -506q-94 0 -145.5 57t-36.5 154q24 155 215 295h-723l237 1495h822l-17 -100h-710l-93 -584h662l-16 -102h-662l-96 -609h735l-16 -100h-4l-62 -41q-164 -117 -184 -246q-10 -64 20 -98.5t90 -34.5q48 0 103 19l-15 -86q-49 -19 -104 -19z" />
    <glyph glyph-name="eogonek" unicode="&#x119;" horiz-adv-x="1239" 
d="M569 -35q-155 0 -264 73.5t-154 202t-20 289.5l2 21q42 264 196.5 410.5t407.5 146.5q221 0 340 -143.5t82 -364.5l-10 -74h-916q-28 -201 68.5 -332t284.5 -131q153 0 254.5 57.5t150.5 186.5h105q-55 -148 -160 -231l16 -29l-57 -41q-160 -118 -180 -242
q-9 -61 18.5 -91.5t83.5 -30.5q47 0 103 18l-15 -84q-49 -18 -102 -18q-91 0 -139 52.5t-35 147.5q22 125 149 236q-91 -29 -209 -29zM723 1010q-187 0 -306.5 -103.5t-166.5 -290.5h807q15 173 -76 283.5t-258 110.5z" />
    <glyph glyph-name="Ecaron" unicode="&#x11a;" horiz-adv-x="1239" 
d="M983 1632h-145l-189 301h109l145 -237h37l213 237h104zM1096 0h-846l237 1495h822l-17 -100h-710l-93 -584h662l-16 -102h-662l-96 -609h735z" />
    <glyph glyph-name="ecaron" unicode="&#x11b;" horiz-adv-x="1239" 
d="M776 1253h-137l-158 387h99l129 -323h16l219 323h96zM569 -35q-155 0 -264 73.5t-154 202t-20 289.5l2 21q42 264 196.5 410.5t407.5 146.5q221 0 340 -143.5t82 -364.5l-10 -74h-916q-28 -201 68.5 -332t284.5 -131q153 0 254.5 57.5t150.5 186.5h105
q-126 -342 -527 -342zM723 1010q-187 0 -306.5 -103.5t-166.5 -290.5h807q15 173 -76 283.5t-258 110.5z" />
    <glyph glyph-name="Gcircumflex" unicode="&#x11c;" horiz-adv-x="1701" 
d="M752 1632h-105l285 301h149l195 -301h-109l-151 238h-39zM776 -35q-219 0 -375.5 99.5t-224.5 275.5t-33 397l7 33q58 362 274 563t567 201q261 0 414 -143.5t143 -389.5h-112q7 200 -120 315.5t-341 115.5q-301 0 -483.5 -179t-233.5 -499q-31 -195 24.5 -351
t189 -245.5t321.5 -89.5q166 0 288 42t222 142l53 332h-537l15 94h782l-14 -94h-140l-57 -365q-130 -139 -278 -196.5t-351 -57.5z" />
    <glyph glyph-name="gcircumflex" unicode="&#x11d;" horiz-adv-x="1368" 
d="M567 1253h-98l281 387h141l160 -387h-97l-133 324h-16zM465 -420q-144 0 -295 25l16 96q167 -27 303 -27q209 0 339.5 113t162.5 319l19 115q-149 -246 -469 -246q-151 0 -257 73.5t-149 200.5t-18 286l2 20q42 262 196.5 407.5t407.5 145.5q156 0 260.5 -78.5
t138.5 -212.5l41 258h88l-153 -969q-41 -255 -205.5 -390.5t-427.5 -135.5zM571 76q202 0 327.5 110t156.5 310l18 104q28 182 -70.5 298t-281.5 116q-208 0 -333.5 -124t-160.5 -345q-21 -133 13 -239.5t120.5 -168t210.5 -61.5z" />
    <glyph glyph-name="Gbreve" unicode="&#x11e;" horiz-adv-x="1701" 
d="M956 1618q-148 0 -207.5 85t-48.5 230h86q-21 -235 185 -235q205 0 262 235h80q-31 -143 -119.5 -229t-237.5 -86zM776 -35q-219 0 -375.5 99.5t-224.5 275.5t-33 397l7 33q58 362 274 563t567 201q261 0 414 -143.5t143 -389.5h-112q7 200 -120 315.5t-341 115.5
q-301 0 -483.5 -179t-233.5 -499q-31 -195 24.5 -351t189 -245.5t321.5 -89.5q166 0 288 42t222 142l53 332h-537l15 94h782l-14 -94h-140l-57 -365q-130 -139 -278 -196.5t-351 -57.5z" />
    <glyph glyph-name="gbreve" unicode="&#x11f;" horiz-adv-x="1368" 
d="M760 1243q-267 0 -219 397h86q-16 -160 17 -238.5t128 -78.5t154 79t92 238h84q-73 -397 -342 -397zM465 -420q-144 0 -295 25l16 96q167 -27 303 -27q209 0 339.5 113t162.5 319l19 115q-149 -246 -469 -246q-151 0 -257 73.5t-149 200.5t-18 286l2 20
q42 262 196.5 407.5t407.5 145.5q156 0 260.5 -78.5t138.5 -212.5l41 258h88l-153 -969q-41 -255 -205.5 -390.5t-427.5 -135.5zM571 76q202 0 327.5 110t156.5 310l18 104q28 182 -70.5 298t-281.5 116q-208 0 -333.5 -124t-160.5 -345q-21 -133 13 -239.5t120.5 -168
t210.5 -61.5z" />
    <glyph glyph-name="Gdotaccent" unicode="&#x120;" horiz-adv-x="1701" 
d="M975 1690q-44 0 -65 24t-15 66q6 40 35 65t71 25q44 0 65 -25t15 -65q-6 -41 -34.5 -65.5t-71.5 -24.5zM776 -35q-219 0 -375.5 99.5t-224.5 275.5t-33 397l7 33q58 362 274 563t567 201q261 0 414 -143.5t143 -389.5h-112q7 200 -120 315.5t-341 115.5
q-301 0 -483.5 -179t-233.5 -499q-31 -195 24.5 -351t189 -245.5t321.5 -89.5q166 0 288 42t222 142l53 332h-537l15 94h782l-14 -94h-140l-57 -365q-130 -139 -278 -196.5t-351 -57.5z" />
    <glyph glyph-name="gdotaccent" unicode="&#x121;" horiz-adv-x="1368" 
d="M782 1333q-44 0 -62.5 23t-12.5 63q5 38 32.5 62t71.5 24t64 -24t14 -62q-6 -39 -34 -62.5t-73 -23.5zM465 -420q-144 0 -295 25l16 96q167 -27 303 -27q209 0 339.5 113t162.5 319l19 115q-149 -246 -469 -246q-151 0 -257 73.5t-149 200.5t-18 286l2 20
q42 262 196.5 407.5t407.5 145.5q156 0 260.5 -78.5t138.5 -212.5l41 258h88l-153 -969q-41 -255 -205.5 -390.5t-427.5 -135.5zM571 76q202 0 327.5 110t156.5 310l18 104q28 182 -70.5 298t-281.5 116q-208 0 -333.5 -124t-160.5 -345q-21 -133 13 -239.5t120.5 -168
t210.5 -61.5z" />
    <glyph glyph-name="Gcommaaccent" unicode="&#x122;" horiz-adv-x="1701" 
d="M776 -35q-219 0 -375.5 99.5t-224.5 275.5t-33 397l7 33q58 362 274 563t567 201q261 0 414 -143.5t143 -389.5h-112q7 200 -120 315.5t-341 115.5q-301 0 -483.5 -179t-233.5 -499q-31 -195 24.5 -351t189 -245.5t321.5 -89.5q166 0 288 42t222 142l53 332h-537l15 94
h782l-14 -94h-140l-57 -365q-130 -139 -278 -196.5t-351 -57.5zM709 -543h-17l10 66h19q138 0 168 184l4 25q-26 -23 -62 -23t-56 24t-13 64q6 41 36 65.5t70 24.5q55 0 81.5 -42t13.5 -124l-2 -10q-20 -126 -86 -190t-166 -64z" />
    <glyph glyph-name="gcommaaccent" unicode="&#x123;" horiz-adv-x="1368" 
d="M768 1241q-114 0 -88 178l2 8q39 244 246 244h10l-12 -63h-11q-135 0 -161 -172l-6 -41q25 18 55 18q35 0 54.5 -22t12.5 -62q-6 -41 -34 -64.5t-68 -23.5zM465 -420q-144 0 -295 25l16 96q167 -27 303 -27q209 0 339.5 113t162.5 319l19 115q-149 -246 -469 -246
q-151 0 -257 73.5t-149 200.5t-18 286l2 20q42 262 196.5 407.5t407.5 145.5q156 0 260.5 -78.5t138.5 -212.5l41 258h88l-153 -969q-41 -255 -205.5 -390.5t-427.5 -135.5zM571 76q202 0 327.5 110t156.5 310l18 104q28 182 -70.5 298t-281.5 116q-208 0 -333.5 -124
t-160.5 -345q-21 -133 13 -239.5t120.5 -168t210.5 -61.5z" />
    <glyph glyph-name="Hbar" unicode="&#x126;" horiz-adv-x="1654" 
d="M242 0h-111l188 1188h-141l15 92h141l35 215h110l-35 -215h934l35 215h111l-35 -215h141l-14 -92h-141l-189 -1188h-110l108 688h-934zM367 791h933l64 397h-934z" />
    <glyph glyph-name="hbar" unicode="&#x127;" horiz-adv-x="1292" 
d="M317 0h-108l203 1270h-195l12 82h195l22 143h109l-23 -143h361l-12 -82h-361l-63 -400q129 234 403 234h4q121 0 204.5 -62t115 -168.5t10.5 -238.5l-100 -635h-109l105 659q24 149 -51 247t-218 98q-167 0 -269.5 -94.5t-129.5 -264.5z" />
    <glyph glyph-name="Itilde" unicode="&#x128;" horiz-adv-x="618" 
d="M573 1688q-43 0 -79.5 15.5t-58.5 33.5t-55.5 33.5t-70.5 15.5q-44 0 -87.5 -22.5t-74.5 -65.5l-32 61q34 52 91 82.5t122 30.5q43 0 79 -15.5t58 -33.5t54.5 -33.5t68.5 -15.5q100 0 164 88l32 -62q-39 -52 -94 -82t-117 -30zM246 0h-111l238 1495h110z" />
    <glyph glyph-name="itilde" unicode="&#x129;" horiz-adv-x="591" 
d="M467 1331q-41 0 -76 16.5t-55.5 36t-51 36t-63.5 16.5q-74 0 -147 -86l-29 65q83 107 193 107q43 0 78.5 -16.5t56 -36t50.5 -36t62 -16.5q77 0 150 86l27 -67q-82 -105 -195 -105zM293 0h-109l156 981h-180l14 94h289l-14 -94z" />
    <glyph glyph-name="Imacron" unicode="&#x12a;" horiz-adv-x="618" 
d="M737 1739h-592l13 84h592zM246 0h-111l238 1495h110z" />
    <glyph glyph-name="imacron" unicode="&#x12b;" horiz-adv-x="591" 
d="M598 1382h-498l13 86h497zM293 0h-109l156 981h-180l14 94h289l-14 -94z" />
    <glyph glyph-name="Ibreve" unicode="&#x12c;" horiz-adv-x="618" 
d="M412 1618q-148 0 -208.5 85.5t-47.5 229.5h84q-17 -235 184 -235q208 0 262 235h82q-31 -144 -119 -229.5t-237 -85.5zM246 0h-111l238 1495h110z" />
    <glyph glyph-name="ibreve" unicode="&#x12d;" horiz-adv-x="591" 
d="M313 1243q-267 0 -219 397h86q-14 -161 18.5 -239t127.5 -78q96 0 155 79t92 238h82q-73 -397 -342 -397zM293 0h-109l156 981h-180l14 94h289l-14 -94z" />
    <glyph glyph-name="Iogonek" unicode="&#x12e;" horiz-adv-x="618" 
d="M207 -506q-94 0 -145.5 57t-36.5 154q24 155 215 295h-105l238 1495h110l-237 -1491q8 6 20 14l60 39l32 -57l-61 -41q-164 -117 -184 -246q-10 -64 20 -98.5t90 -34.5q48 0 103 19l-15 -86q-49 -19 -104 -19z" />
    <glyph glyph-name="iogonek" unicode="&#x12f;" horiz-adv-x="591" 
d="M369 1300q-43 0 -62.5 23.5t-13.5 62.5t32.5 63t69.5 24t62.5 -24.5t13.5 -62.5q-5 -39 -32 -62.5t-70 -23.5zM182 -489q-92 0 -139.5 51.5t-34.5 146.5q27 156 219 291h-75l155 981h-178l14 94h289l-14 -94l-152 -952l35 26l31 -55l-58 -41q-160 -121 -180 -242
q-9 -62 19 -92.5t84 -30.5q43 0 102 19l-14 -84q-50 -18 -103 -18z" />
    <glyph glyph-name="Idotaccent" unicode="&#x130;" horiz-adv-x="618" 
d="M428 1690q-43 0 -64 24.5t-14 65.5q6 40 34.5 65t72.5 25t65 -25t15 -65q-6 -41 -35.5 -65.5t-73.5 -24.5zM246 0h-111l238 1495h110z" />
    <glyph glyph-name="dotlessi" unicode="&#x131;" horiz-adv-x="591" 
d="M293 0h-109l156 981h-180l14 94h289l-14 -94z" />
    <glyph glyph-name="Jcircumflex" unicode="&#x134;" horiz-adv-x="1302" 
d="M584 1632h-105l285 301h149l195 -301h-109l-151 238h-39zM459 -35q-217 0 -333 142.5t-81 363.5l8 55h111l-10 -73q-28 -167 63 -276t258 -109q185 0 300.5 100.5t146.5 284.5l147 942h-678l17 100h788l-10 -63l-154 -961q-37 -241 -185 -373.5t-388 -132.5z" />
    <glyph glyph-name="jcircumflex" unicode="&#x135;" horiz-adv-x="610" 
d="M139 1253h-98l281 387h141l160 -387h-97l-133 324h-16zM-53 -416h-107l17 101h131q168 0 198 192l174 1104h-184l17 94h288l-14 -94l-170 -1075q-28 -174 -108.5 -248t-241.5 -74z" />
    <glyph glyph-name="Kcommaaccent" unicode="&#x136;" horiz-adv-x="1304" 
d="M242 0h-111l238 1495h110l-119 -745l797 745h129l-733 -686l657 -809h-143l-580 713h-133zM569 -543h-16l12 66h17q68 0 111.5 46.5t56.5 137.5l4 23q-28 -21 -60 -21q-37 0 -57 23.5t-14 64.5t36 65.5t70 24.5q56 0 82.5 -42t13.5 -124l-2 -10q-20 -126 -86.5 -190
t-167.5 -64z" />
    <glyph glyph-name="kcommaaccent" unicode="&#x137;" horiz-adv-x="1077" 
d="M317 0h-108l237 1495h109l-154 -967l592 547h123l-510 -471l455 -604h-133l-379 506h-152zM633 -111q114 0 88 -178l-2 -8q-39 -244 -246 -244h-10l12 64h10q136 0 162 172l6 41q-27 -19 -55 -19q-36 0 -55.5 22t-12.5 62q6 41 34.5 64.5t68.5 23.5z" />
    <glyph glyph-name="Lacute" unicode="&#x139;" horiz-adv-x="1095" 
d="M444 1632h-106l285 301h127zM924 0h-793l238 1495h110l-221 -1395h682z" />
    <glyph glyph-name="lacute" unicode="&#x13a;" horiz-adv-x="536" 
d="M342 1632h-109l287 301h127zM207 0h-109l224 1403h-164l16 92h270l-14 -92z" />
    <glyph glyph-name="Lcommaaccent" unicode="&#x13b;" horiz-adv-x="1095" 
d="M924 0h-793l238 1495h110l-221 -1395h682zM479 -545h-14l10 66h17q140 0 170 184l4 25q-28 -21 -62 -21q-37 0 -56.5 23t-12.5 63q6 41 35 65.5t69 24.5q56 0 82.5 -41.5t13.5 -124.5l-2 -10q-20 -126 -86.5 -190t-167.5 -64z" />
    <glyph glyph-name="lcommaaccent" unicode="&#x13c;" horiz-adv-x="536" 
d="M207 0h-109l224 1403h-164l16 92h270l-14 -92zM125 -111q55 0 79 -44.5t9 -133.5v-8q-42 -244 -246 -244h-10l10 64h13q135 0 159 172l6 41q-22 -19 -55 -19q-35 0 -54 22t-13 62q6 41 34 64.5t68 23.5z" />
    <glyph glyph-name="Lcaron" unicode="&#x13d;" horiz-adv-x="1095" 
d="M844 1212h-86l73 467h99zM924 0h-793l238 1495h110l-221 -1395h682z" />
    <glyph glyph-name="lcaron" unicode="&#x13e;" horiz-adv-x="536" 
d="M653 1198h-86l74 467h98zM207 0h-109l224 1403h-164l16 92h270l-14 -92z" />
    <glyph glyph-name="Lslash" unicode="&#x141;" horiz-adv-x="1095" 
d="M924 0h-793l94 594l-190 -100l16 98l191 100l127 803h110l-117 -741l418 223l-16 -98l-418 -222l-88 -557h682z" />
    <glyph glyph-name="lslash" unicode="&#x142;" horiz-adv-x="536" 
d="M207 0h-109l97 602l-166 -90l14 92l166 90l113 709h-164l16 92h270l-14 -92l-102 -649l161 88l-14 -90l-162 -88z" />
    <glyph glyph-name="Nacute" unicode="&#x143;" horiz-adv-x="1701" 
d="M1026 1632h-106l284 301h127zM238 0h-107l238 1495h192l656 -1395h24l221 1395h109l-238 -1495h-194l-656 1395h-24z" />
    <glyph glyph-name="nacute" unicode="&#x144;" horiz-adv-x="1292" 
d="M760 1253h-96l235 387h115zM231 0h-108l170 1075h88l-39 -244q60 131 167.5 202t260.5 71h6q121 0 205 -62t116 -168.5t11 -238.5l-100 -635h-109l102 659q25 149 -49 247t-215 98q-167 0 -271 -93t-130 -262z" />
    <glyph glyph-name="Ncommaaccent" unicode="&#x145;" horiz-adv-x="1701" 
d="M238 0h-107l238 1495h192l656 -1395h24l221 1395h109l-238 -1495h-194l-656 1395h-24zM637 -543h-16l12 66h16q68 0 111.5 46.5t56.5 137.5l4 23q-28 -21 -59 -21q-37 0 -57.5 23.5t-14.5 64.5t36 65.5t71 24.5q56 0 82.5 -42t13.5 -124l-2 -10q-20 -126 -86.5 -190
t-167.5 -64z" />
    <glyph glyph-name="ncommaaccent" unicode="&#x146;" horiz-adv-x="1292" 
d="M231 0h-108l170 1075h88l-39 -244q60 131 167.5 202t260.5 71h6q121 0 205 -62t116 -168.5t11 -238.5l-100 -635h-109l102 659q25 149 -49 247t-215 98q-167 0 -271 -93t-130 -262zM575 -111q54 0 78 -44.5t9 -133.5v-8q-39 -244 -246 -244h-10l10 64h12q136 0 160 172
l8 41q-25 -19 -57 -19q-35 0 -54 22t-12 62q6 41 34 64.5t68 23.5z" />
    <glyph glyph-name="Ncaron" unicode="&#x147;" horiz-adv-x="1701" 
d="M1065 1632h-147l-187 301h107l145 -237h39l211 237h104zM238 0h-107l238 1495h192l656 -1395h24l221 1395h109l-238 -1495h-194l-656 1395h-24z" />
    <glyph glyph-name="ncaron" unicode="&#x148;" horiz-adv-x="1292" 
d="M801 1253h-137l-156 387h96l131 -323h17l219 323h94zM231 0h-108l170 1075h88l-39 -244q60 131 167.5 202t260.5 71h6q121 0 205 -62t116 -168.5t11 -238.5l-100 -635h-109l102 659q25 149 -49 247t-215 98q-167 0 -271 -93t-130 -262z" />
    <glyph glyph-name="Eng" unicode="&#x14a;" horiz-adv-x="1701" 
d="M889 -436h-219l16 98h227q133 0 207.5 72t98.5 217l8 55h-90l-654 1389h-24l-221 -1395h-107l238 1495h192l656 -1395h24l221 1395h109l-242 -1524q-33 -209 -143 -308t-297 -99z" />
    <glyph glyph-name="eng" unicode="&#x14b;" horiz-adv-x="1292" 
d="M231 0h-108l170 1075h88l-39 -244q60 131 167.5 202t260.5 71h6q121 0 205 -62t116 -168.5t11 -238.5l-100 -635l-15 -86q-28 -173 -112 -249.5t-244 -76.5h-137l14 99h162q85 0 137.5 50t67.5 148l24 156l96 618q25 149 -49 247t-215 98q-167 0 -271 -93t-130 -262z" />
    <glyph glyph-name="Omacron" unicode="&#x14c;" horiz-adv-x="1781" 
d="M1321 1739h-594l14 84h592zM766 -35q-220 0 -377.5 99t-226 274.5t-33.5 396.5l4 33q59 365 287.5 565.5t593.5 200.5q218 0 375.5 -98.5t226.5 -273.5t33 -394l-7 -33q-57 -367 -284 -568.5t-592 -201.5zM782 68q314 0 507 179t245 503q30 194 -26 349.5t-189.5 244
t-321.5 88.5q-315 0 -508 -179t-245 -503q-23 -145 4.5 -271t97 -216.5t182 -142.5t254.5 -52z" />
    <glyph glyph-name="omacron" unicode="&#x14d;" horiz-adv-x="1353" 
d="M1030 1382h-500l15 86h497zM584 -35q-244 0 -375.5 158t-93.5 403l4 21q43 268 210.5 414.5t434.5 146.5q246 0 376.5 -157.5t92.5 -403.5l-4 -21q-41 -268 -208.5 -414.5t-436.5 -146.5zM600 66q218 0 352 124t170 347q33 206 -70.5 339.5t-301.5 133.5
q-217 0 -352 -124.5t-171 -348.5q-33 -204 71 -337.5t302 -133.5z" />
    <glyph glyph-name="Obreve" unicode="&#x14e;" horiz-adv-x="1781" 
d="M995 1618q-148 0 -208.5 85.5t-47.5 229.5h84q-17 -235 185 -235q208 0 262 235h80q-32 -144 -119.5 -229.5t-235.5 -85.5zM766 -35q-220 0 -377.5 99t-226 274.5t-33.5 396.5l4 33q59 365 287.5 565.5t593.5 200.5q218 0 375.5 -98.5t226.5 -273.5t33 -394l-7 -33
q-57 -367 -284 -568.5t-592 -201.5zM782 68q314 0 507 179t245 503q30 194 -26 349.5t-189.5 244t-321.5 88.5q-315 0 -508 -179t-245 -503q-23 -145 4.5 -271t97 -216.5t182 -142.5t254.5 -52z" />
    <glyph glyph-name="obreve" unicode="&#x14f;" horiz-adv-x="1353" 
d="M745 1243q-267 0 -219 397h86q-16 -160 17.5 -238.5t128.5 -78.5t154 79t92 238h83q-73 -397 -342 -397zM584 -35q-244 0 -375.5 158t-93.5 403l4 21q43 268 210.5 414.5t434.5 146.5q246 0 376.5 -157.5t92.5 -403.5l-4 -21q-41 -268 -208.5 -414.5t-436.5 -146.5z
M600 66q218 0 352 124t170 347q33 206 -70.5 339.5t-301.5 133.5q-217 0 -352 -124.5t-171 -348.5q-33 -204 71 -337.5t302 -133.5z" />
    <glyph glyph-name="Ohungarumlaut" unicode="&#x150;" horiz-adv-x="1781" 
d="M1174 1632h-91l220 301h110zM862 1632h-90l221 301h113zM766 -35q-220 0 -377.5 99t-226 274.5t-33.5 396.5l4 33q59 365 287.5 565.5t593.5 200.5q218 0 375.5 -98.5t226.5 -273.5t33 -394l-7 -33q-57 -367 -284 -568.5t-592 -201.5zM782 68q314 0 507 179t245 503
q30 194 -26 349.5t-189.5 244t-321.5 88.5q-315 0 -508 -179t-245 -503q-23 -145 4.5 -271t97 -216.5t182 -142.5t254.5 -52z" />
    <glyph glyph-name="ohungarumlaut" unicode="&#x151;" horiz-adv-x="1353" 
d="M938 1253h-92l201 387h108zM633 1253h-92l200 387h109zM584 -35q-244 0 -375.5 158t-93.5 403l4 21q43 268 210.5 414.5t434.5 146.5q246 0 376.5 -157.5t92.5 -403.5l-4 -21q-41 -268 -208.5 -414.5t-436.5 -146.5zM600 66q218 0 352 124t170 347q33 206 -70.5 339.5
t-301.5 133.5q-217 0 -352 -124.5t-171 -348.5q-33 -204 71 -337.5t302 -133.5z" />
    <glyph glyph-name="OE" unicode="&#x152;" horiz-adv-x="2177" 
d="M788 -35q-111 0 -207 23t-166.5 63.5t-127.5 97t-91 124t-55.5 144t-21.5 156.5t10 162l4 31q24 151 97 288t186 244.5t274.5 171.5t347.5 64q169 0 291 -39h799l-17 -100h-712l-92 -584h663l-16 -102h-662l-96 -609h735l-16 -100h-830q-128 -35 -297 -35zM805 66
q159 0 280 36l205 1295q-119 35 -268 35q-156 0 -292 -53t-234.5 -146t-163.5 -216.5t-88 -266.5q-16 -92 -8.5 -178.5t31 -162.5t71.5 -139t113 -108.5t155.5 -70.5t198.5 -25z" />
    <glyph glyph-name="oe" unicode="&#x153;" horiz-adv-x="2242" 
d="M584 -35q-88 0 -163.5 22.5t-128.5 61.5t-94 93t-60.5 116t-27 130.5t6.5 137.5l2 21q17 108 71 208t135.5 179t196 126.5t242.5 47.5q184 0 297 -91.5t147 -240.5q76 150 207.5 241t310.5 91q95 0 173 -28t128 -76t84 -113t40.5 -138.5t-3.5 -152.5l-12 -74h-913
q-9 -76 -4.5 -144.5t31 -126.5t68.5 -100t108 -65.5t149 -23.5q149 0 257 67.5t146 171.5h107q-60 -155 -199 -247.5t-327 -92.5q-189 0 -294 92.5t-132 243.5q-79 -150 -220 -243t-329 -93zM1710 1010q-177 0 -299.5 -110t-169.5 -284h805q18 176 -71 285t-265 109zM600 66
q138 0 252 66.5t181 172t87 232.5q21 130 -14.5 236.5t-128.5 171.5t-229 65q-203 0 -346 -136t-175 -337q-21 -128 13 -233.5t127 -171.5t233 -66z" />
    <glyph glyph-name="Racute" unicode="&#x154;" horiz-adv-x="1382" 
d="M805 1632h-109l287 301h127zM242 0h-111l238 1501h446q212 0 331 -123t89 -319l-4 -25q-29 -183 -139 -292.5t-285 -139.5l393 -602h-135l-383 592h-346zM815 1401h-352l-113 -709h352q172 0 281 92.5t137 262.5q25 155 -61 254.5t-244 99.5z" />
    <glyph glyph-name="racute" unicode="&#x155;" horiz-adv-x="813" 
d="M549 1253h-96l235 387h115zM231 0h-108l170 1075h88l-47 -301q58 149 178 229t295 80h35l-15 -98h-57q-184 0 -299 -100t-143 -283z" />
    <glyph glyph-name="Rcommaaccent" unicode="&#x156;" horiz-adv-x="1382" 
d="M242 0h-111l238 1501h446q212 0 331 -123t89 -319l-4 -25q-29 -183 -139 -292.5t-285 -139.5l393 -602h-135l-383 592h-346zM815 1401h-352l-113 -709h352q172 0 281 92.5t137 262.5q25 155 -61 254.5t-244 99.5zM573 -543h-16l10 66h19q138 0 168 184l4 25
q-26 -23 -62 -23t-56 24t-13 64q6 41 36 65.5t70 24.5q55 0 81 -42t13 -124l-2 -10q-20 -126 -86 -190t-166 -64z" />
    <glyph glyph-name="rcommaaccent" unicode="&#x157;" horiz-adv-x="813" 
d="M231 0h-108l170 1075h88l-47 -301q58 149 178 229t295 80h35l-15 -98h-57q-184 0 -299 -100t-143 -283zM391 -111q55 0 79 -44.5t9 -133.5v-8q-42 -244 -246 -244h-10l10 64h13q136 0 160 172l6 41q-22 -19 -56 -19q-35 0 -54 22t-13 62q6 41 34 64.5t68 23.5z" />
    <glyph glyph-name="Rcaron" unicode="&#x158;" horiz-adv-x="1382" 
d="M842 1632h-146l-188 301h108l146 -237h37l213 237h104zM242 0h-111l238 1501h446q212 0 331 -123t89 -319l-4 -25q-29 -183 -139 -292.5t-285 -139.5l393 -602h-135l-383 592h-346zM815 1401h-352l-113 -709h352q172 0 281 92.5t137 262.5q25 155 -61 254.5t-244 99.5z
" />
    <glyph glyph-name="rcaron" unicode="&#x159;" horiz-adv-x="813" 
d="M590 1253h-137l-156 387h96l131 -323h17l219 323h94zM231 0h-108l170 1075h88l-47 -301q58 149 178 229t295 80h35l-15 -98h-57q-184 0 -299 -100t-143 -283z" />
    <glyph glyph-name="Sacute" unicode="&#x15a;" horiz-adv-x="1441" 
d="M860 1632h-108l286 301h127zM594 -35q-161 0 -282 55.5t-179.5 162.5t-34.5 247h111q-27 -166 88 -264t313 -98q451 0 504 333q22 132 -66.5 213t-248.5 97l-176 14q-177 15 -273 120.5t-69 266.5q33 209 180 315.5t379 106.5q218 0 342 -125.5t92 -325.5h-111
q24 155 -72.5 252t-267.5 97q-178 0 -292.5 -80.5t-139.5 -239.5q-20 -120 53 -196.5t207 -88.5l174 -14q204 -19 316 -128t84 -284q-18 -114 -72 -199t-138 -136t-189 -76t-232 -25z" />
    <glyph glyph-name="sacute" unicode="&#x15b;" horiz-adv-x="1071" 
d="M631 1253h-96l235 387h115zM440 -31q-178 0 -282.5 89t-81.5 239h104q-17 -109 62 -169t215 -60q311 0 348 231q14 88 -47.5 140t-173.5 63l-125 14q-134 15 -207 90.5t-55 192.5q24 156 136 232.5t288 76.5q162 0 255 -83t72 -222h-104q15 96 -53 151.5t-185 55.5
q-270 0 -305 -213q-12 -79 38.5 -127.5t141.5 -59.5l125 -14q154 -16 239.5 -93.5t65.5 -205.5q-28 -168 -152 -248t-319 -80z" />
    <glyph glyph-name="Scircumflex" unicode="&#x15c;" horiz-adv-x="1441" 
d="M616 1632h-104l285 301h149l195 -301h-109l-151 238h-39zM594 -35q-161 0 -282 55.5t-179.5 162.5t-34.5 247h111q-27 -166 88 -264t313 -98q451 0 504 333q22 132 -66.5 213t-248.5 97l-176 14q-177 15 -273 120.5t-69 266.5q33 209 180 315.5t379 106.5
q218 0 342 -125.5t92 -325.5h-111q24 155 -72.5 252t-267.5 97q-178 0 -292.5 -80.5t-139.5 -239.5q-20 -120 53 -196.5t207 -88.5l174 -14q204 -19 316 -128t84 -284q-18 -114 -72 -199t-138 -136t-189 -76t-232 -25z" />
    <glyph glyph-name="scircumflex" unicode="&#x15d;" horiz-adv-x="1071" 
d="M408 1253h-97l281 387h139l160 -387h-96l-133 324h-17zM440 -31q-178 0 -282.5 89t-81.5 239h104q-17 -109 62 -169t215 -60q311 0 348 231q14 88 -47.5 140t-173.5 63l-125 14q-134 15 -207 90.5t-55 192.5q24 156 136 232.5t288 76.5q162 0 255 -83t72 -222h-104
q15 96 -53 151.5t-185 55.5q-270 0 -305 -213q-12 -79 38.5 -127.5t141.5 -59.5l125 -14q154 -16 239.5 -93.5t65.5 -205.5q-28 -168 -152 -248t-319 -80z" />
    <glyph glyph-name="Scedilla" unicode="&#x15e;" horiz-adv-x="1441" 
d="M594 -35q-161 0 -282 55.5t-179.5 162.5t-34.5 247h111q-27 -166 88 -264t313 -98q451 0 504 333q22 132 -66.5 213t-248.5 97l-176 14q-177 15 -273 120.5t-69 266.5q33 209 180 315.5t379 106.5q218 0 342 -125.5t92 -325.5h-111q24 155 -72.5 252t-267.5 97
q-178 0 -292.5 -80.5t-139.5 -239.5q-20 -120 53 -196.5t207 -88.5l174 -14q204 -19 316 -128t84 -284q-30 -187 -152 -292t-317 -134l-17 -104q94 -5 143.5 -51t37.5 -119q-14 -85 -86.5 -135.5t-182.5 -50.5q-87 0 -145 20l12 84q68 -20 148 -20q147 0 165 100
q6 43 -25 68.5t-95 25.5h-64l29 174q-27 -2 -82 -2z" />
    <glyph glyph-name="scedilla" unicode="&#x15f;" horiz-adv-x="1071" 
d="M440 -31q-178 0 -282.5 89t-81.5 239h104q-17 -109 62 -169t215 -60q311 0 348 231q14 88 -47.5 140t-173.5 63l-125 14q-134 15 -207 90.5t-55 192.5q24 156 136 232.5t288 76.5q162 0 255 -83t72 -222h-104q15 96 -53 151.5t-185 55.5q-270 0 -305 -213
q-12 -79 38.5 -127.5t141.5 -59.5l125 -14q154 -16 239.5 -93.5t65.5 -205.5q-47 -276 -352 -320l-16 -100q94 -4 140 -49.5t34 -116.5q-12 -82 -80 -131t-174 -49q-68 0 -135 18l12 82q70 -18 135 -18q139 0 154 96q13 92 -113 92h-61l26 168h-41z" />
    <glyph glyph-name="Scaron" unicode="&#x160;" horiz-adv-x="1441" 
d="M897 1632h-145l-189 301h107l145 -237h39l213 237h104zM594 -35q-161 0 -282 55.5t-179.5 162.5t-34.5 247h111q-27 -166 88 -264t313 -98q451 0 504 333q22 132 -66.5 213t-248.5 97l-176 14q-177 15 -273 120.5t-69 266.5q33 209 180 315.5t379 106.5q218 0 342 -125.5
t92 -325.5h-111q24 155 -72.5 252t-267.5 97q-178 0 -292.5 -80.5t-139.5 -239.5q-20 -120 53 -196.5t207 -88.5l174 -14q204 -19 316 -128t84 -284q-18 -114 -72 -199t-138 -136t-189 -76t-232 -25z" />
    <glyph glyph-name="scaron" unicode="&#x161;" horiz-adv-x="1071" 
d="M672 1253h-137l-158 387h98l129 -323h17l219 323h96zM440 -31q-178 0 -282.5 89t-81.5 239h104q-17 -109 62 -169t215 -60q311 0 348 231q14 88 -47.5 140t-173.5 63l-125 14q-134 15 -207 90.5t-55 192.5q24 156 136 232.5t288 76.5q162 0 255 -83t72 -222h-104
q15 96 -53 151.5t-185 55.5q-270 0 -305 -213q-12 -79 38.5 -127.5t141.5 -59.5l125 -14q154 -16 239.5 -93.5t65.5 -205.5q-28 -168 -152 -248t-319 -80z" />
    <glyph glyph-name="Tcedilla" unicode="&#x162;" horiz-adv-x="1191" 
d="M532 0h-22l-18 -129q94 -5 143 -51t37 -119q-14 -85 -86.5 -135.5t-182.5 -50.5q-87 0 -145 20l12 84q68 -20 148 -20q148 0 166 100q6 43 -25.5 68.5t-95.5 25.5h-64l33 207h-10l221 1395h-479l16 100h1069l-16 -100h-479z" />
    <glyph glyph-name="tcedilla" unicode="&#x163;" horiz-adv-x="854" 
d="M362 -469q-70 0 -137 18l15 82q70 -18 135 -18q138 0 153 96q6 43 -20.5 67.5t-91.5 24.5h-62l31 195q-115 22 -174 108.5t-39 208.5l107 674h-203l12 88h205l55 350h107l-56 -350h404l-12 -88h-406l-109 -692q-15 -91 33.5 -149t139.5 -58h200l-16 -98h-172l-19 -113
q94 -4 140 -49.5t34 -116.5q-14 -83 -81.5 -131.5t-172.5 -48.5z" />
    <glyph glyph-name="Tcaron" unicode="&#x164;" horiz-adv-x="1191" 
d="M774 1632h-147l-187 301h107l145 -237h39l211 237h105zM532 0h-110l221 1395h-479l16 100h1069l-16 -100h-479z" />
    <glyph glyph-name="tcaron" unicode="&#x165;" horiz-adv-x="854" 
d="M688 1284h-86l74 467h98zM633 -10h-178q-146 0 -226 91t-57 232l107 674h-203l12 88h205l55 350h107l-56 -350h404l-12 -88h-406l-109 -692q-15 -91 33.5 -149t139.5 -58h200z" />
    <glyph glyph-name="Tbar" unicode="&#x166;" horiz-adv-x="1191" 
d="M532 0h-110l113 713h-340l14 92h340l94 590h-479l16 100h1069l-16 -100h-479l-95 -590h342l-14 -92h-342z" />
    <glyph glyph-name="tbar" unicode="&#x167;" horiz-adv-x="854" 
d="M633 -10h-178q-146 0 -226 91t-57 232l39 240h-125l12 82h125l56 352h-203l12 88h205l55 350h107l-56 -350h404l-12 -88h-406l-55 -352h432l-12 -82h-433l-41 -258q-15 -91 33.5 -149t139.5 -58h200z" />
    <glyph glyph-name="Utilde" unicode="&#x168;" horiz-adv-x="1638" 
d="M1083 1688q-43 0 -79.5 15.5t-58.5 33.5t-55 33.5t-69 15.5q-100 0 -164 -88l-32 61q34 51 91.5 82t121.5 31q42 0 78.5 -15.5t58.5 -33.5t55 -33.5t70 -15.5q44 0 87.5 22.5t74.5 65.5l34 -62q-39 -52 -95 -82t-118 -30zM616 -35q-173 0 -297.5 78.5t-177.5 217
t-26 312.5l145 922h111l-148 -936q-34 -214 81.5 -352.5t328.5 -138.5q235 0 382.5 128.5t182.5 362.5l150 936h110l-147 -922q-46 -290 -226 -449t-469 -159z" />
    <glyph glyph-name="utilde" unicode="&#x169;" horiz-adv-x="1253" 
d="M834 1331q-42 0 -77 16.5t-55.5 36t-50.5 36t-63 16.5q-78 0 -148 -86l-30 65q83 107 194 107q42 0 77.5 -16.5t56.5 -36t50.5 -36t61.5 -16.5q76 0 149 86l29 -67q-82 -105 -194 -105zM494 -31h-5q-179 0 -266.5 131t-56.5 332l102 643h109l-105 -667q-25 -144 45 -240
t207 -96q161 0 260.5 91.5t126.5 256.5l103 655h110l-170 -1075h-88l39 240q-123 -271 -411 -271z" />
    <glyph glyph-name="Umacron" unicode="&#x16a;" horiz-adv-x="1638" 
d="M1247 1739h-592l13 84h594zM616 -35q-173 0 -297.5 78.5t-177.5 217t-26 312.5l145 922h111l-148 -936q-34 -214 81.5 -352.5t328.5 -138.5q235 0 382.5 128.5t182.5 362.5l150 936h110l-147 -922q-46 -290 -226 -449t-469 -159z" />
    <glyph glyph-name="umacron" unicode="&#x16b;" horiz-adv-x="1253" 
d="M963 1382h-498l12 86h500zM494 -31h-5q-179 0 -266.5 131t-56.5 332l102 643h109l-105 -667q-25 -144 45 -240t207 -96q161 0 260.5 91.5t126.5 256.5l103 655h110l-170 -1075h-88l39 240q-123 -271 -411 -271z" />
    <glyph glyph-name="Ubreve" unicode="&#x16c;" horiz-adv-x="1638" 
d="M922 1618q-148 0 -207.5 85t-48.5 230h86q-21 -235 184 -235t262 235h80q-31 -144 -119 -229.5t-237 -85.5zM616 -35q-173 0 -297.5 78.5t-177.5 217t-26 312.5l145 922h111l-148 -936q-34 -214 81.5 -352.5t328.5 -138.5q235 0 382.5 128.5t182.5 362.5l150 936h110
l-147 -922q-46 -290 -226 -449t-469 -159z" />
    <glyph glyph-name="ubreve" unicode="&#x16d;" horiz-adv-x="1253" 
d="M678 1243q-268 0 -217 397h86q-16 -160 16.5 -238.5t126.5 -78.5q97 0 156 79t92 238h84q-76 -397 -344 -397zM494 -31h-5q-179 0 -266.5 131t-56.5 332l102 643h109l-105 -667q-25 -144 45 -240t207 -96q161 0 260.5 91.5t126.5 256.5l103 655h110l-170 -1075h-88
l39 240q-123 -271 -411 -271z" />
    <glyph glyph-name="Uring" unicode="&#x16e;" horiz-adv-x="1638" 
d="M913 1589q-103 0 -154 61.5t-38 149.5q14 87 85 148t173 61q103 0 154 -60.5t38 -148.5q-14 -87 -85 -149t-173 -62zM924 1661q71 0 116.5 39.5t53.5 99.5q9 60 -23.5 99.5t-103.5 39.5t-115.5 -39.5t-52.5 -99.5q-9 -60 23 -99.5t102 -39.5zM616 -35q-173 0 -297.5 78.5
t-177.5 217t-26 312.5l145 922h111l-148 -936q-34 -214 81.5 -352.5t328.5 -138.5q235 0 382.5 128.5t182.5 362.5l150 936h110l-147 -922q-46 -290 -226 -449t-469 -159z" />
    <glyph glyph-name="uring" unicode="&#x16f;" horiz-adv-x="1253" 
d="M676 1233q-97 0 -148 62t-36 153q14 92 84 154.5t167 62.5t148 -62t37 -155q-14 -91 -84.5 -153t-167.5 -62zM686 1305q67 0 112 39.5t54 103.5q11 64 -22 104.5t-99 40.5q-65 0 -110 -40.5t-56 -104.5q-9 -64 23.5 -103.5t97.5 -39.5zM494 -31h-5q-179 0 -266.5 131
t-56.5 332l102 643h109l-105 -667q-25 -144 45 -240t207 -96q161 0 260.5 91.5t126.5 256.5l103 655h110l-170 -1075h-88l39 240q-123 -271 -411 -271z" />
    <glyph glyph-name="Uhungarumlaut" unicode="&#x170;" horiz-adv-x="1638" 
d="M1100 1632h-90l219 301h112zM791 1632h-91l222 301h110zM616 -35q-173 0 -297.5 78.5t-177.5 217t-26 312.5l145 922h111l-148 -936q-34 -214 81.5 -352.5t328.5 -138.5q235 0 382.5 128.5t182.5 362.5l150 936h110l-147 -922q-46 -290 -226 -449t-469 -159z" />
    <glyph glyph-name="uhungarumlaut" unicode="&#x171;" horiz-adv-x="1253" 
d="M872 1253h-92l201 387h109zM565 1253h-90l201 387h108zM494 -31h-5q-179 0 -266.5 131t-56.5 332l102 643h109l-105 -667q-25 -144 45 -240t207 -96q161 0 260.5 91.5t126.5 256.5l103 655h110l-170 -1075h-88l39 240q-123 -271 -411 -271z" />
    <glyph glyph-name="Uogonek" unicode="&#x172;" horiz-adv-x="1638" 
d="M616 -35q-173 0 -297.5 78.5t-177.5 217t-26 312.5l145 922h111l-148 -936q-34 -214 81.5 -352.5t328.5 -138.5q235 0 382.5 128.5t182.5 362.5l150 936h110l-147 -922q-38 -236 -166.5 -387t-333.5 -200l-49 -35q-163 -114 -184 -246q-10 -63 20 -98t90 -35q50 0 103 18
l-15 -86q-59 -18 -104 -18q-94 0 -146 58t-37 155q22 142 181 268q-16 -2 -54 -2z" />
    <glyph glyph-name="uogonek" unicode="&#x173;" horiz-adv-x="1253" 
d="M494 -31h-5q-179 0 -266.5 131t-56.5 332l102 643h109l-105 -667q-25 -144 45 -240t207 -96q161 0 260.5 91.5t126.5 256.5l103 655h110l-166 -1052l43 32l33 -55l-57 -41q-160 -121 -180 -242q-17 -123 102 -123q45 0 100 19l-14 -84q-47 -18 -100 -18
q-92 0 -139.5 51.5t-34.5 146.5q27 154 217 291h-62l39 240q-123 -271 -411 -271z" />
    <glyph glyph-name="Wcircumflex" unicode="&#x174;" horiz-adv-x="2093" 
d="M944 1632h-104l284 301h150l192 -301h-106l-152 238h-39zM608 0h-229l-184 1495h112l166 -1395h74l530 1327h156l139 -1327h76l577 1395h111l-627 -1495h-231l-141 1315z" />
    <glyph glyph-name="wcircumflex" unicode="&#x175;" horiz-adv-x="1648" 
d="M696 1253h-96l281 387h139l160 -387h-97l-133 324h-16zM506 0h-199l-149 1075h106l135 -983h47l371 946h164l104 -946h48l409 983h103l-453 -1075h-197l-106 967z" />
    <glyph glyph-name="Ycircumflex" unicode="&#x176;" horiz-adv-x="1325" 
d="M555 1632h-104l284 301h150l192 -301h-106l-152 238h-39zM606 0h-108l94 588h-78l-340 907h115l303 -815h137l543 815h110l-606 -907h-76z" />
    <glyph glyph-name="ycircumflex" unicode="&#x177;" horiz-adv-x="1067" 
d="M397 1253h-96l281 387h141l158 -387h-95l-135 324h-16zM55 -418h-116l16 101h123q113 0 190 51.5t127 156.5l66 136h-99l-227 1048h113l198 -952h62l459 952h106l-590 -1218q-68 -139 -172.5 -207t-255.5 -68z" />
    <glyph glyph-name="Ydieresis" unicode="&#x178;" horiz-adv-x="1325" 
d="M563 1690q-43 0 -64 24.5t-14 65.5q6 40 34.5 65t72.5 25t65 -25t15 -65q-6 -41 -35.5 -65.5t-73.5 -24.5zM989 1690q-43 0 -64 24.5t-14 65.5q6 40 34.5 65t72.5 25t65 -25t15 -65q-6 -41 -35.5 -65.5t-73.5 -24.5zM606 0h-108l94 588h-78l-340 907h115l303 -815h137
l543 815h110l-606 -907h-76z" />
    <glyph glyph-name="Zacute" unicode="&#x179;" horiz-adv-x="1349" 
d="M817 1632h-106l284 301h127zM1120 0h-1081l22 154l1137 1216l-6 29h-920l17 96h1036l-25 -154l-1136 -1216l10 -29h963z" />
    <glyph glyph-name="zacute" unicode="&#x17a;" horiz-adv-x="985" 
d="M596 1253h-98l235 387h117zM817 0h-776l20 139l779 826l-11 20h-636l14 90h749l-22 -139l-776 -830l8 -16h665z" />
    <glyph glyph-name="Zdotaccent" unicode="&#x17b;" horiz-adv-x="1349" 
d="M797 1690q-43 0 -64 24.5t-14 65.5q6 41 34.5 65.5t71.5 24.5q44 0 65 -25t15 -65q-6 -41 -35 -65.5t-73 -24.5zM1120 0h-1081l22 154l1137 1216l-6 29h-920l17 96h1036l-25 -154l-1136 -1216l10 -29h963z" />
    <glyph glyph-name="zdotaccent" unicode="&#x17c;" horiz-adv-x="985" 
d="M588 1333q-44 0 -63 23t-13 63q5 38 32.5 62t71.5 24t64 -24t14 -62q-6 -39 -33.5 -62.5t-72.5 -23.5zM817 0h-776l20 139l779 826l-11 20h-636l14 90h749l-22 -139l-776 -830l8 -16h665z" />
    <glyph glyph-name="Zcaron" unicode="&#x17d;" horiz-adv-x="1349" 
d="M856 1632h-147l-187 301h107l145 -237h39l211 237h104zM1120 0h-1081l22 154l1137 1216l-6 29h-920l17 96h1036l-25 -154l-1136 -1216l10 -29h963z" />
    <glyph glyph-name="zcaron" unicode="&#x17e;" horiz-adv-x="985" 
d="M637 1253h-139l-156 387h98l129 -323h17l219 323h94zM817 0h-776l20 139l779 826l-11 20h-636l14 90h749l-22 -139l-776 -830l8 -16h665z" />
    <glyph glyph-name="Aringacute" unicode="&#x1fa;" horiz-adv-x="1517" 
d="M961 2079h-109l287 299h127zM842 1589q-102 0 -153.5 62t-37.5 149q13 87 83.5 148t174.5 61q103 0 154 -61t37 -148q-13 -87 -84 -149t-174 -62zM854 1661q71 0 116 39.5t54 99.5t-23.5 99.5t-103.5 39.5t-116 -39.5t-54 -99.5q-8 -60 24.5 -99.5t102.5 -39.5zM68 0
h-111l801 1495h221l344 -1495h-115l-116 504h-756zM389 604h680l-182 791h-76z" />
    <glyph glyph-name="Scommaaccent" unicode="&#x218;" horiz-adv-x="1441" 
d="M594 -35q-161 0 -282 55.5t-179.5 162.5t-34.5 247h111q-27 -166 88 -264t313 -98q451 0 504 333q22 132 -66.5 213t-248.5 97l-176 14q-177 15 -273 120.5t-69 266.5q33 209 180 315.5t379 106.5q218 0 342 -125.5t92 -325.5h-111q24 155 -72.5 252t-267.5 97
q-178 0 -292.5 -80.5t-139.5 -239.5q-20 -120 53 -196.5t207 -88.5l174 -14q204 -19 316 -128t84 -284q-18 -114 -72 -199t-138 -136t-189 -76t-232 -25zM545 -543h-15l11 66h16q140 0 170 184l4 25q-26 -23 -61 -23q-36 0 -56.5 24t-13.5 64q6 41 35.5 65.5t69.5 24.5
q56 0 82.5 -42t13.5 -124l-2 -10q-20 -126 -86.5 -190t-167.5 -64z" />
    <glyph glyph-name="scommaaccent" unicode="&#x219;" horiz-adv-x="1071" 
d="M440 -31q-178 0 -282.5 89t-81.5 239h104q-17 -109 62 -169t215 -60q311 0 348 231q14 88 -47.5 140t-173.5 63l-125 14q-134 15 -207 90.5t-55 192.5q24 156 136 232.5t288 76.5q162 0 255 -83t72 -222h-104q15 96 -53 151.5t-185 55.5q-270 0 -305 -213
q-12 -79 38.5 -127.5t141.5 -59.5l125 -14q154 -16 239.5 -93.5t65.5 -205.5q-28 -168 -152 -248t-319 -80zM520 -111q54 0 77.5 -44t8.5 -134v-8q-39 -244 -246 -244h-10l10 64h13q135 0 159 172l9 41q-25 -19 -58 -19q-35 0 -53.5 22t-11.5 62q6 41 34 64.5t68 23.5z" />
    <glyph glyph-name="Tcommaaccent" unicode="&#x21a;" horiz-adv-x="1191" 
d="M532 0h-110l221 1395h-479l16 100h1069l-16 -100h-479zM285 -543h-17l11 66h18q138 0 168 184l4 25q-26 -23 -61 -23q-36 0 -56.5 24t-13.5 64q6 41 36 65.5t70 24.5q55 0 81.5 -42t13.5 -124l-2 -10q-20 -126 -86 -190t-166 -64z" />
    <glyph glyph-name="tcommaaccent" unicode="&#x21b;" horiz-adv-x="854" 
d="M633 -10h-178q-146 0 -226 91t-57 232l107 674h-203l12 88h205l55 350h107l-56 -350h404l-12 -88h-406l-109 -692q-15 -91 33.5 -149t139.5 -58h200zM397 -111q55 0 79 -44.5t9 -133.5v-8q-42 -244 -245 -244h-11l11 64h12q136 0 160 172l6 41q-22 -19 -56 -19
q-35 0 -54 22t-13 62q6 41 34 64.5t68 23.5z" />
    <glyph glyph-name="dotlessj" unicode="&#x237;" horiz-adv-x="610" 
d="M-53 -416h-107l17 101h131q168 0 198 192l174 1104h-184l17 94h288l-14 -94l-170 -1075q-28 -174 -108.5 -248t-241.5 -74z" />
    <glyph glyph-name="circumflex" unicode="&#x2c6;" 
d="M166 1253h-96l280 387h139l160 -387h-96l-133 324h-17z" />
    <glyph glyph-name="ring" unicode="&#x2da;" 
d="M283 1233q-96 0 -147.5 62t-37.5 153q14 92 84.5 154.5t167.5 62.5t148.5 -62.5t36.5 -154.5q-14 -91 -84.5 -153t-167.5 -62zM293 1305q67 0 112 39.5t56 103.5q9 64 -23.5 104.5t-97.5 40.5t-111 -40.5t-55 -104.5q-11 -64 21.5 -103.5t97.5 -39.5z" />
    <glyph glyph-name="tilde" unicode="&#x2dc;" 
d="M526 1331q-42 0 -77 16.5t-55 36t-50 36t-63 16.5q-78 0 -148 -86l-31 65q83 107 195 107q42 0 77.5 -16.5t56.5 -36t51.5 -36t62.5 -16.5q74 0 147 86l29 -67q-82 -105 -195 -105z" />
    <glyph glyph-name="gravecomb" unicode="&#x300;" 
d="M375 1253h-101l-145 387h119z" />
    <glyph glyph-name="acutecomb" unicode="&#x301;" 
d="M166 1253h-96l235 387h115z" />
    <glyph glyph-name="circumflexcomb" unicode="&#x302;" 
d="M166 1253h-96l280 387h139l160 -387h-96l-133 324h-17z" />
    <glyph glyph-name="tildecomb" unicode="&#x303;" 
d="M526 1331q-42 0 -77 16.5t-55 36t-50 36t-63 16.5q-78 0 -148 -86l-31 65q83 107 195 107q42 0 77.5 -16.5t56.5 -36t51.5 -36t62.5 -16.5q74 0 147 86l29 -67q-82 -105 -195 -105z" />
    <glyph glyph-name="macroncomb" unicode="&#x304;" 
d="M602 1382h-500l15 86h497z" />
    <glyph glyph-name="brevecomb" unicode="&#x306;" 
d="M348 1243q-267 0 -219 397h86q-14 -161 18 -239t127 -78q96 0 155.5 79.5t92.5 237.5h82q-73 -397 -342 -397z" />
    <glyph glyph-name="dotaccentcomb" unicode="&#x307;" 
d="M182 1333q-44 0 -63 23t-13 63q5 38 33 62t72 24t64 -24t14 -62q-6 -39 -34 -62.5t-73 -23.5z" />
    <glyph glyph-name="dieresiscomb" unicode="&#x308;" 
d="M182 1333q-44 0 -63 23t-13 63q5 38 33 62t72 24t64 -24t14 -62q-6 -39 -34 -62.5t-73 -23.5zM580 1333q-45 0 -64.5 23.5t-13.5 62.5t33 62.5t71 23.5t64 -24t14 -62q-5 -39 -32 -62.5t-72 -23.5z" />
    <glyph glyph-name="ringcomb" unicode="&#x30a;" 
d="M283 1233q-96 0 -147.5 62t-37.5 153q14 92 84.5 154.5t167.5 62.5t148.5 -62.5t36.5 -154.5q-14 -91 -84.5 -153t-167.5 -62zM293 1305q67 0 112 39.5t56 103.5q9 64 -23.5 104.5t-97.5 40.5t-111 -40.5t-55 -104.5q-11 -64 21.5 -103.5t97.5 -39.5z" />
    <glyph glyph-name="hungarumlautcomb" unicode="&#x30b;" 
d="M467 1253h-92l200 387h109zM160 1253h-90l200 387h109z" />
    <glyph glyph-name="caroncomb" unicode="&#x30c;" 
d="M424 1253h-137l-158 387h98l129 -323h17l219 323h96z" />
    <glyph glyph-name="commaturnedabovecomb" unicode="&#x312;" 
d="M180 1241q-114 0 -88 178l2 8q39 244 246 244h10l-12 -63h-10q-136 0 -162 -172l-6 -41q25 18 55 18q36 0 55.5 -22t12.5 -62q-6 -41 -34.5 -64.5t-68.5 -23.5z" />
    <glyph glyph-name="commaaccentcomb" unicode="&#x326;" 
d="M225 -111q54 0 77.5 -44t8.5 -134v-8q-39 -244 -245 -244h-11l11 64h12q136 0 160 172l8 41q-25 -19 -58 -19q-35 0 -53.5 22t-11.5 62q6 41 34 64.5t68 23.5z" />
    <glyph glyph-name="cedillacomb" unicode="&#x327;" 
d="M180 -469q-68 0 -135 18l14 82q70 -18 134 -18q140 0 155 96q5 44 -21.5 68t-90.5 24h-62l35 219h74l-23 -143q94 -4 140 -49.5t34 -116.5q-12 -82 -80 -131t-174 -49z" />
    <glyph glyph-name="ogonekcomb" unicode="&#x328;" 
d="M272 -489q-92 0 -139.5 51.5t-34.5 146.5q26 158 236 303l57 43l31 -55l-57 -41q-161 -121 -181 -242q-9 -62 19 -92.5t84 -30.5q43 0 102 19l-14 -84q-49 -18 -103 -18z" />
    <glyph glyph-name="strokeshortcomb" unicode="&#x335;" 
d="M674 506h-664l13 82h663z" />
    <glyph glyph-name="strokelongcomb" unicode="&#x336;" 
d="M717 688h-725l16 96h725z" />
    <glyph glyph-name="riel-khmer" unicode="&#x17db;" horiz-adv-x="1034" 
d="M541 -10h-138q-160 0 -253 74.5t-72 205.5q46 288 452 291l31 195h-299l14 84h299l9 53q12 78 -47 125q-28 22 -78.5 58.5t-79.5 58.5q-59 46 -62.5 113t41.5 134q44 71 110 97t165 26q113 0 270 -22l-16 -94q-153 24 -283 24q-60 0 -98.5 -15.5t-63.5 -58.5
q-50 -85 9 -133q31 -28 85.5 -64t75.5 -52q91 -67 72 -197l-10 -53h274l-14 -84h-272zM414 84h43l59 387q-70 -1 -123.5 -10t-100.5 -31t-76 -62t-38 -98q-14 -89 53 -137.5t183 -48.5z" />
    <glyph glyph-name="Wgrave" unicode="&#x1e80;" horiz-adv-x="2093" 
d="M1223 1632h-111l-211 301h129zM608 0h-229l-184 1495h112l166 -1395h74l530 1327h156l139 -1327h76l577 1395h111l-627 -1495h-231l-141 1315z" />
    <glyph glyph-name="wgrave" unicode="&#x1e81;" horiz-adv-x="1648" 
d="M956 1253h-100l-145 387h118zM506 0h-199l-149 1075h106l135 -983h47l371 946h164l104 -946h48l409 983h103l-453 -1075h-197l-106 967z" />
    <glyph glyph-name="Wacute" unicode="&#x1e82;" horiz-adv-x="2093" 
d="M1186 1632h-107l285 301h127zM608 0h-229l-184 1495h112l166 -1395h74l530 1327h156l139 -1327h76l577 1395h111l-627 -1495h-231l-141 1315z" />
    <glyph glyph-name="wacute" unicode="&#x1e83;" horiz-adv-x="1648" 
d="M920 1253h-97l236 387h115zM506 0h-199l-149 1075h106l135 -983h47l371 946h164l104 -946h48l409 983h103l-453 -1075h-197l-106 967z" />
    <glyph glyph-name="Wdieresis" unicode="&#x1e84;" horiz-adv-x="2093" 
d="M952 1690q-43 0 -64 24.5t-14 65.5q6 40 34.5 65t72.5 25t65 -25t15 -65q-6 -41 -35.5 -65.5t-73.5 -24.5zM1378 1690q-43 0 -64 24.5t-14 65.5q6 40 34.5 65t72.5 25t65 -25t15 -65q-6 -41 -35.5 -65.5t-73.5 -24.5zM608 0h-229l-184 1495h112l166 -1395h74l530 1327
h156l139 -1327h76l577 1395h111l-627 -1495h-231l-141 1315z" />
    <glyph glyph-name="wdieresis" unicode="&#x1e85;" horiz-adv-x="1648" 
d="M715 1333q-44 0 -63.5 23t-14.5 63q6 39 33 62.5t71 23.5t64.5 -24t15.5 -62q-6 -39 -33.5 -62.5t-72.5 -23.5zM1110 1333q-44 0 -63 23t-13 63q5 38 33 62t72 24t64 -24t14 -62q-6 -39 -34 -62.5t-73 -23.5zM506 0h-199l-149 1075h106l135 -983h47l371 946h164l104 -946
h48l409 983h103l-453 -1075h-197l-106 967z" />
    <glyph glyph-name="Germandbls" unicode="&#x1e9e;" horiz-adv-x="2772" 
d="M588 -33q-243 0 -384 127t-108 336h111q-17 -110 30.5 -192.5t143 -125t223.5 -42.5q206 0 336 79t158 252q21 132 -67 213t-247 97l-168 14q-176 18 -270 121.5t-70 263.5q33 209 178.5 314.5t374.5 105.5q216 0 338 -124t90 -323h-110q24 153 -71 248.5t-263 95.5
q-176 0 -288 -79.5t-138 -237.5q-18 -119 53.5 -195t204.5 -88l168 -14q201 -19 311.5 -128t83.5 -284q-24 -149 -110.5 -248t-214 -142.5t-295.5 -43.5zM1937 -33q-158 0 -275.5 55.5t-174.5 162t-35 245.5h109q-17 -110 30 -192.5t141.5 -125t221.5 -42.5q205 0 334 79.5
t157 251.5q21 132 -67 213t-246 97l-172 14q-175 18 -269.5 121.5t-68.5 263.5q33 209 178.5 314.5t374.5 105.5q218 0 340 -124t90 -323h-111q24 153 -71 248.5t-264 95.5q-176 0 -288 -79.5t-138 -237.5q-18 -119 53 -195t203 -88l172 -14q201 -19 311.5 -128t83.5 -284
q-18 -113 -71 -197t-135 -135.5t-185 -76.5t-228 -25z" />
    <glyph glyph-name="Etilde" unicode="&#x1ebc;" horiz-adv-x="1239" 
d="M1083 1688q-43 0 -79.5 15.5t-58.5 33.5t-55 33.5t-69 15.5q-100 0 -164 -88l-32 61q34 51 91.5 82t121.5 31q42 0 78.5 -15.5t58.5 -33.5t55 -33.5t70 -15.5q44 0 87.5 22.5t74.5 65.5l34 -62q-39 -52 -95 -82t-118 -30zM1096 0h-846l237 1495h822l-17 -100h-710
l-93 -584h662l-16 -102h-662l-96 -609h735z" />
    <glyph glyph-name="etilde" unicode="&#x1ebd;" horiz-adv-x="1239" 
d="M858 1331q-41 0 -76 16.5t-55.5 36t-51 36t-63.5 16.5q-74 0 -147 -86l-29 65q83 107 193 107q43 0 78.5 -16.5t56.5 -36t51 -36t62 -16.5q76 0 149 86l27 -67q-82 -105 -195 -105zM569 -35q-155 0 -264 73.5t-154 202t-20 289.5l2 21q42 264 196.5 410.5t407.5 146.5
q221 0 340 -143.5t82 -364.5l-10 -74h-916q-28 -201 68.5 -332t284.5 -131q153 0 254.5 57.5t150.5 186.5h105q-126 -342 -527 -342zM723 1010q-187 0 -306.5 -103.5t-166.5 -290.5h807q15 173 -76 283.5t-258 110.5z" />
    <glyph glyph-name="Ygrave" unicode="&#x1ef2;" horiz-adv-x="1325" 
d="M834 1632h-111l-211 301h129zM606 0h-108l94 588h-78l-340 907h115l303 -815h137l543 815h110l-606 -907h-76z" />
    <glyph glyph-name="ygrave" unicode="&#x1ef3;" horiz-adv-x="1067" 
d="M657 1253h-98l-145 387h116zM55 -418h-116l16 101h123q113 0 190 51.5t127 156.5l66 136h-99l-227 1048h113l198 -952h62l459 952h106l-590 -1218q-68 -139 -172.5 -207t-255.5 -68z" />
    <glyph glyph-name="endash" unicode="&#x2013;" horiz-adv-x="1024" 
d="M1022 522h-950l14 94h950z" />
    <glyph glyph-name="emdash" unicode="&#x2014;" horiz-adv-x="1818" 
d="M1817 522h-1745l14 94h1745z" />
    <glyph glyph-name="quoteleft" unicode="&#x2018;" horiz-adv-x="475" 
d="M467 1503h18l-12 -73h-16q-94 0 -141 -52.5t-70 -193.5l-10 -62q19 8 45 8q43 0 65.5 -27t15.5 -71q-8 -44 -36.5 -70t-73.5 -26q-125 0 -94 182l6 39q16 104 44 173t68 106.5t85 52t106 14.5z" />
    <glyph glyph-name="quoteright" unicode="&#x2019;" horiz-adv-x="475" 
d="M158 938h-19l11 74h16q94 0 141.5 52t71.5 193l8 62q-28 -8 -45 -8q-43 0 -66 27t-16 71q8 43 38 69.5t75 26.5q123 0 92 -182l-4 -39q-17 -104 -45.5 -173t-68.5 -106.5t-84.5 -52t-104.5 -14.5z" />
    <glyph glyph-name="quotesinglbase" unicode="&#x201a;" horiz-adv-x="475" 
d="M-51 -375h-19l13 74h16q94 0 141 52.5t70 193.5l10 61q-19 -8 -45 -8q-43 0 -66 27t-16 71q8 44 37 70.5t74 26.5q125 0 94 -183l-6 -39q-16 -104 -44 -173t-68 -106.5t-85 -52t-106 -14.5z" />
    <glyph glyph-name="quotedblleft" unicode="&#x201c;" horiz-adv-x="831" 
d="M823 1503h19l-13 -73h-16q-94 0 -141 -52.5t-70 -193.5l-10 -62q19 8 45 8q43 0 66 -27t16 -71q-8 -44 -37 -70t-74 -26q-125 0 -94 182l6 39q16 104 44 173t68 106.5t85 52t106 14.5zM467 1503h18l-12 -73h-16q-94 0 -141 -52.5t-70 -193.5l-10 -62q19 8 45 8
q43 0 65.5 -27t15.5 -71q-8 -44 -36.5 -70t-73.5 -26q-125 0 -94 182l6 39q16 104 44 173t68 106.5t85 52t106 14.5z" />
    <glyph glyph-name="quotedblright" unicode="&#x201d;" horiz-adv-x="831" 
d="M158 938h-19l11 74h16q94 0 141.5 52t71.5 193l8 62q-28 -8 -45 -8q-43 0 -66 27t-16 71q8 43 38 69.5t75 26.5q123 0 92 -182l-4 -39q-17 -104 -45.5 -173t-68.5 -106.5t-84.5 -52t-104.5 -14.5zM514 938h-18l10 74h16q94 0 141.5 52t71.5 193l8 62q-28 -8 -45 -8
q-43 0 -66 27t-16 71q8 43 38 69.5t75 26.5q123 0 92 -182l-4 -39q-17 -104 -45.5 -173t-68.5 -106.5t-84.5 -52t-104.5 -14.5z" />
    <glyph glyph-name="quotedblbase" unicode="&#x201e;" horiz-adv-x="831" 
d="M-51 -375h-19l13 74h16q94 0 141 52.5t70 193.5l10 61q-19 -8 -45 -8q-43 0 -66 27t-16 71q8 44 37 70.5t74 26.5q125 0 94 -183l-6 -39q-16 -104 -44 -173t-68 -106.5t-85 -52t-106 -14.5zM305 -375h-18l12 74h16q94 0 141 52.5t70 193.5l11 61q-19 -8 -45 -8
q-43 0 -66 27t-16 71q8 44 36.5 70.5t73.5 26.5q125 0 94 -183l-6 -39q-16 -104 -44 -173t-68 -106.5t-85 -52t-106 -14.5z" />
    <glyph glyph-name="dagger" unicode="&#x2020;" horiz-adv-x="1054" 
d="M979 985h-827l14 90h364l66 420h100l-67 -420h364zM395 -410h-100l190 1203h99z" />
    <glyph glyph-name="daggerdbl" unicode="&#x2021;" horiz-adv-x="1054" 
d="M979 985h-827l14 90h364l66 420h100l-67 -420h364zM498 264h-92l86 545h92zM391 -424h-98l65 422h-362l14 90h826l-15 -90h-362z" />
    <glyph glyph-name="bullet" unicode="&#x2022;" horiz-adv-x="882" 
d="M655 354h-446l74 467h446z" />
    <glyph glyph-name="ellipsis" unicode="&#x2026;" horiz-adv-x="1576" 
d="M346 0h-145l24 158h146zM848 0h-143l24 158h143zM1352 0h-146l25 158h145z" />
    <glyph glyph-name="perthousand" unicode="&#x2030;" horiz-adv-x="2449" 
d="M399 709q-143 0 -209.5 108.5t-39.5 274.5l4 34q29 179 121.5 281t250.5 102q144 0 211.5 -108.5t40.5 -274.5l-6 -34q-28 -178 -120.5 -280.5t-252.5 -102.5zM473 0h-90l827 1495h93zM414 788q225 0 276 320q21 140 -23 231t-153 91q-225 0 -276 -320
q-23 -139 22 -230.5t154 -91.5zM1153 -14q-143 0 -210 108.5t-40 274.5l4 34q29 179 122 281t251 102q144 0 211.5 -108.5t40.5 -274.5l-6 -34q-28 -178 -120.5 -280.5t-252.5 -102.5zM1919 -14q-143 0 -210 108.5t-42 274.5l6 34q29 179 121.5 281t251.5 102
q144 0 211 -108.5t41 -274.5l-6 -34q-28 -178 -120.5 -280.5t-252.5 -102.5zM1167 66q226 0 277 319q21 140 -23 231t-153 91q-226 0 -277 -322q-12 -90 -1 -161t57 -114.5t120 -43.5zM1931 66q226 0 277 319q23 139 -21 230.5t-153 91.5q-226 0 -277 -322q-23 -139 21 -229
t153 -90z" />
    <glyph glyph-name="minute" unicode="&#x2032;" horiz-adv-x="530" 
d="M299 975h-96l184 520h96z" />
    <glyph glyph-name="second" unicode="&#x2033;" horiz-adv-x="806" 
d="M299 975h-96l184 520h96zM575 975h-96l183 520h98z" />
    <glyph glyph-name="guilsinglleft" unicode="&#x2039;" horiz-adv-x="600" 
d="M416 80h-109l-192 416l10 69l328 424h104l-336 -438l-4 -35z" />
    <glyph glyph-name="guilsinglright" unicode="&#x203a;" horiz-adv-x="600" 
d="M195 989h110l193 -416l-13 -69l-327 -424h-103l334 438l6 35z" />
    <glyph glyph-name="fraction" unicode="&#x2044;" horiz-adv-x="403" 
d="M-240 -45h-92l1006 1438h92z" />
    <glyph glyph-name="four.superior" unicode="&#x2074;" horiz-adv-x="774" 
d="M586 860h-86l32 201h-454l16 102l451 531l63 -45l-424 -500l9 -14h350l49 305h86l-49 -305h114l-10 -74h-115z" />
    <glyph glyph-name="Euro" unicode="&#x20ac;" horiz-adv-x="1415" 
d="M709 -25q-155 0 -265 74t-164.5 200t-56.5 292h-211l15 84h198q2 43 13 108l4 29q6 38 12 72h-158l13 84h163q155 602 664 602q207 0 327 -113.5t99 -302.5h-98q13 147 -83.5 233t-260.5 86q-410 0 -543 -505h641l-12 -84h-648q-12 -60 -16 -86q-9 -62 -12 -123h606
l-14 -84h-594q6 -213 107.5 -341t289.5 -128q175 0 289.5 80t148.5 239h99q-42 -207 -186 -311.5t-367 -104.5z" />
    <glyph glyph-name="trademark" unicode="&#x2122;" horiz-adv-x="1689" 
d="M838 700h-78l125 795h106l180 -584h21l364 584h107l-127 -795h-82l105 664l-328 -522h-121l-166 528zM395 700h-86l115 719h-252l12 76h588l-12 -76h-252z" />
    <glyph glyph-name="minus" unicode="&#x2212;" horiz-adv-x="1200" 
d="M1083 662h-876l14 90h877z" />
    <glyph glyph-name="divisionslash" unicode="&#x2215;" horiz-adv-x="778" 
d="M-41 -137h-98l936 1784h98z" />
    <glyph glyph-name="lessequal" unicode="&#x2264;" horiz-adv-x="1193" 
d="M1016 463l-17 -92l-817 278l15 88l12 76l905 279l-14 -95l-824 -249l-6 -35zM223 729v2l-6 -2h6zM961 100h-867l15 90h866z" />
    <glyph glyph-name="greaterequal" unicode="&#x2265;" horiz-adv-x="1193" 
d="M1044 649l-905 -278l15 94l823 250l6 35l-745 249l16 93l817 -279l-14 -88zM1030 731l6 2h-6v-2zM961 100h-867l15 90h866z" />
    <glyph glyph-name="sora" unicode="&#xe000;" horiz-adv-x="1669" 
d="M862 920l-758 -920h-114l839 1024h-677l12 84h680l47 301h-678l12 86h1454l-12 -86h-680l-47 -301h678l-12 -84h-680l516 -1024h-115z" />
    <glyph glyph-name="I.salt" horiz-adv-x="911" 
d="M578 0h-482l17 98h184l207 1299h-185l15 98h481l-16 -98h-185l-206 -1299h186z" />
    <glyph glyph-name="Iacute.salt" horiz-adv-x="911" 
d="M596 1632h-109l287 301h127zM578 0h-482l17 98h184l207 1299h-185l15 98h481l-16 -98h-185l-206 -1299h186z" />
    <glyph glyph-name="Ibreve.salt" horiz-adv-x="911" 
d="M559 1618q-148 0 -208.5 85.5t-47.5 229.5h84q-17 -235 184 -235q209 0 263 235h79q-32 -144 -119 -229.5t-235 -85.5zM578 0h-482l17 98h184l207 1299h-185l15 98h481l-16 -98h-185l-206 -1299h186z" />
    <glyph glyph-name="Icircumflex.salt" horiz-adv-x="911" 
d="M352 1632h-104l287 301h147l195 -301h-107l-154 238h-36zM578 0h-482l17 98h184l207 1299h-185l15 98h481l-16 -98h-185l-206 -1299h186z" />
    <glyph glyph-name="Idieresis.salt" horiz-adv-x="911" 
d="M362 1690q-44 0 -64.5 24t-14.5 66q6 40 35 65t73 25q42 0 64 -25t16 -65q-8 -42 -36.5 -66t-72.5 -24zM788 1690q-44 0 -64.5 24t-14.5 66q6 40 35 65t73 25q42 0 64 -25t16 -65q-8 -42 -36.5 -66t-72.5 -24zM578 0h-482l17 98h184l207 1299h-185l15 98h481l-16 -98
h-185l-206 -1299h186z" />
    <glyph glyph-name="Idotaccent.salt" horiz-adv-x="911" 
d="M575 1690q-44 0 -64.5 24t-14.5 66q6 40 35 65t73 25q42 0 64 -25t16 -65q-8 -42 -36.5 -66t-72.5 -24zM578 0h-482l17 98h184l207 1299h-185l15 98h481l-16 -98h-185l-206 -1299h186z" />
    <glyph glyph-name="Igrave.salt" horiz-adv-x="911" 
d="M631 1632h-111l-209 301h129zM578 0h-482l17 98h184l207 1299h-185l15 98h481l-16 -98h-185l-206 -1299h186z" />
    <glyph glyph-name="Imacron.salt" horiz-adv-x="911" 
d="M885 1739h-594l14 84h592zM578 0h-482l17 98h184l207 1299h-185l15 98h481l-16 -98h-185l-206 -1299h186z" />
    <glyph glyph-name="Iogonek.salt" horiz-adv-x="911" 
d="M578 0h-43l-62 -41q-164 -117 -184 -246q-10 -64 20 -98.5t90 -34.5q48 0 103 19l-15 -86q-49 -19 -104 -19q-94 0 -145.5 57t-36.5 154q24 155 215 295h-320l17 98h184l207 1299h-185l15 98h481l-16 -98h-185l-206 -1299h186z" />
    <glyph glyph-name="Itilde.salt" horiz-adv-x="911" 
d="M719 1688q-42 0 -78.5 15.5t-58.5 33.5t-55.5 33.5t-69.5 15.5q-100 0 -164 -88l-33 61q36 52 92.5 82.5t120.5 30.5q43 0 80 -15.5t58.5 -33.5t54.5 -33.5t69 -15.5q98 0 162 88l35 -62q-39 -52 -94.5 -82t-118.5 -30zM578 0h-482l17 98h184l207 1299h-185l15 98h481
l-16 -98h-185l-206 -1299h186z" />
    <glyph glyph-name="J.salt" horiz-adv-x="1185" 
d="M420 -39q-178 0 -273.5 117.5t-66.5 298.5l39 256h110l-43 -273q-20 -131 50 -214t200 -83q142 0 231.5 77.5t112.5 219.5l181 1135h110l-178 -1118q-31 -198 -153.5 -307t-319.5 -109z" />
    <glyph glyph-name="Jcircumflex.salt" horiz-adv-x="1185" 
d="M793 1632h-105l287 301h147l195 -301h-107l-153 238h-37zM420 -39q-178 0 -273.5 117.5t-66.5 298.5l39 256h110l-43 -273q-20 -131 50 -214t200 -83q142 0 231.5 77.5t112.5 219.5l181 1135h110l-178 -1118q-31 -198 -153.5 -307t-319.5 -109z" />
    <glyph glyph-name="P.salt" horiz-adv-x="1277" 
d="M242 0h-111l238 1501h542q189 0 296.5 -106t80.5 -277l-4 -24q-30 -189 -161 -286t-337 -97h-432zM911 1401h-448l-92 -592h446q147 0 240.5 76.5t116.5 220.5q22 129 -53 212t-210 83z" />
    <glyph glyph-name="Q.salt" horiz-adv-x="1781" 
d="M766 -35q-220 0 -377.5 99t-226 274.5t-33.5 396.5l4 33q59 365 287.5 565.5t593.5 200.5q218 0 375.5 -98.5t226.5 -273.5t33 -394l-7 -33q-34 -217 -127.5 -377.5t-242.5 -257.5l137 -235h-115l-108 188q-184 -88 -420 -88zM782 68q204 0 353 73l-263 453h115l234 -404
q254 177 313 560q30 194 -26 349.5t-189.5 244t-321.5 88.5q-315 0 -508 -179t-245 -503q-23 -145 4.5 -271t97 -216.5t182 -142.5t254.5 -52z" />
    <glyph glyph-name="R.salt" horiz-adv-x="1417" 
d="M242 0h-111l238 1501h555q188 0 294.5 -108t79.5 -279l-4 -24q-26 -160 -122 -255t-250 -122l258 -713h-121l-256 702h-451zM924 1401h-461l-94 -598h458q148 0 241 77.5t116 221.5q22 130 -52 214.5t-208 84.5z" />
    <glyph glyph-name="Racute.salt" horiz-adv-x="1417" 
d="M825 1632h-106l285 301h126zM242 0h-111l238 1501h555q188 0 294.5 -108t79.5 -279l-4 -24q-26 -160 -122 -255t-250 -122l258 -713h-121l-256 702h-451zM924 1401h-461l-94 -598h458q148 0 241 77.5t116 221.5q22 130 -52 214.5t-208 84.5z" />
    <glyph glyph-name="Rcaron.salt" horiz-adv-x="1417" 
d="M864 1632h-147l-187 301h107l145 -237h39l211 237h105zM242 0h-111l238 1501h555q188 0 294.5 -108t79.5 -279l-4 -24q-26 -160 -122 -255t-250 -122l258 -713h-121l-256 702h-451zM924 1401h-461l-94 -598h458q148 0 241 77.5t116 221.5q22 130 -52 214.5t-208 84.5z
" />
    <glyph glyph-name="Rcommaaccent.salt" horiz-adv-x="1417" 
d="M242 0h-111l238 1501h555q188 0 294.5 -108t79.5 -279l-4 -24q-26 -160 -122 -255t-250 -122l258 -713h-121l-256 702h-451zM924 1401h-461l-94 -598h458q148 0 241 77.5t116 221.5q22 130 -52 214.5t-208 84.5zM590 -543h-15l11 66h16q140 0 170 184l4 25
q-26 -23 -61 -23q-36 0 -56.5 24t-13.5 64q6 41 35.5 65.5t69.5 24.5q56 0 82.5 -42t13.5 -124l-2 -10q-20 -126 -86.5 -190t-167.5 -64z" />
    <glyph glyph-name="idotaccent" horiz-adv-x="591" 
d="M338 1333q-45 0 -64.5 23.5t-13.5 62.5q6 38 33.5 62t71.5 24t63.5 -24t13.5 -62q-5 -39 -32 -62.5t-72 -23.5zM293 0h-109l156 981h-180l14 94h289l-14 -94z" />
    <glyph glyph-name="f.salt" horiz-adv-x="741" 
d="M236 0h-107l154 977h-166l12 88h168l35 217q19 116 91.5 178t190.5 62q102 0 158 -66.5t41 -169.5h-94q11 63 -22.5 104.5t-94.5 41.5q-68 0 -109.5 -38t-52.5 -108l-34 -221h348l-15 -88h-348z" />
    <glyph glyph-name="l.salt" horiz-adv-x="591" 
d="M381 -12h-111q-91 0 -140.5 59t-35.5 150l207 1298h111l-207 -1307q-8 -44 11.5 -74t59.5 -30h121z" />
    <glyph glyph-name="lacute.salt" horiz-adv-x="591" 
d="M377 1632h-107l285 301h127zM381 -12h-111q-91 0 -140.5 59t-35.5 150l207 1298h111l-207 -1307q-8 -44 11.5 -74t59.5 -30h121z" />
    <glyph glyph-name="lcaron.salt" horiz-adv-x="591" 
d="M621 1196h-86l73 467h97zM381 -12h-111q-91 0 -140.5 59t-35.5 150l207 1298h111l-207 -1307q-8 -44 11.5 -74t59.5 -30h121z" />
    <glyph glyph-name="lcommaaccent.salt" horiz-adv-x="591" 
d="M381 -12h-111q-91 0 -140.5 59t-35.5 150l207 1298h111l-207 -1307q-8 -44 11.5 -74t59.5 -30h121zM377 -111q55 0 79 -44.5t9 -133.5v-8q-42 -244 -246 -244h-10l10 64h12q136 0 160 172l6 41q-22 -19 -55 -19q-35 0 -54.5 22t-13.5 62q6 41 34.5 64.5t68.5 23.5z" />
    <glyph glyph-name="lslash.salt" horiz-adv-x="593" 
d="M381 -12h-111q-91 0 -140.5 59t-35.5 150l64 399l-150 -80l15 92l149 82l129 805h111l-119 -743l168 90l-15 -92l-167 -88l-74 -474q-8 -44 11.5 -74t59.5 -30h121z" />
    <glyph glyph-name="r.salt" horiz-adv-x="856" 
d="M231 0h-108l170 1075h86l-33 -207q45 103 131.5 159t208.5 56h213l-14 -98h-240q-124 0 -201.5 -67t-97.5 -191z" />
    <glyph glyph-name="racute.salt" horiz-adv-x="858" 
d="M582 1253h-99l236 387h117zM231 0h-108l170 1075h86l-33 -207q45 103 131.5 159t208.5 56h213l-14 -98h-240q-124 0 -201.5 -67t-97.5 -191z" />
    <glyph glyph-name="rcaron.salt" horiz-adv-x="858" 
d="M623 1253h-140l-155 387h98l129 -323h16l220 323h94zM231 0h-108l170 1075h86l-33 -207q45 103 131.5 159t208.5 56h213l-14 -98h-240q-124 0 -201.5 -67t-97.5 -191z" />
    <glyph glyph-name="rcommaaccent.salt" horiz-adv-x="858" 
d="M231 0h-108l170 1075h86l-33 -207q45 103 131.5 159t208.5 56h213l-14 -98h-240q-124 0 -201.5 -67t-97.5 -191zM391 -111q55 0 79 -44.5t9 -133.5v-8q-42 -244 -246 -244h-10l10 64h13q136 0 160 172l6 41q-22 -19 -56 -19q-35 0 -54 22t-13 62q6 41 34 64.5t68 23.5z
" />
    <glyph glyph-name="t.salt" horiz-adv-x="933" 
d="M430 -29q-134 0 -203.5 90.5t-46.5 229.5l109 696h-199l14 88h199l55 342h107l-55 -342h438l-14 -88h-439l-110 -704q-15 -94 30.5 -155.5t135.5 -61.5q99 0 159.5 57t75.5 160h94q-23 -149 -113.5 -230.5t-236.5 -81.5z" />
    <glyph glyph-name="tbar.salt" horiz-adv-x="933" 
d="M430 -29q-134 0 -203.5 90.5t-46.5 229.5l41 260h-121l13 82h120l56 354h-199l14 88h199l55 342h107l-55 -342h438l-14 -88h-439l-55 -354h436l-12 -82h-436l-43 -268q-15 -94 30.5 -155.5t135.5 -61.5q99 0 159.5 57t75.5 160h94q-23 -149 -113.5 -230.5t-236.5 -81.5z
" />
    <glyph glyph-name="tcaron.salt" horiz-adv-x="933" 
d="M709 1284h-86l73 467h97zM430 -29q-134 0 -203.5 90.5t-46.5 229.5l109 696h-199l14 88h199l55 342h107l-55 -342h438l-14 -88h-439l-110 -704q-15 -94 30.5 -155.5t135.5 -61.5q99 0 159.5 57t75.5 160h94q-23 -149 -113.5 -230.5t-236.5 -81.5z" />
    <glyph glyph-name="tcedilla.salt" horiz-adv-x="933" 
d="M391 -469q-68 0 -135 18l12 82q70 -18 135 -18q139 0 154 96q13 92 -113 92h-61l27 170q-125 7 -188.5 96.5t-41.5 223.5l109 696h-199l14 88h199l55 342h107l-55 -342h438l-14 -88h-439l-110 -704q-15 -94 30.5 -155.5t135.5 -61.5q99 0 159.5 57t75.5 160h94
q-22 -134 -97.5 -214.5t-197.5 -93.5l-14 -98q94 -4 140 -49.5t34 -116.5q-12 -82 -80 -131t-174 -49z" />
    <glyph glyph-name="tcommaaccent.salt" horiz-adv-x="933" 
d="M430 -29q-134 0 -203.5 90.5t-46.5 229.5l109 696h-199l14 88h199l55 342h107l-55 -342h438l-14 -88h-439l-110 -704q-15 -94 30.5 -155.5t135.5 -61.5q99 0 159.5 57t75.5 160h94q-23 -149 -113.5 -230.5t-236.5 -81.5zM502 -111q55 0 79 -44.5t9 -133.5v-8
q-42 -244 -246 -244h-10l10 64h12q136 0 160 172l6 41q-22 -19 -55 -19q-35 0 -54.5 22t-13.5 62q6 41 34.5 64.5t68.5 23.5z" />
    <glyph glyph-name="u.salt" horiz-adv-x="1253" 
d="M537 -35q-194 0 -296.5 129.5t-70.5 325.5l102 655h111l-107 -669q-23 -148 54 -243t223 -95q159 0 258 88.5t125 249.5l104 669h109l-102 -655q-36 -216 -167.5 -335.5t-342.5 -119.5z" />
    <glyph glyph-name="uacute.salt" horiz-adv-x="1253" 
d="M725 1253h-96l235 387h115zM537 -35q-194 0 -296.5 129.5t-70.5 325.5l102 655h111l-107 -669q-23 -148 54 -243t223 -95q159 0 258 88.5t125 249.5l104 669h109l-102 -655q-36 -216 -167.5 -335.5t-342.5 -119.5z" />
    <glyph glyph-name="ubreve.salt" horiz-adv-x="1253" 
d="M694 1243q-267 0 -219 397h86q-14 -161 18.5 -239t127.5 -78q96 0 155 79t92 238h82q-73 -397 -342 -397zM537 -35q-194 0 -296.5 129.5t-70.5 325.5l102 655h111l-107 -669q-23 -148 54 -243t223 -95q159 0 258 88.5t125 249.5l104 669h109l-102 -655
q-36 -216 -167.5 -335.5t-342.5 -119.5z" />
    <glyph glyph-name="ucircumflex.salt" horiz-adv-x="1253" 
d="M502 1253h-96l280 387h139l160 -387h-96l-133 324h-17zM537 -35q-194 0 -296.5 129.5t-70.5 325.5l102 655h111l-107 -669q-23 -148 54 -243t223 -95q159 0 258 88.5t125 249.5l104 669h109l-102 -655q-36 -216 -167.5 -335.5t-342.5 -119.5z" />
    <glyph glyph-name="udieresis.salt" horiz-adv-x="1253" 
d="M520 1333q-44 0 -63.5 23t-14.5 63q6 38 33.5 62t71.5 24t64.5 -24t15.5 -62q-6 -39 -34 -62.5t-73 -23.5zM915 1333q-44 0 -62.5 23t-12.5 63q5 38 32.5 62t71.5 24t64 -24t14 -62q-6 -39 -34 -62.5t-73 -23.5zM537 -35q-194 0 -296.5 129.5t-70.5 325.5l102 655h111
l-107 -669q-23 -148 54 -243t223 -95q159 0 258 88.5t125 249.5l104 669h109l-102 -655q-36 -216 -167.5 -335.5t-342.5 -119.5z" />
    <glyph glyph-name="ugrave.salt" horiz-adv-x="1253" 
d="M762 1253h-100l-146 387h119zM537 -35q-194 0 -296.5 129.5t-70.5 325.5l102 655h111l-107 -669q-23 -148 54 -243t223 -95q159 0 258 88.5t125 249.5l104 669h109l-102 -655q-36 -216 -167.5 -335.5t-342.5 -119.5z" />
    <glyph glyph-name="uhungarumlaut.salt" horiz-adv-x="1253" 
d="M887 1253h-90l200 387h109zM582 1253h-93l201 387h109zM537 -35q-194 0 -296.5 129.5t-70.5 325.5l102 655h111l-107 -669q-23 -148 54 -243t223 -95q159 0 258 88.5t125 249.5l104 669h109l-102 -655q-36 -216 -167.5 -335.5t-342.5 -119.5z" />
    <glyph glyph-name="umacron.salt" horiz-adv-x="1253" 
d="M979 1382h-498l13 86h497zM537 -35q-194 0 -296.5 129.5t-70.5 325.5l102 655h111l-107 -669q-23 -148 54 -243t223 -95q159 0 258 88.5t125 249.5l104 669h109l-102 -655q-36 -216 -167.5 -335.5t-342.5 -119.5z" />
    <glyph glyph-name="uogonek.salt" horiz-adv-x="1253" 
d="M537 -35q-194 0 -296.5 129.5t-70.5 325.5l102 655h111l-107 -669q-23 -148 54 -243t223 -95q159 0 258 88.5t125 249.5l104 669h109l-102 -655q-44 -263 -226 -379l19 -31l-58 -43q-160 -118 -180 -241q-10 -61 18 -91t85 -30q47 0 100 18l-14 -86q-56 -18 -103 -18
q-91 0 -139 52.5t-33 147.5q25 143 186 269q-84 -23 -165 -23z" />
    <glyph glyph-name="uring.salt" horiz-adv-x="1253" 
d="M690 1233q-95 0 -146.5 62t-37.5 153q15 92 86 154.5t166 62.5q98 0 149 -62t37 -155q-15 -91 -85.5 -153t-168.5 -62zM702 1305q65 0 110 39.5t56 103.5q9 65 -22.5 105t-97.5 40q-65 0 -111 -40.5t-55 -104.5q-11 -64 22 -103.5t98 -39.5zM537 -35q-194 0 -296.5 129.5
t-70.5 325.5l102 655h111l-107 -669q-23 -148 54 -243t223 -95q159 0 258 88.5t125 249.5l104 669h109l-102 -655q-36 -216 -167.5 -335.5t-342.5 -119.5z" />
    <glyph glyph-name="utilde.salt" horiz-adv-x="1253" 
d="M848 1331q-41 0 -76 16.5t-55.5 36t-51 36t-63.5 16.5q-74 0 -147 -86l-29 65q83 107 192 107q43 0 78.5 -16.5t56.5 -36t51 -36t62 -16.5q77 0 150 86l26 -67q-82 -105 -194 -105zM537 -35q-194 0 -296.5 129.5t-70.5 325.5l102 655h111l-107 -669q-23 -148 54 -243
t223 -95q159 0 258 88.5t125 249.5l104 669h109l-102 -655q-36 -216 -167.5 -335.5t-342.5 -119.5z" />
    <glyph glyph-name="f_f.salt" horiz-adv-x="1433" 
d="M236 0h-107l156 977h-170l14 88h168l35 215q17 114 88 176t186 62q101 0 154.5 -66t36.5 -166h-92q9 62 -21.5 101.5t-89.5 39.5q-65 0 -105 -37t-51 -104l-35 -221h586l35 225q20 116 93 178t190 62q103 0 159 -66t39 -170h-92q10 63 -23.5 104.5t-95.5 41.5
q-67 0 -108.5 -39t-52.5 -107l-37 -229h350l-14 -88h-351l-153 -977h-107l154 977h-586z" />
    <glyph glyph-name="f_f_i.salt" horiz-adv-x="1984" 
d="M233 0h-106l156 987h-166l12 88h168l33 207q17 114 88.5 175t185.5 61q101 0 154.5 -65t38.5 -167h-95q11 62 -19.5 101.5t-90.5 39.5q-64 0 -104.5 -37t-51.5 -104l-33 -211h588l33 215q19 115 92.5 177.5t190.5 62.5q103 0 158 -65.5t40 -168.5h-94q11 62 -22.5 103
t-96.5 41q-67 0 -107.5 -38t-51.5 -106l-35 -221h321l-14 -88h-322l-155 -987h-107l156 987h-588zM1759 1300q-37 0 -58 24t-15 62q6 41 32.5 64t69.5 23q38 0 60 -25t16 -62q-6 -41 -34 -63.5t-71 -22.5zM1653 0h-109l156 981h-172l14 94h281z" />
    <glyph glyph-name="f_f_j.salt" horiz-adv-x="2004" 
d="M236 0h-107l156 987h-168l12 88h170l33 209q17 113 88 173.5t186 60.5q100 0 154 -65t37 -163h-92q9 60 -22 98.5t-89 38.5q-65 0 -105 -36t-51 -101l-32 -215h585l33 215q20 116 93 178t190 62q103 0 158 -65.5t38 -168.5h-92q11 62 -22.5 103t-96.5 41q-66 0 -107 -38
t-52 -106l-35 -221h342l-13 -88h-344l-155 -987h-107l156 987h-586zM1784 1319q-38 0 -60 24.5t-16 61.5q13 86 102 86q38 0 60 -24.5t16 -61.5q-13 -86 -102 -86zM1309 -412h-107l17 99h133q84 0 133 51.5t63 142.5l174 1100h-170l15 94h276l-14 -94l-170 -1071
q-24 -152 -113.5 -237t-236.5 -85z" />
    <glyph glyph-name="f_f_l.salt" horiz-adv-x="1996" 
d="M236 0h-107l156 977h-170l14 88h168l35 215q17 114 88 176t186 62q101 0 154.5 -66t36.5 -166h-92q9 62 -21.5 101.5t-89.5 39.5q-65 0 -105 -37t-51 -104l-35 -221h588l35 225q17 115 89 177.5t188 62.5q101 0 155 -66.5t39 -169.5h-94q9 64 -22.5 105t-90.5 41
q-65 0 -105.5 -38.5t-51.5 -107.5l-37 -229h338l-15 -88h-338l-153 -977h-107l156 977h-588zM1786 -12h-111q-91 0 -140.5 59t-35.5 150l207 1298h109l-207 -1307q-8 -45 12 -74.5t61 -29.5h121z" />
    <glyph glyph-name="f_j.salt" horiz-adv-x="1310" 
d="M233 0h-106l156 987h-168l14 88h168l33 207q20 116 92.5 178t189.5 62q103 0 158.5 -65.5t38.5 -168.5h-92q9 62 -24 103t-95 41q-66 0 -107.5 -38t-52.5 -106l-35 -213h336l-14 -88h-334zM1092 1319q-39 0 -60.5 24.5t-15.5 61.5q13 86 102 86q38 0 60 -24.5t16 -61.5
q-13 -86 -102 -86zM614 -412h-106l16 99h133q84 0 133.5 51.5t63.5 142.5l176 1100h-172l16 94h277l-14 -94l-172 -1071q-24 -153 -114 -237.5t-237 -84.5z" />
    <glyph glyph-name="fi.salt" horiz-adv-x="1290" 
d="M233 0h-106l156 987h-168l14 88h168l33 209q19 114 91 176t189 62q102 0 157 -65.5t38 -166.5h-92q9 62 -24 102t-93 40q-66 0 -107.5 -38t-50.5 -104l-35 -215h322l-14 -88h-320zM1067 1300q-39 0 -60.5 24t-15.5 62q6 41 33 64t70 23q38 0 59.5 -25t15.5 -62
q-13 -86 -102 -86zM958 0h-110l158 981h-172l16 94h278l-14 -94z" />
    <glyph glyph-name="fl.salt" horiz-adv-x="1304" 
d="M236 0h-107l154 977h-166l12 88h168l35 219q20 115 91.5 176.5t186.5 61.5q101 0 155.5 -66t37.5 -166h-92q9 62 -23 102t-92 40q-65 0 -106 -37.5t-50 -104.5l-34 -225h335l-12 -88h-338zM1094 -12h-111q-92 0 -140.5 59t-33.5 150l205 1298h108l-207 -1307
q-8 -44 13 -74t61 -30h121z" />
    <glyph glyph-name="seven.salt" horiz-adv-x="1077" 
d="M403 0h-106l47 291q59 373 210.5 627t451.5 448l-5 33h-851l14 96h964l-26 -168q-293 -194 -444 -437.5t-207 -598.5z" />
    <glyph glyph-name="zero.tnum" horiz-adv-x="1384" 
d="M565 -35q-242 0 -341 192.5t-42 549.5l13 77q58 366 219.5 558t398.5 192q238 0 339.5 -192t43.5 -558l-12 -77q-57 -357 -217 -549.5t-402 -192.5zM582 63q191 0 315.5 164t181.5 518q27 187 23 318.5t-43 213.5t-103 119.5t-157 37.5q-190 0 -316 -163t-184 -523
q-56 -355 17 -520t266 -165z" />
    <glyph glyph-name="one.tnum" horiz-adv-x="1384" 
d="M995 0h-766l17 96h329l207 1303h-327l16 96h436l-221 -1399h326z" />
    <glyph glyph-name="two.tnum" horiz-adv-x="1384" 
d="M1079 0h-956l33 211q22 130 101 209t222 141l328 144q134 59 208 144t95 218q26 160 -59 264.5t-244 104.5q-176 0 -285 -97.5t-137 -273.5h-106q35 225 176 347t366 122q204 0 316.5 -128t81.5 -327l-5 -26q-26 -161 -121 -261t-264 -174l-329 -145
q-103 -45 -160.5 -102t-73.5 -150l-18 -125h848z" />
    <glyph glyph-name="three.tnum" horiz-adv-x="1384" 
d="M557 -35q-216 0 -334 132t-86 339h109q-26 -163 66 -268t259 -105q184 0 299.5 95t143.5 272q26 164 -64.5 269.5t-257.5 105.5q-116 0 -213 -55l-51 108l698 512l-10 29h-768l14 96h875l-27 -170l-596 -436q44 6 95 6q212 0 329.5 -126t85.5 -327l-4 -24
q-35 -221 -183 -337t-380 -116z" />
    <glyph glyph-name="four.tnum" horiz-adv-x="1384" 
d="M932 0h-107l62 391h-781l23 144l799 981l65 -62l-770 -946l13 -27h665l90 566h107l-90 -566h206l-14 -90h-207z" />
    <glyph glyph-name="five.tnum" horiz-adv-x="1384" 
d="M588 -35q-220 0 -340 136t-86 348h106q-28 -168 67 -277t267 -109q191 0 310.5 100t148.5 286q26 170 -68.5 279.5t-267.5 109.5q-100 0 -177 -27.5t-153 -91.5h-100l199 776h706l-14 -96h-619l-147 -568q72 53 148.5 77t174.5 24q218 0 338 -131.5t88 -337.5l-4 -27
q-36 -228 -187.5 -349.5t-389.5 -121.5z" />
    <glyph glyph-name="six.tnum" horiz-adv-x="1384" 
d="M606 -35q-100 0 -180 36t-130.5 99.5t-81.5 151.5t-34 192.5t13 221.5l10 75q57 358 255 560t529 202q117 0 232 -16l-17 -98q-132 18 -237 18q-116 0 -213.5 -32t-171.5 -90.5t-131 -143t-93.5 -187t-56.5 -225.5l-8 -53q67 138 189.5 212.5t293.5 74.5
q215 0 330.5 -139t81.5 -355q-37 -240 -187.5 -372t-392.5 -132zM623 63q191 0 309 106.5t147 299.5q29 174 -62.5 285.5t-264.5 111.5q-193 0 -314.5 -104t-150.5 -295q-29 -177 65 -290.5t271 -113.5z" />
    <glyph glyph-name="seven.tnum" horiz-adv-x="1384" 
d="M434 0h-112l843 1376l-10 23h-723l-43 -271h-96l57 367h934l-22 -143z" />
    <glyph glyph-name="eight.tnum" horiz-adv-x="1384" 
d="M565 -35q-146 0 -255 53.5t-161.5 155t-31.5 232.5q49 314 366 385l2 20q-114 43 -165.5 128.5t-32.5 205.5q31 195 169.5 291t356.5 96q201 0 317 -106t89 -281q-21 -130 -97 -210t-209 -124l-4 -20q140 -33 203.5 -135.5t40.5 -249.5t-103.5 -247t-202.5 -147t-282 -47
zM705 846q167 0 274 74t131 223q21 132 -68 212.5t-243 80.5q-168 0 -275 -73t-131 -220q-21 -134 68.5 -215.5t243.5 -81.5zM582 63q192 0 315 86.5t150 258.5q24 157 -77.5 252.5t-279.5 95.5q-192 0 -315 -87.5t-150 -260.5q-26 -155 76.5 -250t280.5 -95z" />
    <glyph glyph-name="nine.tnum" horiz-adv-x="1384" 
d="M768 1530q166 0 271.5 -95.5t139.5 -252t3 -353.5l-11 -75q-57 -358 -255 -560t-529 -202q-116 0 -231 16l16 98q132 -18 238 -18q283 0 448 180.5t217 497.5l8 53q-67 -138 -189.5 -212.5t-293.5 -74.5q-215 0 -330.5 139t-81.5 355q37 240 187.5 372t392.5 132z
M752 1432q-191 0 -309.5 -106.5t-147.5 -299.5q-29 -173 63 -285t265 -112q193 0 314 104t150 295q29 177 -64.5 290.5t-270.5 113.5z" />
    <glyph glyph-name="seven.tnum.salt" horiz-adv-x="1384" 
d="M551 0h-107l45 291q60 373 213.5 626.5t454.5 448.5l-2 33h-862l16 96h971l-27 -168q-294 -193 -446.5 -436.5t-210.5 -599.5z" />
    <glyph glyph-name="zero.dnom" horiz-adv-x="897" 
d="M338 -18q-169 0 -238 109t-39 296l7 47q31 192 136 301t271 109t237 -109.5t40 -300.5l-7 -47q-30 -186 -134.5 -295.5t-272.5 -109.5zM352 63q250 0 305 349q56 350 -196 350q-251 0 -307 -350q-55 -349 198 -349z" />
    <glyph glyph-name="one.dnom" horiz-adv-x="520" 
d="M246 0h-88l118 743h-194l12 80h283z" />
    <glyph glyph-name="two.dnom" horiz-adv-x="755" 
d="M569 0h-565l19 127q11 70 53 114t139 85l182 73q143 60 164 183q12 85 -32.5 134.5t-133.5 49.5q-87 0 -147.5 -49.5t-73.5 -134.5h-88q19 117 107.5 189.5t216.5 72.5q130 0 194 -70.5t45 -181.5l-2 -14q-23 -165 -229 -248l-182 -76q-62 -24 -88.5 -50.5t-32.5 -68.5
l-9 -57h476z" />
    <glyph glyph-name="three.dnom" horiz-adv-x="751" 
d="M258 -18q-135 0 -204 73t-50 187h88q-14 -84 34.5 -134.5t143.5 -50.5t160.5 51.5t77.5 133.5q12 84 -35 135t-141 51q-66 0 -123 -33l-37 80l377 254l-6 14h-426l12 80h530l-16 -104l-334 -223q10 2 35 2q132 0 201 -71t51 -179l-2 -15q-18 -108 -109 -179.5t-227 -71.5
z" />
    <glyph glyph-name="four.dnom" horiz-adv-x="776" 
d="M506 0h-86l31 201h-453l16 102l451 531l63 -46l-426 -499l9 -15h352l47 306h86l-47 -306h115l-13 -73h-114z" />
    <glyph glyph-name="five.dnom" horiz-adv-x="759" 
d="M276 -18q-141 0 -208.5 77t-49.5 191h88q-12 -85 36 -139t149 -54t165 55t76 142q14 87 -32 142t-148 55q-105 0 -180 -66h-84l115 438h432l-14 -80h-361l-76 -280q86 59 189 59q137 0 202.5 -75t49.5 -187l-2 -12q-18 -111 -111.5 -188.5t-235.5 -77.5z" />
    <glyph glyph-name="six.dnom" horiz-adv-x="808" 
d="M313 -20q-157 0 -222.5 99.5t-35.5 285.5l6 38q68 424 467 424q67 0 142 -10l-13 -78q-90 11 -145 11q-165 0 -253.5 -90t-115.5 -263l-2 -6q42 69 114 107.5t165 38.5q134 0 199.5 -77t46.5 -196q-19 -123 -114.5 -203.5t-238.5 -80.5zM324 57q104 0 172 58.5t82 148.5
q14 88 -35.5 143.5t-153.5 55.5q-103 0 -171.5 -55.5t-82.5 -145.5q-13 -84 36 -144.5t153 -60.5z" />
    <glyph glyph-name="seven.dnom" horiz-adv-x="700" 
d="M188 0h-94l459 731l-6 14h-383l-23 -145h-75l22 145l12 78h568l-13 -78z" />
    <glyph glyph-name="eight.dnom" horiz-adv-x="778" 
d="M279 -20q-143 0 -217 68.5t-56 174.5q13 82 72 138.5t133 72.5l2 12q-58 21 -91.5 67.5t-23.5 115.5q17 99 104.5 157t213.5 58q127 0 194 -58t52 -157q-10 -71 -57.5 -116.5t-112.5 -66.5l-3 -12q69 -16 111 -72.5t29 -138.5q-15 -106 -110.5 -174.5t-239.5 -68.5z
M356 475q88 0 146.5 39.5t68.5 108.5q12 67 -34 106t-136 39q-88 0 -145.5 -39t-69.5 -106q-10 -70 36 -109t134 -39zM291 57q104 0 171.5 48.5t78.5 125.5q12 77 -40 126t-155 49t-171.5 -49t-80.5 -126t40.5 -125.5t156.5 -48.5z" />
    <glyph glyph-name="nine.dnom" horiz-adv-x="808" 
d="M412 844q157 0 222.5 -99.5t35.5 -285.5l-6 -39q-65 -424 -467 -424q-79 0 -142 8l13 78q82 -10 147 -10q165 0 253 90t114 262l2 10q-42 -70 -113.5 -108.5t-165.5 -38.5q-135 0 -199.5 76t-46.5 196q21 123 116 204t237 81zM401 766q-105 0 -172.5 -59t-81.5 -148
q-13 -89 35.5 -145t153.5 -56q103 0 172 56t84 147q11 84 -38 144.5t-153 60.5z" />
    <glyph glyph-name="zero.numr" horiz-adv-x="897" 
d="M420 504q-169 0 -238 109t-39 296l7 47q31 192 136 301t271 109t237 -109.5t40 -300.5l-7 -47q-30 -186 -134.5 -295.5t-272.5 -109.5zM434 586q250 0 305 348q56 350 -196 350q-251 0 -307 -350q-55 -348 198 -348z" />
    <glyph glyph-name="one.numr" horiz-adv-x="520" 
d="M328 522h-88l118 744h-194l12 80h283z" />
    <glyph glyph-name="two.numr" horiz-adv-x="755" 
d="M651 522h-565l18 127q11 70 53.5 114t139.5 85l182 74q143 60 164 182q12 85 -32.5 134.5t-133.5 49.5q-87 0 -147.5 -49.5t-73.5 -134.5h-88q19 117 107.5 189.5t216.5 72.5q130 0 194 -70.5t45 -181.5l-2 -14q-23 -165 -229 -248l-183 -76q-62 -24 -88 -50.5t-32 -68.5
l-9 -57h476z" />
    <glyph glyph-name="three.numr" horiz-adv-x="751" 
d="M340 504q-135 0 -204 73t-50 187h88q-14 -84 34.5 -134t143.5 -50t160.5 51t77.5 133q12 84 -35 135t-141 51q-68 0 -123 -32l-37 79l377 254l-6 15h-426l12 80h530l-16 -105l-334 -223q10 2 35 2q132 0 201 -71t51 -179l-2 -14q-18 -108 -109.5 -180t-226.5 -72z" />
    <glyph glyph-name="four.numr" horiz-adv-x="776" 
d="M588 522h-86l30 201h-452l16 102l451 531l63 -45l-426 -500l9 -14h352l47 305h86l-47 -305h114l-12 -74h-115z" />
    <glyph glyph-name="five.numr" horiz-adv-x="759" 
d="M358 504q-141 0 -208.5 77t-49.5 191h88q-12 -85 36 -138.5t149 -53.5t165 55t76 141q14 87 -32 142t-148 55q-105 0 -180 -66h-84l115 439h432l-15 -80h-360l-76 -281q86 59 189 59q137 0 202.5 -75t49.5 -187l-2 -12q-18 -111 -111.5 -188.5t-235.5 -77.5z" />
    <glyph glyph-name="six.numr" horiz-adv-x="808" 
d="M395 502q-157 0 -222.5 99.5t-35.5 285.5l6 39q68 424 467 424q60 0 142 -11l-13 -77q-82 10 -145 10q-165 0 -253.5 -90t-115.5 -262l-2 -7q42 69 114 107.5t165 38.5q134 0 199.5 -77t46.5 -196q-19 -123 -114.5 -203.5t-238.5 -80.5zM406 580q104 0 171.5 58t81.5 148
q14 88 -35 143.5t-153 55.5q-103 0 -171.5 -55.5t-82.5 -145.5q-13 -84 36 -144t153 -60z" />
    <glyph glyph-name="seven.numr" horiz-adv-x="700" 
d="M270 522h-94l459 731l-6 15h-383l-23 -146h-76l23 146l12 78h568l-13 -78z" />
    <glyph glyph-name="eight.numr" horiz-adv-x="778" 
d="M360 502q-143 0 -216.5 68t-55.5 175q13 82 72 138.5t133 72.5l2 13q-58 21 -91.5 67t-23.5 115q17 99 104.5 157t213.5 58q127 0 193.5 -58t51.5 -157q-10 -71 -57.5 -115.5t-112.5 -66.5l-2 -13q69 -16 111 -72.5t29 -138.5q-15 -106 -111 -174.5t-240 -68.5zM438 997
q88 0 146.5 39.5t68.5 108.5q12 67 -34 106t-136 39q-88 0 -145.5 -39t-69.5 -106q-10 -70 36 -109t134 -39zM373 580q104 0 171.5 48.5t78.5 125.5q12 77 -40 125.5t-155 48.5q-104 0 -172 -48.5t-80 -125.5t40.5 -125.5t156.5 -48.5z" />
    <glyph glyph-name="nine.numr" horiz-adv-x="808" 
d="M494 1366q157 0 222.5 -99.5t35.5 -285.5l-7 -39q-65 -424 -466 -424q-79 0 -142 8l13 78q82 -10 147 -10q165 0 253 90t114 262l2 10q-42 -70 -113.5 -108.5t-165.5 -38.5q-135 0 -199.5 76t-46.5 196q21 123 116 204t237 81zM483 1288q-105 0 -172.5 -59t-81.5 -148
q-13 -89 35.5 -144.5t153.5 -55.5q103 0 172 55.5t84 146.5q11 84 -38 144.5t-153 60.5z" />
    <glyph glyph-name="exclamdown.case" horiz-adv-x="550" 
d="M467 1495l-25 -158h-143l23 158h145zM389 1114l-176 -1114h-111l177 1114h110z" />
    <glyph glyph-name="questiondown.case" horiz-adv-x="1114" 
d="M666 1495h145l-25 -158h-143zM625 1114h108l-59 -379h-96q-164 0 -267 -87.5t-129 -250.5q-23 -147 55 -242.5t224 -95.5q170 0 274 96t131 269h105q-34 -221 -170 -342t-355 -121q-192 0 -296.5 120t-73.5 306l2 23q30 198 162 305.5t340 115.5z" />
    <glyph glyph-name="periodcentered.case" horiz-adv-x="520" 
d="M430 686h-145l24 158h146z" />
    <glyph glyph-name="asterisk.part" horiz-adv-x="387" 
d="M399 762l-69 -94l-291 209l27 172l358 208l39 -94l-316 -153l-16 -95z" />
    <glyph glyph-name="parenleft.case" horiz-adv-x="743" 
d="M520 -242h-123q-57 78 -99.5 153.5t-76.5 166.5t-51 186t-17.5 209t19.5 238q24 152 72.5 287.5t119.5 250.5t151 210.5t183 191.5h123q-116 -111 -200 -210t-155.5 -213.5t-117.5 -242t-69 -274.5q-21 -116 -18.5 -226.5t17.5 -201.5t51.5 -183.5t81.5 -172.5t109 -169z
" />
    <glyph glyph-name="parenright.case" horiz-adv-x="743" 
d="M-117 -242q116 112 200.5 213t156 217t117.5 245.5t69 277.5q45 284 -17.5 499.5t-226.5 440.5h125q57 -77 99 -151t78 -164.5t51.5 -183t18.5 -206.5t-19 -235q-25 -154 -74 -290.5t-120 -253.5t-151 -214t-182 -195h-125z" />
    <glyph glyph-name="braceleft.case" horiz-adv-x="743" 
d="M463 -242h-37q-155 0 -227.5 90.5t-42.5 272.5l59 375q10 71 -20 107t-86 36l20 133q56 0 98.5 37.5t53.5 108.5l59 370q28 182 130 272.5t257 90.5h37l-16 -90h-35q-223 0 -267 -263l-55 -358q-30 -196 -196 -225l-5 -17q156 -32 127 -227l-57 -360q-44 -263 182 -263
h35z" />
    <glyph glyph-name="braceright.case" horiz-adv-x="743" 
d="M-57 -242l12 90h35q225 0 266 263l57 360q15 98 66 155t131 72l4 17q-159 29 -125 225l55 358q44 263 -182 263h-35l15 90h34q155 0 229 -90.5t44 -272.5l-57 -370q-11 -71 19.5 -108.5t86.5 -37.5l-23 -133q-56 0 -98 -36t-53 -107l-59 -375q-28 -182 -130.5 -272.5
t-257.5 -90.5h-34z" />
    <glyph glyph-name="bracketleft.case" horiz-adv-x="743" 
d="M440 -242h-350l301 1893h350l-14 -90h-244l-272 -1713h246z" />
    <glyph glyph-name="bracketright.case" horiz-adv-x="743" 
d="M-37 -242l14 90h244l271 1713h-242l12 90h350l-299 -1893h-350z" />
    <glyph glyph-name="hyphen.case" horiz-adv-x="1021" 
d="M897 713h-674l15 92h673z" />
    <glyph glyph-name="endash.case" horiz-adv-x="1024" 
d="M1036 713h-950l14 94h951z" />
    <glyph glyph-name="emdash.case" horiz-adv-x="1818" 
d="M1831 713h-1745l14 94h1745z" />
    <glyph glyph-name="guillemotleft.case" horiz-adv-x="972" 
d="M438 289h-110l-197 420l10 71l334 430h107l-344 -444l-5 -35zM813 289h-111l-198 420l12 71l334 430h104l-342 -444l-4 -35z" />
    <glyph glyph-name="guillemotright.case" horiz-adv-x="972" 
d="M580 1210h110l199 -419l-12 -72l-334 -430h-105l342 444l4 35zM207 1210h110l197 -419l-12 -72l-334 -430h-105l343 444l6 35z" />
    <glyph glyph-name="guilsinglleft.case" horiz-adv-x="600" 
d="M438 289h-110l-197 420l10 71l334 430h107l-344 -444l-5 -35z" />
    <glyph glyph-name="guilsinglright.case" horiz-adv-x="600" 
d="M207 1210h110l197 -419l-12 -72l-334 -430h-105l343 444l6 35z" />
    <glyph glyph-name="cent.tnum" horiz-adv-x="1384" 
d="M645 0h-100l35 221q-208 17 -318.5 159.5t-75.5 356.5l4 31q38 235 183 367.5t377 144.5l32 215h99l-35 -215q163 -12 261 -100.5t107 -243.5h-106q-10 123 -99 186.5t-229 63.5q-202 0 -326 -113.5t-157 -318.5q-31 -190 66 -314.5t282 -124.5q328 0 424 267h107
q-113 -342 -496 -361z" />
    <glyph glyph-name="currency.tnum" horiz-adv-x="1384" 
d="M641 317q-162 0 -262 97l-213 -181l-55 66l215 182q-69 113 -47 264l4 25q24 149 129 266l-156 181l76 65l155 -180q130 96 293 96q165 0 264 -96l211 180l56 -65l-213 -181q66 -117 45 -266l-4 -25q-22 -148 -131 -264l157 -182l-75 -66l-156 181q-135 -97 -293 -97z
M655 410q149 0 255 99.5t130 248.5q24 152 -51 250t-223 98q-149 0 -255 -98.5t-130 -249.5q-24 -148 51 -248t223 -100z" />
    <glyph glyph-name="dollar.tnum" horiz-adv-x="1384" 
d="M571 -264h-100l45 270q-231 12 -333 132.5t-72 318.5h106q-26 -161 63 -259t302 -98q194 0 310.5 83.5t137.5 222.5q21 124 -55 208t-244 101l-123 12q-181 19 -267 114.5t-60 260.5q27 165 147 270t313 117l33 205h98l-32 -205q131 -9 216 -67.5t116 -152t12 -212.5
h-107q14 67 0.5 128.5t-46.5 108t-98.5 74t-156.5 27.5q-167 0 -267.5 -81.5t-121.5 -211.5q-19 -119 45.5 -190.5t204.5 -84.5l123 -12q207 -22 306 -131.5t71 -277.5q-27 -171 -164.5 -280.5t-358.5 -119.5z" />
    <glyph glyph-name="Euro.tnum" horiz-adv-x="1384" 
d="M705 -25q-114 0 -203.5 42t-146.5 118t-86.5 179t-30.5 227h-203l14 84h193q3 53 12 108l4 29q6 38 12 72h-151l12 84h158q150 602 641 602q198 0 311.5 -114.5t93.5 -301.5h-98q12 145 -78 232t-244 87q-110 0 -197.5 -36.5t-149.5 -106t-104 -158t-71 -204.5h633
l-12 -84h-641q-2 -15 -7.5 -43t-7.5 -43q-12 -82 -14 -123h600l-14 -84h-588q5 -214 99.5 -341.5t279.5 -127.5q167 0 275 81t141 238h100q-42 -204 -180 -310t-352 -106z" />
    <glyph glyph-name="riel-khmer.tnum" horiz-adv-x="1384" 
d="M721 -10h-137q-112 0 -196 30.5t-128.5 95t-30.5 154.5q47 291 484 291l30 195h-327l14 84h326l8 53q12 80 -53 127q-27 21 -78 55.5t-80 57.5q-61 46 -66 113.5t41 135.5q46 72 113.5 97.5t169.5 25.5q119 0 279 -22l-15 -94q-164 24 -293 24q-63 0 -104 -15t-68 -59
q-50 -84 11 -133q33 -27 88.5 -63t78.5 -53q94 -68 76 -197l-8 -53h291l-14 -84h-291zM592 84h45l61 387q-78 -1 -133.5 -9t-108.5 -28.5t-84.5 -61.5t-41.5 -102q-14 -93 59.5 -139.5t202.5 -46.5z" />
    <glyph glyph-name="sterling.tnum" horiz-adv-x="1384" 
d="M1108 0h-1032l14 90h170l92 580h-157l14 82h156l41 258q39 245 178 372t358 127q147 0 303 -28l-16 -97q-154 27 -309 27q-77 0 -141.5 -21t-120 -66.5t-94.5 -126t-56 -191.5l-41 -254h502l-15 -82h-499l-93 -580h662l35 232h98z" />
    <glyph glyph-name="yen.tnum" horiz-adv-x="1384" 
d="M635 0h-103l56 344h-434l12 84h434l33 209h-434l14 82h350l-291 776h115l287 -776h53l512 776h111l-516 -776h350l-15 -82h-434l-33 -209h435l-13 -84h-434z" />
    <glyph glyph-name="plus.tnum" horiz-adv-x="1384" 
d="M682 213h-100l71 446h-405l14 91h404l71 446h101l-72 -446h403l-14 -91h-401z" />
    <glyph glyph-name="minus.tnum" horiz-adv-x="1384" 
d="M1192 659h-909l14 91h909z" />
    <glyph glyph-name="multiply.tnum" horiz-adv-x="1384" 
d="M209 330l440 375l-321 378l75 66l322 -379l440 377l54 -62l-441 -376l320 -377l-76 -66l-322 377l-438 -375z" />
    <glyph glyph-name="divide.tnum" horiz-adv-x="1384" 
d="M831 1022h-141l25 156h141zM1157 662h-907l14 90h907zM707 233h-142l25 156h141z" />
    <glyph glyph-name="equal.tnum" horiz-adv-x="1384" 
d="M1194 805h-889l14 90h889zM1141 469h-889l14 90h889z" />
    <glyph glyph-name="caroncomb.alt" 
d="M322 1180h-86l73 467h99z" />
    <glyph glyph-name="dieresiscomb.case" 
d="M213 1690q-44 0 -65 24t-15 66q6 40 35.5 65t73.5 25q42 0 64 -25t16 -65q-8 -42 -36.5 -66t-72.5 -24zM639 1690q-44 0 -65 24t-15 66q6 40 35.5 65t73.5 25q42 0 64 -25t16 -65q-8 -42 -36.5 -66t-72.5 -24z" />
    <glyph glyph-name="dotaccentcomb.case" 
d="M213 1690q-44 0 -65 24t-15 66q6 40 35.5 65t73.5 25q42 0 64 -25t16 -65q-8 -42 -36.5 -66t-72.5 -24z" />
    <glyph glyph-name="gravecomb.case" 
d="M473 1632h-111l-210 301h131z" />
    <glyph glyph-name="acutecomb.case" 
d="M213 1632h-107l285 301h127z" />
    <glyph glyph-name="hungarumlautcomb.case" 
d="M506 1632h-90l219 301h113zM197 1632h-91l220 301h112z" />
    <glyph glyph-name="circumflexcomb.case" 
d="M211 1632h-105l285 301h150l192 -301h-106l-152 238h-39z" />
    <glyph glyph-name="caroncomb.case" 
d="M485 1632h-145l-188 301h108l146 -237h36l213 237h105z" />
    <glyph glyph-name="brevecomb.case" 
d="M408 1618q-148 0 -207.5 85t-48.5 230h86q-21 -235 184 -235t262 235h80q-31 -144 -119 -229.5t-237 -85.5z" />
    <glyph glyph-name="ringcomb.case" 
d="M317 1589q-103 0 -153.5 61.5t-36.5 149.5q13 87 83.5 148t174.5 61q102 0 152.5 -61t37.5 -148q-14 -88 -84.5 -149.5t-173.5 -61.5zM328 1661q71 0 117 39.5t55 99.5q8 60 -24.5 99.5t-102.5 39.5q-71 0 -116 -39.5t-54 -99.5t23 -99.5t102 -39.5z" />
    <glyph glyph-name="tildecomb.case" 
d="M590 1688q-43 0 -79.5 15.5t-58.5 33.5t-55 33.5t-69 15.5q-100 0 -164 -88l-33 61q34 51 91.5 82t121.5 31q43 0 79 -15.5t58 -33.5t55 -33.5t70 -15.5q44 0 87.5 22.5t74.5 65.5l35 -62q-39 -52 -95 -82t-118 -30z" />
    <glyph glyph-name="macroncomb.case" 
d="M725 1739h-594l14 84h592z" />
    <glyph glyph-name="commaturnedabovecomb.case" 
d="M211 1559q-56 0 -81.5 41t-12.5 126l2 11q18 115 82 172t164 57h16l-12 -63h-17q-135 0 -162 -162l-4 -33q24 21 60 21q38 0 57.5 -22.5t13.5 -64.5q-6 -39 -35.5 -61t-70.5 -22z" />
    <glyph glyph-name="commaaccentcomb.case" 
d="M-61 -543h-17l12 66h17q68 0 111.5 46.5t56.5 137.5l4 23q-28 -21 -60 -21q-37 0 -57 23.5t-14 64.5t36 65.5t70 24.5q56 0 83 -42t14 -124l-2 -10q-20 -126 -86.5 -190t-167.5 -64z" />
    <glyph glyph-name="cedillacomb.case" 
d="M70 -485q-84 0 -146 20l13 84q68 -20 147 -20q148 0 166 100q8 43 -24 68.5t-97 25.5h-63l36 227h80l-24 -149q94 -5 143 -51t39 -119q-14 -85 -86 -135.5t-184 -50.5z" />
    <glyph glyph-name="ogonekcomb.case" 
d="M270 -506q-94 0 -145.5 57.5t-34.5 153.5q23 163 240 313l61 39l31 -57l-60 -41q-166 -119 -186 -246q-10 -64 20.5 -98.5t92.5 -34.5q48 0 100 19l-14 -86q-49 -19 -105 -19z" />
    <glyph glyph-name="sora.tnum" horiz-adv-x="1384" 
d="M723 944l-680 -944h-115l746 1024h-586l14 84h598l48 301h-598l14 86h1294l-14 -86h-598l-47 -301h598l-15 -84h-585l424 -1024h-117z" />
    </font>
</defs>
</svg>
