<?xml version="1.0" standalone="no"?>
<!DOCTYPE svg PUBLIC "-//W3C//DTD SVG 1.1//EN" "http://www.w3.org/Graphics/SVG/1.1/DTD/svg11.dtd" >
<svg xmlns="http://www.w3.org/2000/svg" xmlns:xlink="http://www.w3.org/1999/xlink" version="1.1">
<metadata>
Created by FontForge 20201107 at Mon Sep 30 11:26:24 2024
 By 
Copyright 2019 The Sora Project Authors (https://github.com/sora-xor/sora-font)
</metadata>
<defs>
<font id="Sora-ThinItalic" horiz-adv-x="614" >
  <font-face 
    font-family="Sora Thin"
    font-weight="100"
    font-style="italic"
    font-stretch="normal"
    units-per-em="2048"
    panose-1="0 0 0 0 0 0 0 0 0 0"
    ascent="1638"
    descent="-410"
    x-height="1065"
    cap-height="1495"
    bbox="-322 -528 2621.06 2359"
    underline-thickness="102"
    underline-position="-255"
    slope="-9"
    unicode-range="U+000D-FB04"
  />
<missing-glyph horiz-adv-x="1617" 
d="M1303 -10h-1229l241 1523h1229zM354 1468l-227 -1433h1135l227 1433h-1135zM748 459h-52l37 233h58q111 0 185.5 70t92.5 180q19 112 -35 182t-160 70q-109 0 -189.5 -74t-100.5 -196h-54q22 140 119.5 231.5t233.5 91.5q130 0 197 -86.5t48 -210.5l-2 -14
q-20 -124 -114 -210.5t-236 -86.5zM719 205h-76l14 90h76z" />
    <glyph glyph-name="f_f" unicode="ff" horiz-adv-x="1429" 
d="M201 0h-66l160 1004h-174l10 57h172l25 156q22 139 111.5 214.5t232.5 75.5h131l-8 -61h-152q-102 0 -166.5 -53t-79.5 -152l-28 -180h610l22 143q22 139 112 215t233 76h143l-8 -61h-164q-102 0 -166.5 -53t-79.5 -152l-27 -168h402l-10 -57h-400l-159 -1004h-66
l160 1004h-611z" />
    <glyph glyph-name="fi" unicode="fi" horiz-adv-x="1298" 
d="M201 0h-66l160 1004h-174l10 57h172l25 156q22 139 111.5 214.5t232.5 75.5h127l-8 -61h-148q-102 0 -166.5 -53t-79.5 -152l-28 -180h385l-11 -57h-383zM1087 1315q-31 0 -47 19t-10 48q5 32 25.5 50t54.5 18q31 0 47.5 -19.5t11.5 -48.5q-12 -67 -82 -67zM958 0h-65
l158 1004h-185l11 61h249z" />
    <glyph glyph-name="fl" unicode="fl" horiz-adv-x="1265" 
d="M201 0h-66l160 1004h-172l8 57h172l23 143q23 139 113 215t233 76h131l-10 -61h-152q-102 0 -166.5 -53t-79.5 -152l-26 -168h376l-8 -57h-377zM926 0h-66l227 1434h-155l10 61h221z" />
    <glyph glyph-name="f_f_i" unicode="ffi" horiz-adv-x="1974" 
d="M201 0h-66l160 1008h-172l8 57h172l25 152q22 139 111.5 214.5t232.5 75.5h127l-8 -61h-148q-102 0 -166.5 -53t-79.5 -152l-28 -176h610l22 139q22 139 112 215t233 76h127l-9 -61h-147q-102 0 -166.5 -53t-79.5 -152l-27 -164h386l-9 -57h-385l-159 -1008h-66l160 1008
h-611zM1763 1315q-31 0 -47 19t-10 48q5 32 25.5 50t54.5 18q31 0 47.5 -19.5t11.5 -48.5q-12 -67 -82 -67zM1634 0h-65l157 1004h-184l10 61h250z" />
    <glyph glyph-name="f_f_l" unicode="ffl" horiz-adv-x="1941" 
d="M201 0h-66l160 1004h-174l10 57h172l25 156q22 139 111.5 214.5t232.5 75.5h131l-8 -61h-152q-102 0 -166.5 -53t-79.5 -152l-28 -180h610l22 143q22 139 112 215t233 76h131l-9 -61h-151q-102 0 -166.5 -53t-79.5 -152l-27 -168h377l-10 -57h-375l-159 -1004h-66
l160 1004h-611zM1602 0h-66l225 1434h-153l8 61h221l-8 -61h-2z" />
    <glyph glyph-name="f_f_j" unicode="ffj" horiz-adv-x="1994" 
d="M201 0h-66l160 1008h-172l8 57h172l25 152q22 139 111.5 214.5t232.5 75.5h131l-8 -61h-152q-102 0 -166.5 -53t-79.5 -152l-28 -176h610l22 139q22 139 112 215t233 76h143l-8 -61h-164q-102 0 -166.5 -53t-79.5 -152l-27 -164h402l-8 -57h-402l-159 -1008h-66l160 1008
h-611zM1788 1335q-31 0 -47.5 19.5t-11.5 48.5q9 67 79 67q31 0 48 -19t12 -48q-5 -32 -25.5 -50t-54.5 -18zM1329 -414h-117l9 62h141q87 0 138 55.5t67 153.5l180 1147h-188l10 61h254l-187 -1180q-23 -140 -100 -219.5t-207 -79.5z" />
    <glyph glyph-name="f_j" unicode="fj" horiz-adv-x="1318" 
d="M201 0h-66l160 1008h-172l8 57h172l25 152q22 139 111.5 214.5t232.5 75.5h114l-8 -61h-135q-102 0 -166.5 -53t-79.5 -152l-28 -176h372l-8 -57h-373zM1112 1335q-31 0 -47.5 19.5t-11.5 48.5q4 32 25 49.5t55 17.5q31 0 47.5 -19t11.5 -48q-5 -32 -25.5 -50t-54.5 -18z
M653 -414h-116l8 62h141q87 0 138 55.5t67 153.5l180 1147h-188l10 61h254l-186 -1180q-23 -140 -100.5 -219.5t-207.5 -79.5z" />
    <glyph glyph-name=".notdef" horiz-adv-x="1617" 
d="M1303 -10h-1229l241 1523h1229zM354 1468l-227 -1433h1135l227 1433h-1135zM748 459h-52l37 233h58q111 0 185.5 70t92.5 180q19 112 -35 182t-160 70q-109 0 -189.5 -74t-100.5 -196h-54q22 140 119.5 231.5t233.5 91.5q130 0 197 -86.5t48 -210.5l-2 -14
q-20 -124 -114 -210.5t-236 -86.5zM719 205h-76l14 90h76z" />
    <glyph glyph-name=".null" horiz-adv-x="0" 
 />
    <glyph glyph-name="nonmarkingreturn" horiz-adv-x="682" 
 />
    <glyph glyph-name="NULL" horiz-adv-x="1228" 
 />
    <glyph glyph-name="NULL" horiz-adv-x="1228" 
 />
    <glyph glyph-name="CR" unicode="&#xd;" horiz-adv-x="1228" 
 />
    <glyph glyph-name="space" unicode=" " horiz-adv-x="499" 
 />
    <glyph glyph-name="exclam" unicode="!" horiz-adv-x="524" 
d="M231 348h-65l182 1147h66zM193 0h-99l19 111h98z" />
    <glyph glyph-name="quotedbl" unicode="&#x22;" horiz-adv-x="770" 
d="M334 991h-62l80 504h62zM575 991h-61l80 504h61z" />
    <glyph glyph-name="numbersign" unicode="#" horiz-adv-x="1347" 
d="M231 0h-61l147 465h-280l10 57h289l141 451h-291l11 57h299l147 465h62l-148 -465h412l147 465h62l-148 -465h281l-11 -57h-288l-142 -451h291l-10 -57h-299l-147 -465h-62l148 465h-412zM397 522h412l141 451h-411z" />
    <glyph glyph-name="dollar" unicode="$" horiz-adv-x="1351" 
d="M535 -264h-62l43 268q-219 9 -342.5 129.5t-93.5 312.5h65q-27 -174 91 -277t323 -103q447 0 500 329q24 146 -69.5 237t-262.5 107l-133 13q-168 15 -259.5 111t-68.5 247q28 182 153.5 277.5t323.5 103.5l31 203h62l-31 -203q189 -11 293.5 -127t75.5 -295h-66
q26 160 -72 260.5t-272 100.5q-178 0 -292.5 -80.5t-139.5 -239.5q-20 -126 59 -205.5t221 -91.5l133 -12q194 -19 300 -127t79 -279q-16 -100 -62.5 -175t-119.5 -121t-163.5 -69.5t-200.5 -25.5z" />
    <glyph glyph-name="percent" unicode="%" horiz-adv-x="1654" 
d="M403 717q-141 0 -204.5 109t-36.5 274l4 24q28 178 117 280.5t245 102.5q94 0 155.5 -51.5t83.5 -137.5t5 -194l-4 -24q-29 -179 -119 -281t-246 -102zM436 0h-59l840 1495h59zM412 770q247 0 301 342q15 96 0 172t-64.5 123t-128.5 47q-245 0 -299 -342
q-24 -148 24.5 -245t166.5 -97zM1124 -12q-140 0 -204.5 108.5t-38.5 274.5l4 24q29 179 118.5 281t245.5 102q141 0 205 -109t37 -274l-4 -24q-28 -178 -117.5 -280.5t-245.5 -102.5zM1133 41q245 0 299 342q24 148 -24.5 245t-166.5 97q-244 0 -301 -342q-15 -96 0 -172
t64.5 -123t128.5 -47z" />
    <glyph glyph-name="ampersand" unicode="&#x26;" horiz-adv-x="1327" 
d="M434 -33q-202 0 -316.5 116.5t-84.5 301.5l2 16q24 151 103.5 250t223.5 174q-97 154 -71 316q28 182 157.5 272t333.5 90q150 0 320 -20l-10 -62q-159 21 -330 21q-167 0 -274.5 -75t-131.5 -226q-19 -113 18.5 -201.5t127.5 -200.5l381 -483q129 194 190 575h-287
l11 58h483l-10 -58h-135q-66 -414 -215 -620l165 -211h-81l-125 158q-170 -191 -445 -191zM98 393q-26 -161 72.5 -262.5t273.5 -101.5q252 0 398 176l-389 493q-9 12 -29.5 38.5t-30.5 39.5q-130 -65 -202 -156t-93 -227z" />
    <glyph glyph-name="quotesingle" unicode="'" horiz-adv-x="528" 
d="M334 991h-62l80 504h62z" />
    <glyph glyph-name="parenleft" unicode="(" horiz-adv-x="729" 
d="M483 -373h-73q-171 231 -223 462t-7 525q48 305 174 527.5t365 447.5h74q-162 -157 -265 -293t-176.5 -306.5t-105.5 -375.5q-45 -286 11 -516t226 -471z" />
    <glyph glyph-name="parenright" unicode=")" horiz-adv-x="729" 
d="M-125 -373q249 242 378 471.5t173 515.5q20 125 21 235t-14.5 204t-50.5 186t-81.5 174.5t-112.5 175.5h74q168 -225 224 -447.5t6 -527.5q-46 -293 -172 -524.5t-371 -462.5h-74z" />
    <glyph glyph-name="asterisk" unicode="*" horiz-adv-x="1155" 
d="M659 1612h70l-72 -385l-151 -82l-311 186l47 60l272 -177l92 50zM1063 866l-45 -61l-297 203l24 159l363 203l25 -61l-330 -172l-17 -99zM145 784l-24 62l368 182l127 -78l-51 -389l-71 2l57 348l-76 50z" />
    <glyph glyph-name="plus" unicode="+" horiz-adv-x="1196" 
d="M578 246h-66l68 432h-390l11 57h389l67 432h66l-68 -432h389l-10 -57h-389z" />
    <glyph glyph-name="comma" unicode="," horiz-adv-x="512" 
d="M332 123l-226 -422l-51 20l221 422z" />
    <glyph glyph-name="hyphen" unicode="-" horiz-adv-x="1015" 
d="M862 541h-631l9 57h630z" />
    <glyph glyph-name="period" unicode="." horiz-adv-x="512" 
d="M297 0h-98l16 111h98z" />
    <glyph glyph-name="slash" unicode="/" horiz-adv-x="577" 
d="M-35 -123h-61l690 1720h61z" />
    <glyph glyph-name="zero" unicode="0" horiz-adv-x="1470" 
d="M608 -33q-106 0 -189.5 38t-137 105.5t-85.5 160.5t-35 204t15 236l10 69q121 752 670 752q106 0 190 -38.5t137.5 -106.5t85.5 -162.5t34.5 -206.5t-15.5 -238l-10 -69q-121 -744 -670 -744zM618 29q112 0 202.5 36.5t154.5 99t113.5 155.5t79.5 196.5t51 231.5
q16 120 17 227t-25 198t-71 157t-120.5 103t-173.5 37q-112 0 -202.5 -36.5t-154.5 -99.5t-113 -156.5t-78.5 -197.5t-49.5 -232q-17 -119 -18 -225.5t24.5 -197t70.5 -156.5t120 -103t173 -37z" />
    <glyph glyph-name="one" unicode="1" horiz-adv-x="835" 
d="M414 0h-66l227 1434h-356l10 61h422z" />
    <glyph glyph-name="two" unicode="2" horiz-adv-x="1241" 
d="M1001 0h-933l30 193q19 125 96 201.5t216 137.5l344 152q140 62 217 152t100 231q28 176 -64 289.5t-264 113.5q-189 0 -306 -105.5t-148 -297.5h-66q35 222 173 343.5t358 121.5q199 0 306 -127.5t75 -325.5l-5 -24q-25 -156 -115 -254.5t-251 -169.5l-346 -154
q-112 -48 -174 -110.5t-80 -165.5l-23 -140h871z" />
    <glyph glyph-name="three" unicode="3" horiz-adv-x="1228" 
d="M475 -33q-211 0 -326 132t-83 337h65q-29 -178 70.5 -292.5t281.5 -114.5q200 0 325.5 102.5t156.5 294.5q28 178 -70.5 291.5t-280.5 113.5q-121 0 -219 -57l-39 82l734 553l-9 25h-800l10 61h866l-18 -119l-676 -510q69 27 166 27q208 0 321.5 -127.5t81.5 -327.5
l-4 -24q-35 -217 -180 -332t-373 -115z" />
    <glyph glyph-name="four" unicode="4" horiz-adv-x="1249" 
d="M848 0h-66l64 410h-783l17 94l821 1003l39 -37l-807 -983l12 -20h711l90 573h66l-90 -573h213l-11 -57h-213z" />
    <glyph glyph-name="five" unicode="5" horiz-adv-x="1236" 
d="M506 -33q-214 0 -331 133t-85 342h66q-28 -181 72.5 -297t285.5 -116q203 0 331 107t159 306q29 181 -72 297.5t-287 116.5q-104 0 -183.5 -30t-164.5 -99h-61l200 768h664l-10 -61h-611l-164 -631q78 60 158 87.5t182 27.5q213 0 330.5 -130t85.5 -333l-4 -25
q-35 -224 -182 -343.5t-379 -119.5z" />
    <glyph glyph-name="six" unicode="6" horiz-adv-x="1318" 
d="M567 -33q-162 0 -264.5 94t-135 248t-1.5 348l8 62q29 179 90.5 321t157 246.5t231 160.5t303.5 56q99 0 222 -18l-11 -62q-133 19 -227 19q-154 0 -277 -52.5t-209 -149.5t-141.5 -228.5t-81.5 -296.5l-10 -70q67 153 196 235.5t312 82.5q217 0 333 -138.5t81 -353.5
q-37 -240 -186.5 -372t-389.5 -132zM578 29q209 0 337.5 115.5t161.5 326.5q31 188 -70 309t-290 121q-208 0 -338 -113t-164 -321q-31 -191 71 -314.5t292 -123.5z" />
    <glyph glyph-name="seven" unicode="7" horiz-adv-x="1122" 
d="M289 0h-68l850 1409l-10 25h-760l-43 -279h-61l43 279l10 61h897l-17 -96z" />
    <glyph glyph-name="eight" unicode="8" horiz-adv-x="1257" 
d="M502 -33q-219 0 -343.5 119.5t-92.5 312.5q53 339 383 394l4 20q-122 38 -177.5 127t-35.5 215q30 189 164.5 283t345.5 94q195 0 306.5 -103.5t84.5 -273.5q-21 -136 -101 -218.5t-219 -123.5l-4 -20q147 -26 215.5 -132t44.5 -262q-34 -215 -185.5 -323.5
t-389.5 -108.5zM639 831q180 0 295.5 80.5t140.5 241.5q23 144 -73 230.5t-263 86.5q-179 0 -294 -79t-140 -238q-23 -145 72.5 -233.5t261.5 -88.5zM512 29q206 0 338 92.5t162 277.5q17 112 -27.5 198t-137 131.5t-216.5 45.5q-208 0 -340 -94t-160 -281
q-27 -167 82 -268.5t299 -101.5z" />
    <glyph glyph-name="nine" unicode="9" horiz-adv-x="1318" 
d="M745 1528q98 0 176 -35t127.5 -98t79.5 -149.5t32.5 -189.5t-13.5 -218l-8 -62q-29 -179 -91 -321t-157 -246.5t-231 -160.5t-304 -56q-98 0 -221 18l10 62q133 -19 228 -19q154 0 277 52.5t209 149.5t141 228.5t81 296.5l11 70q-67 -153 -196 -235.5t-312 -82.5
q-217 0 -333 138.5t-81 353.5q37 241 186 372.5t389 131.5zM735 1466q-209 0 -337.5 -115.5t-161.5 -326.5q-31 -188 70 -309t290 -121q208 0 338 113t164 321q31 191 -71 314.5t-292 123.5z" />
    <glyph glyph-name="colon" unicode=":" horiz-adv-x="638" 
d="M424 799h-98l16 110h98zM297 0h-98l16 111h98z" />
    <glyph glyph-name="semicolon" unicode=";" horiz-adv-x="512" 
d="M432 799h-98l16 110h99zM340 123l-225 -422l-52 20l222 422z" />
    <glyph glyph-name="less" unicode="&#x3c;" horiz-adv-x="1187" 
d="M186 614l4 33l9 58l6 32l893 312l-11 -64l-845 -293l-4 -35l751 -292l-10 -62z" />
    <glyph glyph-name="equal" unicode="=" horiz-adv-x="1196" 
d="M1079 817h-843l10 57h844zM1030 496h-844l9 57h843z" />
    <glyph glyph-name="greater" unicode="&#x3e;" horiz-adv-x="1187" 
d="M1030 614l-893 -311l10 64l846 292l4 35l-751 293l10 62l793 -312l-5 -32l-8 -58z" />
    <glyph glyph-name="question" unicode="?" horiz-adv-x="1105" 
d="M455 348h-66l60 377h73q177 0 288 97.5t140 275.5q26 162 -59 267t-244 105q-183 0 -294.5 -106t-141.5 -295h-61q34 220 164.5 341.5t342.5 121.5q187 0 287.5 -119.5t71.5 -304.5l-2 -21q-32 -204 -167 -313.5t-343 -109.5zM416 0h-99l17 111h98z" />
    <glyph glyph-name="at" unicode="@" horiz-adv-x="2285" 
d="M954 -483q-142 0 -266.5 34t-221 97t-171 153t-115.5 201.5t-54.5 243t11.5 276.5q76 481 372.5 745.5t774.5 264.5q207 0 375.5 -67t277.5 -186t155 -289t15 -369q-16 -104 -39 -187t-61 -159t-87.5 -127t-121 -81t-160.5 -30q-109 0 -166 75.5t-51 196.5
q-130 -264 -426 -264q-188 0 -285.5 131.5t-66.5 333.5l4 20q34 214 162 332.5t336 118.5q134 0 223 -69.5t117 -188.5l39 244h53l-98 -609q-18 -112 27 -186t141 -74q78 0 139 27.5t102 73t72 115.5t49 141.5t33 165.5q30 185 -13 344t-144.5 269.5t-258.5 173t-350 62.5
q-447 0 -724.5 -249t-348.5 -701q-32 -202 7.5 -376.5t138.5 -299t258 -195.5t358 -71q104 0 219 23l-10 -62q-110 -22 -220 -22zM1006 106q181 0 291.5 106t140.5 296l4 24q26 169 -59 278.5t-248 109.5q-178 0 -286 -105.5t-138 -294.5q-28 -178 53 -296t242 -118z" />
    <glyph glyph-name="A" unicode="A" horiz-adv-x="1503" 
d="M33 0h-66l813 1495h160l358 -1495h-67l-129 532h-780zM354 594h733l-200 840h-78z" />
    <glyph glyph-name="B" unicode="B" horiz-adv-x="1353" 
d="M647 -4h-497l237 1503h442q178 0 277.5 -105.5t73.5 -271.5l-2 -16q-43 -267 -291 -342q128 -31 194 -128.5t45 -234.5l-2 -16q-30 -189 -155 -289t-322 -100zM831 1438h-389l-102 -647h389q159 0 258.5 83.5t124.5 239.5q23 141 -56.5 232.5t-224.5 91.5zM774 729h-442
l-107 -672h443q163 0 264.5 87.5t126.5 248.5q25 148 -55.5 242t-229.5 94z" />
    <glyph glyph-name="C" unicode="C" horiz-adv-x="1622" 
d="M752 -33q-213 0 -365.5 100t-217.5 275.5t-30 394.5l4 25q58 364 273.5 567t566.5 203q255 0 405.5 -139t143.5 -379h-66q7 213 -128 334.5t-365 121.5q-322 0 -517 -190.5t-249 -529.5q-25 -153 2 -286t99 -229t189 -151t265 -55q503 0 651 456h66q-165 -518 -727 -518z
" />
    <glyph glyph-name="D" unicode="D" horiz-adv-x="1652" 
d="M645 -6h-495l237 1505h496q219 0 378 -93t230 -261t37 -381l-4 -27q-57 -357 -286 -550t-593 -193zM881 1438h-439l-217 -1383h437q331 0 538 181.5t260 513.5q31 197 -31.5 354t-205.5 245.5t-342 88.5z" />
    <glyph glyph-name="E" unicode="E" horiz-adv-x="1245" 
d="M975 0h-828l238 1495h801l-10 -61h-736l-102 -643h682l-8 -62h-682l-107 -668h762z" />
    <glyph glyph-name="F" unicode="F" horiz-adv-x="1146" 
d="M213 0h-66l238 1495h27l747 2l-10 -61h-709l-100 -635l664 2l-11 -62l-663 -4z" />
    <glyph glyph-name="G" unicode="G" horiz-adv-x="1701" 
d="M764 -33q-162 0 -292.5 58t-212 160t-114 244.5t-6.5 307.5l4 25q58 364 272.5 567t563.5 203q254 0 403 -139t142 -379h-66q7 212 -127 334t-362 122q-320 0 -514 -190.5t-248 -529.5q-25 -154 3.5 -287t102 -229t192.5 -150.5t269 -54.5q174 0 302 44.5t237 151.5
l57 373h-563l8 57h774l-8 -57h-145l-62 -389q-127 -133 -270 -187.5t-340 -54.5z" />
    <glyph glyph-name="H" unicode="H" horiz-adv-x="1658" 
d="M213 0h-66l238 1495h66l-115 -727h995l115 727h65l-237 -1495h-66l113 707h-995z" />
    <glyph glyph-name="I" unicode="I" horiz-adv-x="606" 
d="M217 0h-65l237 1495h66z" />
    <glyph glyph-name="J" unicode="J" horiz-adv-x="1298" 
d="M453 -33q-212 0 -326 136.5t-80 349.5l10 57h66l-10 -66q-29 -182 69 -298.5t279 -116.5q200 0 325.5 108t157.5 307l156 990h-694l10 61h760l-5 -25l-161 -1017q-37 -231 -181.5 -358.5t-375.5 -127.5z" />
    <glyph glyph-name="K" unicode="K" horiz-adv-x="1263" 
d="M213 0h-66l238 1495h66l-121 -766l833 766h80l-764 -698l690 -797h-88l-622 721h-131z" />
    <glyph glyph-name="L" unicode="L" horiz-adv-x="1085" 
d="M913 0h-766l238 1495h66l-228 -1434h701z" />
    <glyph glyph-name="M" unicode="M" horiz-adv-x="1789" 
d="M209 0h-62l238 1495h74l352 -1108h45l705 1108h81l-237 -1495h-66l220 1391l-674 -1063h-119l-338 1054z" />
    <glyph glyph-name="N" unicode="N" horiz-adv-x="1683" 
d="M213 0h-66l238 1495h125l709 -1434h24l227 1434h66l-238 -1495h-124l-709 1434h-25z" />
    <glyph glyph-name="O" unicode="O" horiz-adv-x="1785" 
d="M768 -33q-163 0 -294 58t-213 160t-115 245.5t-7 308.5l4 25q59 366 284.5 567t588.5 201q217 0 372.5 -99t222.5 -274t31 -395l-4 -27q-59 -367 -283.5 -568.5t-586.5 -201.5zM778 29q333 0 537.5 189t259.5 532q33 205 -26.5 369t-201 257.5t-341.5 93.5
q-334 0 -539 -188.5t-260 -531.5q-25 -154 4 -287t103 -229t194 -150.5t270 -54.5z" />
    <glyph glyph-name="P" unicode="P" horiz-adv-x="1249" 
d="M213 0h-66l238 1499h397q206 0 321 -122.5t85 -317.5l-4 -21q-33 -214 -176 -327t-369 -113h-332zM776 1438h-336l-123 -779h336q193 0 315.5 101t151.5 289q28 171 -69 280t-275 109z" />
    <glyph glyph-name="Q" unicode="Q" horiz-adv-x="1785" 
d="M1227 -418h-250q-145 0 -208 73.5t-40 217.5l14 94q-211 6 -360.5 107t-213.5 274.5t-30 390.5l4 25q59 366 284.5 567t588.5 201q217 0 372.5 -99t222.5 -274t31 -395l-4 -27q-57 -356 -271 -557t-558 -213l-16 -102q-35 -221 186 -221h258zM778 29q333 0 537.5 189
t259.5 532q33 205 -26.5 369t-201 257.5t-341.5 93.5q-334 0 -539 -188.5t-260 -531.5q-25 -154 4 -287t103 -229t194 -150.5t270 -54.5z" />
    <glyph glyph-name="R" unicode="R" horiz-adv-x="1355" 
d="M213 0h-66l238 1499h424q199 0 310.5 -120.5t82.5 -309.5l-4 -20q-30 -190 -148 -298.5t-305 -127.5l422 -623h-82l-417 618h-357zM803 1438h-363l-118 -758h362q187 0 304.5 98.5t146.5 280.5q26 167 -67.5 273t-264.5 106z" />
    <glyph glyph-name="S" unicode="S" horiz-adv-x="1458" 
d="M604 -33q-244 0 -383.5 125t-105.5 334h65q-19 -121 33 -212t156.5 -138t244.5 -47q483 0 539 356q24 148 -70.5 241.5t-265.5 108.5l-182 17q-170 14 -262 116.5t-66 259.5q31 200 173.5 302t365.5 102q215 0 335.5 -122.5t90.5 -319.5h-66q27 170 -78 275t-292 105
q-191 0 -313 -85t-150 -257q-21 -133 58 -218t224 -97l181 -16q196 -18 303 -128t80 -284q-18 -110 -71 -191.5t-135 -130.5t-183.5 -72.5t-225.5 -23.5z" />
    <glyph glyph-name="T" unicode="T" horiz-adv-x="1179" 
d="M504 0h-66l228 1434h-492l10 61h1049l-10 -61h-492z" />
    <glyph glyph-name="U" unicode="U" horiz-adv-x="1572" 
d="M625 -33q-171 0 -293 76.5t-175 212.5t-26 307l148 932h65l-149 -940q-35 -229 87.5 -377.5t350.5 -148.5q253 0 410.5 137.5t195.5 388.5l150 940h65l-147 -932q-46 -284 -222.5 -440t-459.5 -156z" />
    <glyph glyph-name="V" unicode="V" horiz-adv-x="1392" 
d="M662 0h-158l-328 1495h68l313 -1434h70l743 1434h68z" />
    <glyph glyph-name="W" unicode="W" horiz-adv-x="2070" 
d="M569 0h-174l-194 1495h65l187 -1434h79l558 1362h104l158 -1362h80l610 1434h65l-639 -1495h-174l-159 1380z" />
    <glyph glyph-name="X" unicode="X" horiz-adv-x="1355" 
d="M4 0l-74 2l697 774l-396 719h72l375 -684h20l602 684h74l-645 -729l430 -766h-72l-407 729h-21z" />
    <glyph glyph-name="Y" unicode="Y" horiz-adv-x="1318" 
d="M580 0h-66l94 592h-78l-346 903h70l319 -842h154l569 842h68l-612 -903h-78z" />
    <glyph glyph-name="Z" unicode="Z" horiz-adv-x="1355" 
d="M1118 0h-1065l17 106l1171 1299l-6 29h-944l10 61h1018l-16 -106l-1172 -1299l6 -29h991z" />
    <glyph glyph-name="bracketleft" unicode="[" horiz-adv-x="729" 
d="M401 -373h-307l8 58l301 1904h308l-9 -57h-241l-293 -1847h242z" />
    <glyph glyph-name="backslash" unicode="\" horiz-adv-x="577" 
d="M395 -123h-61l-170 1720h61z" />
    <glyph glyph-name="bracketright" unicode="]" horiz-adv-x="729" 
d="M-43 -373l10 58h240l297 1847h-244l10 57h308l-306 -1904h2l-10 -58h-307z" />
    <glyph glyph-name="asciicircum" unicode="^" horiz-adv-x="1110" 
d="M252 694h-62l453 787h111l202 -787h-63l-184 736h-37z" />
    <glyph glyph-name="underscore" unicode="_" horiz-adv-x="1142" 
d="M1122 -205h-1142l8 58h1142z" />
    <glyph glyph-name="grave" unicode="`" 
d="M332 1253h-66l-137 377h70z" />
    <glyph glyph-name="a" unicode="a" horiz-adv-x="1150" 
d="M403 -29q-161 0 -251 91.5t-66 238.5q25 159 140.5 238t295.5 79h355l16 103q20 129 -58 211t-217 82q-149 0 -292 -21l10 62q137 20 260 20q181 0 283.5 -102.5t76.5 -267.5l-112 -705h-53l34 219q-116 -248 -422 -248zM418 29q172 0 281 92.5t141 263.5l28 176h-366
q-144 0 -236.5 -66t-113.5 -196q-20 -121 56 -195.5t210 -74.5z" />
    <glyph glyph-name="b" unicode="b" horiz-adv-x="1380" 
d="M647 -33q-165 0 -275.5 85.5t-140.5 228.5l-45 -281h-53l238 1495h65l-106 -666q73 130 199 199.5t296 69.5q151 0 257.5 -73t150 -200.5t18.5 -285.5l-2 -13q-42 -264 -196 -411.5t-406 -147.5zM651 29q224 0 359.5 133t173.5 370q23 143 -14 257.5t-131 180.5t-228 66
q-217 0 -352.5 -116.5t-169.5 -331.5l-19 -111q-31 -197 76 -322.5t305 -125.5z" />
    <glyph glyph-name="c" unicode="c" horiz-adv-x="1228" 
d="M557 -33q-154 0 -262 73.5t-152 202t-18 289.5l2 13q40 262 196.5 407.5t411.5 145.5q185 0 297 -97.5t115 -271.5h-66q-1 146 -98 226.5t-256 80.5q-225 0 -362.5 -131t-174.5 -366q-34 -221 69.5 -365.5t307.5 -144.5q383 0 469 315h66q-114 -377 -545 -377z" />
    <glyph glyph-name="d" unicode="d" horiz-adv-x="1380" 
d="M551 -33q-152 0 -258.5 73t-149.5 200t-18 286l2 13q40 264 195 411.5t407 147.5q157 0 264.5 -78.5t143.5 -212.5l108 688h66l-238 -1495h-53l41 258q-71 -141 -200.5 -216t-309.5 -75zM563 29q218 0 353.5 116t170.5 332l19 111q31 196 -77 322t-306 126
q-224 0 -359.5 -133.5t-173.5 -370.5q-22 -143 15.5 -257t131 -180t226.5 -66z" />
    <glyph glyph-name="e" unicode="e" horiz-adv-x="1232" 
d="M555 -33q-153 0 -260 73.5t-151 202t-19 289.5l2 13q40 261 192.5 407t401.5 146q216 0 332.5 -140.5t81.5 -357.5l-11 -65h-938q-34 -219 71 -362.5t308 -143.5q339 0 441 270h65q-126 -332 -516 -332zM713 1036q-208 0 -338.5 -115.5t-177.5 -324.5h874
q24 193 -74.5 316.5t-283.5 123.5z" />
    <glyph glyph-name="f" unicode="f" horiz-adv-x="753" 
d="M201 0h-66l160 1004h-172l8 57h172l23 143q23 139 113 215t233 76h143l-10 -61h-164q-102 0 -166.5 -53t-79.5 -152l-26 -168h401l-8 -57h-402z" />
    <glyph glyph-name="g" unicode="g" horiz-adv-x="1343" 
d="M477 -418q-131 0 -295 27l11 61q160 -26 303 -26q216 0 350 119t168 335l22 135q-73 -129 -197.5 -197.5t-293.5 -68.5q-150 0 -255 73t-148 200t-19 286l2 13q42 264 195 411.5t403 147.5q165 0 274.5 -85.5t137.5 -230.5l45 283h53l-154 -969q-40 -248 -196 -381
t-406 -133zM559 29q216 0 350 116.5t168 331.5l19 111q31 195 -75 321.5t-302 126.5q-222 0 -357.5 -134t-171.5 -370q-34 -219 67 -361t302 -142z" />
    <glyph glyph-name="h" unicode="h" horiz-adv-x="1280" 
d="M199 0h-66l238 1495h65l-100 -639q127 238 412 238h4q182 0 274 -129t61 -326l-102 -639h-65l104 655q25 163 -54.5 270t-234.5 107q-180 0 -292 -100t-140 -281z" />
    <glyph glyph-name="i" unicode="i" horiz-adv-x="573" 
d="M365 1315q-33 0 -49 18t-11 49q5 30 26 49t54 19t48.5 -19t10.5 -49q-5 -31 -25.5 -49t-53.5 -18zM233 0h-65l158 1004h-183l9 61h249l-8 -61h-2z" />
    <glyph glyph-name="j" unicode="j" horiz-adv-x="589" 
d="M381 1335q-29 0 -45.5 19.5t-11.5 48.5q9 67 79 67q31 0 48 -19t12 -48q-13 -68 -82 -68zM-78 -414h-117l11 62h141q86 0 136.5 55.5t66.5 153.5l182 1147h-188l10 61h254l-189 -1180q-22 -141 -99.5 -220t-207.5 -79z" />
    <glyph glyph-name="k" unicode="k" horiz-adv-x="1058" 
d="M199 0h-66l238 1495h65l-155 -977l610 547h80l-529 -471l478 -594h-84l-404 504h-153z" />
    <glyph glyph-name="l" unicode="l" horiz-adv-x="512" 
d="M172 0h-66l228 1434h-168l10 61h234z" />
    <glyph glyph-name="m" unicode="m" horiz-adv-x="1945" 
d="M201 0h-66l168 1067h53l-37 -233q116 260 398 260h4q134 0 214.5 -82.5t92.5 -218.5q53 143 156.5 222t257.5 79h4q115 0 192 -60.5t105.5 -163t7.5 -231.5l-100 -639h-66l103 655q27 163 -42.5 270t-213.5 107q-170 0 -273 -102t-131 -283l-102 -647h-66l103 655
q27 163 -42.5 270t-213.5 107q-170 0 -273 -102t-131 -283z" />
    <glyph glyph-name="n" unicode="n" horiz-adv-x="1282" 
d="M201 0h-66l168 1065h53l-37 -238q58 127 167.5 197t261.5 70h4q182 0 274 -129t61 -326l-100 -639h-65l102 655q27 163 -52.5 270t-234.5 107q-181 0 -292.5 -101t-141.5 -284z" />
    <glyph glyph-name="o" unicode="o" horiz-adv-x="1339" 
d="M578 -33q-238 0 -365.5 157.5t-89.5 401.5l2 13q42 266 205.5 412.5t425.5 146.5q238 0 365 -157.5t89 -401.5l-2 -13q-42 -266 -204.5 -412.5t-425.5 -146.5zM588 29q232 0 375 132.5t182 370.5q34 219 -76.5 361.5t-320.5 142.5q-232 0 -376.5 -132.5t-181.5 -371.5
q-36 -218 75 -360.5t323 -142.5z" />
    <glyph glyph-name="p" unicode="p" horiz-adv-x="1447" 
d="M201 -410h-66l234 1475h53l-41 -258q71 141 201 216t309 75q152 0 258.5 -73t149.5 -200t18 -286l-2 -13q-40 -264 -195 -411.5t-407 -147.5q-158 0 -265 78.5t-141 212.5zM719 29q224 0 359 133t173 370q34 218 -68.5 361t-303.5 143q-218 0 -354.5 -116.5
t-170.5 -331.5l-18 -111q-31 -196 77 -322t306 -126z" />
    <glyph glyph-name="q" unicode="q" horiz-adv-x="1378" 
d="M1008 -410h-66l102 646q-73 -131 -198.5 -200t-296.5 -69q-151 0 -257 73t-149.5 200t-19.5 286l2 13q42 264 196 411.5t406 147.5q165 0 275.5 -85.5t140.5 -228.5l45 281h53zM563 29q217 0 352.5 116.5t169.5 331.5l19 111q31 197 -76 322.5t-305 125.5
q-224 0 -359.5 -133.5t-173.5 -370.5q-34 -218 68 -360.5t305 -142.5z" />
    <glyph glyph-name="r" unicode="r" horiz-adv-x="796" 
d="M201 0h-66l168 1065h53l-45 -287q61 142 182.5 218.5t294.5 76.5h35l-8 -61h-51q-195 0 -316.5 -105t-150.5 -299z" />
    <glyph glyph-name="s" unicode="s" horiz-adv-x="1056" 
d="M434 -29q-172 0 -271.5 87t-76.5 233h66q-20 -119 64 -188.5t228 -69.5q155 0 254 62.5t121 195.5q17 97 -49 155.5t-186 71.5l-129 14q-125 14 -192.5 86.5t-49.5 184.5q23 148 128 221.5t271 73.5q154 0 242.5 -80.5t67.5 -214.5h-66q18 106 -54 169.5t-198 63.5
q-136 0 -222 -58.5t-106 -178.5q-13 -87 41 -141.5t152 -65.5l129 -14q145 -16 226 -92t61 -199q-27 -161 -145.5 -238.5t-305.5 -77.5z" />
    <glyph glyph-name="t" unicode="t" horiz-adv-x="843" 
d="M614 -10h-182q-132 0 -204 83t-52 212l115 723h-211l8 57h211l57 360h66l-57 -360h419l-8 -57h-420l-116 -740q-15 -95 36 -156t146 -61h203z" />
    <glyph glyph-name="u" unicode="u" horiz-adv-x="1224" 
d="M500 -29h-4q-117 0 -197.5 59t-112 160t-12.5 228l102 647h66l-104 -664q-27 -159 48 -263.5t224 -104.5q173 0 280.5 99t135.5 278l104 655h66l-168 -1065h-54l37 233q-58 -126 -161.5 -194t-249.5 -68z" />
    <glyph glyph-name="v" unicode="v" horiz-adv-x="1073" 
d="M545 0h-152l-231 1065h67l217 -1004h66l494 1004h65z" />
    <glyph glyph-name="w" unicode="w" horiz-adv-x="1605" 
d="M467 0h-143l-158 1065h67l148 -1004h47l393 969h113l117 -969h49l430 1004h65l-458 -1065h-144l-121 991z" />
    <glyph glyph-name="x" unicode="x" horiz-adv-x="1069" 
d="M68 0h-70l500 553l-297 512h71l263 -455h24l391 455h70l-442 -512l335 -553h-71l-301 496h-25z" />
    <glyph glyph-name="y" unicode="y" horiz-adv-x="1040" 
d="M29 -414h-101l11 62h104q119 0 201 55t137 166l80 160h-90l-230 1036h68l213 -975h67l484 975h65l-608 -1223q-65 -129 -162.5 -192.5t-238.5 -63.5z" />
    <glyph glyph-name="z" unicode="z" horiz-adv-x="978" 
d="M809 0h-764l14 98l818 889l-9 21h-665l8 57h735l-14 -98l-817 -889l8 -21h694z" />
    <glyph glyph-name="braceleft" unicode="{" horiz-adv-x="729" 
d="M426 -373h-29q-148 0 -216 85.5t-38 267.5l68 423q11 76 -19.5 114t-82.5 38l18 107q53 0 94.5 37.5t52.5 113.5l68 424q57 352 365 352h28l-8 -57h-29q-123 0 -193.5 -67.5t-94.5 -219.5l-66 -407q-13 -93 -60.5 -150t-119.5 -72l-2 -16q66 -15 95.5 -71.5t14.5 -149.5
l-65 -408q-24 -152 26 -219t173 -67h28z" />
    <glyph glyph-name="bar" unicode="|" horiz-adv-x="757" 
d="M225 -412l-59 2l301 1905l61 -2z" />
    <glyph glyph-name="braceright" unicode="}" horiz-adv-x="729" 
d="M-68 -373l11 58h28q123 0 195 67.5t96 218.5l64 408q13 93 61 149.5t119 71.5l2 16q-66 15 -96 72t-13 150l64 407q24 152 -26 219.5t-173 67.5h-28l10 57h28q306 0 252 -352l-65 -424q-13 -76 16.5 -113.5t81.5 -37.5l-14 -107q-53 0 -96 -38t-56 -114l-65 -423
q-28 -182 -123.5 -267.5t-243.5 -85.5h-29z" />
    <glyph glyph-name="asciitilde" unicode="~" horiz-adv-x="903" 
d="M653 537q-46 0 -85 18.5t-66 44.5t-53 52t-59 44.5t-71 18.5q-115 0 -182 -140h-59q34 97 104 151t152 54q46 0 85 -18.5t66 -44.5t53 -52t59 -44.5t71 -18.5q115 0 182 139h59q-32 -96 -104 -150t-152 -54z" />
    <glyph glyph-name="nbspace" unicode="&#xa0;" horiz-adv-x="499" 
 />
    <glyph glyph-name="exclamdown" unicode="&#xa1;" horiz-adv-x="524" 
d="M360 1065l-16 -111h-98l16 111h98zM289 717l-180 -1147h-66l180 1147h66z" />
    <glyph glyph-name="cent" unicode="&#xa2;" horiz-adv-x="1261" 
d="M578 0h-62l35 221q-141 7 -241 75t-143.5 183.5t-21.5 259.5l5 25q37 238 185 370t384 140l35 221h61l-35 -221q161 -8 261.5 -91.5t115.5 -236.5h-65q-14 133 -109.5 199.5t-247.5 66.5q-217 0 -352 -120t-170 -340q-32 -203 74 -336t305 -133q349 0 461 288h65
q-125 -338 -506 -350z" />
    <glyph glyph-name="sterling" unicode="&#xa3;" horiz-adv-x="1245" 
d="M1040 0h-1060l8 57h188l100 623h-178l11 57h176l43 273q37 236 176 366.5t366 130.5q136 0 306 -30l-11 -62q-178 31 -311 31q-194 0 -311.5 -116t-149.5 -320l-43 -273h533l-11 -57h-530l-100 -623h741l39 250h65z" />
    <glyph glyph-name="currency" unicode="&#xa4;" horiz-adv-x="1310" 
d="M606 326q-173 0 -272 104l-207 -174l-33 39l207 174q-80 113 -53 281l4 20q27 180 133 289l-143 166l45 39l143 -166q125 96 313 96q176 0 275 -104l207 174l32 -39l-206 -174q80 -113 53 -281l-4 -20q-27 -181 -135 -289l145 -166l-45 -39l-143 166q-125 -96 -316 -96z
M616 383q177 0 286.5 98.5t137.5 278.5q26 164 -59.5 270.5t-245.5 106.5q-177 0 -286.5 -98.5t-137.5 -278.5q-26 -164 59.5 -270.5t245.5 -106.5z" />
    <glyph glyph-name="yen" unicode="&#xa5;" horiz-adv-x="1171" 
d="M508 0h-62l58 356h-447l9 58h446l37 225h-447l9 57h391l-326 799h70l323 -799h43l557 799h68l-559 -799h387l-8 -57h-447l-37 -225h447l-8 -58h-447z" />
    <glyph glyph-name="brokenbar" unicode="&#xa6;" horiz-adv-x="757" 
d="M412 764h-62l117 731h61zM227 -410h-61l108 695h62z" />
    <glyph glyph-name="section" unicode="&#xa7;" horiz-adv-x="1196" 
d="M442 -121q-182 0 -271.5 77.5t-70.5 201.5h66q-14 -96 56.5 -156.5t230.5 -60.5q152 0 239.5 69t106.5 176q4 29 -2.5 54.5t-17.5 44t-36 36.5t-45 29.5t-58 26t-61.5 22t-68.5 21.5q-162 48 -226 85q-140 80 -116 228q19 118 106 193.5t209 107.5q-88 40 -130.5 98.5
t-26.5 153.5q19 126 120.5 206.5t258.5 80.5q159 0 243 -73t64 -202h-66q17 100 -49.5 156.5t-202.5 56.5q-132 0 -210 -63t-93 -156q-9 -58 9.5 -100.5t70 -73t93 -46.5t120.5 -40q87 -25 133 -43t104.5 -53.5t79.5 -88.5t9 -126q-16 -95 -94.5 -179t-200.5 -124
q172 -75 149 -232q-23 -134 -134.5 -220.5t-287.5 -86.5zM537 477q16 -4 47 -13t47 -13q126 26 211.5 99t99.5 161q10 61 -9 106t-71 76t-95 47t-122 39q-16 5 -46 14.5t-46 14.5q-288 -65 -320 -275q-8 -47 5.5 -84.5t40 -62t70.5 -45.5t85.5 -34t97.5 -29q3 -1 5 -1z" />
    <glyph glyph-name="dieresis" unicode="&#xa8;" 
d="M168 1339q-36 0 -51.5 19t-10.5 51q5 31 27 50.5t57 19.5t52 -19.5t12 -50.5q-5 -32 -27.5 -51t-58.5 -19zM557 1339q-35 0 -50.5 19t-10.5 51q5 31 27 50.5t57 19.5t51.5 -19.5t11.5 -50.5q-5 -32 -27.5 -51t-58.5 -19z" />
    <glyph glyph-name="copyright" unicode="&#xa9;" horiz-adv-x="1499" 
d="M672 270q-180 0 -310 80t-186.5 221.5t-28.5 319.5l3 20q47 297 234 459t486 162q180 0 310 -80t186.5 -221.5t28.5 -319.5l-2 -20q-47 -297 -234.5 -459t-486.5 -162zM680 328q272 0 440 149.5t211 423.5q40 250 -91.5 412t-377.5 162q-272 0 -441 -150.5t-212 -423.5
q-38 -250 93.5 -411.5t377.5 -161.5zM725 541q-140 0 -211 100.5t-47 255.5l4 21q25 162 119 253t248 91q114 0 178.5 -67t58.5 -179h-61q4 85 -47 135.5t-138 50.5q-126 0 -201 -78t-98 -217q-21 -134 33 -221.5t170 -87.5q197 0 248 176h61q-32 -116 -113 -174.5
t-204 -58.5z" />
    <glyph glyph-name="ordfeminine" unicode="&#xaa;" horiz-adv-x="778" 
d="M332 717q-108 0 -168 61t-43 168q17 102 95.5 160.5t203.5 58.5h223l10 60q29 192 -170 192q-109 0 -204 -18l6 53q103 21 180 21q84 0 138.5 -18.5t79.5 -52.5t32 -82t-4 -106l-76 -477h-49l24 152q-39 -83 -112 -127.5t-166 -44.5zM350 770q89 0 163 51.5t101 163.5
l23 131h-234q-92 0 -150.5 -47t-70.5 -125q-12 -81 34.5 -127.5t133.5 -46.5z" />
    <glyph glyph-name="guillemotleft" unicode="&#xab;" horiz-adv-x="905" 
d="M385 80h-66l-188 420l10 61l320 428h63l-329 -440l-5 -33zM721 80h-66l-188 420l10 61l320 428h63l-330 -440l-4 -33z" />
    <glyph glyph-name="logicalnot" unicode="&#xac;" horiz-adv-x="1226" 
d="M1108 674l-61 -387h-60l53 329h-815l8 58h875z" />
    <glyph glyph-name="softhyphen" unicode="&#xad;" horiz-adv-x="901" 
d="M756 541h-533l8 57h533z" />
    <glyph glyph-name="registered" unicode="&#xae;" horiz-adv-x="1388" 
d="M633 377q-168 0 -290 72t-176 201.5t-28 293.5l2 21q44 273 219.5 420t454.5 147q168 0 290 -72t176 -201.5t28 -293.5l-2 -21q-43 -273 -219 -420t-455 -147zM641 434q252 0 409 135.5t197 384.5q35 228 -88.5 374.5t-351.5 146.5q-252 0 -409 -136t-195 -385
q-37 -227 86 -373.5t352 -146.5zM547 655h-62l99 617h198q90 0 141.5 -51.5t39.5 -135.5q-13 -80 -62.5 -125.5t-128.5 -56.5l162 -248h-74l-160 244h-114zM774 1214h-137l-43 -258h139q69 0 113.5 33t54.5 96q9 58 -27 93.5t-100 35.5z" />
    <glyph glyph-name="macron" unicode="&#xaf;" 
d="M569 1393h-463l9 57h463z" />
    <glyph glyph-name="degree" unicode="&#xb0;" horiz-adv-x="638" 
d="M358 995q-109 0 -168.5 70.5t-42.5 179.5q20 121 95 185.5t196 64.5q109 0 168.5 -70.5t40.5 -179.5q-19 -120 -93.5 -185t-195.5 -65zM367 1051q93 0 150 50.5t71 143.5q14 85 -30.5 140t-127.5 55q-93 0 -150.5 -51t-72.5 -144q-12 -85 32.5 -139.5t127.5 -54.5z" />
    <glyph glyph-name="plusminus" unicode="&#xb1;" horiz-adv-x="1196" 
d="M586 328h-62l66 411h-393l10 58h391l66 411h61l-66 -411h392l-11 -58h-389zM942 109h-844l8 57h844z" />
    <glyph glyph-name="twosuperior" unicode="&#xb2;" horiz-adv-x="745" 
d="M641 860h-547l17 113q11 67 49.5 108t132.5 80l194 82q155 66 177 203q15 98 -35.5 154.5t-149.5 56.5q-98 0 -166.5 -57t-83.5 -154h-51q17 114 102 186t207 72q124 0 186 -70.5t44 -179.5l-2 -14q-11 -82 -69.5 -143t-147.5 -97l-197 -82q-72 -30 -99.5 -60t-35.5 -81
l-12 -72h493z" />
    <glyph glyph-name="threesuperior" unicode="&#xb3;" horiz-adv-x="739" 
d="M334 842q-130 0 -196 73t-48 185h51q-15 -97 39.5 -154t161.5 -57q105 0 178 57t88 150q14 96 -39 153.5t-159 57.5q-68 0 -125 -31l-25 57l412 289l-6 14h-459l8 47h506l-14 -88l-361 -252q35 9 72 9q127 0 192 -71.5t47 -176.5l-2 -14q-16 -103 -103.5 -175.5
t-217.5 -72.5z" />
    <glyph glyph-name="acute" unicode="&#xb4;" 
d="M135 1253h-65l231 377h70z" />
    <glyph glyph-name="micro" unicode="&#xb5;" horiz-adv-x="1280" 
d="M109 -410h-66l233 1475h66l-104 -664q-27 -166 42.5 -267t229.5 -101q163 0 278 110t140 275l102 647h66l-142 -889q-9 -63 10.5 -89t75.5 -26h95l-11 -61h-96q-162 0 -133 168l18 80q-58 -130 -161.5 -203.5t-251.5 -73.5h-4q-113 0 -194 50t-107 139q-6 -41 -17.5 -124
t-17.5 -124z" />
    <glyph glyph-name="paragraph" unicode="&#xb6;" horiz-adv-x="1189" 
d="M575 0h-65l139 881h-213q-178 0 -268 81t-68 220l4 20q22 139 137.5 220t293.5 81h278zM805 0h-66l238 1503h65z" />
    <glyph glyph-name="periodcentered" unicode="&#xb7;" horiz-adv-x="512" 
d="M373 479h-99l17 111h98z" />
    <glyph glyph-name="cedilla" unicode="&#xb8;" 
d="M188 -455q-72 0 -135 17l10 57q62 -16 134 -16q144 0 161 106q6 47 -22 75t-96 28h-54l33 208h53l-24 -155q94 0 138.5 -43.5t33.5 -112.5q-12 -77 -73 -120.5t-159 -43.5z" />
    <glyph glyph-name="onesuperior" unicode="&#xb9;" horiz-adv-x="512" 
d="M303 860h-49l125 778h-205l6 45h254z" />
    <glyph glyph-name="ordmasculine" unicode="&#xba;" horiz-adv-x="888" 
d="M440 715q-108 0 -182 57t-101 142.5t-12 181.5l2 12q25 152 141 266.5t275 114.5q80 0 143 -32.5t98.5 -86.5t49.5 -122t2 -140l-2 -12q-11 -71 -45.5 -138.5t-86.5 -122t-126 -87.5t-156 -33zM449 772q135 0 230 96.5t118 233.5q21 138 -45.5 234t-198.5 96
q-135 0 -230 -95.5t-116 -234.5q-23 -137 41 -233.5t201 -96.5z" />
    <glyph glyph-name="guillemotright" unicode="&#xbb;" horiz-adv-x="905" 
d="M532 989h66l188 -420l-10 -61l-319 -428h-64l330 440l4 33zM197 989h65l189 -420l-11 -61l-319 -428h-64l330 440l4 33z" />
    <glyph glyph-name="onequarter" unicode="&#xbc;" horiz-adv-x="1536" 
d="M233 -45h-55l1012 1438h55zM303 522h-49l125 778h-205l6 46h254zM1257 0h-51l35 219h-453l11 70l467 542l34 -28l-454 -529l6 -12h395l49 311h52l-50 -311h121l-6 -43h-121z" />
    <glyph glyph-name="onehalf" unicode="&#xbd;" horiz-adv-x="1628" 
d="M233 -45h-55l1012 1438h55zM303 522h-49l125 778h-205l6 46h254zM1442 0h-547l16 113q11 67 50 108t133 80l194 82q154 65 176 203q15 98 -35 154.5t-149 56.5q-98 0 -166.5 -57t-83.5 -154h-51q17 114 102 186t207 72q124 0 186 -70.5t44 -179.5l-2 -14
q-11 -82 -70 -143t-148 -97l-196 -82q-72 -30 -99.5 -60t-35.5 -81l-13 -72h494z" />
    <glyph glyph-name="threequarters" unicode="&#xbe;" horiz-adv-x="1755" 
d="M453 -45h-56l1012 1438h55zM334 504q-130 0 -196 73t-48 185h51q-15 -97 39.5 -154t161.5 -57q105 0 178 57t88 150q14 96 -39 153.5t-159 57.5q-68 0 -125 -31l-25 57l412 289l-6 14h-459l8 48h506l-14 -89l-361 -251q31 8 72 8q127 0 192 -71.5t47 -176.5l-2 -14
q-16 -103 -103.5 -175.5t-217.5 -72.5zM1477 0h-52l35 219h-452l10 70l467 542l35 -28l-455 -529l6 -12h395l50 311h51l-49 -311h120l-6 -43h-121z" />
    <glyph glyph-name="questiondown" unicode="&#xbf;" horiz-adv-x="1105" 
d="M690 1067h98l-16 -111h-98zM651 719h66l-60 -377h-73q-177 0 -288 -97.5t-140 -275.5q-26 -162 59 -267t244 -105q183 0 294.5 106t141.5 295h61q-34 -220 -164.5 -341.5t-342.5 -121.5q-187 0 -287.5 119.5t-71.5 304.5l2 21q32 204 167 313.5t343 109.5z" />
    <glyph glyph-name="Agrave" unicode="&#xc0;" horiz-adv-x="1503" 
d="M907 1642h-73l-191 283h78zM33 0h-66l813 1495h160l358 -1495h-67l-129 532h-780zM354 594h733l-200 840h-78z" />
    <glyph glyph-name="Aacute" unicode="&#xc1;" horiz-adv-x="1503" 
d="M870 1642h-71l272 283h76zM33 0h-66l813 1495h160l358 -1495h-67l-129 532h-780zM354 594h733l-200 840h-78z" />
    <glyph glyph-name="Acircumflex" unicode="&#xc2;" horiz-adv-x="1503" 
d="M637 1642h-68l271 283h104l184 -283h-69l-154 238h-41zM33 0h-66l813 1495h160l358 -1495h-67l-129 532h-780zM354 594h733l-200 840h-78z" />
    <glyph glyph-name="Atilde" unicode="&#xc3;" horiz-adv-x="1503" 
d="M993 1700q-38 0 -72 15.5t-54.5 34.5t-51.5 34.5t-65 15.5q-43 0 -83.5 -23t-70.5 -67l-41 29q34 54 90 86.5t117 32.5q39 0 72.5 -16t54 -34.5t51 -34.5t64.5 -16q91 0 151 90l43 -28q-39 -55 -92.5 -87t-112.5 -32zM33 0h-66l813 1495h160l358 -1495h-67l-129 532h-780
zM354 594h733l-200 840h-78z" />
    <glyph glyph-name="Adieresis" unicode="&#xc4;" horiz-adv-x="1503" 
d="M653 1704q-34 0 -50.5 19t-10.5 53q5 32 27.5 51.5t56.5 19.5t51 -19.5t12 -51.5q-6 -34 -29 -53t-57 -19zM1075 1704q-34 0 -50.5 19t-10.5 53q5 32 27.5 51.5t56.5 19.5t51 -19.5t12 -51.5q-6 -34 -29 -53t-57 -19zM33 0h-66l813 1495h160l358 -1495h-67l-129 532h-780
zM354 594h733l-200 840h-78z" />
    <glyph glyph-name="Aring" unicode="&#xc5;" horiz-adv-x="1503" 
d="M836 1597q-99 0 -147.5 61t-35.5 144q13 84 80.5 144.5t167.5 60.5q99 0 147 -60t35 -145q-13 -83 -80.5 -144t-166.5 -61zM844 1651q76 0 124 43.5t58 107.5q10 65 -24.5 108.5t-110.5 43.5t-123 -43.5t-57 -108.5q-10 -64 24 -107.5t109 -43.5zM33 0h-66l813 1495h160
l358 -1495h-67l-129 532h-780zM354 594h733l-200 840h-78z" />
    <glyph glyph-name="AE" unicode="&#xc6;" horiz-adv-x="1970" 
d="M0 0h-66l846 1495h1131l-10 -61h-725l-103 -652h672l-10 -61h-672l-105 -660h752l-10 -61h-817l102 641h-625zM393 702h602l115 732h-305z" />
    <glyph glyph-name="Ccedilla" unicode="&#xc7;" horiz-adv-x="1622" 
d="M768 -33q-213 0 -365.5 100t-217 275.5t-29.5 394.5l4 25q58 364 273 567t566 203q255 0 405.5 -139t143.5 -379h-65q7 213 -128.5 334.5t-365.5 121.5q-322 0 -517 -190.5t-249 -529.5q-25 -153 2 -286t99 -229t189 -151t265 -55q504 0 652 456h65q-145 -456 -604 -512
l-19 -116q93 0 142.5 -45.5t38.5 -116.5q-13 -81 -78.5 -125.5t-167.5 -44.5q-87 0 -145 20l8 58q72 -21 147 -21q154 0 174 113q8 50 -25.5 79t-101.5 29h-53l27 166q-23 -2 -70 -2z" />
    <glyph glyph-name="Egrave" unicode="&#xc8;" horiz-adv-x="1245" 
d="M1034 1642h-73l-191 283h78zM1094 0h-828l238 1495h801l-11 -61h-735l-102 -643h682l-9 -62h-681l-107 -668h762z" />
    <glyph glyph-name="Eacute" unicode="&#xc9;" horiz-adv-x="1245" 
d="M793 1642h-72l272 283h76zM1094 0h-828l238 1495h801l-11 -61h-735l-102 -643h682l-9 -62h-681l-107 -668h762z" />
    <glyph glyph-name="Ecircumflex" unicode="&#xca;" horiz-adv-x="1245" 
d="M702 1642h-67l270 283h105l184 -283h-70l-153 238h-41zM1094 0h-828l238 1495h801l-11 -61h-735l-102 -643h682l-9 -62h-681l-107 -668h762z" />
    <glyph glyph-name="Edieresis" unicode="&#xcb;" horiz-adv-x="1245" 
d="M719 1704q-34 0 -51 19.5t-11 52.5q5 32 27.5 51.5t56.5 19.5t51.5 -19.5t12.5 -51.5q-6 -34 -29 -53t-57 -19zM1141 1704q-34 0 -51 19.5t-11 52.5q5 32 27.5 51.5t56.5 19.5t51.5 -19.5t12.5 -51.5q-6 -34 -29 -53t-57 -19zM1094 0h-828l238 1495h801l-11 -61h-735
l-102 -643h682l-9 -62h-681l-107 -668h762z" />
    <glyph glyph-name="Igrave" unicode="&#xcc;" horiz-adv-x="606" 
d="M469 1642h-74l-190 283h78zM217 0h-65l237 1495h66z" />
    <glyph glyph-name="Iacute" unicode="&#xcd;" horiz-adv-x="606" 
d="M432 1642h-72l273 283h76zM217 0h-65l237 1495h66z" />
    <glyph glyph-name="Icircumflex" unicode="&#xce;" horiz-adv-x="606" 
d="M199 1642h-68l270 283h105l184 -283h-69l-154 238h-41zM217 0h-65l237 1495h66z" />
    <glyph glyph-name="Idieresis" unicode="&#xcf;" horiz-adv-x="606" 
d="M215 1704q-34 0 -50.5 19t-10.5 53q5 32 27.5 51.5t56.5 19.5t51 -19.5t12 -51.5q-6 -34 -29 -53t-57 -19zM637 1704q-34 0 -51 19.5t-11 52.5q5 32 27.5 51.5t56.5 19.5t51.5 -19.5t12.5 -51.5q-6 -34 -29 -53t-57 -19zM217 0h-65l237 1495h66z" />
    <glyph glyph-name="Eth" unicode="&#xd0;" horiz-adv-x="1646" 
d="M645 -6h-495l114 723h-145l10 61h143l115 721h496q219 0 378 -93t230 -261t37 -381l-4 -27q-57 -357 -286 -550t-593 -193zM831 717h-501l-105 -662h437q331 0 538 181.5t260 513.5q31 197 -31.5 354t-205.5 245.5t-342 88.5h-439l-104 -660h504z" />
    <glyph glyph-name="Ntilde" unicode="&#xd1;" horiz-adv-x="1683" 
d="M1128 1700q-38 0 -72 15.5t-54.5 34.5t-51.5 34.5t-65 15.5q-43 0 -83.5 -23t-70.5 -67l-41 29q34 54 90 86.5t117 32.5q39 0 72.5 -16t54 -34.5t51 -34.5t64.5 -16q91 0 151 90l43 -28q-39 -55 -92.5 -87t-112.5 -32zM213 0h-66l238 1495h125l709 -1434h24l227 1434h66
l-238 -1495h-124l-709 1434h-25z" />
    <glyph glyph-name="Ograve" unicode="&#xd2;" horiz-adv-x="1785" 
d="M1061 1642h-74l-190 283h77zM768 -33q-163 0 -294 58t-213 160t-115 245.5t-7 308.5l4 25q59 366 284.5 567t588.5 201q217 0 372.5 -99t222.5 -274t31 -395l-4 -27q-59 -367 -283.5 -568.5t-586.5 -201.5zM778 29q333 0 537.5 189t259.5 532q33 205 -26.5 369
t-201 257.5t-341.5 93.5q-334 0 -539 -188.5t-260 -531.5q-25 -154 4 -287t103 -229t194 -150.5t270 -54.5z" />
    <glyph glyph-name="Oacute" unicode="&#xd3;" horiz-adv-x="1785" 
d="M1024 1642h-72l273 283h75zM768 -33q-163 0 -294 58t-213 160t-115 245.5t-7 308.5l4 25q59 366 284.5 567t588.5 201q217 0 372.5 -99t222.5 -274t31 -395l-4 -27q-59 -367 -283.5 -568.5t-586.5 -201.5zM778 29q333 0 537.5 189t259.5 532q33 205 -26.5 369t-201 257.5
t-341.5 93.5q-334 0 -539 -188.5t-260 -531.5q-25 -154 4 -287t103 -229t194 -150.5t270 -54.5z" />
    <glyph glyph-name="Ocircumflex" unicode="&#xd4;" horiz-adv-x="1785" 
d="M791 1642h-68l270 283h105l184 -283h-70l-153 238h-41zM768 -33q-163 0 -294 58t-213 160t-115 245.5t-7 308.5l4 25q59 366 284.5 567t588.5 201q217 0 372.5 -99t222.5 -274t31 -395l-4 -27q-59 -367 -283.5 -568.5t-586.5 -201.5zM778 29q333 0 537.5 189t259.5 532
q33 205 -26.5 369t-201 257.5t-341.5 93.5q-334 0 -539 -188.5t-260 -531.5q-25 -154 4 -287t103 -229t194 -150.5t270 -54.5z" />
    <glyph glyph-name="Otilde" unicode="&#xd5;" horiz-adv-x="1785" 
d="M1147 1700q-38 0 -72 15.5t-55 34.5t-52 34.5t-65 15.5q-93 0 -153 -90l-41 29q34 54 89.5 86.5t116.5 32.5q39 0 72.5 -16t54 -34.5t51 -34.5t64.5 -16q92 0 152 90l43 -28q-39 -55 -92.5 -87t-112.5 -32zM768 -33q-163 0 -294 58t-213 160t-115 245.5t-7 308.5l4 25
q59 366 284.5 567t588.5 201q217 0 372.5 -99t222.5 -274t31 -395l-4 -27q-59 -367 -283.5 -568.5t-586.5 -201.5zM778 29q333 0 537.5 189t259.5 532q33 205 -26.5 369t-201 257.5t-341.5 93.5q-334 0 -539 -188.5t-260 -531.5q-25 -154 4 -287t103 -229t194 -150.5
t270 -54.5z" />
    <glyph glyph-name="Odieresis" unicode="&#xd6;" horiz-adv-x="1785" 
d="M807 1704q-34 0 -51 19.5t-11 52.5q5 32 27.5 51.5t56.5 19.5t51.5 -19.5t12.5 -51.5q-6 -34 -29 -53t-57 -19zM1229 1704q-34 0 -51 19.5t-11 52.5q5 32 27.5 51.5t56.5 19.5t51.5 -19.5t12.5 -51.5q-6 -34 -29 -53t-57 -19zM768 -33q-163 0 -294 58t-213 160
t-115 245.5t-7 308.5l4 25q59 366 284.5 567t588.5 201q217 0 372.5 -99t222.5 -274t31 -395l-4 -27q-59 -367 -283.5 -568.5t-586.5 -201.5zM778 29q333 0 537.5 189t259.5 532q33 205 -26.5 369t-201 257.5t-341.5 93.5q-334 0 -539 -188.5t-260 -531.5q-25 -154 4 -287
t103 -229t194 -150.5t270 -54.5z" />
    <glyph glyph-name="multiply" unicode="&#xd7;" horiz-adv-x="1196" 
d="M150 338l432 371l-316 372l45 39l318 -372l432 370l33 -39l-432 -370l315 -373l-45 -39l-318 373l-432 -371z" />
    <glyph glyph-name="Oslash" unicode="&#xd8;" horiz-adv-x="1785" 
d="M219 -66h-74l168 195q-111 105 -157 262.5t-17 347.5l4 25q59 366 284.5 567t588.5 201q241 0 405 -123l135 156h74l-166 -191q115 -104 162 -261.5t16 -348.5l-4 -27q-59 -367 -283.5 -568.5t-586.5 -201.5q-248 0 -412 127zM207 750q-28 -176 12.5 -322.5t140.5 -245.5
l1016 1174q-148 114 -370 114q-334 0 -539 -188.5t-260 -531.5zM778 29q333 0 537.5 189t259.5 532q27 177 -14.5 324t-143.5 245l-1014 -1172q149 -118 375 -118z" />
    <glyph glyph-name="Ugrave" unicode="&#xd9;" horiz-adv-x="1650" 
d="M991 1642h-73l-191 283h78zM625 -33q-171 0 -293 76.5t-175 212.5t-26 307l148 932h65l-149 -940q-35 -229 87.5 -377.5t350.5 -148.5q253 0 410.5 137.5t195.5 388.5l150 940h65l-147 -932q-46 -284 -222.5 -440t-459.5 -156z" />
    <glyph glyph-name="Uacute" unicode="&#xda;" horiz-adv-x="1650" 
d="M954 1642h-71l272 283h76zM625 -33q-171 0 -293 76.5t-175 212.5t-26 307l148 932h65l-149 -940q-35 -229 87.5 -377.5t350.5 -148.5q253 0 410.5 137.5t195.5 388.5l150 940h65l-147 -932q-46 -284 -222.5 -440t-459.5 -156z" />
    <glyph glyph-name="Ucircumflex" unicode="&#xdb;" horiz-adv-x="1650" 
d="M721 1642h-68l271 283h104l184 -283h-69l-154 238h-41zM625 -33q-171 0 -293 76.5t-175 212.5t-26 307l148 932h65l-149 -940q-35 -229 87.5 -377.5t350.5 -148.5q253 0 410.5 137.5t195.5 388.5l150 940h65l-147 -932q-46 -284 -222.5 -440t-459.5 -156z" />
    <glyph glyph-name="Udieresis" unicode="&#xdc;" horiz-adv-x="1650" 
d="M737 1704q-34 0 -50.5 19t-10.5 53q5 32 27.5 51.5t56.5 19.5t51 -19.5t12 -51.5q-6 -34 -29 -53t-57 -19zM1159 1704q-34 0 -50.5 19t-10.5 53q5 32 27.5 51.5t56.5 19.5t51 -19.5t12 -51.5q-6 -34 -29 -53t-57 -19zM625 -33q-171 0 -293 76.5t-175 212.5t-26 307
l148 932h65l-149 -940q-35 -229 87.5 -377.5t350.5 -148.5q253 0 410.5 137.5t195.5 388.5l150 940h65l-147 -932q-46 -284 -222.5 -440t-459.5 -156z" />
    <glyph glyph-name="Yacute" unicode="&#xdd;" horiz-adv-x="1318" 
d="M784 1642h-71l272 283h76zM580 0h-66l94 592h-78l-346 903h70l319 -842h154l569 842h68l-612 -903h-78z" />
    <glyph glyph-name="Thorn" unicode="&#xde;" horiz-adv-x="1167" 
d="M213 0h-66l238 1499h66l-48 -295h299q205 0 319.5 -120t84.5 -312l-4 -20q-33 -211 -174.5 -322t-364.5 -111h-299zM696 1143h-303l-121 -762h303q192 0 313 98t150 283q26 168 -70.5 274.5t-271.5 106.5z" />
    <glyph glyph-name="germandbls" unicode="&#xdf;" horiz-adv-x="1196" 
d="M516 -23q-97 0 -203 23l11 61q102 -22 200 -22q181 0 296 89.5t141 260.5q29 177 -76.5 288t-296.5 111h-84l10 62h80q141 0 227.5 79.5t110.5 223.5q20 130 -44.5 215.5t-189.5 85.5q-154 0 -241 -102.5t-117 -280.5l-170 -1071h-66l158 991h-123l11 62h122v6
q34 213 141 335t292 122h8q151 0 230 -102.5t54 -260.5q-22 -129 -89.5 -213.5t-174.5 -118.5q158 -37 238.5 -154t54.5 -282q-32 -199 -166 -303.5t-344 -104.5z" />
    <glyph glyph-name="agrave" unicode="&#xe0;" horiz-adv-x="1138" 
d="M674 1255h-66l-137 377h70zM403 -29q-161 0 -251 91.5t-66 238.5q25 159 140.5 238t295.5 79h355l16 103q20 129 -58 211t-217 82q-149 0 -292 -21l10 62q137 20 260 20q181 0 283.5 -102.5t76.5 -267.5l-112 -705h-53l34 219q-116 -248 -422 -248zM418 29
q172 0 281 92.5t141 263.5l28 176h-366q-144 0 -236.5 -66t-113.5 -196q-20 -121 56 -195.5t210 -74.5z" />
    <glyph glyph-name="aacute" unicode="&#xe1;" horiz-adv-x="1138" 
d="M643 1255h-65l231 377h70zM403 -29q-161 0 -251 91.5t-66 238.5q25 159 140.5 238t295.5 79h355l16 103q20 129 -58 211t-217 82q-149 0 -292 -21l10 62q137 20 260 20q181 0 283.5 -102.5t76.5 -267.5l-112 -705h-53l34 219q-116 -248 -422 -248zM418 29q172 0 281 92.5
t141 263.5l28 176h-366q-144 0 -236.5 -66t-113.5 -196q-20 -121 56 -195.5t210 -74.5z" />
    <glyph glyph-name="acircumflex" unicode="&#xe2;" horiz-adv-x="1138" 
d="M426 1255h-66l277 377h100l160 -377h-63l-144 332h-16zM403 -29q-161 0 -251 91.5t-66 238.5q25 159 140.5 238t295.5 79h355l16 103q20 129 -58 211t-217 82q-149 0 -292 -21l10 62q137 20 260 20q181 0 283.5 -102.5t76.5 -267.5l-112 -705h-53l34 219
q-116 -248 -422 -248zM418 29q172 0 281 92.5t141 263.5l28 176h-366q-144 0 -236.5 -66t-113.5 -196q-20 -121 56 -195.5t210 -74.5z" />
    <glyph glyph-name="atilde" unicode="&#xe3;" horiz-adv-x="1138" 
d="M780 1341q-33 0 -60 11t-46 26.5t-36.5 31.5t-40.5 27t-50 11q-75 0 -144 -90l-38 35q81 112 192 112q33 0 61 -11t47.5 -26.5t38 -31t41 -26.5t48.5 -11q71 0 143 90l37 -35q-82 -113 -193 -113zM403 -29q-161 0 -251 91.5t-66 238.5q25 159 140.5 238t295.5 79h355
l16 103q20 129 -58 211t-217 82q-149 0 -292 -21l10 62q137 20 260 20q181 0 283.5 -102.5t76.5 -267.5l-112 -705h-53l34 219q-116 -248 -422 -248zM418 29q172 0 281 92.5t141 263.5l28 176h-366q-144 0 -236.5 -66t-113.5 -196q-20 -121 56 -195.5t210 -74.5z" />
    <glyph glyph-name="adieresis" unicode="&#xe4;" horiz-adv-x="1138" 
d="M459 1341q-36 0 -51.5 19t-10.5 51q5 31 27 50.5t57 19.5t52 -19.5t12 -50.5q-5 -32 -27.5 -51t-58.5 -19zM848 1341q-36 0 -51.5 19t-10.5 51q5 31 27 50.5t57 19.5t52 -19.5t12 -50.5q-5 -32 -27.5 -51t-58.5 -19zM403 -29q-161 0 -251 91.5t-66 238.5
q25 159 140.5 238t295.5 79h355l16 103q20 129 -58 211t-217 82q-149 0 -292 -21l10 62q137 20 260 20q181 0 283.5 -102.5t76.5 -267.5l-112 -705h-53l34 219q-116 -248 -422 -248zM418 29q172 0 281 92.5t141 263.5l28 176h-366q-144 0 -236.5 -66t-113.5 -196
q-20 -121 56 -195.5t210 -74.5z" />
    <glyph glyph-name="aring" unicode="&#xe5;" horiz-adv-x="1138" 
d="M625 1235q-94 0 -144.5 60.5t-36.5 148.5t83 148.5t163 60.5q95 0 144.5 -60.5t35.5 -148.5t-82 -148.5t-163 -60.5zM633 1288q72 0 120.5 43.5t59.5 112.5t-24 112t-107 43q-71 0 -120 -43.5t-60 -111.5q-11 -69 24.5 -112.5t106.5 -43.5zM403 -29q-161 0 -251 91.5
t-66 238.5q25 159 140.5 238t295.5 79h355l16 103q20 129 -58 211t-217 82q-149 0 -292 -21l10 62q137 20 260 20q181 0 283.5 -102.5t76.5 -267.5l-112 -705h-53l34 219q-116 -248 -422 -248zM418 29q172 0 281 92.5t141 263.5l28 176h-366q-144 0 -236.5 -66t-113.5 -196
q-20 -121 56 -195.5t210 -74.5z" />
    <glyph glyph-name="ae" unicode="&#xe6;" horiz-adv-x="1955" 
d="M1282 -33q-169 0 -278.5 88.5t-141.5 247.5q-47 -161 -166 -246.5t-297 -85.5q-158 0 -247 92t-66 238q17 106 77 177t149 103.5t206 32.5h350l17 107q22 128 -53 210.5t-209 82.5q-151 0 -297 -21l10 62q134 20 256 20q153 0 250 -77t106 -207q157 307 500 307
q215 0 329.5 -140.5t80.5 -357.5l-11 -65h-929q-33 -219 69.5 -362.5t304.5 -143.5q335 0 437 270h65q-128 -332 -512 -332zM1440 1036q-206 0 -335.5 -116t-176.5 -324h866q24 193 -73 316.5t-281 123.5zM414 29q171 0 278 92.5t139 263.5l27 172h-360q-144 0 -235 -64.5
t-111 -193.5q-20 -120 55 -195t207 -75z" />
    <glyph glyph-name="ccedilla" unicode="&#xe7;" horiz-adv-x="1228" 
d="M569 -33q-154 0 -262 73.5t-152 202t-18 289.5l2 13q40 262 197 407.5t412 145.5q185 0 296.5 -97.5t114.5 -271.5h-65q-1 146 -98.5 226.5t-256.5 80.5q-225 0 -362 -131t-174 -366q-34 -221 69.5 -365.5t307.5 -144.5q383 0 469 315h65q-103 -334 -452 -373l-17 -106
q94 0 138.5 -43.5t33.5 -112.5q-12 -77 -72.5 -120.5t-158.5 -43.5q-72 0 -135 17l10 57q62 -16 133 -16q145 0 162 106q6 47 -22 75t-97 28h-53l24 155h-39z" />
    <glyph glyph-name="egrave" unicode="&#xe8;" horiz-adv-x="1232" 
d="M750 1253h-66l-137 377h69zM567 -33q-153 0 -260 73.5t-151 202t-19 289.5l2 13q40 261 192.5 407t401.5 146q216 0 332.5 -140.5t81.5 -357.5l-10 -65h-938q-34 -219 71 -362.5t308 -143.5q338 0 440 270h65q-126 -332 -516 -332zM725 1036q-208 0 -338.5 -115.5
t-177.5 -324.5h874q24 193 -74.5 316.5t-283.5 123.5z" />
    <glyph glyph-name="eacute" unicode="&#xe9;" horiz-adv-x="1232" 
d="M719 1253h-66l232 377h69zM567 -33q-153 0 -260 73.5t-151 202t-19 289.5l2 13q40 261 192.5 407t401.5 146q216 0 332.5 -140.5t81.5 -357.5l-10 -65h-938q-34 -219 71 -362.5t308 -143.5q338 0 440 270h65q-126 -332 -516 -332zM725 1036q-208 0 -338.5 -115.5
t-177.5 -324.5h874q24 193 -74.5 316.5t-283.5 123.5z" />
    <glyph glyph-name="ecircumflex" unicode="&#xea;" horiz-adv-x="1232" 
d="M502 1253h-66l277 377h100l160 -377h-64l-143 332h-16zM567 -33q-153 0 -260 73.5t-151 202t-19 289.5l2 13q40 261 192.5 407t401.5 146q216 0 332.5 -140.5t81.5 -357.5l-10 -65h-938q-34 -219 71 -362.5t308 -143.5q338 0 440 270h65q-126 -332 -516 -332zM725 1036
q-208 0 -338.5 -115.5t-177.5 -324.5h874q24 193 -74.5 316.5t-283.5 123.5z" />
    <glyph glyph-name="edieresis" unicode="&#xeb;" horiz-adv-x="1232" 
d="M535 1339q-36 0 -51.5 19t-10.5 51q5 31 27 50.5t57 19.5t52 -19.5t12 -50.5q-5 -32 -27.5 -51t-58.5 -19zM924 1339q-36 0 -51.5 19t-10.5 51q5 31 27 50.5t57 19.5t52 -19.5t12 -50.5q-5 -32 -27.5 -51t-58.5 -19zM567 -33q-153 0 -260 73.5t-151 202t-19 289.5l2 13
q40 261 192.5 407t401.5 146q216 0 332.5 -140.5t81.5 -357.5l-10 -65h-938q-34 -219 71 -362.5t308 -143.5q338 0 440 270h65q-126 -332 -516 -332zM725 1036q-208 0 -338.5 -115.5t-177.5 -324.5h874q24 193 -74.5 316.5t-283.5 123.5z" />
    <glyph glyph-name="igrave" unicode="&#xec;" horiz-adv-x="573" 
d="M346 1253h-65l-138 377h70zM264 0h-65l157 1004h-184l10 61h250z" />
    <glyph glyph-name="iacute" unicode="&#xed;" horiz-adv-x="573" 
d="M315 1253h-65l231 377h70zM264 0h-65l157 1004h-184l10 61h250z" />
    <glyph glyph-name="icircumflex" unicode="&#xee;" horiz-adv-x="573" 
d="M98 1253h-65l276 377h101l159 -377h-63l-144 332h-16zM264 0h-65l157 1004h-184l10 61h250z" />
    <glyph glyph-name="idieresis" unicode="&#xef;" horiz-adv-x="573" 
d="M131 1339q-35 0 -50.5 19t-10.5 51q5 31 27 50.5t57 19.5t51.5 -19.5t11.5 -50.5q-5 -32 -27.5 -51t-58.5 -19zM520 1339q-35 0 -50.5 19t-10.5 51q5 31 27 50.5t57 19.5t51.5 -19.5t11.5 -50.5q-5 -32 -27.5 -51t-58.5 -19zM264 0h-65l157 1004h-184l10 61h250z" />
    <glyph glyph-name="eth" unicode="&#xf0;" horiz-adv-x="1308" 
d="M547 -33q-120 0 -210.5 43.5t-141 116.5t-69.5 165.5t-3 194.5l8 48q16 105 63.5 198.5t120.5 166t178 115t226 42.5q177 0 274 -79.5t117 -205.5q21 185 3 325t-73 210l-247 -174l-27 41l240 167q-94 72 -271 72q-96 0 -194 -16l8 61q97 17 196 17q210 0 314 -95
l186 131l27 -41l-180 -127q74 -96 86.5 -280.5t-33.5 -478.5l-4 -25q-43 -277 -199 -434.5t-395 -157.5zM557 29q111 0 201.5 37t153.5 103.5t103 153t56 189.5q23 142 -8 250t-121 170.5t-231 62.5q-110 0 -201.5 -37t-155 -103.5t-104.5 -153t-57 -189.5
q-10 -80 -6 -151.5t31 -132.5t70.5 -105t112.5 -69t156 -25z" />
    <glyph glyph-name="ntilde" unicode="&#xf1;" horiz-adv-x="1282" 
d="M879 1339q-40 0 -73 16.5t-52 37t-48 37t-61 16.5q-74 0 -143 -90l-39 35q81 112 192 112q33 0 61 -11t47.5 -26.5t38 -31t41 -26.5t48.5 -11q71 0 143 90l37 -35q-82 -113 -192 -113zM201 0h-66l168 1065h53l-37 -238q58 127 167.5 197t261.5 70h4q182 0 274 -129
t61 -326l-100 -639h-65l102 655q27 163 -52.5 270t-234.5 107q-181 0 -292.5 -101t-141.5 -284z" />
    <glyph glyph-name="ograve" unicode="&#xf2;" horiz-adv-x="1339" 
d="M784 1253h-65l-137 377h69zM578 -33q-238 0 -365.5 157.5t-89.5 401.5l2 13q42 266 205.5 412.5t425.5 146.5q238 0 365 -157.5t89 -401.5l-2 -13q-42 -266 -204.5 -412.5t-425.5 -146.5zM588 29q232 0 375 132.5t182 370.5q34 219 -76.5 361.5t-320.5 142.5
q-232 0 -376.5 -132.5t-181.5 -371.5q-36 -218 75 -360.5t323 -142.5z" />
    <glyph glyph-name="oacute" unicode="&#xf3;" horiz-adv-x="1339" 
d="M754 1253h-66l232 377h69zM578 -33q-238 0 -365.5 157.5t-89.5 401.5l2 13q42 266 205.5 412.5t425.5 146.5q238 0 365 -157.5t89 -401.5l-2 -13q-42 -266 -204.5 -412.5t-425.5 -146.5zM588 29q232 0 375 132.5t182 370.5q34 219 -76.5 361.5t-320.5 142.5
q-232 0 -376.5 -132.5t-181.5 -371.5q-36 -218 75 -360.5t323 -142.5z" />
    <glyph glyph-name="ocircumflex" unicode="&#xf4;" horiz-adv-x="1339" 
d="M537 1253h-66l277 377h100l160 -377h-64l-143 332h-17zM578 -33q-238 0 -365.5 157.5t-89.5 401.5l2 13q42 266 205.5 412.5t425.5 146.5q238 0 365 -157.5t89 -401.5l-2 -13q-42 -266 -204.5 -412.5t-425.5 -146.5zM588 29q232 0 375 132.5t182 370.5
q34 219 -76.5 361.5t-320.5 142.5q-232 0 -376.5 -132.5t-181.5 -371.5q-36 -218 75 -360.5t323 -142.5z" />
    <glyph glyph-name="otilde" unicode="&#xf5;" horiz-adv-x="1339" 
d="M891 1339q-40 0 -73 16.5t-52 37t-48 37t-61 16.5q-74 0 -143 -90l-39 35q81 112 193 112q41 0 74.5 -16.5t53 -36.5t48 -36.5t59.5 -16.5q72 0 144 90l36 -35q-82 -113 -192 -113zM578 -33q-238 0 -365.5 157.5t-89.5 401.5l2 13q42 266 205.5 412.5t425.5 146.5
q238 0 365 -157.5t89 -401.5l-2 -13q-42 -266 -204.5 -412.5t-425.5 -146.5zM588 29q232 0 375 132.5t182 370.5q34 219 -76.5 361.5t-320.5 142.5q-232 0 -376.5 -132.5t-181.5 -371.5q-36 -218 75 -360.5t323 -142.5z" />
    <glyph glyph-name="odieresis" unicode="&#xf6;" horiz-adv-x="1339" 
d="M569 1339q-35 0 -50.5 19t-10.5 51q5 31 27 50.5t57 19.5t51.5 -19.5t11.5 -50.5q-5 -32 -27.5 -51t-58.5 -19zM958 1339q-35 0 -50.5 19t-10.5 51q5 31 27 50.5t57 19.5t51.5 -19.5t11.5 -50.5q-5 -32 -27.5 -51t-58.5 -19zM578 -33q-238 0 -365.5 157.5t-89.5 401.5
l2 13q42 266 205.5 412.5t425.5 146.5q238 0 365 -157.5t89 -401.5l-2 -13q-42 -266 -204.5 -412.5t-425.5 -146.5zM588 29q232 0 375 132.5t182 370.5q34 219 -76.5 361.5t-320.5 142.5q-232 0 -376.5 -132.5t-181.5 -371.5q-36 -218 75 -360.5t323 -142.5z" />
    <glyph glyph-name="divide" unicode="&#xf7;" horiz-adv-x="1196" 
d="M723 1034h-107l21 119h106zM1036 678h-843l8 57h843zM602 260h-106l18 119h107z" />
    <glyph glyph-name="oslash" unicode="&#xf8;" horiz-adv-x="1384" 
d="M184 -74h-69l143 164q-79 76 -111 188.5t-10 247.5l2 13q42 266 205.5 412.5t425.5 146.5q167 0 287 -84l135 157h70l-164 -190q81 -75 114.5 -189.5t12.5 -252.5l-2 -13q-42 -266 -205 -412.5t-426 -146.5q-175 0 -295 90zM205 532q-20 -118 6 -218.5t92 -170.5l709 820
q-103 73 -250 73q-232 0 -376 -132.5t-181 -371.5zM602 29q232 0 375 132.5t182 370.5q20 122 -8.5 225t-99.5 171l-709 -819q107 -80 260 -80z" />
    <glyph glyph-name="ugrave" unicode="&#xf9;" horiz-adv-x="1236" 
d="M717 1253h-66l-137 377h70zM500 -29h-4q-117 0 -197.5 59t-112 160t-12.5 228l102 647h66l-104 -664q-27 -159 48 -263.5t224 -104.5q173 0 280.5 99t135.5 278l104 655h66l-168 -1065h-54l37 233q-58 -126 -161.5 -194t-249.5 -68z" />
    <glyph glyph-name="uacute" unicode="&#xfa;" horiz-adv-x="1236" 
d="M686 1253h-65l231 377h70zM500 -29h-4q-117 0 -197.5 59t-112 160t-12.5 228l102 647h66l-104 -664q-27 -159 48 -263.5t224 -104.5q173 0 280.5 99t135.5 278l104 655h66l-168 -1065h-54l37 233q-58 -126 -161.5 -194t-249.5 -68z" />
    <glyph glyph-name="ucircumflex" unicode="&#xfb;" horiz-adv-x="1236" 
d="M469 1253h-66l277 377h100l160 -377h-63l-144 332h-16zM500 -29h-4q-117 0 -197.5 59t-112 160t-12.5 228l102 647h66l-104 -664q-27 -159 48 -263.5t224 -104.5q173 0 280.5 99t135.5 278l104 655h66l-168 -1065h-54l37 233q-58 -126 -161.5 -194t-249.5 -68z" />
    <glyph glyph-name="udieresis" unicode="&#xfc;" horiz-adv-x="1236" 
d="M502 1339q-36 0 -51.5 19t-10.5 51q5 31 27 50.5t57 19.5t52 -19.5t12 -50.5q-5 -32 -27.5 -51t-58.5 -19zM891 1339q-36 0 -51.5 19t-10.5 51q5 31 27 50.5t57 19.5t52 -19.5t12 -50.5q-5 -32 -27.5 -51t-58.5 -19zM500 -29h-4q-117 0 -197.5 59t-112 160t-12.5 228
l102 647h66l-104 -664q-27 -159 48 -263.5t224 -104.5q173 0 280.5 99t135.5 278l104 655h66l-168 -1065h-54l37 233q-58 -126 -161.5 -194t-249.5 -68z" />
    <glyph glyph-name="yacute" unicode="&#xfd;" horiz-adv-x="1040" 
d="M590 1253h-66l232 377h69zM29 -414h-101l11 62h104q119 0 201 55t137 166l80 160h-90l-230 1036h68l213 -975h67l484 975h65l-608 -1223q-65 -129 -162.5 -192.5t-238.5 -63.5z" />
    <glyph glyph-name="thorn" unicode="&#xfe;" horiz-adv-x="1445" 
d="M201 -410h-66l301 1905h66l-105 -653q74 125 200 190.5t294 65.5q151 0 257.5 -73t150 -200.5t18.5 -285.5l-2 -13q-42 -264 -196 -411.5t-406 -147.5q-159 0 -266.5 79t-141.5 214zM717 29q224 0 359 133t173 370q23 143 -14 257.5t-130.5 180.5t-227.5 66
q-217 0 -353 -116.5t-170 -331.5l-18 -111q-31 -197 76 -322.5t305 -125.5z" />
    <glyph glyph-name="ydieresis" unicode="&#xff;" horiz-adv-x="1040" 
d="M406 1339q-36 0 -51.5 19t-10.5 51q5 31 27 50.5t57 19.5t52 -19.5t12 -50.5q-5 -32 -27.5 -51t-58.5 -19zM795 1339q-36 0 -51.5 19t-10.5 51q5 31 27 50.5t57 19.5t52 -19.5t12 -50.5q-5 -32 -27.5 -51t-58.5 -19zM29 -414h-101l11 62h104q119 0 201 55t137 166l80 160
h-90l-230 1036h68l213 -975h67l484 975h65l-608 -1223q-65 -129 -162.5 -192.5t-238.5 -63.5z" />
    <glyph glyph-name="Amacron" unicode="&#x100;" horiz-adv-x="1503" 
d="M1151 1753h-549l8 57h549zM33 0h-66l813 1495h160l358 -1495h-67l-129 532h-780zM354 594h733l-200 840h-78z" />
    <glyph glyph-name="amacron" unicode="&#x101;" horiz-adv-x="1138" 
d="M897 1395h-463l8 57h463zM403 -29q-161 0 -251 91.5t-66 238.5q25 159 140.5 238t295.5 79h355l16 103q20 129 -58 211t-217 82q-149 0 -292 -21l10 62q137 20 260 20q181 0 283.5 -102.5t76.5 -267.5l-112 -705h-53l34 219q-116 -248 -422 -248zM418 29q172 0 281 92.5
t141 263.5l28 176h-366q-144 0 -236.5 -66t-113.5 -196q-20 -121 56 -195.5t210 -74.5z" />
    <glyph glyph-name="Abreve" unicode="&#x102;" horiz-adv-x="1503" 
d="M846 1626q-266 0 -242 299h58q-8 -117 36 -181.5t156 -64.5q211 0 270 246h58q-31 -138 -113.5 -218.5t-222.5 -80.5zM33 0h-66l813 1495h160l358 -1495h-67l-129 532h-780zM354 594h733l-200 840h-78z" />
    <glyph glyph-name="abreve" unicode="&#x103;" horiz-adv-x="1138" 
d="M627 1247q-251 0 -203 385h61q-16 -168 17 -250t133 -82q102 0 161.5 82t94.5 250h61q-72 -385 -325 -385zM403 -29q-161 0 -251 91.5t-66 238.5q25 159 140.5 238t295.5 79h355l16 103q20 129 -58 211t-217 82q-149 0 -292 -21l10 62q137 20 260 20q181 0 283.5 -102.5
t76.5 -267.5l-112 -705h-53l34 219q-116 -248 -422 -248zM418 29q172 0 281 92.5t141 263.5l28 176h-366q-144 0 -236.5 -66t-113.5 -196q-20 -121 56 -195.5t210 -74.5z" />
    <glyph glyph-name="Aogonek" unicode="&#x104;" horiz-adv-x="1503" 
d="M33 0h-66l813 1495h160l358 -1495h-67l-129 532h-780zM354 594h733l-200 840h-78zM1274 -500q-85 0 -132 52.5t-32 144.5q13 87 70.5 160t156.5 145l54 39l22 -41l-53 -39q-170 -126 -193 -264q-11 -70 21.5 -104.5t93.5 -34.5q46 0 98 18l-10 -57q-49 -19 -96 -19z" />
    <glyph glyph-name="aogonek" unicode="&#x105;" horiz-adv-x="1138" 
d="M403 -29q-161 0 -251 91.5t-66 238.5q25 159 140.5 238t295.5 79h355l16 103q20 129 -58 211t-217 82q-149 0 -292 -21l10 62q137 20 260 20q181 0 283.5 -102.5t76.5 -267.5l-112 -705h-53l34 219q-116 -248 -422 -248zM418 29q172 0 281 92.5t141 263.5l28 176h-366
q-144 0 -236.5 -66t-113.5 -196q-20 -121 56 -195.5t210 -74.5zM788 -487q-82 0 -126 50t-31 140q27 162 219 299l53 39l23 -41l-54 -39q-161 -120 -184 -258q-10 -67 20 -100t89 -33q41 0 94 18l-10 -57q-47 -18 -93 -18z" />
    <glyph glyph-name="Cacute" unicode="&#x106;" horiz-adv-x="1622" 
d="M991 1642h-71l272 283h76zM768 -33q-213 0 -365.5 100t-217 275.5t-29.5 394.5l4 25q58 364 273 567t566 203q255 0 405.5 -139t143.5 -379h-65q7 213 -128.5 334.5t-365.5 121.5q-322 0 -517 -190.5t-249 -529.5q-25 -153 2 -286t99 -229t189 -151t265 -55
q504 0 652 456h65q-165 -518 -727 -518z" />
    <glyph glyph-name="cacute" unicode="&#x107;" horiz-adv-x="1228" 
d="M733 1253h-65l231 377h70zM569 -33q-154 0 -262 73.5t-152 202t-18 289.5l2 13q40 262 197 407.5t412 145.5q185 0 296.5 -97.5t114.5 -271.5h-65q-1 146 -98.5 226.5t-256.5 80.5q-225 0 -362 -131t-174 -366q-34 -221 69.5 -365.5t307.5 -144.5q383 0 469 315h65
q-114 -377 -545 -377z" />
    <glyph glyph-name="Ccircumflex" unicode="&#x108;" horiz-adv-x="1622" 
d="M758 1642h-68l271 283h104l184 -283h-69l-154 238h-41zM768 -33q-213 0 -365.5 100t-217 275.5t-29.5 394.5l4 25q58 364 273 567t566 203q255 0 405.5 -139t143.5 -379h-65q7 213 -128.5 334.5t-365.5 121.5q-322 0 -517 -190.5t-249 -529.5q-25 -153 2 -286t99 -229
t189 -151t265 -55q504 0 652 456h65q-165 -518 -727 -518z" />
    <glyph glyph-name="ccircumflex" unicode="&#x109;" horiz-adv-x="1228" 
d="M516 1253h-65l276 377h100l160 -377h-63l-144 332h-16zM569 -33q-154 0 -262 73.5t-152 202t-18 289.5l2 13q40 262 197 407.5t412 145.5q185 0 296.5 -97.5t114.5 -271.5h-65q-1 146 -98.5 226.5t-256.5 80.5q-225 0 -362 -131t-174 -366q-34 -221 69.5 -365.5
t307.5 -144.5q383 0 469 315h65q-114 -377 -545 -377z" />
    <glyph glyph-name="Cdotaccent" unicode="&#x10a;" horiz-adv-x="1622" 
d="M985 1704q-34 0 -50.5 19t-10.5 53q5 32 27.5 51.5t56.5 19.5t51 -19.5t12 -51.5q-6 -34 -29 -53t-57 -19zM768 -33q-213 0 -365.5 100t-217 275.5t-29.5 394.5l4 25q58 364 273 567t566 203q255 0 405.5 -139t143.5 -379h-65q7 213 -128.5 334.5t-365.5 121.5
q-322 0 -517 -190.5t-249 -529.5q-25 -153 2 -286t99 -229t189 -151t265 -55q504 0 652 456h65q-165 -518 -727 -518z" />
    <glyph glyph-name="cdotaccent" unicode="&#x10b;" horiz-adv-x="1228" 
d="M743 1339q-35 0 -50.5 19t-10.5 51q5 31 27 50.5t57 19.5t51.5 -19.5t11.5 -50.5q-5 -32 -27.5 -51t-58.5 -19zM569 -33q-154 0 -262 73.5t-152 202t-18 289.5l2 13q40 262 197 407.5t412 145.5q185 0 296.5 -97.5t114.5 -271.5h-65q-1 146 -98.5 226.5t-256.5 80.5
q-225 0 -362 -131t-174 -366q-34 -221 69.5 -365.5t307.5 -144.5q383 0 469 315h65q-114 -377 -545 -377z" />
    <glyph glyph-name="Ccaron" unicode="&#x10c;" horiz-adv-x="1622" 
d="M1022 1642h-104l-175 283h70l143 -237h41l217 237h68zM768 -33q-213 0 -365.5 100t-217 275.5t-29.5 394.5l4 25q58 364 273 567t566 203q255 0 405.5 -139t143.5 -379h-65q7 213 -128.5 334.5t-365.5 121.5q-322 0 -517 -190.5t-249 -529.5q-25 -153 2 -286t99 -229
t189 -151t265 -55q504 0 652 456h65q-165 -518 -727 -518z" />
    <glyph glyph-name="ccaron" unicode="&#x10d;" horiz-adv-x="1228" 
d="M770 1253h-98l-154 377h66l135 -332h16l234 332h65zM569 -33q-154 0 -262 73.5t-152 202t-18 289.5l2 13q40 262 197 407.5t412 145.5q185 0 296.5 -97.5t114.5 -271.5h-65q-1 146 -98.5 226.5t-256.5 80.5q-225 0 -362 -131t-174 -366q-34 -221 69.5 -365.5
t307.5 -144.5q383 0 469 315h65q-114 -377 -545 -377z" />
    <glyph glyph-name="Dcaron" unicode="&#x10e;" horiz-adv-x="1646" 
d="M961 1642h-105l-174 283h70l143 -237h41l217 237h68zM645 -6h-495l237 1505h496q219 0 378 -93t230 -261t37 -381l-4 -27q-57 -357 -286 -550t-593 -193zM881 1438h-439l-217 -1383h437q331 0 538 181.5t260 513.5q31 197 -31.5 354t-205.5 245.5t-342 88.5z" />
    <glyph glyph-name="dcaron" unicode="&#x10f;" horiz-adv-x="1380" 
d="M1475 1212h-62l72 455h65zM563 -33q-152 0 -258.5 73t-149.5 200t-18 286l2 13q40 264 195 411.5t407 147.5q157 0 264.5 -78.5t143.5 -212.5l108 688h66l-238 -1495h-53l41 258q-71 -141 -200.5 -216t-309.5 -75zM575 29q218 0 354 116t171 332l18 111q31 196 -77 322
t-306 126q-224 0 -359 -133t-173 -371q-34 -218 68.5 -360.5t303.5 -142.5z" />
    <glyph glyph-name="Dcroat" unicode="&#x110;" horiz-adv-x="1646" 
d="M645 -6h-495l114 723h-145l10 61h143l115 721h496q219 0 378 -93t230 -261t37 -381l-4 -27q-57 -357 -286 -550t-593 -193zM831 717h-501l-105 -662h437q331 0 538 181.5t260 513.5q31 197 -31.5 354t-205.5 245.5t-342 88.5h-439l-104 -660h504z" />
    <glyph glyph-name="dcroat" unicode="&#x111;" horiz-adv-x="1380" 
d="M563 -33q-152 0 -258.5 73t-149.5 200t-18 286l2 13q40 264 195 411.5t407 147.5q157 0 264.5 -78.5t143.5 -212.5l74 473h-394l9 57h395l24 158h66l-25 -158h179l-9 -57h-180l-203 -1280h-53l41 258q-71 -141 -200.5 -216t-309.5 -75zM575 29q218 0 354 116t171 332
l18 111q31 196 -77 322t-306 126q-224 0 -359 -133t-173 -371q-34 -218 68.5 -360.5t303.5 -142.5z" />
    <glyph glyph-name="Emacron" unicode="&#x112;" horiz-adv-x="1245" 
d="M1237 1753h-549l8 57h549zM1094 0h-828l238 1495h801l-11 -61h-735l-102 -643h682l-9 -62h-681l-107 -668h762z" />
    <glyph glyph-name="emacron" unicode="&#x113;" horiz-adv-x="1232" 
d="M973 1393h-463l8 57h463zM567 -33q-153 0 -260 73.5t-151 202t-19 289.5l2 13q40 261 192.5 407t401.5 146q216 0 332.5 -140.5t81.5 -357.5l-10 -65h-938q-34 -219 71 -362.5t308 -143.5q338 0 440 270h65q-126 -332 -516 -332zM725 1036q-208 0 -338.5 -115.5
t-177.5 -324.5h874q24 193 -74.5 316.5t-283.5 123.5z" />
    <glyph glyph-name="Ebreve" unicode="&#x114;" horiz-adv-x="1245" 
d="M911 1626q-265 0 -241 299h57q-17 -246 193 -246q211 0 270 246h57q-31 -138 -113.5 -218.5t-222.5 -80.5zM1094 0h-828l238 1495h801l-11 -61h-735l-102 -643h682l-9 -62h-681l-107 -668h762z" />
    <glyph glyph-name="ebreve" unicode="&#x115;" horiz-adv-x="1232" 
d="M702 1245q-250 0 -202 385h61q-16 -168 17 -250t133 -82q102 0 161.5 82t94.5 250h61q-72 -385 -326 -385zM567 -33q-153 0 -260 73.5t-151 202t-19 289.5l2 13q40 261 192.5 407t401.5 146q216 0 332.5 -140.5t81.5 -357.5l-10 -65h-938q-34 -219 71 -362.5t308 -143.5
q338 0 440 270h65q-126 -332 -516 -332zM725 1036q-208 0 -338.5 -115.5t-177.5 -324.5h874q24 193 -74.5 316.5t-283.5 123.5z" />
    <glyph glyph-name="Edotaccent" unicode="&#x116;" horiz-adv-x="1245" 
d="M950 1704q-34 0 -50.5 19t-10.5 53q5 32 27.5 51.5t56.5 19.5t51 -19.5t12 -51.5q-6 -34 -29 -53t-57 -19zM1094 0h-828l238 1495h801l-11 -61h-735l-102 -643h682l-9 -62h-681l-107 -668h762z" />
    <glyph glyph-name="edotaccent" unicode="&#x117;" horiz-adv-x="1232" 
d="M729 1339q-35 0 -50.5 19t-10.5 51q5 31 27 50.5t57 19.5t51.5 -19.5t11.5 -50.5q-5 -32 -27.5 -51t-58.5 -19zM567 -33q-153 0 -260 73.5t-151 202t-19 289.5l2 13q40 261 192.5 407t401.5 146q216 0 332.5 -140.5t81.5 -357.5l-10 -65h-938q-34 -219 71 -362.5
t308 -143.5q338 0 440 270h65q-126 -332 -516 -332zM725 1036q-208 0 -338.5 -115.5t-177.5 -324.5h874q24 193 -74.5 316.5t-283.5 123.5z" />
    <glyph glyph-name="Eogonek" unicode="&#x118;" horiz-adv-x="1245" 
d="M950 -500q-85 0 -132 52.5t-32 144.5q13 87 70.5 159.5t155.5 143.5h-746l238 1495h801l-11 -61h-735l-102 -643h682l-9 -62h-681l-107 -668h762l-10 -61h-4l-54 -39q-169 -125 -192 -264q-11 -70 21 -104.5t93 -34.5q46 0 99 18l-10 -57q-49 -19 -97 -19z" />
    <glyph glyph-name="eogonek" unicode="&#x119;" horiz-adv-x="1232" 
d="M567 -33q-153 0 -260 73.5t-151 202t-19 289.5l2 13q40 261 192.5 407t401.5 146q216 0 332.5 -140.5t81.5 -357.5l-10 -65h-938q-34 -219 71 -362.5t308 -143.5q338 0 440 270h65q-59 -153 -170 -233l15 -27l-54 -39q-161 -120 -184 -258q-10 -67 20 -100t89 -33
q41 0 94 18l-10 -57q-49 -19 -92 -19q-82 0 -126.5 50.5t-31.5 140.5q25 141 176 266q-102 -41 -242 -41zM725 1036q-208 0 -338.5 -115.5t-177.5 -324.5h874q24 193 -74.5 316.5t-283.5 123.5z" />
    <glyph glyph-name="Ecaron" unicode="&#x11a;" horiz-adv-x="1245" 
d="M967 1642h-105l-174 283h70l143 -237h41l217 237h68zM1094 0h-828l238 1495h801l-11 -61h-735l-102 -643h682l-9 -62h-681l-107 -668h762z" />
    <glyph glyph-name="ecaron" unicode="&#x11b;" horiz-adv-x="1232" 
d="M756 1253h-99l-153 377h65l136 -332h16l233 332h66zM567 -33q-153 0 -260 73.5t-151 202t-19 289.5l2 13q40 261 192.5 407t401.5 146q216 0 332.5 -140.5t81.5 -357.5l-10 -65h-938q-34 -219 71 -362.5t308 -143.5q338 0 440 270h65q-126 -332 -516 -332zM725 1036
q-208 0 -338.5 -115.5t-177.5 -324.5h874q24 193 -74.5 316.5t-283.5 123.5z" />
    <glyph glyph-name="Gcircumflex" unicode="&#x11c;" horiz-adv-x="1701" 
d="M754 1642h-68l270 283h105l184 -283h-69l-154 238h-41zM778 -33q-217 0 -371.5 99.5t-221 275t-31.5 395.5l4 25q58 364 272 567t563 203q254 0 403 -139t142 -379h-65q7 212 -127.5 334t-362.5 122q-320 0 -514 -190.5t-248 -529.5q-25 -154 3.5 -287t102 -229
t192.5 -150.5t269 -54.5q174 0 302 44.5t237 151.5l57 373h-563l8 57h775l-9 -57h-145l-61 -389q-127 -133 -270.5 -187.5t-340.5 -54.5z" />
    <glyph glyph-name="gcircumflex" unicode="&#x11d;" horiz-adv-x="1359" 
d="M557 1253h-65l276 377h100l160 -377h-63l-144 332h-16zM477 -418q-131 0 -295 27l11 61q160 -26 303 -26q216 0 350 119t168 335l22 135q-73 -129 -197.5 -197.5t-293.5 -68.5q-150 0 -255 73t-148 200t-19 286l2 13q42 264 195 411.5t403 147.5q165 0 274.5 -85.5
t137.5 -230.5l45 283h53l-154 -969q-40 -248 -196 -381t-406 -133zM559 29q216 0 350 116.5t168 331.5l19 111q31 195 -75 321.5t-302 126.5q-222 0 -357.5 -134t-171.5 -370q-34 -219 67 -361t302 -142z" />
    <glyph glyph-name="Gbreve" unicode="&#x11e;" horiz-adv-x="1701" 
d="M963 1626q-266 0 -242 299h57q-17 -246 193 -246q211 0 270 246h57q-68 -299 -335 -299zM778 -33q-217 0 -371.5 99.5t-221 275t-31.5 395.5l4 25q58 364 272 567t563 203q254 0 403 -139t142 -379h-65q7 212 -127.5 334t-362.5 122q-320 0 -514 -190.5t-248 -529.5
q-25 -154 3.5 -287t102 -229t192.5 -150.5t269 -54.5q174 0 302 44.5t237 151.5l57 373h-563l8 57h775l-9 -57h-145l-61 -389q-127 -133 -270.5 -187.5t-340.5 -54.5z" />
    <glyph glyph-name="gbreve" unicode="&#x11f;" horiz-adv-x="1359" 
d="M758 1245q-251 0 -203 385h61q-16 -168 17 -250t133 -82q102 0 161.5 82t94.5 250h61q-72 -385 -325 -385zM477 -418q-131 0 -295 27l11 61q160 -26 303 -26q216 0 350 119t168 335l22 135q-73 -129 -197.5 -197.5t-293.5 -68.5q-150 0 -255 73t-148 200t-19 286l2 13
q42 264 195 411.5t403 147.5q165 0 274.5 -85.5t137.5 -230.5l45 283h53l-154 -969q-40 -248 -196 -381t-406 -133zM559 29q216 0 350 116.5t168 331.5l19 111q31 195 -75 321.5t-302 126.5q-222 0 -357.5 -134t-171.5 -370q-34 -219 67 -361t302 -142z" />
    <glyph glyph-name="Gdotaccent" unicode="&#x120;" horiz-adv-x="1701" 
d="M981 1704q-34 0 -50.5 19t-10.5 53q5 32 27.5 51.5t56.5 19.5t51 -19.5t12 -51.5q-6 -34 -29 -53t-57 -19zM778 -33q-217 0 -371.5 99.5t-221 275t-31.5 395.5l4 25q58 364 272 567t563 203q254 0 403 -139t142 -379h-65q7 212 -127.5 334t-362.5 122q-320 0 -514 -190.5
t-248 -529.5q-25 -154 3.5 -287t102 -229t192.5 -150.5t269 -54.5q174 0 302 44.5t237 151.5l57 373h-563l8 57h775l-9 -57h-145l-61 -389q-127 -133 -270.5 -187.5t-340.5 -54.5z" />
    <glyph glyph-name="gdotaccent" unicode="&#x121;" horiz-adv-x="1359" 
d="M784 1339q-35 0 -50.5 19t-10.5 51q5 31 27 50.5t57 19.5t51.5 -19.5t11.5 -50.5q-5 -32 -27.5 -51t-58.5 -19zM477 -418q-131 0 -295 27l11 61q160 -26 303 -26q216 0 350 119t168 335l22 135q-73 -129 -197.5 -197.5t-293.5 -68.5q-150 0 -255 73t-148 200t-19 286
l2 13q42 264 195 411.5t403 147.5q165 0 274.5 -85.5t137.5 -230.5l45 283h53l-154 -969q-40 -248 -196 -381t-406 -133zM559 29q216 0 350 116.5t168 331.5l19 111q31 195 -75 321.5t-302 126.5q-222 0 -357.5 -134t-171.5 -370q-34 -219 67 -361t302 -142z" />
    <glyph glyph-name="Gcommaaccent" unicode="&#x122;" horiz-adv-x="1701" 
d="M778 -33q-217 0 -371.5 99.5t-221 275t-31.5 395.5l4 25q58 364 272 567t563 203q254 0 403 -139t142 -379h-65q7 212 -127.5 334t-362.5 122q-320 0 -514 -190.5t-248 -529.5q-25 -154 3.5 -287t102 -229t192.5 -150.5t269 -54.5q174 0 302 44.5t237 151.5l57 373h-563
l8 57h775l-9 -57h-145l-61 -389q-127 -133 -270.5 -187.5t-340.5 -54.5zM721 -524h-16l8 49h16q67 0 108 47.5t58 148.5l6 43q-24 -34 -65 -34q-31 0 -47.5 20t-10.5 55q5 33 29.5 54.5t60.5 21.5q49 0 71.5 -36.5t10.5 -110.5l-2 -8q-39 -250 -227 -250z" />
    <glyph glyph-name="gcommaaccent" unicode="&#x123;" horiz-adv-x="1359" 
d="M766 1245q-100 0 -74 164v8q40 242 223 242h9l-9 -49h-8q-66 0 -105 -44.5t-54 -144.5l-9 -49q25 25 58 25q31 0 47 -20.5t10 -55.5q-5 -33 -28.5 -54.5t-59.5 -21.5zM477 -418q-131 0 -295 27l11 61q160 -26 303 -26q216 0 350 119t168 335l22 135
q-73 -129 -197.5 -197.5t-293.5 -68.5q-150 0 -255 73t-148 200t-19 286l2 13q42 264 195 411.5t403 147.5q165 0 274.5 -85.5t137.5 -230.5l45 283h53l-154 -969q-40 -248 -196 -381t-406 -133zM559 29q216 0 350 116.5t168 331.5l19 111q31 195 -75 321.5t-302 126.5
q-222 0 -357.5 -134t-171.5 -370q-34 -219 67 -361t302 -142z" />
    <glyph glyph-name="Hbar" unicode="&#x126;" horiz-adv-x="1658" 
d="M213 0h-66l193 1212h-147l8 58h149l35 225h66l-35 -225h995l35 225h65l-34 -225h145l-8 -58h-148l-192 -1212h-66l113 707h-995zM336 768h995l70 444h-995z" />
    <glyph glyph-name="hbar" unicode="&#x127;" horiz-adv-x="1282" 
d="M285 0h-66l203 1280h-195l9 57h196l25 158h65l-24 -158h376l-8 -57h-379l-65 -424q127 238 412 238h4q182 0 274.5 -129.5t61.5 -325.5l-103 -639h-65l104 655q25 163 -54.5 270t-234.5 107q-180 0 -292 -100t-140 -281z" />
    <glyph glyph-name="Itilde" unicode="&#x128;" horiz-adv-x="606" 
d="M555 1700q-38 0 -72 15.5t-55 34.5t-52 34.5t-65 15.5q-93 0 -153 -90l-41 29q34 54 90 86.5t117 32.5q39 0 72.5 -16t53.5 -34.5t50.5 -34.5t64.5 -16q92 0 152 90l43 -28q-39 -55 -92.5 -87t-112.5 -32zM217 0h-65l237 1495h66z" />
    <glyph glyph-name="itilde" unicode="&#x129;" horiz-adv-x="573" 
d="M453 1339q-40 0 -73 16.5t-52 37t-48 37t-61 16.5q-74 0 -143 -90l-39 35q81 112 192 112q33 0 61 -11t47.5 -26.5t38 -31t41 -26.5t48.5 -11q71 0 143 90l37 -35q-82 -113 -192 -113zM264 0h-65l157 1004h-184l10 61h250z" />
    <glyph glyph-name="Imacron" unicode="&#x12a;" horiz-adv-x="606" 
d="M713 1753h-549l8 57h549zM217 0h-65l237 1495h66z" />
    <glyph glyph-name="imacron" unicode="&#x12b;" horiz-adv-x="573" 
d="M569 1393h-463l9 57h463zM264 0h-65l157 1004h-184l10 61h250z" />
    <glyph glyph-name="Ibreve" unicode="&#x12c;" horiz-adv-x="606" 
d="M408 1626q-266 0 -242 299h57q-17 -246 193 -246q211 0 270 246h57q-68 -299 -335 -299zM217 0h-65l237 1495h66z" />
    <glyph glyph-name="ibreve" unicode="&#x12d;" horiz-adv-x="573" 
d="M299 1245q-251 0 -203 385h62q-16 -169 16.5 -250.5t132.5 -81.5q102 0 161.5 82t94.5 250h62q-72 -385 -326 -385zM264 0h-65l157 1004h-184l10 61h250z" />
    <glyph glyph-name="Iogonek" unicode="&#x12e;" horiz-adv-x="606" 
d="M217 0h-65l237 1495h66zM193 -500q-85 0 -132 52.5t-32 144.5q13 87 70.5 160t156.5 145l53 39l23 -41l-53 -39q-170 -126 -193 -264q-11 -70 21.5 -104.5t93.5 -34.5q45 0 98 18l-10 -57q-49 -19 -96 -19z" />
    <glyph glyph-name="iogonek" unicode="&#x12f;" horiz-adv-x="573" 
d="M365 1315q-33 0 -49 18t-11 49q5 30 26 49t54 19t48.5 -19t10.5 -49q-5 -31 -25.5 -49t-53.5 -18zM233 0h-65l158 1004h-183l9 61h249l-8 -61h-2zM207 -487q-82 0 -126.5 50t-31.5 140q27 162 219 299l54 39l22 -41l-53 -39q-162 -121 -185 -258q-10 -67 20 -100t89 -33
q41 0 94 18l-10 -57q-46 -18 -92 -18z" />
    <glyph glyph-name="Idotaccent" unicode="&#x130;" horiz-adv-x="606" 
d="M426 1704q-34 0 -50.5 19t-10.5 53q5 32 27.5 51.5t56.5 19.5t51 -19.5t12 -51.5q-6 -34 -29 -53t-57 -19zM217 0h-65l237 1495h66z" />
    <glyph glyph-name="dotlessi" unicode="&#x131;" horiz-adv-x="573" 
d="M264 0h-65l157 1004h-184l10 61h250z" />
    <glyph glyph-name="Jcircumflex" unicode="&#x134;" horiz-adv-x="1298" 
d="M578 1642h-68l270 283h105l184 -283h-70l-153 238h-41zM453 -33q-212 0 -326 136.5t-80 349.5l10 57h66l-10 -66q-29 -182 69 -298.5t279 -116.5q200 0 325.5 108t157.5 307l156 990h-694l10 61h760l-5 -25l-161 -1017q-37 -231 -181.5 -358.5t-375.5 -127.5z" />
    <glyph glyph-name="jcircumflex" unicode="&#x135;" horiz-adv-x="589" 
d="M119 1253h-66l277 377h100l160 -377h-64l-143 332h-16zM-45 -414h-117l10 62h142q168 0 203 209l180 1147h-189l11 61h254l-187 -1180q-26 -160 -97 -229.5t-210 -69.5z" />
    <glyph glyph-name="Kcommaaccent" unicode="&#x136;" horiz-adv-x="1263" 
d="M213 0h-66l238 1495h66l-121 -766l833 766h80l-764 -698l690 -797h-88l-622 721h-131zM569 -524h-16l8 49h17q67 0 107.5 47t57.5 149l7 43q-24 -34 -66 -34q-31 0 -47 20t-10 55q5 33 29.5 54.5t60.5 21.5q49 0 71.5 -36.5t10.5 -110.5l-2 -8q-39 -250 -228 -250z" />
    <glyph glyph-name="kcommaaccent" unicode="&#x137;" horiz-adv-x="1028" 
d="M285 0h-66l238 1495h65l-155 -977l610 547h80l-529 -471l478 -594h-84l-404 504h-153zM553 -115q100 0 74 -164v-8q-40 -241 -224 -241h-8l8 49h9q66 0 105 44t54 144l9 49q-24 -24 -58 -24q-31 0 -47 20.5t-10 55.5q5 33 28.5 54t59.5 21z" />
    <glyph glyph-name="Lacute" unicode="&#x139;" horiz-adv-x="1085" 
d="M428 1642h-72l273 283h76zM913 0h-766l238 1495h66l-228 -1434h701z" />
    <glyph glyph-name="lacute" unicode="&#x13a;" horiz-adv-x="512" 
d="M309 1642h-71l272 283h76zM172 0h-66l228 1434h-168l10 61h234z" />
    <glyph glyph-name="Lcommaaccent" unicode="&#x13b;" horiz-adv-x="1085" 
d="M913 0h-766l238 1495h66l-228 -1434h701zM504 -526h-17l9 49h16q67 0 108 47.5t58 148.5l6 43q-24 -34 -66 -34q-31 0 -47 20t-10 55q5 33 29.5 54.5t60.5 21.5q49 0 71.5 -36.5t10.5 -110.5l-2 -8q-39 -250 -227 -250z" />
    <glyph glyph-name="lcommaaccent" unicode="&#x13c;" horiz-adv-x="512" 
d="M172 0h-66l228 1434h-168l10 61h234zM117 -115q99 0 73 -164v-8q-21 -126 -77 -183.5t-146 -57.5h-8l8 49h8q67 0 106 44t54 144l8 49q-24 -24 -57 -24q-31 0 -47 20.5t-10 55.5q5 33 28.5 54t59.5 21z" />
    <glyph glyph-name="Lcaron" unicode="&#x13d;" horiz-adv-x="1085" 
d="M813 1227h-61l71 454h66zM913 0h-766l238 1495h66l-228 -1434h701z" />
    <glyph glyph-name="lcaron" unicode="&#x13e;" horiz-adv-x="512" 
d="M606 1212h-61l71 455h66zM172 0h-66l228 1434h-168l10 61h234z" />
    <glyph glyph-name="Lslash" unicode="&#x141;" horiz-adv-x="1085" 
d="M913 0h-766l99 621l-201 -109l10 61l201 109l129 813h66l-123 -774l432 229l-10 -61l-433 -232l-94 -596h701z" />
    <glyph glyph-name="lslash" unicode="&#x142;" horiz-adv-x="512" 
d="M172 0h-66l101 629l-162 -90l10 63l162 88l117 744h-168l10 61h234l-121 -764l153 84l-10 -63l-153 -84z" />
    <glyph glyph-name="Nacute" unicode="&#x143;" horiz-adv-x="1683" 
d="M1006 1642h-72l272 283h76zM213 0h-66l238 1495h125l709 -1434h24l227 1434h66l-238 -1495h-124l-709 1434h-25z" />
    <glyph glyph-name="nacute" unicode="&#x144;" horiz-adv-x="1282" 
d="M741 1253h-65l231 377h70zM201 0h-66l168 1065h53l-37 -238q58 127 167.5 197t261.5 70h4q182 0 274 -129t61 -326l-100 -639h-65l102 655q27 163 -52.5 270t-234.5 107q-181 0 -292.5 -101t-141.5 -284z" />
    <glyph glyph-name="Ncommaaccent" unicode="&#x145;" horiz-adv-x="1683" 
d="M213 0h-66l238 1495h125l709 -1434h24l227 1434h66l-238 -1495h-124l-709 1434h-25zM637 -524h-16l8 49h16q67 0 108 47.5t58 148.5l6 43q-24 -34 -65 -34q-31 0 -47.5 20t-10.5 55q5 33 29.5 54.5t60.5 21.5q49 0 71.5 -36.5t10.5 -110.5l-2 -8q-39 -250 -227 -250z" />
    <glyph glyph-name="ncommaaccent" unicode="&#x146;" horiz-adv-x="1282" 
d="M201 0h-66l168 1065h53l-37 -238q58 127 167.5 197t261.5 70h4q182 0 274 -129t61 -326l-100 -639h-65l102 655q27 163 -52.5 270t-234.5 107q-181 0 -292.5 -101t-141.5 -284zM567 -115q100 0 74 -164v-8q-21 -126 -77 -183.5t-146 -57.5h-8l8 49h8q67 0 106 44t54 144
l8 49q-24 -24 -57 -24q-31 0 -47.5 20.5t-10.5 55.5q5 33 28.5 54t59.5 21z" />
    <glyph glyph-name="Ncaron" unicode="&#x147;" horiz-adv-x="1683" 
d="M1036 1642h-104l-174 283h69l144 -237h41l217 237h67zM213 0h-66l238 1495h125l709 -1434h24l227 1434h66l-238 -1495h-124l-709 1434h-25z" />
    <glyph glyph-name="ncaron" unicode="&#x148;" horiz-adv-x="1282" 
d="M778 1253h-98l-154 377h66l135 -332h16l234 332h65zM201 0h-66l168 1065h53l-37 -238q58 127 167.5 197t261.5 70h4q182 0 274 -129t61 -326l-100 -639h-65l102 655q27 163 -52.5 270t-234.5 107q-181 0 -292.5 -101t-141.5 -284z" />
    <glyph glyph-name="Eng" unicode="&#x14a;" horiz-adv-x="1683" 
d="M889 -426h-230l11 61h229q143 0 222 77.5t104 234.5l8 53h-59l-709 1434h-25l-227 -1434h-66l238 1495h125l709 -1434h24l227 1434h66l-244 -1532q-32 -203 -132 -296t-271 -93z" />
    <glyph glyph-name="eng" unicode="&#x14b;" horiz-adv-x="1282" 
d="M201 0h-66l168 1065h53l-37 -238q58 127 167.5 197t261.5 70h4q182 0 274 -129t61 -326l-100 -639l-18 -115q-26 -160 -97 -229.5t-210 -69.5h-148l8 62h172q170 0 205 209l29 184l96 614q27 163 -52.5 270t-234.5 107q-181 0 -292.5 -101t-141.5 -284z" />
    <glyph glyph-name="Omacron" unicode="&#x14c;" horiz-adv-x="1785" 
d="M1305 1753h-549l8 57h549zM768 -33q-163 0 -294 58t-213 160t-115 245.5t-7 308.5l4 25q59 366 284.5 567t588.5 201q217 0 372.5 -99t222.5 -274t31 -395l-4 -27q-59 -367 -283.5 -568.5t-586.5 -201.5zM778 29q333 0 537.5 189t259.5 532q33 205 -26.5 369t-201 257.5
t-341.5 93.5q-334 0 -539 -188.5t-260 -531.5q-25 -154 4 -287t103 -229t194 -150.5t270 -54.5z" />
    <glyph glyph-name="omacron" unicode="&#x14d;" horiz-adv-x="1339" 
d="M1008 1393h-463l8 57h463zM578 -33q-238 0 -365.5 157.5t-89.5 401.5l2 13q42 266 205.5 412.5t425.5 146.5q238 0 365 -157.5t89 -401.5l-2 -13q-42 -266 -204.5 -412.5t-425.5 -146.5zM588 29q232 0 375 132.5t182 370.5q34 219 -76.5 361.5t-320.5 142.5
q-232 0 -376.5 -132.5t-181.5 -371.5q-36 -218 75 -360.5t323 -142.5z" />
    <glyph glyph-name="Obreve" unicode="&#x14e;" horiz-adv-x="1785" 
d="M999 1626q-265 0 -241 299h57q-17 -246 193 -246q211 0 270 246h57q-31 -138 -113.5 -218.5t-222.5 -80.5zM768 -33q-163 0 -294 58t-213 160t-115 245.5t-7 308.5l4 25q59 366 284.5 567t588.5 201q217 0 372.5 -99t222.5 -274t31 -395l-4 -27q-59 -367 -283.5 -568.5
t-586.5 -201.5zM778 29q333 0 537.5 189t259.5 532q33 205 -26.5 369t-201 257.5t-341.5 93.5q-334 0 -539 -188.5t-260 -531.5q-25 -154 4 -287t103 -229t194 -150.5t270 -54.5z" />
    <glyph glyph-name="obreve" unicode="&#x14f;" horiz-adv-x="1339" 
d="M737 1245q-250 0 -202 385h61q-16 -169 16.5 -250.5t132.5 -81.5q102 0 161.5 82t94.5 250h62q-72 -385 -326 -385zM578 -33q-238 0 -365.5 157.5t-89.5 401.5l2 13q42 266 205.5 412.5t425.5 146.5q238 0 365 -157.5t89 -401.5l-2 -13q-42 -266 -204.5 -412.5
t-425.5 -146.5zM588 29q232 0 375 132.5t182 370.5q34 219 -76.5 361.5t-320.5 142.5q-232 0 -376.5 -132.5t-181.5 -371.5q-36 -218 75 -360.5t323 -142.5z" />
    <glyph glyph-name="Ohungarumlaut" unicode="&#x150;" horiz-adv-x="1785" 
d="M1157 1642h-61l215 283h65zM866 1642h-61l217 283h65zM768 -33q-163 0 -294 58t-213 160t-115 245.5t-7 308.5l4 25q59 366 284.5 567t588.5 201q217 0 372.5 -99t222.5 -274t31 -395l-4 -27q-59 -367 -283.5 -568.5t-586.5 -201.5zM778 29q333 0 537.5 189t259.5 532
q33 205 -26.5 369t-201 257.5t-341.5 93.5q-334 0 -539 -188.5t-260 -531.5q-25 -154 4 -287t103 -229t194 -150.5t270 -54.5z" />
    <glyph glyph-name="ohungarumlaut" unicode="&#x151;" horiz-adv-x="1339" 
d="M909 1253h-61l196 377h70zM616 1253h-61l197 377h69zM578 -33q-238 0 -365.5 157.5t-89.5 401.5l2 13q42 266 205.5 412.5t425.5 146.5q238 0 365 -157.5t89 -401.5l-2 -13q-42 -266 -204.5 -412.5t-425.5 -146.5zM588 29q232 0 375 132.5t182 370.5q34 219 -76.5 361.5
t-320.5 142.5q-232 0 -376.5 -132.5t-181.5 -371.5q-36 -218 75 -360.5t323 -142.5z" />
    <glyph glyph-name="OE" unicode="&#x152;" horiz-adv-x="2185" 
d="M797 -33q-110 0 -204.5 21.5t-165.5 60.5t-128 94t-92 122t-56.5 143.5t-22 160t10.5 170.5l4 25q25 156 99.5 294.5t188 244.5t272.5 167.5t341 61.5q163 0 304 -37h776l-8 -61h-738l-100 -643h682l-10 -62h-682l-105 -668h762l-10 -61h-815q-148 -33 -303 -33zM807 29
q146 0 289 30l219 1381q-150 30 -281 30q-134 0 -255 -36t-216 -101.5t-169 -155t-121 -198t-66 -229.5q-18 -98 -10.5 -189.5t31.5 -171.5t75.5 -146t121 -113.5t167.5 -74t215 -26.5z" />
    <glyph glyph-name="oe" unicode="&#x153;" horiz-adv-x="2252" 
d="M578 -33q-85 0 -158 22t-125 61.5t-92 92.5t-59 115.5t-26.5 130.5t5.5 137l2 13q14 86 50 167.5t93.5 152.5t130 124.5t165 84t192.5 30.5q192 0 307.5 -105.5t140.5 -271.5q70 167 209 272t328 105q113 0 201 -42t138 -112t69.5 -159t4.5 -185l-10 -65h-938
q-10 -81 -6 -155.5t32.5 -138.5t73.5 -111t117 -74t162 -27q161 0 278 76t162 194h66q-57 -150 -193 -241t-323 -91q-198 0 -304.5 106t-125.5 275q-75 -167 -223 -274t-344 -107zM1733 1036q-195 0 -331 -125t-183 -315h872q17 125 -18.5 224t-123 157.5t-216.5 58.5z
M588 29q112 0 210.5 41.5t168.5 112t116 160.5t62 189q16 102 -2 193t-67 160.5t-133.5 110t-194.5 40.5t-207.5 -40.5t-168.5 -110t-118.5 -160.5t-63.5 -193q-22 -134 14 -246.5t135.5 -184.5t248.5 -72z" />
    <glyph glyph-name="Racute" unicode="&#x154;" horiz-adv-x="1355" 
d="M780 1642h-71l272 283h76zM213 0h-66l238 1499h424q199 0 310.5 -120.5t82.5 -309.5l-4 -20q-30 -190 -148 -298.5t-305 -127.5l422 -623h-82l-417 618h-357zM803 1438h-363l-118 -758h362q187 0 304.5 98.5t146.5 280.5q26 167 -67.5 273t-264.5 106z" />
    <glyph glyph-name="racute" unicode="&#x155;" horiz-adv-x="798" 
d="M526 1253h-65l231 377h70zM201 0h-66l168 1065h53l-45 -287q61 142 182.5 218.5t294.5 76.5h35l-8 -61h-51q-195 0 -316.5 -105t-150.5 -299z" />
    <glyph glyph-name="Rcommaaccent" unicode="&#x156;" horiz-adv-x="1355" 
d="M213 0h-66l238 1499h424q199 0 310.5 -120.5t82.5 -309.5l-4 -20q-30 -190 -148 -298.5t-305 -127.5l422 -623h-82l-417 618h-357zM803 1438h-363l-118 -758h362q187 0 304.5 98.5t146.5 280.5q26 167 -67.5 273t-264.5 106zM580 -524h-17l8 49h17q67 0 108 47.5
t58 148.5l6 43q-24 -34 -66 -34q-31 0 -47 20t-10 55q5 33 29.5 54.5t60.5 21.5q49 0 71.5 -36.5t10.5 -110.5l-2 -8q-39 -250 -227 -250z" />
    <glyph glyph-name="rcommaaccent" unicode="&#x157;" horiz-adv-x="798" 
d="M201 0h-66l168 1065h53l-45 -287q61 142 182.5 218.5t294.5 76.5h35l-8 -61h-51q-195 0 -316.5 -105t-150.5 -299zM379 -115q100 0 74 -164v-8q-40 -241 -224 -241h-8l8 49h9q66 0 105 44t54 144l9 49q-24 -24 -58 -24q-31 0 -47 20.5t-10 55.5q5 33 28.5 54t59.5 21z
" />
    <glyph glyph-name="Rcaron" unicode="&#x158;" horiz-adv-x="1355" 
d="M811 1642h-104l-175 283h70l143 -237h41l218 237h67zM213 0h-66l238 1499h424q199 0 310.5 -120.5t82.5 -309.5l-4 -20q-30 -190 -148 -298.5t-305 -127.5l422 -623h-82l-417 618h-357zM803 1438h-363l-118 -758h362q187 0 304.5 98.5t146.5 280.5q26 167 -67.5 273
t-264.5 106z" />
    <glyph glyph-name="rcaron" unicode="&#x159;" horiz-adv-x="798" 
d="M563 1253h-98l-154 377h66l135 -332h16l234 332h65zM201 0h-66l168 1065h53l-45 -287q61 142 182.5 218.5t294.5 76.5h35l-8 -61h-51q-195 0 -316.5 -105t-150.5 -299z" />
    <glyph glyph-name="Sacute" unicode="&#x15a;" horiz-adv-x="1458" 
d="M856 1642h-72l273 283h76zM604 -33q-244 0 -383.5 125t-105.5 334h65q-19 -121 33 -212t156.5 -138t244.5 -47q483 0 539 356q24 148 -70.5 241.5t-265.5 108.5l-182 17q-170 14 -262 116.5t-66 259.5q31 200 173.5 302t365.5 102q215 0 335.5 -122.5t90.5 -319.5h-66
q27 170 -78 275t-292 105q-191 0 -313 -85t-150 -257q-21 -133 58 -218t224 -97l181 -16q196 -18 303 -128t80 -284q-18 -110 -71 -191.5t-135 -130.5t-183.5 -72.5t-225.5 -23.5z" />
    <glyph glyph-name="sacute" unicode="&#x15b;" horiz-adv-x="1056" 
d="M610 1253h-65l231 377h70zM434 -29q-172 0 -271.5 87t-76.5 233h66q-20 -119 64 -188.5t228 -69.5q155 0 254 62.5t121 195.5q17 97 -49 155.5t-186 71.5l-129 14q-125 14 -192.5 86.5t-49.5 184.5q23 148 128 221.5t271 73.5q154 0 242.5 -80.5t67.5 -214.5h-66
q18 106 -54 169.5t-198 63.5q-136 0 -222 -58.5t-106 -178.5q-13 -87 41 -141.5t152 -65.5l129 -14q145 -16 226 -92t61 -199q-27 -161 -145.5 -238.5t-305.5 -77.5z" />
    <glyph glyph-name="Scircumflex" unicode="&#x15c;" horiz-adv-x="1458" 
d="M623 1642h-68l270 283h105l184 -283h-70l-153 238h-41zM604 -33q-244 0 -383.5 125t-105.5 334h65q-19 -121 33 -212t156.5 -138t244.5 -47q483 0 539 356q24 148 -70.5 241.5t-265.5 108.5l-182 17q-170 14 -262 116.5t-66 259.5q31 200 173.5 302t365.5 102
q215 0 335.5 -122.5t90.5 -319.5h-66q27 170 -78 275t-292 105q-191 0 -313 -85t-150 -257q-21 -133 58 -218t224 -97l181 -16q196 -18 303 -128t80 -284q-18 -110 -71 -191.5t-135 -130.5t-183.5 -72.5t-225.5 -23.5z" />
    <glyph glyph-name="scircumflex" unicode="&#x15d;" horiz-adv-x="1056" 
d="M393 1253h-65l276 377h101l159 -377h-63l-144 332h-16zM434 -29q-172 0 -271.5 87t-76.5 233h66q-20 -119 64 -188.5t228 -69.5q155 0 254 62.5t121 195.5q17 97 -49 155.5t-186 71.5l-129 14q-125 14 -192.5 86.5t-49.5 184.5q23 148 128 221.5t271 73.5
q154 0 242.5 -80.5t67.5 -214.5h-66q18 106 -54 169.5t-198 63.5q-136 0 -222 -58.5t-106 -178.5q-13 -87 41 -141.5t152 -65.5l129 -14q145 -16 226 -92t61 -199q-27 -161 -145.5 -238.5t-305.5 -77.5z" />
    <glyph glyph-name="Scedilla" unicode="&#x15e;" horiz-adv-x="1458" 
d="M604 -33q-244 0 -383.5 125t-105.5 334h65q-19 -121 33 -212t156.5 -138t244.5 -47q483 0 539 356q24 148 -70.5 241.5t-265.5 108.5l-182 17q-170 14 -262 116.5t-66 259.5q31 200 173.5 302t365.5 102q215 0 335.5 -122.5t90.5 -319.5h-66q27 170 -78 275t-292 105
q-191 0 -313 -85t-150 -257q-21 -133 58 -218t224 -97l181 -16q196 -18 303 -128t80 -284q-30 -182 -151 -282t-314 -126l-21 -120q93 0 142 -45.5t38 -116.5q-13 -81 -78 -125.5t-167 -44.5q-88 0 -146 20l8 58q72 -21 148 -21q154 0 174 113q8 50 -25.5 79t-101.5 29h-53
l26 168q-62 -4 -94 -4z" />
    <glyph glyph-name="scedilla" unicode="&#x15f;" horiz-adv-x="1056" 
d="M434 -29q-172 0 -271.5 87t-76.5 233h66q-20 -119 64 -188.5t228 -69.5q155 0 254 62.5t121 195.5q17 97 -49 155.5t-186 71.5l-129 14q-125 14 -192.5 86.5t-49.5 184.5q23 148 128 221.5t271 73.5q154 0 242.5 -80.5t67.5 -214.5h-66q18 106 -54 169.5t-198 63.5
q-136 0 -222 -58.5t-106 -178.5q-13 -87 41 -141.5t152 -65.5l129 -14q145 -16 226 -92t61 -199q-44 -265 -344 -310l-19 -112q94 0 138.5 -43.5t33.5 -112.5q-12 -77 -72.5 -120.5t-158.5 -43.5q-72 0 -135 17l10 57q62 -16 133 -16q145 0 162 106q6 47 -22 75t-97 28h-53
l24 161q-16 -2 -51 -2z" />
    <glyph glyph-name="Scaron" unicode="&#x160;" horiz-adv-x="1458" 
d="M887 1642h-105l-174 283h70l143 -237h41l217 237h68zM604 -33q-244 0 -383.5 125t-105.5 334h65q-19 -121 33 -212t156.5 -138t244.5 -47q483 0 539 356q24 148 -70.5 241.5t-265.5 108.5l-182 17q-170 14 -262 116.5t-66 259.5q31 200 173.5 302t365.5 102
q215 0 335.5 -122.5t90.5 -319.5h-66q27 170 -78 275t-292 105q-191 0 -313 -85t-150 -257q-21 -133 58 -218t224 -97l181 -16q196 -18 303 -128t80 -284q-18 -110 -71 -191.5t-135 -130.5t-183.5 -72.5t-225.5 -23.5z" />
    <glyph glyph-name="scaron" unicode="&#x161;" horiz-adv-x="1056" 
d="M647 1253h-98l-154 377h66l135 -332h16l234 332h65zM434 -29q-172 0 -271.5 87t-76.5 233h66q-20 -119 64 -188.5t228 -69.5q155 0 254 62.5t121 195.5q17 97 -49 155.5t-186 71.5l-129 14q-125 14 -192.5 86.5t-49.5 184.5q23 148 128 221.5t271 73.5q154 0 242.5 -80.5
t67.5 -214.5h-66q18 106 -54 169.5t-198 63.5q-136 0 -222 -58.5t-106 -178.5q-13 -87 41 -141.5t152 -65.5l129 -14q145 -16 226 -92t61 -199q-27 -161 -145.5 -238.5t-305.5 -77.5z" />
    <glyph glyph-name="Tcedilla" unicode="&#x162;" horiz-adv-x="1179" 
d="M504 0h-12l-23 -143q93 0 142 -45.5t38 -116.5q-13 -81 -78.5 -125.5t-167.5 -44.5q-87 0 -145 20l8 58q72 -21 148 -21q154 0 174 113q8 50 -25.5 79t-101.5 29h-53l30 197l228 1434h-492l10 61h1049l-10 -61h-492z" />
    <glyph glyph-name="tcedilla" unicode="&#x163;" horiz-adv-x="843" 
d="M342 -455q-72 0 -135 17l10 57q62 -16 133 -16q145 0 162 106q6 47 -22 75t-97 28h-53l29 184q-104 20 -157 98.5t-36 190.5l115 723h-211l8 57h211l57 360h66l-57 -360h419l-8 -57h-420l-116 -740q-15 -95 36 -156t146 -61h203l-11 -61h-182h-10l-21 -125
q94 0 138.5 -43.5t33.5 -112.5q-12 -77 -72.5 -120.5t-158.5 -43.5z" />
    <glyph glyph-name="Tcaron" unicode="&#x164;" horiz-adv-x="1179" 
d="M750 1642h-105l-174 283h70l143 -237h41l217 237h68zM504 0h-66l228 1434h-492l10 61h1049l-10 -61h-492z" />
    <glyph glyph-name="tcaron" unicode="&#x165;" horiz-adv-x="843" 
d="M647 1298h-61l71 455h66zM614 -10h-182q-132 0 -204 83t-52 212l115 723h-211l8 57h211l57 360h66l-57 -360h419l-8 -57h-420l-116 -740q-15 -95 36 -156t146 -61h203z" />
    <glyph glyph-name="Tbar" unicode="&#x166;" horiz-adv-x="1179" 
d="M504 0h-66l119 741h-352l8 58h352l101 635h-492l10 61h1049l-10 -61h-492l-100 -635h352l-8 -58h-352z" />
    <glyph glyph-name="tbar" unicode="&#x167;" horiz-adv-x="843" 
d="M614 -10h-182q-132 0 -204 83t-52 212l45 280h-135l8 58h135l62 385h-211l8 57h211l57 360h66l-57 -360h419l-8 -57h-420l-61 -385h438l-8 -58h-438l-47 -297q-15 -95 36 -156t146 -61h203z" />
    <glyph glyph-name="Utilde" unicode="&#x168;" horiz-adv-x="1650" 
d="M1077 1700q-38 0 -72 15.5t-54.5 34.5t-51.5 34.5t-65 15.5q-43 0 -83.5 -23t-70.5 -67l-41 29q34 54 90 86.5t117 32.5q39 0 72.5 -16t53.5 -34.5t50.5 -34.5t64.5 -16q92 0 152 90l43 -28q-39 -55 -92.5 -87t-112.5 -32zM625 -33q-171 0 -293 76.5t-175 212.5t-26 307
l148 932h65l-149 -940q-35 -229 87.5 -377.5t350.5 -148.5q253 0 410.5 137.5t195.5 388.5l150 940h65l-147 -932q-46 -284 -222.5 -440t-459.5 -156z" />
    <glyph glyph-name="utilde" unicode="&#x169;" horiz-adv-x="1236" 
d="M823 1339q-33 0 -60 11t-46 26.5t-36.5 31.5t-40.5 27t-50 11q-75 0 -144 -90l-38 35q81 112 192 112q33 0 61 -11t47.5 -26.5t38 -31t41 -26.5t48.5 -11q71 0 143 90l37 -35q-82 -113 -193 -113zM500 -29h-4q-117 0 -197.5 59t-112 160t-12.5 228l102 647h66l-104 -664
q-27 -159 48 -263.5t224 -104.5q173 0 280.5 99t135.5 278l104 655h66l-168 -1065h-54l37 233q-58 -126 -161.5 -194t-249.5 -68z" />
    <glyph glyph-name="Umacron" unicode="&#x16a;" horiz-adv-x="1650" 
d="M1235 1753h-549l8 57h549zM625 -33q-171 0 -293 76.5t-175 212.5t-26 307l148 932h65l-149 -940q-35 -229 87.5 -377.5t350.5 -148.5q253 0 410.5 137.5t195.5 388.5l150 940h65l-147 -932q-46 -284 -222.5 -440t-459.5 -156z" />
    <glyph glyph-name="umacron" unicode="&#x16b;" horiz-adv-x="1236" 
d="M940 1393h-463l8 57h463zM500 -29h-4q-117 0 -197.5 59t-112 160t-12.5 228l102 647h66l-104 -664q-27 -159 48 -263.5t224 -104.5q173 0 280.5 99t135.5 278l104 655h66l-168 -1065h-54l37 233q-58 -126 -161.5 -194t-249.5 -68z" />
    <glyph glyph-name="Ubreve" unicode="&#x16c;" horiz-adv-x="1650" 
d="M930 1626q-266 0 -242 299h57q-17 -246 193 -246q211 0 270 246h58q-31 -138 -113.5 -218.5t-222.5 -80.5zM625 -33q-171 0 -293 76.5t-175 212.5t-26 307l148 932h65l-149 -940q-35 -229 87.5 -377.5t350.5 -148.5q253 0 410.5 137.5t195.5 388.5l150 940h65l-147 -932
q-46 -284 -222.5 -440t-459.5 -156z" />
    <glyph glyph-name="ubreve" unicode="&#x16d;" horiz-adv-x="1236" 
d="M670 1245q-251 0 -203 385h61q-16 -168 17 -250t133 -82q102 0 161.5 82t94.5 250h61q-72 -385 -325 -385zM500 -29h-4q-117 0 -197.5 59t-112 160t-12.5 228l102 647h66l-104 -664q-27 -159 48 -263.5t224 -104.5q173 0 280.5 99t135.5 278l104 655h66l-168 -1065h-54
l37 233q-58 -126 -161.5 -194t-249.5 -68z" />
    <glyph glyph-name="Uring" unicode="&#x16e;" horiz-adv-x="1650" 
d="M920 1597q-99 0 -147.5 61t-35.5 144q13 84 80.5 144.5t167.5 60.5q99 0 147 -60t35 -145q-13 -83 -80.5 -144t-166.5 -61zM928 1651q76 0 124 43.5t58 107.5q10 65 -24.5 108.5t-110.5 43.5t-123 -43.5t-57 -108.5q-10 -64 24 -107.5t109 -43.5zM625 -33
q-171 0 -293 76.5t-175 212.5t-26 307l148 932h65l-149 -940q-35 -229 87.5 -377.5t350.5 -148.5q253 0 410.5 137.5t195.5 388.5l150 940h65l-147 -932q-46 -284 -222.5 -440t-459.5 -156z" />
    <glyph glyph-name="uring" unicode="&#x16f;" horiz-adv-x="1236" 
d="M668 1233q-94 0 -144.5 60.5t-36.5 148.5t83 148.5t163 60.5q95 0 144.5 -60.5t35.5 -148.5t-82 -148.5t-163 -60.5zM676 1286q72 0 120.5 43.5t59.5 112.5t-24 112t-107 43q-71 0 -120 -43.5t-60 -111.5q-11 -69 24.5 -112.5t106.5 -43.5zM500 -29h-4q-117 0 -197.5 59
t-112 160t-12.5 228l102 647h66l-104 -664q-27 -159 48 -263.5t224 -104.5q173 0 280.5 99t135.5 278l104 655h66l-168 -1065h-54l37 233q-58 -126 -161.5 -194t-249.5 -68z" />
    <glyph glyph-name="Uhungarumlaut" unicode="&#x170;" horiz-adv-x="1650" 
d="M1087 1642h-61l215 283h66zM797 1642h-62l217 283h66zM625 -33q-171 0 -293 76.5t-175 212.5t-26 307l148 932h65l-149 -940q-35 -229 87.5 -377.5t350.5 -148.5q253 0 410.5 137.5t195.5 388.5l150 940h65l-147 -932q-46 -284 -222.5 -440t-459.5 -156z" />
    <glyph glyph-name="uhungarumlaut" unicode="&#x171;" horiz-adv-x="1236" 
d="M842 1253h-62l197 377h70zM549 1253h-62l197 377h70zM500 -29h-4q-117 0 -197.5 59t-112 160t-12.5 228l102 647h66l-104 -664q-27 -159 48 -263.5t224 -104.5q173 0 280.5 99t135.5 278l104 655h66l-168 -1065h-54l37 233q-58 -126 -161.5 -194t-249.5 -68z" />
    <glyph glyph-name="Uogonek" unicode="&#x172;" horiz-adv-x="1650" 
d="M625 -33q-171 0 -293 76.5t-175 212.5t-26 307l148 932h65l-149 -940q-35 -229 87.5 -377.5t350.5 -148.5q253 0 410.5 137.5t195.5 388.5l150 940h65l-147 -932q-38 -236 -168.5 -385t-337.5 -192l-47 -35q-170 -126 -193 -264q-11 -70 21.5 -105t93.5 -35q43 0 98 19
l-10 -58q-46 -18 -96 -18q-85 0 -132 52.5t-32 144.5q21 147 198 284q-50 -4 -77 -4z" />
    <glyph glyph-name="uogonek" unicode="&#x173;" horiz-adv-x="1236" 
d="M500 -29h-4q-117 0 -197.5 59t-112 160t-12.5 228l102 647h66l-104 -664q-27 -159 48 -263.5t224 -104.5q173 0 280.5 99t135.5 278l104 655h66l-168 -1065h-54l37 233q-58 -126 -161.5 -194t-249.5 -68zM870 -487q-82 0 -126 50t-31 140q27 162 219 299l53 39l23 -41
l-54 -39q-161 -120 -184 -258q-10 -67 20 -100t89 -33q42 0 94 18l-10 -57q-47 -18 -93 -18z" />
    <glyph glyph-name="Wcircumflex" unicode="&#x174;" horiz-adv-x="2070" 
d="M930 1642h-68l271 283h104l184 -283h-69l-154 238h-41zM569 0h-174l-194 1495h65l187 -1434h79l558 1362h104l158 -1362h80l610 1434h65l-639 -1495h-174l-159 1380z" />
    <glyph glyph-name="wcircumflex" unicode="&#x175;" horiz-adv-x="1605" 
d="M666 1253h-66l277 377h100l160 -377h-64l-143 332h-17zM467 0h-143l-158 1065h67l148 -1004h47l393 969h113l117 -969h49l430 1004h65l-458 -1065h-144l-121 991z" />
    <glyph glyph-name="Ycircumflex" unicode="&#x176;" horiz-adv-x="1318" 
d="M551 1642h-68l271 283h104l184 -283h-69l-154 238h-41zM580 0h-66l94 592h-78l-346 903h70l319 -842h154l569 842h68l-612 -903h-78z" />
    <glyph glyph-name="ycircumflex" unicode="&#x177;" horiz-adv-x="1040" 
d="M373 1253h-66l277 377h100l160 -377h-64l-143 332h-16zM29 -414h-101l11 62h104q119 0 201 55t137 166l80 160h-90l-230 1036h68l213 -975h67l484 975h65l-608 -1223q-65 -129 -162.5 -192.5t-238.5 -63.5z" />
    <glyph glyph-name="Ydieresis" unicode="&#x178;" horiz-adv-x="1318" 
d="M567 1704q-34 0 -50.5 19t-10.5 53q5 32 27.5 51.5t56.5 19.5t51 -19.5t12 -51.5q-6 -34 -29 -53t-57 -19zM989 1704q-34 0 -50.5 19t-10.5 53q5 32 27.5 51.5t56.5 19.5t51 -19.5t12 -51.5q-6 -34 -29 -53t-57 -19zM580 0h-66l94 592h-78l-346 903h70l319 -842h154
l569 842h68l-612 -903h-78z" />
    <glyph glyph-name="Zacute" unicode="&#x179;" horiz-adv-x="1355" 
d="M813 1642h-72l273 283h76zM1118 0h-1065l17 106l1171 1299l-6 29h-944l10 61h1018l-16 -106l-1172 -1299l6 -29h991z" />
    <glyph glyph-name="zacute" unicode="&#x17a;" horiz-adv-x="978" 
d="M584 1253h-66l232 377h69zM809 0h-764l14 98l818 889l-9 21h-665l8 57h735l-14 -98l-817 -889l8 -21h694z" />
    <glyph glyph-name="Zdotaccent" unicode="&#x17b;" horiz-adv-x="1355" 
d="M807 1704q-34 0 -51 19.5t-11 52.5q5 32 27.5 51.5t56.5 19.5t51.5 -19.5t12.5 -51.5q-6 -34 -29 -53t-57 -19zM1118 0h-1065l17 106l1171 1299l-6 29h-944l10 61h1018l-16 -106l-1172 -1299l6 -29h991z" />
    <glyph glyph-name="zdotaccent" unicode="&#x17c;" horiz-adv-x="978" 
d="M594 1339q-36 0 -51.5 19t-10.5 51q5 31 27 50.5t57 19.5t52 -19.5t12 -50.5q-5 -32 -27.5 -51t-58.5 -19zM809 0h-764l14 98l818 889l-9 21h-665l8 57h735l-14 -98l-817 -889l8 -21h694z" />
    <glyph glyph-name="Zcaron" unicode="&#x17d;" horiz-adv-x="1355" 
d="M844 1642h-105l-174 283h70l143 -237h41l217 237h68zM1118 0h-1065l17 106l1171 1299l-6 29h-944l10 61h1018l-16 -106l-1172 -1299l6 -29h991z" />
    <glyph glyph-name="zcaron" unicode="&#x17e;" horiz-adv-x="978" 
d="M621 1253h-99l-153 377h65l135 -332h17l233 332h66zM809 0h-764l14 98l818 889l-9 21h-665l8 57h735l-14 -98l-817 -889l8 -21h694z" />
    <glyph glyph-name="Aringacute" unicode="&#x1fa;" horiz-adv-x="1503" 
d="M940 2077h-72l273 282h76zM836 1597q-99 0 -147.5 61t-35.5 144q13 84 80.5 144.5t167.5 60.5q99 0 147 -60t35 -145q-13 -83 -80.5 -144t-166.5 -61zM844 1651q76 0 124 43.5t58 107.5q10 65 -24.5 108.5t-110.5 43.5t-123 -43.5t-57 -108.5q-10 -64 24 -107.5
t109 -43.5zM33 0h-66l813 1495h160l358 -1495h-67l-129 532h-780zM354 594h733l-200 840h-78z" />
    <glyph glyph-name="Scommaaccent" unicode="&#x218;" horiz-adv-x="1458" 
d="M604 -33q-244 0 -383.5 125t-105.5 334h65q-19 -121 33 -212t156.5 -138t244.5 -47q483 0 539 356q24 148 -70.5 241.5t-265.5 108.5l-182 17q-170 14 -262 116.5t-66 259.5q31 200 173.5 302t365.5 102q215 0 335.5 -122.5t90.5 -319.5h-66q27 170 -78 275t-292 105
q-191 0 -313 -85t-150 -257q-21 -133 58 -218t224 -97l181 -16q196 -18 303 -128t80 -284q-18 -110 -71 -191.5t-135 -130.5t-183.5 -72.5t-225.5 -23.5zM571 -524h-16l8 49h17q67 0 107.5 47t57.5 149l7 43q-24 -34 -66 -34q-31 0 -47 20t-10 55q5 33 29.5 54.5t60.5 21.5
q49 0 71.5 -36.5t10.5 -110.5l-2 -8q-39 -250 -228 -250z" />
    <glyph glyph-name="scommaaccent" unicode="&#x219;" horiz-adv-x="1056" 
d="M434 -29q-172 0 -271.5 87t-76.5 233h66q-20 -119 64 -188.5t228 -69.5q155 0 254 62.5t121 195.5q17 97 -49 155.5t-186 71.5l-129 14q-125 14 -192.5 86.5t-49.5 184.5q23 148 128 221.5t271 73.5q154 0 242.5 -80.5t67.5 -214.5h-66q18 106 -54 169.5t-198 63.5
q-136 0 -222 -58.5t-106 -178.5q-13 -87 41 -141.5t152 -65.5l129 -14q145 -16 226 -92t61 -199q-27 -161 -145.5 -238.5t-305.5 -77.5zM438 -115q100 0 74 -164v-8q-21 -126 -77 -183.5t-146 -57.5h-8l8 49h8q67 0 106 44t54 144l8 49q-24 -24 -57 -24q-31 0 -47.5 20.5
t-10.5 55.5q5 33 28.5 54t59.5 21z" />
    <glyph glyph-name="Tcommaaccent" unicode="&#x21a;" horiz-adv-x="1179" 
d="M504 0h-66l228 1434h-492l10 61h1049l-10 -61h-492zM287 -524h-17l9 49h16q67 0 108 47.5t58 148.5l6 43q-24 -34 -66 -34q-31 0 -47 20t-10 55q5 33 29.5 54.5t60.5 21.5q49 0 71.5 -36.5t10.5 -110.5l-2 -8q-39 -250 -227 -250z" />
    <glyph glyph-name="tcommaaccent" unicode="&#x21b;" horiz-adv-x="843" 
d="M614 -10h-182q-132 0 -204 83t-52 212l115 723h-211l8 57h211l57 360h66l-57 -360h419l-8 -57h-420l-116 -740q-15 -95 36 -156t146 -61h203zM399 -115q100 0 74 -164v-8q-21 -126 -77 -183.5t-146 -57.5h-8l8 49h8q67 0 106 44t54 144l8 49q-24 -24 -57 -24
q-31 0 -47.5 20.5t-10.5 55.5q5 33 28.5 54t59.5 21z" />
    <glyph glyph-name="dotlessj" unicode="&#x237;" horiz-adv-x="589" 
d="M-45 -414h-117l10 62h142q168 0 203 209l180 1147h-189l11 61h254l-187 -1180q-26 -160 -97 -229.5t-210 -69.5z" />
    <glyph glyph-name="circumflex" unicode="&#x2c6;" 
d="M135 1253h-65l276 377h100l160 -377h-63l-144 332h-16z" />
    <glyph glyph-name="ring" unicode="&#x2da;" 
d="M279 1233q-94 0 -144.5 60.5t-36.5 148.5t83 148.5t163 60.5q95 0 144.5 -60.5t35.5 -148.5t-82 -148.5t-163 -60.5zM287 1286q72 0 120.5 43.5t59.5 112.5t-24 112t-107 43q-71 0 -120 -43.5t-60 -111.5q-11 -69 24.5 -112.5t106.5 -43.5z" />
    <glyph glyph-name="tilde" unicode="&#x2dc;" 
d="M516 1339q-33 0 -60 11t-46 26.5t-36.5 31.5t-40.5 27t-50 11q-75 0 -144 -90l-39 35q81 112 193 112q41 0 74.5 -16.5t53 -36.5t48 -36.5t59.5 -16.5q72 0 144 90l37 -35q-82 -113 -193 -113z" />
    <glyph glyph-name="gravecomb" unicode="&#x300;" 
d="M332 1253h-66l-137 377h70z" />
    <glyph glyph-name="acutecomb" unicode="&#x301;" 
d="M135 1253h-65l231 377h70z" />
    <glyph glyph-name="circumflexcomb" unicode="&#x302;" 
d="M135 1253h-65l276 377h100l160 -377h-63l-144 332h-16z" />
    <glyph glyph-name="tildecomb" unicode="&#x303;" 
d="M516 1339q-33 0 -60 11t-46 26.5t-36.5 31.5t-40.5 27t-50 11q-75 0 -144 -90l-39 35q81 112 193 112q41 0 74.5 -16.5t53 -36.5t48 -36.5t59.5 -16.5q72 0 144 90l37 -35q-82 -113 -193 -113z" />
    <glyph glyph-name="macroncomb" unicode="&#x304;" 
d="M569 1393h-463l9 57h463z" />
    <glyph glyph-name="brevecomb" unicode="&#x306;" 
d="M332 1245q-251 0 -203 385h61q-16 -168 17 -250t133 -82q102 0 161.5 82t94.5 250h61q-72 -385 -325 -385z" />
    <glyph glyph-name="dotaccentcomb" unicode="&#x307;" 
d="M168 1339q-36 0 -51.5 19t-10.5 51q5 31 27 50.5t57 19.5t52 -19.5t12 -50.5q-5 -32 -27.5 -51t-58.5 -19z" />
    <glyph glyph-name="dieresiscomb" unicode="&#x308;" 
d="M168 1339q-36 0 -51.5 19t-10.5 51q5 31 27 50.5t57 19.5t52 -19.5t12 -50.5q-5 -32 -27.5 -51t-58.5 -19zM557 1339q-35 0 -50.5 19t-10.5 51q5 31 27 50.5t57 19.5t51.5 -19.5t11.5 -50.5q-5 -32 -27.5 -51t-58.5 -19z" />
    <glyph glyph-name="ringcomb" unicode="&#x30a;" 
d="M279 1233q-94 0 -144.5 60.5t-36.5 148.5t83 148.5t163 60.5q95 0 144.5 -60.5t35.5 -148.5t-82 -148.5t-163 -60.5zM287 1286q72 0 120.5 43.5t59.5 112.5t-24 112t-107 43q-71 0 -120 -43.5t-60 -111.5q-11 -69 24.5 -112.5t106.5 -43.5z" />
    <glyph glyph-name="hungarumlautcomb" unicode="&#x30b;" 
d="M424 1253h-62l197 377h70zM131 1253h-61l196 377h70z" />
    <glyph glyph-name="caroncomb" unicode="&#x30c;" 
d="M381 1253h-98l-154 377h66l135 -332h16l234 332h65z" />
    <glyph glyph-name="commaturnedabovecomb" unicode="&#x312;" 
d="M166 1245q-100 0 -74 164v8q40 242 223 242h9l-9 -49h-8q-66 0 -105.5 -44.5t-54.5 -144.5l-8 -49q25 25 58 25q31 0 47 -20.5t10 -55.5q-5 -33 -28.5 -54.5t-59.5 -21.5z" />
    <glyph glyph-name="commaaccentcomb" unicode="&#x326;" 
d="M211 -115q100 0 74 -164v-8q-40 -241 -224 -241h-8l8 49h9q66 0 105 44t54 144l9 49q-24 -24 -58 -24q-31 0 -47 20.5t-10 55.5q5 33 28.5 54t59.5 21z" />
    <glyph glyph-name="cedillacomb" unicode="&#x327;" 
d="M188 -455q-72 0 -135 17l10 57q62 -16 134 -16q144 0 161 106q6 47 -22 75t-96 28h-54l33 208h53l-24 -155q94 0 138.5 -43.5t33.5 -112.5q-12 -77 -73 -120.5t-159 -43.5z" />
    <glyph glyph-name="ogonekcomb" unicode="&#x328;" 
d="M268 -487q-82 0 -126 50t-31 140q27 162 219 299l53 39l23 -41l-54 -39q-161 -120 -184 -258q-10 -68 19.5 -100.5t88.5 -32.5q42 0 95 18l-11 -57q-46 -18 -92 -18z" />
    <glyph glyph-name="strokeshortcomb" unicode="&#x335;" 
d="M664 518h-639l8 57h639z" />
    <glyph glyph-name="strokelongcomb" unicode="&#x336;" 
d="M715 705h-713l10 61h713z" />
    <glyph glyph-name="riel-khmer" unicode="&#x17db;" horiz-adv-x="1024" 
d="M514 -8h-106q-158 0 -250.5 70t-71.5 196q46 293 451 293l34 221h-305l8 57h308l10 66q12 85 -49 133q-23 18 -74.5 56.5t-83.5 64.5q-55 43 -58 105.5t40 125.5q44 69 107 96t155 27q95 0 256 -24l-11 -62q-150 25 -264 25q-70 0 -115 -18t-75 -68q-59 -99 8 -158
q32 -28 86 -67.5t72 -53.5q88 -71 71 -182l-10 -66h283l-8 -57h-285zM414 53h45l69 436q-77 -1 -137 -12.5t-111.5 -37t-84 -71t-43.5 -110.5q-17 -98 58.5 -151.5t203.5 -53.5z" />
    <glyph glyph-name="Wgrave" unicode="&#x1e80;" horiz-adv-x="2070" 
d="M1200 1642h-74l-190 283h78zM569 0h-174l-194 1495h65l187 -1434h79l558 1362h104l158 -1362h80l610 1434h65l-639 -1495h-174l-159 1380z" />
    <glyph glyph-name="wgrave" unicode="&#x1e81;" horiz-adv-x="1605" 
d="M913 1253h-65l-137 377h69zM467 0h-143l-158 1065h67l148 -1004h47l393 969h113l117 -969h49l430 1004h65l-458 -1065h-144l-121 991z" />
    <glyph glyph-name="Wacute" unicode="&#x1e82;" horiz-adv-x="2070" 
d="M1163 1642h-71l272 283h76zM569 0h-174l-194 1495h65l187 -1434h79l558 1362h104l158 -1362h80l610 1434h65l-639 -1495h-174l-159 1380z" />
    <glyph glyph-name="wacute" unicode="&#x1e83;" horiz-adv-x="1605" 
d="M883 1253h-66l232 377h69zM467 0h-143l-158 1065h67l148 -1004h47l393 969h113l117 -969h49l430 1004h65l-458 -1065h-144l-121 991z" />
    <glyph glyph-name="Wdieresis" unicode="&#x1e84;" horiz-adv-x="2070" 
d="M946 1704q-34 0 -50.5 19t-10.5 53q5 32 27.5 51.5t56.5 19.5t51 -19.5t12 -51.5q-6 -34 -29 -53t-57 -19zM1368 1704q-34 0 -50.5 19t-10.5 53q5 32 27.5 51.5t56.5 19.5t51 -19.5t12 -51.5q-6 -34 -29 -53t-57 -19zM569 0h-174l-194 1495h65l187 -1434h79l558 1362h104
l158 -1362h80l610 1434h65l-639 -1495h-174l-159 1380z" />
    <glyph glyph-name="wdieresis" unicode="&#x1e85;" horiz-adv-x="1605" 
d="M698 1339q-35 0 -50.5 19t-10.5 51q5 31 27 50.5t57 19.5t51.5 -19.5t11.5 -50.5q-5 -32 -27.5 -51t-58.5 -19zM1087 1339q-35 0 -50.5 19t-10.5 51q5 31 27 50.5t57 19.5t52 -19.5t12 -50.5t-28 -50.5t-59 -19.5zM467 0h-143l-158 1065h67l148 -1004h47l393 969h113
l117 -969h49l430 1004h65l-458 -1065h-144l-121 991z" />
    <glyph glyph-name="Germandbls" unicode="&#x1e9e;" horiz-adv-x="2801" 
d="M596 -33q-156 0 -272.5 55t-173.5 160.5t-35 243.5h65q-19 -120 32 -211.5t153.5 -138.5t240.5 -47q107 0 194.5 19.5t158.5 61t117 111.5t61 164q23 148 -70 241.5t-262 108.5l-178 17q-168 15 -258 117.5t-66 258.5q31 200 172 302t361 102q213 0 331 -123t88 -319h-65
q27 169 -76.5 274.5t-288.5 105.5q-189 0 -309 -86t-147 -256q-21 -131 57 -217t221 -98l176 -16q195 -18 300.5 -128t78.5 -284q-24 -145 -109 -240.5t-209 -136.5t-288 -41zM1956 -33q-156 0 -272.5 55t-173.5 160.5t-35 243.5h65q-19 -120 32 -211.5t153.5 -138.5
t240.5 -47q107 0 194.5 19.5t158.5 61t117 111.5t61 164q23 148 -70 241.5t-262 108.5l-178 17q-168 15 -258 117.5t-66 258.5q31 200 171.5 302t360.5 102q213 0 331.5 -123t88.5 -319h-65q27 169 -76.5 274.5t-288.5 105.5q-189 0 -309 -86t-147 -256q-21 -131 57 -217
t221 -98l176 -16q195 -18 300.5 -128t78.5 -284q-24 -145 -109 -240.5t-209 -136.5t-288 -41z" />
    <glyph glyph-name="Etilde" unicode="&#x1ebc;" horiz-adv-x="1245" 
d="M1079 1700q-38 0 -72 15.5t-54.5 34.5t-51.5 34.5t-65 15.5q-43 0 -83.5 -23t-70.5 -67l-41 29q34 54 90 86.5t117 32.5q39 0 72.5 -16t54 -34.5t51 -34.5t64.5 -16q91 0 151 90l43 -28q-39 -55 -92.5 -87t-112.5 -32zM1094 0h-828l238 1495h801l-11 -61h-735l-102 -643
h682l-9 -62h-681l-107 -668h762z" />
    <glyph glyph-name="etilde" unicode="&#x1ebd;" horiz-adv-x="1232" 
d="M856 1339q-33 0 -60 11t-46 26.5t-36.5 31.5t-40.5 27t-50 11q-75 0 -144 -90l-39 35q81 112 193 112q41 0 74.5 -16.5t53 -36.5t48 -36.5t59.5 -16.5q72 0 144 90l37 -35q-82 -113 -193 -113zM567 -33q-153 0 -260 73.5t-151 202t-19 289.5l2 13q40 261 192.5 407
t401.5 146q216 0 332.5 -140.5t81.5 -357.5l-10 -65h-938q-34 -219 71 -362.5t308 -143.5q338 0 440 270h65q-126 -332 -516 -332zM725 1036q-208 0 -338.5 -115.5t-177.5 -324.5h874q24 193 -74.5 316.5t-283.5 123.5z" />
    <glyph glyph-name="Ygrave" unicode="&#x1ef2;" horiz-adv-x="1318" 
d="M821 1642h-73l-191 283h78zM580 0h-66l94 592h-78l-346 903h70l319 -842h154l569 842h68l-612 -903h-78z" />
    <glyph glyph-name="ygrave" unicode="&#x1ef3;" horiz-adv-x="1040" 
d="M621 1253h-66l-137 377h69zM29 -414h-101l11 62h104q119 0 201 55t137 166l80 160h-90l-230 1036h68l213 -975h67l484 975h65l-608 -1223q-65 -129 -162.5 -192.5t-238.5 -63.5z" />
    <glyph glyph-name="endash" unicode="&#x2013;" horiz-adv-x="1011" 
d="M1014 541h-938l8 57h938z" />
    <glyph glyph-name="emdash" unicode="&#x2014;" horiz-adv-x="1806" 
d="M1808 541h-1732l8 57h1733z" />
    <glyph glyph-name="quoteleft" unicode="&#x2018;" horiz-adv-x="462" 
d="M446 1499h21l-8 -57h-17q-61 0 -99 -20.5t-66.5 -78t-45.5 -163.5l-10 -68q23 10 49 10q37 0 55.5 -21.5t12.5 -58.5q-6 -35 -29.5 -55t-60.5 -20q-107 0 -80 166l4 34q16 101 42 168t62 102t75.5 48.5t94.5 13.5z" />
    <glyph glyph-name="quoteright" unicode="&#x2019;" horiz-adv-x="462" 
d="M170 971h-20l8 57h16q61 0 99 20.5t66.5 78t45.5 163.5l10 68q-23 -10 -49 -10q-37 0 -55 21t-12 58q6 35 29.5 55.5t60.5 20.5q107 0 80 -166l-5 -34q-16 -101 -42 -168t-62 -102t-75.5 -48.5t-94.5 -13.5z" />
    <glyph glyph-name="quotesinglbase" unicode="&#x201a;" horiz-adv-x="462" 
d="M-43 -377h-20l8 58h16q61 0 99 20.5t66.5 78t45.5 163.5l10 67q-23 -10 -49 -10q-37 0 -55 21.5t-12 58.5q6 35 29.5 55.5t60.5 20.5q107 0 80 -166l-5 -35q-16 -101 -42 -168t-62 -102t-75.5 -48.5t-94.5 -13.5z" />
    <glyph glyph-name="quotedblleft" unicode="&#x201c;" horiz-adv-x="798" 
d="M782 1499h21l-8 -57h-17q-61 0 -99 -20.5t-66.5 -78t-45.5 -163.5l-10 -68q23 10 49 10q37 0 55.5 -21.5t12.5 -58.5q-6 -35 -29.5 -55t-60.5 -20q-107 0 -80 166l4 34q16 101 42 168t62 102t75.5 48.5t94.5 13.5zM446 1499h21l-8 -57h-17q-61 0 -99 -20.5t-66.5 -78
t-45.5 -163.5l-10 -68q23 10 49 10q37 0 55.5 -21.5t12.5 -58.5q-6 -35 -29.5 -55t-60.5 -20q-107 0 -80 166l4 34q16 101 42 168t62 102t75.5 48.5t94.5 13.5z" />
    <glyph glyph-name="quotedblright" unicode="&#x201d;" horiz-adv-x="798" 
d="M170 971h-20l8 57h16q61 0 99 20.5t66.5 78t45.5 163.5l10 68q-23 -10 -49 -10q-37 0 -55 21t-12 58q6 35 29.5 55.5t60.5 20.5q107 0 80 -166l-5 -34q-16 -101 -42 -168t-62 -102t-75.5 -48.5t-94.5 -13.5zM506 971h-21l9 57h16q61 0 99 20.5t66.5 78t45.5 163.5l10 68
q-23 -10 -49 -10q-37 0 -55.5 21t-12.5 58q6 35 30 55.5t61 20.5q106 0 79 -166l-4 -34q-16 -101 -42 -168t-62 -102t-75.5 -48.5t-94.5 -13.5z" />
    <glyph glyph-name="quotedblbase" unicode="&#x201e;" horiz-adv-x="798" 
d="M-43 -377h-20l8 58h16q61 0 99 20.5t66.5 78t45.5 163.5l10 67q-23 -10 -49 -10q-37 0 -55 21.5t-12 58.5q6 35 29.5 55.5t60.5 20.5q107 0 80 -166l-5 -35q-16 -101 -42 -168t-62 -102t-75.5 -48.5t-94.5 -13.5zM293 -377h-21l9 58h16q61 0 99 20.5t66.5 78t45.5 163.5
l10 67q-23 -10 -49 -10q-37 0 -55.5 21.5t-12.5 58.5q6 35 30 55.5t61 20.5q106 0 79 -166l-4 -35q-16 -101 -42 -168t-62 -102t-75.5 -48.5t-94.5 -13.5z" />
    <glyph glyph-name="dagger" unicode="&#x2020;" horiz-adv-x="1024" 
d="M942 1008h-778l10 57h358l68 430h62l-68 -430h358zM360 -410h-61l190 1215h62z" />
    <glyph glyph-name="daggerdbl" unicode="&#x2021;" horiz-adv-x="1024" 
d="M942 1008h-778l10 57h358l68 430h62l-68 -430h358zM457 242h-49l92 581h49zM356 -430h-61l67 430h-358l10 57h779l-11 -57h-358z" />
    <glyph glyph-name="bullet" unicode="&#x2022;" horiz-adv-x="880" 
d="M645 367h-422l70 442h422z" />
    <glyph glyph-name="ellipsis" unicode="&#x2026;" horiz-adv-x="1540" 
d="M324 0h-99l17 111h98zM811 0h-98l16 111h98zM1298 0h-98l17 111h98z" />
    <glyph glyph-name="perthousand" unicode="&#x2030;" horiz-adv-x="2408" 
d="M403 717q-141 0 -204.5 109t-36.5 274l4 24q28 178 117 280.5t245 102.5q94 0 155.5 -51.5t83.5 -137.5t5 -194l-4 -24q-29 -179 -119 -281t-246 -102zM436 0h-59l840 1495h59zM412 770q247 0 301 342q15 96 0 172t-64.5 123t-128.5 47q-245 0 -299 -342
q-24 -148 24.5 -245t166.5 -97zM1124 -12q-140 0 -204.5 108.5t-38.5 274.5l4 24q29 179 118.5 281t245.5 102q141 0 205 -109t37 -274l-4 -24q-28 -178 -117.5 -280.5t-245.5 -102.5zM1878 -12q-94 0 -155.5 51.5t-83.5 137.5t-5 194l4 24q29 179 119 281t246 102
q141 0 205 -109t37 -274l-4 -24q-28 -178 -117.5 -280.5t-245.5 -102.5zM1133 41q245 0 299 342q24 148 -24.5 245t-166.5 97q-244 0 -301 -342q-15 -96 0 -172t64.5 -123t128.5 -47zM1886 41q245 0 299 342q24 148 -24 245t-166 97q-244 0 -301 -342q-15 -96 -0.5 -172
t64 -123t128.5 -47z" />
    <glyph glyph-name="minute" unicode="&#x2032;" horiz-adv-x="528" 
d="M289 991h-62l170 504h62z" />
    <glyph glyph-name="second" unicode="&#x2033;" horiz-adv-x="770" 
d="M289 991h-62l170 504h62zM530 991h-61l170 504h61z" />
    <glyph glyph-name="guilsinglleft" unicode="&#x2039;" horiz-adv-x="569" 
d="M385 80h-66l-188 420l10 61l320 428h63l-329 -440l-5 -33z" />
    <glyph glyph-name="guilsinglright" unicode="&#x203a;" horiz-adv-x="569" 
d="M197 989h65l189 -420l-11 -61l-319 -428h-64l330 440l4 33z" />
    <glyph glyph-name="fraction" unicode="&#x2044;" horiz-adv-x="382" 
d="M-266 -45h-56l1012 1438h55z" />
    <glyph glyph-name="four.superior" unicode="&#x2074;" horiz-adv-x="753" 
d="M557 860h-51l35 219h-453l10 70l467 543l35 -29l-455 -528l7 -13h395l49 312h51l-49 -312h121l-6 -43h-121z" />
    <glyph glyph-name="Euro" unicode="&#x20ac;" horiz-adv-x="1404" 
d="M713 -23q-157 0 -266.5 76.5t-161 206t-49.5 299.5h-213l8 57h207q3 58 12 117l4 29q8 51 14 80h-166l11 57h168q148 619 655 619q200 0 315 -109.5t97 -292.5h-62q15 155 -86.5 247.5t-273.5 92.5q-121 0 -218 -40.5t-166 -116.5t-116 -174.5t-78 -225.5h674l-10 -57
h-678q-15 -78 -17 -94q-12 -91 -14 -132h637l-8 -57h-629q1 -154 45.5 -269t139.5 -183t233 -68q186 0 305.5 85t155.5 255h61q-42 -199 -179.5 -300.5t-350.5 -101.5z" />
    <glyph glyph-name="trademark" unicode="&#x2122;" horiz-adv-x="1654" 
d="M805 705h-57l124 790h74l195 -596h22l381 596h74l-125 -790h-61l108 681l-348 -540h-96l-183 551zM383 705h-61l116 733h-256l11 57h569l-10 -57h-252z" />
    <glyph glyph-name="minus" unicode="&#x2212;" horiz-adv-x="1196" 
d="M1069 678h-844l8 57h844z" />
    <glyph glyph-name="divisionslash" unicode="&#x2215;" horiz-adv-x="731" 
d="M-66 -143h-65l905 1781h66z" />
    <glyph glyph-name="lessequal" unicode="&#x2264;" horiz-adv-x="1187" 
d="M997 426l-8 -61l-799 294l9 50l6 41l6 32l891 295l-10 -63l-844 -277l-4 -35zM952 115h-852l11 57h852z" />
    <glyph glyph-name="greaterequal" unicode="&#x2265;" horiz-adv-x="1187" 
d="M1034 659l-889 -294l9 63l843 277l4 34l-753 277l10 61l797 -295l-8 -49l-7 -41zM952 115h-852l11 57h852z" />
    <glyph glyph-name="sora" unicode="&#xe000;" horiz-adv-x="1658" 
d="M868 987l-817 -987h-74l871 1053h-705l9 55h704l51 330h-704l10 57h1470l-10 -57h-704l-51 -330h704l-8 -55h-705l535 -1053h-74z" />
    <glyph glyph-name="I.salt" horiz-adv-x="909" 
d="M557 0h-442l10 61h188l217 1373h-188l10 61h443l-11 -61h-188l-217 -1373h188z" />
    <glyph glyph-name="Iacute.salt" horiz-adv-x="909" 
d="M584 1642h-72l272 283h76zM557 0h-442l10 61h188l217 1373h-188l10 61h443l-11 -61h-188l-217 -1373h188z" />
    <glyph glyph-name="Ibreve.salt" horiz-adv-x="909" 
d="M559 1626q-266 0 -242 299h58q-8 -117 36 -181.5t156 -64.5q212 0 271 246h57q-31 -138 -113.5 -218.5t-222.5 -80.5zM557 0h-442l10 61h188l217 1373h-188l10 61h443l-11 -61h-188l-217 -1373h188z" />
    <glyph glyph-name="Icircumflex.salt" horiz-adv-x="909" 
d="M350 1642h-67l270 283h104l185 -283h-70l-154 238h-40zM557 0h-442l10 61h188l217 1373h-188l10 61h443l-11 -61h-188l-217 -1373h188z" />
    <glyph glyph-name="Idieresis.salt" horiz-adv-x="909" 
d="M367 1704q-34 0 -51 19.5t-11 52.5q5 32 27.5 51.5t56.5 19.5t51.5 -19.5t12.5 -51.5q-6 -34 -29 -53t-57 -19zM788 1704q-34 0 -50.5 19t-10.5 53q5 32 27.5 51.5t56.5 19.5t51 -19.5t12 -51.5q-6 -34 -29 -53t-57 -19zM557 0h-442l10 61h188l217 1373h-188l10 61h443
l-11 -61h-188l-217 -1373h188z" />
    <glyph glyph-name="Idotaccent.salt" horiz-adv-x="909" 
d="M578 1704q-34 0 -51 19.5t-11 52.5q5 32 27.5 51.5t56.5 19.5t51.5 -19.5t12.5 -51.5q-6 -34 -29 -53t-57 -19zM557 0h-442l10 61h188l217 1373h-188l10 61h443l-11 -61h-188l-217 -1373h188z" />
    <glyph glyph-name="Igrave.salt" horiz-adv-x="909" 
d="M621 1642h-74l-191 283h78zM557 0h-442l10 61h188l217 1373h-188l10 61h443l-11 -61h-188l-217 -1373h188z" />
    <glyph glyph-name="Imacron.salt" horiz-adv-x="909" 
d="M864 1753h-549l9 57h548zM557 0h-442l10 61h188l217 1373h-188l10 61h443l-11 -61h-188l-217 -1373h188z" />
    <glyph glyph-name="Iogonek.salt" horiz-adv-x="909" 
d="M557 0h-41l-53 -39q-170 -126 -193 -264q-11 -70 21.5 -104.5t93.5 -34.5q45 0 98 18l-10 -57q-49 -19 -96 -19q-85 0 -132 52.5t-32 144.5q13 87 70.5 160t154.5 143h-323l10 61h188l217 1373h-188l10 61h443l-11 -61h-188l-217 -1373h188z" />
    <glyph glyph-name="Itilde.salt" horiz-adv-x="909" 
d="M707 1700q-38 0 -72 15.5t-55 34.5t-52 34.5t-65 15.5q-43 0 -83.5 -23t-70.5 -67l-41 29q34 54 90 86.5t117 32.5q39 0 72.5 -16t54 -34.5t51 -34.5t64.5 -16q91 0 151 90l43 -28q-39 -55 -92 -87t-112 -32zM557 0h-442l10 61h188l217 1373h-188l10 61h443l-11 -61h-188
l-217 -1373h188z" />
    <glyph glyph-name="J.salt" horiz-adv-x="1177" 
d="M416 -39q-170 0 -262 111t-64 282l41 271h66l-43 -279q-23 -141 53.5 -232t218.5 -91q155 0 251.5 84.5t121.5 238.5l182 1149h66l-181 -1141q-31 -188 -147 -290.5t-303 -102.5z" />
    <glyph glyph-name="Jcircumflex.salt" horiz-adv-x="1177" 
d="M791 1642h-68l270 283h105l184 -283h-70l-153 238h-41zM416 -39q-170 0 -262 111t-64 282l41 271h66l-43 -279q-23 -141 53.5 -232t218.5 -91q155 0 251.5 84.5t121.5 238.5l182 1149h66l-181 -1141q-31 -188 -147 -290.5t-303 -102.5z" />
    <glyph glyph-name="P.salt" horiz-adv-x="1247" 
d="M213 0h-66l238 1499h526q175 0 273.5 -103t72.5 -266l-2 -20q-29 -180 -150.5 -274.5t-313.5 -94.5h-461zM905 1438h-465l-100 -635h465q160 0 261 81.5t126 235.5q22 139 -59 228.5t-228 89.5z" />
    <glyph glyph-name="Q.salt" horiz-adv-x="1785" 
d="M768 -33q-163 0 -294 58t-213 160t-115 245.5t-7 308.5l4 25q59 366 284.5 567t588.5 201q217 0 372.5 -99t222.5 -274t31 -395l-4 -27q-72 -445 -374 -639l133 -229h-74l-115 199q-188 -101 -440 -101zM778 29q230 0 400 92l-273 469h74l254 -436q276 184 342 596
q33 205 -26.5 369t-201 257.5t-341.5 93.5q-334 0 -539 -188.5t-260 -531.5q-25 -154 4 -287t103 -229t194 -150.5t270 -54.5z" />
    <glyph glyph-name="R.salt" horiz-adv-x="1398" 
d="M213 0h-66l238 1499h539q176 0 274 -104t72 -269l-2 -20q-26 -166 -132.5 -261.5t-273.5 -109.5l291 -735h-72l-290 733h-461zM918 1438h-478l-102 -643h477q161 0 261.5 82.5t125.5 238.5q23 141 -57 231.5t-227 90.5z" />
    <glyph glyph-name="Racute.salt" horiz-adv-x="1398" 
d="M811 1642h-72l273 283h75zM213 0h-66l238 1499h539q176 0 274 -104t72 -269l-2 -20q-26 -166 -132.5 -261.5t-273.5 -109.5l291 -735h-72l-290 733h-461zM918 1438h-478l-102 -643h477q161 0 261.5 82.5t125.5 238.5q23 141 -57 231.5t-227 90.5z" />
    <glyph glyph-name="Rcaron.salt" horiz-adv-x="1398" 
d="M842 1642h-105l-174 283h70l143 -237h41l217 237h68zM213 0h-66l238 1499h539q176 0 274 -104t72 -269l-2 -20q-26 -166 -132.5 -261.5t-273.5 -109.5l291 -735h-72l-290 733h-461zM918 1438h-478l-102 -643h477q161 0 261.5 82.5t125.5 238.5q23 141 -57 231.5
t-227 90.5z" />
    <glyph glyph-name="Rcommaaccent.salt" horiz-adv-x="1398" 
d="M213 0h-66l238 1499h539q176 0 274 -104t72 -269l-2 -20q-26 -166 -132.5 -261.5t-273.5 -109.5l291 -735h-72l-290 733h-461zM918 1438h-478l-102 -643h477q161 0 261.5 82.5t125.5 238.5q23 141 -57 231.5t-227 90.5zM604 -524h-16l8 49h16q67 0 108 47.5t58 148.5
l6 43q-24 -34 -65 -34q-31 0 -47 20t-10 55q5 33 29.5 54.5t60.5 21.5q49 0 71.5 -36.5t10.5 -110.5l-3 -8q-39 -250 -227 -250z" />
    <glyph glyph-name="idotaccent" horiz-adv-x="573" 
d="M326 1339q-36 0 -51.5 19t-10.5 51q5 31 27 50.5t57 19.5t52 -19.5t12 -50.5q-5 -32 -27.5 -51t-58.5 -19zM264 0h-65l157 1004h-184l10 61h250z" />
    <glyph glyph-name="f.salt" horiz-adv-x="729" 
d="M211 0h-66l160 1004h-176l8 57h176l37 229q17 109 84 169.5t174 60.5q95 0 146.5 -62.5t36.5 -159.5h-62q11 69 -25.5 114.5t-105.5 45.5q-75 0 -122 -42.5t-58 -117.5l-37 -237h358l-8 -57h-360z" />
    <glyph glyph-name="l.salt" horiz-adv-x="575" 
d="M358 -12h-114q-74 0 -113 52.5t-27 131.5l211 1323h66l-211 -1331q-8 -49 12.5 -82t63.5 -33h123z" />
    <glyph glyph-name="lacute.salt" horiz-adv-x="575" 
d="M358 1642h-71l272 283h76zM358 -12h-114q-74 0 -113 52.5t-27 131.5l211 1323h66l-211 -1331q-8 -49 12.5 -82t63.5 -33h123z" />
    <glyph glyph-name="lcaron.salt" horiz-adv-x="575" 
d="M578 1208h-62l72 455h65zM358 -12h-114q-74 0 -113 52.5t-27 131.5l211 1323h66l-211 -1331q-8 -49 12.5 -82t63.5 -33h123z" />
    <glyph glyph-name="lcommaaccent.salt" horiz-adv-x="575" 
d="M358 -12h-114q-74 0 -113 52.5t-27 131.5l211 1323h66l-211 -1331q-8 -49 12.5 -82t63.5 -33h123zM459 -115q99 0 73 -164v-8q-21 -126 -77 -183.5t-146 -57.5h-8l8 49h8q67 0 106 44t54 144l8 49q-24 -24 -57 -24q-31 0 -47 20.5t-10 55.5q5 33 28.5 54t59.5 21z" />
    <glyph glyph-name="lslash.salt" horiz-adv-x="577" 
d="M358 -12h-114q-74 0 -113 52.5t-27 131.5l72 455l-160 -88l11 63l159 88l129 805h66l-121 -764l154 84l-11 -63l-153 -84l-80 -504q-8 -49 12.5 -82t63.5 -33h123z" />
    <glyph glyph-name="r.salt" horiz-adv-x="845" 
d="M201 0h-66l168 1065h53l-30 -186q95 194 333 194h226l-8 -61h-238q-135 0 -218.5 -72.5t-105.5 -206.5z" />
    <glyph glyph-name="racute.salt" horiz-adv-x="847" 
d="M551 1253h-66l232 377h69zM201 0h-66l168 1065h53l-30 -186q95 194 333 194h226l-8 -61h-238q-135 0 -218.5 -72.5t-105.5 -206.5z" />
    <glyph glyph-name="rcaron.salt" horiz-adv-x="847" 
d="M588 1253h-99l-153 377h65l136 -332h16l233 332h66zM201 0h-66l168 1065h53l-30 -186q95 194 333 194h226l-8 -61h-238q-135 0 -218.5 -72.5t-105.5 -206.5z" />
    <glyph glyph-name="rcommaaccent.salt" horiz-adv-x="847" 
d="M201 0h-66l168 1065h53l-30 -186q95 194 333 194h226l-8 -61h-238q-135 0 -218.5 -72.5t-105.5 -206.5zM379 -115q100 0 74 -164v-8q-40 -241 -224 -241h-8l8 49h9q66 0 105 44t54 144l9 49q-24 -24 -58 -24q-31 0 -47 20.5t-10 55.5q5 33 28.5 54t59.5 21z" />
    <glyph glyph-name="t.salt" horiz-adv-x="925" 
d="M428 -29q-128 0 -194 87.5t-44 220.5l115 729h-205l11 57h204l56 348h65l-55 -348h446l-10 -57h-446l-117 -738q-17 -102 34 -169.5t150 -67.5q109 0 177 62.5t85 174.5h62q-24 -142 -109.5 -220.5t-224.5 -78.5z" />
    <glyph glyph-name="tbar.salt" horiz-adv-x="925" 
d="M428 -29q-128 0 -194 87.5t-44 220.5l46 284h-132l9 58h131l61 387h-205l11 57h204l56 348h65l-55 -348h446l-10 -57h-446l-62 -387h443l-9 -58h-442l-47 -293q-17 -102 34 -169.5t150 -67.5q109 0 177 62.5t85 174.5h62q-24 -142 -109.5 -220.5t-224.5 -78.5z" />
    <glyph glyph-name="tcaron.salt" horiz-adv-x="925" 
d="M662 1298h-62l72 455h65zM428 -29q-128 0 -194 87.5t-44 220.5l115 729h-205l11 57h204l56 348h65l-55 -348h446l-10 -57h-446l-117 -738q-17 -102 34 -169.5t150 -67.5q109 0 177 62.5t85 174.5h62q-24 -142 -109.5 -220.5t-224.5 -78.5z" />
    <glyph glyph-name="tcedilla.salt" horiz-adv-x="925" 
d="M362 -455q-72 0 -135 17l11 57q62 -16 133 -16q144 0 161 106q6 47 -22 75t-96 28h-54l25 161q-107 15 -161 99.5t-34 206.5l115 729h-205l11 57h204l56 348h65l-55 -348h446l-10 -57h-446l-117 -738q-17 -102 34 -169.5t150 -67.5q109 0 177 62.5t85 174.5h62
q-24 -141 -108 -220t-216 -79l-16 -106q94 0 138.5 -43.5t33.5 -112.5q-12 -77 -73 -120.5t-159 -43.5z" />
    <glyph glyph-name="tcommaaccent.salt" horiz-adv-x="925" 
d="M428 -29q-128 0 -194 87.5t-44 220.5l115 729h-205l11 57h204l56 348h65l-55 -348h446l-10 -57h-446l-117 -738q-17 -102 34 -169.5t150 -67.5q109 0 177 62.5t85 174.5h62q-24 -142 -109.5 -220.5t-224.5 -78.5zM420 -115q100 0 74 -164v-8q-40 -241 -224 -241h-8l8 49
h9q66 0 105 44t54 144l8 49q-24 -24 -57 -24q-31 0 -47 20.5t-10 55.5q5 33 28.5 54t59.5 21z" />
    <glyph glyph-name="u.salt" horiz-adv-x="1245" 
d="M532 -33q-185 0 -284 123t-68 311l105 664h65l-104 -668q-26 -160 56.5 -264t240.5 -104q172 0 278.5 96.5t136.5 271.5l105 668h65l-104 -664q-34 -207 -161 -320.5t-331 -113.5z" />
    <glyph glyph-name="uacute.salt" horiz-adv-x="1245" 
d="M707 1253h-66l231 377h70zM532 -33q-185 0 -284 123t-68 311l105 664h65l-104 -668q-26 -160 56.5 -264t240.5 -104q172 0 278.5 96.5t136.5 271.5l105 668h65l-104 -664q-34 -207 -161 -320.5t-331 -113.5z" />
    <glyph glyph-name="ubreve.salt" horiz-adv-x="1245" 
d="M690 1245q-251 0 -203 385h62q-16 -169 16.5 -250.5t132.5 -81.5q102 0 161.5 82t94.5 250h62q-72 -385 -326 -385zM532 -33q-185 0 -284 123t-68 311l105 664h65l-104 -668q-26 -160 56.5 -264t240.5 -104q172 0 278.5 96.5t136.5 271.5l105 668h65l-104 -664
q-34 -207 -161 -320.5t-331 -113.5z" />
    <glyph glyph-name="ucircumflex.salt" horiz-adv-x="1245" 
d="M489 1253h-65l276 377h101l160 -377h-64l-143 332h-17zM532 -33q-185 0 -284 123t-68 311l105 664h65l-104 -668q-26 -160 56.5 -264t240.5 -104q172 0 278.5 96.5t136.5 271.5l105 668h65l-104 -664q-34 -207 -161 -320.5t-331 -113.5z" />
    <glyph glyph-name="udieresis.salt" horiz-adv-x="1245" 
d="M522 1339q-35 0 -50.5 19t-10.5 51q5 31 27 50.5t57 19.5t51.5 -19.5t11.5 -50.5q-5 -32 -27.5 -51t-58.5 -19zM911 1339q-35 0 -50.5 19t-10.5 51q5 31 27 50.5t57 19.5t51.5 -19.5t11.5 -50.5q-5 -32 -27.5 -51t-58.5 -19zM532 -33q-185 0 -284 123t-68 311l105 664h65
l-104 -668q-26 -160 56.5 -264t240.5 -104q172 0 278.5 96.5t136.5 271.5l105 668h65l-104 -664q-34 -207 -161 -320.5t-331 -113.5z" />
    <glyph glyph-name="ugrave.salt" horiz-adv-x="1245" 
d="M737 1253h-65l-137 377h69zM532 -33q-185 0 -284 123t-68 311l105 664h65l-104 -668q-26 -160 56.5 -264t240.5 -104q172 0 278.5 96.5t136.5 271.5l105 668h65l-104 -664q-34 -207 -161 -320.5t-331 -113.5z" />
    <glyph glyph-name="uhungarumlaut.salt" horiz-adv-x="1245" 
d="M862 1253h-61l196 377h70zM569 1253h-61l197 377h69zM532 -33q-185 0 -284 123t-68 311l105 664h65l-104 -668q-26 -160 56.5 -264t240.5 -104q172 0 278.5 96.5t136.5 271.5l105 668h65l-104 -664q-34 -207 -161 -320.5t-331 -113.5z" />
    <glyph glyph-name="umacron.salt" horiz-adv-x="1245" 
d="M961 1393h-463l8 57h463zM532 -33q-185 0 -284 123t-68 311l105 664h65l-104 -668q-26 -160 56.5 -264t240.5 -104q172 0 278.5 96.5t136.5 271.5l105 668h65l-104 -664q-34 -207 -161 -320.5t-331 -113.5z" />
    <glyph glyph-name="uogonek.salt" horiz-adv-x="1245" 
d="M532 -33q-185 0 -284 123t-68 311l105 664h65l-104 -668q-26 -160 56.5 -264t240.5 -104q172 0 278.5 96.5t136.5 271.5l105 668h65l-104 -664q-40 -240 -201 -352l19 -35l-54 -39q-161 -120 -184 -258q-10 -67 20 -100t89 -33q39 0 94 19l-10 -58q-47 -18 -92 -18
q-82 0 -126.5 50t-31.5 140q27 163 217 297q-100 -47 -232 -47z" />
    <glyph glyph-name="uring.salt" horiz-adv-x="1245" 
d="M688 1233q-94 0 -144 60.5t-36 148.5t83 148.5t163 60.5q95 0 144.5 -60.5t35.5 -148.5t-82.5 -148.5t-163.5 -60.5zM696 1286q72 0 121 43.5t60 112.5t-24.5 112t-107.5 43q-71 0 -120 -43.5t-60 -111.5q-11 -69 24.5 -112.5t106.5 -43.5zM532 -33q-185 0 -284 123
t-68 311l105 664h65l-104 -668q-26 -160 56.5 -264t240.5 -104q172 0 278.5 96.5t136.5 271.5l105 668h65l-104 -664q-34 -207 -161 -320.5t-331 -113.5z" />
    <glyph glyph-name="utilde.salt" horiz-adv-x="1245" 
d="M844 1339q-40 0 -73 16.5t-52 37t-48 37t-61 16.5q-74 0 -143 -90l-39 35q81 112 193 112q41 0 74.5 -16.5t53 -36.5t48 -36.5t59.5 -16.5q71 0 143 90l37 -35q-82 -113 -192 -113zM532 -33q-185 0 -284 123t-68 311l105 664h65l-104 -668q-26 -160 56.5 -264t240.5 -104
q172 0 278.5 96.5t136.5 271.5l105 668h65l-104 -664q-34 -207 -161 -320.5t-331 -113.5z" />
    <glyph glyph-name="f_f.salt" horiz-adv-x="1409" 
d="M211 0h-66l160 1004h-178l10 57h176l37 233q15 107 80 166.5t170 59.5q93 0 142 -61.5t34 -155.5h-61q11 68 -23 111.5t-100 43.5q-73 0 -118.5 -40.5t-57.5 -114.5l-39 -242h614l39 242q19 109 85.5 169t172.5 60q95 0 146 -62t36 -159h-61q12 69 -25 114t-106 45
q-74 0 -121 -41.5t-59 -117.5l-39 -250h360l-10 -57h-360l-158 -1004h-66l158 1004h-614z" />
    <glyph glyph-name="f_f_i.salt" horiz-adv-x="1939" 
d="M211 0h-66l160 1008h-176l8 57h176l37 229q15 107 80 166.5t170 59.5q93 0 142 -61.5t34 -155.5h-61q11 68 -23 111.5t-100 43.5q-73 0 -118.5 -40.5t-57.5 -114.5l-37 -238h614l37 238q19 109 85.5 169t172.5 60q95 0 146 -62t36 -159h-61q12 69 -25 114t-106 45
q-74 0 -121 -41.5t-59 -117.5l-39 -246h340l-8 -57h-340l-160 -1008h-66l158 1008h-614zM1729 1315q-29 0 -45.5 19t-12.5 48q5 32 25.5 50t54.5 18q31 0 47.5 -19.5t11.5 -48.5q-4 -32 -25.5 -49.5t-55.5 -17.5zM1599 0h-65l158 1004h-172l10 61h237z" />
    <glyph glyph-name="f_f_j.salt" horiz-adv-x="1968" 
d="M211 0h-66l160 1008h-176l8 57h176l37 229q15 107 80 166.5t170 59.5q93 0 142 -61.5t34 -155.5h-61q11 68 -23 111.5t-100 43.5q-73 0 -118.5 -40.5t-57.5 -114.5l-37 -238h614l37 238q19 109 85.5 169t172.5 60q95 0 146 -62t36 -159h-61q12 69 -25 114t-106 45
q-74 0 -121 -41.5t-59 -117.5l-39 -246h360l-8 -57h-360l-160 -1008h-66l158 1008h-614zM1761 1335q-31 0 -47.5 19.5t-11.5 48.5q4 32 25 49.5t55 17.5q31 0 47.5 -19t11.5 -48q-5 -32 -25.5 -50t-54.5 -18zM1303 -414h-117l10 62h141q86 0 136.5 56t66.5 153l180 1147
h-176l10 61h242l-186 -1180q-23 -140 -100 -219.5t-207 -79.5z" />
    <glyph glyph-name="f_f_l.salt" horiz-adv-x="1951" 
d="M211 0h-66l160 1004h-178l10 57h176l37 233q15 107 80 166.5t170 59.5q93 0 142 -61.5t34 -155.5h-61q11 68 -23 111.5t-100 43.5q-73 0 -118.5 -40.5t-57.5 -114.5l-39 -242h614l39 242q17 109 82.5 169t171.5 60q93 0 143 -62.5t35 -158.5h-61q11 69 -24.5 114
t-102.5 45q-73 0 -118.5 -41.5t-57.5 -117.5l-39 -250h348l-10 -57h-348l-158 -1004h-66l158 1004h-614zM1735 -12h-115q-74 0 -112.5 52.5t-26.5 131.5l209 1323h65l-211 -1331q-8 -50 13 -82.5t65 -32.5h123z" />
    <glyph glyph-name="f_j.salt" horiz-adv-x="1288" 
d="M209 0h-66l160 1008h-176l10 57h176l35 225q19 109 85.5 169.5t172.5 60.5q95 0 146 -62.5t36 -159.5h-61q11 69 -25.5 114.5t-105.5 45.5q-75 0 -122 -42.5t-58 -117.5l-37 -233h348l-10 -57h-348zM1081 1335q-31 0 -47.5 19.5t-11.5 48.5q4 32 25 49.5t55 17.5
q31 0 47.5 -19t11.5 -48q-5 -32 -25.5 -50t-54.5 -18zM621 -414h-117l10 62h141q86 0 136.5 56t66.5 153l182 1147h-176l10 61h242l-188 -1180q-22 -141 -99.5 -220t-207.5 -79z" />
    <glyph glyph-name="fi.salt" horiz-adv-x="1257" 
d="M209 0h-66l160 1008h-176l10 57h174l37 229q19 107 84.5 166.5t169.5 59.5q93 0 143 -61.5t35 -155.5h-61q11 68 -25 111.5t-102 43.5q-73 0 -119 -40.5t-57 -114.5l-37 -238h340l-10 -57h-340zM1049 1315q-31 0 -48 19t-12 48q5 32 25.5 50t54.5 18q31 0 47.5 -19.5
t11.5 -48.5q-9 -67 -79 -67zM918 0h-66l160 1004h-172l10 61h237z" />
    <glyph glyph-name="fl.salt" horiz-adv-x="1271" 
d="M211 0h-66l160 1004h-176l8 57h176l37 233q19 107 84.5 166.5t169.5 59.5q93 0 143 -61.5t35 -155.5h-61q11 68 -25 111.5t-102 43.5q-73 0 -119 -40.5t-57 -114.5l-39 -242h348l-8 -57h-348zM1055 -12h-115q-74 0 -112.5 52.5t-24.5 131.5l209 1323h65l-211 -1331
q-8 -49 12.5 -82t63.5 -33h123z" />
    <glyph glyph-name="seven.salt" horiz-adv-x="1052" 
d="M373 0h-66l47 299q62 386 215.5 646t458.5 458l-4 31h-866l10 61h934l-21 -123q-298 -198 -449.5 -450.5t-211.5 -622.5z" />
    <glyph glyph-name="zero.tnum" horiz-adv-x="1384" 
d="M565 -33q-226 0 -323.5 189.5t-38.5 554.5l10 69q60 374 218.5 563t381.5 189t323 -189t40 -563l-11 -69q-59 -365 -216.5 -554.5t-383.5 -189.5zM575 29q417 0 531 719q112 722 -303 722q-95 0 -175.5 -39.5t-150 -123t-121.5 -225t-82 -334.5q-114 -719 301 -719z" />
    <glyph glyph-name="one.tnum" horiz-adv-x="1384" 
d="M969 0h-707l10 61h320l217 1373h-322l11 61h387l-228 -1434h322z" />
    <glyph glyph-name="two.tnum" horiz-adv-x="1384" 
d="M1071 0h-930l31 193q19 125 94.5 201.5t212.5 137.5l344 152q138 62 214.5 152t99.5 231q28 176 -62.5 289.5t-261.5 113.5q-187 0 -303.5 -105.5t-147.5 -297.5h-65q36 221 172 343t354 122q197 0 303 -128t74 -325l-4 -24q-24 -155 -113 -253.5t-249 -170.5l-347 -154
q-110 -48 -171.5 -111.5t-77.5 -164.5l-23 -140h866z" />
    <glyph glyph-name="three.tnum" horiz-adv-x="1384" 
d="M557 -33q-209 0 -321 131.5t-80 337.5h65q-28 -178 68.5 -292.5t275.5 -114.5q196 0 319 103t154 294q28 177 -68 291t-274 114q-121 0 -219 -57l-39 82l725 553l-8 25h-784l10 61h850l-19 -119l-667 -510q69 27 166 27q204 0 315.5 -128t79.5 -327l-4 -24
q-33 -216 -176.5 -331.5t-368.5 -115.5z" />
    <glyph glyph-name="four.tnum" horiz-adv-x="1384" 
d="M909 0h-65l63 410h-778l16 94l813 1003l39 -37l-798 -983l12 -20h707l90 573h65l-90 -573h213l-10 -57h-213z" />
    <glyph glyph-name="five.tnum" horiz-adv-x="1384" 
d="M588 -33q-213 0 -328.5 133t-83.5 342h66q-28 -181 71.5 -297t282.5 -116q201 0 327.5 107.5t157.5 305.5q29 182 -70.5 298t-283.5 116q-103 0 -182 -30t-162 -99h-61l200 768h660l-11 -61h-606l-164 -631q79 59 157.5 87t178.5 28q211 0 327.5 -130t84.5 -333l-4 -25
q-35 -224 -180.5 -343.5t-376.5 -119.5z" />
    <glyph glyph-name="six.tnum" horiz-adv-x="1384" 
d="M602 -33q-97 0 -174 35t-126 98t-78 149.5t-31 189.5t14 218l8 62q29 179 90 321t155.5 246.5t229.5 160.5t303 56q98 0 221 -18l-10 -62q-133 19 -227 19q-153 0 -276 -52.5t-208.5 -150t-140 -228.5t-80.5 -296l-10 -70q66 153 193 235.5t309 82.5q213 0 327 -138.5
t80 -353.5q-37 -240 -184.5 -372t-384.5 -132zM612 29q205 0 333 116.5t161 325.5q31 188 -68 309t-286 121q-206 0 -335 -113.5t-161 -320.5q-31 -191 68.5 -314.5t287.5 -123.5z" />
    <glyph glyph-name="seven.tnum" horiz-adv-x="1384" 
d="M406 0h-68l846 1409l-10 25h-748l-43 -279h-61l43 279l10 61h885l-17 -96z" />
    <glyph glyph-name="eight.tnum" horiz-adv-x="1384" 
d="M565 -33q-142 0 -247.5 52.5t-155.5 152t-29 227.5q53 339 383 394l4 20q-122 38 -177.5 127t-35.5 215q30 188 163.5 282.5t342.5 94.5q193 0 303.5 -103.5t83.5 -273.5q-21 -136 -100.5 -218.5t-218.5 -123.5l-4 -20q147 -26 215.5 -132t44.5 -262q-34 -214 -185 -323
t-387 -109zM702 831q179 0 293 80.5t140 241.5q23 143 -72 230t-260 87q-178 0 -291.5 -79t-138.5 -238q-23 -145 71 -233.5t258 -88.5zM575 29q205 0 335.5 92.5t160.5 277.5q26 168 -81.5 271.5t-295.5 103.5q-205 0 -335.5 -94.5t-159.5 -280.5q-27 -166 80 -268
t296 -102z" />
    <glyph glyph-name="nine.tnum" horiz-adv-x="1384" 
d="M770 1528q97 0 174 -35t126 -98t78 -149.5t31 -189.5t-14 -218l-8 -62q-29 -179 -90 -321t-155.5 -246.5t-229.5 -160.5t-303 -56q-98 0 -221 18l10 62q133 -19 227 -19q153 0 276 52.5t208.5 150t140 228.5t80.5 296l10 70q-66 -153 -193 -235.5t-309 -82.5
q-213 0 -327 138.5t-80 353.5q37 240 184.5 372t384.5 132zM760 1466q-205 0 -333 -116.5t-161 -325.5q-31 -188 68.5 -309t286.5 -121q206 0 334.5 113.5t160.5 320.5q31 191 -68.5 314.5t-287.5 123.5z" />
    <glyph glyph-name="seven.tnum.salt" horiz-adv-x="1384" 
d="M530 0h-65l47 299q62 387 216 647.5t460 456.5l-4 31h-871l11 61h938l-21 -123q-298 -198 -450.5 -451t-212.5 -622z" />
    <glyph glyph-name="zero.dnom" horiz-adv-x="882" 
d="M330 -18q-160 0 -225 108.5t-35 298.5l6 43q31 194 132.5 303t258.5 109q159 0 226 -109.5t36 -302.5l-6 -43q-30 -189 -131 -298t-262 -109zM338 29q138 0 220.5 94.5t113.5 288.5q62 385 -213 385q-274 0 -336 -385q-60 -383 215 -383z" />
    <glyph glyph-name="one.dnom" horiz-adv-x="512" 
d="M221 0h-49l125 778h-205l6 45h254z" />
    <glyph glyph-name="two.dnom" horiz-adv-x="745" 
d="M559 0h-547l17 113q11 67 49.5 108t132.5 80l195 82q154 65 176 203q15 98 -35.5 154.5t-149.5 56.5q-98 0 -166.5 -57t-83.5 -154h-51q17 114 102.5 186t207.5 72q124 0 185.5 -70.5t43.5 -179.5l-2 -14q-11 -82 -69.5 -143t-147.5 -97l-197 -82q-72 -30 -99.5 -60
t-35.5 -81l-12 -72h493z" />
    <glyph glyph-name="three.dnom" horiz-adv-x="739" 
d="M252 -18q-130 0 -196 73t-48 185h51q-15 -97 39.5 -154t161.5 -57q105 0 178 57t88 150q14 96 -39 153t-159 57q-70 0 -125 -30l-25 57l412 289l-6 14h-459l8 47h506l-14 -88l-361 -252q35 9 72 9q127 0 192 -71.5t47 -176.5l-2 -15q-16 -103 -103.5 -175t-217.5 -72z
" />
    <glyph glyph-name="four.dnom" horiz-adv-x="755" 
d="M477 0h-51l35 219h-453l10 70l467 542l35 -28l-454 -529l6 -12h395l49 311h51l-49 -311h121l-6 -43h-121z" />
    <glyph glyph-name="five.dnom" horiz-adv-x="745" 
d="M270 -18q-136 0 -199.5 76.5t-47.5 187.5h51q-14 -95 38.5 -156t166.5 -61q112 0 184 61t86 156q16 95 -37 156t-166 61q-112 0 -196 -66h-48l113 426h397l-8 -47h-354l-86 -323q83 57 188 57q137 0 201.5 -75.5t48.5 -182.5l-2 -14q-16 -105 -105 -180.5t-225 -75.5z
" />
    <glyph glyph-name="six.dnom" horiz-adv-x="790" 
d="M307 -18q-151 0 -212 98t-32 285l7 38q70 424 450 424q63 0 131 -10l-6 -45q-82 10 -135 10q-334 0 -395 -383l-6 -43q39 80 113.5 126t174.5 46q133 0 197.5 -77.5t44.5 -192.5q-18 -118 -106.5 -197t-225.5 -79zM313 27q114 0 187.5 65.5t89.5 165.5q16 98 -36.5 160.5
t-166.5 62.5q-115 0 -189 -62t-89 -163q-9 -60 8 -110.5t68 -84.5t128 -34z" />
    <glyph glyph-name="seven.dnom" horiz-adv-x="679" 
d="M150 0h-54l488 764l-4 12h-435l-22 -147h-45l22 147l9 47h530l-12 -75z" />
    <glyph glyph-name="eight.dnom" horiz-adv-x="759" 
d="M268 -18q-135 0 -204.5 69.5t-53.5 171.5q13 82 75 139.5t138 73.5l2 10q-61 20 -96 68t-25 117q15 94 99.5 152.5t202.5 58.5q119 0 182.5 -58.5t48.5 -152.5q-10 -71 -59.5 -117.5t-116.5 -67.5l-2 -10q71 -16 115.5 -73.5t31.5 -139.5q-15 -103 -108.5 -172
t-229.5 -69zM344 463q98 0 164 45t78 123q13 77 -38.5 121.5t-150.5 44.5q-97 0 -162.5 -44.5t-78.5 -121.5q-12 -80 40 -124t148 -44zM276 29q117 0 192 55t87 139q12 86 -44.5 141.5t-172.5 55.5q-115 0 -190 -55.5t-87 -141.5q-14 -86 42.5 -140t172.5 -54z" />
    <glyph glyph-name="nine.dnom" horiz-adv-x="790" 
d="M401 842q151 0 211.5 -97.5t30.5 -285.5l-6 -39q-67 -424 -451 -424q-68 0 -131 8l8 47q68 -10 136 -10q335 0 393 381l6 41q-41 -78 -115.5 -123t-173.5 -45q-133 0 -196 76.5t-45 193.5q20 119 108 198t225 79zM393 795q-114 0 -187 -65.5t-89 -164.5q-14 -99 37 -162
t165 -63q115 0 189 62.5t92 164.5q13 93 -39.5 160.5t-167.5 67.5z" />
    <glyph glyph-name="zero.numr" horiz-adv-x="882" 
d="M412 504q-160 0 -225 108.5t-35 298.5l6 43q31 194 132.5 303t258.5 109q159 0 226 -109.5t36 -302.5l-6 -43q-30 -189 -131 -298t-262 -109zM420 551q138 0 220.5 94.5t113.5 288.5q62 385 -213 385q-274 0 -336 -385q-60 -383 215 -383z" />
    <glyph glyph-name="one.numr" horiz-adv-x="512" 
d="M303 522h-49l125 778h-205l6 46h254z" />
    <glyph glyph-name="two.numr" horiz-adv-x="745" 
d="M641 522h-547l17 113q11 67 49.5 108t132.5 80l194 82q155 66 177 203q15 98 -35.5 154.5t-149.5 56.5q-98 0 -166.5 -57t-83.5 -154h-51q17 114 102 186t207 72q124 0 186 -70.5t44 -179.5l-2 -14q-11 -82 -69.5 -143t-147.5 -97l-197 -82q-72 -30 -99.5 -60t-35.5 -81
l-12 -72h493z" />
    <glyph glyph-name="three.numr" horiz-adv-x="739" 
d="M334 504q-130 0 -196 73t-48 185h51q-15 -97 39.5 -154t161.5 -57q105 0 178 57t88 150q14 96 -39 153.5t-159 57.5q-68 0 -125 -31l-25 57l412 289l-6 14h-459l8 48h506l-14 -89l-361 -251q31 8 72 8q127 0 192 -71.5t47 -176.5l-2 -14q-16 -103 -103.5 -175.5
t-217.5 -72.5z" />
    <glyph glyph-name="four.numr" horiz-adv-x="755" 
d="M559 522h-51l35 219h-453l10 70l467 543l35 -29l-455 -528l7 -13h395l49 312h51l-49 -312h121l-6 -43h-121z" />
    <glyph glyph-name="five.numr" horiz-adv-x="745" 
d="M352 504q-136 0 -200 76.5t-48 187.5h52q-14 -95 38 -156t166 -61q112 0 184.5 61t86.5 156q16 95 -37 156t-166 61q-114 0 -197 -65h-47l113 426h397l-8 -48h-354l-86 -323q83 57 188 57q137 0 201.5 -75.5t48.5 -182.5l-2 -14q-16 -105 -105 -180.5t-225 -75.5z" />
    <glyph glyph-name="six.numr" horiz-adv-x="790" 
d="M389 504q-151 0 -212 98t-32 285l7 39q70 424 450 424q56 0 131 -11l-6 -45q-90 11 -135 11q-334 0 -395 -383l-7 -43q39 80 114 126t175 46q133 0 197.5 -78t44.5 -193q-18 -118 -106.5 -197t-225.5 -79zM395 549q114 0 187.5 65.5t89.5 165.5q16 98 -36.5 161
t-166.5 63t-189 -62.5t-90 -163.5q-9 -60 8.5 -110.5t68.5 -84.5t128 -34z" />
    <glyph glyph-name="seven.numr" horiz-adv-x="679" 
d="M231 522h-53l488 764l-4 12h-435l-22 -147h-45l22 147l8 48h531l-12 -76z" />
    <glyph glyph-name="eight.numr" horiz-adv-x="759" 
d="M350 504q-135 0 -204.5 69.5t-53.5 171.5q13 82 75 139.5t138 73.5l2 11q-61 21 -96 68t-25 116q15 95 99 153t202 58q120 0 183.5 -58.5t48.5 -152.5q-10 -71 -59.5 -116.5t-116.5 -67.5l-2 -11q71 -16 115.5 -73.5t31.5 -139.5q-15 -103 -108.5 -172t-229.5 -69z
M426 985q98 0 164 45t78 123q13 77 -38.5 121.5t-150.5 44.5q-97 0 -162.5 -44.5t-78.5 -121.5q-12 -80 40 -124t148 -44zM358 551q117 0 192 55t87 139q12 86 -44.5 141.5t-172.5 55.5q-115 0 -190 -55.5t-87 -141.5q-14 -86 42.5 -140t172.5 -54z" />
    <glyph glyph-name="nine.numr" horiz-adv-x="790" 
d="M483 1364q151 0 211.5 -97.5t30.5 -285.5l-6 -39q-67 -424 -451 -424q-68 0 -131 8l8 47q68 -10 136 -10q335 0 393 381l6 41q-41 -78 -115.5 -123t-173.5 -45q-133 0 -196 76.5t-45 193.5q20 119 108 198t225 79zM475 1317q-114 0 -187 -65.5t-89 -164.5
q-14 -99 37 -162t165 -63q115 0 189 63t92 165q6 44 -3 83.5t-32.5 72t-68 52t-103.5 19.5z" />
    <glyph glyph-name="exclamdown.case" horiz-adv-x="524" 
d="M430 1495l-16 -111h-99l17 111h98zM358 1147l-180 -1147h-65l180 1147h65z" />
    <glyph glyph-name="questiondown.case" horiz-adv-x="1105" 
d="M690 1495h98l-16 -111h-98zM651 1147h66l-60 -377h-73q-177 0 -288 -97.5t-140 -275.5q-26 -162 59 -267t244 -105q183 0 294.5 106t141.5 295h61q-34 -220 -164.5 -341.5t-342.5 -121.5q-187 0 -287.5 119.5t-71.5 304.5l2 21q32 204 167 313.5t343 109.5z" />
    <glyph glyph-name="periodcentered.case" horiz-adv-x="512" 
d="M410 709h-99l17 110h98z" />
    <glyph glyph-name="asterisk.part" horiz-adv-x="378" 
d="M383 741l-45 -61l-297 203l25 159l362 203l25 -61l-330 -172l-17 -99z" />
    <glyph glyph-name="parenleft.case" horiz-adv-x="729" 
d="M498 -242h-74q-47 65 -84.5 128t-70.5 135.5t-54.5 149t-33 161.5t-9.5 180.5t18 198.5q24 151 73.5 286t122.5 250.5t154 210.5t185 193h74q-116 -113 -199 -211t-155.5 -212.5t-119 -242t-69.5 -274.5q-16 -100 -18 -191t9 -173.5t31.5 -157t54.5 -148.5t73.5 -141
t91.5 -142z" />
    <glyph glyph-name="parenright.case" horiz-adv-x="729" 
d="M-106 -242q115 114 198.5 214t155 215.5t118 245t70.5 278.5q16 99 18 189t-9 171t-32 154.5t-55 146.5t-73.5 139t-91.5 140h73q48 -64 85.5 -126t71 -133.5t54.5 -146.5t33 -159t10 -178.5t-18 -196.5q-48 -294 -183.5 -520t-351.5 -433h-73z" />
    <glyph glyph-name="braceleft.case" horiz-adv-x="729" 
d="M440 -242h-28q-309 0 -252 353l61 389q11 77 -18.5 114t-81.5 37l16 107q53 0 95 37.5t53 113.5l63 389q55 353 365 353h28l-10 -58h-29q-123 0 -193.5 -67t-94.5 -219l-60 -373q-13 -93 -60.5 -149.5t-119.5 -71.5l-2 -17q66 -15 96 -71.5t15 -149.5l-60 -373
q-24 -152 26 -219t173 -67h29z" />
    <glyph glyph-name="braceright.case" horiz-adv-x="729" 
d="M-49 -242l6 58h29q123 0 194.5 67t95.5 219l60 373q13 93 61 149.5t119 71.5l2 17q-67 15 -96 71.5t-12 149.5l57 373q24 152 -25 219t-172 67h-28l8 58h29q308 0 251 -353l-59 -389q-13 -76 16.5 -113.5t81.5 -37.5l-16 -107q-53 0 -95 -37.5t-55 -113.5l-61 -389
q-55 -353 -362 -353h-29z" />
    <glyph glyph-name="bracketleft.case" horiz-adv-x="729" 
d="M416 -242h-307l292 1835h-2l11 58h307l-10 -58h-240l-285 -1777h244z" />
    <glyph glyph-name="bracketright.case" horiz-adv-x="729" 
d="M-25 -242l7 58h243l283 1777h-242l8 58h308l-9 -58l-290 -1835h-308z" />
    <glyph glyph-name="hyphen.case" horiz-adv-x="1015" 
d="M877 733h-631l8 51h631z" />
    <glyph glyph-name="endash.case" horiz-adv-x="1011" 
d="M1028 733h-938l10 58h938z" />
    <glyph glyph-name="emdash.case" horiz-adv-x="1806" 
d="M1823 733h-1733l10 58h1733z" />
    <glyph glyph-name="guillemotleft.case" horiz-adv-x="905" 
d="M406 289h-66l-193 426l11 61l325 434h64l-336 -446l-4 -33zM741 289h-65l-193 426l11 61l325 434h64l-336 -446l-4 -33z" />
    <glyph glyph-name="guillemotright.case" horiz-adv-x="905" 
d="M545 1210h65l193 -426l-10 -61l-326 -434h-64l336 446l4 33zM209 1210h65l193 -426l-10 -61l-326 -434h-63l335 446l5 33z" />
    <glyph glyph-name="guilsinglleft.case" horiz-adv-x="569" 
d="M406 289h-66l-193 426l11 61l325 434h64l-336 -446l-4 -33z" />
    <glyph glyph-name="guilsinglright.case" horiz-adv-x="569" 
d="M209 1210h65l193 -426l-10 -61l-326 -434h-63l335 446l5 33z" />
    <glyph glyph-name="cent.tnum" horiz-adv-x="1384" 
d="M623 0h-62l35 221q-140 7 -239 75t-141.5 183.5t-20.5 259.5l4 25q37 238 183.5 370t381.5 140l35 221h61l-35 -221q160 -9 259 -93t114 -235h-65q-15 132 -109 199t-244 67q-216 0 -349 -120.5t-169 -339.5q-32 -204 72.5 -336.5t302.5 -132.5q346 0 457 288h65
q-126 -338 -502 -350z" />
    <glyph glyph-name="currency.tnum" horiz-adv-x="1384" 
d="M643 326q-170 0 -268 106l-211 -176l-33 39l211 176q-82 117 -57 279l4 20q25 164 143 279l-153 176l45 39l153 -177q133 107 303 107q171 0 273 -107l209 177l32 -39l-209 -176q80 -117 56 -279l-4 -20q-25 -161 -144 -277l154 -178l-45 -39l-154 176
q-135 -106 -305 -106zM653 383q161 0 280 109t144 268q25 162 -59 269.5t-246 107.5t-280.5 -107.5t-143.5 -269.5q-25 -159 59.5 -268t245.5 -109z" />
    <glyph glyph-name="dollar.tnum" horiz-adv-x="1384" 
d="M545 -264h-62l43 268q-240 9 -343 128t-72 314h65q-29 -180 69 -280t324 -100q209 0 332 87t148 242q23 138 -57 231t-263 113l-117 13q-174 19 -256.5 111t-58.5 247q26 160 144 266t313 115l30 203h62l-31 -203q102 -5 177 -40.5t116 -93.5t54.5 -131t0.5 -157h-65
q25 158 -55 259.5t-269 101.5q-181 0 -285 -88.5t-127 -231.5q-20 -132 49 -207t220 -90l117 -12q203 -21 297.5 -132.5t68.5 -273.5q-27 -170 -163.5 -277t-362.5 -114z" />
    <glyph glyph-name="Euro.tnum" horiz-adv-x="1384" 
d="M709 -23q-115 0 -204 43.5t-145 122.5t-84 184t-26 232h-199l8 57h195q3 58 12 117l4 29q6 38 15 80h-154l10 57h156q147 619 635 619q191 0 300.5 -110.5t90.5 -291.5h-61q13 155 -81 247.5t-259 92.5q-119 0 -213.5 -40.5t-160.5 -117.5t-110.5 -174.5t-75.5 -224.5
h676l-10 -57h-678q-12 -64 -16 -94q-14 -102 -15 -132h637l-8 -57h-631q-1 -153 40 -267.5t133 -183.5t227 -69q176 0 290 86.5t150 253.5h62q-42 -197 -174 -299.5t-336 -102.5z" />
    <glyph glyph-name="riel-khmer.tnum" horiz-adv-x="1384" 
d="M702 -8h-108q-110 0 -192 28t-126 89.5t-30 148.5q13 84 55.5 143t109 90.5t142.5 45.5t172 14l35 221h-332l8 57h334l10 66q14 83 -53 135q-21 16 -75 53t-85 64q-58 43 -62.5 106.5t40.5 126.5q45 70 109.5 96.5t160.5 26.5q99 0 264 -24l-10 -62q-156 25 -274 25
q-74 0 -122 -17.5t-79 -68.5q-29 -42 -27 -85t39 -73q32 -28 88 -67.5t72 -51.5q97 -72 80 -184l-10 -66h299l-9 -57h-301zM600 53h47l70 436q-84 -1 -147.5 -11.5t-120.5 -35t-92 -71t-46 -113.5q-16 -102 66 -153.5t223 -51.5z" />
    <glyph glyph-name="sterling.tnum" horiz-adv-x="1384" 
d="M1098 0h-1008l8 57h172l101 623h-162l10 57h160l43 273q39 249 171.5 373t342.5 124q143 0 297 -30l-10 -62q-163 31 -303 31q-364 0 -433 -436l-43 -273h500l-10 -57h-498l-100 -623h704l39 250h66z" />
    <glyph glyph-name="yen.tnum" horiz-adv-x="1384" 
d="M612 0h-61l57 356h-434l8 58h434l37 225h-434l8 57h381l-315 799h69l312 -799h43l545 799h67l-549 -799h377l-8 -57h-434l-37 -225h434l-8 -58h-434z" />
    <glyph glyph-name="plus.tnum" horiz-adv-x="1384" 
d="M668 231h-66l72 445h-404l9 57h403l72 445h65l-71 -445h403l-8 -57h-404z" />
    <glyph glyph-name="minus.tnum" horiz-adv-x="1384" 
d="M1178 676h-873l8 57h873z" />
    <glyph glyph-name="multiply.tnum" horiz-adv-x="1384" 
d="M225 326l451 383l-328 385l45 39l328 -385l450 382l33 -38l-450 -383l327 -385l-45 -39l-327 385l-451 -383z" />
    <glyph glyph-name="divide.tnum" horiz-adv-x="1384" 
d="M817 1034h-106l20 119h107zM1145 678h-873l9 57h872zM696 260h-106l18 119h107z" />
    <glyph glyph-name="equal.tnum" horiz-adv-x="1384" 
d="M1174 817h-844l10 57h844zM1124 496h-843l8 57h844z" />
    <glyph glyph-name="caroncomb.alt" 
d="M307 1184h-61l71 454h66z" />
    <glyph glyph-name="dieresiscomb.case" 
d="M197 1704q-34 0 -51 19.5t-11 52.5q5 32 27.5 51.5t56.5 19.5t51.5 -19.5t12.5 -51.5q-6 -34 -29 -53t-57 -19zM618 1704q-34 0 -50.5 19t-10.5 53q5 32 27.5 51.5t56.5 19.5t51.5 -19.5t12.5 -51.5q-6 -34 -29.5 -53t-57.5 -19z" />
    <glyph glyph-name="dotaccentcomb.case" 
d="M197 1704q-34 0 -51 19.5t-11 52.5q5 32 27.5 51.5t56.5 19.5t51.5 -19.5t12.5 -51.5q-6 -34 -29 -53t-57 -19z" />
    <glyph glyph-name="gravecomb.case" 
d="M416 1642h-74l-190 283h77z" />
    <glyph glyph-name="acutecomb.case" 
d="M180 1642h-71l272 283h76z" />
    <glyph glyph-name="hungarumlautcomb.case" 
d="M461 1642h-62l215 283h66zM170 1642h-61l217 283h65z" />
    <glyph glyph-name="circumflexcomb.case" 
d="M176 1642h-67l270 283h104l185 -283h-70l-154 238h-41z" />
    <glyph glyph-name="caroncomb.case" 
d="M430 1642h-104l-174 283h69l144 -237h41l217 237h67z" />
    <glyph glyph-name="brevecomb.case" 
d="M393 1626q-265 0 -241 299h57q-8 -117 36 -181.5t156 -64.5q212 0 271 246h57q-31 -138 -113.5 -218.5t-222.5 -80.5z" />
    <glyph glyph-name="ringcomb.case" 
d="M309 1597q-99 0 -147 61t-35 144q13 84 80.5 144.5t167.5 60.5q99 0 147 -60t35 -145q-13 -83 -81 -144t-167 -61zM317 1651q76 0 124.5 43.5t58.5 107.5q10 65 -24.5 108.5t-110.5 43.5t-123.5 -43.5t-57.5 -108.5q-10 -64 24 -107.5t109 -43.5z" />
    <glyph glyph-name="tildecomb.case" 
d="M567 1700q-38 0 -72 15.5t-54.5 34.5t-51.5 34.5t-65 15.5q-43 0 -83.5 -23t-70.5 -67l-41 29q34 54 90 86.5t117 32.5q39 0 72.5 -16t54 -34.5t51 -34.5t64.5 -16q91 0 151 90l43 -28q-39 -55 -92.5 -87t-112.5 -32z" />
    <glyph glyph-name="macroncomb.case" 
d="M684 1753h-549l8 57h549z" />
    <glyph glyph-name="commaturnedabovecomb.case" 
d="M197 1561q-49 0 -71 37.5t-9 117.5l2 8q18 119 75 176.5t146 57.5h16l-8 -49h-16q-131 0 -160 -180l-8 -54q26 37 67 37q31 0 46.5 -20.5t11.5 -55.5q-5 -33 -30.5 -54t-61.5 -21z" />
    <glyph glyph-name="commaaccentcomb.case" 
d="M-57 -524h-17l8 49h17q67 0 108 47.5t58 148.5l6 43q-24 -34 -66 -34q-31 0 -47 20t-10 55q5 33 29.5 54.5t60.5 21.5q49 0 71.5 -36.5t10.5 -110.5l-2 -8q-39 -250 -227 -250z" />
    <glyph glyph-name="cedillacomb.case" 
d="M72 -475q-88 0 -146 20l8 58q72 -21 148 -21q154 0 174 113q8 50 -25.5 79t-101.5 29h-53l35 217h53l-27 -163q93 0 142 -45.5t38 -116.5q-13 -81 -78 -125.5t-167 -44.5z" />
    <glyph glyph-name="ogonekcomb.case" 
d="M266 -500q-85 0 -132 52.5t-32 144.5q13 87 71 160t157 145l53 39l23 -41l-54 -39q-169 -125 -192 -264q-11 -70 21 -104.5t93 -34.5q46 0 99 18l-11 -57q-49 -19 -96 -19z" />
    <glyph glyph-name="sora.tnum" horiz-adv-x="1384" 
d="M733 1008l-715 -1008h-73l753 1053h-587l8 55h600l51 330h-600l10 57h1262l-10 -57h-601l-51 -330h600l-8 -55h-588l418 -1053h-74z" />
    </font>
</defs>
</svg>
