<?xml version="1.0" standalone="no"?>
<!DOCTYPE svg PUBLIC "-//W3C//DTD SVG 1.1//EN" "http://www.w3.org/Graphics/SVG/1.1/DTD/svg11.dtd" >
<svg xmlns="http://www.w3.org/2000/svg" xmlns:xlink="http://www.w3.org/1999/xlink" version="1.1">
<metadata>
Created by FontForge 20201107 at Mon Sep 30 11:26:23 2024
 By 
Copyright 2019 The Sora Project Authors (https://github.com/sora-xor/sora-font)
</metadata>
<defs>
<font id="Sora-Regular" horiz-adv-x="614" >
  <font-face 
    font-family="Sora"
    font-weight="400"
    font-stretch="normal"
    units-per-em="2048"
    panose-1="0 0 0 0 0 0 0 0 0 0"
    ascent="1638"
    descent="-410"
    x-height="1094"
    cap-height="1495"
    bbox="-236 -582 2597 2417"
    underline-thickness="102"
    underline-position="-255"
    unicode-range="U+000D-FB04"
  />
<missing-glyph horiz-adv-x="1759" 
d="M1575 -86h-1391v1675h1391v-1675zM299 1479v-1454h1161v1454h-1161zM915 483h-127v279h84q90 0 141.5 53.5t51.5 140.5q0 86 -49 139.5t-133 53.5t-135.5 -56.5t-51.5 -146.5h-139q0 144 90.5 237t239.5 93q144 0 231.5 -86.5t87.5 -218.5v-17q0 -122 -75 -203t-213 -96z
M930 205h-156v155h156v-155z" />
    <glyph glyph-name="f_f" unicode="ff" horiz-adv-x="1478" 
d="M406 0h-189v934h-151v147h151v80q0 355 379 355h111v-164h-144q-76 0 -116.5 -42t-40.5 -116v-113h514v68q0 181 95 267.5t283 86.5h136v-164h-168q-76 0 -117 -41.5t-41 -115.5v-101h346v-147h-346v-934h-188v934h-514v-934z" />
    <glyph glyph-name="fi" unicode="fi" horiz-adv-x="1357" 
d="M406 0h-189v946h-151v148h151v67q0 355 379 355h123v-164h-156q-76 0 -116.5 -42t-40.5 -116v-100h292v-148h-292v-946zM1024 1270q-64 0 -96.5 33.5t-32.5 89.5t32.5 89.5t96.5 33.5t96.5 -33.5t32.5 -89.5t-32.5 -89.5t-96.5 -33.5zM1165 0h-196v938h-160v156h356
v-1094z" />
    <glyph glyph-name="fl" unicode="fl" horiz-adv-x="1343" 
d="M406 0h-189v934h-151v147h151v60q0 181 95 267.5t284 86.5h98v-164h-131q-76 0 -116.5 -41.5t-40.5 -115.5v-93h296v-147h-296v-934zM1155 0h-197v1339h-145v156h342v-1495z" />
    <glyph glyph-name="f_f_i" unicode="ffi" horiz-adv-x="2060" 
d="M406 0h-189v946h-151v148h151v80q0 181 95 267.5t284 86.5h111v-164h-144q-76 0 -116.5 -42t-40.5 -116v-112h514v67q0 181 95 268t283 87h123v-164h-155q-76 0 -117 -42t-41 -116v-100h293v-148h-293v-946h-188v946h-514v-946zM1726 1270q-64 0 -96.5 33.5t-32.5 89.5
t32.5 89.5t96.5 33.5t96.5 -33.5t32.5 -89.5t-32.5 -89.5t-96.5 -33.5zM1868 0h-197v938h-160v156h357v-1094z" />
    <glyph glyph-name="f_f_l" unicode="ffl" horiz-adv-x="2048" 
d="M406 0h-189v934h-151v147h151v80q0 355 379 355h111v-164h-144q-76 0 -116.5 -42t-40.5 -116v-113h514v60q0 181 95 267.5t283 86.5h99v-164h-131q-76 0 -117 -41.5t-41 -115.5v-93h297v-147h-297v-934h-188v934h-514v-934zM1860 0h-197v1339h-147v156h344v-1495z" />
    <glyph glyph-name="f_f_j" unicode="ffj" horiz-adv-x="2062" 
d="M1733 1286q-64 0 -96.5 33.5t-32.5 89.5t32.5 89.5t96.5 33.5t96.5 -33.5t32.5 -89.5t-32.5 -89.5t-96.5 -33.5zM406 0h-189v946h-151v148h151v80q0 181 95 267.5t284 86.5h111v-164h-144q-76 0 -116.5 -42t-40.5 -116v-112h514v67q0 181 95 268t283 87h109v-164h-141
q-76 0 -117 -42t-41 -116v-100h307v-148h-307v-946h-188v946h-514v-946zM1495 -410h-90v177h119q77 0 119.5 42.5t42.5 118.5v1010h-160v156h348v-1137q0 -204 -86 -285.5t-293 -81.5z" />
    <glyph glyph-name="f_j" unicode="fj" horiz-adv-x="1359" 
d="M1030 1286q-64 0 -96.5 33.5t-32.5 89.5t32.5 89.5t96.5 33.5t96.5 -33.5t32.5 -89.5t-32.5 -89.5t-96.5 -33.5zM406 0h-189v946h-151v148h151v67q0 355 379 355h109v-164h-142q-76 0 -116.5 -42t-40.5 -116v-100h307v-148h-307v-946zM793 -410h-91v177h119
q77 0 119.5 42.5t42.5 118.5v1010h-160v156h348v-1137q0 -204 -85.5 -285.5t-292.5 -81.5z" />
    <glyph glyph-name=".notdef" horiz-adv-x="1759" 
d="M1575 -86h-1391v1675h1391v-1675zM299 1479v-1454h1161v1454h-1161zM915 483h-127v279h84q90 0 141.5 53.5t51.5 140.5q0 86 -49 139.5t-133 53.5t-135.5 -56.5t-51.5 -146.5h-139q0 144 90.5 237t239.5 93q144 0 231.5 -86.5t87.5 -218.5v-17q0 -122 -75 -203t-213 -96z
M930 205h-156v155h156v-155z" />
    <glyph glyph-name=".null" horiz-adv-x="0" 
 />
    <glyph glyph-name="nonmarkingreturn" horiz-adv-x="682" 
 />
    <glyph glyph-name="NULL" horiz-adv-x="1228" 
 />
    <glyph glyph-name="NULL" horiz-adv-x="1228" 
 />
    <glyph glyph-name="CR" unicode="&#xd;" horiz-adv-x="1228" 
 />
    <glyph glyph-name="space" unicode=" " horiz-adv-x="466" 
 />
    <glyph glyph-name="exclam" unicode="!" horiz-adv-x="606" 
d="M403 446h-200v1049h200v-1049zM422 0h-238v250h238v-250z" />
    <glyph glyph-name="quotedbl" unicode="&#x22;" horiz-adv-x="880" 
d="M352 942h-168v553h168v-553zM696 942h-168v553h168v-553z" />
    <glyph glyph-name="numbersign" unicode="#" horiz-adv-x="1417" 
d="M442 0h-176l66 428h-258v143h280l56 353h-263v143h285l66 428h176l-66 -428h303l66 428h176l-66 -428h256v-143h-278l-55 -353h260v-143h-283l-65 -428h-177l66 428h-303zM530 571h304l55 353h-303z" />
    <glyph glyph-name="dollar" unicode="$" horiz-adv-x="1335" 
d="M754 -264h-176v268q-221 22 -342 147t-121 326h184q0 -44 11 -85.5t38 -83t68 -72t105 -49.5t145 -19q175 0 268.5 73.5t93.5 182.5q0 100 -81 165.5t-230 78.5l-135 12q-203 19 -316.5 121t-113.5 284q0 172 111.5 279t305.5 127v203h176v-203q193 -24 302.5 -143.5
t109.5 -313.5h-184q0 56 -18.5 107t-55.5 93.5t-99.5 67.5t-142.5 25q-147 0 -232 -68.5t-85 -173.5q0 -93 65.5 -155t192.5 -74l135 -12q223 -21 353.5 -130t130.5 -290q0 -174 -124 -287t-339 -133v-268z" />
    <glyph glyph-name="percent" unicode="%" horiz-adv-x="1740" 
d="M403 692q-86 0 -150.5 30.5t-103 84.5t-57 122t-18.5 148v53q0 173 83 279.5t246 106.5t246.5 -106.5t83.5 -279.5v-53q0 -80 -19 -148t-57 -122t-103 -84.5t-151 -30.5zM670 0h-156l565 1495h156zM403 827q187 0 187 275q0 143 -46.5 210.5t-140.5 67.5
q-186 0 -186 -276q0 -277 186 -277zM1337 -20q-86 0 -150.5 30.5t-103 84.5t-57 122t-18.5 148v53q0 173 83 279t246 106t246.5 -106t83.5 -279v-53q0 -80 -19 -148t-57 -122t-103 -84.5t-151 -30.5zM1337 115q187 0 187 274q0 279 -187 279q-186 0 -186 -277
q0 -276 186 -276z" />
    <glyph glyph-name="ampersand" unicode="&#x26;" horiz-adv-x="1409" 
d="M592 -37q-233 0 -379.5 128.5t-146.5 320.5v30q0 129 68 238.5t181 183.5q-73 117 -73 250q0 202 117 299.5t372 97.5q125 0 301 -20v-172q-210 20 -340 20q-142 0 -202 -56t-60 -173q0 -88 40 -162.5t134 -175.5l367 -391q83 174 86 438h-238v156h537v-156h-123
q-6 -357 -135 -571l233 -248h-231l-107 115q-161 -152 -401 -152zM254 426q0 -139 96 -217t242 -78q168 0 282 111l-391 415q-45 48 -63 72q-77 -52 -121.5 -131.5t-44.5 -171.5z" />
    <glyph glyph-name="quotesingle" unicode="'" horiz-adv-x="536" 
d="M352 942h-168v553h168v-553z" />
    <glyph glyph-name="parenleft" unicode="(" horiz-adv-x="770" 
d="M737 -373h-225q-176 199 -270.5 439t-94.5 550q0 308 95.5 545t269.5 428h225q-200 -214 -298.5 -446t-98.5 -527q0 -296 98 -531.5t299 -457.5z" />
    <glyph glyph-name="parenright" unicode=")" horiz-adv-x="770" 
d="M33 -373q201 222 299 457.5t98 531.5q0 295 -98.5 527t-298.5 446h225q174 -191 269.5 -428t95.5 -545q0 -310 -94.5 -550t-270.5 -439h-225z" />
    <glyph glyph-name="asterisk" unicode="*" horiz-adv-x="1161" 
d="M469 1593h184l-35 -381l-172 -98l-348 160l92 160l236 -172l76 43zM1063 928l-92 -160l-314 221v197l314 221l92 -160l-268 -117v-86zM190 741l-92 160l348 160l172 -98l35 -381h-184l33 288l-76 43z" />
    <glyph glyph-name="plus" unicode="+" horiz-adv-x="1208" 
d="M688 217h-168v410h-385v155h385v410h168v-410h385v-155h-385v-410z" />
    <glyph glyph-name="comma" unicode="," horiz-adv-x="536" 
d="M406 205l-195 -527l-158 60l191 528z" />
    <glyph glyph-name="hyphen" unicode="-" horiz-adv-x="1032" 
d="M897 485h-762v168h762v-168z" />
    <glyph glyph-name="period" unicode="." horiz-adv-x="536" 
d="M387 0h-237v250h237v-250z" />
    <glyph glyph-name="slash" unicode="/" horiz-adv-x="704" 
d="M236 -123h-185l418 1720h184z" />
    <glyph glyph-name="zero" unicode="0" horiz-adv-x="1521" 
d="M762 -37q-131 0 -236 38.5t-175 104.5t-116.5 159.5t-67 199.5t-20.5 227v111q0 126 22.5 235t71 201t120 157.5t173.5 102.5t228 37q125 0 227 -37t173 -102.5t119 -157.5t70.5 -201t22.5 -235v-111q0 -121 -20.5 -227t-67 -199t-116 -159.5t-174 -105t-234.5 -38.5z
M762 143q213 0 312.5 144.5t99.5 457.5q0 323 -100 467t-312 144q-213 0 -313.5 -143t-100.5 -463q0 -316 100 -461.5t314 -145.5z" />
    <glyph glyph-name="one" unicode="1" horiz-adv-x="860" 
d="M614 0h-196v1327h-332v168h528v-1495z" />
    <glyph glyph-name="two" unicode="2" horiz-adv-x="1265" 
d="M1155 0h-999v246q0 135 61.5 215.5t224.5 154.5l281 129q221 100 221 316q0 143 -80.5 223t-224.5 80q-143 0 -225 -80.5t-82 -222.5h-193q0 99 31 183.5t91 150.5t157 103.5t221 37.5q123 0 220 -37.5t156.5 -102t90.5 -146.5t31 -175v-28q0 -297 -344 -455l-281 -129
q-94 -42 -127 -85t-33 -116v-94h803v-168z" />
    <glyph glyph-name="three" unicode="3" horiz-adv-x="1257" 
d="M612 -37q-122 0 -222.5 38.5t-165 104t-99.5 151t-35 181.5h193q0 -140 88.5 -221.5t240.5 -81.5q151 0 240.5 82t89.5 221t-90 225.5t-238 86.5q-112 0 -190 -54l-98 176l571 418l-20 37h-727v168h911v-272l-443 -322h3q120 0 218.5 -36t162.5 -97.5t98.5 -142.5
t34.5 -172v-29q0 -90 -35 -172.5t-99 -147t-165 -103t-224 -38.5z" />
    <glyph glyph-name="four" unicode="4" horiz-adv-x="1314" 
d="M1063 0h-184v354h-781v242l621 936l137 -109l-580 -876l19 -37h584v549h184v-549h199v-156h-199v-354z" />
    <glyph glyph-name="five" unicode="5" horiz-adv-x="1275" 
d="M647 -37q-125 0 -227.5 41.5t-168 112t-101 159.5t-35.5 187h192q0 -143 93 -235.5t247 -92.5q153 0 247.5 92t94.5 236t-94.5 240t-247.5 96q-76 0 -154 -27t-124 -72h-181l76 795h785v-168h-627l-45 -442q118 78 278 78q124 0 226 -41.5t166.5 -111t99.5 -155.5
t35 -178v-28q0 -92 -36 -178.5t-102 -155.5t-169 -110.5t-228 -41.5z" />
    <glyph glyph-name="six" unicode="6" horiz-adv-x="1349" 
d="M715 -41q-128 0 -227 38.5t-162.5 103t-104.5 157.5t-57.5 194t-16.5 220v98q0 354 177.5 545.5t509.5 191.5q115 0 256 -16v-168q-144 16 -265 16q-111 0 -195 -25.5t-141 -73.5t-93 -120.5t-52 -161.5t-16 -202v-35q55 120 164 181t258 61q233 0 363 -138t130 -360
q0 -226 -137.5 -366t-390.5 -140zM715 131q164 0 252 91t88 243t-85 243t-241 91q-162 0 -263 -88.5t-101 -247.5q0 -144 88.5 -238t261.5 -94z" />
    <glyph glyph-name="seven" unicode="7" horiz-adv-x="1175" 
d="M500 0h-205l633 1309l-13 18h-653v-237h-164v405h1004v-238z" />
    <glyph glyph-name="eight" unicode="8" horiz-adv-x="1304" 
d="M651 -37q-242 0 -395.5 126.5t-153.5 328.5q0 130 74 227t197 143v21q-99 42 -160 123.5t-61 193.5q0 124 68.5 218t181 141t249.5 47q138 0 250.5 -47t181 -141t68.5 -218q0 -112 -60.5 -193.5t-160.5 -123.5v-21q123 -45 197.5 -143t74.5 -227q0 -203 -154 -329
t-397 -126zM651 874q143 0 225 62t82 184t-82.5 183t-224.5 61q-143 0 -225 -61.5t-82 -182.5q0 -122 82.5 -184t224.5 -62zM651 131q168 0 263.5 79t95.5 216q0 136 -95 214.5t-264 78.5q-168 0 -262 -78.5t-94 -214.5q0 -137 94 -216t262 -79z" />
    <glyph glyph-name="nine" unicode="9" horiz-adv-x="1349" 
d="M635 1536q128 0 227 -38.5t162 -103t104 -157.5t57.5 -194t16.5 -220v-98q0 -354 -177 -545.5t-509 -191.5q-115 0 -256 16v168q144 -16 264 -16q138 0 235 38.5t154.5 116t83 182t25.5 246.5v35q-55 -120 -164 -181t-258 -61q-233 0 -363.5 138t-130.5 360
q0 226 138 366t391 140zM635 1364q-164 0 -252 -91t-88 -243t85 -243t241 -91q162 0 263 88.5t101 247.5q0 144 -88.5 238t-261.5 94z" />
    <glyph glyph-name="colon" unicode=":" horiz-adv-x="536" 
d="M387 758h-237v250h237v-250zM387 0h-237v250h237v-250z" />
    <glyph glyph-name="semicolon" unicode=";" horiz-adv-x="536" 
d="M399 758h-237v250h237v-250zM414 205l-195 -527l-158 60l191 528z" />
    <glyph glyph-name="less" unicode="&#x3c;" horiz-adv-x="1208" 
d="M156 547v254l897 301v-164l-754 -248v-37l754 -247v-160z" />
    <glyph glyph-name="equal" unicode="=" horiz-adv-x="1208" 
d="M1073 780h-938v156h938v-156zM1073 416h-938v155h938v-155z" />
    <glyph glyph-name="greater" unicode="&#x3e;" horiz-adv-x="1208" 
d="M1053 547l-897 -301v164l753 247v37l-753 248v160l897 -301v-254z" />
    <glyph glyph-name="question" unicode="?" horiz-adv-x="1130" 
d="M612 446h-196v381h141q139 0 213 75t74 194q0 124 -76.5 196t-198.5 72q-136 0 -217.5 -81t-81.5 -208h-188q0 92 31 174t90 146.5t153.5 102.5t212.5 38q209 0 336 -124.5t127 -303.5v-25q0 -166 -109.5 -280.5t-308.5 -134.5zM633 0h-238v250h238v-250z" />
    <glyph glyph-name="at" unicode="@" horiz-adv-x="2297" 
d="M1157 -498q-220 0 -409 73.5t-324 205t-212 320.5t-77 411q0 216 75 404.5t208.5 325.5t327.5 215.5t421 78.5q205 0 385 -59.5t317.5 -170t217.5 -283t80 -384.5q0 -178 -54.5 -321t-154 -224.5t-225.5 -81.5q-118 0 -197.5 63.5t-103.5 170.5q-52 -107 -145.5 -162
t-207.5 -55q-189 0 -313.5 135t-124.5 338v33q0 201 127.5 331.5t318.5 130.5q106 0 194.5 -44.5t143.5 -127.5v144h160v-631q0 -82 40 -124t104 -42q107 0 184.5 127.5t77.5 331.5q0 145 -43 267t-118.5 208.5t-179.5 147t-225 89.5t-256 29q-193 0 -355 -66.5t-271.5 -182
t-170.5 -273.5t-61 -340q0 -248 106.5 -439.5t298.5 -296t441 -104.5q124 0 246 29v-170q-132 -27 -246 -27zM1114 184q126 0 212.5 86t86.5 234v53q0 135 -87.5 210t-211.5 75q-134 0 -213.5 -88t-79.5 -236q0 -149 81 -241.5t212 -92.5z" />
    <glyph glyph-name="A" unicode="A" horiz-adv-x="1548" 
d="M258 0h-201l539 1495h340l555 -1495h-207l-164 446h-702zM481 627h572l-252 688h-76z" />
    <glyph glyph-name="B" unicode="B" horiz-adv-x="1392" 
d="M766 -8h-549v1511h488q244 0 365.5 -102t121.5 -299v-29q0 -222 -170 -307q231 -79 231 -336v-29q0 -199 -122 -304t-365 -105zM739 1327h-321v-489h321q122 0 185 66t63 177q0 113 -63 179.5t-185 66.5zM795 670h-377v-502h377q120 0 187 67.5t67 184.5q0 118 -66 184
t-188 66z" />
    <glyph glyph-name="C" unicode="C" horiz-adv-x="1628" 
d="M866 -37q-158 0 -288 48t-214 125.5t-142 179t-82.5 205t-24.5 208.5v45q0 111 25.5 217.5t83.5 206t142 174t210 119.5t278 45q294 0 469 -150t205 -409h-205q-25 184 -152 279.5t-317 95.5q-129 0 -232 -46.5t-168.5 -128.5t-100 -191t-34.5 -236q0 -123 35 -230.5
t101 -191.5t172 -132.5t239 -48.5q196 0 325.5 97.5t158.5 277.5h204q-16 -117 -67 -217t-135 -177t-209 -121t-277 -44z" />
    <glyph glyph-name="D" unicode="D" horiz-adv-x="1619" 
d="M729 -8h-512v1511h512q157 0 289.5 -41.5t225 -112t158 -164.5t96 -198.5t30.5 -214.5v-45q0 -108 -30.5 -212t-96 -199t-158 -167t-225.5 -114.5t-289 -42.5zM750 1319h-332v-1143h332q262 0 417.5 162.5t155.5 411.5q0 256 -154 412.5t-419 156.5z" />
    <glyph glyph-name="E" unicode="E" horiz-adv-x="1228" 
d="M1102 0h-885v1495h864v-180h-663v-465h620v-180h-620v-490h684v-180z" />
    <glyph glyph-name="F" unicode="F" horiz-adv-x="1146" 
d="M418 0h-201v1495h836v-180h-635v-469l600 2v-180l-600 -2v-666z" />
    <glyph glyph-name="G" unicode="G" horiz-adv-x="1701" 
d="M885 -37q-171 0 -315.5 58.5t-244 161t-155 246t-55.5 310.5v45q0 96 23 189t65.5 176.5t107.5 154.5t145 122.5t181.5 80.5t214.5 29q278 0 461.5 -155t206.5 -404h-205q-21 179 -152 277t-311 98q-236 0 -384.5 -162.5t-148.5 -429.5q0 -299 155.5 -458t410.5 -159
q132 0 243.5 42.5t188.5 117.5v254h-486v168h801v-168h-127v-315q-101 -134 -260 -206.5t-360 -72.5z" />
    <glyph glyph-name="H" unicode="H" horiz-adv-x="1646" 
d="M418 0h-201v1495h201v-661h811v661h201v-1495h-201v653h-811v-653z" />
    <glyph glyph-name="I" unicode="I" horiz-adv-x="643" 
d="M422 0h-201v1495h201v-1495z" />
    <glyph glyph-name="J" unicode="J" horiz-adv-x="1310" 
d="M598 -37q-111 0 -205 35t-164.5 102t-110.5 171.5t-40 236.5v51h201v-88q0 -151 88.5 -237.5t230.5 -86.5q143 0 231.5 86.5t88.5 237.5v844h-644v180h844v-987q0 -132 -39.5 -236.5t-110 -171.5t-164.5 -102t-206 -35z" />
    <glyph glyph-name="K" unicode="K" horiz-adv-x="1388" 
d="M418 0h-201v1495h201v-698l608 698h229l-577 -661l731 -834h-250l-608 698h-133v-698z" />
    <glyph glyph-name="L" unicode="L" horiz-adv-x="1114" 
d="M1061 0h-844v1495h201v-1315h643v-180z" />
    <glyph glyph-name="M" unicode="M" horiz-adv-x="1884" 
d="M401 0h-184v1495h266l443 -997h32l441 997h268v-1495h-201v1239l-409 -930h-246l-410 926v-1235z" />
    <glyph glyph-name="N" unicode="N" horiz-adv-x="1738" 
d="M406 0h-189v1495h328l760 -1315h24v1315h193v-1495h-332l-760 1315h-24v-1315z" />
    <glyph glyph-name="O" unicode="O" horiz-adv-x="1771" 
d="M887 -37q-154 0 -285 48.5t-219 127t-150 179.5t-90 205.5t-28 205.5v45q0 109 29.5 216t92.5 206t152 174.5t218 120.5t280 45t280 -45t218 -120.5t152 -174.5t92.5 -206t29.5 -216v-45q0 -101 -28 -205.5t-90 -205.5t-150 -179.5t-219 -127t-285 -48.5zM887 147
q127 0 235.5 50t180 133.5t111.5 192.5t40 227q0 124 -40 234t-112 191.5t-179.5 129t-235.5 47.5q-170 0 -301 -81.5t-199 -217.5t-68 -303q0 -118 40 -227t112 -192.5t180.5 -133.5t235.5 -50z" />
    <glyph glyph-name="P" unicode="P" horiz-adv-x="1310" 
d="M418 0h-201v1503h457q271 0 415 -126.5t144 -348.5v-33q0 -221 -144.5 -348t-414.5 -127h-256v-520zM711 1327h-293v-631h293q153 0 235 88t82 228q0 141 -82 228t-235 87z" />
    <glyph glyph-name="Q" unicode="Q" horiz-adv-x="1771" 
d="M1382 -432h-219q-179 0 -271.5 80t-92.5 274v45q-137 13 -252.5 67t-193.5 131.5t-133 174.5t-80 195.5t-25 193.5v45q0 109 29.5 216t92.5 206t152 174.5t218 120.5t280 45t280 -45t218 -120.5t152 -174.5t92.5 -206t29.5 -216v-45q0 -95 -25 -192.5t-79 -194
t-131.5 -174.5t-191.5 -132.5t-249 -68.5v-76q0 -67 39.5 -106t105.5 -39h254v-178zM887 147q127 0 235.5 50t180 133.5t111.5 192.5t40 227q0 124 -40 234t-112 191.5t-179.5 129t-235.5 47.5q-170 0 -301 -81.5t-199 -217.5t-68 -303q0 -118 40 -227t112 -192.5
t180.5 -133.5t235.5 -50z" />
    <glyph glyph-name="R" unicode="R" horiz-adv-x="1433" 
d="M418 0h-201v1503h490q256 0 400 -115t144 -350v-32q0 -170 -78.5 -278.5t-222.5 -154.5l434 -573h-243l-404 541h-30h-289v-541zM743 1327h-325v-608h325q138 0 221 84.5t83 218.5t-83 219.5t-221 85.5z" />
    <glyph glyph-name="S" unicode="S" horiz-adv-x="1411" 
d="M702 -37q-274 0 -430.5 132.5t-156.5 344.5h200q0 -55 20.5 -104.5t63 -93t121 -69.5t182.5 -26q192 0 291 81t99 204q0 94 -81 154t-233 73l-166 15q-200 17 -318 124.5t-118 278.5q0 204 146.5 331.5t382.5 127.5q235 0 380.5 -126.5t145.5 -338.5h-201q0 55 -19.5 104
t-57.5 89t-102 64t-146 24q-158 0 -243 -80.5t-85 -194.5q0 -87 65.5 -148t186.5 -71l166 -14q232 -21 364.5 -128t132.5 -284q0 -208 -163.5 -338.5t-426.5 -130.5z" />
    <glyph glyph-name="T" unicode="T" horiz-adv-x="1216" 
d="M709 0h-201v1315h-455v180h1110v-180h-454v-1315z" />
    <glyph glyph-name="U" unicode="U" horiz-adv-x="1615" 
d="M809 -37q-299 0 -460 170.5t-161 460.5v901h201v-926q0 -193 110.5 -307.5t309.5 -114.5q198 0 308 114t110 308v926h200v-901q0 -290 -159.5 -460.5t-458.5 -170.5z" />
    <glyph glyph-name="V" unicode="V" horiz-adv-x="1449" 
d="M907 0h-344l-518 1495h207l448 -1315h76l412 1315h201z" />
    <glyph glyph-name="W" unicode="W" horiz-adv-x="2136" 
d="M807 0h-342l-404 1495h207l338 -1315h64l274 1254h256l309 -1254h64l301 1315h201l-367 -1495h-344l-293 1167z" />
    <glyph glyph-name="X" unicode="X" horiz-adv-x="1425" 
d="M250 0h-217l545 780l-496 715h227l391 -573h33l397 573h218l-510 -725l551 -770h-228l-446 629h-33z" />
    <glyph glyph-name="Y" unicode="Y" horiz-adv-x="1335" 
d="M778 0h-196v582h-74l-475 913h209l389 -760h104l367 760h196l-446 -913h-74v-582z" />
    <glyph glyph-name="Z" unicode="Z" horiz-adv-x="1339" 
d="M1245 0h-1118v246l901 1054l-18 27h-865v168h1074v-246l-904 -1054l21 -27h909v-168z" />
    <glyph glyph-name="bracketleft" unicode="[" horiz-adv-x="770" 
d="M659 -373h-434v1962h434v-155h-245v-1651h245v-156z" />
    <glyph glyph-name="backslash" unicode="\" horiz-adv-x="704" 
d="M672 -123h-183l-456 1720h182z" />
    <glyph glyph-name="bracketright" unicode="]" horiz-adv-x="770" 
d="M111 -373v156h245v1651h-245v155h434v-1962h-434z" />
    <glyph glyph-name="asciicircum" unicode="^" horiz-adv-x="1171" 
d="M295 633h-160l340 846h225l336 -846h-159l-265 702h-49z" />
    <glyph glyph-name="underscore" unicode="_" horiz-adv-x="1179" 
d="M1180 -270h-1180v147h1180v-147z" />
    <glyph glyph-name="grave" unicode="`" 
d="M393 1253h-168l-225 406h215z" />
    <glyph glyph-name="a" unicode="a" horiz-adv-x="1177" 
d="M492 -29q-187 0 -292.5 94t-105.5 263q0 172 116 262t331 90h276v27q0 112 -58 169.5t-171 57.5q-187 0 -367 -12v172q132 12 301 12q256 0 370 -94.5t114 -319.5v-692h-156v217q-71 -246 -358 -246zM532 127q117 0 198 66t87 213v126h-285q-116 0 -180.5 -55.5
t-64.5 -148.5q0 -92 64 -146.5t181 -54.5z" />
    <glyph glyph-name="b" unicode="b" horiz-adv-x="1411" 
d="M766 -37q-146 0 -255.5 67.5t-166.5 194.5v-225h-156v1495h197v-590q60 112 163.5 168.5t233.5 56.5q153 0 273.5 -76t185 -203.5t64.5 -281.5v-37q0 -115 -39 -219t-108.5 -181.5t-171 -123t-220.5 -45.5zM743 135q164 0 264.5 115.5t100.5 300.5q0 184 -101 295.5
t-264 111.5q-155 0 -260.5 -101t-105.5 -269v-94q0 -163 106.5 -261t259.5 -98z" />
    <glyph glyph-name="c" unicode="c" horiz-adv-x="1241" 
d="M657 -37q-135 0 -243.5 50t-173.5 132t-99.5 180.5t-34.5 202.5v37q0 106 34.5 205t100.5 180.5t173 130.5t239 49q208 0 346.5 -113.5t151.5 -301.5h-188q-16 106 -97.5 172.5t-212.5 66.5q-171 0 -260.5 -112t-89.5 -295q0 -117 37.5 -207t119 -145.5t197.5 -55.5
q133 0 219.5 69.5t98.5 176.5h188q-7 -126 -75.5 -223t-180.5 -148t-250 -51z" />
    <glyph glyph-name="d" unicode="d" horiz-adv-x="1411" 
d="M645 -37q-114 0 -215 44t-171.5 120t-111.5 180t-41 221v37q0 155 66.5 283.5t189.5 205t277 76.5q124 0 225 -50.5t162 -151.5v567h197v-1495h-156v225q-60 -132 -172 -197t-250 -65zM672 135q155 0 258.5 103t103.5 272v94q0 163 -105.5 258.5t-258.5 95.5
q-165 0 -266 -112.5t-101 -298.5q0 -187 103 -299.5t266 -112.5z" />
    <glyph glyph-name="e" unicode="e" horiz-adv-x="1253" 
d="M653 -37q-112 0 -204.5 32.5t-155 87t-105.5 127.5t-62.5 153t-19.5 165v37q0 87 20 167.5t63 153.5t104.5 127t151 85.5t196.5 31.5q128 0 230 -44.5t164.5 -120t95 -169.5t32.5 -198v-88h-868q10 -170 99 -272.5t259 -102.5q124 0 207 55t101 136h184
q-35 -170 -166.5 -266.5t-325.5 -96.5zM641 958q-143 0 -228.5 -80.5t-109.5 -220.5h668q-19 143 -102.5 222t-227.5 79z" />
    <glyph glyph-name="f" unicode="f" horiz-adv-x="776" 
d="M406 0h-189v934h-151v147h151v68q0 181 95 267.5t284 86.5h135v-164h-168q-76 0 -116.5 -41.5t-40.5 -115.5v-101h346v-147h-346v-934z" />
    <glyph glyph-name="g" unicode="g" horiz-adv-x="1382" 
d="M602 -426q-148 0 -299 23v165q168 -24 307 -24q222 0 315 89.5t93 293.5v98q-58 -112 -161.5 -169.5t-231.5 -57.5q-150 0 -269.5 76.5t-184.5 204t-65 278.5v37q0 232 149 387t380 155q143 0 251 -64t165 -183v211h155v-965q0 -296 -139.5 -425.5t-464.5 -129.5z
M662 172q151 0 253.5 98t102.5 262v95q0 157 -103.5 248.5t-250.5 91.5q-162 0 -261.5 -109.5t-99.5 -288.5q0 -181 100 -289t259 -108z" />
    <glyph glyph-name="h" unicode="h" horiz-adv-x="1310" 
d="M385 0h-197v1495h197v-594q93 225 348 225h8q195 0 296.5 -129t101.5 -372v-625h-197v666q0 131 -73.5 205.5t-194.5 74.5q-131 0 -210 -86.5t-79 -228.5v-631z" />
    <glyph glyph-name="i" unicode="i" horiz-adv-x="630" 
d="M297 1270q-64 0 -96.5 33.5t-32.5 89.5t32.5 89.5t96.5 33.5t96.5 -33.5t32.5 -89.5t-32.5 -89.5t-96.5 -33.5zM438 0h-196v938h-168v156h364v-1094z" />
    <glyph glyph-name="j" unicode="j" horiz-adv-x="649" 
d="M319 1286q-64 0 -96.5 33.5t-32.5 89.5t32.5 89.5t96.5 33.5t97 -33.5t33 -89.5t-33 -89.5t-97 -33.5zM82 -418h-86v176h115q76 0 118.5 42.5t42.5 119.5v1018h-172v156h361v-1145q0 -204 -86 -285.5t-293 -81.5z" />
    <glyph glyph-name="k" unicode="k" horiz-adv-x="1173" 
d="M385 0h-197v1495h197v-944l467 543h207l-404 -467l514 -627h-227l-412 510h-145v-510z" />
    <glyph glyph-name="l" unicode="l" horiz-adv-x="585" 
d="M397 0h-196v1339h-152v156h348v-1495z" />
    <glyph glyph-name="m" unicode="m" horiz-adv-x="1982" 
d="M385 0h-197v1094h156v-252q73 284 356 284h9q276 0 352 -270q79 270 356 270h8q191 0 288 -130t97 -371v-625h-196v668q0 132 -65.5 205t-182.5 73q-123 0 -195.5 -78t-72.5 -213v-655h-197v668q0 132 -65.5 205t-182.5 73q-123 0 -195.5 -78t-72.5 -213v-655z" />
    <glyph glyph-name="n" unicode="n" horiz-adv-x="1310" 
d="M385 0h-197v1094h156v-254q75 286 381 286h8q203 0 304.5 -127.5t101.5 -373.5v-625h-197v666q0 128 -72 204t-196 76q-129 0 -209 -80.5t-80 -212.5v-653z" />
    <glyph glyph-name="o" unicode="o" horiz-adv-x="1384" 
d="M692 -37q-111 0 -207 32t-164.5 87t-117.5 127.5t-73 153.5t-24 165v37q0 106 40 207t113 181t186 128.5t247 48.5t247 -48.5t186 -128.5t113 -181t40 -207v-37q0 -84 -24 -165t-73 -153.5t-117.5 -127.5t-164.5 -87t-207 -32zM692 139q180 0 284.5 115.5t104.5 292.5
q0 178 -106 292.5t-283 114.5t-283 -114.5t-106 -292.5q0 -177 104.5 -292.5t284.5 -115.5z" />
    <glyph glyph-name="p" unicode="p" horiz-adv-x="1411" 
d="M385 -410h-197v1504h156v-269q52 152 167 228.5t267 76.5q154 0 276 -77.5t186.5 -205.5t64.5 -282v-37q0 -153 -67 -282t-189.5 -206t-274.5 -77q-119 0 -221.5 50t-167.5 151v-574zM743 135q164 0 264.5 114t100.5 298q0 183 -100.5 297t-264.5 114q-155 0 -260.5 -101
t-105.5 -269v-94q0 -163 106.5 -261t259.5 -98z" />
    <glyph glyph-name="q" unicode="q" horiz-adv-x="1411" 
d="M1223 -410h-197v590q-61 -107 -163 -162t-226 -55q-153 0 -275.5 78.5t-189 209.5t-66.5 286v36q0 154 67 280.5t191 201.5t281 75q146 0 255 -64.5t167 -186.5v215h156v-1504zM672 143q155 0 258.5 103t103.5 272v94q0 163 -105.5 259t-256.5 96q-166 0 -267.5 -113.5
t-101.5 -298.5t103 -298.5t266 -113.5z" />
    <glyph glyph-name="r" unicode="r" horiz-adv-x="839" 
d="M385 0h-197v1094h156v-328q26 174 128.5 257t285.5 83h37v-176h-70q-164 0 -252 -87.5t-88 -250.5v-592z" />
    <glyph glyph-name="s" unicode="s" horiz-adv-x="1097" 
d="M547 -33q-213 0 -331.5 91.5t-123.5 252.5h184q3 -73 69.5 -124.5t201.5 -51.5q127 0 198.5 50.5t71.5 129.5q0 68 -51.5 106t-165.5 50l-119 12q-163 18 -257.5 96.5t-94.5 213.5q0 154 115.5 243.5t302.5 89.5q189 0 301.5 -83.5t116.5 -241.5h-185q-3 70 -62.5 113.5
t-170.5 43.5q-112 0 -173 -46t-61 -119q0 -63 43 -99.5t138 -46.5l118 -12q181 -19 285 -100.5t104 -219.5q0 -154 -127 -251t-327 -97z" />
    <glyph glyph-name="t" unicode="t" horiz-adv-x="872" 
d="M782 -12h-168q-95 0 -165.5 19.5t-124 63t-80.5 119t-27 183.5v573h-188v148h188v331h189v-331h376v-148h-376v-598q0 -88 48 -136t136 -48h192v-176z" />
    <glyph glyph-name="u" unicode="u" horiz-adv-x="1286" 
d="M575 -33h-8q-195 0 -299 127.5t-104 366.5v635h196v-674q0 -128 69.5 -201.5t188.5 -73.5q124 0 201.5 80t77.5 215v654h197v-1096h-156v252q-75 -285 -363 -285z" />
    <glyph glyph-name="v" unicode="v" horiz-adv-x="1144" 
d="M752 0h-330l-373 1094h205l313 -938h43l273 938h192z" />
    <glyph glyph-name="w" unicode="w" horiz-adv-x="1736" 
d="M670 0h-308l-309 1094h189l258 -938h41l188 901h266l219 -901h41l226 938h178l-268 -1094h-306l-223 909z" />
    <glyph glyph-name="x" unicode="x" horiz-adv-x="1146" 
d="M260 0h-203l375 551l-356 543h217l264 -412h29l250 412h202l-331 -521l401 -573h-217l-307 444h-29z" />
    <glyph glyph-name="y" unicode="y" horiz-adv-x="1120" 
d="M260 -426h-145v176h157q104 0 162 41.5t88 142.5l27 91h-121l-391 1069h201l317 -906h43l268 906h193l-365 -1211q-49 -160 -156.5 -234.5t-277.5 -74.5z" />
    <glyph glyph-name="z" unicode="z" horiz-adv-x="999" 
d="M922 0h-803v219l583 701l-12 18h-579v156h778v-220l-586 -702l14 -16h605v-156z" />
    <glyph glyph-name="braceleft" unicode="{" horiz-adv-x="770" 
d="M676 -373h-45q-172 0 -274.5 101.5t-102.5 283.5v377q0 62 -38 96.5t-101 34.5v185q63 0 101 34.5t38 96.5v368q0 182 102.5 283.5t274.5 101.5h45v-155h-45q-91 0 -140 -57t-49 -165v-356q0 -210 -192 -235v-17q192 -25 192 -235v-365q0 -108 49 -164.5t140 -56.5h45
v-156z" />
    <glyph glyph-name="bar" unicode="|" horiz-adv-x="765" 
d="M471 -410h-176v1905h176v-1905z" />
    <glyph glyph-name="braceright" unicode="}" horiz-adv-x="770" 
d="M94 -373v156h45q91 0 140 56.5t49 164.5v365q0 210 192 235v17q-192 25 -192 235v356q0 108 -49 165t-140 57h-45v155h45q172 0 274.5 -101.5t102.5 -283.5v-368q0 -62 38 -96.5t101 -34.5v-185q-63 0 -101 -34.5t-38 -96.5v-377q0 -182 -102.5 -283.5t-274.5 -101.5h-45
z" />
    <glyph glyph-name="asciitilde" unicode="~" horiz-adv-x="1013" 
d="M707 487q-54 0 -104 19.5t-87 47.5t-71 55.5t-70.5 47t-71.5 19.5q-100 0 -127 -137l-135 -2q12 131 90.5 210.5t175.5 79.5q54 0 104 -19.5t87 -47t71 -55t70.5 -47t71.5 -19.5q100 0 127 137h135q-12 -130 -90.5 -209.5t-175.5 -79.5z" />
    <glyph glyph-name="nbspace" unicode="&#xa0;" horiz-adv-x="466" 
 />
    <glyph glyph-name="exclamdown" unicode="&#xa1;" horiz-adv-x="606" 
d="M422 1094v-250h-238v250h238zM403 647v-1048h-200v1048h200z" />
    <glyph glyph-name="cent" unicode="&#xa2;" horiz-adv-x="1253" 
d="M743 0h-176v219q-114 13 -204.5 63t-145 122t-83 156.5t-28.5 174.5v41q0 91 29 176t84.5 157t145 121t202.5 62v203h176v-203q170 -21 280.5 -118.5t131.5 -260.5h-188q-15 97 -100 157t-212 60q-168 0 -262 -102t-94 -272q0 -168 93 -271.5t263 -103.5
q131 0 221.5 63.5t102.5 159.5h188q-17 -159 -134 -260.5t-290 -124.5v-219z" />
    <glyph glyph-name="sterling" unicode="&#xa3;" horiz-adv-x="1277" 
d="M950 647h-520v-491h610v192h164v-348h-1114v156h164v491h-152v135h152v228q0 239 134 370t392 131q174 0 330 -20v-168q-160 20 -334 20q-170 0 -258 -83t-88 -265v-213h520v-135z" />
    <glyph glyph-name="currency" unicode="&#xa4;" horiz-adv-x="1363" 
d="M682 297q-168 0 -285 86l-192 -193l-119 119l197 197q-68 109 -68 231v33q0 123 66 234l-195 194l119 119l190 -191q122 84 287 84t287 -84l190 191l119 -119l-195 -194q66 -111 66 -234v-33q0 -122 -68 -231l197 -197l-119 -119l-192 193q-117 -86 -285 -86zM682 461
q136 0 213.5 81t77.5 212q0 133 -78 213t-213 80t-213 -80t-78 -213q0 -131 77.5 -212t213.5 -81z" />
    <glyph glyph-name="yen" unicode="&#xa5;" horiz-adv-x="1277" 
d="M745 0h-184v319h-442v136h442v176h-442v135h303l-381 729h209l371 -729h73l346 729h197l-356 -729h307v-135h-443v-176h443v-136h-443v-319z" />
    <glyph glyph-name="brokenbar" unicode="&#xa6;" horiz-adv-x="765" 
d="M471 717h-176v778h176v-778zM471 -410h-176v758h176v-758z" />
    <glyph glyph-name="section" unicode="&#xa7;" horiz-adv-x="1196" 
d="M586 -174q-215 0 -332.5 91t-122.5 257h184q3 -78 68.5 -129t202.5 -51q109 0 171 45.5t62 126.5q0 20 -5.5 37.5t-19 33t-26 27.5t-38 25t-41.5 21t-50.5 20.5t-51.5 18t-57 18.5q-54 16 -85.5 26.5t-81 30t-79.5 37t-66 45t-56 57.5t-33.5 70.5t-13.5 87.5
q0 109 61 189.5t164 121.5q-154 91 -154 258q0 143 109.5 234.5t279.5 91.5q183 0 292.5 -84t115.5 -232h-184q-3 68 -58 108t-159 40q-103 0 -156 -44.5t-53 -113.5q0 -21 6 -40.5t13.5 -34t24.5 -29.5t29 -24.5t38 -21.5t41 -18t48 -16.5t48.5 -15t52.5 -15.5
q54 -15 84.5 -24t79.5 -27t78 -35t64.5 -44.5t54.5 -58t32.5 -73t13.5 -92.5q0 -206 -209 -307q132 -80 132 -219q0 -167 -111 -268t-307 -101zM612 516q39 -11 86 -27q99 34 149 92.5t50 129.5q0 24 -5.5 44.5t-20 38t-27.5 31t-39.5 27.5t-44 22.5t-52.5 20.5t-54 18.5
t-60 18.5q-38 12 -78 24q-90 -23 -153.5 -82.5t-63.5 -132.5q0 -27 10 -51t23 -42t40.5 -35.5t47.5 -28.5t60 -25.5t62.5 -21.5t69.5 -21z" />
    <glyph glyph-name="dieresis" unicode="&#xa8;" 
d="M127 1319q-62 0 -94.5 33t-32.5 88t32.5 88t94.5 33t94.5 -33t32.5 -88t-32.5 -88t-94.5 -33zM537 1319q-62 0 -94.5 33t-32.5 88t32.5 88t94.5 33t94.5 -33t32.5 -88t-32.5 -88t-94.5 -33z" />
    <glyph glyph-name="copyright" unicode="&#xa9;" horiz-adv-x="1478" 
d="M739 238q-128 0 -235.5 38.5t-180 101.5t-124 145.5t-74.5 170.5t-23 176v37q0 91 24 179.5t75.5 170t125 143.5t180 99t232.5 37t232.5 -37t180 -99t125 -143.5t75.5 -170t24 -179.5v-37q0 -88 -23 -176t-74.5 -170.5t-124 -145.5t-180 -101.5t-235.5 -38.5zM739 348
q115 0 212.5 44t163 118t102 171.5t36.5 205.5q0 149 -62 271t-180.5 194.5t-271.5 72.5t-271.5 -72.5t-180.5 -194.5t-62 -271q0 -108 36.5 -205.5t102 -171.5t163 -118t212.5 -44zM752 512q-88 0 -156 33t-106 87t-57 115t-19 125v27q0 67 20 129t59.5 114t106.5 83.5
t152 31.5q129 0 213.5 -71.5t93.5 -194.5h-127q-9 67 -55 105.5t-125 38.5q-102 0 -150.5 -67t-48.5 -181t48 -183t151 -69q80 0 129 41t57 108h127q-6 -125 -94 -198.5t-219 -73.5z" />
    <glyph glyph-name="ordfeminine" unicode="&#xaa;" horiz-adv-x="833" 
d="M334 707q-117 0 -189.5 64t-72.5 177q0 117 85 177.5t232 60.5h156v16q0 137 -135 137q-104 0 -256 -12v154q110 10 227 10q180 0 258 -76t78 -217v-471h-144v143q-54 -163 -239 -163zM387 836q66 0 110 39.5t48 130.5v73h-158q-65 0 -101 -33.5t-36 -89.5t36.5 -88
t100.5 -32z" />
    <glyph glyph-name="guillemotleft" unicode="&#xab;" horiz-adv-x="1110" 
d="M545 80h-197l-266 405v86l278 418h185l-279 -436v-37zM995 80h-196l-267 405v86l279 418h184l-278 -436v-37z" />
    <glyph glyph-name="logicalnot" unicode="&#xac;" horiz-adv-x="1251" 
d="M1116 193l-160 -3v375h-821v156h981v-528z" />
    <glyph glyph-name="softhyphen" unicode="&#xad;" horiz-adv-x="884" 
d="M762 485h-639v168h639v-168z" />
    <glyph glyph-name="registered" unicode="&#xae;" horiz-adv-x="1388" 
d="M694 373q-111 0 -207 33t-164 89t-116.5 129.5t-72 154t-23.5 161.5v33q0 105 39 204.5t111 180t184.5 129.5t248.5 49t249 -49t184.5 -129.5t111 -180t39.5 -204.5v-33q0 -81 -23.5 -161.5t-72.5 -154t-116.5 -129.5t-164 -89t-207.5 -33zM694 479q138 0 246 64
t165.5 172t57.5 239q0 206 -130 341t-339 135t-339 -135t-130 -341q0 -131 57.5 -239t165.5 -172t246 -64zM588 651h-115v629h211q118 0 188 -56t70 -155q0 -71 -38 -121t-107 -74l188 -223h-135l-170 207h-92v-207zM700 1178h-112v-217h112q125 0 125 108q0 109 -125 109z
" />
    <glyph glyph-name="macron" unicode="&#xaf;" 
d="M569 1364h-569v141h569v-141z" />
    <glyph glyph-name="degree" unicode="&#xb0;" horiz-adv-x="757" 
d="M379 866q-140 0 -231 92t-91 224q0 130 91 221.5t231 91.5t230.5 -91.5t90.5 -221.5q0 -132 -90.5 -224t-230.5 -92zM379 997q82 0 130 54t48 131q0 76 -48 129t-130 53t-130 -53t-48 -129q0 -77 48 -131t130 -54z" />
    <glyph glyph-name="plusminus" unicode="&#xb1;" horiz-adv-x="1249" 
d="M705 412l-160 -2v374h-389v156h389v371l160 2v-373h389v-156h-389v-372zM1094 133h-938v156h938v-156z" />
    <glyph glyph-name="twosuperior" unicode="&#xb2;" horiz-adv-x="778" 
d="M700 860h-606v158q0 75 41 124.5t139 90.5l148 61q56 23 84.5 56.5t28.5 85.5q0 58 -39.5 94.5t-106.5 36.5q-66 0 -104.5 -36.5t-38.5 -98.5h-162q0 124 82.5 199t222.5 75t222.5 -71.5t82.5 -188.5v-12q0 -93 -50 -155.5t-163 -109.5l-147 -61q-40 -16 -58 -33.5
t-18 -44.5v-24h442v-146z" />
    <glyph glyph-name="threesuperior" unicode="&#xb3;" horiz-adv-x="778" 
d="M381 840q-145 0 -232.5 74.5t-87.5 193.5h162q0 -58 43 -94.5t115 -36.5t115 38.5t43 98.5q0 61 -41.5 98t-114.5 37q-70 0 -113 -37l-80 127l277 183l-10 14h-359v147h578v-139l-266 -176q134 -6 213 -73.5t79 -180.5v-12q0 -117 -87.5 -189.5t-233.5 -72.5z" />
    <glyph glyph-name="acute" unicode="&#xb4;" 
d="M160 1253h-160l180 406h207z" />
    <glyph glyph-name="micro" unicode="&#xb5;" horiz-adv-x="1368" 
d="M360 -410h-196v1506h196v-674q0 -128 69.5 -201.5t188.5 -73.5q124 0 201.5 80t77.5 215v654h197v-846q0 -82 82 -82h114v-168h-102q-230 0 -268 197q-84 -230 -345 -230h-8q-144 0 -227 86q20 -140 20 -211v-252z" />
    <glyph glyph-name="paragraph" unicode="&#xb6;" horiz-adv-x="1298" 
d="M721 0h-203v821h-108q-189 0 -289.5 88t-100.5 242v23q0 154 100.5 241.5t289.5 87.5h311v-1503zM1081 0h-198v1503h198v-1503z" />
    <glyph glyph-name="periodcentered" unicode="&#xb7;" horiz-adv-x="536" 
d="M387 434h-237v250h237v-250z" />
    <glyph glyph-name="cedilla" unicode="&#xb8;" 
d="M246 -496q-70 0 -140 19v131q74 -19 140 -19q62 0 94.5 21t32.5 55q0 72 -111 72h-78v237h119v-120q97 -11 153 -59t56 -126q0 -92 -72 -151.5t-194 -59.5z" />
    <glyph glyph-name="onesuperior" unicode="&#xb9;" horiz-adv-x="536" 
d="M403 860h-167v674h-175v149h342v-823z" />
    <glyph glyph-name="ordmasculine" unicode="&#xba;" horiz-adv-x="929" 
d="M465 700q-119 0 -208.5 55.5t-134 143.5t-44.5 191v26q0 161 107 276t280 115t280 -114.5t107 -276.5v-26q0 -103 -44.5 -191t-134 -143.5t-208.5 -55.5zM465 854q97 0 152 71t55 177q0 109 -55.5 179.5t-151.5 70.5t-151.5 -70.5t-55.5 -179.5q0 -107 54.5 -177.5
t152.5 -70.5z" />
    <glyph glyph-name="guillemotright" unicode="&#xbb;" horiz-adv-x="1110" 
d="M565 989h197l266 -405v-86l-278 -418h-185l279 436v37zM115 989h196l267 -405v-86l-279 -418h-184l278 436v37z" />
    <glyph glyph-name="onequarter" unicode="&#xbc;" horiz-adv-x="1683" 
d="M469 -45h-168l764 1438h168zM403 522h-167v674h-175v150h342v-824zM1536 0h-156v164h-454v168l338 508l133 -82l-295 -439l14 -20h264v291h156v-291h102v-135h-102v-164z" />
    <glyph glyph-name="onehalf" unicode="&#xbd;" horiz-adv-x="1757" 
d="M469 -45h-168l764 1438h168zM403 522h-167v674h-175v150h342v-824zM1679 0h-606v158q0 75 41 124.5t139 90.5l148 61q56 23 84 56t28 85q0 58 -39.5 95t-105.5 37t-104.5 -37t-38.5 -99h-162q0 124 82.5 199.5t222.5 75.5t222.5 -71.5t82.5 -188.5v-13q0 -93 -50 -155
t-163 -109l-147 -61q-40 -16 -58 -33.5t-18 -44.5v-25h442v-145z" />
    <glyph glyph-name="threequarters" unicode="&#xbe;" horiz-adv-x="1894" 
d="M680 -45h-168l764 1438h168zM381 502q-145 0 -232.5 74.5t-87.5 193.5h162q0 -58 43 -94.5t115 -36.5t115 38.5t43 98.5q0 61 -41.5 98t-114.5 37q-70 0 -113 -37l-80 127l277 183l-10 14h-359v148h578v-140l-266 -176q134 -6 213 -73.5t79 -180.5v-12
q0 -117 -87.5 -189.5t-233.5 -72.5zM1747 0h-156v164h-454v168l338 508l133 -82l-295 -439l14 -20h264v291h156v-291h102v-135h-102v-164z" />
    <glyph glyph-name="questiondown" unicode="&#xbf;" horiz-adv-x="1130" 
d="M498 1094h237v-250h-237v250zM518 647h197v-381h-142q-139 0 -212.5 -74.5t-73.5 -193.5q0 -124 76 -196t198 -72q136 0 217.5 80.5t81.5 207.5h189q0 -91 -31.5 -173t-90.5 -146.5t-153.5 -102.5t-212.5 -38q-209 0 -336 124.5t-127 303.5v24q0 166 109.5 281t308.5 135
z" />
    <glyph glyph-name="Agrave" unicode="&#xc0;" horiz-adv-x="1548" 
d="M860 1614h-184l-303 336h233zM258 0h-201l539 1495h340l555 -1495h-207l-164 446h-702zM481 627h572l-252 688h-76z" />
    <glyph glyph-name="Aacute" unicode="&#xc1;" horiz-adv-x="1548" 
d="M827 1614h-180l260 336h230zM258 0h-201l539 1495h340l555 -1495h-207l-164 446h-702zM481 627h572l-252 688h-76z" />
    <glyph glyph-name="Acircumflex" unicode="&#xc2;" horiz-adv-x="1548" 
d="M565 1614h-178l262 336h238l266 -336h-182l-189 237h-32zM258 0h-201l539 1495h340l555 -1495h-207l-164 446h-702zM481 627h572l-252 688h-76z" />
    <glyph glyph-name="Atilde" unicode="&#xc3;" horiz-adv-x="1548" 
d="M940 1663q-50 0 -95 14.5t-73 32.5t-67 32.5t-80 14.5q-50 0 -95.5 -22t-74.5 -60l-37 127q31 44 86.5 71.5t124.5 27.5q50 0 95 -15t72.5 -32.5t67 -32.5t80.5 -15q50 0 95.5 22t74.5 60l37 -127q-32 -43 -87.5 -70.5t-123.5 -27.5zM258 0h-201l539 1495h340l555 -1495
h-207l-164 446h-702zM481 627h572l-252 688h-76z" />
    <glyph glyph-name="Adieresis" unicode="&#xc4;" horiz-adv-x="1548" 
d="M549 1663q-63 0 -98 34t-35 91t35 91t98 34t98 -34t35 -91t-35 -91t-98 -34zM983 1663q-63 0 -98 34t-35 91t35 91t98 34t98 -34t35 -91t-35 -91t-98 -34zM258 0h-201l539 1495h340l555 -1495h-207l-164 446h-702zM481 627h572l-252 688h-76z" />
    <glyph glyph-name="Aring" unicode="&#xc5;" horiz-adv-x="1548" 
d="M766 1573q-110 0 -177 64t-67 157t67 157t177 64t177 -64t67 -157t-67 -157t-177 -64zM766 1679q60 0 94.5 32t34.5 83t-34.5 83t-94.5 32t-94.5 -32t-34.5 -83t34.5 -83t94.5 -32zM258 0h-201l539 1495h340l555 -1495h-207l-164 446h-702zM481 627h572l-252 688h-76z
" />
    <glyph glyph-name="AE" unicode="&#xc6;" horiz-adv-x="1990" 
d="M225 0h-200l591 1495h1227v-180h-661v-465h620v-180h-620v-490h682v-180h-885v506h-555zM496 688h483v627h-236z" />
    <glyph glyph-name="Ccedilla" unicode="&#xc7;" horiz-adv-x="1628" 
d="M854 -508q-79 0 -147 21v139q72 -21 147 -21q67 0 103 21t36 55q0 31 -31.5 49.5t-89.5 18.5h-81v190q-142 11 -258.5 64t-192.5 130t-128 175.5t-74.5 197t-22.5 197.5v45q0 111 25.5 217.5t83.5 206t142 174t210 119.5t278 45q294 0 469 -150t205 -409h-205
q-25 184 -152 279.5t-317 95.5q-129 0 -232 -46.5t-168.5 -128.5t-100 -191t-34.5 -236q0 -123 35 -230.5t101 -191.5t172 -132.5t239 -48.5q196 0 325.5 97.5t158.5 277.5h204q-15 -112 -62 -208.5t-124 -172t-191.5 -122.5t-254.5 -54v-65q100 -12 157.5 -60.5
t57.5 -128.5q0 -94 -77 -156.5t-206 -62.5z" />
    <glyph glyph-name="Egrave" unicode="&#xc8;" horiz-adv-x="1228" 
d="M756 1614h-185l-303 336h234zM1102 0h-885v1495h864v-180h-663v-465h620v-180h-620v-490h684v-180z" />
    <glyph glyph-name="Eacute" unicode="&#xc9;" horiz-adv-x="1228" 
d="M723 1614h-180l260 336h229zM1102 0h-885v1495h864v-180h-663v-465h620v-180h-620v-490h684v-180z" />
    <glyph glyph-name="Ecircumflex" unicode="&#xca;" horiz-adv-x="1228" 
d="M461 1614h-178l262 336h237l267 -336h-183l-188 237h-33zM1102 0h-885v1495h864v-180h-663v-465h620v-180h-620v-490h684v-180z" />
    <glyph glyph-name="Edieresis" unicode="&#xcb;" horiz-adv-x="1228" 
d="M444 1663q-63 0 -98 34t-35 91t35 91t98 34t98.5 -34t35.5 -91t-35.5 -91t-98.5 -34zM879 1663q-63 0 -98.5 34t-35.5 91t35.5 91t98.5 34t98 -34t35 -91t-35 -91t-98 -34zM1102 0h-885v1495h864v-180h-663v-465h620v-180h-620v-490h684v-180z" />
    <glyph glyph-name="Igrave" unicode="&#xcc;" horiz-adv-x="643" 
d="M416 1614h-185l-303 336h234zM422 0h-201v1495h201v-1495z" />
    <glyph glyph-name="Iacute" unicode="&#xcd;" horiz-adv-x="643" 
d="M383 1614h-180l260 336h229zM422 0h-201v1495h201v-1495z" />
    <glyph glyph-name="Icircumflex" unicode="&#xce;" horiz-adv-x="643" 
d="M121 1614h-178l262 336h237l267 -336h-183l-188 237h-33zM422 0h-201v1495h201v-1495z" />
    <glyph glyph-name="Idieresis" unicode="&#xcf;" horiz-adv-x="643" 
d="M104 1663q-63 0 -98 34t-35 91t35 91t98 34t98.5 -34t35.5 -91t-35.5 -91t-98.5 -34zM539 1663q-63 0 -98 34t-35 91t35 91t98 34t98 -34t35 -91t-35 -91t-98 -34zM422 0h-201v1495h201v-1495z" />
    <glyph glyph-name="Eth" unicode="&#xd0;" horiz-adv-x="1619" 
d="M729 -8h-512v674h-172v163h172v674h512q157 0 289.5 -41.5t225 -112t158 -164.5t96 -198.5t30.5 -214.5v-45q0 -108 -30.5 -212t-96 -199t-158 -167t-225.5 -114.5t-289 -42.5zM795 666h-377v-490h332q262 0 417.5 162.5t155.5 411.5q0 256 -154 412.5t-419 156.5h-332
v-490h377v-163z" />
    <glyph glyph-name="Ntilde" unicode="&#xd1;" horiz-adv-x="1738" 
d="M1081 1663q-50 0 -95 14.5t-72.5 32.5t-67 32.5t-80.5 14.5q-50 0 -95.5 -22t-74.5 -60l-37 127q31 44 86.5 71.5t124.5 27.5q50 0 95 -15t73 -32.5t67 -32.5t80 -15q50 0 95.5 22t74.5 60l37 -127q-32 -43 -87.5 -70.5t-123.5 -27.5zM406 0h-189v1495h328l760 -1315h24
v1315h193v-1495h-332l-760 1315h-24v-1315z" />
    <glyph glyph-name="Ograve" unicode="&#xd2;" horiz-adv-x="1771" 
d="M981 1614h-184l-303 336h233zM887 -37q-154 0 -285 48.5t-219 127t-150 179.5t-90 205.5t-28 205.5v45q0 109 29.5 216t92.5 206t152 174.5t218 120.5t280 45t280 -45t218 -120.5t152 -174.5t92.5 -206t29.5 -216v-45q0 -101 -28 -205.5t-90 -205.5t-150 -179.5
t-219 -127t-285 -48.5zM887 147q127 0 235.5 50t180 133.5t111.5 192.5t40 227q0 124 -40 234t-112 191.5t-179.5 129t-235.5 47.5q-170 0 -301 -81.5t-199 -217.5t-68 -303q0 -118 40 -227t112 -192.5t180.5 -133.5t235.5 -50z" />
    <glyph glyph-name="Oacute" unicode="&#xd3;" horiz-adv-x="1771" 
d="M948 1614h-180l260 336h229zM887 -37q-154 0 -285 48.5t-219 127t-150 179.5t-90 205.5t-28 205.5v45q0 109 29.5 216t92.5 206t152 174.5t218 120.5t280 45t280 -45t218 -120.5t152 -174.5t92.5 -206t29.5 -216v-45q0 -101 -28 -205.5t-90 -205.5t-150 -179.5t-219 -127
t-285 -48.5zM887 147q127 0 235.5 50t180 133.5t111.5 192.5t40 227q0 124 -40 234t-112 191.5t-179.5 129t-235.5 47.5q-170 0 -301 -81.5t-199 -217.5t-68 -303q0 -118 40 -227t112 -192.5t180.5 -133.5t235.5 -50z" />
    <glyph glyph-name="Ocircumflex" unicode="&#xd4;" horiz-adv-x="1771" 
d="M686 1614h-178l262 336h238l266 -336h-182l-189 237h-33zM887 -37q-154 0 -285 48.5t-219 127t-150 179.5t-90 205.5t-28 205.5v45q0 109 29.5 216t92.5 206t152 174.5t218 120.5t280 45t280 -45t218 -120.5t152 -174.5t92.5 -206t29.5 -216v-45q0 -101 -28 -205.5
t-90 -205.5t-150 -179.5t-219 -127t-285 -48.5zM887 147q127 0 235.5 50t180 133.5t111.5 192.5t40 227q0 124 -40 234t-112 191.5t-179.5 129t-235.5 47.5q-170 0 -301 -81.5t-199 -217.5t-68 -303q0 -118 40 -227t112 -192.5t180.5 -133.5t235.5 -50z" />
    <glyph glyph-name="Otilde" unicode="&#xd5;" horiz-adv-x="1771" 
d="M1061 1663q-50 0 -95 14.5t-73 32.5t-67.5 32.5t-80.5 14.5q-50 0 -95.5 -22t-74.5 -60l-36 127q31 44 86.5 71.5t124.5 27.5q50 0 95 -15t73 -32.5t67 -32.5t80 -15q50 0 95.5 22t74.5 60l37 -127q-32 -43 -87.5 -70.5t-123.5 -27.5zM887 -37q-154 0 -285 48.5t-219 127
t-150 179.5t-90 205.5t-28 205.5v45q0 109 29.5 216t92.5 206t152 174.5t218 120.5t280 45t280 -45t218 -120.5t152 -174.5t92.5 -206t29.5 -216v-45q0 -101 -28 -205.5t-90 -205.5t-150 -179.5t-219 -127t-285 -48.5zM887 147q127 0 235.5 50t180 133.5t111.5 192.5t40 227
q0 124 -40 234t-112 191.5t-179.5 129t-235.5 47.5q-170 0 -301 -81.5t-199 -217.5t-68 -303q0 -118 40 -227t112 -192.5t180.5 -133.5t235.5 -50z" />
    <glyph glyph-name="Odieresis" unicode="&#xd6;" horiz-adv-x="1771" 
d="M670 1663q-63 0 -98 34t-35 91t35 91t98 34t98 -34t35 -91t-35 -91t-98 -34zM1104 1663q-63 0 -98 34t-35 91t35 91t98 34t98 -34t35 -91t-35 -91t-98 -34zM887 -37q-154 0 -285 48.5t-219 127t-150 179.5t-90 205.5t-28 205.5v45q0 109 29.5 216t92.5 206t152 174.5
t218 120.5t280 45t280 -45t218 -120.5t152 -174.5t92.5 -206t29.5 -216v-45q0 -101 -28 -205.5t-90 -205.5t-150 -179.5t-219 -127t-285 -48.5zM887 147q127 0 235.5 50t180 133.5t111.5 192.5t40 227q0 124 -40 234t-112 191.5t-179.5 129t-235.5 47.5q-170 0 -301 -81.5
t-199 -217.5t-68 -303q0 -118 40 -227t112 -192.5t180.5 -133.5t235.5 -50z" />
    <glyph glyph-name="multiply" unicode="&#xd7;" horiz-adv-x="1208" 
d="M139 350l353 352l-353 351l117 116l352 -352l353 352l108 -108l-352 -352l352 -351l-117 -116l-352 352l-352 -352z" />
    <glyph glyph-name="Oslash" unicode="&#xd8;" horiz-adv-x="1771" 
d="M397 -106h-196l176 251q-128 113 -195 271t-67 313v45q0 109 29.5 216t92.5 206t152 174.5t218 120.5t280 45q222 0 391 -94l96 139h197l-162 -231q122 -111 186 -264t64 -312v-45q0 -101 -28 -205.5t-90 -205.5t-150 -179.5t-219 -127t-285 -48.5q-209 0 -379 90z
M319 750q0 -126 44 -241t126 -200l678 973q-124 70 -280 70q-170 0 -301 -81.5t-199 -217.5t-68 -303zM887 147q127 0 235.5 50t180 133.5t111.5 192.5t40 227q0 127 -41.5 238.5t-118.5 195.5l-676 -971q126 -66 269 -66z" />
    <glyph glyph-name="Ugrave" unicode="&#xd9;" horiz-adv-x="1615" 
d="M903 1614h-184l-303 336h233zM809 -37q-299 0 -460 170.5t-161 460.5v901h201v-926q0 -193 110.5 -307.5t309.5 -114.5q198 0 308 114t110 308v926h200v-901q0 -290 -159.5 -460.5t-458.5 -170.5z" />
    <glyph glyph-name="Uacute" unicode="&#xda;" horiz-adv-x="1615" 
d="M870 1614h-180l260 336h230zM809 -37q-299 0 -460 170.5t-161 460.5v901h201v-926q0 -193 110.5 -307.5t309.5 -114.5q198 0 308 114t110 308v926h200v-901q0 -290 -159.5 -460.5t-458.5 -170.5z" />
    <glyph glyph-name="Ucircumflex" unicode="&#xdb;" horiz-adv-x="1615" 
d="M608 1614h-178l262 336h238l266 -336h-182l-189 237h-32zM809 -37q-299 0 -460 170.5t-161 460.5v901h201v-926q0 -193 110.5 -307.5t309.5 -114.5q198 0 308 114t110 308v926h200v-901q0 -290 -159.5 -460.5t-458.5 -170.5z" />
    <glyph glyph-name="Udieresis" unicode="&#xdc;" horiz-adv-x="1615" 
d="M592 1663q-63 0 -98 34t-35 91t35 91t98 34t98 -34t35 -91t-35 -91t-98 -34zM1026 1663q-63 0 -98 34t-35 91t35 91t98 34t98 -34t35 -91t-35 -91t-98 -34zM809 -37q-299 0 -460 170.5t-161 460.5v901h201v-926q0 -193 110.5 -307.5t309.5 -114.5q198 0 308 114t110 308
v926h200v-901q0 -290 -159.5 -460.5t-458.5 -170.5z" />
    <glyph glyph-name="Yacute" unicode="&#xdd;" horiz-adv-x="1335" 
d="M723 1614h-180l260 336h229zM778 0h-196v582h-74l-475 913h209l389 -760h104l367 760h196l-446 -913h-74v-582z" />
    <glyph glyph-name="Thorn" unicode="&#xde;" horiz-adv-x="1273" 
d="M418 0h-201v1495h201v-262h246q254 0 393 -126t139 -333v-29q0 -207 -138.5 -332.5t-393.5 -125.5h-246v-287zM692 1057h-274v-592h274q151 0 225 78.5t74 216.5t-74 217.5t-225 79.5z" />
    <glyph glyph-name="germandbls" unicode="&#xdf;" horiz-adv-x="1273" 
d="M711 -25q-90 0 -191 19v168q105 -19 191 -19q140 0 212 74.5t72 194.5q0 137 -90.5 227t-242.5 90h-80v156h47q108 0 163.5 69t55.5 166t-56 166.5t-163 69.5q-115 0 -175.5 -85.5t-60.5 -219.5v-1051h-196v918h-123v155h125q11 213 122 332t304 119h8q127 0 222 -54.5
t142 -143t47 -196.5t-50 -189t-142 -124q165 -42 252.5 -151t87.5 -263q0 -192 -129 -310t-352 -118z" />
    <glyph glyph-name="agrave" unicode="&#xe0;" horiz-adv-x="1177" 
d="M680 1253h-168l-225 406h215zM492 -29q-187 0 -292.5 94t-105.5 263q0 172 116 262t331 90h276v27q0 112 -58 169.5t-171 57.5q-187 0 -367 -12v172q132 12 301 12q256 0 370 -94.5t114 -319.5v-692h-156v217q-71 -246 -358 -246zM532 127q117 0 198 66t87 213v126h-285
q-116 0 -180.5 -55.5t-64.5 -148.5q0 -92 64 -146.5t181 -54.5z" />
    <glyph glyph-name="aacute" unicode="&#xe1;" horiz-adv-x="1177" 
d="M631 1253h-160l180 406h207zM492 -29q-187 0 -292.5 94t-105.5 263q0 172 116 262t331 90h276v27q0 112 -58 169.5t-171 57.5q-187 0 -367 -12v172q132 12 301 12q256 0 370 -94.5t114 -319.5v-692h-156v217q-71 -246 -358 -246zM532 127q117 0 198 66t87 213v126h-285
q-116 0 -180.5 -55.5t-64.5 -148.5q0 -92 64 -146.5t181 -54.5z" />
    <glyph glyph-name="acircumflex" unicode="&#xe2;" horiz-adv-x="1177" 
d="M395 1253h-159l225 406h221l221 -406h-160l-163 308h-17zM492 -29q-187 0 -292.5 94t-105.5 263q0 172 116 262t331 90h276v27q0 112 -58 169.5t-171 57.5q-187 0 -367 -12v172q132 12 301 12q256 0 370 -94.5t114 -319.5v-692h-156v217q-71 -246 -358 -246zM532 127
q117 0 198 66t87 213v126h-285q-116 0 -180.5 -55.5t-64.5 -148.5q0 -92 64 -146.5t181 -54.5z" />
    <glyph glyph-name="atilde" unicode="&#xe3;" horiz-adv-x="1177" 
d="M711 1313q-45 0 -87 16t-68.5 35t-62 35t-69.5 16q-79 0 -143 -80l-33 131q75 93 182 93q45 0 87 -16t68.5 -35.5t62 -35.5t69.5 -16q81 0 145 80l33 -131q-74 -92 -184 -92zM492 -29q-187 0 -292.5 94t-105.5 263q0 172 116 262t331 90h276v27q0 112 -58 169.5
t-171 57.5q-187 0 -367 -12v172q132 12 301 12q256 0 370 -94.5t114 -319.5v-692h-156v217q-71 -246 -358 -246zM532 127q117 0 198 66t87 213v126h-285q-116 0 -180.5 -55.5t-64.5 -148.5q0 -92 64 -146.5t181 -54.5z" />
    <glyph glyph-name="adieresis" unicode="&#xe4;" horiz-adv-x="1177" 
d="M367 1319q-62 0 -94.5 33t-32.5 88t32.5 88t94.5 33t94.5 -33t32.5 -88t-32.5 -88t-94.5 -33zM776 1319q-62 0 -94.5 33t-32.5 88t32.5 88t94.5 33t94.5 -33t32.5 -88t-32.5 -88t-94.5 -33zM492 -29q-187 0 -292.5 94t-105.5 263q0 172 116 262t331 90h276v27
q0 112 -58 169.5t-171 57.5q-187 0 -367 -12v172q132 12 301 12q256 0 370 -94.5t114 -319.5v-692h-156v217q-71 -246 -358 -246zM532 127q117 0 198 66t87 213v126h-285q-116 0 -180.5 -55.5t-64.5 -148.5q0 -92 64 -146.5t181 -54.5z" />
    <glyph glyph-name="aring" unicode="&#xe5;" horiz-adv-x="1177" 
d="M571 1233q-102 0 -165.5 65t-63.5 164t63.5 164.5t165.5 65.5t166 -65.5t64 -164.5t-64 -164t-166 -65zM571 1339q54 0 86.5 34.5t32.5 88.5t-32.5 88.5t-86.5 34.5q-53 0 -85.5 -34t-32.5 -89t32.5 -89t85.5 -34zM492 -29q-187 0 -292.5 94t-105.5 263q0 172 116 262
t331 90h276v27q0 112 -58 169.5t-171 57.5q-187 0 -367 -12v172q132 12 301 12q256 0 370 -94.5t114 -319.5v-692h-156v217q-71 -246 -358 -246zM532 127q117 0 198 66t87 213v126h-285q-116 0 -180.5 -55.5t-64.5 -148.5q0 -92 64 -146.5t181 -54.5z" />
    <glyph glyph-name="ae" unicode="&#xe6;" horiz-adv-x="1955" 
d="M1358 -37q-335 0 -467 270q-38 -129 -141.5 -195.5t-257.5 -66.5q-187 0 -292.5 94t-105.5 263q0 172 116 262t331 90h276v27q0 227 -227 227q-189 0 -369 -12v172q132 12 301 12q171 0 271 -40.5t145 -133.5q136 194 408 194q101 0 187 -29t146.5 -79t103 -117.5
t63 -144.5t20.5 -160v-86h-865q9 -169 99 -270t258 -101q123 0 205 52.5t100 132.5h184q-35 -170 -165 -265.5t-324 -95.5zM1346 950q-139 0 -224.5 -78t-109.5 -215h659q-19 139 -102 216t-223 77zM532 127q117 0 198 66t87 213v126h-285q-116 0 -180.5 -55.5t-64.5 -148.5
q0 -92 64 -146.5t181 -54.5z" />
    <glyph glyph-name="ccedilla" unicode="&#xe7;" horiz-adv-x="1241" 
d="M641 -496q-69 0 -139 19v131q74 -19 139 -19q62 0 94.5 21t32.5 55q0 72 -111 72h-77v184q-94 11 -172.5 49t-133.5 93t-93.5 124t-56.5 143.5t-18 151.5v37q0 106 34.5 205t100.5 180.5t173 130.5t239 49q208 0 346.5 -113.5t151.5 -301.5h-188q-16 106 -97.5 172.5
t-212.5 66.5q-171 0 -260.5 -112t-89.5 -295q0 -117 37.5 -207t119 -145.5t197.5 -55.5q133 0 219.5 69.5t98.5 176.5h188q-10 -182 -140 -295.5t-325 -124.5v-65q97 -11 153 -59t56 -126q0 -92 -72 -151.5t-194 -59.5z" />
    <glyph glyph-name="egrave" unicode="&#xe8;" horiz-adv-x="1253" 
d="M750 1253h-168l-226 406h215zM653 -37q-112 0 -204.5 32.5t-155 87t-105.5 127.5t-62.5 153t-19.5 165v37q0 87 20 167.5t63 153.5t104.5 127t151 85.5t196.5 31.5q128 0 230 -44.5t164.5 -120t95 -169.5t32.5 -198v-88h-868q10 -170 99 -272.5t259 -102.5q124 0 207 55
t101 136h184q-35 -170 -166.5 -266.5t-325.5 -96.5zM641 958q-143 0 -228.5 -80.5t-109.5 -220.5h668q-19 143 -102.5 222t-227.5 79z" />
    <glyph glyph-name="eacute" unicode="&#xe9;" horiz-adv-x="1253" 
d="M700 1253h-159l180 406h207zM653 -37q-112 0 -204.5 32.5t-155 87t-105.5 127.5t-62.5 153t-19.5 165v37q0 87 20 167.5t63 153.5t104.5 127t151 85.5t196.5 31.5q128 0 230 -44.5t164.5 -120t95 -169.5t32.5 -198v-88h-868q10 -170 99 -272.5t259 -102.5q124 0 207 55
t101 136h184q-35 -170 -166.5 -266.5t-325.5 -96.5zM641 958q-143 0 -228.5 -80.5t-109.5 -220.5h668q-19 143 -102.5 222t-227.5 79z" />
    <glyph glyph-name="ecircumflex" unicode="&#xea;" horiz-adv-x="1253" 
d="M465 1253h-160l225 406h222l221 -406h-160l-164 308h-16zM653 -37q-112 0 -204.5 32.5t-155 87t-105.5 127.5t-62.5 153t-19.5 165v37q0 87 20 167.5t63 153.5t104.5 127t151 85.5t196.5 31.5q128 0 230 -44.5t164.5 -120t95 -169.5t32.5 -198v-88h-868
q10 -170 99 -272.5t259 -102.5q124 0 207 55t101 136h184q-35 -170 -166.5 -266.5t-325.5 -96.5zM641 958q-143 0 -228.5 -80.5t-109.5 -220.5h668q-19 143 -102.5 222t-227.5 79z" />
    <glyph glyph-name="edieresis" unicode="&#xeb;" horiz-adv-x="1253" 
d="M436 1319q-62 0 -94.5 33t-32.5 88t32.5 88t94.5 33t94.5 -33t32.5 -88t-32.5 -88t-94.5 -33zM846 1319q-62 0 -94.5 33t-32.5 88t32.5 88t94.5 33t94.5 -33t32.5 -88t-32.5 -88t-94.5 -33zM653 -37q-112 0 -204.5 32.5t-155 87t-105.5 127.5t-62.5 153t-19.5 165v37
q0 87 20 167.5t63 153.5t104.5 127t151 85.5t196.5 31.5q128 0 230 -44.5t164.5 -120t95 -169.5t32.5 -198v-88h-868q10 -170 99 -272.5t259 -102.5q124 0 207 55t101 136h184q-35 -170 -166.5 -266.5t-325.5 -96.5zM641 958q-143 0 -228.5 -80.5t-109.5 -220.5h668
q-19 143 -102.5 222t-227.5 79z" />
    <glyph glyph-name="igrave" unicode="&#xec;" horiz-adv-x="630" 
d="M383 1253h-168l-225 406h215zM438 0h-196v938h-168v156h364v-1094z" />
    <glyph glyph-name="iacute" unicode="&#xed;" horiz-adv-x="630" 
d="M334 1253h-160l180 406h207zM438 0h-196v938h-168v156h364v-1094z" />
    <glyph glyph-name="icircumflex" unicode="&#xee;" horiz-adv-x="630" 
d="M98 1253h-159l225 406h221l221 -406h-160l-163 308h-17zM438 0h-196v938h-168v156h364v-1094z" />
    <glyph glyph-name="idieresis" unicode="&#xef;" horiz-adv-x="630" 
d="M70 1319q-62 0 -94.5 33t-32.5 88t32.5 88t94.5 33t94.5 -33t32.5 -88t-32.5 -88t-94.5 -33zM479 1319q-62 0 -94.5 33t-32.5 88t32.5 88t94.5 33t94.5 -33t32.5 -88t-32.5 -88t-94.5 -33zM438 0h-196v938h-168v156h364v-1094z" />
    <glyph glyph-name="eth" unicode="&#xf0;" horiz-adv-x="1327" 
d="M666 -41q-144 0 -255 46.5t-175.5 124t-97 169.5t-32.5 193v40q0 103 34.5 196t99.5 167t169 118t232 44q153 0 255.5 -63t145.5 -171q-8 160 -35 261.5t-85 160.5l-183 -151l-69 86l155 131q-85 37 -215 37q-101 0 -227 -17v156q118 16 227 16q211 0 344 -86l187 156
l69 -86l-170 -141q177 -194 177 -687v-53q0 -142 -30.5 -256.5t-94.5 -203.5t-172 -138t-254 -49zM666 135q177 0 269.5 101.5t92.5 275.5t-95.5 275.5t-270.5 101.5q-174 0 -266.5 -101t-92.5 -276q0 -174 93 -275.5t270 -101.5z" />
    <glyph glyph-name="ntilde" unicode="&#xf1;" horiz-adv-x="1310" 
d="M811 1313q-45 0 -87 16t-68.5 35t-62 35t-69.5 16q-79 0 -143 -80l-33 131q75 93 182 93q45 0 87 -16t68.5 -35.5t62 -35.5t69.5 -16q82 0 146 80l32 -131q-74 -92 -184 -92zM385 0h-197v1094h156v-254q75 286 381 286h8q203 0 304.5 -127.5t101.5 -373.5v-625h-197v666
q0 128 -72 204t-196 76q-129 0 -209 -80.5t-80 -212.5v-653z" />
    <glyph glyph-name="ograve" unicode="&#xf2;" horiz-adv-x="1384" 
d="M801 1253h-168l-225 406h215zM692 -37q-111 0 -207 32t-164.5 87t-117.5 127.5t-73 153.5t-24 165v37q0 106 40 207t113 181t186 128.5t247 48.5t247 -48.5t186 -128.5t113 -181t40 -207v-37q0 -84 -24 -165t-73 -153.5t-117.5 -127.5t-164.5 -87t-207 -32zM692 139
q180 0 284.5 115.5t104.5 292.5q0 178 -106 292.5t-283 114.5t-283 -114.5t-106 -292.5q0 -177 104.5 -292.5t284.5 -115.5z" />
    <glyph glyph-name="oacute" unicode="&#xf3;" horiz-adv-x="1384" 
d="M752 1253h-160l180 406h207zM692 -37q-111 0 -207 32t-164.5 87t-117.5 127.5t-73 153.5t-24 165v37q0 106 40 207t113 181t186 128.5t247 48.5t247 -48.5t186 -128.5t113 -181t40 -207v-37q0 -84 -24 -165t-73 -153.5t-117.5 -127.5t-164.5 -87t-207 -32zM692 139
q180 0 284.5 115.5t104.5 292.5q0 178 -106 292.5t-283 114.5t-283 -114.5t-106 -292.5q0 -177 104.5 -292.5t284.5 -115.5z" />
    <glyph glyph-name="ocircumflex" unicode="&#xf4;" horiz-adv-x="1384" 
d="M516 1253h-160l226 406h221l221 -406h-160l-164 308h-16zM692 -37q-111 0 -207 32t-164.5 87t-117.5 127.5t-73 153.5t-24 165v37q0 106 40 207t113 181t186 128.5t247 48.5t247 -48.5t186 -128.5t113 -181t40 -207v-37q0 -84 -24 -165t-73 -153.5t-117.5 -127.5
t-164.5 -87t-207 -32zM692 139q180 0 284.5 115.5t104.5 292.5q0 178 -106 292.5t-283 114.5t-283 -114.5t-106 -292.5q0 -177 104.5 -292.5t284.5 -115.5z" />
    <glyph glyph-name="otilde" unicode="&#xf5;" horiz-adv-x="1384" 
d="M831 1313q-45 0 -86.5 16t-68 35t-62 35t-69.5 16q-80 0 -144 -80l-32 131q75 93 182 93q45 0 87 -16t68.5 -35.5t62 -35.5t69.5 -16q81 0 145 80l33 -131q-74 -92 -185 -92zM692 -37q-111 0 -207 32t-164.5 87t-117.5 127.5t-73 153.5t-24 165v37q0 106 40 207t113 181
t186 128.5t247 48.5t247 -48.5t186 -128.5t113 -181t40 -207v-37q0 -84 -24 -165t-73 -153.5t-117.5 -127.5t-164.5 -87t-207 -32zM692 139q180 0 284.5 115.5t104.5 292.5q0 178 -106 292.5t-283 114.5t-283 -114.5t-106 -292.5q0 -177 104.5 -292.5t284.5 -115.5z" />
    <glyph glyph-name="odieresis" unicode="&#xf6;" horiz-adv-x="1384" 
d="M487 1319q-62 0 -94.5 33t-32.5 88t32.5 88t94.5 33t94.5 -33t32.5 -88t-32.5 -88t-94.5 -33zM897 1319q-62 0 -94.5 33t-32.5 88t32.5 88t94.5 33t94.5 -33t32.5 -88t-32.5 -88t-94.5 -33zM692 -37q-111 0 -207 32t-164.5 87t-117.5 127.5t-73 153.5t-24 165v37
q0 106 40 207t113 181t186 128.5t247 48.5t247 -48.5t186 -128.5t113 -181t40 -207v-37q0 -84 -24 -165t-73 -153.5t-117.5 -127.5t-164.5 -87t-207 -32zM692 139q180 0 284.5 115.5t104.5 292.5q0 178 -106 292.5t-283 114.5t-283 -114.5t-106 -292.5q0 -177 104.5 -292.5
t284.5 -115.5z" />
    <glyph glyph-name="divide" unicode="&#xf7;" horiz-adv-x="1208" 
d="M711 999h-213v230h213v-230zM1073 627h-938v155h938v-155zM711 180h-213v230h213v-230z" />
    <glyph glyph-name="oslash" unicode="&#xf8;" horiz-adv-x="1384" 
d="M319 -106h-167l145 208q-92 82 -141.5 194.5t-49.5 231.5v37q0 106 40 207t113 181t186 128.5t247 48.5q155 0 277 -61l92 131h168l-146 -209q94 -81 144.5 -193.5t50.5 -232.5v-37q0 -84 -24 -165t-73 -153.5t-117.5 -127.5t-164.5 -87t-207 -32q-155 0 -280 64z
M303 547q0 -177 103 -289l458 662q-72 34 -172 34q-177 0 -283 -114.5t-106 -292.5zM692 139q180 0 284.5 115.5t104.5 292.5q0 181 -104 291l-461 -662q75 -37 176 -37z" />
    <glyph glyph-name="ugrave" unicode="&#xf9;" horiz-adv-x="1286" 
d="M737 1253h-168l-225 406h215zM575 -33h-8q-195 0 -299 127.5t-104 366.5v635h196v-674q0 -128 69.5 -201.5t188.5 -73.5q124 0 201.5 80t77.5 215v654h197v-1096h-156v252q-75 -285 -363 -285z" />
    <glyph glyph-name="uacute" unicode="&#xfa;" horiz-adv-x="1286" 
d="M688 1253h-160l181 406h206zM575 -33h-8q-195 0 -299 127.5t-104 366.5v635h196v-674q0 -128 69.5 -201.5t188.5 -73.5q124 0 201.5 80t77.5 215v654h197v-1096h-156v252q-75 -285 -363 -285z" />
    <glyph glyph-name="ucircumflex" unicode="&#xfb;" horiz-adv-x="1286" 
d="M453 1253h-160l225 406h221l222 -406h-160l-164 308h-16zM575 -33h-8q-195 0 -299 127.5t-104 366.5v635h196v-674q0 -128 69.5 -201.5t188.5 -73.5q124 0 201.5 80t77.5 215v654h197v-1096h-156v252q-75 -285 -363 -285z" />
    <glyph glyph-name="udieresis" unicode="&#xfc;" horiz-adv-x="1286" 
d="M424 1319q-62 0 -94.5 33t-32.5 88t32.5 88t94.5 33t94.5 -33t32.5 -88t-32.5 -88t-94.5 -33zM834 1319q-62 0 -94.5 33t-32.5 88t32.5 88t94.5 33t94.5 -33t32.5 -88t-32.5 -88t-94.5 -33zM575 -33h-8q-195 0 -299 127.5t-104 366.5v635h196v-674q0 -128 69.5 -201.5
t188.5 -73.5q124 0 201.5 80t77.5 215v654h197v-1096h-156v252q-75 -285 -363 -285z" />
    <glyph glyph-name="yacute" unicode="&#xfd;" horiz-adv-x="1120" 
d="M616 1253h-159l180 406h207zM260 -426h-145v176h157q104 0 162 41.5t88 142.5l27 91h-121l-391 1069h201l317 -906h43l268 906h193l-365 -1211q-49 -160 -156.5 -234.5t-277.5 -74.5z" />
    <glyph glyph-name="thorn" unicode="&#xfe;" horiz-adv-x="1411" 
d="M385 -410h-197v1905h197v-592q61 115 167 173.5t239 58.5q230 0 372 -160t142 -408v-41q0 -243 -148.5 -401t-378.5 -158q-124 0 -226 49t-167 150v-576zM743 139q163 0 264 117t101 299q0 183 -101 295.5t-264 112.5q-154 0 -260 -101.5t-106 -269.5v-94
q0 -163 106.5 -261t259.5 -98z" />
    <glyph glyph-name="ydieresis" unicode="&#xff;" horiz-adv-x="1120" 
d="M352 1319q-62 0 -94.5 33t-32.5 88t32.5 88t94.5 33t94.5 -33t32.5 -88t-32.5 -88t-94.5 -33zM762 1319q-62 0 -94.5 33t-32.5 88t32.5 88t94.5 33t94.5 -33t32.5 -88t-32.5 -88t-94.5 -33zM260 -426h-145v176h157q104 0 162 41.5t88 142.5l27 91h-121l-391 1069h201
l317 -906h43l268 906h193l-365 -1211q-49 -160 -156.5 -234.5t-277.5 -74.5z" />
    <glyph glyph-name="Amacron" unicode="&#x100;" horiz-adv-x="1548" 
d="M1106 1708h-680v141h680v-141zM258 0h-201l539 1495h340l555 -1495h-207l-164 446h-702zM481 627h572l-252 688h-76z" />
    <glyph glyph-name="amacron" unicode="&#x101;" horiz-adv-x="1177" 
d="M856 1364h-569v141h569v-141zM492 -29q-187 0 -292.5 94t-105.5 263q0 172 116 262t331 90h276v27q0 112 -58 169.5t-171 57.5q-187 0 -367 -12v172q132 12 301 12q256 0 370 -94.5t114 -319.5v-692h-156v217q-71 -246 -358 -246zM532 127q117 0 198 66t87 213v126h-285
q-116 0 -180.5 -55.5t-64.5 -148.5q0 -92 64 -146.5t181 -54.5z" />
    <glyph glyph-name="Abreve" unicode="&#x102;" horiz-adv-x="1548" 
d="M766 1602q-165 0 -248.5 96t-91.5 252h139q5 -97 53 -157t148 -60q101 0 154.5 61t58.5 156h127q-8 -156 -91.5 -252t-248.5 -96zM258 0h-201l539 1495h340l555 -1495h-207l-164 446h-702zM481 627h572l-252 688h-76z" />
    <glyph glyph-name="abreve" unicode="&#x103;" horiz-adv-x="1177" 
d="M573 1241q-151 0 -230 107.5t-85 310.5h135q16 -287 180 -287q84 0 130.5 74t54.5 213h127q-13 -418 -312 -418zM492 -29q-187 0 -292.5 94t-105.5 263q0 172 116 262t331 90h276v27q0 112 -58 169.5t-171 57.5q-187 0 -367 -12v172q132 12 301 12q256 0 370 -94.5
t114 -319.5v-692h-156v217q-71 -246 -358 -246zM532 127q117 0 198 66t87 213v126h-285q-116 0 -180.5 -55.5t-64.5 -148.5q0 -92 64 -146.5t181 -54.5z" />
    <glyph glyph-name="Aogonek" unicode="&#x104;" horiz-adv-x="1548" 
d="M258 0h-201l539 1495h340l555 -1495h-16l-68 -47q-66 -46 -101.5 -100.5t-35.5 -108.5q0 -51 32.5 -86t92.5 -35q55 0 104 19v-144q-56 -18 -117 -18q-113 0 -184.5 69.5t-71.5 174.5q0 153 156 280l-162 442h-702zM481 627h572l-252 688h-76z" />
    <glyph glyph-name="aogonek" unicode="&#x105;" horiz-adv-x="1177" 
d="M492 -29q-187 0 -292.5 94t-105.5 263q0 172 116 262t331 90h276v27q0 112 -58 169.5t-171 57.5q-187 0 -367 -12v172q132 12 301 12q256 0 370 -94.5t114 -319.5v-692l-58 -47q-74 -60 -106.5 -109t-32.5 -100q0 -100 106 -100q59 0 111 18v-139q-59 -19 -119 -19
q-109 0 -173 58t-64 162q0 81 44 146t136 138v209q-71 -246 -358 -246zM532 127q117 0 198 66t87 213v126h-285q-116 0 -180.5 -55.5t-64.5 -148.5q0 -92 64 -146.5t181 -54.5z" />
    <glyph glyph-name="Cacute" unicode="&#x106;" horiz-adv-x="1628" 
d="M915 1614h-180l260 336h230zM866 -37q-158 0 -288 48t-214 125.5t-142 179t-82.5 205t-24.5 208.5v45q0 111 25.5 217.5t83.5 206t142 174t210 119.5t278 45q294 0 469 -150t205 -409h-205q-25 184 -152 279.5t-317 95.5q-129 0 -232 -46.5t-168.5 -128.5t-100 -191
t-34.5 -236q0 -123 35 -230.5t101 -191.5t172 -132.5t239 -48.5q196 0 325.5 97.5t158.5 277.5h204q-16 -117 -67 -217t-135 -177t-209 -121t-277 -44z" />
    <glyph glyph-name="cacute" unicode="&#x107;" horiz-adv-x="1241" 
d="M713 1253h-160l180 406h207zM657 -37q-135 0 -243.5 50t-173.5 132t-99.5 180.5t-34.5 202.5v37q0 106 34.5 205t100.5 180.5t173 130.5t239 49q208 0 346.5 -113.5t151.5 -301.5h-188q-16 106 -97.5 172.5t-212.5 66.5q-171 0 -260.5 -112t-89.5 -295q0 -117 37.5 -207
t119 -145.5t197.5 -55.5q133 0 219.5 69.5t98.5 176.5h188q-7 -126 -75.5 -223t-180.5 -148t-250 -51z" />
    <glyph glyph-name="Ccircumflex" unicode="&#x108;" horiz-adv-x="1628" 
d="M653 1614h-178l262 336h238l266 -336h-182l-189 237h-32zM866 -37q-158 0 -288 48t-214 125.5t-142 179t-82.5 205t-24.5 208.5v45q0 111 25.5 217.5t83.5 206t142 174t210 119.5t278 45q294 0 469 -150t205 -409h-205q-25 184 -152 279.5t-317 95.5q-129 0 -232 -46.5
t-168.5 -128.5t-100 -191t-34.5 -236q0 -123 35 -230.5t101 -191.5t172 -132.5t239 -48.5q196 0 325.5 97.5t158.5 277.5h204q-16 -117 -67 -217t-135 -177t-209 -121t-277 -44z" />
    <glyph glyph-name="ccircumflex" unicode="&#x109;" horiz-adv-x="1241" 
d="M477 1253h-160l226 406h221l221 -406h-160l-163 308h-17zM657 -37q-135 0 -243.5 50t-173.5 132t-99.5 180.5t-34.5 202.5v37q0 106 34.5 205t100.5 180.5t173 130.5t239 49q208 0 346.5 -113.5t151.5 -301.5h-188q-16 106 -97.5 172.5t-212.5 66.5q-171 0 -260.5 -112
t-89.5 -295q0 -117 37.5 -207t119 -145.5t197.5 -55.5q133 0 219.5 69.5t98.5 176.5h188q-7 -126 -75.5 -223t-180.5 -148t-250 -51z" />
    <glyph glyph-name="Cdotaccent" unicode="&#x10a;" horiz-adv-x="1628" 
d="M854 1663q-63 0 -98 34t-35 91t35 91t98 34t98 -34t35 -91t-35 -91t-98 -34zM866 -37q-158 0 -288 48t-214 125.5t-142 179t-82.5 205t-24.5 208.5v45q0 111 25.5 217.5t83.5 206t142 174t210 119.5t278 45q294 0 469 -150t205 -409h-205q-25 184 -152 279.5t-317 95.5
q-129 0 -232 -46.5t-168.5 -128.5t-100 -191t-34.5 -236q0 -123 35 -230.5t101 -191.5t172 -132.5t239 -48.5q196 0 325.5 97.5t158.5 277.5h204q-16 -117 -67 -217t-135 -177t-209 -121t-277 -44z" />
    <glyph glyph-name="cdotaccent" unicode="&#x10b;" horiz-adv-x="1241" 
d="M653 1319q-62 0 -94.5 33t-32.5 88t32.5 88t94.5 33t94.5 -33t32.5 -88t-32.5 -88t-94.5 -33zM657 -37q-135 0 -243.5 50t-173.5 132t-99.5 180.5t-34.5 202.5v37q0 106 34.5 205t100.5 180.5t173 130.5t239 49q208 0 346.5 -113.5t151.5 -301.5h-188
q-16 106 -97.5 172.5t-212.5 66.5q-171 0 -260.5 -112t-89.5 -295q0 -117 37.5 -207t119 -145.5t197.5 -55.5q133 0 219.5 69.5t98.5 176.5h188q-7 -126 -75.5 -223t-180.5 -148t-250 -51z" />
    <glyph glyph-name="Ccaron" unicode="&#x10c;" horiz-adv-x="1628" 
d="M967 1614h-230l-268 336h182l187 -238h32l166 238h178zM866 -37q-158 0 -288 48t-214 125.5t-142 179t-82.5 205t-24.5 208.5v45q0 111 25.5 217.5t83.5 206t142 174t210 119.5t278 45q294 0 469 -150t205 -409h-205q-25 184 -152 279.5t-317 95.5q-129 0 -232 -46.5
t-168.5 -128.5t-100 -191t-34.5 -236q0 -123 35 -230.5t101 -191.5t172 -132.5t239 -48.5q196 0 325.5 97.5t158.5 277.5h204q-16 -117 -67 -217t-135 -177t-209 -121t-277 -44z" />
    <glyph glyph-name="ccaron" unicode="&#x10d;" horiz-adv-x="1241" 
d="M762 1253h-217l-226 406h162l168 -307h17l141 307h154zM657 -37q-135 0 -243.5 50t-173.5 132t-99.5 180.5t-34.5 202.5v37q0 106 34.5 205t100.5 180.5t173 130.5t239 49q208 0 346.5 -113.5t151.5 -301.5h-188q-16 106 -97.5 172.5t-212.5 66.5q-171 0 -260.5 -112
t-89.5 -295q0 -117 37.5 -207t119 -145.5t197.5 -55.5q133 0 219.5 69.5t98.5 176.5h188q-7 -126 -75.5 -223t-180.5 -148t-250 -51z" />
    <glyph glyph-name="Dcaron" unicode="&#x10e;" horiz-adv-x="1619" 
d="M883 1614h-230l-268 336h182l187 -238h32l166 238h178zM729 -8h-512v1511h512q157 0 289.5 -41.5t225 -112t158 -164.5t96 -198.5t30.5 -214.5v-45q0 -108 -30.5 -212t-96 -199t-158 -167t-225.5 -114.5t-289 -42.5zM750 1319h-332v-1143h332q262 0 417.5 162.5
t155.5 411.5q0 256 -154 412.5t-419 156.5z" />
    <glyph glyph-name="dcaron" unicode="&#x10f;" horiz-adv-x="1411" 
d="M1522 1171h-136v492h160zM645 -37q-114 0 -215 44t-171.5 120t-111.5 180t-41 221v37q0 155 66.5 283.5t189.5 205t277 76.5q124 0 225 -50.5t162 -151.5v567h197v-1495h-156v225q-60 -132 -172 -197t-250 -65zM672 135q155 0 258.5 103t103.5 272v94q0 163 -105.5 258.5
t-258.5 95.5q-165 0 -266 -112.5t-101 -298.5q0 -187 103 -299.5t266 -112.5z" />
    <glyph glyph-name="Dcroat" unicode="&#x110;" horiz-adv-x="1619" 
d="M729 -8h-512v674h-172v163h172v674h512q157 0 289.5 -41.5t225 -112t158 -164.5t96 -198.5t30.5 -214.5v-45q0 -108 -30.5 -212t-96 -199t-158 -167t-225.5 -114.5t-289 -42.5zM795 666h-377v-490h332q262 0 417.5 162.5t155.5 411.5q0 256 -154 412.5t-419 156.5h-332
v-490h377v-163z" />
    <glyph glyph-name="dcroat" unicode="&#x111;" horiz-adv-x="1411" 
d="M645 -37q-114 0 -215 44t-171.5 120t-111.5 180t-41 221v37q0 155 66.5 283.5t189.5 205t277 76.5q124 0 225 -50.5t162 -151.5v323h-373v131h373v113h197v-113h143v-131h-143v-1251h-156v225q-60 -132 -172 -197t-250 -65zM672 135q155 0 258.5 103t103.5 272v94
q0 163 -105.5 258.5t-258.5 95.5q-165 0 -266 -112.5t-101 -298.5q0 -187 103 -299.5t266 -112.5z" />
    <glyph glyph-name="Emacron" unicode="&#x112;" horiz-adv-x="1228" 
d="M1001 1708h-679v141h679v-141zM1102 0h-885v1495h864v-180h-663v-465h620v-180h-620v-490h684v-180z" />
    <glyph glyph-name="emacron" unicode="&#x113;" horiz-adv-x="1253" 
d="M926 1364h-570v141h570v-141zM653 -37q-112 0 -204.5 32.5t-155 87t-105.5 127.5t-62.5 153t-19.5 165v37q0 87 20 167.5t63 153.5t104.5 127t151 85.5t196.5 31.5q128 0 230 -44.5t164.5 -120t95 -169.5t32.5 -198v-88h-868q10 -170 99 -272.5t259 -102.5q124 0 207 55
t101 136h184q-35 -170 -166.5 -266.5t-325.5 -96.5zM641 958q-143 0 -228.5 -80.5t-109.5 -220.5h668q-19 143 -102.5 222t-227.5 79z" />
    <glyph glyph-name="Ebreve" unicode="&#x114;" horiz-adv-x="1228" 
d="M662 1602q-165 0 -248.5 96t-91.5 252h139q5 -97 53 -157t148 -60q101 0 154 61t58 156h127q-8 -156 -91 -252t-248 -96zM1102 0h-885v1495h864v-180h-663v-465h620v-180h-620v-490h684v-180z" />
    <glyph glyph-name="ebreve" unicode="&#x115;" horiz-adv-x="1253" 
d="M643 1241q-151 0 -230 107.5t-85 310.5h135q16 -287 180 -287q168 0 184 287h127q-13 -418 -311 -418zM653 -37q-112 0 -204.5 32.5t-155 87t-105.5 127.5t-62.5 153t-19.5 165v37q0 87 20 167.5t63 153.5t104.5 127t151 85.5t196.5 31.5q128 0 230 -44.5t164.5 -120
t95 -169.5t32.5 -198v-88h-868q10 -170 99 -272.5t259 -102.5q124 0 207 55t101 136h184q-35 -170 -166.5 -266.5t-325.5 -96.5zM641 958q-143 0 -228.5 -80.5t-109.5 -220.5h668q-19 143 -102.5 222t-227.5 79z" />
    <glyph glyph-name="Edotaccent" unicode="&#x116;" horiz-adv-x="1228" 
d="M662 1663q-63 0 -98.5 34t-35.5 91t35.5 91t98.5 34t98 -34t35 -91t-35 -91t-98 -34zM1102 0h-885v1495h864v-180h-663v-465h620v-180h-620v-490h684v-180z" />
    <glyph glyph-name="edotaccent" unicode="&#x117;" horiz-adv-x="1253" 
d="M641 1319q-62 0 -94.5 33t-32.5 88t32.5 88t94.5 33t94.5 -33t32.5 -88t-32.5 -88t-94.5 -33zM653 -37q-112 0 -204.5 32.5t-155 87t-105.5 127.5t-62.5 153t-19.5 165v37q0 87 20 167.5t63 153.5t104.5 127t151 85.5t196.5 31.5q128 0 230 -44.5t164.5 -120t95 -169.5
t32.5 -198v-88h-868q10 -170 99 -272.5t259 -102.5q124 0 207 55t101 136h184q-35 -170 -166.5 -266.5t-325.5 -96.5zM641 958q-143 0 -228.5 -80.5t-109.5 -220.5h668q-19 143 -102.5 222t-227.5 79z" />
    <glyph glyph-name="Eogonek" unicode="&#x118;" horiz-adv-x="1228" 
d="M1010 -520q-113 0 -184.5 69.5t-71.5 174.5q0 151 151 276h-688v1495h864v-180h-663v-465h620v-180h-620v-490h684v-180l-68 -47q-66 -46 -101.5 -100.5t-35.5 -108.5q0 -51 32.5 -86t92.5 -35q55 0 104 19v-144q-56 -18 -116 -18z" />
    <glyph glyph-name="eogonek" unicode="&#x119;" horiz-adv-x="1253" 
d="M653 -37q-112 0 -204.5 32.5t-155 87t-105.5 127.5t-62.5 153t-19.5 165v37q0 87 20 167.5t63 153.5t104.5 127t151 85.5t196.5 31.5q128 0 230 -44.5t164.5 -120t95 -169.5t32.5 -198v-88h-868q10 -170 99 -272.5t259 -102.5q124 0 207 55t101 136h184
q-35 -162 -150 -254l4 -6l-57 -48q-74 -60 -106.5 -108.5t-32.5 -99.5q0 -49 27.5 -75t78.5 -26q56 0 111 19v-140q-56 -18 -119 -18q-109 0 -173 57.5t-64 161.5q0 97 69 178q-54 -4 -80 -4zM641 958q-143 0 -228.5 -80.5t-109.5 -220.5h668q-19 143 -102.5 222t-227.5 79z
" />
    <glyph glyph-name="Ecaron" unicode="&#x11a;" horiz-adv-x="1228" 
d="M774 1614h-229l-269 336h183l186 -238h33l166 238h178zM1102 0h-885v1495h864v-180h-663v-465h620v-180h-620v-490h684v-180z" />
    <glyph glyph-name="ecaron" unicode="&#x11b;" horiz-adv-x="1253" 
d="M750 1253h-218l-225 406h162l168 -307h16l142 307h153zM653 -37q-112 0 -204.5 32.5t-155 87t-105.5 127.5t-62.5 153t-19.5 165v37q0 87 20 167.5t63 153.5t104.5 127t151 85.5t196.5 31.5q128 0 230 -44.5t164.5 -120t95 -169.5t32.5 -198v-88h-868q10 -170 99 -272.5
t259 -102.5q124 0 207 55t101 136h184q-35 -170 -166.5 -266.5t-325.5 -96.5zM641 958q-143 0 -228.5 -80.5t-109.5 -220.5h668q-19 143 -102.5 222t-227.5 79z" />
    <glyph glyph-name="Gcircumflex" unicode="&#x11c;" horiz-adv-x="1701" 
d="M647 1614h-178l262 336h238l266 -336h-182l-189 237h-33zM885 -37q-171 0 -315.5 58.5t-244 161t-155 246t-55.5 310.5v45q0 96 23 189t65.5 176.5t107.5 154.5t145 122.5t181.5 80.5t214.5 29q278 0 461.5 -155t206.5 -404h-205q-21 179 -152 277t-311 98
q-236 0 -384.5 -162.5t-148.5 -429.5q0 -299 155.5 -458t410.5 -159q132 0 243.5 42.5t188.5 117.5v254h-486v168h801v-168h-127v-315q-101 -134 -260 -206.5t-360 -72.5z" />
    <glyph glyph-name="gcircumflex" unicode="&#x11d;" horiz-adv-x="1382" 
d="M518 1253h-160l226 406h221l221 -406h-160l-164 308h-16zM602 -426q-148 0 -299 23v165q168 -24 307 -24q222 0 315 89.5t93 293.5v98q-58 -112 -161.5 -169.5t-231.5 -57.5q-150 0 -269.5 76.5t-184.5 204t-65 278.5v37q0 232 149 387t380 155q143 0 251 -64t165 -183
v211h155v-965q0 -296 -139.5 -425.5t-464.5 -129.5zM662 172q151 0 253.5 98t102.5 262v95q0 157 -103.5 248.5t-250.5 91.5q-162 0 -261.5 -109.5t-99.5 -288.5q0 -181 100 -289t259 -108z" />
    <glyph glyph-name="Gbreve" unicode="&#x11e;" horiz-adv-x="1701" 
d="M848 1602q-165 0 -248.5 96t-91.5 252h139q5 -97 53 -157t148 -60q101 0 154.5 61t58.5 156h127q-8 -156 -91.5 -252t-248.5 -96zM885 -37q-171 0 -315.5 58.5t-244 161t-155 246t-55.5 310.5v45q0 96 23 189t65.5 176.5t107.5 154.5t145 122.5t181.5 80.5t214.5 29
q278 0 461.5 -155t206.5 -404h-205q-21 179 -152 277t-311 98q-236 0 -384.5 -162.5t-148.5 -429.5q0 -299 155.5 -458t410.5 -159q132 0 243.5 42.5t188.5 117.5v254h-486v168h801v-168h-127v-315q-101 -134 -260 -206.5t-360 -72.5z" />
    <glyph glyph-name="gbreve" unicode="&#x11f;" horiz-adv-x="1382" 
d="M696 1241q-151 0 -230 107.5t-85 310.5h135q16 -287 180 -287q84 0 130.5 74t54.5 213h127q-13 -418 -312 -418zM602 -426q-148 0 -299 23v165q168 -24 307 -24q222 0 315 89.5t93 293.5v98q-58 -112 -161.5 -169.5t-231.5 -57.5q-150 0 -269.5 76.5t-184.5 204
t-65 278.5v37q0 232 149 387t380 155q143 0 251 -64t165 -183v211h155v-965q0 -296 -139.5 -425.5t-464.5 -129.5zM662 172q151 0 253.5 98t102.5 262v95q0 157 -103.5 248.5t-250.5 91.5q-162 0 -261.5 -109.5t-99.5 -288.5q0 -181 100 -289t259 -108z" />
    <glyph glyph-name="Gdotaccent" unicode="&#x120;" horiz-adv-x="1701" 
d="M848 1663q-63 0 -98 34t-35 91t35 91t98 34t98 -34t35 -91t-35 -91t-98 -34zM885 -37q-171 0 -315.5 58.5t-244 161t-155 246t-55.5 310.5v45q0 96 23 189t65.5 176.5t107.5 154.5t145 122.5t181.5 80.5t214.5 29q278 0 461.5 -155t206.5 -404h-205q-21 179 -152 277
t-311 98q-236 0 -384.5 -162.5t-148.5 -429.5q0 -299 155.5 -458t410.5 -159q132 0 243.5 42.5t188.5 117.5v254h-486v168h801v-168h-127v-315q-101 -134 -260 -206.5t-360 -72.5z" />
    <glyph glyph-name="gdotaccent" unicode="&#x121;" horiz-adv-x="1382" 
d="M694 1319q-62 0 -94.5 33t-32.5 88t32.5 88t94.5 33t94.5 -33t32.5 -88t-32.5 -88t-94.5 -33zM602 -426q-148 0 -299 23v165q168 -24 307 -24q222 0 315 89.5t93 293.5v98q-58 -112 -161.5 -169.5t-231.5 -57.5q-150 0 -269.5 76.5t-184.5 204t-65 278.5v37
q0 232 149 387t380 155q143 0 251 -64t165 -183v211h155v-965q0 -296 -139.5 -425.5t-464.5 -129.5zM662 172q151 0 253.5 98t102.5 262v95q0 157 -103.5 248.5t-250.5 91.5q-162 0 -261.5 -109.5t-99.5 -288.5q0 -181 100 -289t259 -108z" />
    <glyph glyph-name="Gcommaaccent" unicode="&#x122;" horiz-adv-x="1701" 
d="M885 -37q-171 0 -315.5 58.5t-244 161t-155 246t-55.5 310.5v45q0 96 23 189t65.5 176.5t107.5 154.5t145 122.5t181.5 80.5t214.5 29q278 0 461.5 -155t206.5 -404h-205q-21 179 -152 277t-311 98q-236 0 -384.5 -162.5t-148.5 -429.5q0 -299 155.5 -458t410.5 -159
q132 0 243.5 42.5t188.5 117.5v254h-486v168h801v-168h-127v-315q-101 -134 -260 -206.5t-360 -72.5zM766 -582h-14v99h18q69 0 109.5 44.5t40.5 116.5v3q-26 -11 -50 -11q-49 0 -81.5 29t-32.5 82q0 56 34.5 86.5t83.5 30.5q68 0 112 -52.5t44 -150.5v-12
q0 -124 -72 -194.5t-192 -70.5z" />
    <glyph glyph-name="gcommaaccent" unicode="&#x123;" horiz-adv-x="1382" 
d="M711 1233q-67 0 -107.5 52.5t-40.5 152.5v12q0 121 64.5 183.5t187.5 62.5h14v-94h-18q-70 0 -106.5 -39t-34.5 -101v-26q24 12 53 12q43 0 72.5 -26.5t29.5 -78.5q0 -55 -32 -82.5t-82 -27.5zM602 -426q-148 0 -299 23v165q168 -24 307 -24q222 0 315 89.5t93 293.5v98
q-58 -112 -161.5 -169.5t-231.5 -57.5q-150 0 -269.5 76.5t-184.5 204t-65 278.5v37q0 232 149 387t380 155q143 0 251 -64t165 -183v211h155v-965q0 -296 -139.5 -425.5t-464.5 -129.5zM662 172q151 0 253.5 98t102.5 262v95q0 157 -103.5 248.5t-250.5 91.5
q-162 0 -261.5 -109.5t-99.5 -288.5q0 -181 100 -289t259 -108z" />
    <glyph glyph-name="Hbar" unicode="&#x126;" horiz-adv-x="1646" 
d="M418 0h-201v1139h-131v164h131v192h201v-192h811v192h201v-192h131v-164h-131v-1139h-201v653h-811v-653zM418 834h811v305h-811v-305z" />
    <glyph glyph-name="hbar" unicode="&#x127;" horiz-adv-x="1310" 
d="M385 0h-197v1249h-141v131h141v115h197v-115h375v-131h-375v-348q93 225 348 225h8q195 0 296.5 -129t101.5 -372v-625h-197v666q0 131 -73.5 205.5t-194.5 74.5q-131 0 -210 -86.5t-79 -228.5v-631z" />
    <glyph glyph-name="Itilde" unicode="&#x128;" horiz-adv-x="643" 
d="M496 1663q-50 0 -95 14.5t-73 32.5t-67.5 32.5t-80.5 14.5q-50 0 -95.5 -22t-74.5 -60l-37 127q31 44 86.5 71.5t124.5 27.5q50 0 95 -15t73 -32.5t67.5 -32.5t80.5 -15q50 0 95.5 22t74.5 60l37 -127q-32 -43 -87.5 -70.5t-123.5 -27.5zM422 0h-201v1495h201v-1495z" />
    <glyph glyph-name="itilde" unicode="&#x129;" horiz-adv-x="630" 
d="M414 1313q-45 0 -87 16t-68.5 35t-62 35t-69.5 16q-79 0 -143 -80l-33 131q75 93 182 93q45 0 87 -16t68.5 -35.5t62 -35.5t69.5 -16q81 0 145 80l33 -131q-74 -92 -184 -92zM438 0h-196v938h-168v156h364v-1094z" />
    <glyph glyph-name="Imacron" unicode="&#x12a;" horiz-adv-x="643" 
d="M662 1708h-680v141h680v-141zM422 0h-201v1495h201v-1495z" />
    <glyph glyph-name="imacron" unicode="&#x12b;" horiz-adv-x="630" 
d="M559 1364h-569v141h569v-141zM438 0h-196v938h-168v156h364v-1094z" />
    <glyph glyph-name="Ibreve" unicode="&#x12c;" horiz-adv-x="643" 
d="M322 1602q-165 0 -248.5 96t-91.5 252h139q5 -97 53 -157t148 -60q101 0 154.5 61t58.5 156h127q-8 -156 -91.5 -252t-248.5 -96zM422 0h-201v1495h201v-1495z" />
    <glyph glyph-name="ibreve" unicode="&#x12d;" horiz-adv-x="630" 
d="M276 1241q-151 0 -230 107.5t-85 310.5h135q16 -287 180 -287q84 0 130.5 74t54.5 213h127q-13 -418 -312 -418zM438 0h-196v938h-168v156h364v-1094z" />
    <glyph glyph-name="Iogonek" unicode="&#x12e;" horiz-adv-x="643" 
d="M422 0h-4l-68 -47q-66 -46 -101.5 -100.5t-35.5 -108.5q0 -51 32.5 -86t92.5 -35q55 0 104 19v-144q-56 -18 -116 -18q-113 0 -184.5 69.5t-71.5 174.5q0 151 151 276v1495h201v-1495z" />
    <glyph glyph-name="iogonek" unicode="&#x12f;" horiz-adv-x="630" 
d="M297 1270q-64 0 -96.5 33.5t-32.5 89.5t32.5 89.5t96.5 33.5t96.5 -33.5t32.5 -89.5t-32.5 -89.5t-96.5 -33.5zM340 -496q-109 0 -173.5 58t-64.5 162q0 78 41.5 141t128.5 135h-30v938h-168v156h364v-1094l-57 -47q-74 -60 -106.5 -109t-32.5 -100q0 -100 106 -100
q58 0 111 18v-139q-59 -19 -119 -19z" />
    <glyph glyph-name="Idotaccent" unicode="&#x130;" horiz-adv-x="643" 
d="M322 1663q-63 0 -98.5 34t-35.5 91t35.5 91t98.5 34t98 -34t35 -91t-35 -91t-98 -34zM422 0h-201v1495h201v-1495z" />
    <glyph glyph-name="dotlessi" unicode="&#x131;" horiz-adv-x="630" 
d="M438 0h-196v938h-168v156h364v-1094z" />
    <glyph glyph-name="Jcircumflex" unicode="&#x134;" horiz-adv-x="1310" 
d="M496 1614h-179l263 336h237l266 -336h-182l-188 237h-33zM598 -37q-111 0 -205 35t-164.5 102t-110.5 171.5t-40 236.5v51h201v-88q0 -151 88.5 -237.5t230.5 -86.5q143 0 231.5 86.5t88.5 237.5v844h-644v180h844v-987q0 -132 -39.5 -236.5t-110 -171.5t-164.5 -102
t-206 -35z" />
    <glyph glyph-name="jcircumflex" unicode="&#x135;" horiz-adv-x="649" 
d="M111 1253h-160l225 406h221l221 -406h-159l-164 308h-16zM82 -418h-86v176h115q76 0 118.5 42.5t42.5 119.5v1018h-172v156h361v-1145q0 -204 -86 -285.5t-293 -81.5z" />
    <glyph glyph-name="Kcommaaccent" unicode="&#x136;" horiz-adv-x="1388" 
d="M418 0h-201v1495h201v-698l608 698h229l-577 -661l731 -834h-250l-608 698h-133v-698zM653 -582h-14v99h18q69 0 109.5 44.5t40.5 116.5v3q-26 -11 -49 -11q-49 0 -82 29t-33 82q0 55 35 86t84 31q68 0 112 -52.5t44 -150.5v-12q0 -124 -72.5 -194.5t-192.5 -70.5z" />
    <glyph glyph-name="kcommaaccent" unicode="&#x137;" horiz-adv-x="1173" 
d="M385 0h-197v1495h197v-944l467 543h207l-404 -467l514 -627h-227l-412 510h-145v-510zM659 -102q67 0 107.5 -52.5t40.5 -152.5v-12q0 -121 -64.5 -183.5t-187.5 -62.5h-14v94h18q71 0 107 38.5t34 100.5v27q-24 -12 -53 -12q-44 0 -73 26t-29 78q0 55 32.5 83t81.5 28z
" />
    <glyph glyph-name="Lacute" unicode="&#x139;" horiz-adv-x="1114" 
d="M379 1614h-180l260 336h229zM1061 0h-844v1495h201v-1315h643v-180z" />
    <glyph glyph-name="lacute" unicode="&#x13a;" horiz-adv-x="585" 
d="M305 1614h-180l260 336h229zM397 0h-196v1339h-152v156h348v-1495z" />
    <glyph glyph-name="Lcommaaccent" unicode="&#x13b;" horiz-adv-x="1114" 
d="M1061 0h-844v1495h201v-1315h643v-180zM516 -582h-14v99h18q69 0 109.5 44.5t40.5 116.5v3q-26 -11 -49 -11q-49 0 -82 29t-33 82q0 55 35 86t84 31q68 0 111.5 -52t43.5 -151v-12q0 -124 -72 -194.5t-192 -70.5z" />
    <glyph glyph-name="lcommaaccent" unicode="&#x13c;" horiz-adv-x="585" 
d="M397 0h-196v1339h-152v156h348v-1495zM297 -102q67 0 107 -52.5t40 -152.5v-12q0 -121 -64 -183.5t-187 -62.5h-15v94h19q71 0 107 38.5t34 100.5v27q-24 -12 -53 -12q-44 0 -73.5 26t-29.5 78q0 55 32.5 83t82.5 28z" />
    <glyph glyph-name="Lcaron" unicode="&#x13d;" horiz-adv-x="1114" 
d="M852 1186h-135v491h160zM1061 0h-844v1495h201v-1315h643v-180z" />
    <glyph glyph-name="lcaron" unicode="&#x13e;" horiz-adv-x="585" 
d="M696 1171h-135v492h160zM397 0h-196v1339h-152v156h348v-1495z" />
    <glyph glyph-name="Lslash" unicode="&#x141;" horiz-adv-x="1114" 
d="M1061 0h-844v545l-156 -90v172l156 90v778h201v-672l358 209v-172l-358 -209v-471h643v-180z" />
    <glyph glyph-name="lslash" unicode="&#x142;" horiz-adv-x="585" 
d="M397 0h-196v551l-162 -92v147l162 92v641h-152v156h348v-690l162 92v-147l-162 -93v-657z" />
    <glyph glyph-name="Nacute" unicode="&#x143;" horiz-adv-x="1738" 
d="M969 1614h-181l261 336h229zM406 0h-189v1495h328l760 -1315h24v1315h193v-1495h-332l-760 1315h-24v-1315z" />
    <glyph glyph-name="nacute" unicode="&#x144;" horiz-adv-x="1310" 
d="M731 1253h-160l181 406h206zM385 0h-197v1094h156v-254q75 286 381 286h8q203 0 304.5 -127.5t101.5 -373.5v-625h-197v666q0 128 -72 204t-196 76q-129 0 -209 -80.5t-80 -212.5v-653z" />
    <glyph glyph-name="Ncommaaccent" unicode="&#x145;" horiz-adv-x="1738" 
d="M406 0h-189v1495h328l760 -1315h24v1315h193v-1495h-332l-760 1315h-24v-1315zM721 -582h-14v99h18q69 0 109 44.5t40 116.5v3q-26 -11 -49 -11q-49 0 -81.5 29t-32.5 82q0 56 34.5 86.5t83.5 30.5q68 0 112 -52.5t44 -150.5v-12q0 -124 -72 -194.5t-192 -70.5z" />
    <glyph glyph-name="ncommaaccent" unicode="&#x146;" horiz-adv-x="1310" 
d="M385 0h-197v1094h156v-254q75 286 381 286h8q203 0 304.5 -127.5t101.5 -373.5v-625h-197v666q0 128 -72 204t-196 76q-129 0 -209 -80.5t-80 -212.5v-653zM662 -102q67 0 107 -52.5t40 -152.5v-12q0 -121 -64.5 -183.5t-187.5 -62.5h-14v94h18q71 0 107 38.5t34 100.5
v27q-24 -12 -53 -12q-44 0 -73 26t-29 78q0 55 32.5 83t82.5 28z" />
    <glyph glyph-name="Ncaron" unicode="&#x147;" horiz-adv-x="1738" 
d="M1020 1614h-229l-269 336h183l186 -238h33l166 238h178zM406 0h-189v1495h328l760 -1315h24v1315h193v-1495h-332l-760 1315h-24v-1315z" />
    <glyph glyph-name="ncaron" unicode="&#x148;" horiz-adv-x="1310" 
d="M780 1253h-217l-225 406h162l168 -307h16l141 307h154zM385 0h-197v1094h156v-254q75 286 381 286h8q203 0 304.5 -127.5t101.5 -373.5v-625h-197v666q0 128 -72 204t-196 76q-129 0 -209 -80.5t-80 -212.5v-653z" />
    <glyph glyph-name="Eng" unicode="&#x14a;" horiz-adv-x="1738" 
d="M1079 -459h-198v176h227q221 0 221 240v61h-149l-750 1297h-24v-1315h-189v1495h328l760 -1315h24v1315h193v-1507q0 -447 -443 -447z" />
    <glyph glyph-name="eng" unicode="&#x14b;" horiz-adv-x="1310" 
d="M385 0h-197v1094h156v-254q75 286 381 286h8q203 0 304.5 -127.5t101.5 -373.5v-656q0 -198 -98 -288.5t-302 -90.5h-114v177h143q83 0 128.5 45.5t45.5 128.5v725q0 128 -72 204t-196 76q-129 0 -209 -80.5t-80 -212.5v-653z" />
    <glyph glyph-name="Omacron" unicode="&#x14c;" horiz-adv-x="1771" 
d="M1227 1708h-680v141h680v-141zM887 -37q-154 0 -285 48.5t-219 127t-150 179.5t-90 205.5t-28 205.5v45q0 109 29.5 216t92.5 206t152 174.5t218 120.5t280 45t280 -45t218 -120.5t152 -174.5t92.5 -206t29.5 -216v-45q0 -101 -28 -205.5t-90 -205.5t-150 -179.5
t-219 -127t-285 -48.5zM887 147q127 0 235.5 50t180 133.5t111.5 192.5t40 227q0 124 -40 234t-112 191.5t-179.5 129t-235.5 47.5q-170 0 -301 -81.5t-199 -217.5t-68 -303q0 -118 40 -227t112 -192.5t180.5 -133.5t235.5 -50z" />
    <glyph glyph-name="omacron" unicode="&#x14d;" horiz-adv-x="1384" 
d="M977 1364h-569v141h569v-141zM692 -37q-111 0 -207 32t-164.5 87t-117.5 127.5t-73 153.5t-24 165v37q0 106 40 207t113 181t186 128.5t247 48.5t247 -48.5t186 -128.5t113 -181t40 -207v-37q0 -84 -24 -165t-73 -153.5t-117.5 -127.5t-164.5 -87t-207 -32zM692 139
q180 0 284.5 115.5t104.5 292.5q0 178 -106 292.5t-283 114.5t-283 -114.5t-106 -292.5q0 -177 104.5 -292.5t284.5 -115.5z" />
    <glyph glyph-name="Obreve" unicode="&#x14e;" horiz-adv-x="1771" 
d="M887 1602q-165 0 -248.5 96t-91.5 252h139q5 -97 53 -157t148 -60q101 0 154.5 61t58.5 156h127q-8 -156 -91.5 -252t-248.5 -96zM887 -37q-154 0 -285 48.5t-219 127t-150 179.5t-90 205.5t-28 205.5v45q0 109 29.5 216t92.5 206t152 174.5t218 120.5t280 45t280 -45
t218 -120.5t152 -174.5t92.5 -206t29.5 -216v-45q0 -101 -28 -205.5t-90 -205.5t-150 -179.5t-219 -127t-285 -48.5zM887 147q127 0 235.5 50t180 133.5t111.5 192.5t40 227q0 124 -40 234t-112 191.5t-179.5 129t-235.5 47.5q-170 0 -301 -81.5t-199 -217.5t-68 -303
q0 -118 40 -227t112 -192.5t180.5 -133.5t235.5 -50z" />
    <glyph glyph-name="obreve" unicode="&#x14f;" horiz-adv-x="1384" 
d="M694 1241q-151 0 -230 107.5t-85 310.5h135q16 -287 180 -287q84 0 130.5 74t54.5 213h127q-13 -418 -312 -418zM692 -37q-111 0 -207 32t-164.5 87t-117.5 127.5t-73 153.5t-24 165v37q0 106 40 207t113 181t186 128.5t247 48.5t247 -48.5t186 -128.5t113 -181t40 -207
v-37q0 -84 -24 -165t-73 -153.5t-117.5 -127.5t-164.5 -87t-207 -32zM692 139q180 0 284.5 115.5t104.5 292.5q0 178 -106 292.5t-283 114.5t-283 -114.5t-106 -292.5q0 -177 104.5 -292.5t284.5 -115.5z" />
    <glyph glyph-name="Ohungarumlaut" unicode="&#x150;" horiz-adv-x="1771" 
d="M1104 1614h-148l174 336h205zM756 1614h-148l174 336h205zM887 -37q-154 0 -285 48.5t-219 127t-150 179.5t-90 205.5t-28 205.5v45q0 109 29.5 216t92.5 206t152 174.5t218 120.5t280 45t280 -45t218 -120.5t152 -174.5t92.5 -206t29.5 -216v-45q0 -101 -28 -205.5
t-90 -205.5t-150 -179.5t-219 -127t-285 -48.5zM887 147q127 0 235.5 50t180 133.5t111.5 192.5t40 227q0 124 -40 234t-112 191.5t-179.5 129t-235.5 47.5q-170 0 -301 -81.5t-199 -217.5t-68 -303q0 -118 40 -227t112 -192.5t180.5 -133.5t235.5 -50z" />
    <glyph glyph-name="ohungarumlaut" unicode="&#x151;" horiz-adv-x="1384" 
d="M928 1253h-152l146 406h186zM596 1253h-152l146 406h186zM692 -37q-111 0 -207 32t-164.5 87t-117.5 127.5t-73 153.5t-24 165v37q0 106 40 207t113 181t186 128.5t247 48.5t247 -48.5t186 -128.5t113 -181t40 -207v-37q0 -84 -24 -165t-73 -153.5t-117.5 -127.5
t-164.5 -87t-207 -32zM692 139q180 0 284.5 115.5t104.5 292.5q0 178 -106 292.5t-283 114.5t-283 -114.5t-106 -292.5q0 -177 104.5 -292.5t284.5 -115.5z" />
    <glyph glyph-name="OE" unicode="&#x152;" horiz-adv-x="2164" 
d="M901 -41q-161 0 -295 48.5t-223 127t-151 180.5t-89.5 206t-27.5 206v45q0 111 29 218.5t92.5 206.5t153.5 174t222 120t289 45q169 0 277 -41h839v-180h-663v-465h622v-180h-622v-490h684v-180h-860q-108 -41 -277 -41zM901 139q137 0 252 37v1143q-115 37 -252 37
q-132 0 -241.5 -48t-182.5 -130.5t-113 -193.5t-40 -236q0 -96 25 -186t74.5 -166.5t118.5 -134t161.5 -90t197.5 -32.5z" />
    <glyph glyph-name="oe" unicode="&#x153;" horiz-adv-x="2220" 
d="M690 -37q-139 0 -252 48.5t-184.5 129t-109.5 180.5t-38 207v37q0 108 39.5 208.5t112 180.5t185 128t247.5 48q173 0 292.5 -71.5t184.5 -194.5q58 123 167 194.5t274 71.5q127 0 228.5 -44t164.5 -119t96 -169.5t33 -199.5v-88h-868q9 -169 99.5 -270t258.5 -101
q125 0 207 50.5t100 129.5h184q-35 -169 -165.5 -262.5t-325.5 -93.5q-330 0 -453 264q-65 -121 -183.5 -192.5t-293.5 -71.5zM1608 954q-142 0 -227 -79t-111 -218h667q-19 141 -103 219t-226 78zM690 139q178 0 282.5 115.5t104.5 292.5q0 178 -105.5 292.5t-281.5 114.5
t-281.5 -113t-105.5 -294q0 -179 104 -293.5t283 -114.5z" />
    <glyph glyph-name="Racute" unicode="&#x154;" horiz-adv-x="1433" 
d="M754 1614h-181l261 336h229zM418 0h-201v1503h490q256 0 400 -115t144 -350v-32q0 -170 -78.5 -278.5t-222.5 -154.5l434 -573h-243l-404 541h-30h-289v-541zM743 1327h-325v-608h325q138 0 221 84.5t83 218.5t-83 219.5t-221 85.5z" />
    <glyph glyph-name="racute" unicode="&#x155;" horiz-adv-x="839" 
d="M528 1253h-159l180 406h207zM385 0h-197v1094h156v-328q26 174 128.5 257t285.5 83h37v-176h-70q-164 0 -252 -87.5t-88 -250.5v-592z" />
    <glyph glyph-name="Rcommaaccent" unicode="&#x156;" horiz-adv-x="1433" 
d="M418 0h-201v1503h490q256 0 400 -115t144 -350v-32q0 -170 -78.5 -278.5t-222.5 -154.5l434 -573h-243l-404 541h-30h-289v-541zM743 1327h-325v-608h325q138 0 221 84.5t83 218.5t-83 219.5t-221 85.5zM643 -582h-14v99h18q69 0 109.5 44.5t40.5 116.5v3
q-26 -11 -49 -11q-49 0 -82 29t-33 82q0 55 35 86t84 31q68 0 111.5 -52t43.5 -151v-12q0 -124 -72 -194.5t-192 -70.5z" />
    <glyph glyph-name="rcommaaccent" unicode="&#x157;" horiz-adv-x="839" 
d="M385 0h-197v1094h156v-328q26 174 128.5 257t285.5 83h37v-176h-70q-164 0 -252 -87.5t-88 -250.5v-592zM285 -102q67 0 107 -52.5t40 -152.5v-12q0 -121 -64.5 -183.5t-187.5 -62.5h-14v94h18q71 0 107.5 39t34.5 100v27q-24 -12 -54 -12q-44 0 -73 26t-29 78
q0 55 32.5 83t82.5 28z" />
    <glyph glyph-name="Rcaron" unicode="&#x158;" horiz-adv-x="1433" 
d="M805 1614h-230l-268 336h182l187 -238h33l165 238h179zM418 0h-201v1503h490q256 0 400 -115t144 -350v-32q0 -170 -78.5 -278.5t-222.5 -154.5l434 -573h-243l-404 541h-30h-289v-541zM743 1327h-325v-608h325q138 0 221 84.5t83 218.5t-83 219.5t-221 85.5z" />
    <glyph glyph-name="rcaron" unicode="&#x159;" horiz-adv-x="839" 
d="M578 1253h-218l-225 406h162l168 -307h16l142 307h153zM385 0h-197v1094h156v-328q26 174 128.5 257t285.5 83h37v-176h-70q-164 0 -252 -87.5t-88 -250.5v-592z" />
    <glyph glyph-name="Sacute" unicode="&#x15a;" horiz-adv-x="1411" 
d="M766 1614h-180l260 336h229zM702 -37q-274 0 -430.5 132.5t-156.5 344.5h200q0 -55 20.5 -104.5t63 -93t121 -69.5t182.5 -26q192 0 291 81t99 204q0 94 -81 154t-233 73l-166 15q-200 17 -318 124.5t-118 278.5q0 204 146.5 331.5t382.5 127.5q235 0 380.5 -126.5
t145.5 -338.5h-201q0 55 -19.5 104t-57.5 89t-102 64t-146 24q-158 0 -243 -80.5t-85 -194.5q0 -87 65.5 -148t186.5 -71l166 -14q232 -21 364.5 -128t132.5 -284q0 -208 -163.5 -338.5t-426.5 -130.5z" />
    <glyph glyph-name="sacute" unicode="&#x15b;" horiz-adv-x="1097" 
d="M604 1253h-160l181 406h206zM547 -33q-213 0 -331.5 91.5t-123.5 252.5h184q3 -73 69.5 -124.5t201.5 -51.5q127 0 198.5 50.5t71.5 129.5q0 68 -51.5 106t-165.5 50l-119 12q-163 18 -257.5 96.5t-94.5 213.5q0 154 115.5 243.5t302.5 89.5q189 0 301.5 -83.5
t116.5 -241.5h-185q-3 70 -62.5 113.5t-170.5 43.5q-112 0 -173 -46t-61 -119q0 -63 43 -99.5t138 -46.5l118 -12q181 -19 285 -100.5t104 -219.5q0 -154 -127 -251t-327 -97z" />
    <glyph glyph-name="Scircumflex" unicode="&#x15c;" horiz-adv-x="1411" 
d="M504 1614h-178l262 336h237l267 -336h-183l-188 237h-33zM702 -37q-274 0 -430.5 132.5t-156.5 344.5h200q0 -55 20.5 -104.5t63 -93t121 -69.5t182.5 -26q192 0 291 81t99 204q0 94 -81 154t-233 73l-166 15q-200 17 -318 124.5t-118 278.5q0 204 146.5 331.5
t382.5 127.5q235 0 380.5 -126.5t145.5 -338.5h-201q0 55 -19.5 104t-57.5 89t-102 64t-146 24q-158 0 -243 -80.5t-85 -194.5q0 -87 65.5 -148t186.5 -71l166 -14q232 -21 364.5 -128t132.5 -284q0 -208 -163.5 -338.5t-426.5 -130.5z" />
    <glyph glyph-name="scircumflex" unicode="&#x15d;" horiz-adv-x="1097" 
d="M369 1253h-160l225 406h221l222 -406h-160l-164 308h-16zM547 -33q-213 0 -331.5 91.5t-123.5 252.5h184q3 -73 69.5 -124.5t201.5 -51.5q127 0 198.5 50.5t71.5 129.5q0 68 -51.5 106t-165.5 50l-119 12q-163 18 -257.5 96.5t-94.5 213.5q0 154 115.5 243.5t302.5 89.5
q189 0 301.5 -83.5t116.5 -241.5h-185q-3 70 -62.5 113.5t-170.5 43.5q-112 0 -173 -46t-61 -119q0 -63 43 -99.5t138 -46.5l118 -12q181 -19 285 -100.5t104 -219.5q0 -154 -127 -251t-327 -97z" />
    <glyph glyph-name="Scedilla" unicode="&#x15e;" horiz-adv-x="1411" 
d="M698 -508q-79 0 -147 21v139q72 -21 147 -21q67 0 103.5 21t36.5 55q0 31 -31.5 49.5t-89.5 18.5h-82v190q-245 17 -382.5 146.5t-137.5 328.5h200q0 -55 20.5 -104.5t63 -93t121 -69.5t182.5 -26q192 0 291 81t99 204q0 94 -81 154t-233 73l-166 15q-200 17 -318 124.5
t-118 278.5q0 204 146.5 331.5t382.5 127.5q235 0 380.5 -126.5t145.5 -338.5h-201q0 55 -19.5 104t-57.5 89t-102 64t-146 24q-158 0 -243 -80.5t-85 -194.5q0 -87 65.5 -148t186.5 -71l166 -14q232 -21 364.5 -128t132.5 -284q0 -195 -144 -322.5t-382 -144.5v-65
q100 -12 157.5 -60.5t57.5 -128.5q0 -94 -77 -156.5t-206 -62.5z" />
    <glyph glyph-name="scedilla" unicode="&#x15f;" horiz-adv-x="1097" 
d="M543 -496q-70 0 -140 19v131q74 -19 140 -19q62 0 94.5 21t32.5 55q0 72 -111 72h-78v186q-183 13 -283.5 103t-105.5 239h184q3 -73 69.5 -124.5t201.5 -51.5q127 0 198.5 50.5t71.5 129.5q0 68 -51.5 106t-165.5 50l-119 12q-163 18 -257.5 96.5t-94.5 213.5
q0 154 115.5 243.5t302.5 89.5q189 0 301.5 -83.5t116.5 -241.5h-185q-3 70 -62.5 113.5t-170.5 43.5q-112 0 -173 -46t-61 -119q0 -63 43 -99.5t138 -46.5l118 -12q181 -19 285 -100.5t104 -219.5q0 -142 -111 -237t-290 -109v-69q97 -11 153 -59t56 -126q0 -92 -72 -151.5
t-194 -59.5z" />
    <glyph glyph-name="Scaron" unicode="&#x160;" horiz-adv-x="1411" 
d="M817 1614h-229l-269 336h183l186 -238h33l166 238h178zM702 -37q-274 0 -430.5 132.5t-156.5 344.5h200q0 -55 20.5 -104.5t63 -93t121 -69.5t182.5 -26q192 0 291 81t99 204q0 94 -81 154t-233 73l-166 15q-200 17 -318 124.5t-118 278.5q0 204 146.5 331.5t382.5 127.5
q235 0 380.5 -126.5t145.5 -338.5h-201q0 55 -19.5 104t-57.5 89t-102 64t-146 24q-158 0 -243 -80.5t-85 -194.5q0 -87 65.5 -148t186.5 -71l166 -14q232 -21 364.5 -128t132.5 -284q0 -208 -163.5 -338.5t-426.5 -130.5z" />
    <glyph glyph-name="scaron" unicode="&#x161;" horiz-adv-x="1097" 
d="M653 1253h-217l-225 406h162l168 -307h16l141 307h154zM547 -33q-213 0 -331.5 91.5t-123.5 252.5h184q3 -73 69.5 -124.5t201.5 -51.5q127 0 198.5 50.5t71.5 129.5q0 68 -51.5 106t-165.5 50l-119 12q-163 18 -257.5 96.5t-94.5 213.5q0 154 115.5 243.5t302.5 89.5
q189 0 301.5 -83.5t116.5 -241.5h-185q-3 70 -62.5 113.5t-170.5 43.5q-112 0 -173 -46t-61 -119q0 -63 43 -99.5t138 -46.5l118 -12q181 -19 285 -100.5t104 -219.5q0 -154 -127 -251t-327 -97z" />
    <glyph glyph-name="Tcedilla" unicode="&#x162;" horiz-adv-x="1216" 
d="M709 0h-35v-100q100 -12 157.5 -60.5t57.5 -128.5q0 -94 -77 -156.5t-206 -62.5q-79 0 -147 21v139q72 -21 147 -21q67 0 103 21t36 55q0 31 -31.5 49.5t-88.5 18.5h-82v225h-35v1315h-455v180h1110v-180h-454v-1315z" />
    <glyph glyph-name="tcedilla" unicode="&#x163;" horiz-adv-x="872" 
d="M481 -496q-69 0 -139 19v131q74 -19 139 -19q62 0 94.5 21t32.5 55q0 72 -110 72h-78v233q-203 72 -203 357v573h-188v148h188v331h189v-331h376v-148h-376v-598q0 -88 48 -136t136 -48h192v-176h-168q-25 0 -75 4v-92q97 -11 153 -59t56 -126q0 -91 -72.5 -151
t-194.5 -60z" />
    <glyph glyph-name="Tcaron" unicode="&#x164;" horiz-adv-x="1216" 
d="M721 1614h-229l-269 336h183l186 -238h33l166 238h178zM709 0h-201v1315h-455v180h1110v-180h-454v-1315z" />
    <glyph glyph-name="tcaron" unicode="&#x165;" horiz-adv-x="872" 
d="M705 1257h-136v492h160zM782 -12h-168q-95 0 -165.5 19.5t-124 63t-80.5 119t-27 183.5v573h-188v148h188v331h189v-331h376v-148h-376v-598q0 -88 48 -136t136 -48h192v-176z" />
    <glyph glyph-name="Tbar" unicode="&#x166;" horiz-adv-x="1216" 
d="M709 0h-201v655h-320v164h320v496h-455v180h1110v-180h-454v-496h319v-164h-319v-655z" />
    <glyph glyph-name="tbar" unicode="&#x167;" horiz-adv-x="872" 
d="M782 -12h-168q-95 0 -165.5 19.5t-124 63t-80.5 119t-27 183.5v155h-168v131h168v287h-188v148h188v331h189v-331h376v-148h-376v-287h356v-131h-356v-180q0 -88 48 -136t136 -48h192v-176z" />
    <glyph glyph-name="Utilde" unicode="&#x168;" horiz-adv-x="1615" 
d="M983 1663q-50 0 -95 14.5t-72.5 32.5t-67 32.5t-80.5 14.5q-50 0 -95.5 -22t-74.5 -60l-37 127q31 44 86.5 71.5t124.5 27.5q50 0 95 -15t73 -32.5t67 -32.5t80 -15q50 0 95.5 22t74.5 60l37 -127q-32 -43 -87.5 -70.5t-123.5 -27.5zM809 -37q-299 0 -460 170.5
t-161 460.5v901h201v-926q0 -193 110.5 -307.5t309.5 -114.5q198 0 308 114t110 308v926h200v-901q0 -290 -159.5 -460.5t-458.5 -170.5z" />
    <glyph glyph-name="utilde" unicode="&#x169;" horiz-adv-x="1286" 
d="M768 1313q-45 0 -87 16t-68.5 35t-62 35t-69.5 16q-79 0 -143 -80l-33 131q75 93 182 93q45 0 87 -16t68.5 -35.5t62 -35.5t69.5 -16q82 0 146 80l32 -131q-74 -92 -184 -92zM575 -33h-8q-195 0 -299 127.5t-104 366.5v635h196v-674q0 -128 69.5 -201.5t188.5 -73.5
q124 0 201.5 80t77.5 215v654h197v-1096h-156v252q-75 -285 -363 -285z" />
    <glyph glyph-name="Umacron" unicode="&#x16a;" horiz-adv-x="1615" 
d="M1149 1708h-680v141h680v-141zM809 -37q-299 0 -460 170.5t-161 460.5v901h201v-926q0 -193 110.5 -307.5t309.5 -114.5q198 0 308 114t110 308v926h200v-901q0 -290 -159.5 -460.5t-458.5 -170.5z" />
    <glyph glyph-name="umacron" unicode="&#x16b;" horiz-adv-x="1286" 
d="M913 1364h-569v141h569v-141zM575 -33h-8q-195 0 -299 127.5t-104 366.5v635h196v-674q0 -128 69.5 -201.5t188.5 -73.5q124 0 201.5 80t77.5 215v654h197v-1096h-156v252q-75 -285 -363 -285z" />
    <glyph glyph-name="Ubreve" unicode="&#x16c;" horiz-adv-x="1615" 
d="M809 1602q-165 0 -248.5 96t-91.5 252h139q5 -97 53 -157t148 -60q101 0 154.5 61t58.5 156h127q-8 -156 -91.5 -252t-248.5 -96zM809 -37q-299 0 -460 170.5t-161 460.5v901h201v-926q0 -193 110.5 -307.5t309.5 -114.5q198 0 308 114t110 308v926h200v-901
q0 -290 -159.5 -460.5t-458.5 -170.5z" />
    <glyph glyph-name="ubreve" unicode="&#x16d;" horiz-adv-x="1286" 
d="M631 1241q-152 0 -231 107.5t-85 310.5h136q16 -287 180 -287q168 0 184 287h127q-13 -418 -311 -418zM575 -33h-8q-195 0 -299 127.5t-104 366.5v635h196v-674q0 -128 69.5 -201.5t188.5 -73.5q124 0 201.5 80t77.5 215v654h197v-1096h-156v252q-75 -285 -363 -285z" />
    <glyph glyph-name="Uring" unicode="&#x16e;" horiz-adv-x="1615" 
d="M809 1573q-110 0 -177 64t-67 157t67 157t177 64t177 -64t67 -157t-67 -157t-177 -64zM809 1679q60 0 94.5 32t34.5 83t-34.5 83t-94.5 32t-94.5 -32t-34.5 -83t34.5 -83t94.5 -32zM809 -37q-299 0 -460 170.5t-161 460.5v901h201v-926q0 -193 110.5 -307.5t309.5 -114.5
q198 0 308 114t110 308v926h200v-901q0 -290 -159.5 -460.5t-458.5 -170.5z" />
    <glyph glyph-name="uring" unicode="&#x16f;" horiz-adv-x="1286" 
d="M629 1233q-102 0 -166 65t-64 164t64 164.5t166 65.5t165.5 -65.5t63.5 -164.5t-63.5 -164t-165.5 -65zM629 1339q54 0 86.5 34.5t32.5 88.5t-32.5 88.5t-86.5 34.5t-86.5 -34.5t-32.5 -88.5t32.5 -88.5t86.5 -34.5zM575 -33h-8q-195 0 -299 127.5t-104 366.5v635h196
v-674q0 -128 69.5 -201.5t188.5 -73.5q124 0 201.5 80t77.5 215v654h197v-1096h-156v252q-75 -285 -363 -285z" />
    <glyph glyph-name="Uhungarumlaut" unicode="&#x170;" horiz-adv-x="1615" 
d="M1026 1614h-147l174 336h204zM678 1614h-148l175 336h204zM809 -37q-299 0 -460 170.5t-161 460.5v901h201v-926q0 -193 110.5 -307.5t309.5 -114.5q198 0 308 114t110 308v926h200v-901q0 -290 -159.5 -460.5t-458.5 -170.5z" />
    <glyph glyph-name="uhungarumlaut" unicode="&#x171;" horiz-adv-x="1286" 
d="M864 1253h-151l145 406h186zM532 1253h-151l145 406h187zM575 -33h-8q-195 0 -299 127.5t-104 366.5v635h196v-674q0 -128 69.5 -201.5t188.5 -73.5q124 0 201.5 80t77.5 215v654h197v-1096h-156v252q-75 -285 -363 -285z" />
    <glyph glyph-name="Uogonek" unicode="&#x172;" horiz-adv-x="1615" 
d="M809 -37q-299 0 -460 170.5t-161 460.5v901h201v-926q0 -193 110.5 -307.5t309.5 -114.5q198 0 308 114t110 308v926h200v-901q0 -220 -92.5 -374t-271.5 -216l2 -4l-68 -47q-66 -46 -101.5 -100.5t-35.5 -108.5q0 -51 32.5 -86t92.5 -35q56 0 105 19v-144
q-56 -18 -117 -18q-113 0 -184.5 69.5t-71.5 174.5q0 129 110 239h-18z" />
    <glyph glyph-name="uogonek" unicode="&#x173;" horiz-adv-x="1286" 
d="M575 -33h-8q-195 0 -299 127.5t-104 366.5v635h196v-674q0 -128 69.5 -201.5t188.5 -73.5q124 0 201.5 80t77.5 215v654h197v-1096l-58 -47q-74 -60 -106.5 -109t-32.5 -100q0 -49 28 -74.5t79 -25.5q58 0 110 18v-139q-59 -19 -119 -19q-109 0 -173 58t-64 162
q0 81 44 146t136 138v244q-75 -285 -363 -285z" />
    <glyph glyph-name="Wcircumflex" unicode="&#x174;" horiz-adv-x="2136" 
d="M870 1614h-178l262 336h238l266 -336h-182l-189 237h-32zM807 0h-342l-404 1495h207l338 -1315h64l274 1254h256l309 -1254h64l301 1315h201l-367 -1495h-344l-293 1167z" />
    <glyph glyph-name="wcircumflex" unicode="&#x175;" horiz-adv-x="1736" 
d="M690 1253h-160l226 406h221l221 -406h-160l-164 308h-16zM670 0h-308l-309 1094h189l258 -938h41l188 901h266l219 -901h41l226 938h178l-268 -1094h-306l-223 909z" />
    <glyph glyph-name="Ycircumflex" unicode="&#x176;" horiz-adv-x="1335" 
d="M461 1614h-178l262 336h237l267 -336h-183l-188 237h-33zM778 0h-196v582h-74l-475 913h209l389 -760h104l367 760h196l-446 -913h-74v-582z" />
    <glyph glyph-name="ycircumflex" unicode="&#x177;" horiz-adv-x="1120" 
d="M381 1253h-160l225 406h222l221 -406h-160l-164 308h-16zM260 -426h-145v176h157q104 0 162 41.5t88 142.5l27 91h-121l-391 1069h201l317 -906h43l268 906h193l-365 -1211q-49 -160 -156.5 -234.5t-277.5 -74.5z" />
    <glyph glyph-name="Ydieresis" unicode="&#x178;" horiz-adv-x="1335" 
d="M444 1663q-63 0 -98 34t-35 91t35 91t98 34t98.5 -34t35.5 -91t-35.5 -91t-98.5 -34zM879 1663q-63 0 -98.5 34t-35.5 91t35.5 91t98.5 34t98 -34t35 -91t-35 -91t-98 -34zM778 0h-196v582h-74l-475 913h209l389 -760h104l367 760h196l-446 -913h-74v-582z" />
    <glyph glyph-name="Zacute" unicode="&#x179;" horiz-adv-x="1339" 
d="M727 1614h-180l260 336h229zM1245 0h-1118v246l901 1054l-18 27h-865v168h1074v-246l-904 -1054l21 -27h909v-168z" />
    <glyph glyph-name="zacute" unicode="&#x17a;" horiz-adv-x="999" 
d="M551 1253h-160l180 406h207zM922 0h-803v219l583 701l-12 18h-579v156h778v-220l-586 -702l14 -16h605v-156z" />
    <glyph glyph-name="Zdotaccent" unicode="&#x17b;" horiz-adv-x="1339" 
d="M666 1663q-63 0 -98.5 34t-35.5 91t35.5 91t98.5 34t98 -34t35 -91t-35 -91t-98 -34zM1245 0h-1118v246l901 1054l-18 27h-865v168h1074v-246l-904 -1054l21 -27h909v-168z" />
    <glyph glyph-name="zdotaccent" unicode="&#x17c;" horiz-adv-x="999" 
d="M492 1319q-62 0 -94.5 33t-32.5 88t32.5 88t94.5 33t94 -33t32 -88t-32 -88t-94 -33zM922 0h-803v219l583 701l-12 18h-579v156h778v-220l-586 -702l14 -16h605v-156z" />
    <glyph glyph-name="Zcaron" unicode="&#x17d;" horiz-adv-x="1339" 
d="M778 1614h-229l-268 336h182l186 -238h33l166 238h178zM1245 0h-1118v246l901 1054l-18 27h-865v168h1074v-246l-904 -1054l21 -27h909v-168z" />
    <glyph glyph-name="zcaron" unicode="&#x17e;" horiz-adv-x="999" 
d="M600 1253h-217l-225 406h161l168 -307h17l141 307h154zM922 0h-803v219l583 701l-12 18h-579v156h778v-220l-586 -702l14 -16h605v-156z" />
    <glyph glyph-name="Aringacute" unicode="&#x1fa;" horiz-adv-x="1548" 
d="M827 2081h-180l260 336h230zM766 1573q-110 0 -177 64t-67 157t67 157t177 64t177 -64t67 -157t-67 -157t-177 -64zM766 1679q60 0 94.5 32t34.5 83t-34.5 83t-94.5 32t-94.5 -32t-34.5 -83t34.5 -83t94.5 -32zM258 0h-201l539 1495h340l555 -1495h-207l-164 446h-702z
M481 627h572l-252 688h-76z" />
    <glyph glyph-name="Scommaaccent" unicode="&#x218;" horiz-adv-x="1411" 
d="M702 -37q-274 0 -430.5 132.5t-156.5 344.5h200q0 -55 20.5 -104.5t63 -93t121 -69.5t182.5 -26q192 0 291 81t99 204q0 94 -81 154t-233 73l-166 15q-200 17 -318 124.5t-118 278.5q0 204 146.5 331.5t382.5 127.5q235 0 380.5 -126.5t145.5 -338.5h-201q0 55 -19.5 104
t-57.5 89t-102 64t-146 24q-158 0 -243 -80.5t-85 -194.5q0 -87 65.5 -148t186.5 -71l166 -14q232 -21 364.5 -128t132.5 -284q0 -208 -163.5 -338.5t-426.5 -130.5zM578 -582h-15v99h19q69 0 109 44.5t40 116.5v3q-26 -11 -49 -11q-49 0 -82 29t-33 82q0 55 35 86t84 31
q68 0 112 -52.5t44 -150.5v-12q0 -124 -72 -194.5t-192 -70.5z" />
    <glyph glyph-name="scommaaccent" unicode="&#x219;" horiz-adv-x="1097" 
d="M547 -33q-213 0 -331.5 91.5t-123.5 252.5h184q3 -73 69.5 -124.5t201.5 -51.5q127 0 198.5 50.5t71.5 129.5q0 68 -51.5 106t-165.5 50l-119 12q-163 18 -257.5 96.5t-94.5 213.5q0 154 115.5 243.5t302.5 89.5q189 0 301.5 -83.5t116.5 -241.5h-185q-3 70 -62.5 113.5
t-170.5 43.5q-112 0 -173 -46t-61 -119q0 -63 43 -99.5t138 -46.5l118 -12q181 -19 285 -100.5t104 -219.5q0 -154 -127 -251t-327 -97zM549 -102q67 0 107 -52.5t40 -152.5v-12q0 -121 -64.5 -183.5t-187.5 -62.5h-14v94h19q71 0 107 38.5t34 100.5v27q-24 -12 -53 -12
q-44 0 -73.5 26t-29.5 78q0 55 32.5 83t82.5 28z" />
    <glyph glyph-name="Tcommaaccent" unicode="&#x21a;" horiz-adv-x="1216" 
d="M709 0h-201v1315h-455v180h1110v-180h-454v-1315zM485 -582h-14v99h18q69 0 109.5 44.5t40.5 116.5v3q-26 -11 -49 -11q-49 0 -82 29t-33 82q0 55 35 86t84 31q68 0 112 -52.5t44 -150.5v-12q0 -124 -72.5 -194.5t-192.5 -70.5z" />
    <glyph glyph-name="tcommaaccent" unicode="&#x21b;" horiz-adv-x="872" 
d="M782 -12h-168q-95 0 -165.5 19.5t-124 63t-80.5 119t-27 183.5v573h-188v148h188v331h189v-331h376v-148h-376v-598q0 -88 48 -136t136 -48h192v-176zM487 -102q67 0 107.5 -52.5t40.5 -152.5v-12q0 -121 -64.5 -183.5t-187.5 -62.5h-14v94h18q71 0 107 38.5t34 100.5v27
q-24 -12 -53 -12q-44 0 -73 26t-29 78q0 55 32.5 83t81.5 28z" />
    <glyph glyph-name="dotlessj" unicode="&#x237;" horiz-adv-x="649" 
d="M82 -418h-86v176h115q76 0 118.5 42.5t42.5 119.5v1018h-172v156h361v-1145q0 -204 -86 -285.5t-293 -81.5z" />
    <glyph glyph-name="circumflex" unicode="&#x2c6;" 
d="M160 1253h-160l225 406h221l222 -406h-160l-164 308h-16z" />
    <glyph glyph-name="ring" unicode="&#x2da;" 
d="M229 1233q-102 0 -165.5 65t-63.5 164t63.5 164.5t165.5 65.5t166 -65.5t64 -164.5t-64 -164t-166 -65zM229 1339q54 0 86.5 34.5t32.5 88.5t-32.5 88.5t-86.5 34.5q-53 0 -85.5 -34t-32.5 -89t32.5 -89t85.5 -34z" />
    <glyph glyph-name="tilde" unicode="&#x2dc;" 
d="M463 1313q-45 0 -87 16t-68.5 35t-62 35t-69.5 16q-79 0 -143 -80l-33 131q75 93 182 93q45 0 87 -16t68.5 -35.5t62 -35.5t69.5 -16q81 0 145 80l33 -131q-74 -92 -184 -92z" />
    <glyph glyph-name="gravecomb" unicode="&#x300;" 
d="M393 1253h-168l-225 406h215z" />
    <glyph glyph-name="acutecomb" unicode="&#x301;" 
d="M160 1253h-160l180 406h207z" />
    <glyph glyph-name="circumflexcomb" unicode="&#x302;" 
d="M160 1253h-160l225 406h221l222 -406h-160l-164 308h-16z" />
    <glyph glyph-name="tildecomb" unicode="&#x303;" 
d="M463 1313q-45 0 -87 16t-68.5 35t-62 35t-69.5 16q-79 0 -143 -80l-33 131q75 93 182 93q45 0 87 -16t68.5 -35.5t62 -35.5t69.5 -16q81 0 145 80l33 -131q-74 -92 -184 -92z" />
    <glyph glyph-name="macroncomb" unicode="&#x304;" 
d="M569 1364h-569v141h569v-141z" />
    <glyph glyph-name="brevecomb" unicode="&#x306;" 
d="M315 1241q-151 0 -230 107.5t-85 310.5h135q16 -287 180 -287q84 0 130.5 74t54.5 213h127q-13 -418 -312 -418z" />
    <glyph glyph-name="dotaccentcomb" unicode="&#x307;" 
d="M127 1319q-62 0 -94.5 33t-32.5 88t32.5 88t94.5 33t94.5 -33t32.5 -88t-32.5 -88t-94.5 -33z" />
    <glyph glyph-name="dieresiscomb" unicode="&#x308;" 
d="M127 1319q-62 0 -94.5 33t-32.5 88t32.5 88t94.5 33t94.5 -33t32.5 -88t-32.5 -88t-94.5 -33zM537 1319q-62 0 -94.5 33t-32.5 88t32.5 88t94.5 33t94.5 -33t32.5 -88t-32.5 -88t-94.5 -33z" />
    <glyph glyph-name="ringcomb" unicode="&#x30a;" 
d="M229 1233q-102 0 -165.5 65t-63.5 164t63.5 164.5t165.5 65.5t166 -65.5t64 -164.5t-64 -164t-166 -65zM229 1339q54 0 86.5 34.5t32.5 88.5t-32.5 88.5t-86.5 34.5q-53 0 -85.5 -34t-32.5 -89t32.5 -89t85.5 -34z" />
    <glyph glyph-name="hungarumlautcomb" unicode="&#x30b;" 
d="M483 1253h-151l145 406h187zM152 1253h-152l145 406h187z" />
    <glyph glyph-name="caroncomb" unicode="&#x30c;" 
d="M442 1253h-217l-225 406h162l168 -307h16l141 307h154z" />
    <glyph glyph-name="commaturnedabovecomb" unicode="&#x312;" 
d="M147 1233q-67 0 -107 52.5t-40 152.5v12q0 121 64.5 183.5t187.5 62.5h14v-94h-18q-71 0 -107.5 -39t-34.5 -101v-26q24 12 54 12q43 0 72.5 -26.5t29.5 -78.5q0 -55 -32.5 -82.5t-82.5 -27.5z" />
    <glyph glyph-name="commaaccentcomb" unicode="&#x326;" 
d="M119 -102q67 0 107 -52.5t40 -152.5v-12q0 -121 -64.5 -183.5t-187.5 -62.5h-14v94h18q71 0 107.5 39t34.5 100v27q-24 -12 -54 -12q-44 0 -73 26t-29 78q0 55 32.5 83t82.5 28z" />
    <glyph glyph-name="cedillacomb" unicode="&#x327;" 
d="M246 -496q-70 0 -140 19v131q74 -19 140 -19q62 0 94.5 21t32.5 55q0 72 -111 72h-78v237h119v-120q97 -11 153 -59t56 -126q0 -92 -72 -151.5t-194 -59.5z" />
    <glyph glyph-name="ogonekcomb" unicode="&#x328;" 
d="M365 -496q-109 0 -173.5 58t-64.5 162q0 87 51.5 156.5t161.5 154.5l59 47l64 -82l-57 -47q-74 -60 -107 -109t-33 -100q0 -49 28 -74.5t79 -25.5q57 0 110 18v-139q-59 -19 -118 -19z" />
    <glyph glyph-name="strokeshortcomb" unicode="&#x335;" 
d="M664 481h-713v131h713v-131z" />
    <glyph glyph-name="strokelongcomb" unicode="&#x336;" 
d="M682 655h-750v164h750v-164z" />
    <glyph glyph-name="riel-khmer" unicode="&#x17db;" horiz-adv-x="1056" 
d="M713 -12h-195q-106 0 -190.5 32t-138.5 102.5t-54 170.5q0 89 54.5 154.5t146 98t209.5 34.5v143h-283v135h283v33q0 66 -62 108q-30 20 -90.5 55t-81.5 50q-150 102 -69 285q31 69 96.5 95.5t179.5 26.5q157 0 303 -20v-160q-186 25 -323 25q-44 0 -66 -10.5t-31 -36.5
q-21 -57 21 -86q19 -14 86.5 -52t99.5 -57q59 -36 82 -87t23 -136v-33h254v-135h-254v-735zM510 143h35v291q-242 -3 -242 -137q0 -73 59 -113.5t148 -40.5z" />
    <glyph glyph-name="Wgrave" unicode="&#x1e80;" horiz-adv-x="2136" 
d="M1165 1614h-184l-303 336h233zM807 0h-342l-404 1495h207l338 -1315h64l274 1254h256l309 -1254h64l301 1315h201l-367 -1495h-344l-293 1167z" />
    <glyph glyph-name="wgrave" unicode="&#x1e81;" horiz-adv-x="1736" 
d="M975 1253h-168l-225 406h215zM670 0h-308l-309 1094h189l258 -938h41l188 901h266l219 -901h41l226 938h178l-268 -1094h-306l-223 909z" />
    <glyph glyph-name="Wacute" unicode="&#x1e82;" horiz-adv-x="2136" 
d="M1133 1614h-181l260 336h230zM807 0h-342l-404 1495h207l338 -1315h64l274 1254h256l309 -1254h64l301 1315h201l-367 -1495h-344l-293 1167z" />
    <glyph glyph-name="wacute" unicode="&#x1e83;" horiz-adv-x="1736" 
d="M926 1253h-160l180 406h207zM670 0h-308l-309 1094h189l258 -938h41l188 901h266l219 -901h41l226 938h178l-268 -1094h-306l-223 909z" />
    <glyph glyph-name="Wdieresis" unicode="&#x1e84;" horiz-adv-x="2136" 
d="M854 1663q-63 0 -98 34t-35 91t35 91t98 34t98 -34t35 -91t-35 -91t-98 -34zM1288 1663q-63 0 -98 34t-35 91t35 91t98 34t98 -34t35 -91t-35 -91t-98 -34zM807 0h-342l-404 1495h207l338 -1315h64l274 1254h256l309 -1254h64l301 1315h201l-367 -1495h-344l-293 1167z
" />
    <glyph glyph-name="wdieresis" unicode="&#x1e85;" horiz-adv-x="1736" 
d="M662 1319q-62 0 -94.5 33t-32.5 88t32.5 88t94.5 33t94 -33t32 -88t-32 -88t-94 -33zM1071 1319q-62 0 -94.5 33t-32.5 88t32.5 88t94.5 33t94.5 -33t32.5 -88t-32.5 -88t-94.5 -33zM670 0h-308l-309 1094h189l258 -938h41l188 901h266l219 -901h41l226 938h178
l-268 -1094h-306l-223 909z" />
    <glyph glyph-name="Germandbls" unicode="&#x1e9e;" horiz-adv-x="2715" 
d="M694 -33q-269 0 -424 126.5t-155 346.5h198q0 -38 11.5 -76.5t40 -77t70.5 -68t109 -48t150 -18.5q185 0 282 80.5t97 201.5q0 90 -80.5 151t-228.5 74l-156 15q-202 19 -317 120.5t-115 278.5q0 206 142 330.5t374 124.5q237 0 378.5 -120.5t141.5 -336.5h-198
q0 108 -85.5 190t-236.5 82q-154 0 -234.5 -78t-80.5 -192q0 -84 64.5 -144.5t183.5 -70.5l155 -14q233 -22 363.5 -127t130.5 -283q0 -210 -156 -338.5t-424 -128.5zM2028 -33q-266 0 -418 126.5t-152 346.5h199q0 -49 18.5 -96.5t58.5 -92t116 -72t178 -27.5
q183 0 275.5 80t92.5 202q0 91 -80.5 151.5t-228.5 73.5l-164 15q-201 18 -316.5 120.5t-115.5 278.5q0 206 144 330.5t378 124.5q239 0 380.5 -120.5t141.5 -336.5h-198q0 50 -20.5 98t-59.5 87t-102.5 63t-141.5 24q-156 0 -238.5 -78t-82.5 -192q0 -84 64 -144.5
t183 -70.5l164 -14q231 -21 362.5 -126t131.5 -284q0 -211 -151.5 -339t-417.5 -128z" />
    <glyph glyph-name="Etilde" unicode="&#x1ebc;" horiz-adv-x="1228" 
d="M836 1663q-50 0 -95 14.5t-73 32.5t-67.5 32.5t-80.5 14.5q-50 0 -95.5 -22t-74.5 -60l-37 127q31 44 86.5 71.5t124.5 27.5q50 0 95 -15t73 -32.5t67.5 -32.5t80.5 -15q50 0 95.5 22t74.5 60l37 -127q-32 -43 -87.5 -70.5t-123.5 -27.5zM1102 0h-885v1495h864v-180h-663
v-465h620v-180h-620v-490h684v-180z" />
    <glyph glyph-name="etilde" unicode="&#x1ebd;" horiz-adv-x="1253" 
d="M780 1313q-45 0 -86.5 16t-68 35t-62 35t-69.5 16q-80 0 -144 -80l-33 131q75 93 183 93q45 0 86.5 -16t68 -35.5t62 -35.5t69.5 -16q82 0 146 80l33 -131q-74 -92 -185 -92zM653 -37q-112 0 -204.5 32.5t-155 87t-105.5 127.5t-62.5 153t-19.5 165v37q0 87 20 167.5
t63 153.5t104.5 127t151 85.5t196.5 31.5q128 0 230 -44.5t164.5 -120t95 -169.5t32.5 -198v-88h-868q10 -170 99 -272.5t259 -102.5q124 0 207 55t101 136h184q-35 -170 -166.5 -266.5t-325.5 -96.5zM641 958q-143 0 -228.5 -80.5t-109.5 -220.5h668q-19 143 -102.5 222
t-227.5 79z" />
    <glyph glyph-name="Ygrave" unicode="&#x1ef2;" horiz-adv-x="1335" 
d="M756 1614h-185l-303 336h234zM778 0h-196v582h-74l-475 913h209l389 -760h104l367 760h196l-446 -913h-74v-582z" />
    <glyph glyph-name="ygrave" unicode="&#x1ef3;" horiz-adv-x="1120" 
d="M666 1253h-168l-226 406h215zM260 -426h-145v176h157q104 0 162 41.5t88 142.5l27 91h-121l-391 1069h201l317 -906h43l268 906h193l-365 -1211q-49 -160 -156.5 -234.5t-277.5 -74.5z" />
    <glyph glyph-name="endash" unicode="&#x2013;" horiz-adv-x="1048" 
d="M1012 485h-975v168h975v-168z" />
    <glyph glyph-name="emdash" unicode="&#x2014;" horiz-adv-x="1843" 
d="M1806 485h-1769v168h1769v-168z" />
    <glyph glyph-name="quoteleft" unicode="&#x2018;" horiz-adv-x="499" 
d="M387 1511h14v-106h-18q-96 0 -137 -51.5t-41 -163.5v-47q12 2 35 2q58 0 95.5 -36.5t37.5 -98.5q0 -60 -36.5 -99t-96.5 -39q-68 0 -111 50t-43 170v43q0 109 21 184t62 116.5t93.5 58.5t124.5 17z" />
    <glyph glyph-name="quoteright" unicode="&#x2019;" horiz-adv-x="499" 
d="M113 872h-15v107h19q96 0 137 51.5t41 163.5v47q-12 -2 -35 -2q-58 0 -95.5 36.5t-37.5 98.5q0 60 36.5 98.5t96.5 38.5q154 0 154 -219v-43q0 -109 -21 -184.5t-62 -116.5t-93.5 -58.5t-124.5 -17.5z" />
    <glyph glyph-name="quotesinglbase" unicode="&#x201a;" horiz-adv-x="499" 
d="M113 -371h-15v107h19q96 0 137 51.5t41 163.5v47q-12 -2 -35 -2q-58 0 -95.5 36.5t-37.5 98.5q0 60 36.5 98.5t96.5 38.5q154 0 154 -219v-43q0 -109 -21 -184.5t-62 -116.5t-93.5 -58.5t-124.5 -17.5z" />
    <glyph glyph-name="quotedblleft" unicode="&#x201c;" horiz-adv-x="897" 
d="M784 1511h15v-106h-19q-96 0 -137 -51.5t-41 -163.5v-47q12 2 35 2q58 0 95.5 -36.5t37.5 -98.5q0 -60 -36.5 -99t-96.5 -39q-68 0 -111 50t-43 170v43q0 109 21 184t62 116.5t93.5 58.5t124.5 17zM387 1511h14v-106h-18q-96 0 -137 -51.5t-41 -163.5v-47q12 2 35 2
q58 0 95.5 -36.5t37.5 -98.5q0 -60 -36.5 -99t-96.5 -39q-68 0 -111 50t-43 170v43q0 109 21 184t62 116.5t93.5 58.5t124.5 17z" />
    <glyph glyph-name="quotedblright" unicode="&#x201d;" horiz-adv-x="897" 
d="M113 872h-15v107h19q96 0 137 51.5t41 163.5v47q-12 -2 -35 -2q-58 0 -95.5 36.5t-37.5 98.5q0 60 36.5 98.5t96.5 38.5q154 0 154 -219v-43q0 -109 -21 -184.5t-62 -116.5t-93.5 -58.5t-124.5 -17.5zM510 872h-14v107h18q96 0 137 51.5t41 163.5v47q-12 -2 -35 -2
q-58 0 -95.5 36.5t-37.5 98.5q0 60 36.5 98.5t96.5 38.5q154 0 154 -219v-43q0 -109 -21 -184.5t-62 -116.5t-93.5 -58.5t-124.5 -17.5z" />
    <glyph glyph-name="quotedblbase" unicode="&#x201e;" horiz-adv-x="897" 
d="M113 -371h-15v107h19q96 0 137 51.5t41 163.5v47q-12 -2 -35 -2q-58 0 -95.5 36.5t-37.5 98.5q0 60 36.5 98.5t96.5 38.5q154 0 154 -219v-43q0 -109 -21 -184.5t-62 -116.5t-93.5 -58.5t-124.5 -17.5zM510 -371h-14v107h18q96 0 137 51.5t41 163.5v47q-12 -2 -35 -2
q-58 0 -95.5 36.5t-37.5 98.5q0 60 36.5 98.5t96.5 38.5q154 0 154 -219v-43q0 -109 -21 -184.5t-62 -116.5t-93.5 -58.5t-124.5 -17.5z" />
    <glyph glyph-name="dagger" unicode="&#x2020;" horiz-adv-x="1118" 
d="M1020 938h-922v156h373v401h176v-401h373v-156zM647 -410h-176v1176h176v-1176z" />
    <glyph glyph-name="daggerdbl" unicode="&#x2021;" horiz-adv-x="1118" 
d="M1020 938h-922v156h373v401h176v-401h373v-156zM647 307h-176v471h176v-471zM647 -410h-176v402h-373v155h922v-155h-373v-402z" />
    <glyph glyph-name="bullet" unicode="&#x2022;" horiz-adv-x="884" 
d="M688 332h-491v516h491v-516z" />
    <glyph glyph-name="ellipsis" unicode="&#x2026;" horiz-adv-x="1650" 
d="M410 0h-238v250h238v-250zM944 0h-237v250h237v-250zM1479 0h-238v250h238v-250z" />
    <glyph glyph-name="perthousand" unicode="&#x2030;" horiz-adv-x="2529" 
d="M403 692q-86 0 -150.5 30.5t-103 84.5t-57 122t-18.5 148v53q0 173 83 279.5t246 106.5t246.5 -106.5t83.5 -279.5v-53q0 -80 -19 -148t-57 -122t-103 -84.5t-151 -30.5zM670 0h-156l565 1495h156zM403 827q187 0 187 275q0 143 -46.5 210.5t-140.5 67.5
q-186 0 -186 -276q0 -277 186 -277zM1337 -20q-86 0 -150.5 30.5t-103 84.5t-57 122t-18.5 148v53q0 173 83 279t246 106t246.5 -106t83.5 -279v-53q0 -80 -19 -148t-57 -122t-103 -84.5t-151 -30.5zM2126 -20q-86 0 -151 30.5t-103 84.5t-57 122t-19 148v53q0 173 83.5 279
t246.5 106t246.5 -106t83.5 -279v-53q0 -80 -19 -148t-57 -122t-103 -84.5t-151 -30.5zM1337 115q187 0 187 274q0 279 -187 279q-186 0 -186 -277q0 -276 186 -276zM2126 115q186 0 186 274q0 143 -46.5 211t-139.5 68q-187 0 -187 -277q0 -276 187 -276z" />
    <glyph glyph-name="minute" unicode="&#x2032;" horiz-adv-x="536" 
d="M291 942h-168l123 553h168z" />
    <glyph glyph-name="second" unicode="&#x2033;" horiz-adv-x="880" 
d="M291 942h-168l123 553h168zM635 942h-168l123 553h168z" />
    <glyph glyph-name="guilsinglleft" unicode="&#x2039;" horiz-adv-x="659" 
d="M545 80h-197l-266 405v86l278 418h185l-279 -436v-37z" />
    <glyph glyph-name="guilsinglright" unicode="&#x203a;" horiz-adv-x="659" 
d="M115 989h196l267 -405v-86l-279 -418h-184l278 436v37z" />
    <glyph glyph-name="fraction" unicode="&#x2044;" horiz-adv-x="442" 
d="M-68 -45h-168l764 1438h168z" />
    <glyph glyph-name="four.superior" unicode="&#x2074;" horiz-adv-x="817" 
d="M670 860h-156v164h-455v168l338 508l133 -82l-294 -438l14 -21h264v291h156v-291h102v-135h-102v-164z" />
    <glyph glyph-name="Euro" unicode="&#x20ac;" horiz-adv-x="1433" 
d="M829 -29q-250 0 -401 135t-195 400h-196v135h182q-2 29 -2 92v29v55h-143v135h153q37 284 185 428t403 144q254 0 386.5 -120.5t141.5 -326.5h-176q-9 132 -98.5 205.5t-253.5 73.5q-173 0 -275 -97.5t-132 -306.5h575v-135h-588q-2 -23 -2 -69q0 -41 4 -107h549v-135
h-532q73 -367 415 -367q169 0 256 73t95 206h176q-9 -208 -140.5 -327.5t-386.5 -119.5z" />
    <glyph glyph-name="trademark" unicode="&#x2122;" horiz-adv-x="1757" 
d="M913 692h-118v803h168l243 -559h17l243 559h168v-803h-127v627l-213 -483h-168l-213 483v-627zM428 692h-131v692h-248v111h627v-111h-248v-692z" />
    <glyph glyph-name="minus" unicode="&#x2212;" horiz-adv-x="1208" 
d="M1073 627h-938v155h938v-155z" />
    <glyph glyph-name="divisionslash" unicode="&#x2215;" horiz-adv-x="872" 
d="M164 -123h-164l709 1784h163z" />
    <glyph glyph-name="lessequal" unicode="&#x2264;" horiz-adv-x="1208" 
d="M1053 535v-154l-897 250v241l897 250v-157l-754 -201v-29zM1053 74h-897v155h897v-155z" />
    <glyph glyph-name="greaterequal" unicode="&#x2265;" horiz-adv-x="1208" 
d="M1053 631l-897 -250v158l753 200v29l-753 201v153l897 -250v-241zM1053 74h-897v155h897v-155z" />
    <glyph glyph-name="sora" unicode="&#xe000;" horiz-adv-x="1687" 
d="M844 786l-514 -786h-199l631 967h-629v141h629v246h-629v141h1421v-141h-628v-246h628v-141h-628l628 -967h-198z" />
    <glyph glyph-name="I.salt" horiz-adv-x="917" 
d="M737 0h-557v172h178v1151h-178v172h557v-172h-178v-1151h178v-172z" />
    <glyph glyph-name="Iacute.salt" horiz-adv-x="917" 
d="M520 1614h-180l260 336h229zM737 0h-557v172h178v1151h-178v172h557v-172h-178v-1151h178v-172z" />
    <glyph glyph-name="Ibreve.salt" horiz-adv-x="917" 
d="M459 1602q-165 0 -248.5 96t-91.5 252h139q5 -97 53 -157t148 -60q101 0 154.5 61t58.5 156h127q-8 -156 -91.5 -252t-248.5 -96zM737 0h-557v172h178v1151h-178v172h557v-172h-178v-1151h178v-172z" />
    <glyph glyph-name="Icircumflex.salt" horiz-adv-x="917" 
d="M258 1614h-178l262 336h238l266 -336h-182l-189 237h-33zM737 0h-557v172h178v1151h-178v172h557v-172h-178v-1151h178v-172z" />
    <glyph glyph-name="Idieresis.salt" horiz-adv-x="917" 
d="M242 1663q-63 0 -98 34t-35 91t35 91t98 34t98 -34t35 -91t-35 -91t-98 -34zM676 1663q-63 0 -98 34t-35 91t35 91t98 34t98 -34t35 -91t-35 -91t-98 -34zM737 0h-557v172h178v1151h-178v172h557v-172h-178v-1151h178v-172z" />
    <glyph glyph-name="Idotaccent.salt" horiz-adv-x="917" 
d="M459 1663q-63 0 -98 34t-35 91t35 91t98 34t98 -34t35 -91t-35 -91t-98 -34zM737 0h-557v172h178v1151h-178v172h557v-172h-178v-1151h178v-172z" />
    <glyph glyph-name="Igrave.salt" horiz-adv-x="917" 
d="M553 1614h-184l-303 336h233zM737 0h-557v172h178v1151h-178v172h557v-172h-178v-1151h178v-172z" />
    <glyph glyph-name="Imacron.salt" horiz-adv-x="917" 
d="M799 1708h-680v141h680v-141zM737 0h-557v172h178v1151h-178v172h557v-172h-178v-1151h178v-172z" />
    <glyph glyph-name="Iogonek.salt" horiz-adv-x="917" 
d="M485 -520q-113 0 -184.5 69.5t-71.5 174.5q0 150 152 276h-201v172h178v1151h-178v172h557v-172h-178v-1151h178v-172h-159l-68 -47q-66 -46 -101.5 -100.5t-35.5 -108.5q0 -51 32.5 -86t92.5 -35q55 0 104 19v-144q-56 -18 -117 -18z" />
    <glyph glyph-name="Itilde.salt" horiz-adv-x="917" 
d="M633 1663q-50 0 -95 14.5t-73 32.5t-67.5 32.5t-80.5 14.5q-50 0 -95.5 -22t-74.5 -60l-36 127q31 44 86.5 71.5t124.5 27.5q50 0 95 -15t73 -32.5t67 -32.5t80 -15q50 0 95.5 22t74.5 60l37 -127q-32 -43 -87.5 -70.5t-123.5 -27.5zM737 0h-557v172h178v1151h-178v172
h557v-172h-178v-1151h178v-172z" />
    <glyph glyph-name="J.salt" horiz-adv-x="1200" 
d="M555 -41q-201 0 -322.5 119.5t-121.5 345.5v227h200v-264q0 -115 66 -179.5t178 -64.5t178 64.5t66 179.5v1108h200v-1071q0 -226 -122 -345.5t-322 -119.5z" />
    <glyph glyph-name="Jcircumflex.salt" horiz-adv-x="1200" 
d="M698 1614h-178l262 336h238l266 -336h-182l-189 237h-32zM555 -41q-201 0 -322.5 119.5t-121.5 345.5v227h200v-264q0 -115 66 -179.5t178 -64.5t178 64.5t66 179.5v1108h200v-1071q0 -226 -122 -345.5t-322 -119.5z" />
    <glyph glyph-name="P.salt" horiz-adv-x="1335" 
d="M418 0h-201v1503h574q243 0 371 -107.5t128 -303.5v-33q0 -196 -127.5 -304t-371.5 -108h-373v-647zM827 1327h-409v-504h409q128 0 193 66.5t65 185.5q0 118 -66.5 185t-191.5 67z" />
    <glyph glyph-name="Q.salt" horiz-adv-x="1771" 
d="M887 -37q-154 0 -285 48.5t-219 127t-150 179.5t-90 205.5t-28 205.5v45q0 109 29.5 216t92.5 206t152 174.5t218 120.5t280 45t280 -45t218 -120.5t152 -174.5t92.5 -206t29.5 -216v-45q0 -160 -72.5 -323.5t-208.5 -276.5l199 -272h-197l-135 186q-157 -80 -358 -80z
M887 147q130 0 241 54l-294 401h196l230 -313q93 84 143.5 205t50.5 256q0 124 -40 234t-112 191.5t-179.5 129t-235.5 47.5q-170 0 -301 -81.5t-199 -217.5t-68 -303q0 -118 40 -227t112 -192.5t180.5 -133.5t235.5 -50z" />
    <glyph glyph-name="R.salt" horiz-adv-x="1454" 
d="M418 0h-201v1503h584q244 0 370.5 -108t126.5 -305v-33q0 -140 -64 -237t-190 -142l308 -678h-224l-284 641h-43h-383v-641zM840 1327h-422v-508h422q127 0 190.5 67t63.5 187t-64.5 187t-189.5 67z" />
    <glyph glyph-name="Racute.salt" horiz-adv-x="1454" 
d="M756 1614h-181l261 336h229zM418 0h-201v1503h584q244 0 370.5 -108t126.5 -305v-33q0 -140 -64 -237t-190 -142l308 -678h-224l-284 641h-43h-383v-641zM840 1327h-422v-508h422q127 0 190.5 67t63.5 187t-64.5 187t-189.5 67z" />
    <glyph glyph-name="Rcaron.salt" horiz-adv-x="1454" 
d="M807 1614h-229l-269 336h183l186 -238h33l166 238h178zM418 0h-201v1503h584q244 0 370.5 -108t126.5 -305v-33q0 -140 -64 -237t-190 -142l308 -678h-224l-284 641h-43h-383v-641zM840 1327h-422v-508h422q127 0 190.5 67t63.5 187t-64.5 187t-189.5 67z" />
    <glyph glyph-name="Rcommaaccent.salt" horiz-adv-x="1454" 
d="M418 0h-201v1503h584q244 0 370.5 -108t126.5 -305v-33q0 -140 -64 -237t-190 -142l308 -678h-224l-284 641h-43h-383v-641zM840 1327h-422v-508h422q127 0 190.5 67t63.5 187t-64.5 187t-189.5 67zM647 -582h-14v99h18q69 0 109.5 44.5t40.5 116.5v3q-26 -11 -49 -11
q-49 0 -82 29t-33 82q0 55 35 86t84 31q68 0 111.5 -52t43.5 -151v-12q0 -124 -72 -194.5t-192 -70.5z" />
    <glyph glyph-name="idotaccent" horiz-adv-x="630" 
d="M274 1319q-62 0 -94.5 33t-32.5 88t32.5 88t94.5 33t94.5 -33t32.5 -88t-32.5 -88t-94.5 -33zM438 0h-196v938h-168v156h364v-1094z" />
    <glyph glyph-name="f.salt" horiz-adv-x="765" 
d="M406 0h-189v926h-151v147h151v191q0 119 78 191.5t209 72.5t202.5 -72.5t71.5 -191.5h-155q0 49 -30 80.5t-81 31.5t-78.5 -31.5t-27.5 -80.5v-191h327v-147h-327v-926z" />
    <glyph glyph-name="l.salt" horiz-adv-x="626" 
d="M549 -12h-103q-141 0 -215.5 61t-74.5 197v1249h196v-1257q0 -82 82 -82h115v-168z" />
    <glyph glyph-name="lacute.salt" horiz-adv-x="626" 
d="M315 1614h-180l260 336h230zM549 -12h-103q-141 0 -215.5 61t-74.5 197v1249h196v-1257q0 -82 82 -82h115v-168z" />
    <glyph glyph-name="lcaron.salt" horiz-adv-x="626" 
d="M651 1171h-135v492h160zM549 -12h-103q-141 0 -215.5 61t-74.5 197v1249h196v-1257q0 -82 82 -82h115v-168z" />
    <glyph glyph-name="lcommaaccent.salt" horiz-adv-x="626" 
d="M549 -12h-103q-141 0 -215.5 61t-74.5 197v1249h196v-1257q0 -82 82 -82h115v-168zM348 -102q67 0 107.5 -52.5t40.5 -152.5v-12q0 -121 -64.5 -183.5t-187.5 -62.5h-15v94h19q71 0 107 38.5t34 100.5v27q-24 -12 -53 -12q-44 0 -73.5 26t-29.5 78q0 55 32.5 83t82.5 28z
" />
    <glyph glyph-name="lslash.salt" horiz-adv-x="626" 
d="M549 -12h-103q-141 0 -215.5 61t-74.5 197v295l-121 -70v147l121 70v807h196v-702l180 102v-147l-180 -103v-407q0 -82 82 -82h115v-168z" />
    <glyph glyph-name="r.salt" horiz-adv-x="876" 
d="M385 0h-197v1094h152v-269q34 281 311 281h193v-176h-246q-213 0 -213 -213v-717z" />
    <glyph glyph-name="racute.salt" horiz-adv-x="876" 
d="M573 1253h-159l180 406h207zM385 0h-197v1094h152v-269q34 281 311 281h193v-176h-246q-213 0 -213 -213v-717z" />
    <glyph glyph-name="rcaron.salt" horiz-adv-x="876" 
d="M623 1253h-217l-226 406h162l168 -307h16l142 307h153zM385 0h-197v1094h152v-269q34 281 311 281h193v-176h-246q-213 0 -213 -213v-717z" />
    <glyph glyph-name="rcommaaccent.salt" horiz-adv-x="876" 
d="M385 0h-197v1094h152v-269q34 281 311 281h193v-176h-246q-213 0 -213 -213v-717zM285 -102q67 0 107 -52.5t40 -152.5v-12q0 -121 -64.5 -183.5t-187.5 -62.5h-14v94h18q71 0 107.5 39t34.5 100v27q-24 -12 -54 -12q-44 0 -73 26t-29 78q0 55 32.5 83t82.5 28z" />
    <glyph glyph-name="t.salt" horiz-adv-x="950" 
d="M553 -29q-151 0 -241.5 90.5t-90.5 251.5v633h-188v148h188v331h189v-331h421v-148h-421v-641q0 -87 42.5 -130.5t112.5 -43.5t115 44t45 130h160q0 -152 -90.5 -243t-241.5 -91z" />
    <glyph glyph-name="tbar.salt" horiz-adv-x="950" 
d="M553 -29q-151 0 -241.5 90.5t-90.5 251.5v215h-168v131h168v287h-188v148h188v331h189v-331h421v-148h-421v-287h356v-131h-356v-223q0 -87 42.5 -130.5t112.5 -43.5t115 44t45 130h160q0 -152 -90.5 -243t-241.5 -91z" />
    <glyph glyph-name="tcaron.salt" horiz-adv-x="950" 
d="M733 1257h-135v492h160zM553 -29q-151 0 -241.5 90.5t-90.5 251.5v633h-188v148h188v331h189v-331h421v-148h-421v-641q0 -87 42.5 -130.5t112.5 -43.5t115 44t45 130h160q0 -152 -90.5 -243t-241.5 -91z" />
    <glyph glyph-name="tcedilla.salt" horiz-adv-x="950" 
d="M528 -496q-69 0 -139 19v131q74 -19 139 -19q62 0 94.5 21t32.5 55q0 72 -110 72h-78v197q-115 25 -180.5 110.5t-65.5 222.5v633h-188v148h188v331h189v-331h421v-148h-421v-641q0 -87 42.5 -130.5t112.5 -43.5t115 44t45 130h160q0 -144 -81 -233.5t-218 -98.5v-73
q97 -11 153 -59t56 -126q0 -91 -72.5 -151t-194.5 -60z" />
    <glyph glyph-name="tcommaaccent.salt" horiz-adv-x="950" 
d="M553 -29q-151 0 -241.5 90.5t-90.5 251.5v633h-188v148h188v331h189v-331h421v-148h-421v-641q0 -87 42.5 -130.5t112.5 -43.5t115 44t45 130h160q0 -152 -90.5 -243t-241.5 -91zM535 -102q67 0 107 -52.5t40 -152.5v-12q0 -121 -64.5 -183.5t-187.5 -62.5h-14v94h18
q71 0 107 38.5t34 100.5v27q-24 -12 -53 -12q-44 0 -73 26t-29 78q0 55 32.5 83t82.5 28z" />
    <glyph glyph-name="u.salt" horiz-adv-x="1269" 
d="M635 -37q-204 0 -337.5 130.5t-133.5 365.5v635h196v-672q0 -130 75 -204.5t200 -74.5t199.5 74.5t74.5 204.5v672h197v-635q0 -235 -133.5 -365.5t-337.5 -130.5z" />
    <glyph glyph-name="uacute.salt" horiz-adv-x="1269" 
d="M694 1253h-159l180 406h207zM635 -37q-204 0 -337.5 130.5t-133.5 365.5v635h196v-672q0 -130 75 -204.5t200 -74.5t199.5 74.5t74.5 204.5v672h197v-635q0 -235 -133.5 -365.5t-337.5 -130.5z" />
    <glyph glyph-name="ubreve.salt" horiz-adv-x="1269" 
d="M637 1241q-151 0 -230 107.5t-85 310.5h135q16 -287 180 -287q168 0 184 287h127q-13 -418 -311 -418zM635 -37q-204 0 -337.5 130.5t-133.5 365.5v635h196v-672q0 -130 75 -204.5t200 -74.5t199.5 74.5t74.5 204.5v672h197v-635q0 -235 -133.5 -365.5t-337.5 -130.5z
" />
    <glyph glyph-name="ucircumflex.salt" horiz-adv-x="1269" 
d="M459 1253h-160l225 406h221l222 -406h-160l-164 308h-16zM635 -37q-204 0 -337.5 130.5t-133.5 365.5v635h196v-672q0 -130 75 -204.5t200 -74.5t199.5 74.5t74.5 204.5v672h197v-635q0 -235 -133.5 -365.5t-337.5 -130.5z" />
    <glyph glyph-name="udieresis.salt" horiz-adv-x="1269" 
d="M430 1319q-62 0 -94.5 33t-32.5 88t32.5 88t94.5 33t94.5 -33t32.5 -88t-32.5 -88t-94.5 -33zM840 1319q-62 0 -94.5 33t-32.5 88t32.5 88t94.5 33t94.5 -33t32.5 -88t-32.5 -88t-94.5 -33zM635 -37q-204 0 -337.5 130.5t-133.5 365.5v635h196v-672q0 -130 75 -204.5
t200 -74.5t199.5 74.5t74.5 204.5v672h197v-635q0 -235 -133.5 -365.5t-337.5 -130.5z" />
    <glyph glyph-name="ugrave.salt" horiz-adv-x="1269" 
d="M743 1253h-168l-225 406h215zM635 -37q-204 0 -337.5 130.5t-133.5 365.5v635h196v-672q0 -130 75 -204.5t200 -74.5t199.5 74.5t74.5 204.5v672h197v-635q0 -235 -133.5 -365.5t-337.5 -130.5z" />
    <glyph glyph-name="uhungarumlaut.salt" horiz-adv-x="1269" 
d="M870 1253h-151l145 406h187zM539 1253h-152l145 406h187zM635 -37q-204 0 -337.5 130.5t-133.5 365.5v635h196v-672q0 -130 75 -204.5t200 -74.5t199.5 74.5t74.5 204.5v672h197v-635q0 -235 -133.5 -365.5t-337.5 -130.5z" />
    <glyph glyph-name="umacron.salt" horiz-adv-x="1269" 
d="M920 1364h-570v141h570v-141zM635 -37q-204 0 -337.5 130.5t-133.5 365.5v635h196v-672q0 -130 75 -204.5t200 -74.5t199.5 74.5t74.5 204.5v672h197v-635q0 -235 -133.5 -365.5t-337.5 -130.5z" />
    <glyph glyph-name="uogonek.salt" horiz-adv-x="1269" 
d="M741 -496q-109 0 -173 58t-64 162q0 67 31.5 123.5t95.5 115.5q-98 1 -182 33.5t-148 93.5t-100.5 156t-36.5 213v635h196v-672q0 -130 75 -204.5t200 -74.5t199.5 74.5t74.5 204.5v672h197v-635q0 -171 -72 -287.5t-196 -169.5l2 -2l-58 -47q-74 -60 -106.5 -109
t-32.5 -100q0 -49 28 -74.5t79 -25.5q57 0 110 18v-139q-59 -19 -119 -19z" />
    <glyph glyph-name="uring.salt" horiz-adv-x="1269" 
d="M635 1233q-102 0 -165.5 65t-63.5 164t63.5 164.5t165.5 65.5t165.5 -65.5t63.5 -164.5t-63.5 -164t-165.5 -65zM635 1339q54 0 86.5 34.5t32.5 88.5t-32.5 88.5t-86.5 34.5t-86.5 -34.5t-32.5 -88.5t32.5 -88.5t86.5 -34.5zM635 -37q-204 0 -337.5 130.5t-133.5 365.5
v635h196v-672q0 -130 75 -204.5t200 -74.5t199.5 74.5t74.5 204.5v672h197v-635q0 -235 -133.5 -365.5t-337.5 -130.5z" />
    <glyph glyph-name="utilde.salt" horiz-adv-x="1269" 
d="M774 1313q-45 0 -87 16t-68.5 35t-62 35t-69.5 16q-79 0 -143 -80l-33 131q75 93 183 93q45 0 86.5 -16t68 -35.5t62 -35.5t69.5 -16q82 0 146 80l32 -131q-74 -92 -184 -92zM635 -37q-204 0 -337.5 130.5t-133.5 365.5v635h196v-672q0 -130 75 -204.5t200 -74.5
t199.5 74.5t74.5 204.5v672h197v-635q0 -235 -133.5 -365.5t-337.5 -130.5z" />
    <glyph glyph-name="f_f.salt" horiz-adv-x="1482" 
d="M406 0h-189v926h-151v147h151v178q0 118 77 191.5t206 73.5q127 0 194.5 -72t67.5 -193h-156q0 48 -27 80.5t-75 32.5q-47 0 -72.5 -32t-25.5 -81v-178h528v191q0 119 78.5 191.5t212.5 72.5q132 0 201 -71t69 -193h-156q0 49 -29.5 80.5t-80.5 31.5t-79 -31.5t-28 -80.5
v-191h328v-147h-328v-926h-188v926h-528v-926z" />
    <glyph glyph-name="f_f_i.salt" horiz-adv-x="2076" 
d="M406 0h-189v946h-151v148h151v161q0 118 76.5 189.5t206.5 71.5q127 0 194.5 -70.5t67.5 -190.5h-156q0 47 -28 78t-74 31t-72 -31t-26 -78v-161h530v174q0 119 78.5 189.5t212.5 70.5q132 0 201 -69.5t69 -190.5h-156q0 48 -30 78t-80 30t-78.5 -30t-28.5 -78v-174h285
v-148h-285v-946h-188v946h-530v-946zM1747 1270q-64 0 -96.5 33.5t-32.5 89.5t32.5 89.5t96.5 33.5t96.5 -33.5t32.5 -89.5t-32.5 -89.5t-96.5 -33.5zM1884 0h-196v938h-168v156h364v-1094z" />
    <glyph glyph-name="f_f_j.salt" horiz-adv-x="2078" 
d="M1749 1286q-64 0 -96.5 33.5t-32.5 89.5t32.5 89.5t96.5 33.5t96.5 -33.5t32.5 -89.5t-32.5 -89.5t-96.5 -33.5zM406 0h-189v946h-151v148h151v170q0 117 76 184.5t207 67.5q128 0 195 -66.5t67 -185.5h-156q0 43 -28.5 71.5t-73.5 28.5t-71.5 -28t-26.5 -72v-170h530
v174q0 118 78 189t211 71q130 0 199 -70t69 -190h-156q0 47 -29 77.5t-79 30.5q-49 0 -77 -30.5t-28 -77.5v-174h308v-148h-308v-946h-188v946h-530v-946zM1511 -410h-90v177h119q77 0 119.5 42.5t42.5 118.5v1010h-160v156h348v-1137q0 -204 -86 -285.5t-293 -81.5z" />
    <glyph glyph-name="f_f_l.salt" horiz-adv-x="2091" 
d="M406 0h-189v926h-151v147h151v178q0 118 77 191.5t206 73.5q127 0 194.5 -72t67.5 -193h-156q0 48 -27 80.5t-75 32.5q-47 0 -72.5 -32t-25.5 -81v-178h530v191q0 119 76.5 191.5t208.5 72.5q130 0 197 -71.5t67 -192.5h-156q0 48 -27.5 80t-76.5 32t-75 -32t-26 -80
v-191h316v-147h-316v-926h-188v926h-530v-926zM2013 -12h-102q-141 0 -216 61t-75 197v1249h197v-1257q0 -82 81 -82h115v-168z" />
    <glyph glyph-name="f_j.salt" horiz-adv-x="1359" 
d="M1030 1286q-64 0 -96.5 33.5t-32.5 89.5t32.5 89.5t96.5 33.5t96.5 -33.5t32.5 -89.5t-32.5 -89.5t-96.5 -33.5zM406 0h-189v946h-151v148h151v174q0 118 78 189t211 71q130 0 199 -70t69 -190h-156q0 47 -29 77.5t-79 30.5q-49 0 -76.5 -30t-27.5 -78v-174h307v-148
h-307v-946zM793 -410h-91v177h119q77 0 119.5 42.5t42.5 118.5v1010h-160v156h348v-1137q0 -204 -85.5 -285.5t-292.5 -81.5z" />
    <glyph glyph-name="fi.salt" horiz-adv-x="1355" 
d="M406 0h-189v946h-151v148h151v170q0 119 78.5 191.5t212.5 72.5q132 0 201 -71t69 -193h-155q0 49 -30 80.5t-81 31.5t-78.5 -31.5t-27.5 -80.5v-170h284v-148h-284v-946zM1028 1270q-64 0 -96.5 33.5t-32.5 89.5t32.5 89.5t96.5 33.5t96.5 -33.5t32.5 -89.5t-32.5 -89.5
t-96.5 -33.5zM1163 0h-196v938h-166v156h362v-1094z" />
    <glyph glyph-name="fl.salt" horiz-adv-x="1372" 
d="M406 0h-189v926h-151v147h151v191q0 119 76.5 191.5t208.5 72.5q130 0 197 -71.5t67 -192.5h-156q0 48 -27.5 80t-76.5 32t-74.5 -31.5t-25.5 -80.5v-191h315v-147h-315v-926zM1294 -12h-102q-141 0 -216 61t-75 197v1249h197v-1257q0 -82 82 -82h114v-168z" />
    <glyph glyph-name="seven.salt" horiz-adv-x="1124" 
d="M584 0h-189v272q0 330 124.5 591t354.5 427l-8 37h-825v168h1022v-260q-250 -182 -364.5 -416.5t-114.5 -546.5v-272z" />
    <glyph glyph-name="zero.tnum" horiz-adv-x="1384" 
d="M692 -41q-112 0 -202 35t-152.5 99t-104 156.5t-60.5 204t-19 244.5v95q0 230 58.5 395t180 256.5t299.5 91.5t300 -91.5t180.5 -256.5t58.5 -395v-95q0 -167 -31 -300t-95 -232.5t-168.5 -153t-244.5 -53.5zM692 135q178 0 258 145.5t80 462.5q0 326 -81 471.5
t-257 145.5t-257 -144.5t-81 -467.5q0 -319 80 -466t258 -147z" />
    <glyph glyph-name="one.tnum" horiz-adv-x="1384" 
d="M1167 0h-884v168h356v1159h-340v168h537v-1327h331v-168z" />
    <glyph glyph-name="two.tnum" horiz-adv-x="1384" 
d="M1221 0h-1012v246q0 134 64 213.5t231 156.5l276 129q115 55 172.5 131t57.5 189q0 140 -83.5 219.5t-230.5 79.5q-146 0 -228.5 -80.5t-82.5 -222.5h-192q0 99 31 183.5t91 150.5t158 103.5t223 37.5q124 0 222.5 -37.5t159.5 -102t92.5 -145.5t31.5 -172v-28
q0 -156 -89 -267t-263 -192l-277 -129q-98 -46 -132.5 -87.5t-34.5 -113.5v-94h815v-168z" />
    <glyph glyph-name="three.tnum" horiz-adv-x="1384" 
d="M680 -37q-123 0 -224.5 38t-167 103.5t-101 151t-35.5 182.5h192q0 -139 91 -221t245 -82q153 0 244.5 82t91.5 221q0 138 -92.5 225t-241.5 87q-111 0 -188 -52l-107 164l578 428l-21 37h-733v168h919v-272l-438 -322q120 -2 218.5 -39t163 -98t99.5 -141t35 -170v-29
q0 -90 -35.5 -172.5t-101 -147t-167 -103t-224.5 -38.5z" />
    <glyph glyph-name="four.tnum" horiz-adv-x="1384" 
d="M1098 0h-185v354h-786v242l614 936l138 -109l-574 -876l19 -37h589v549h185v-549h196v-156h-196v-354z" />
    <glyph glyph-name="five.tnum" horiz-adv-x="1384" 
d="M713 -37q-126 0 -229.5 41.5t-170.5 111.5t-103 159.5t-36 187.5h188q0 -143 97.5 -235.5t253.5 -92.5q155 0 252.5 93t97.5 235q0 143 -98.5 239.5t-251.5 96.5q-78 0 -159.5 -27.5t-125.5 -71.5h-182l76 795h798v-168h-641l-45 -442q118 78 287 78q99 0 185.5 -27
t148.5 -74t107 -109t67 -132.5t22 -143.5v-28q0 -92 -36.5 -178.5t-103 -155.5t-170 -110.5t-228.5 -41.5z" />
    <glyph glyph-name="six.tnum" horiz-adv-x="1384" 
d="M739 -41q-127 0 -225.5 38.5t-161.5 104t-104 159.5t-57.5 197.5t-16.5 225.5v100q0 343 178.5 532t503.5 189q116 0 254 -16v-168q-141 16 -262 16q-136 0 -232.5 -38t-153.5 -114.5t-82.5 -181t-25.5 -247.5v-35q54 116 159 179t249 63q242 0 371 -137t129 -361
q0 -226 -137 -366t-386 -140zM739 131q152 0 243 95.5t91 238.5q0 159 -81.5 246.5t-248.5 87.5q-154 0 -253 -90t-99 -244q0 -152 85 -243t263 -91z" />
    <glyph glyph-name="seven.tnum" horiz-adv-x="1384" 
d="M610 0h-204l632 1309l-10 18h-680v-250h-164v418h1033v-235z" />
    <glyph glyph-name="eight.tnum" horiz-adv-x="1384" 
d="M692 -37q-244 0 -398.5 126.5t-154.5 328.5q0 128 75.5 226t197.5 144v21q-99 43 -161.5 124.5t-62.5 192.5q0 124 69 218t182.5 141t252.5 47t252.5 -47t182.5 -141t69 -218q0 -111 -62 -192.5t-161 -124.5v-21q121 -46 196.5 -144t75.5 -226q0 -202 -154.5 -328.5
t-398.5 -126.5zM692 874q144 0 228 62t84 184q0 121 -84 182.5t-228 61.5t-227.5 -61.5t-83.5 -182.5q0 -122 84 -184t227 -62zM692 131q168 0 264.5 79t96.5 216q0 136 -96 214.5t-265 78.5t-264.5 -78.5t-95.5 -214.5q0 -137 96 -216t264 -79z" />
    <glyph glyph-name="nine.tnum" horiz-adv-x="1384" 
d="M645 1536q127 0 225.5 -38.5t161.5 -104t104 -159.5t57.5 -197.5t16.5 -225.5v-100q0 -343 -178.5 -532t-503.5 -189q-116 0 -254 16v168q141 -16 263 -16q136 0 232 38t153 114.5t82.5 181t25.5 247.5v35q-54 -116 -158.5 -179t-248.5 -63q-242 0 -371 137t-129 361
q0 226 136.5 366t385.5 140zM645 1364q-152 0 -243 -95.5t-91 -238.5q0 -159 81.5 -246.5t248.5 -87.5q154 0 253 90t99 244q0 152 -85 243t-263 91z" />
    <glyph glyph-name="seven.tnum.salt" horiz-adv-x="1384" 
d="M709 0h-189v272q0 332 128.5 592t363.5 426l-8 37h-842v168h1038v-260q-255 -182 -373 -415.5t-118 -547.5v-272z" />
    <glyph glyph-name="zero.dnom" horiz-adv-x="927" 
d="M465 -20q-185 0 -279 110.5t-94 292.5v55q0 186 96 297t277 111q180 0 275.5 -111t95.5 -297v-55q0 -182 -94 -292.5t-277 -110.5zM465 135q205 0 205 275q0 280 -205 280t-205 -278q0 -277 205 -277z" />
    <glyph glyph-name="one.dnom" horiz-adv-x="536" 
d="M403 0h-167v674h-175v149h342v-823z" />
    <glyph glyph-name="two.dnom" horiz-adv-x="778" 
d="M700 0h-606v158q0 75 41 124.5t139 90.5l148 61q57 23 85 56t28 85q0 58 -40 95t-106 37t-104.5 -37t-38.5 -99h-162q0 124 82.5 199.5t222.5 75.5t222.5 -71.5t82.5 -188.5v-13q0 -93 -50 -155t-163 -109l-147 -61q-40 -16 -58 -33.5t-18 -44.5v-25h442v-145z" />
    <glyph glyph-name="three.dnom" horiz-adv-x="778" 
d="M381 -20q-145 0 -232.5 74.5t-87.5 193.5h162q0 -58 43 -94.5t115 -36.5t115 38.5t43 98.5q0 61 -41.5 98t-114.5 37q-70 0 -113 -37l-80 127l277 183l-10 14h-359v147h578v-139l-266 -176q134 -6 213 -73.5t79 -180.5v-12q0 -117 -87.5 -189.5t-233.5 -72.5z" />
    <glyph glyph-name="four.dnom" horiz-adv-x="817" 
d="M670 0h-156v164h-455v168l338 508l133 -82l-294 -439l14 -20h264v291h156v-291h102v-135h-102v-164z" />
    <glyph glyph-name="five.dnom" horiz-adv-x="790" 
d="M399 -20q-149 0 -236 77.5t-87 198.5h162q0 -62 44 -100.5t119 -38.5q81 0 122.5 43.5t41.5 111.5t-41 111t-121 43q-91 0 -137 -68h-160l46 465h501v-147h-377l-18 -191q70 60 178 60q135 0 214 -73.5t79 -192.5v-13q0 -123 -87.5 -204.5t-242.5 -81.5z" />
    <glyph glyph-name="six.dnom" horiz-adv-x="845" 
d="M438 -23q-169 0 -259.5 102t-90.5 286v36q0 215 106.5 320.5t323.5 105.5q91 0 164 -8v-143q-82 10 -170 10q-140 0 -201 -63t-67 -185q71 117 239 117q136 0 216.5 -76t80.5 -200q0 -133 -94.5 -217.5t-247.5 -84.5zM432 117q85 0 134.5 44t49.5 113q0 68 -49 111
t-133 43q-82 0 -133 -43t-51 -113q0 -66 48.5 -110.5t133.5 -44.5z" />
    <glyph glyph-name="seven.dnom" horiz-adv-x="743" 
d="M375 0h-178l297 666l-15 18h-280v-143h-138v282h637v-80z" />
    <glyph glyph-name="eight.dnom" horiz-adv-x="817" 
d="M408 -23q-158 0 -248 65.5t-90 180.5q0 82 44 137.5t113 71.5v17q-131 43 -131 178q0 105 84.5 162t227.5 57q142 0 226.5 -56.5t84.5 -162.5q0 -136 -129 -178v-17q69 -16 113.5 -71.5t44.5 -137.5q0 -115 -90.5 -180.5t-249.5 -65.5zM408 502q69 0 109 28.5t40 75.5
q0 46 -40 74.5t-109 28.5t-108.5 -29t-39.5 -74q0 -47 40.5 -75.5t107.5 -28.5zM408 115q81 0 128.5 35.5t47.5 95.5q0 62 -47 97.5t-129 35.5q-80 0 -128.5 -36t-48.5 -97q0 -60 48.5 -95.5t128.5 -35.5z" />
    <glyph glyph-name="nine.dnom" horiz-adv-x="845" 
d="M406 846q170 0 261 -102t91 -287v-37q0 -214 -107 -320t-325 -106q-79 0 -164 10v141q105 -10 170 -10q139 0 199.5 62t68.5 184q-71 -113 -238 -113q-136 0 -216 76.5t-80 200.5q0 133 94 217t246 84zM412 707q-85 0 -134 -45t-49 -113t48.5 -111t134.5 -43q80 0 131 42
t51 112q0 67 -48.5 112.5t-133.5 45.5z" />
    <glyph glyph-name="zero.numr" horiz-adv-x="927" 
d="M465 502q-185 0 -279 110.5t-94 292.5v56q0 186 96 296.5t277 110.5q180 0 275.5 -110.5t95.5 -296.5v-56q0 -182 -94 -292.5t-277 -110.5zM465 657q205 0 205 275q0 280 -205 280t-205 -278q0 -277 205 -277z" />
    <glyph glyph-name="one.numr" horiz-adv-x="536" 
d="M403 522h-167v674h-175v150h342v-824z" />
    <glyph glyph-name="two.numr" horiz-adv-x="778" 
d="M700 522h-606v158q0 75 41 124.5t139 90.5l148 61q56 23 84.5 56.5t28.5 85.5q0 58 -39.5 94.5t-106.5 36.5q-66 0 -104.5 -36.5t-38.5 -98.5h-162q0 124 82.5 199t222.5 75t222.5 -71.5t82.5 -188.5v-12q0 -93 -50 -155.5t-163 -109.5l-147 -61q-40 -16 -58 -33.5
t-18 -44.5v-24h442v-146z" />
    <glyph glyph-name="three.numr" horiz-adv-x="778" 
d="M381 502q-145 0 -232.5 74.5t-87.5 193.5h162q0 -58 43 -94.5t115 -36.5t115 38.5t43 98.5q0 61 -41.5 98t-114.5 37q-70 0 -113 -37l-80 127l277 183l-10 14h-359v148h578v-140l-266 -176q134 -6 213 -73.5t79 -180.5v-12q0 -117 -87.5 -189.5t-233.5 -72.5z" />
    <glyph glyph-name="four.numr" horiz-adv-x="817" 
d="M670 522h-156v164h-455v168l338 508l133 -82l-294 -438l14 -21h264v291h156v-291h102v-135h-102v-164z" />
    <glyph glyph-name="five.numr" horiz-adv-x="790" 
d="M399 502q-149 0 -236 77.5t-87 198.5h162q0 -62 44 -100.5t119 -38.5q81 0 122.5 43.5t41.5 112.5q0 68 -41 110.5t-121 42.5q-92 0 -137 -67h-160l46 465h501v-148h-377l-18 -190q69 59 178 59q135 0 214 -73.5t79 -192.5v-13q0 -123 -87.5 -204.5t-242.5 -81.5z" />
    <glyph glyph-name="six.numr" horiz-adv-x="845" 
d="M438 500q-169 0 -259.5 101.5t-90.5 285.5v37q0 215 106.5 320.5t323.5 105.5q82 0 164 -9v-143q-82 10 -170 10q-141 0 -201.5 -62.5t-66.5 -184.5q71 116 239 116q136 0 216.5 -76t80.5 -200q0 -133 -94.5 -217t-247.5 -84zM432 639q84 0 134 44.5t50 113.5
q0 68 -49 110.5t-133 42.5q-82 0 -133 -42.5t-51 -112.5q0 -66 49 -111t133 -45z" />
    <glyph glyph-name="seven.numr" horiz-adv-x="743" 
d="M375 522h-178l297 666l-15 18h-280v-143h-138v283h637v-80z" />
    <glyph glyph-name="eight.numr" horiz-adv-x="817" 
d="M408 500q-159 0 -248.5 65t-89.5 180q0 82 44 137.5t113 71.5v17q-131 43 -131 178q0 105 84.5 162t227.5 57q142 0 226.5 -56.5t84.5 -162.5q0 -136 -129 -178v-17q69 -16 113.5 -71.5t44.5 -137.5q0 -115 -90.5 -180t-249.5 -65zM408 1024q69 0 109 28.5t40 75.5
q0 46 -40 74.5t-109 28.5t-108.5 -29t-39.5 -74q0 -47 40.5 -75.5t107.5 -28.5zM408 637q81 0 128.5 35.5t47.5 95.5q0 62 -47 97.5t-129 35.5q-80 0 -128.5 -36t-48.5 -97q0 -60 48.5 -95.5t128.5 -35.5z" />
    <glyph glyph-name="nine.numr" horiz-adv-x="845" 
d="M406 1368q170 0 261 -102t91 -287v-37q0 -214 -107 -320t-325 -106q-79 0 -164 10v142q116 -11 170 -11q139 0 199.5 62t68.5 184q-70 -112 -238 -112q-137 0 -216.5 76t-79.5 200q0 133 94 217t246 84zM412 1229q-85 0 -134 -45t-49 -113t48.5 -110.5t134.5 -42.5
q81 0 131.5 41.5t50.5 111.5q0 67 -48.5 112.5t-133.5 45.5z" />
    <glyph glyph-name="exclamdown.case" horiz-adv-x="606" 
d="M422 1495v-250h-238v250h238zM403 1049v-1049h-200v1049h200z" />
    <glyph glyph-name="questiondown.case" horiz-adv-x="1130" 
d="M498 1495h237v-250h-237v250zM518 1049h197v-381h-142q-139 0 -212.5 -74.5t-73.5 -194.5q0 -124 76 -196t198 -72q136 0 217.5 81t81.5 208h189q0 -91 -31.5 -173.5t-90.5 -147t-153.5 -102.5t-212.5 -38q-209 0 -336 124.5t-127 303.5v25q0 166 109.5 280.5
t308.5 134.5z" />
    <glyph glyph-name="periodcentered.case" horiz-adv-x="536" 
d="M387 641h-237v250h237v-250z" />
    <glyph glyph-name="asterisk.part" horiz-adv-x="405" 
d="M406 803l-93 -160l-313 221v197l313 221l93 -160l-269 -116v-86z" />
    <glyph glyph-name="parenleft.case" horiz-adv-x="770" 
d="M737 -242h-225q-175 194 -267.5 421t-92.5 530q0 156 25.5 292.5t75.5 251.5t112.5 210t146.5 188h225q-199 -214 -296 -435.5t-97 -506.5q0 -287 96.5 -511.5t296.5 -439.5z" />
    <glyph glyph-name="parenright.case" horiz-adv-x="770" 
d="M33 -242q200 215 296.5 439.5t96.5 511.5q0 285 -97 506.5t-296 435.5h225q84 -93 146.5 -188t112.5 -210t75.5 -251.5t25.5 -292.5q0 -303 -92.5 -530t-267.5 -421h-225z" />
    <glyph glyph-name="braceleft.case" horiz-adv-x="770" 
d="M676 -242h-49q-169 0 -271 100t-102 281v346q0 62 -38 96.5t-101 34.5v185q63 0 101 34.5t38 96.5v338q0 181 102 281t271 100h49v-156h-49q-89 0 -137 -54t-48 -159v-330q0 -210 -192 -235v-17q192 -25 192 -235v-338q0 -105 48 -159t137 -54h49v-156z" />
    <glyph glyph-name="braceright.case" horiz-adv-x="770" 
d="M94 -242v156h49q89 0 137 54t48 159v338q0 210 192 235v17q-192 25 -192 235v330q0 105 -48 159t-137 54h-49v156h49q169 0 271 -100t102 -281v-338q0 -62 38 -96.5t101 -34.5v-185q-63 0 -101 -34.5t-38 -96.5v-346q0 -181 -102 -281t-271 -100h-49z" />
    <glyph glyph-name="bracketleft.case" horiz-adv-x="770" 
d="M659 -242h-434v1893h434v-156h-245v-1581h245v-156z" />
    <glyph glyph-name="bracketright.case" horiz-adv-x="770" 
d="M111 -242v156h245v1581h-245v156h434v-1893h-434z" />
    <glyph glyph-name="hyphen.case" horiz-adv-x="1032" 
d="M897 672h-762v172h762v-172z" />
    <glyph glyph-name="endash.case" horiz-adv-x="1048" 
d="M1012 672h-975v168h975v-168z" />
    <glyph glyph-name="emdash.case" horiz-adv-x="1843" 
d="M1806 672h-1769v168h1769v-168z" />
    <glyph glyph-name="guillemotleft.case" horiz-adv-x="1110" 
d="M553 289h-201l-270 409v90l283 422h188l-287 -440v-41zM1004 289h-201l-271 409v90l283 422h189l-287 -440v-41z" />
    <glyph glyph-name="guillemotright.case" horiz-adv-x="1110" 
d="M557 1210h201l270 -409v-90l-283 -422h-188l287 440v41zM106 1210h201l271 -409v-90l-283 -422h-189l287 440v41z" />
    <glyph glyph-name="guilsinglleft.case" horiz-adv-x="659" 
d="M553 289h-201l-270 409v90l283 422h188l-287 -440v-41z" />
    <glyph glyph-name="guilsinglright.case" horiz-adv-x="659" 
d="M106 1210h201l271 -409v-90l-283 -422h-189l287 440v41z" />
    <glyph glyph-name="cent.tnum" horiz-adv-x="1384" 
d="M807 0h-176v219q-114 13 -204.5 63t-145 122t-83 156.5t-28.5 174.5v41q0 91 29 176t84.5 157t145 121t202.5 62v203h176v-203q170 -21 280.5 -118.5t131.5 -260.5h-189q-15 97 -99.5 157t-211.5 60q-168 0 -262.5 -102t-94.5 -272q0 -168 93.5 -271.5t263.5 -103.5
q131 0 221 63.5t102 159.5h189q-17 -159 -134 -260.5t-290 -124.5v-219z" />
    <glyph glyph-name="currency.tnum" horiz-adv-x="1384" 
d="M692 301q-145 0 -258 78l-188 -189l-119 119l195 195q-66 111 -66 233v33q0 131 63 236l-192 192l119 119l188 -189q108 78 258 78t258 -78l189 189l118 -119l-192 -192q63 -105 63 -236v-33q0 -124 -65 -233l194 -195l-118 -119l-189 189q-113 -78 -258 -78zM692 465
q122 0 191 80.5t69 208.5q0 130 -70 209t-190 79t-190 -79t-70 -209q0 -128 69 -208.5t191 -80.5z" />
    <glyph glyph-name="dollar.tnum" horiz-adv-x="1384" 
d="M801 -264h-176v270q-216 22 -334.5 146.5t-118.5 324.5h184q0 -56 18.5 -107.5t58 -97.5t111.5 -74t169 -28q169 0 259.5 73.5t90.5 180.5q0 99 -78.5 165t-220.5 79l-135 12q-197 18 -307.5 120t-110.5 285q0 170 108.5 276t296.5 128v205h177v-207q187 -22 293 -140.5
t106 -312.5h-184q0 56 -17.5 106t-52 92.5t-95 67.5t-138.5 25q-142 0 -224 -68.5t-82 -171.5q0 -93 62.5 -156t183.5 -73l135 -12q218 -21 344.5 -130t126.5 -290q0 -174 -120 -286t-330 -132v-270z" />
    <glyph glyph-name="Euro.tnum" horiz-adv-x="1384" 
d="M823 -29q-244 0 -389 135t-186 400h-201v135h186q-2 29 -2 92v29v55h-147v135h158q68 572 565 572q247 0 372 -120t134 -327h-176q-9 133 -91 206t-239 73q-167 0 -262.5 -97.5t-124.5 -306.5h553v-135h-563q-2 -23 -2 -69q0 -41 4 -107h524v-135h-508
q35 -189 133.5 -278t261.5 -89q160 0 241 73t89 206h176q-10 -208 -133 -327.5t-373 -119.5z" />
    <glyph glyph-name="riel-khmer.tnum" horiz-adv-x="1384" 
d="M879 -12h-197q-117 0 -207.5 32.5t-146.5 102.5t-56 170q0 135 120 209.5t319 77.5v143h-312v135h312v33q0 67 -68 110q-22 15 -86 51t-88 52q-154 106 -72 285q32 69 99 95.5t186 26.5q160 0 311 -20v-160q-195 25 -331 25q-49 0 -71.5 -10.5t-33.5 -36.5
q-22 -57 23 -86q23 -16 93.5 -55t100.5 -56q58 -34 81.5 -86t23.5 -135v-33h274v-135h-274v-735zM674 143h37v291q-135 -2 -203 -34t-68 -103q0 -74 64.5 -114t169.5 -40z" />
    <glyph glyph-name="sterling.tnum" horiz-adv-x="1384" 
d="M1014 647h-504v-491h573v192h164v-348h-1077v156h164v491h-152v135h152v228q0 236 131 368.5t366 132.5q174 0 322 -20v-168q-152 20 -326 20q-147 0 -232 -84.5t-85 -263.5v-213h504v-135z" />
    <glyph glyph-name="yen.tnum" horiz-adv-x="1384" 
d="M799 0h-185v319h-434v136h434v176h-434v135h297l-364 729h209l352 -729h74l327 729h197l-340 -729h301v-135h-434v-176h434v-136h-434v-319z" />
    <glyph glyph-name="plus.tnum" horiz-adv-x="1384" 
d="M776 176h-168v451h-405v155h405v451h168v-451h406v-155h-406v-451z" />
    <glyph glyph-name="minus.tnum" horiz-adv-x="1384" 
d="M1182 627h-979v155h979v-155z" />
    <glyph glyph-name="multiply.tnum" horiz-adv-x="1384" 
d="M215 338l365 364l-365 363l117 117l364 -365l365 365l108 -109l-364 -364l364 -363l-116 -117l-365 365l-364 -365z" />
    <glyph glyph-name="divide.tnum" horiz-adv-x="1384" 
d="M799 999h-213v230h213v-230zM1182 627h-979v155h979v-155zM799 180h-213v230h213v-230z" />
    <glyph glyph-name="equal.tnum" horiz-adv-x="1384" 
d="M1182 780h-979v156h979v-156zM1182 416h-979v155h979v-155z" />
    <glyph glyph-name="caroncomb.alt" 
d="M299 1171h-135v492h160z" />
    <glyph glyph-name="dieresiscomb.case" 
d="M133 1663q-63 0 -98 34t-35 91t35 91t98 34t98 -34t35 -91t-35 -91t-98 -34zM567 1663q-63 0 -98 34t-35 91t35 91t98 34t98 -34t35 -91t-35 -91t-98 -34z" />
    <glyph glyph-name="dotaccentcomb.case" 
d="M133 1663q-63 0 -98 34t-35 91t35 91t98 34t98 -34t35 -91t-35 -91t-98 -34z" />
    <glyph glyph-name="gravecomb.case" 
d="M487 1614h-184l-303 336h233z" />
    <glyph glyph-name="acutecomb.case" 
d="M180 1614h-180l260 336h229z" />
    <glyph glyph-name="hungarumlautcomb.case" 
d="M496 1614h-148l174 336h205zM147 1614h-147l174 336h205z" />
    <glyph glyph-name="circumflexcomb.case" 
d="M178 1614h-178l262 336h238l266 -336h-182l-189 237h-33z" />
    <glyph glyph-name="caroncomb.case" 
d="M498 1614h-230l-268 336h182l187 -238h32l166 238h178z" />
    <glyph glyph-name="brevecomb.case" 
d="M340 1602q-165 0 -248.5 96t-91.5 252h139q5 -97 53 -157t148 -60q101 0 154.5 61t58.5 156h127q-8 -156 -91.5 -252t-248.5 -96z" />
    <glyph glyph-name="ringcomb.case" 
d="M244 1573q-110 0 -177 64t-67 157t67 157t177 64t176.5 -63.5t66.5 -157.5t-66.5 -157.5t-176.5 -63.5zM244 1679q60 0 94.5 32t34.5 83t-34.5 83t-94.5 32t-94.5 -32t-34.5 -83t34.5 -83t94.5 -32z" />
    <glyph glyph-name="tildecomb.case" 
d="M522 1663q-50 0 -95 14.5t-73 32.5t-67 32.5t-80 14.5q-50 0 -95.5 -22t-74.5 -60l-37 127q31 44 86.5 71.5t124.5 27.5q50 0 95 -15t72.5 -32.5t67 -32.5t80.5 -15q50 0 95.5 22t74.5 60l37 -127q-32 -43 -87.5 -70.5t-123.5 -27.5z" />
    <glyph glyph-name="macroncomb.case" 
d="M680 1708h-680v141h680v-141z" />
    <glyph glyph-name="commaturnedabovecomb.case" 
d="M152 1552q-71 0 -111.5 50t-40.5 145v12q0 108 66.5 165.5t189.5 57.5h14v-94h-18q-73 0 -110.5 -32t-35.5 -89v-16q19 8 50 8q51 0 82.5 -25t31.5 -77t-33.5 -78.5t-84.5 -26.5z" />
    <glyph glyph-name="commaaccentcomb.case" 
d="M14 -582h-14v99h18q69 0 109.5 44.5t40.5 116.5v3q-26 -11 -49 -11q-49 0 -82 29t-33 82q0 55 35 86t84 31q68 0 112 -52.5t44 -150.5v-12q0 -124 -72.5 -194.5t-192.5 -70.5z" />
    <glyph glyph-name="cedillacomb.case" 
d="M147 -508q-79 0 -147 21v139q72 -21 147 -21q67 0 103.5 21t36.5 55q0 31 -31.5 49.5t-89.5 18.5h-82v245h131v-120q100 -12 157.5 -60.5t57.5 -128.5q0 -94 -77 -156.5t-206 -62.5z" />
    <glyph glyph-name="ogonekcomb.case" 
d="M371 -520q-113 0 -184.5 69.5t-71.5 174.5q0 92 57.5 175t159.5 150l65 43l66 -92l-68 -47q-66 -46 -101.5 -100.5t-35.5 -108.5q0 -51 32.5 -86t92.5 -35q55 0 104 19v-144q-56 -18 -116 -18z" />
    <glyph glyph-name="sora.tnum" horiz-adv-x="1384" 
d="M692 815l-483 -815h-199l584 967h-582v141h592v246h-592v141h1360v-141h-592v-246h592v-141h-581l581 -967h-198z" />
    </font>
</defs>
</svg>
