<svg xmlns="http://www.w3.org/2000/svg" fill="none" viewBox="0 0 48 47"><g clip-path="url(#a)"><path fill="#fff" d="M21.5497 21.0128c-.1958-.6071-.3721-1.1946-.5679-1.8016-.1958-.6071-.3721-1.175-.5287-1.743-.1567-.5483-.2938-1.0575-.4309-1.5275h-.0391c-.1763.8421-.3917 1.6842-.6659 2.5263-.2937.94-.5875 1.9192-.9008 2.8983-.2742.9988-.5679 1.9192-.8617 2.7417h4.9742c-.1175-.4132-.2742-.9008-.4504-1.412-.1763-.5268-.3525-1.0947-.5288-1.6822ZM39.6056.5874H9.2514c-4.6021 0-8.323 3.7208-8.323 8.323v29.1791c0 4.6021 3.7209 8.3229 8.323 8.3229h30.3542c4.602 0 8.3229-3.7208 8.3229-8.3229V8.9103c0-4.602-3.7209-8.3229-8.3229-8.3229ZM29.716 32.9587h-4.0949c-.1351.0195-.2722-.0784-.3114-.2155l-1.6058-4.6608h-7.285l-1.4883 4.6021c-.0392.1762-.1959.2937-.3721.2761h-3.6817c-.2154 0-.2742-.1194-.2154-.3525l6.3058-18.1557c.0588-.1958.1175-.4112.1959-.6462.0783-.4113.1175-.8421.1175-1.273-.0196-.0979.0587-.1958.1566-.2154h5.0721c.1567 0 .235.0588.2546.1567l7.1479 20.1708c.0588.2135 0 .3134-.1958.3134Zm6.6583-.2938c0 .2154-.0764.3133-.2526.3133h-3.8403c-.1958 0-.2938-.1194-.2938-.3133V17.5857c0-.1958.0803-.2741.2566-.2741h3.8775c.1762 0 .2526.0979.2526.2741v15.0792Zm-.4093-17.6837c-.4524.47-1.1182.7245-1.784.6854-.6463.0196-1.2729-.235-1.7449-.6854-.4504-.4896-.6854-1.1359-.6658-1.8017-.0196-.6658.235-1.2925.703-1.7429.4739-.4504 1.1006-.6854 1.7468-.6854.7657 0 1.3493.235 1.7821.6854.4309.47.6658 1.0966.6463 1.7429.0195.6658-.2154 1.3121-.6835 1.8017Z"/></g><defs><clipPath id="a"><path fill="#fff" d="M0 0h47v47H0z" transform="translate(.9285)"/></clipPath></defs></svg>