<svg xmlns="http://www.w3.org/2000/svg" data-name="Layer 1" viewBox="0 0 24 24"><path d="M19 13.5v5c0 3.033-2.467 5.5-5.5 5.5h-8C2.467 24 0 21.533 0 18.5v-8C0 7.467 2.467 5 5.5 5h5c.829 0 1.5.671 1.5 1.5S11.329 8 10.5 8h-5C4.122 8 3 9.122 3 10.5v8C3 19.878 4.122 21 5.5 21h8c1.378 0 2.5-1.122 2.5-2.5v-5c0-.829.671-1.5 1.5-1.5s1.5.671 1.5 1.5ZM20.5 0h-5c-.829 0-1.5.671-1.5 1.5S14.671 3 15.5 3h3.379L8.439 13.439c-.586.585-.586 1.536 0 2.121.293.293.677.439 1.061.439s.768-.146 1.061-.439L21 5.121V8.5c0 .829.671 1.5 1.5 1.5S24 9.329 24 8.5v-5C24 1.57 22.43 0 20.5 0Z"/></svg>