<svg xmlns="http://www.w3.org/2000/svg" data-name="Layer 1" viewBox="0 0 24 24"><path d="M17.5 0h-11C3.468 0 1 2.468 1 5.5v14c0 1.278.547 2.501 1.5 3.354.617.555 1.565.5 2.118-.117.552-.617.5-1.565-.118-2.118-.322-.288-.5-.686-.5-1.118 0-.827.673-1.5 1.5-1.5H7v5.347c0 .623.791.89 1.169.395L9.5 22l1.331 1.743c.378.495 1.169.228 1.169-.395v-5.347h8v.5c0 1.379-1.121 2.5-2.5 2.5h-2c-.828 0-1.5.672-1.5 1.5s.672 1.5 1.5 1.5h2c3.032 0 5.5-2.468 5.5-5.5V5.5C23 2.468 20.532 0 17.5 0ZM4 15.257V5.5C4 4.121 5.121 3 6.5 3H7v12H5.5c-.526 0-1.031.091-1.5.257ZM20 15H10V3h7.5C18.879 3 20 4.121 20 5.5V15Z"/></svg>