<svg xmlns="http://www.w3.org/2000/svg" fill="none" viewBox="0 0 24 24"><path fill="#000" fill-rule="evenodd" d="M4.9849 2C3.6155 2 2.6022 3.1986 2.6475 4.4984c.0436 1.2489-.013 2.8662-.4202 4.1852C1.819 10.0064 1.1282 10.8444 0 10.952v1.2146c1.1282.1076 1.819.9456 2.2273 2.2685.4072 1.3189.4638 2.9363.4202 4.1851-.0453 1.2997.968 2.4984 2.3376 2.4984h14.0318c1.3695 0 2.3826-1.1985 2.3372-2.4984-.0435-1.2488.013-2.8662.4202-4.1851.4086-1.3229 1.0975-2.1609 2.2257-2.2685V10.952c-1.1282-.1076-1.8171-.9456-2.2257-2.2684-.4072-1.3188-.4637-2.9364-.4202-4.1852C21.3995 3.1988 20.3864 2 19.0169 2H4.9847h.0002Zm11.2863 11.7687c0 1.7899-1.3351 2.8754-3.5506 2.8754H8.9492a.4068.4068 0 0 1-.4068-.4068v-9.356a.4068.4068 0 0 1 .4067-.4067h3.75c1.8473 0 3.0597 1.0007 3.0597 2.537 0 1.0784-.8155 2.0439-1.8547 2.2129v.0564c1.4146.1552 2.3671 1.1347 2.3671 2.4878Zm-3.9618-6.0046h-2.1505v3.0374h1.8112c1.4001 0 2.1722-.5638 2.1722-1.5716 0-.9443-.6639-1.4658-1.8329-1.4658Zm-2.1505 4.2427v3.3474h2.2296c1.4577 0 2.2299-.585 2.2299-1.6843 0-1.0995-.7938-1.6633-2.3237-1.6633h-2.1358v.0002Z" clip-rule="evenodd"/></svg>