<svg xmlns="http://www.w3.org/2000/svg" data-name="Layer 1" viewBox="0 0 24 24"><path d="M21 10.003C20.791 1.38 8.562.51 7.089 8.941l-3.086 1.122C3.959 4.53 8.469 0 14 .003 27.287.509 27.223 19.585 13.939 20l1.122-3.086C18.418 16.4 21 13.501 21 10.003Zm-6.69-.309c1.183 1.183 1.735 2.776 1.585 4.378 1.535-.716 2.606-2.263 2.606-4.069.019-4.795-6.642-6.192-8.577-1.88 1.615-.205 3.227.42 4.386 1.572ZM.442 21.439l2.645-2.645-1.666-1.666c-.642-.642-.907-1.553-.711-2.439.197-.886.823-1.6 1.676-1.91l6.838-2.486c1.294-.47 2.699-.156 3.672.815.972.972 1.284 2.379.814 3.671l-2.486 6.838c-.31.853-1.024 1.479-1.91 1.676a2.6298 2.6298 0 0 1-2.439-.711l-1.666-1.666-2.645 2.645C1.171 24.942-.938 22.832.443 21.44Zm8.154-1.377 2.293-6.309c.095-.261-.031-.44-.116-.524-.083-.085-.262-.215-.524-.116L3.94 15.406l4.656 4.656Z"/></svg>