<svg xmlns="http://www.w3.org/2000/svg" data-name="Layer 1" viewBox="0 0 24 24"><path d="M24 5.5v8c0 3.032-2.468 5.5-5.5 5.5h-5v2h3c.828 0 1.5.672 1.5 1.5s-.672 1.5-1.5 1.5h-9c-.828 0-1.5-.672-1.5-1.5S6.672 21 7.5 21h3v-2h-5C2.468 19 0 16.532 0 13.5v-8C0 2.989 1.697.798 4.126.173c.803-.208 1.62.276 1.827 1.079.206.802-.277 1.62-1.079 1.826C3.77 3.362 3 4.357 3 5.499v8c0 1.379 1.121 2.5 2.5 2.5h13c1.379 0 2.5-1.121 2.5-2.5V5.5c0-1.142-.771-2.137-1.874-2.421-.803-.207-1.285-1.024-1.078-1.827.206-.802 1.028-1.286 1.826-1.079C22.304.798 24 2.989 24 5.5ZM7.36 6.991l.226-.133c-.054-.278-.087-.564-.087-.858s.033-.58.087-.858l-.226-.133c-.714-.42-.951-1.34-.53-2.054s1.341-.951 2.054-.531l.242.143c.406-.34.866-.609 1.374-.79v-.276c0-.829.672-1.5 1.5-1.5s1.5.671 1.5 1.5v.276c.508.181.968.45 1.374.79l.242-.143c.715-.42 1.635-.183 2.054.531.421.714.184 1.633-.53 2.054l-.226.133c.054.278.087.564.087.858s-.033.58-.087.858l.226.133c.714.42.951 1.34.53 2.054-.279.475-.779.739-1.293.739-.259 0-.521-.067-.761-.208l-.242-.143c-.406.34-.866.609-1.374.79v.276c0 .829-.672 1.5-1.5 1.5s-1.5-.671-1.5-1.5v-.276c-.508-.181-.968-.45-1.374-.79l-.242.143c-.239.141-.502.208-.761.208-.514 0-1.014-.264-1.293-.739-.421-.714-.184-1.633.53-2.054ZM12 7.5c.827 0 1.5-.673 1.5-1.5s-.673-1.5-1.5-1.5-1.5.673-1.5 1.5.673 1.5 1.5 1.5Z"/></svg>