<svg width="186" height="171" viewBox="0 0 186 171" fill="none" xmlns="http://www.w3.org/2000/svg">
<path fill-rule="evenodd" clip-rule="evenodd" d="M0 89.125C0 112.623 19.127 131.75 42.625 131.75H81.375V147.25H58.125C51.7002 147.25 46.5 152.458 46.5 158.875C46.5 159.276 46.5203 159.672 46.5601 160.063C47.1179 165.55 51.497 169.913 56.9916 170.445C57.3646 170.482 57.7426 170.5 58.125 170.5H127.875C134.3 170.5 139.5 165.292 139.5 158.875C139.5 152.458 134.3 147.25 127.876 147.25H127.875H104.625V131.75H143.375C166.881 131.75 186 112.623 186 89.125V50.375V42.625C186 19.1192 166.881 0 143.375 0H127.875H58.125H42.625C19.1192 0 0 19.1192 0 42.625V50.375V89.125ZM162.75 42.625V50.375V89.125C162.75 89.793 162.716 90.4531 162.65 91.1038C161.718 100.246 154.405 107.524 145.255 108.409C144.637 108.469 144.009 108.5 143.375 108.5H42.625C31.9378 108.5 23.25 99.8122 23.25 89.125V50.375V42.625C23.25 31.9455 31.9455 23.25 42.625 23.25H58.125H127.875H143.375C154.055 23.25 162.75 31.9455 162.75 42.625ZM77.3765 48.25C77.3765 39.5623 84.3821 32.5 93 32.5C101.618 32.5 108.623 39.5623 108.623 48.25C108.623 56.9377 101.618 64 93 64C84.3821 64 77.3765 56.9377 77.3765 48.25ZM117.841 89.2C118.229 90.7057 117.898 92.3122 116.948 93.547C115.998 94.7755 114.548 95.5 112.998 95.5H73.002C71.4521 95.5 70.0023 94.7818 69.0524 93.547C68.1024 92.3122 67.7712 90.712 68.1587 89.2C70.9584 78.2443 81.4011 70.3 93 70.3C104.599 70.3 115.035 78.2506 117.841 89.2Z" fill="black"/>
</svg>
