<svg xmlns="http://www.w3.org/2000/svg" fill="none" viewBox="0 0 28 28"><g clip-path="url(#a)"><path fill="url(#b)" d="M19.236 12.5138c.1843 2.0767-1.4467 3.8197-3.486 3.8197h-3.843c-.9473 0-1.6357-.9229-1.3347-1.8224.6277-1.8806 1.7885-4.6071 4.3482-5.0995 2.0475-.3943 4.1312 1.0255 4.3155 3.1022Zm1.9577-1.7267 5.9803-5.9803c1.1002-1.099 1.1025-2.8817.0035-3.9818-1.0978-1.099-2.8782-1.1002-3.9772-.0024-.0373.0374-5.7785 6.4517-5.7785 6.4517 1.7395.525 3.1349 1.8247 3.7719 3.5128Zm5.0563-.287c-.966 0-1.75.784-1.75 1.75v3.5c0 1.6089-1.3078 2.9167-2.9167 2.9167H6.4167C4.809 18.6668 3.5 17.359 3.5 15.7501v-7c0-1.6088 1.309-2.9166 2.9167-2.9166h8.1666c.966 0 1.75-.784 1.75-1.75s-.784-1.75-1.75-1.75H6.4167C2.8782 2.3335 0 5.2128 0 8.7502V15.75c0 3.5374 2.8782 6.4167 6.4167 6.4167H12.25v2.3333h-3.5c-.9672 0-1.75.784-1.75 1.75s.7828 1.75 1.75 1.75h10.5c.966 0 1.75-.784 1.75-1.75s-.784-1.75-1.75-1.75h-3.5v-2.3333h5.8333c3.5374 0 6.4167-2.8793 6.4167-6.4167v-3.5c0-.966-.784-1.75-1.75-1.75Z"/></g><defs><linearGradient id="b" x1="0" x2="28.0004" y1="14.0001" y2="14.0001" gradientUnits="userSpaceOnUse"><stop stop-color="#4DFFAF"/><stop offset="1" stop-color="#3EAD7B"/></linearGradient><clipPath id="a"><path fill="#fff" d="M0 0h28v28H0z"/></clipPath></defs></svg>