<svg xmlns="http://www.w3.org/2000/svg" fill="none" viewBox="0 0 28 28"><g clip-path="url(#a)"><path fill="url(#b)" d="M20.9708 8.1958c1.5925 1.5914 1.5925 4.1825 0 5.7739l-2.4325 2.4336c-.3406.3419-.7898.5122-1.2378.5122a1.744 1.744 0 0 1-1.2378-.5122c-.6837-.6836-.6837-1.7908 0-2.4745l2.4325-2.4336a.5838.5838 0 0 0 0-.8249l-2.4325-2.4336c-.6837-.6837-.6837-1.7909 0-2.4745.6836-.6837 1.792-.6837 2.4745 0l2.4336 2.4336Zm-9.0335.0409c.6837-.6837.6837-1.7909 0-2.4745-.6836-.6837-1.792-.6837-2.4745 0L7.0303 8.1958c-1.5925 1.5914-1.5925 4.1825 0 5.7739l2.4325 2.4336c.3407.3419.7899.5122 1.2379.5122.448 0 .896-.1703 1.2378-.5122.6837-.6836.6837-1.7908 0-2.4745L9.506 11.4952a.5838.5838 0 0 1 0-.8249l2.4313-2.4336ZM28 6.4155V15.75c0 3.5373-2.8782 6.4167-6.4167 6.4167H15.75V24.5h3.5c.9672 0 1.75.784 1.75 1.75S20.2172 28 19.25 28H8.75C7.7828 28 7 27.216 7 26.25s.7828-1.75 1.75-1.75h3.5v-2.3333H6.4167C2.8782 22.1667 0 19.2873 0 15.75V6.4167C0 2.8793 2.8782 0 6.4167 0h15.1666C25.1218 0 28 2.8782 28 6.4155Zm-3.5 0c0-1.6088-1.309-2.9167-2.9167-2.9167H6.4167C4.809 3.4988 3.5 4.8067 3.5 6.4155V15.75c0 1.6088 1.309 2.9167 2.9167 2.9167h15.1666c1.6077 0 2.9167-1.3079 2.9167-2.9167V6.4155Z"/></g><defs><linearGradient id="b" x1="0" x2="28" y1="14" y2="14" gradientUnits="userSpaceOnUse"><stop stop-color="#4DFFAF"/><stop offset="1" stop-color="#3EAD7B"/></linearGradient><clipPath id="a"><path fill="#fff" d="M0 0h28v28H0z"/></clipPath></defs></svg>