<svg xmlns="http://www.w3.org/2000/svg" data-name="Layer 1" viewBox="0 0 24 24"><path d="M18.5 1h-13C2.467 1 0 3.467 0 6.5v6C0 15.533 2.467 18 5.5 18h5v2h-3c-.829 0-1.5.671-1.5 1.5S6.671 23 7.5 23h9c.829 0 1.5-.671 1.5-1.5s-.671-1.5-1.5-1.5h-3v-2h5c3.033 0 5.5-2.467 5.5-5.5v-6C24 3.467 21.533 1 18.5 1ZM21 12.5c0 1.378-1.122 2.5-2.5 2.5h-13C4.122 15 3 13.878 3 12.5v-6C3 5.122 4.122 4 5.5 4h13C19.878 4 21 5.122 21 6.5v6Zm-2-5.417v3.512c0 .824-.997 1.237-1.579.654l-.775-.775-1.398 1.398c-.548.548-1.269.823-1.989.823s-1.44-.274-1.989-.823l-1.755-1.755-1.957 1.945c-.589.583-1.538.581-2.122-.006-.584-.588-.581-1.538.006-2.122l2.09-2.077c1.097-1.089 2.879-1.087 3.972.006l1.755 1.755 1.266-1.266-.752-.752c-.583-.583-.17-1.579.654-1.579h3.512c.586 0 1.061.475 1.061 1.061Z"/></svg>