<svg xmlns="http://www.w3.org/2000/svg" fill="none" viewBox="0 0 15 14"><path fill="url(#a)" d="M5.4964 10.325c1.0251 1.0251 2.6872 1.0251 3.7123 0l1.8737-1.8737a.875.875 0 0 0 .0215-1.2372.875.875 0 0 0-1.2587 0L8.2218 8.8369 8.2083.875a.875.875 0 0 0-1.75 0l.0123 7.949L4.86 7.2136a.875.875 0 0 0-1.2372 1.2372l1.8736 1.8743Z"/><path fill="#000" d="M5.4964 10.325c1.0251 1.0251 2.6872 1.0251 3.7123 0l1.8737-1.8737a.875.875 0 0 0 .0215-1.2372.875.875 0 0 0-1.2587 0L8.2218 8.8369 8.2083.875a.875.875 0 0 0-1.75 0l.0123 7.949L4.86 7.2136a.875.875 0 0 0-1.2372 1.2372l1.8736 1.8743Z"/><path fill="url(#b)" d="M13.4583 8.4583a.875.875 0 0 0-.875.875v2.6781a.2391.2391 0 0 1-.2385.2386H2.3219a.2392.2392 0 0 1-.2386-.2386v-2.678a.875.875 0 1 0-1.75 0v2.678C.3346 13.1091 1.2242 13.9987 2.322 14h10.0228c1.0978-.0013 1.9873-.8909 1.9886-1.9886v-2.678a.875.875 0 0 0-.875-.875Z"/><path fill="#000" d="M13.4583 8.4583a.875.875 0 0 0-.875.875v2.6781a.2391.2391 0 0 1-.2385.2386H2.3219a.2392.2392 0 0 1-.2386-.2386v-2.678a.875.875 0 1 0-1.75 0v2.678C.3346 13.1091 1.2242 13.9987 2.322 14h10.0228c1.0978-.0013 1.9873-.8909 1.9886-1.9886v-2.678a.875.875 0 0 0-.875-.875Z"/><defs><linearGradient id="a" x1="3.3771" x2="11.3496" y1="5.5469" y2="5.5469" gradientUnits="userSpaceOnUse"><stop stop-color="#4DFFAF"/><stop offset="1" stop-color="#3EAD7B"/></linearGradient><linearGradient id="b" x1=".3333" x2="14.3333" y1="11.2292" y2="11.2292" gradientUnits="userSpaceOnUse"><stop stop-color="#4DFFAF"/><stop offset="1" stop-color="#3EAD7B"/></linearGradient></defs></svg>