<svg xmlns="http://www.w3.org/2000/svg" fill="none" viewBox="0 0 40 41"><g clip-path="url(#a)"><path fill="url(#b)" d="M32.545 24.4114c-3.2683.705-9.3733 1.89-13.545 1.89-4.1717 0-10.2767-1.1834-13.545-1.89-1.58-.3434-3.21.045-4.4683 1.0633C-.2767 26.4947-1 28.0097-1 29.6347v5.9817c0 1.6233.725 3.14 1.9867 4.16 1.2566 1.015 2.8866 1.3983 4.4683 1.0633 3.2683-.705 9.3733-1.89 13.545-1.89 4.1717 0 10.2767 1.1833 13.545 1.89.3767.0817.755.1217 1.1317.1217 1.2033 0 2.3783-.41 3.3366-1.1834C38.2767 38.758 39 37.243 39 35.618v-5.9816c0-1.6234-.725-3.14-1.9867-4.16-1.2583-1.0167-2.89-1.4017-4.4683-1.0634v-.0016ZM4.4 35.9497c-.1.0217-.1917 0-.2733-.065-.085-.07-.1284-.16-.1284-.27V29.633c0-.11.0434-.2.1284-.27.0816-.065.1716-.0883.2733-.065 3.4733.75 8.11 1.6084 12.1 1.895v2.86c-3.99.2867-8.6267 1.145-12.1 1.895v.0017Zm29.6-.335c0 .11-.0433.2-.1283.27-.08.065-.17.0883-.2734.065-3.4733-.75-8.11-1.6083-12.1-1.895v-2.86c3.99-.2867 8.6267-1.145 12.1-1.895.1-.0233.1917 0 .2734.065.085.07.1283.16.1283.27v5.98ZM37.465 7.818 23.1483 1.803C20.475.6797 17.41.6814 14.74 1.813L.5267 7.823C-.3983 8.213-1 9.1214-1 10.1247c0 1.0033.6017 1.9117 1.5267 2.3017l6.8066 2.8783v4.82c0 1.3817 1.1184 2.5 2.5 2.5 1.3817 0 2.5-1.1183 2.5-2.5v-2.705L14.74 18.438c1.34.565 2.7783.8484 4.215.8484 1.43 0 2.86-.28 4.1933-.84l2.5184-1.0584v2.7367c0 1.3817 1.1183 2.5 2.5 2.5 1.3816 0 2.5-1.1183 2.5-2.5v-4.8383l3.3333-1.4v4.5716c0 1.3817 1.1183 2.5 2.5 2.5s2.5-1.1183 2.5-2.5v-8.3333c0-1.6667-1.3283-2.22-1.535-2.3067Zm-16.2533 6.0184c-1.4367.605-3.0867.6033-4.525-.005L7.92 10.1247l8.7667-3.7067c1.4383-.6083 3.0883-.61 4.525-.005l8.8333 3.7117-8.8333 3.7117Z"/></g><defs><linearGradient id="b" x1="-1" x2="39" y1="20.9619" y2="20.9619" gradientUnits="userSpaceOnUse"><stop stop-color="#4DFFAF"/><stop offset="1" stop-color="#3EAD7B"/></linearGradient><clipPath id="a"><path fill="#fff" d="M0 0h40v40H0z" transform="translate(0 .958)"/></clipPath></defs></svg>