<svg xmlns="http://www.w3.org/2000/svg" fill="none" viewBox="0 0 28 24"><path fill="url(#a)" d="M21.0909 0H6.9091a6.0066 6.0066 0 0 0-6 6v12a6.0064 6.0064 0 0 0 6 6H21.091a6.0064 6.0064 0 0 0 6-6V6a6.0065 6.0065 0 0 0-6-6Zm0 3.2727a2.7012 2.7012 0 0 1 1.7924.6884l-7.0909 7.0909a2.5887 2.5887 0 0 1-3.576 0l-7.091-7.091a2.701 2.701 0 0 1 1.7837-.6883H21.091Zm0 17.4546H6.9091A2.7275 2.7275 0 0 1 4.182 18V7.655l5.7152 5.7152a5.801 5.801 0 0 0 4.1024 1.6998 5.8016 5.8016 0 0 0 4.1023-1.6998l5.7164-5.7153V18a2.7273 2.7273 0 0 1-2.7273 2.7273Z"/><defs><linearGradient id="a" x1=".9091" x2="27.0909" y1="12" y2="12" gradientUnits="userSpaceOnUse"><stop stop-color="#4DFFAF"/><stop offset="1" stop-color="#3EAD7B"/></linearGradient></defs></svg>