<svg xmlns="http://www.w3.org/2000/svg" xml:space="preserve" viewBox="0 0 509.348 509.348"><path d="M488.935 188.541C437.397 109.024 349.407 60.662 254.652 59.773c-94.754.889-182.744 49.251-234.282 128.768-27.16 39.859-27.16 92.279 0 132.139 51.509 79.566 139.504 127.978 234.283 128.896 94.754-.889 182.744-49.251 234.283-128.768 27.217-39.889 27.217-92.379-.001-132.267zm-52.736 96c-39.348 62.411-107.769 100.488-181.547 101.035-73.777-.546-142.198-38.624-181.547-101.035-12.267-18.022-12.267-41.712 0-59.733 39.348-62.411 107.769-100.488 181.547-101.035 73.777.546 142.198 38.624 181.547 101.035 12.267 18.021 12.267 41.711 0 59.733z"/><circle cx="254.652" cy="254.674" r="85.333"/></svg>