<svg xmlns="http://www.w3.org/2000/svg" fill="none" viewBox="0 0 24 24"><path fill="#0F0F0F" fill-rule="evenodd" d="M8.9548.5c-1.5498 0-2.803.5205-3.6717 1.3853C4.4237 2.7407 4 3.8765 4 5s.4237 2.2593 1.2831 3.1148c.0595.059.1207.1166.1837.1728.0832.0737.1696.1445.259.2124a4.3575 4.3575 0 0 0-.2324.189 4.5849 4.5849 0 0 0-.2103.1962C4.4237 9.7407 4 10.8765 4 12c0 1.1235.4237 2.2593 1.2831 3.1147a4.376 4.376 0 0 0 .4149.3638 4.501 4.501 0 0 0-1.6115 4.3994 4.5 4.5 0 0 0 3.5356 3.5357 4.4972 4.4972 0 0 0 2.6-.2564A4.4965 4.4965 0 0 0 12.2416 21.5 4.4986 4.4986 0 0 0 13 19v-3.2578a4.4802 4.4802 0 0 0 2.5.7578c2.4853 0 4.5-2.0146 4.5-4.5 0-1.4258-.6631-2.6968-1.6979-3.5215a4.3812 4.3812 0 0 0 .4148-.3637C19.5764 7.2593 20 6.1235 20 5c0-1.1235-.4236-2.2593-1.2831-3.1147C17.8482 1.0205 16.595.5 15.0452.5H8.9548ZM11 9.5H8.9548c-1.0867 0-1.8109.3545-2.2605.8022C6.2355 10.7593 6 11.3735 6 12c0 .6265.2355 1.2407.6943 1.6978.4496.4477 1.1739.8022 2.2605.8022H11v-5Zm-3.8804 7.4341c.4085-.273.889-.4341 1.3804-.4341H11V19c0 .4912-.1609.9717-.434 1.3804-.273.4087-.661.727-1.1151.915a2.4826 2.4826 0 0 1-1.4356.1416 2.4826 2.4826 0 0 1-1.2723-.6802 2.4838 2.4838 0 0 1-.5386-2.7075 2.4837 2.4837 0 0 1 .9152-1.1152ZM13 7.5h2.0452c1.0866 0 1.8109-.3545 2.2605-.8022C17.7645 6.2408 18 5.6265 18 5c0-.6265-.2355-1.2407-.6943-1.6978-.4496-.4477-1.1738-.8022-2.2605-.8022H13v5Zm-2 0H8.9548c-1.0866 0-1.8109-.3545-2.2605-.8022C6.2355 6.2408 6 5.6265 6 5c0-.6265.2355-1.2407.6943-1.6978C7.1439 2.8545 7.868 2.5 8.9548 2.5H11v5Zm4.5 6.9849c-1.3723 0-2.4847-1.1128-2.4847-2.4849S14.1277 9.5151 15.5 9.5151 17.9847 10.628 17.9847 12s-1.1124 2.4849-2.4847 2.4849Z" clip-rule="evenodd"/></svg>