<svg xmlns="http://www.w3.org/2000/svg" viewBox="0 0 32 32"><path d="M30.428 14.663 17.333 1.569c-.35-.349-.833-.565-1.367-.565s-1.017.216-1.367.565l-2.713 2.718 3.449 3.449c.22-.077.473-.121.737-.121 1.269 0 2.297 1.028 2.297 2.297 0 .269-.046.526-.131.766l.005-.016 3.322 3.324c.222-.079.479-.125.746-.125 1.268 0 2.296 1.028 2.296 2.296s-1.028 2.296-2.296 2.296c-1.268 0-2.296-1.028-2.296-2.296 0-.313.063-.611.176-.883l-.006.015-3.11-3.094v8.154c.764.385 1.279 1.163 1.279 2.061 0 1.27-1.03 2.3-2.3 2.3s-2.3-1.03-2.3-2.3c0-.634.256-1.207.671-1.623.211-.211.462-.382.741-.502l.015-.006v-8.234c-.842-.354-1.422-1.173-1.422-2.126 0-.32.065-.624.183-.901l-.006.015-3.389-3.405-8.98 8.974c-.348.351-.562.834-.562 1.368s.215 1.017.563 1.368L14.664 30.43c.349.35.832.566 1.366.566s1.016-.216 1.366-.566L30.43 17.396c.35-.349.567-.833.567-1.366s-.217-1.017-.567-1.366z"/></svg>