<svg xmlns="http://www.w3.org/2000/svg" data-name="Layer 1" viewBox="0 0 24 24"><path d="M22 5.644V2.5c0-.828-.672-1.5-1.5-1.5S19 1.672 19 2.5v1.089L15.077.941c-1.869-1.262-4.286-1.262-6.153 0l-6.5 4.386A5.4942 5.4942 0 0 0 0 9.886V18.5C0 21.532 2.468 24 5.5 24h13c3.032 0 5.5-2.468 5.5-5.5V9.886c0-1.653-.739-3.202-2-4.242ZM21 18.5c0 1.379-1.121 2.5-2.5 2.5h-13C4.121 21 3 19.879 3 18.5V9.886c0-.832.412-1.606 1.102-2.072l6.501-4.386c.424-.287.911-.431 1.397-.431s.974.144 1.398.431l6.5 4.386C20.587 8.28 21 9.054 21 9.886V18.5Z"/></svg>