<svg xmlns="http://www.w3.org/2000/svg" data-name="Layer 1" viewBox="0 0 24 24"><path d="M18.5 4H15V3c0-1.654-1.346-3-3-3S9 1.346 9 3v1H5.5C2.467 4 0 6.468 0 9.5v9C0 21.532 2.467 24 5.5 24h13c3.033 0 5.5-2.468 5.5-5.5v-9C24 6.468 21.533 4 18.5 4ZM21 18.5c0 1.379-1.122 2.5-2.5 2.5h-13C4.122 21 3 19.879 3 18.5v-9C3 8.121 4.122 7 5.5 7h3.769c.346.597.992 1 1.731 1h2c.739 0 1.385-.403 1.731-1H18.5C19.878 7 21 8.121 21 9.5v9Zm-11.5-7C9.5 10.121 10.621 9 12 9s2.5 1.121 2.5 2.5S13.379 14 12 14s-2.5-1.121-2.5-2.5Zm6.475 6.5c.062.239.009.494-.143.69a.8007.8007 0 0 1-.632.31H8.8c-.248 0-.48-.114-.632-.31a.7986.7986 0 0 1-.143-.69c.448-1.739 2.119-3 3.975-3s3.526 1.262 3.975 3Z"/></svg>