<svg xmlns="http://www.w3.org/2000/svg" viewBox="0 0 32 32"><path d="M18.082 2.72c-.608.9-.971 2.01-.971 3.204 0 .858.187 1.673.523 2.405l-.015-.036c.88 1.958 2.48 3.461 4.454 4.194l.054.018c.081.031.16.057.245.087l.11.034c.115.037.231.079.35.105.527.164 1.132.258 1.759.258 2.482 0 4.619-1.476 5.58-3.599l.016-.039c-.992 1.246-2.51 2.038-4.212 2.038-.705 0-1.378-.136-1.995-.383l.036.013c-.262-.066-.477-.134-.686-.214l.042.014c-.317-.111-.572-.218-.82-.338l.047.021c-.517-.252-.96-.527-1.372-.84l.02.015c-1.755-1.2-2.891-3.191-2.891-5.448 0-.968.209-1.888.585-2.716l-.017.041zm-6.931 2.406c-.909 1.403-1.449 3.118-1.449 4.959 0 1.622.419 3.146 1.155 4.47l-.024-.047c.278.548.559 1.011.871 1.451l-.024-.035c.293.467.621.872.99 1.234l.001.001c.134.152.279.3.43.45l.112.112c.142.137.29.271.437.406l.02.016q.253.221.517.427c.043.029.079.062.12.091.175.135.352.265.535.395l.019.011c.077.056.16.107.247.162.035.022.075.052.112.075.132.085.262.165.397.246.021.009.04.02.06.029.112.069.235.135.352.196.041.025.081.044.125.067.082.041.165.085.246.127l.04.017c.169.084.341.161.51.237.042.017.079.031.115.049.139.06.28.117.42.171.062.021.121.046.18.065.127.047.262.091.387.135l.175.056c.151.057.339.113.531.157l.03.006c9.91 1.641 12.204-5.992 12.204-5.992-1.738 2.269-4.449 3.718-7.498 3.718-1.009 0-1.981-.159-2.892-.452l.067.019q-.283-.073-.561-.162c-.06-.017-.112-.036-.17-.054-.13-.045-.264-.087-.39-.136l-.18-.067c-.141-.056-.284-.109-.42-.169-.042-.019-.081-.031-.114-.05-.175-.079-.351-.156-.522-.24l-.257-.134-.149-.075q-.168-.089-.331-.187a.6511.6511 0 0 1-.08-.046l.003.002c-.132-.082-.271-.162-.397-.247-.042-.024-.081-.052-.121-.077l-.26-.17c-.18-.125-.356-.26-.535-.391-.04-.036-.079-.066-.117-.099-1.869-1.453-3.279-3.416-4.027-5.68l-.024-.084c-.284-.835-.447-1.797-.447-2.797 0-1.612.425-3.125 1.17-4.433l-.023.044zM2.91 8.34C1.711 10.232 1 12.536 1 15.006c0 2.266.599 4.392 1.647 6.228l-.033-.062c.046.099.097.192.147.286.029.065.061.125.096.187.016.034.039.07.059.102.033.065.067.127.101.19l.196.332c.037.061.071.121.112.182.07.117.15.234.222.351.032.05.062.097.099.146q.182.286.387.556c.097.134.195.264.3.394.034.047.072.095.107.144l.275.336c.035.038.069.084.105.124.122.147.252.291.382.437l.006.008c.162.203.336.383.526.545l.005.005c.1.104.2.206.306.306l.126.121c.139.131.279.261.425.386l.006.004.071.062c.127.111.256.222.387.325l.156.131c.106.085.217.166.325.25l.171.131c.116.087.24.174.359.259.044.031.087.062.132.091l.037.029.35.231.15.1c.185.117.367.23.55.34.051.025.105.055.154.085.135.077.275.156.411.229.075.042.152.079.23.117.094.052.191.104.292.156.027.008.05.018.072.03l-.002-.001c.041.019.08.039.12.059.15.075.306.147.469.219.039.015.07.029.101.045l-.006-.003c.18.079.361.154.547.227.043.012.087.034.131.05.169.064.342.129.514.19l.062.023c.192.065.381.127.575.187.045.012.091.029.139.041.2.06.392.131.592.171 12.837 2.339 16.568-7.719 16.568-7.719-3.134 4.081-8.695 5.157-13.963 3.96-.195-.045-.39-.107-.587-.165q-.357-.106-.709-.227l-.077-.03c-.17-.057-.334-.121-.5-.185q-.068-.027-.137-.05c-.185-.075-.362-.151-.541-.23-.039-.012-.071-.03-.11-.045q-.227-.104-.452-.212-.068-.03-.132-.065c-.117-.055-.235-.119-.35-.179q-.118-.057-.234-.12c-.142-.075-.284-.156-.425-.234-.042-.03-.091-.055-.14-.082q-.277-.164-.549-.337-.075-.046-.147-.097-.199-.123-.39-.259c-.044-.029-.084-.06-.129-.091q-.187-.129-.369-.265c-.052-.042-.109-.082-.165-.125-.11-.087-.221-.169-.331-.26l-.147-.119q-.213-.171-.419-.35a.3234.3234 0 0 0-.045-.038l-.001-.001-.434-.395-.125-.117c-.102-.105-.207-.205-.312-.307l-.122-.125q-.198-.197-.386-.404l-.019-.02c-.132-.145-.262-.294-.391-.444-.034-.037-.066-.08-.1-.121l-.284-.346q-.216-.278-.425-.561c-1.796-2.276-2.881-5.185-2.881-8.348 0-2.053.457-4 1.275-5.743l-.035.083z"/></svg>