<svg xmlns="http://www.w3.org/2000/svg" fill="none" viewBox="0 0 48 47"><path fill="#fff" d="M42.8928 0H5.9642C3.184 0 .9285 2.2556.9285 5.0357v36.9286C.9285 44.7444 3.184 47 5.9642 47h36.9286c2.7801 0 5.0357-2.2556 5.0357-5.0357V5.0357C47.9285 2.2556 45.6729 0 42.8928 0ZM26.5057 36.6558c0 4.5741-2.6857 6.6618-6.5989 6.6618-3.5355 0-5.5812-1.8254-6.6303-4.039l3.5984-2.1717c.6924 1.2275 1.3219 2.2661 2.8431 2.2661 1.4477 0 2.371-.5665 2.371-2.7801V21.5801h4.4167v15.0757Zm10.4491 6.6618c-4.102 0-6.7562-1.9513-8.0466-4.5111l3.5984-2.0773c.9442 1.5422 2.1821 2.6857 4.3538 2.6857 1.8254 0 3.0004-.9127 3.0004-2.1821 0-1.5107-1.196-2.0457-3.2207-2.9375l-1.1016-.4721c-3.1893-1.3533-5.298-3.0634-5.298-6.6618 0-3.3152 2.5284-5.833 6.4625-5.833 2.8116 0 4.8259.9756 6.2737 3.5354l-3.4411 2.2031c-.7553-1.3533-1.5736-1.8883-2.8431-1.8883-1.2904 0-2.1087.8183-2.1087 1.8883 0 1.3219.8183 1.857 2.7172 2.6858l1.1016.4721c3.7558 1.6051 5.8645 3.2522 5.8645 6.9451 0 3.9656-3.1264 6.1477-7.3123 6.1477Z"/></svg>