<svg xmlns="http://www.w3.org/2000/svg" xml:space="preserve" viewBox="0 0 512 512"><path d="M485.379 170.88c-22.148-27.445-55.547-43.367-90.815-43.293H351.25l1.913-11.222c7.798-45.716-22.94-89.097-68.656-96.895a83.9258 83.9258 0 0 0-15.23-1.188c-32.056-.167-61.464 17.761-76.001 46.332l-32.135 62.973h-44.249C52.364 127.658.07 179.951 0 244.48v106.266c.07 64.529 52.364 116.822 116.892 116.892H372.1c55.158-.2 102.743-38.764 114.363-92.685l22.465-106.266c7.371-34.486-1.289-70.455-23.549-97.807zM63.759 350.745V244.48c0-29.344 23.788-53.133 53.133-53.133h31.88v212.531h-31.88c-29.344 0-53.133-23.788-53.133-53.133zm382.79-95.256-22.486 106.266c-5.273 24.506-26.897 42.035-51.964 42.124H212.531v-236.74l37.533-73.557c3.978-7.446 11.886-11.937 20.318-11.54 11.174.007 20.227 9.072 20.22 20.246a20.301 20.301 0 0 1-.284 3.366l-14.601 85.693h118.847c29.344-.003 53.135 23.783 53.138 53.127a53.096 53.096 0 0 1-1.153 11.015z"/></svg>