<svg xmlns="http://www.w3.org/2000/svg" fill="none" viewBox="0 0 24 24"><g clip-path="url(#a)"><mask id="b" width="24" height="24" x="0" y="0" maskUnits="userSpaceOnUse" style="mask-type:luminance"><path fill="#fff" d="M0 0h24v24H0V0Z"/></mask><g stroke-linecap="round" stroke-linejoin="round" stroke-miterlimit="10" stroke-width="4" mask="url(#b)"><path stroke="url(#c)" d="m19.9648 2.5583-2.592-.862a3.824 3.824 0 0 0-2.202-.065l-5.341 1.552c-.868.233-1.791.153-2.605-.227l-.44-.205c-2.514-1.046-5.285.802-5.285 3.526v11.521c0 1.705 1.13 3.203 2.77 3.672l2.74.856c.7.219 1.448.232 2.155.036l5.538-1.53a3.8155 3.8155 0 0 1 2.058.017l2.198.635c1.803.439 3.541-.926 3.541-2.782V6.1543c0-1.614-1.014-3.054-2.535-3.596Z"/><path stroke="url(#d)" d="M15.5 2v18.5"/><path stroke="url(#e)" d="M8.5 3.5v19"/></g></g><defs><linearGradient id="c" x1="1.4998" x2="22.4998" y1="12.0003" y2="12.0003" gradientUnits="userSpaceOnUse"><stop stop-color="#4DFFAF"/><stop offset="1" stop-color="#3EAD7B"/></linearGradient><linearGradient id="d" x1="15.5" x2="16.5" y1="11.25" y2="11.25" gradientUnits="userSpaceOnUse"><stop stop-color="#4DFFAF"/><stop offset="1" stop-color="#3EAD7B"/></linearGradient><linearGradient id="e" x1="8.5" x2="9.5" y1="13" y2="13" gradientUnits="userSpaceOnUse"><stop stop-color="#4DFFAF"/><stop offset="1" stop-color="#3EAD7B"/></linearGradient><clipPath id="a"><path fill="#fff" d="M0 0h24v24H0z"/></clipPath></defs></svg>