<svg xmlns="http://www.w3.org/2000/svg" fill="none" viewBox="0 0 14 14"><path fill="#000" d="M10.7917 0H3.2083C1.4397 0 0 1.439 0 3.2083v5.25c0 1.7693 1.4397 3.2084 3.2083 3.2084h.7234l2.1 1.7681a1.469 1.469 0 0 0 .9765.3704c.3395 0 .6755-.1179.9368-.35l2.163-1.7885h.6837c1.7686 0 3.2083-1.4391 3.2083-3.2084v-5.25C14 1.4391 12.5603 0 10.7917 0ZM12.25 8.4583c0 .8039-.6539 1.4584-1.4583 1.4584H9.793a.8766.8766 0 0 0-.5577.2006l-2.233 1.8475-2.1869-1.8422a.8757.8757 0 0 0-.564-.206h-1.043c-.8045 0-1.4584-.6544-1.4584-1.4583v-5.25c0-.8038.654-1.4583 1.4583-1.4583h7.5834c.8044 0 1.4583.6545 1.4583 1.4583v5.25ZM7.875 6.125C7.875 6.608 7.483 7 7 7s-.875-.392-.875-.875.392-.875.875-.875.875.392.875.875Zm2.9167 0c0 .483-.392.875-.875.875s-.875-.392-.875-.875.392-.875.875-.875.875.392.875.875Zm-5.8334 0c0 .483-.392.875-.875.875s-.875-.392-.875-.875.392-.875.875-.875.875.392.875.875Z"/></svg>