<svg width="12" height="12" viewBox="0 0 12 12" fill="none" xmlns="http://www.w3.org/2000/svg">
<path d="M12.0001 6C12.0001 4.651 11.5511 3.406 10.7961 2.404L10.7971 2.405C10.2251 1.646 9.00108 2.099 9.00108 3.049V5.883C9.00108 7.334 8.02308 8.666 6.59908 8.943C4.68408 9.315 3.00108 7.851 3.00108 6.001V3.057C3.00108 2.076 1.74608 1.669 1.16508 2.458C0.259081 3.687 -0.188919 5.272 0.0760815 6.964C0.485081 9.568 2.65508 11.647 5.27308 11.957C8.90508 12.386 12.0001 9.548 12.0001 6Z" fill="black"/>
<path d="M4.50008 2V5.5C4.50008 6.328 5.17108 7 6.00008 7C6.82908 7 7.50008 6.328 7.50008 5.5V2C7.50008 1.172 6.82908 0.5 6.00008 0.5C5.17108 0.5 4.50008 1.172 4.50008 2Z" fill="black"/>
<path d="M12.0001 6C12.0001 4.651 11.5511 3.406 10.7961 2.404L10.7971 2.405C10.2251 1.646 9.00108 2.099 9.00108 3.049V5.883C9.00108 7.334 8.02308 8.666 6.59908 8.943C4.68408 9.315 3.00108 7.851 3.00108 6.001V3.057C3.00108 2.076 1.74608 1.669 1.16508 2.458C0.259081 3.687 -0.188919 5.272 0.0760815 6.964C0.485081 9.568 2.65508 11.647 5.27308 11.957C8.90508 12.386 12.0001 9.548 12.0001 6Z" fill="black"/>
<path d="M4.50008 2V5.5C4.50008 6.328 5.17108 7 6.00008 7C6.82908 7 7.50008 6.328 7.50008 5.5V2C7.50008 1.172 6.82908 0.5 6.00008 0.5C5.17108 0.5 4.50008 1.172 4.50008 2Z" fill="black"/>
</svg>
