<svg xmlns="http://www.w3.org/2000/svg" fill="none" viewBox="0 0 24 24"><path fill="url(#a)" d="M1.8478 1.926 2.9375.9763c1.3696-1.3197 3.559-1.3097 4.9486.08l2.0695 2.2393c.6598.6599 1.0297 1.5396 1.0297 2.4794 0 .9397-.3599 1.8095-1.0197 2.4693l-.4.3999c1.2697 2.6792 3.1692 4.5787 5.7585 5.7784l.4099-.3999c.6598-.6598 1.5396-1.0197 2.4693-1.0197.9298 0 1.8095.3599 2.4394.9897l2.3193 2.1494c.6599.6599 1.0298 1.5396 1.0298 2.4794 0 .9397-.3499 1.7795-.9798 2.4293 0 0-.9297 1.0697-.9497 1.0897C20.8626 23.3402 19.2431 24 17.5035 24 9.9855 24 .0083 14.0227.0083 6.5048c0-1.7396.6598-3.3591 1.8595-4.5588l-.02-.02Zm15.6357 19.0548c.9198 0 1.7795-.3399 2.4094-.9497 0 0 .9197-1.0597.9497-1.0797.13-.13.15-.28.15-.3499 0-.07-.02-.23-.11-.3099l-2.3194-2.1495a.5016.5016 0 0 0-.3499-.1499c-.0699 0-.2299.02-.3499.1499l-1.1297 1.1197a1.5057 1.5057 0 0 1-1.5895.3299c-4.0989-1.5595-7.0381-4.4987-8.7277-8.7176-.2199-.5498-.1-1.1897.32-1.6096L7.8562 6.125c.13-.13.15-.28.15-.35 0-.07-.02-.2299-.19-.3898L5.7467 3.1457a.5133.5133 0 0 0-.7098 0c-.02.02-1.0797.9497-1.0797.9497-.6098.6298-.9497 1.4796-.9497 2.4094 0 6.3982 8.9875 14.496 14.496 14.496l-.02-.02Z"/><defs><linearGradient id="a" x1="23.9918" x2=".0083" y1="12" y2="12" gradientUnits="userSpaceOnUse"><stop stop-color="#4DFFAF"/><stop offset="1" stop-color="#3EAD7B"/></linearGradient></defs></svg>