<svg xmlns="http://www.w3.org/2000/svg" fill="none" viewBox="0 0 91 47"><path fill="#fff" d="M70.9642 17.9049c.6494.7195.8035 1.955.4639 3.705-.3548 1.8228-1.0377 3.1231-2.0497 3.9026-1.0129.7795-2.5532 1.1692-4.6216 1.1692H61.636l1.9158-9.8561h3.5149c1.9496 0 3.2481.36 3.8975 1.0793Zm-43.9391-1.0793h-3.5149l-1.916 9.8561h3.1207c2.0679 0 3.6086-.3897 4.6215-1.1692 1.0122-.7795 1.695-2.08 2.0498-3.9026.3395-1.7502.1853-2.9855-.4639-3.705-.6492-.7193-1.9478-1.0793-3.8972-1.0793ZM90.2754 23.5c0 12.9787-20.0013 23.5-44.6735 23.5C20.9298 47 .9285 36.4787.9285 23.5.9285 10.5214 20.9298 0 45.6019 0c24.6722 0 44.6735 10.5214 44.6735 23.5Zm-54.7198 1.6236c.5315-.9525.9097-2.0039 1.1335-3.1537.5424-2.7918.1331-4.9662-1.2281-6.5241-1.3605-1.5579-3.5258-2.3365-6.4932-2.3365h-9.8654l-4.5769 23.5499h5.1303l1.2166-6.2604h4.3946c1.9386 0 3.5337-.2035 4.7859-.6115 1.2521-.4072 2.39-1.0898 3.4145-2.049.8593-.7903 1.5551-1.6614 2.0882-2.6147Zm18.0568 5.2752 2.1298-10.9598c.4334-2.2288.1082-3.8416-.9742-4.837-1.0834-.9945-3.051-1.4927-5.9043-1.4927h-4.5343l1.2171-6.2612h-5.0898l-4.5778 23.5505h5.0898l2.622-13.4921h4.0681c1.3023 0 2.1536.2154 2.5535.6466.3999.4313.4849 1.2398.2544 2.4249l-2.0249 10.4206h5.1706v.0002ZM75.5027 15.446c-1.3603-1.5579-3.5256-2.3365-6.4929-2.3365h-9.8656l-4.5771 23.5499h5.1305l1.2164-6.2605h4.3948c1.9384 0 3.5337-.2035 4.7857-.6114 1.2521-.4072 2.39-1.0898 3.4145-2.049.8602-.7905 1.5554-1.6614 2.0882-2.6147.5322-.9526.9095-2.0039 1.1335-3.1537.5425-2.792.1332-4.9664-1.228-6.5241Z"/></svg>