<svg xmlns="http://www.w3.org/2000/svg" fill="none" viewBox="0 0 16 16"><path fill="#000" d="M13.1371 6.9102A7.0359 7.0359 0 0 0 14 6.4V8c0 1.6569-2.6863 3-6 3S2 9.6569 2 8V6.4a7.034 7.034 0 0 0 .863.5102C4.281 7.6192 6.1 8 8 8c1.9 0 3.719-.3808 5.1371-1.0898ZM2 11.4V13c0 1.6569 2.6863 3 6 3s6-1.3431 6-3v-1.6a7.0388 7.0388 0 0 1-.8629.5102C11.719 12.6192 9.9001 13 8 13c-1.9 0-3.719-.3808-5.137-1.0898A7.0368 7.0368 0 0 1 2 11.4ZM8 0c3.3137 0 6 1.3432 6 3 0 1.6569-2.6863 3-6 3S2 4.6569 2 3c0-1.6568 2.6863-3 6-3Z"/></svg>