<svg xmlns="http://www.w3.org/2000/svg" fill="none" viewBox="0 0 48 47"><path fill="#fff" d="M47.2754 23.4979C47.2754 36.4783 36.7537 47 23.7754 47s-23.5-10.5217-23.5-23.5021C.2754 10.5197 10.797 0 23.7754 0s23.5 10.5197 23.5 23.4979ZM34.05 8.6923c-2.388.083-4.4707 1.3996-6.0219 3.2186-1.7194 1.9956-2.8614 4.3628-3.6837 6.7799-1.4723-1.2065-2.6082-2.768-4.9712-3.4512-1.8274-.5254-3.744-.3094-5.509 1.005-.8369.6251-1.4121 1.5678-1.6841 2.4545-.7102 2.3049.7434 4.3565 1.4058 5.0937l1.4432 1.5449c.2969.3032 1.0133 1.0943.6645 2.2302-.378 1.2355-1.8668 2.0329-3.391 1.5636-.6811-.2118-1.6612-.7185-1.4411-1.4307.0893-.2928.299-.5129.4132-.7642.1018-.218.1516-.38.1828-.4755.2782-.9116-.1018-2.0952-1.0757-2.3963-.9095-.2782-1.8398-.0581-2.201 1.113-.4092 1.3311.2263 3.744 3.6359 4.7968 3.9952 1.2272 7.3737-.949 7.8534-3.7834.3032-1.7755-.5004-3.0982-1.9706-4.7947l-1.1961-1.3228c-.7268-.7267-.9739-1.9602-.2243-2.9092.6334-.8015 1.5367-1.1421 3.0131-.7413 2.1575.5835 3.1189 2.0828 4.722 3.2892-.6624 2.1721-1.0943 4.3524-1.4868 6.3106l-.2409 1.4577c-1.1483 6.0157-2.0225 9.3173-4.2984 11.2153-.4589.326-1.113.814-2.1014.8493-.5171.0166-.6853-.3406-.6936-.4963-.0104-.3634.2949-.5295.4984-.6936.3032-.1661.7641-.4423.733-1.3206-.0332-1.0424-.8971-1.9457-2.143-1.9021-.9344.0311-2.3568.9095-2.3028 2.5188.056 1.6612 1.603 2.9071 3.9391 2.8261 1.248-.0415 4.0368-.5502 6.784-3.8145 3.1979-3.744 4.0908-8.0362 4.7656-11.1779l.7497-4.1469c.4173.0499.8638.0831 1.3497.0956 3.9807.0851 5.9721-1.979 6.0032-3.4782.0187-.9075-.5959-1.8024-1.4577-1.7817-.6167.0187-1.3913.4278-1.5761 1.2812-.1806.8369 1.2667 1.5927.1329 2.3257-.8036.5213-2.2468.8888-4.2776.5898l.3696-2.0412c.7538-3.8707 1.6841-8.6321 5.21-8.7463.2575-.0125 1.1982.0103 1.2189.6333.0063.2076-.0436.2616-.2886.7372-.2492.3696-.3406.6852-.3302 1.0486.0353.9884.787 1.6384 1.873 1.5989 1.4557-.0477 1.8731-1.4639 1.8502-2.1928-.0602-1.711-1.8647-2.793-4.2485-2.716h.0041Z"/></svg>