<svg xmlns="http://www.w3.org/2000/svg" data-name="Layer 1" viewBox="0 0 24 24"><path d="M19.5 1h-15C2.015 1 0 3.015 0 5.5v12C0 20.533 2.467 23 5.5 23h13c3.033 0 5.5-2.467 5.5-5.5v-12C24 3.015 21.985 1 19.5 1Zm-10 2c.828 0 1.5.672 1.5 1.5S10.328 6 9.5 6 8 5.328 8 4.5 8.672 3 9.5 3Zm-5 0C5.328 3 6 3.672 6 4.5S5.328 6 4.5 6 3 5.328 3 4.5 3.672 3 4.5 3ZM21 17.5c0 1.378-1.122 2.5-2.5 2.5h-13C4.122 20 3 18.878 3 17.5V8h18v9.5Zm-6-.5v-5.5c0-.829.671-1.5 1.5-1.5s1.5.671 1.5 1.5V17c0 .829-.671 1.5-1.5 1.5S15 17.829 15 17Zm-9-3v-2.5c0-.829.671-1.5 1.5-1.5s1.5.671 1.5 1.5V14c0 .551.449 1 1 1s1-.449 1-1v-2.5c0-.829.671-1.5 1.5-1.5s1.5.671 1.5 1.5V14c0 2.206-1.794 4-4 4s-4-1.794-4-4Z"/></svg>