<svg xmlns="http://www.w3.org/2000/svg" data-name="Layer 1" viewBox="0 0 24 24"><path d="M19.5 1h-15C2.015 1 0 3.015 0 5.5v12C0 20.532 2.467 23 5.5 23h13c3.033 0 5.5-2.468 5.5-5.5v-12C24 3.015 21.985 1 19.5 1Zm-10 2c.828 0 1.5.672 1.5 1.5S10.328 6 9.5 6 8 5.328 8 4.5 8.672 3 9.5 3Zm-5 0C5.328 3 6 3.672 6 4.5S5.328 6 4.5 6 3 5.328 3 4.5 3.672 3 4.5 3ZM21 17.5c0 1.379-1.122 2.5-2.5 2.5h-13C4.122 20 3 18.879 3 17.5V8h18v9.5ZM5 14.4v-3.15c0-.69.56-1.25 1.25-1.25s1.25.56 1.25 1.25v3.083c0 .643.357 1.167 1 1.167s1-.523 1-1.167V11.25c0-.69.56-1.25 1.25-1.25s1.25.56 1.25 1.25v3.25c0 2.17-1.985 3.885-4.235 3.425C6.129 17.59 5 16.071 5 14.4Zm8.142-2.73c-.415-.75.127-1.67.985-1.67.409 0 .786.222.985.58l.601 1.086.005.009.005-.009.601-1.086c.198-.358.575-.58.985-.58.857 0 1.4.92.985 1.67l-1.284 2.32-.005.01 1.289 2.33c.415.75-.127 1.67-.985 1.67-.409 0-.786-.222-.985-.58l-.606-1.096-.606 1.096c-.198.358-.575.58-.985.58-.857 0-1.4-.92-.985-1.67L14.431 14l-.005-.01-1.284-2.32Z"/></svg>