<svg xmlns="http://www.w3.org/2000/svg" data-name="Layer 1" viewBox="0 0 24 24"><path d="M18.5 1h-13C2.462 1 0 3.462 0 6.5v11C0 20.533 2.467 23 5.5 23h13c3.033 0 5.5-2.467 5.5-5.5v-11C24 3.462 21.538 1 18.5 1Zm-9 2c.828 0 1.5.672 1.5 1.5S10.328 6 9.5 6 8 5.328 8 4.5 8.672 3 9.5 3Zm-5 0C5.328 3 6 3.672 6 4.5S5.328 6 4.5 6 3 5.328 3 4.5 3.672 3 4.5 3ZM21 17.5c0 1.378-1.122 2.5-2.5 2.5h-13C4.122 20 3 18.878 3 17.5V8h18v9.5Zm-16-6c0-.829.671-1.5 1.5-1.5h5c.829 0 1.5.671 1.5 1.5s-.671 1.5-1.5 1.5h-5c-.829 0-1.5-.671-1.5-1.5Zm0 5c0-.829.671-1.5 1.5-1.5h5c.829 0 1.5.671 1.5 1.5s-.671 1.5-1.5 1.5h-5c-.829 0-1.5-.671-1.5-1.5Zm10 0v-5c0-.829.671-1.5 1.5-1.5h1c.829 0 1.5.671 1.5 1.5v5c0 .829-.671 1.5-1.5 1.5h-1c-.829 0-1.5-.671-1.5-1.5Z"/></svg>