<svg xmlns="http://www.w3.org/2000/svg" fill="none" viewBox="0 0 28 28"><path fill="url(#a)" d="M21.5833 1.1667H6.4167C2.8723 1.1667 0 4.039 0 7.5834v12.8333c0 3.5385 2.8782 6.4167 6.4167 6.4167h15.1666c3.5385 0 6.4167-2.8782 6.4167-6.4167V7.5834c0-3.5444-2.8723-6.4167-6.4167-6.4167ZM11.0833 3.5c.966 0 1.75.784 1.75 1.75S12.0493 7 11.0833 7s-1.75-.784-1.75-1.75.784-1.75 1.75-1.75ZM5.25 3.5C6.216 3.5 7 4.284 7 5.25S6.216 7 5.25 7 3.5 6.216 3.5 5.25 4.284 3.5 5.25 3.5ZM24.5 20.4167c0 1.6077-1.309 2.9167-2.9167 2.9167H6.4167c-1.6077 0-2.9167-1.309-2.9167-2.9167V9.3334h21v11.0833Zm-18.6667-7c0-.9672.7829-1.75 1.75-1.75h5.8334c.9671 0 1.75.7828 1.75 1.75s-.7829 1.75-1.75 1.75H7.5833c-.9671 0-1.75-.7828-1.75-1.75Zm0 5.8333c0-.9671.7829-1.75 1.75-1.75h5.8334c.9671 0 1.75.7829 1.75 1.75 0 .9672-.7829 1.75-1.75 1.75H7.5833c-.9671 0-1.75-.7828-1.75-1.75Zm11.6667 0v-5.8333c0-.9672.7828-1.75 1.75-1.75h1.1667c.9671 0 1.75.7828 1.75 1.75V19.25c0 .9672-.7829 1.75-1.75 1.75H19.25c-.9672 0-1.75-.7828-1.75-1.75Z"/><defs><linearGradient id="a" x1="0" x2="28" y1="14" y2="14" gradientUnits="userSpaceOnUse"><stop stop-color="#4DFFAF"/><stop offset="1" stop-color="#3EAD7B"/></linearGradient></defs></svg>