<svg xmlns="http://www.w3.org/2000/svg" data-name="Layer 1" viewBox="0 0 24 24"><path d="M23.56 23.56c-.29.29-.68.44-1.06.44s-.77-.15-1.06-.44l-21-21c-.59-.59-.59-1.53 0-2.12s1.53-.59 2.12 0L6.2 4.08c5.86-2.27 12.63-.87 17.11 3.6.09.09.18.18.27.28.57.6.55 1.55-.05 2.12-.29.28-.66.42-1.04.42-.4 0-.79-.16-1.09-.46l-.22-.22C17.86 6.5 13 5.27 8.56 6.47l3.55 3.55c2.34.04 4.58.97 6.24 2.63.59.58.59 1.54 0 2.12-.29.29-.67.44-1.05.44l6.24 6.24c.59.59.59 1.54 0 2.12ZM12 17c-1.1 0-2 .9-2 2s.9 2 2 2 2-.9 2-2-.9-2-2-2Zm-6-4.71c-.12.11-.24.22-.36.34-.59.58-.59 1.53 0 2.12.29.29.68.44 1.06.44s.77-.15 1.06-.44c.08-.08.16-.16.24-.23.62-.55.67-1.5.12-2.12-.55-.62-1.5-.67-2.12-.12ZM.97 7.41c-.1.09-.19.18-.28.27-.09.09-.18.19-.27.28-.57.6-.55 1.55.05 2.12.29.28.66.42 1.04.42.4 0 .79-.16 1.09-.46l.45-.45c.6-.57.63-1.52.06-2.12S1.59 6.84.99 7.41Z"/></svg>