<svg xmlns="http://www.w3.org/2000/svg" fill="none" viewBox="0 0 40 41"><g clip-path="url(#a)"><path fill="url(#b)" d="M30.8333 5.958H29.79c-.7417-2.8733-3.355-5-6.4567-5h-6.6666c-3.1 0-5.7134 2.1267-6.455 5h-1.045C4.1117 5.958 0 10.0713 0 15.1247v16.6666c0 5.0534 4.1117 9.1667 9.1667 9.1667h21.6666c5.0534 0 9.1667-4.1133 9.1667-9.1667V15.1247c0-5.0534-4.1133-9.1667-9.1667-9.1667ZM35 31.7913c0 2.2984-1.8683 4.1667-4.1667 4.1667H30V16.7913c0-1.38-1.12-2.5-2.5-2.5s-2.5 1.12-2.5 2.5V35.958H15V16.7913c0-1.38-1.1183-2.5-2.5-2.5s-2.5 1.12-2.5 2.5V35.958h-.8333C6.87 35.958 5 34.0897 5 31.7913V15.1247c0-2.2984 1.87-4.1667 4.1667-4.1667h21.6666c2.2984 0 4.1667 1.8683 4.1667 4.1667v16.6666Z"/></g><defs><linearGradient id="b" x1="0" x2="40" y1="20.958" y2="20.958" gradientUnits="userSpaceOnUse"><stop stop-color="#4DFFAF"/><stop offset="1" stop-color="#3EAD7B"/></linearGradient><clipPath id="a"><path fill="#fff" d="M0 0h40v40H0z" transform="translate(0 .958)"/></clipPath></defs></svg>